G04*
G04 #@! TF.GenerationSoftware,Altium Limited,Altium Designer,25.8.1 (18)*
G04*
G04 Layer_Physical_Order=2*
G04 Layer_Color=16711680*
%FSLAX44Y44*%
%MOMM*%
G71*
G04*
G04 #@! TF.SameCoordinates,660DC164-2CAA-4719-B800-EFC6AEB113B0*
G04*
G04*
G04 #@! TF.FilePolarity,Positive*
G04*
G01*
G75*
%ADD13C,0.9000*%
G36*
X478247Y158340D02*
X480052Y157792D01*
X481715Y156903D01*
X483173Y155706D01*
X484370Y154249D01*
X485259Y152585D01*
X485807Y150780D01*
X486017Y148640D01*
Y-47834D01*
X485807Y-49974D01*
X485259Y-51779D01*
X484370Y-53442D01*
X483173Y-54900D01*
X481715Y-56097D01*
X480052Y-56986D01*
X478247Y-57533D01*
X476107Y-57744D01*
X-93367D01*
X-95507Y-57533D01*
X-97312Y-56986D01*
X-98975Y-56097D01*
X-100433Y-54900D01*
X-101630Y-53442D01*
X-102519Y-51779D01*
X-103066Y-49974D01*
X-103277Y-47834D01*
Y148640D01*
X-103066Y150780D01*
X-102519Y152585D01*
X-101630Y154249D01*
X-100433Y155707D01*
X-98975Y156903D01*
X-97312Y157792D01*
X-95507Y158340D01*
X-93367Y158550D01*
X476107D01*
X478247Y158340D01*
D02*
G37*
%LPC*%
G36*
X42901Y39497D02*
X42900Y39497D01*
X-19999Y39497D01*
X-20009Y39495D01*
X-24126Y39090D01*
X-28094Y37886D01*
X-31751Y35931D01*
X-34956Y33301D01*
X-37586Y30096D01*
X-39541Y26439D01*
X-40745Y22471D01*
X-41150Y18355D01*
X-41152Y18344D01*
X-41152Y13344D01*
X-41150Y13334D01*
X-40745Y9218D01*
X-39541Y5250D01*
X-37586Y1593D01*
X-34956Y-1612D01*
X-31751Y-4243D01*
X-28094Y-6198D01*
X-24126Y-7401D01*
X-20009Y-7807D01*
X-19999Y-7809D01*
X42900Y-7809D01*
X42901Y-7809D01*
Y-7809D01*
X42910Y-7807D01*
X47027Y-7401D01*
X50995Y-6198D01*
X54652Y-4243D01*
X57857Y-1612D01*
X60488Y1593D01*
X62443Y5250D01*
X63646Y9218D01*
X64052Y13335D01*
X64054Y13344D01*
X64054D01*
X64054Y13344D01*
X64054Y15884D01*
X64054Y18344D01*
X64054Y18344D01*
X64054D01*
X64052Y18353D01*
X63646Y22471D01*
X62442Y26439D01*
X60488Y30096D01*
X57857Y33301D01*
X54652Y35931D01*
X50995Y37886D01*
X47027Y39090D01*
X42910Y39495D01*
X42901Y39497D01*
Y39497D01*
D02*
G37*
G36*
X421939Y38500D02*
X417901D01*
X413941Y37712D01*
X410210Y36167D01*
X406852Y33923D01*
X403997Y31068D01*
X401753Y27710D01*
X401295Y26603D01*
X398546D01*
X398087Y27710D01*
X395844Y31068D01*
X392988Y33923D01*
X389631Y36167D01*
X385900Y37712D01*
X381939Y38500D01*
X377901D01*
X373941Y37712D01*
X370210Y36167D01*
X366852Y33923D01*
X363997Y31068D01*
X361753Y27710D01*
X361295Y26603D01*
X358546D01*
X358087Y27710D01*
X355844Y31068D01*
X352988Y33923D01*
X349631Y36167D01*
X345900Y37712D01*
X341939Y38500D01*
X337901D01*
X333941Y37712D01*
X330210Y36167D01*
X326852Y33923D01*
X323997Y31068D01*
X321753Y27710D01*
X321295Y26603D01*
X318546D01*
X318087Y27710D01*
X315844Y31068D01*
X312988Y33923D01*
X309631Y36167D01*
X305900Y37712D01*
X301939Y38500D01*
X297901D01*
X293941Y37712D01*
X290210Y36167D01*
X286852Y33923D01*
X283997Y31068D01*
X281753Y27710D01*
X280208Y23980D01*
X279420Y20019D01*
Y15981D01*
X280208Y12020D01*
X281753Y8290D01*
X283997Y4932D01*
X286852Y2077D01*
X290210Y-167D01*
X293941Y-1712D01*
X297901Y-2500D01*
X301939D01*
X305900Y-1712D01*
X309631Y-167D01*
X312988Y2077D01*
X315844Y4932D01*
X318087Y8290D01*
X318546Y9397D01*
X321295D01*
X321753Y8290D01*
X323997Y4932D01*
X326852Y2077D01*
X330210Y-167D01*
X333941Y-1712D01*
X337901Y-2500D01*
X341939D01*
X345900Y-1712D01*
X349631Y-167D01*
X352988Y2077D01*
X355844Y4932D01*
X358087Y8290D01*
X358546Y9397D01*
X361295D01*
X361753Y8290D01*
X363997Y4932D01*
X366852Y2077D01*
X370210Y-167D01*
X373941Y-1712D01*
X377901Y-2500D01*
X381939D01*
X385900Y-1712D01*
X389631Y-167D01*
X392988Y2077D01*
X395844Y4932D01*
X398087Y8290D01*
X398546Y9397D01*
X401295D01*
X401753Y8290D01*
X403997Y4932D01*
X406852Y2077D01*
X410210Y-167D01*
X413941Y-1712D01*
X417901Y-2500D01*
X421939D01*
X425900Y-1712D01*
X429631Y-167D01*
X432988Y2077D01*
X435844Y4932D01*
X438087Y8290D01*
X439632Y12020D01*
X440420Y15981D01*
Y20019D01*
X439632Y23980D01*
X438087Y27710D01*
X435844Y31068D01*
X432988Y33923D01*
X429631Y36167D01*
X425900Y37712D01*
X421939Y38500D01*
D02*
G37*
%LPD*%
D13*
X-97750Y-50500D02*
D03*
X479750Y153250D02*
D03*
M02*
