M48
;Layer_Color=9474304
;FILE_FORMAT=4:4
METRIC,LZ
;TYPE=PLATED
T01F00S00C0.4000
T03F00S00C1.0000
T04F00S00C1.1000
T05F00S00C3.2000
;TYPE=NON_PLATED
T06F00S00C3.2000
%
T01
X0045823Y00012166
X0048323
X0050823
X0053323
X0054273Y00037166
Y00062166
Y00087166
Y00112166
Y00137166
Y00162166
Y00187166
Y00212166
Y00237166
X00489906Y00234698
X00483406Y00163948
X00469981Y00132873
X00398156Y00136698
X00384906Y00136198
X0037487Y0012926
X00366906Y00136948
X0035887Y0012926
X0034746Y0014067
X00350406Y00171448
X00362926Y00165378
X00370546Y00172998
X00378166Y00180618
X00385786Y00188238
X00393406Y00195858
X00401026Y00203478
X00396156Y00174698
X00406156
X00416406
Y00185198
X00433406Y00185698
X00393406Y00154448
X00384906Y00161448
X00362926Y00193318
X00317406Y00194948
X00290906Y00217698
X00266406Y00205698
X00253406Y00195448
Y00185198
Y00174198
X00253382Y00162698
X00274656Y00140698
Y00131198
X00237156Y00131948
X00195743Y00130448
X00190406Y00150698
X00180406Y00150948
X00178906Y00118198
X00179156Y00097448
X00256406Y00094698
X00241906Y00054448
X0023323Y00012166
X0025823
X0028323
X0030823
X0033323
X0035823
X0038323
X0040823
X0043323
X00320576Y00108878
X00301964Y00155006
X00262656Y00234448
X00216656Y00237948
Y00223448
X00205406Y00188698
X00145656Y00209448
X00144906Y00145448
X00078656Y00159448
X00074686Y00120464
X0007449Y00056096
X0008299
X0009149
X0009999
X0010849
X0011699
X0012549
X0013399
Y00042596
X0012549
X0011699
X0010849
X0009999
X0009149
X0008299
X0007449
X0007823Y00012166
X0010823
X0013323
X0015823
X0018323
X0020823
X0004223Y00029916
X00050906Y00204448
X00065406Y00203698
X0002323Y00212166
Y00187166
Y00162166
Y00137166
Y00112166
Y00087166
Y00062166
Y00037166
X0003323Y00012166
X0002323Y00237166
Y00262166
Y00287166
Y00312166
X00039666Y0041577
X00064666Y0041577
X00210526Y00353338
X00210906Y00298948
X00235656Y00298698
X00248656
X00261156
X00273656
X00299156
X00312156
X00324656
X00327906Y00334198
X00350226Y00352068
X00375656Y0035334
X00388326Y00353338
X00401026Y00353338
X00413726Y00353338
X00426426
X00375626Y00312698
X00361906Y00259448
X00334656Y00246948
X00310906Y00246448
X00305406Y00263698
X00273906Y00263948
X00243656
X00144176Y00255032
Y00240282
X00274026Y00397788
X00286726
X00299426
X00312126
X00479766Y00338098
X0054273Y00312166
Y00287166
Y00262166
X00500276Y00269438
T03
X00441616Y00093012
X00463656Y00075052
X00481616Y00093012
X00503656Y00075052
X00521616Y00093012
X00423656Y00075052
X00401616Y00093012
X00383656Y00075052
X00380214Y00487786
X00358624
X00337034
X00315444
X00293854
X00272264
X00250674
X00229084
X00207494
X00185904
X00164314
Y00530712
X00185904
X00207494
X00229084
X00250674
X00272264
X00293854
X00315444
X00337034
X00358624
X00380214
X00401804
Y00487786
T04
X00519Y001772
Y002026
X00519Y00228
X00519Y002534
X00519Y002788
Y003042
T05
X00048998Y00509249
X0051712
T06
X0014305Y004283
X0042305
M30
