G04*
G04 #@! TF.GenerationSoftware,Altium Limited,Altium Designer,25.8.1 (18)*
G04*
G04 Layer_Color=16711935*
%FSLAX44Y44*%
%MOMM*%
G71*
G04*
G04 #@! TF.SameCoordinates,23F0502B-7B20-4CC9-97BB-DA64BA6573D7*
G04*
G04*
G04 #@! TF.FilePolarity,Negative*
G04*
G01*
G75*
%ADD42C,0.7500*%
%ADD43C,1.7032*%
G04:AMPARAMS|DCode=44|XSize=1mm|YSize=2.5mm|CornerRadius=0.5mm|HoleSize=0mm|Usage=FLASHONLY|Rotation=0.000|XOffset=0mm|YOffset=0mm|HoleType=Round|Shape=RoundedRectangle|*
%AMROUNDEDRECTD44*
21,1,1.0000,1.5000,0,0,0.0*
21,1,0.0000,2.5000,0,0,0.0*
1,1,1.0000,0.0000,-0.7500*
1,1,1.0000,0.0000,-0.7500*
1,1,1.0000,0.0000,0.7500*
1,1,1.0000,0.0000,0.7500*
%
%ADD44ROUNDEDRECTD44*%
G04:AMPARAMS|DCode=45|XSize=1mm|YSize=1.8mm|CornerRadius=0.5mm|HoleSize=0mm|Usage=FLASHONLY|Rotation=0.000|XOffset=0mm|YOffset=0mm|HoleType=Round|Shape=RoundedRectangle|*
%AMROUNDEDRECTD45*
21,1,1.0000,0.8000,0,0,0.0*
21,1,0.0000,1.8000,0,0,0.0*
1,1,1.0000,0.0000,-0.4000*
1,1,1.0000,0.0000,-0.4000*
1,1,1.0000,0.0000,0.4000*
1,1,1.0000,0.0000,0.4000*
%
%ADD45ROUNDEDRECTD45*%
%ADD46O,1.6000X2.1000*%
%ADD47C,6.5080*%
G04:AMPARAMS|DCode=48|XSize=1.8mm|YSize=1.8mm|CornerRadius=0.1mm|HoleSize=0mm|Usage=FLASHONLY|Rotation=270.000|XOffset=0mm|YOffset=0mm|HoleType=Round|Shape=RoundedRectangle|*
%AMROUNDEDRECTD48*
21,1,1.8000,1.6000,0,0,270.0*
21,1,1.6000,1.8000,0,0,270.0*
1,1,0.2000,-0.8000,-0.8000*
1,1,0.2000,-0.8000,0.8000*
1,1,0.2000,0.8000,0.8000*
1,1,0.2000,0.8000,-0.8000*
%
%ADD48ROUNDEDRECTD48*%
%ADD49C,1.8000*%
%ADD50C,6.2032*%
%ADD51C,1.0032*%
D42*
X99990Y42596D02*
D03*
X108490Y56096D02*
D03*
Y42596D02*
D03*
X99990Y56096D02*
D03*
X74490Y42596D02*
D03*
X82990D02*
D03*
X91490D02*
D03*
X116990D02*
D03*
X125490D02*
D03*
X133990D02*
D03*
Y56096D02*
D03*
X125490D02*
D03*
X116990D02*
D03*
X91490D02*
D03*
X82990D02*
D03*
X74490D02*
D03*
D43*
X423656Y75052D02*
D03*
X441616Y93012D02*
D03*
X503656Y75052D02*
D03*
X521616Y93012D02*
D03*
X463656Y75052D02*
D03*
X481616Y93012D02*
D03*
X383656Y75052D02*
D03*
X401616Y93012D02*
D03*
D44*
X147490Y46296D02*
D03*
X60990D02*
D03*
D45*
X147490Y12496D02*
D03*
X60990D02*
D03*
D46*
X164314Y530712D02*
D03*
X185904D02*
D03*
X207494D02*
D03*
X229084D02*
D03*
X250674D02*
D03*
X272264D02*
D03*
X293854D02*
D03*
X315444D02*
D03*
X337034D02*
D03*
X358624D02*
D03*
X380214D02*
D03*
X401804D02*
D03*
X164314Y487786D02*
D03*
X185904D02*
D03*
X207494D02*
D03*
X229084D02*
D03*
X250674D02*
D03*
X272264D02*
D03*
X293854D02*
D03*
X315444D02*
D03*
X337034D02*
D03*
X358624D02*
D03*
X380214D02*
D03*
X401804D02*
D03*
D47*
X48998Y509249D02*
D03*
X517120D02*
D03*
D48*
X519000Y304200D02*
D03*
D49*
Y278800D02*
D03*
X519000Y228000D02*
D03*
X519000Y202600D02*
D03*
Y177200D02*
D03*
X519000Y253400D02*
D03*
D50*
X143050Y428300D02*
D03*
X423050D02*
D03*
D51*
X144176Y240282D02*
D03*
Y255032D02*
D03*
X50906Y204448D02*
D03*
X65406Y203698D02*
D03*
M02*
