G04*
G04 #@! TF.GenerationSoftware,Altium Limited,Altium Designer,25.8.1 (18)*
G04*
G04 Layer_Physical_Order=3*
G04 Layer_Color=10066410*
%FSLAX44Y44*%
%MOMM*%
G71*
G04*
G04 #@! TF.SameCoordinates,23F0502B-7B20-4CC9-97BB-DA64BA6573D7*
G04*
G04*
G04 #@! TF.FilePolarity,Positive*
G04*
G01*
G75*
%ADD53C,0.6500*%
%ADD54C,1.5000*%
G04:AMPARAMS|DCode=55|XSize=0.9mm|YSize=2.4mm|CornerRadius=0.45mm|HoleSize=0mm|Usage=FLASHONLY|Rotation=0.000|XOffset=0mm|YOffset=0mm|HoleType=Round|Shape=RoundedRectangle|*
%AMROUNDEDRECTD55*
21,1,0.9000,1.5000,0,0,0.0*
21,1,0.0000,2.4000,0,0,0.0*
1,1,0.9000,0.0000,-0.7500*
1,1,0.9000,0.0000,-0.7500*
1,1,0.9000,0.0000,0.7500*
1,1,0.9000,0.0000,0.7500*
%
%ADD55ROUNDEDRECTD55*%
G04:AMPARAMS|DCode=56|XSize=0.9mm|YSize=1.7mm|CornerRadius=0.45mm|HoleSize=0mm|Usage=FLASHONLY|Rotation=0.000|XOffset=0mm|YOffset=0mm|HoleType=Round|Shape=RoundedRectangle|*
%AMROUNDEDRECTD56*
21,1,0.9000,0.8000,0,0,0.0*
21,1,0.0000,1.7000,0,0,0.0*
1,1,0.9000,0.0000,-0.4000*
1,1,0.9000,0.0000,-0.4000*
1,1,0.9000,0.0000,0.4000*
1,1,0.9000,0.0000,0.4000*
%
%ADD56ROUNDEDRECTD56*%
%ADD57O,1.5000X2.0000*%
%ADD58C,6.0000*%
G04:AMPARAMS|DCode=59|XSize=1.7mm|YSize=1.7mm|CornerRadius=0.05mm|HoleSize=0mm|Usage=FLASHONLY|Rotation=270.000|XOffset=0mm|YOffset=0mm|HoleType=Round|Shape=RoundedRectangle|*
%AMROUNDEDRECTD59*
21,1,1.7000,1.6000,0,0,270.0*
21,1,1.6000,1.7000,0,0,270.0*
1,1,0.1000,-0.8000,-0.8000*
1,1,0.1000,-0.8000,0.8000*
1,1,0.1000,0.8000,0.8000*
1,1,0.1000,0.8000,-0.8000*
%
%ADD59ROUNDEDRECTD59*%
%ADD60C,1.7000*%
%ADD61C,0.8000*%
G36*
X560747Y400153D02*
X533050D01*
Y400169D01*
X527024Y399695D01*
X521147Y398284D01*
X515563Y395970D01*
X510409Y392812D01*
X505813Y388887D01*
X501888Y384291D01*
X498730Y379137D01*
X496417Y373553D01*
X495005Y367676D01*
X494531Y361650D01*
X495005Y355624D01*
X496417Y349747D01*
X498730Y344163D01*
X501888Y339009D01*
X505813Y334413D01*
X510409Y330488D01*
X515563Y327330D01*
X521147Y325017D01*
X527024Y323605D01*
X533050Y323131D01*
Y323147D01*
X560747D01*
Y5353D01*
X536433D01*
X536035Y7353D01*
X536357Y7486D01*
X537910Y9039D01*
X538750Y11068D01*
Y13264D01*
X537910Y15293D01*
X536357Y16846D01*
X534328Y17686D01*
X532132D01*
X530103Y16846D01*
X528550Y15293D01*
X527710Y13264D01*
Y11068D01*
X528550Y9039D01*
X530103Y7486D01*
X530425Y7353D01*
X530027Y5353D01*
X511433D01*
X511035Y7353D01*
X511357Y7486D01*
X512910Y9039D01*
X513750Y11068D01*
Y13264D01*
X512910Y15293D01*
X511357Y16846D01*
X509328Y17686D01*
X507132D01*
X505103Y16846D01*
X503550Y15293D01*
X502710Y13264D01*
Y11068D01*
X503550Y9039D01*
X505103Y7486D01*
X505425Y7353D01*
X505027Y5353D01*
X486433D01*
X486035Y7353D01*
X486357Y7486D01*
X487910Y9039D01*
X488750Y11068D01*
Y13264D01*
X487910Y15293D01*
X486357Y16846D01*
X484328Y17686D01*
X482132D01*
X480103Y16846D01*
X478550Y15293D01*
X477710Y13264D01*
Y11068D01*
X478550Y9039D01*
X480103Y7486D01*
X480425Y7353D01*
X480027Y5353D01*
X461433D01*
X461035Y7353D01*
X461357Y7486D01*
X462910Y9039D01*
X463750Y11068D01*
Y13264D01*
X462910Y15293D01*
X461357Y16846D01*
X459328Y17686D01*
X457132D01*
X455103Y16846D01*
X453550Y15293D01*
X452710Y13264D01*
Y11068D01*
X453550Y9039D01*
X455103Y7486D01*
X455425Y7353D01*
X455027Y5353D01*
X436433D01*
X436035Y7353D01*
X436357Y7486D01*
X437910Y9039D01*
X438750Y11068D01*
Y13264D01*
X437910Y15293D01*
X436357Y16846D01*
X434328Y17686D01*
X432132D01*
X430103Y16846D01*
X428550Y15293D01*
X427710Y13264D01*
Y11068D01*
X428550Y9039D01*
X430103Y7486D01*
X430425Y7353D01*
X430027Y5353D01*
X411433D01*
X411035Y7353D01*
X411357Y7486D01*
X412910Y9039D01*
X413750Y11068D01*
Y13264D01*
X412910Y15293D01*
X411357Y16846D01*
X409328Y17686D01*
X407132D01*
X405103Y16846D01*
X403550Y15293D01*
X402710Y13264D01*
Y11068D01*
X403550Y9039D01*
X405103Y7486D01*
X405425Y7353D01*
X405027Y5353D01*
X386433D01*
X386035Y7353D01*
X386357Y7486D01*
X387910Y9039D01*
X388750Y11068D01*
Y13264D01*
X387910Y15293D01*
X386357Y16846D01*
X384328Y17686D01*
X382132D01*
X380103Y16846D01*
X378550Y15293D01*
X377710Y13264D01*
Y11068D01*
X378550Y9039D01*
X380103Y7486D01*
X380425Y7353D01*
X380027Y5353D01*
X361433D01*
X361035Y7353D01*
X361357Y7486D01*
X362910Y9039D01*
X363750Y11068D01*
Y13264D01*
X362910Y15293D01*
X361357Y16846D01*
X359328Y17686D01*
X357132D01*
X355103Y16846D01*
X353550Y15293D01*
X352710Y13264D01*
Y11068D01*
X353550Y9039D01*
X355103Y7486D01*
X355425Y7353D01*
X355027Y5353D01*
X336433D01*
X336035Y7353D01*
X336357Y7486D01*
X337910Y9039D01*
X338750Y11068D01*
Y13264D01*
X337910Y15293D01*
X336357Y16846D01*
X334328Y17686D01*
X332132D01*
X330103Y16846D01*
X328550Y15293D01*
X327710Y13264D01*
Y11068D01*
X328550Y9039D01*
X330103Y7486D01*
X330425Y7353D01*
X330027Y5353D01*
X311433D01*
X311035Y7353D01*
X311357Y7486D01*
X312910Y9039D01*
X313750Y11068D01*
Y13264D01*
X312910Y15293D01*
X311357Y16846D01*
X309328Y17686D01*
X307132D01*
X305103Y16846D01*
X303550Y15293D01*
X302710Y13264D01*
Y11068D01*
X303550Y9039D01*
X305103Y7486D01*
X305425Y7353D01*
X305027Y5353D01*
X286433D01*
X286035Y7353D01*
X286357Y7486D01*
X287910Y9039D01*
X288750Y11068D01*
Y13264D01*
X287910Y15293D01*
X286357Y16846D01*
X284328Y17686D01*
X282132D01*
X280103Y16846D01*
X278550Y15293D01*
X277710Y13264D01*
Y11068D01*
X278550Y9039D01*
X280103Y7486D01*
X280425Y7353D01*
X280027Y5353D01*
X261433D01*
X261035Y7353D01*
X261357Y7486D01*
X262910Y9039D01*
X263750Y11068D01*
Y13264D01*
X262910Y15293D01*
X261357Y16846D01*
X259328Y17686D01*
X257132D01*
X255103Y16846D01*
X253550Y15293D01*
X252710Y13264D01*
Y11068D01*
X253550Y9039D01*
X255103Y7486D01*
X255425Y7353D01*
X255027Y5353D01*
X236433D01*
X236035Y7353D01*
X236357Y7486D01*
X237910Y9039D01*
X238750Y11068D01*
Y13264D01*
X237910Y15293D01*
X236357Y16846D01*
X234328Y17686D01*
X232132D01*
X230103Y16846D01*
X228550Y15293D01*
X227710Y13264D01*
Y11068D01*
X228550Y9039D01*
X230103Y7486D01*
X230425Y7353D01*
X230027Y5353D01*
X211433D01*
X211035Y7353D01*
X211357Y7486D01*
X212910Y9039D01*
X213750Y11068D01*
Y13264D01*
X212910Y15293D01*
X211357Y16846D01*
X209328Y17686D01*
X207132D01*
X205103Y16846D01*
X203550Y15293D01*
X202710Y13264D01*
Y11068D01*
X203550Y9039D01*
X205103Y7486D01*
X205425Y7353D01*
X205027Y5353D01*
X186433D01*
X186035Y7353D01*
X186357Y7486D01*
X187910Y9039D01*
X188750Y11068D01*
Y13264D01*
X187910Y15293D01*
X186357Y16846D01*
X184328Y17686D01*
X182132D01*
X180103Y16846D01*
X178550Y15293D01*
X177710Y13264D01*
Y11068D01*
X178550Y9039D01*
X180103Y7486D01*
X180425Y7353D01*
X180027Y5353D01*
X161433D01*
X161035Y7353D01*
X161357Y7486D01*
X162910Y9039D01*
X163750Y11068D01*
Y13264D01*
X162910Y15293D01*
X161357Y16846D01*
X159328Y17686D01*
X157132D01*
X155560Y17035D01*
X153931Y17559D01*
X153345Y17916D01*
X153161Y18845D01*
X151830Y20836D01*
X149839Y22167D01*
X147490Y22634D01*
X145141Y22167D01*
X143150Y20836D01*
X141819Y18845D01*
X141352Y16496D01*
Y8496D01*
X141579Y7353D01*
X140128Y5353D01*
X136433D01*
X136035Y7353D01*
X136357Y7486D01*
X137910Y9039D01*
X138750Y11068D01*
Y13264D01*
X137910Y15293D01*
X136357Y16846D01*
X134328Y17686D01*
X132132D01*
X130103Y16846D01*
X128550Y15293D01*
X127710Y13264D01*
Y11068D01*
X128550Y9039D01*
X130103Y7486D01*
X130425Y7353D01*
X130027Y5353D01*
X111433D01*
X111035Y7353D01*
X111357Y7486D01*
X112910Y9039D01*
X113750Y11068D01*
Y13264D01*
X112910Y15293D01*
X111357Y16846D01*
X109328Y17686D01*
X107132D01*
X105103Y16846D01*
X103550Y15293D01*
X102710Y13264D01*
Y11068D01*
X103550Y9039D01*
X105103Y7486D01*
X105425Y7353D01*
X105027Y5353D01*
X81433D01*
X81035Y7353D01*
X81357Y7486D01*
X82910Y9039D01*
X83750Y11068D01*
Y13264D01*
X82910Y15293D01*
X81357Y16846D01*
X79328Y17686D01*
X77132D01*
X75103Y16846D01*
X73550Y15293D01*
X72710Y13264D01*
Y11068D01*
X73550Y9039D01*
X75103Y7486D01*
X75425Y7353D01*
X75027Y5353D01*
X68352D01*
X66901Y7353D01*
X67128Y8496D01*
Y16496D01*
X66661Y18845D01*
X65330Y20836D01*
X63339Y22167D01*
X60990Y22634D01*
X58641Y22167D01*
X56650Y20836D01*
X55319Y18845D01*
X54852Y16496D01*
Y8496D01*
X55079Y7353D01*
X53628Y5353D01*
X36433D01*
X36035Y7353D01*
X36357Y7486D01*
X37910Y9039D01*
X38750Y11068D01*
Y13264D01*
X37910Y15293D01*
X36357Y16846D01*
X34328Y17686D01*
X32132D01*
X30103Y16846D01*
X28550Y15293D01*
X27710Y13264D01*
Y11068D01*
X28550Y9039D01*
X30103Y7486D01*
X30425Y7353D01*
X30027Y5353D01*
X5353D01*
Y323147D01*
X33050D01*
Y323131D01*
X39076Y323605D01*
X44953Y325017D01*
X50537Y327330D01*
X55691Y330488D01*
X60287Y334413D01*
X64212Y339009D01*
X67370Y344163D01*
X69683Y349747D01*
X71094Y355624D01*
X71569Y361650D01*
X71094Y367676D01*
X69683Y373553D01*
X67370Y379137D01*
X64212Y384291D01*
X60287Y388887D01*
X55691Y392812D01*
X50537Y395970D01*
X44953Y398284D01*
X39076Y399695D01*
X33050Y400169D01*
Y400153D01*
X5353D01*
Y571247D01*
X560747D01*
Y400153D01*
D02*
G37*
%LPC*%
G36*
X401804Y542310D02*
X399450Y542000D01*
X397255Y541091D01*
X395371Y539645D01*
X393925Y537761D01*
X393017Y535567D01*
X392706Y533212D01*
Y528212D01*
X393017Y525858D01*
X393925Y523663D01*
X395371Y521779D01*
X397255Y520333D01*
X399450Y519424D01*
X401804Y519114D01*
X404159Y519424D01*
X406353Y520333D01*
X408237Y521779D01*
X409683Y523663D01*
X410592Y525858D01*
X410902Y528212D01*
Y533212D01*
X410592Y535567D01*
X409683Y537761D01*
X408237Y539645D01*
X406353Y541091D01*
X404159Y542000D01*
X401804Y542310D01*
D02*
G37*
G36*
X380214D02*
X377860Y542000D01*
X375665Y541091D01*
X373781Y539645D01*
X372335Y537761D01*
X371427Y535567D01*
X371116Y533212D01*
Y528212D01*
X371427Y525858D01*
X372335Y523663D01*
X373781Y521779D01*
X375665Y520333D01*
X377860Y519424D01*
X380214Y519114D01*
X382569Y519424D01*
X384763Y520333D01*
X386647Y521779D01*
X388093Y523663D01*
X389002Y525858D01*
X389312Y528212D01*
Y533212D01*
X389002Y535567D01*
X388093Y537761D01*
X386647Y539645D01*
X384763Y541091D01*
X382569Y542000D01*
X380214Y542310D01*
D02*
G37*
G36*
X358624D02*
X356270Y542000D01*
X354075Y541091D01*
X352191Y539645D01*
X350745Y537761D01*
X349837Y535567D01*
X349526Y533212D01*
Y528212D01*
X349837Y525858D01*
X350745Y523663D01*
X352191Y521779D01*
X354075Y520333D01*
X356270Y519424D01*
X358624Y519114D01*
X360979Y519424D01*
X363173Y520333D01*
X365057Y521779D01*
X366503Y523663D01*
X367412Y525858D01*
X367722Y528212D01*
Y533212D01*
X367412Y535567D01*
X366503Y537761D01*
X365057Y539645D01*
X363173Y541091D01*
X360979Y542000D01*
X358624Y542310D01*
D02*
G37*
G36*
X337034D02*
X334680Y542000D01*
X332485Y541091D01*
X330601Y539645D01*
X329155Y537761D01*
X328246Y535567D01*
X327937Y533212D01*
Y528212D01*
X328246Y525858D01*
X329155Y523663D01*
X330601Y521779D01*
X332485Y520333D01*
X334680Y519424D01*
X337034Y519114D01*
X339389Y519424D01*
X341583Y520333D01*
X343467Y521779D01*
X344913Y523663D01*
X345822Y525858D01*
X346132Y528212D01*
Y533212D01*
X345822Y535567D01*
X344913Y537761D01*
X343467Y539645D01*
X341583Y541091D01*
X339389Y542000D01*
X337034Y542310D01*
D02*
G37*
G36*
X315444D02*
X313090Y542000D01*
X310895Y541091D01*
X309011Y539645D01*
X307565Y537761D01*
X306656Y535567D01*
X306346Y533212D01*
Y528212D01*
X306656Y525858D01*
X307565Y523663D01*
X309011Y521779D01*
X310895Y520333D01*
X313090Y519424D01*
X315444Y519114D01*
X317799Y519424D01*
X319993Y520333D01*
X321878Y521779D01*
X323323Y523663D01*
X324232Y525858D01*
X324542Y528212D01*
Y533212D01*
X324232Y535567D01*
X323323Y537761D01*
X321878Y539645D01*
X319993Y541091D01*
X317799Y542000D01*
X315444Y542310D01*
D02*
G37*
G36*
X293854D02*
X291500Y542000D01*
X289305Y541091D01*
X287421Y539645D01*
X285975Y537761D01*
X285067Y535567D01*
X284757Y533212D01*
Y528212D01*
X285067Y525858D01*
X285975Y523663D01*
X287421Y521779D01*
X289305Y520333D01*
X291500Y519424D01*
X293854Y519114D01*
X296209Y519424D01*
X298403Y520333D01*
X300287Y521779D01*
X301733Y523663D01*
X302642Y525858D01*
X302952Y528212D01*
Y533212D01*
X302642Y535567D01*
X301733Y537761D01*
X300287Y539645D01*
X298403Y541091D01*
X296209Y542000D01*
X293854Y542310D01*
D02*
G37*
G36*
X272264D02*
X269910Y542000D01*
X267715Y541091D01*
X265831Y539645D01*
X264385Y537761D01*
X263477Y535567D01*
X263167Y533212D01*
Y528212D01*
X263477Y525858D01*
X264385Y523663D01*
X265831Y521779D01*
X267715Y520333D01*
X269910Y519424D01*
X272264Y519114D01*
X274619Y519424D01*
X276813Y520333D01*
X278697Y521779D01*
X280143Y523663D01*
X281052Y525858D01*
X281362Y528212D01*
Y533212D01*
X281052Y535567D01*
X280143Y537761D01*
X278697Y539645D01*
X276813Y541091D01*
X274619Y542000D01*
X272264Y542310D01*
D02*
G37*
G36*
X250674D02*
X248320Y542000D01*
X246125Y541091D01*
X244241Y539645D01*
X242795Y537761D01*
X241887Y535567D01*
X241576Y533212D01*
Y528212D01*
X241887Y525858D01*
X242795Y523663D01*
X244241Y521779D01*
X246125Y520333D01*
X248320Y519424D01*
X250674Y519114D01*
X253029Y519424D01*
X255223Y520333D01*
X257108Y521779D01*
X258553Y523663D01*
X259462Y525858D01*
X259772Y528212D01*
Y533212D01*
X259462Y535567D01*
X258553Y537761D01*
X257108Y539645D01*
X255223Y541091D01*
X253029Y542000D01*
X250674Y542310D01*
D02*
G37*
G36*
X229084D02*
X226730Y542000D01*
X224535Y541091D01*
X222651Y539645D01*
X221205Y537761D01*
X220296Y535567D01*
X219986Y533212D01*
Y528212D01*
X220296Y525858D01*
X221205Y523663D01*
X222651Y521779D01*
X224535Y520333D01*
X226730Y519424D01*
X229084Y519114D01*
X231439Y519424D01*
X233633Y520333D01*
X235518Y521779D01*
X236963Y523663D01*
X237872Y525858D01*
X238182Y528212D01*
Y533212D01*
X237872Y535567D01*
X236963Y537761D01*
X235518Y539645D01*
X233633Y541091D01*
X231439Y542000D01*
X229084Y542310D01*
D02*
G37*
G36*
X207494D02*
X205140Y542000D01*
X202945Y541091D01*
X201061Y539645D01*
X199615Y537761D01*
X198706Y535567D01*
X198396Y533212D01*
Y528212D01*
X198706Y525858D01*
X199615Y523663D01*
X201061Y521779D01*
X202945Y520333D01*
X205140Y519424D01*
X207494Y519114D01*
X209849Y519424D01*
X212043Y520333D01*
X213927Y521779D01*
X215373Y523663D01*
X216282Y525858D01*
X216592Y528212D01*
Y533212D01*
X216282Y535567D01*
X215373Y537761D01*
X213927Y539645D01*
X212043Y541091D01*
X209849Y542000D01*
X207494Y542310D01*
D02*
G37*
G36*
X185904D02*
X183550Y542000D01*
X181355Y541091D01*
X179471Y539645D01*
X178025Y537761D01*
X177117Y535567D01*
X176807Y533212D01*
Y528212D01*
X177117Y525858D01*
X178025Y523663D01*
X179471Y521779D01*
X181355Y520333D01*
X183550Y519424D01*
X185904Y519114D01*
X188259Y519424D01*
X190453Y520333D01*
X192337Y521779D01*
X193783Y523663D01*
X194692Y525858D01*
X195002Y528212D01*
Y533212D01*
X194692Y535567D01*
X193783Y537761D01*
X192337Y539645D01*
X190453Y541091D01*
X188259Y542000D01*
X185904Y542310D01*
D02*
G37*
G36*
X164314D02*
X161960Y542000D01*
X159765Y541091D01*
X157881Y539645D01*
X156435Y537761D01*
X155527Y535567D01*
X155217Y533212D01*
Y528212D01*
X155527Y525858D01*
X156435Y523663D01*
X157881Y521779D01*
X159765Y520333D01*
X161960Y519424D01*
X164314Y519114D01*
X166669Y519424D01*
X168863Y520333D01*
X170748Y521779D01*
X172193Y523663D01*
X173102Y525858D01*
X173412Y528212D01*
Y533212D01*
X173102Y535567D01*
X172193Y537761D01*
X170748Y539645D01*
X168863Y541091D01*
X166669Y542000D01*
X164314Y542310D01*
D02*
G37*
G36*
X401804Y499384D02*
X399450Y499074D01*
X397255Y498165D01*
X395371Y496719D01*
X393925Y494835D01*
X393017Y492641D01*
X392706Y490286D01*
Y485286D01*
X393017Y482932D01*
X393925Y480737D01*
X395371Y478853D01*
X397255Y477407D01*
X399450Y476498D01*
X401804Y476188D01*
X404159Y476498D01*
X406353Y477407D01*
X408237Y478853D01*
X409683Y480737D01*
X410592Y482932D01*
X410902Y485286D01*
Y490286D01*
X410592Y492641D01*
X409683Y494835D01*
X408237Y496719D01*
X406353Y498165D01*
X404159Y499074D01*
X401804Y499384D01*
D02*
G37*
G36*
X380214D02*
X377860Y499074D01*
X375665Y498165D01*
X373781Y496719D01*
X372335Y494835D01*
X371427Y492641D01*
X371116Y490286D01*
Y485286D01*
X371427Y482932D01*
X372335Y480737D01*
X373781Y478853D01*
X375665Y477407D01*
X377860Y476498D01*
X380214Y476188D01*
X382569Y476498D01*
X384763Y477407D01*
X386647Y478853D01*
X388093Y480737D01*
X389002Y482932D01*
X389312Y485286D01*
Y490286D01*
X389002Y492641D01*
X388093Y494835D01*
X386647Y496719D01*
X384763Y498165D01*
X382569Y499074D01*
X380214Y499384D01*
D02*
G37*
G36*
X358624D02*
X356270Y499074D01*
X354075Y498165D01*
X352191Y496719D01*
X350745Y494835D01*
X349837Y492641D01*
X349526Y490286D01*
Y485286D01*
X349837Y482932D01*
X350745Y480737D01*
X352191Y478853D01*
X354075Y477407D01*
X356270Y476498D01*
X358624Y476188D01*
X360979Y476498D01*
X363173Y477407D01*
X365057Y478853D01*
X366503Y480737D01*
X367412Y482932D01*
X367722Y485286D01*
Y490286D01*
X367412Y492641D01*
X366503Y494835D01*
X365057Y496719D01*
X363173Y498165D01*
X360979Y499074D01*
X358624Y499384D01*
D02*
G37*
G36*
X337034D02*
X334680Y499074D01*
X332485Y498165D01*
X330601Y496719D01*
X329155Y494835D01*
X328246Y492641D01*
X327937Y490286D01*
Y485286D01*
X328246Y482932D01*
X329155Y480737D01*
X330601Y478853D01*
X332485Y477407D01*
X334680Y476498D01*
X337034Y476188D01*
X339389Y476498D01*
X341583Y477407D01*
X343467Y478853D01*
X344913Y480737D01*
X345822Y482932D01*
X346132Y485286D01*
Y490286D01*
X345822Y492641D01*
X344913Y494835D01*
X343467Y496719D01*
X341583Y498165D01*
X339389Y499074D01*
X337034Y499384D01*
D02*
G37*
G36*
X315444D02*
X313090Y499074D01*
X310895Y498165D01*
X309011Y496719D01*
X307565Y494835D01*
X306656Y492641D01*
X306346Y490286D01*
Y485286D01*
X306656Y482932D01*
X307565Y480737D01*
X309011Y478853D01*
X310895Y477407D01*
X313090Y476498D01*
X315444Y476188D01*
X317799Y476498D01*
X319993Y477407D01*
X321878Y478853D01*
X323323Y480737D01*
X324232Y482932D01*
X324542Y485286D01*
Y490286D01*
X324232Y492641D01*
X323323Y494835D01*
X321878Y496719D01*
X319993Y498165D01*
X317799Y499074D01*
X315444Y499384D01*
D02*
G37*
G36*
X293854D02*
X291500Y499074D01*
X289305Y498165D01*
X287421Y496719D01*
X285975Y494835D01*
X285067Y492641D01*
X284757Y490286D01*
Y485286D01*
X285067Y482932D01*
X285975Y480737D01*
X287421Y478853D01*
X289305Y477407D01*
X291500Y476498D01*
X293854Y476188D01*
X296209Y476498D01*
X298403Y477407D01*
X300287Y478853D01*
X301733Y480737D01*
X302642Y482932D01*
X302952Y485286D01*
Y490286D01*
X302642Y492641D01*
X301733Y494835D01*
X300287Y496719D01*
X298403Y498165D01*
X296209Y499074D01*
X293854Y499384D01*
D02*
G37*
G36*
X272264D02*
X269910Y499074D01*
X267715Y498165D01*
X265831Y496719D01*
X264385Y494835D01*
X263477Y492641D01*
X263167Y490286D01*
Y485286D01*
X263477Y482932D01*
X264385Y480737D01*
X265831Y478853D01*
X267715Y477407D01*
X269910Y476498D01*
X272264Y476188D01*
X274619Y476498D01*
X276813Y477407D01*
X278697Y478853D01*
X280143Y480737D01*
X281052Y482932D01*
X281362Y485286D01*
Y490286D01*
X281052Y492641D01*
X280143Y494835D01*
X278697Y496719D01*
X276813Y498165D01*
X274619Y499074D01*
X272264Y499384D01*
D02*
G37*
G36*
X250674D02*
X248320Y499074D01*
X246125Y498165D01*
X244241Y496719D01*
X242795Y494835D01*
X241887Y492641D01*
X241576Y490286D01*
Y485286D01*
X241887Y482932D01*
X242795Y480737D01*
X244241Y478853D01*
X246125Y477407D01*
X248320Y476498D01*
X250674Y476188D01*
X253029Y476498D01*
X255223Y477407D01*
X257108Y478853D01*
X258553Y480737D01*
X259462Y482932D01*
X259772Y485286D01*
Y490286D01*
X259462Y492641D01*
X258553Y494835D01*
X257108Y496719D01*
X255223Y498165D01*
X253029Y499074D01*
X250674Y499384D01*
D02*
G37*
G36*
X229084D02*
X226730Y499074D01*
X224535Y498165D01*
X222651Y496719D01*
X221205Y494835D01*
X220296Y492641D01*
X219986Y490286D01*
Y485286D01*
X220296Y482932D01*
X221205Y480737D01*
X222651Y478853D01*
X224535Y477407D01*
X226730Y476498D01*
X229084Y476188D01*
X231439Y476498D01*
X233633Y477407D01*
X235518Y478853D01*
X236963Y480737D01*
X237872Y482932D01*
X238182Y485286D01*
Y490286D01*
X237872Y492641D01*
X236963Y494835D01*
X235518Y496719D01*
X233633Y498165D01*
X231439Y499074D01*
X229084Y499384D01*
D02*
G37*
G36*
X207494D02*
X205140Y499074D01*
X202945Y498165D01*
X201061Y496719D01*
X199615Y494835D01*
X198706Y492641D01*
X198396Y490286D01*
Y485286D01*
X198706Y482932D01*
X199615Y480737D01*
X201061Y478853D01*
X202945Y477407D01*
X205140Y476498D01*
X207494Y476188D01*
X209849Y476498D01*
X212043Y477407D01*
X213927Y478853D01*
X215373Y480737D01*
X216282Y482932D01*
X216592Y485286D01*
Y490286D01*
X216282Y492641D01*
X215373Y494835D01*
X213927Y496719D01*
X212043Y498165D01*
X209849Y499074D01*
X207494Y499384D01*
D02*
G37*
G36*
X164314Y502894D02*
X161051Y502464D01*
X158010Y501205D01*
X155399Y499201D01*
X153396Y496590D01*
X152136Y493549D01*
X151706Y490286D01*
Y485286D01*
X152136Y482023D01*
X153396Y478982D01*
X155399Y476371D01*
X158010Y474367D01*
X161051Y473108D01*
X164314Y472678D01*
X167577Y473108D01*
X170618Y474367D01*
X173229Y476371D01*
X175233Y478982D01*
X175910Y480617D01*
X177667Y480717D01*
X178090Y480653D01*
X179471Y478853D01*
X181355Y477407D01*
X183550Y476498D01*
X185904Y476188D01*
X188259Y476498D01*
X190453Y477407D01*
X192337Y478853D01*
X193783Y480737D01*
X194692Y482932D01*
X195002Y485286D01*
Y490286D01*
X194692Y492641D01*
X193783Y494835D01*
X192337Y496719D01*
X190453Y498165D01*
X188259Y499074D01*
X185904Y499384D01*
X183550Y499074D01*
X181355Y498165D01*
X179471Y496719D01*
X178090Y494919D01*
X177667Y494855D01*
X175910Y494955D01*
X175233Y496590D01*
X173229Y499201D01*
X170618Y501205D01*
X167577Y502464D01*
X164314Y502894D01*
D02*
G37*
G36*
X519875Y544249D02*
X514366D01*
X508924Y543387D01*
X503685Y541685D01*
X498776Y539184D01*
X494319Y535946D01*
X490424Y532050D01*
X487186Y527593D01*
X484685Y522685D01*
X482982Y517445D01*
X482120Y512004D01*
Y506495D01*
X482982Y501053D01*
X484685Y495814D01*
X487186Y490905D01*
X490424Y486448D01*
X494319Y482553D01*
X498776Y479314D01*
X503685Y476813D01*
X508924Y475111D01*
X514366Y474249D01*
X519875D01*
X525316Y475111D01*
X530556Y476813D01*
X535464Y479314D01*
X539921Y482553D01*
X543817Y486448D01*
X547055Y490905D01*
X549556Y495814D01*
X551259Y501053D01*
X552120Y506495D01*
Y512004D01*
X551259Y517445D01*
X549556Y522685D01*
X547055Y527593D01*
X543817Y532050D01*
X539921Y535946D01*
X535464Y539184D01*
X530556Y541685D01*
X525316Y543387D01*
X519875Y544249D01*
D02*
G37*
G36*
X51753D02*
X46244D01*
X40802Y543387D01*
X35563Y541685D01*
X30654Y539184D01*
X26197Y535946D01*
X22302Y532050D01*
X19064Y527593D01*
X16563Y522685D01*
X14860Y517445D01*
X13998Y512004D01*
Y506495D01*
X14860Y501053D01*
X16563Y495814D01*
X19064Y490905D01*
X22302Y486448D01*
X26197Y482553D01*
X30654Y479314D01*
X35563Y476813D01*
X40802Y475111D01*
X46244Y474249D01*
X51753D01*
X57194Y475111D01*
X62434Y476813D01*
X67342Y479314D01*
X71799Y482553D01*
X75695Y486448D01*
X78933Y490905D01*
X81434Y495814D01*
X83137Y501053D01*
X83998Y506495D01*
Y512004D01*
X83137Y517445D01*
X81434Y522685D01*
X78933Y527593D01*
X75695Y532050D01*
X71799Y535946D01*
X67342Y539184D01*
X62434Y541685D01*
X57194Y543387D01*
X51753Y544249D01*
D02*
G37*
G36*
X40764Y421290D02*
X38568D01*
X36539Y420450D01*
X34986Y418897D01*
X34146Y416868D01*
Y414672D01*
X34986Y412643D01*
X36539Y411090D01*
X38568Y410250D01*
X40764D01*
X42793Y411090D01*
X44345Y412643D01*
X45186Y414672D01*
Y416868D01*
X44345Y418897D01*
X42793Y420450D01*
X40764Y421290D01*
D02*
G37*
G36*
X65764Y421290D02*
X63568D01*
X61539Y420450D01*
X59986Y418897D01*
X59146Y416868D01*
Y414672D01*
X59986Y412643D01*
X61539Y411090D01*
X63568Y410250D01*
X65764D01*
X67793Y411090D01*
X69345Y412643D01*
X70186Y414672D01*
Y416868D01*
X69345Y418897D01*
X67793Y420450D01*
X65764Y421290D01*
D02*
G37*
G36*
X313224Y403308D02*
X311028D01*
X308999Y402468D01*
X307446Y400915D01*
X306794Y399339D01*
X304758D01*
X304106Y400915D01*
X302553Y402468D01*
X300524Y403308D01*
X298328D01*
X296299Y402468D01*
X294746Y400915D01*
X294094Y399339D01*
X292058D01*
X291406Y400915D01*
X289853Y402468D01*
X287824Y403308D01*
X285628D01*
X283599Y402468D01*
X282046Y400915D01*
X281394Y399339D01*
X279358D01*
X278706Y400915D01*
X277153Y402468D01*
X275124Y403308D01*
X272928D01*
X270899Y402468D01*
X269346Y400915D01*
X268506Y398886D01*
Y396690D01*
X269346Y394661D01*
X270899Y393108D01*
X272928Y392268D01*
X275124D01*
X277153Y393108D01*
X278706Y394661D01*
X279358Y396237D01*
X281394D01*
X282046Y394661D01*
X283599Y393108D01*
X285628Y392268D01*
X287824D01*
X289853Y393108D01*
X291406Y394661D01*
X292058Y396237D01*
X294094D01*
X294746Y394661D01*
X296299Y393108D01*
X298328Y392268D01*
X300524D01*
X302553Y393108D01*
X304106Y394661D01*
X304758Y396237D01*
X306794D01*
X307446Y394661D01*
X308999Y393108D01*
X311028Y392268D01*
X313224D01*
X315253Y393108D01*
X316806Y394661D01*
X317646Y396690D01*
Y398886D01*
X316806Y400915D01*
X315253Y402468D01*
X313224Y403308D01*
D02*
G37*
G36*
X425531Y459820D02*
X420569D01*
X415669Y459044D01*
X410951Y457511D01*
X406530Y455258D01*
X402516Y452342D01*
X399008Y448834D01*
X396092Y444820D01*
X393839Y440400D01*
X392306Y435681D01*
X391530Y430781D01*
Y425819D01*
X392306Y420919D01*
X393839Y416200D01*
X396092Y411780D01*
X399008Y407766D01*
X402516Y404258D01*
X406530Y401342D01*
X410951Y399089D01*
X415669Y397556D01*
X420569Y396780D01*
X425531D01*
X430431Y397556D01*
X435149Y399089D01*
X439570Y401342D01*
X443584Y404258D01*
X447092Y407766D01*
X450008Y411780D01*
X452261Y416200D01*
X453794Y420919D01*
X454570Y425819D01*
Y430781D01*
X453794Y435681D01*
X452261Y440400D01*
X450008Y444820D01*
X447092Y448834D01*
X443584Y452342D01*
X439570Y455258D01*
X435149Y457511D01*
X430431Y459044D01*
X425531Y459820D01*
D02*
G37*
G36*
X145531D02*
X140569D01*
X135669Y459044D01*
X130950Y457511D01*
X126530Y455258D01*
X122516Y452342D01*
X119008Y448834D01*
X116092Y444820D01*
X113839Y440400D01*
X112306Y435681D01*
X111530Y430781D01*
Y425819D01*
X112306Y420919D01*
X113839Y416200D01*
X116092Y411780D01*
X119008Y407766D01*
X122516Y404258D01*
X126530Y401342D01*
X130950Y399089D01*
X135669Y397556D01*
X140569Y396780D01*
X145531D01*
X150431Y397556D01*
X155149Y399089D01*
X159570Y401342D01*
X163584Y404258D01*
X167092Y407766D01*
X170008Y411780D01*
X172261Y416200D01*
X173794Y420919D01*
X174570Y425819D01*
Y430781D01*
X173794Y435681D01*
X172261Y440400D01*
X170008Y444820D01*
X167092Y448834D01*
X163584Y452342D01*
X159570Y455258D01*
X155149Y457511D01*
X150431Y459044D01*
X145531Y459820D01*
D02*
G37*
G36*
X376754Y358860D02*
X374558D01*
X372529Y358020D01*
X370976Y356467D01*
X370136Y354438D01*
Y352242D01*
X370976Y350213D01*
X372529Y348661D01*
X374558Y347820D01*
X376754D01*
X378783Y348661D01*
X380336Y350213D01*
X380958Y351716D01*
X383024Y351714D01*
X383646Y350211D01*
X385199Y348658D01*
X387228Y347818D01*
X389424D01*
X391453Y348658D01*
X393006Y350211D01*
X393658Y351787D01*
X395694Y351787D01*
X396346Y350211D01*
X397899Y348658D01*
X399928Y347818D01*
X402124D01*
X404153Y348658D01*
X405706Y350211D01*
X406358Y351787D01*
X408394Y351787D01*
X409046Y350211D01*
X410599Y348658D01*
X412628Y347818D01*
X414824D01*
X416853Y348658D01*
X418406Y350211D01*
X419058Y351787D01*
X421094D01*
X421746Y350211D01*
X423299Y348658D01*
X425328Y347818D01*
X427524D01*
X429553Y348658D01*
X431106Y350211D01*
X431946Y352240D01*
Y354436D01*
X431106Y356465D01*
X429553Y358018D01*
X427524Y358858D01*
X425328D01*
X423299Y358018D01*
X421746Y356465D01*
X421094Y354889D01*
X419058D01*
X418406Y356465D01*
X416853Y358018D01*
X414824Y358858D01*
X412628D01*
X410599Y358018D01*
X409046Y356465D01*
X408394Y354889D01*
X406358Y354889D01*
X405706Y356465D01*
X404153Y358018D01*
X402124Y358858D01*
X399928D01*
X397899Y358018D01*
X396346Y356465D01*
X395694Y354889D01*
X393658Y354889D01*
X393006Y356465D01*
X391453Y358018D01*
X389424Y358858D01*
X387228D01*
X385199Y358018D01*
X383646Y356465D01*
X383024Y354962D01*
X380958Y354964D01*
X380336Y356467D01*
X378783Y358020D01*
X376754Y358860D01*
D02*
G37*
G36*
X211624Y358858D02*
X209428D01*
X207399Y358018D01*
X205846Y356465D01*
X205006Y354436D01*
Y352240D01*
X205846Y350211D01*
X207399Y348658D01*
X209428Y347818D01*
X211624D01*
X213653Y348658D01*
X215206Y350211D01*
X216046Y352240D01*
Y354436D01*
X215206Y356465D01*
X213653Y358018D01*
X211624Y358858D01*
D02*
G37*
G36*
X351324Y357588D02*
X349128D01*
X347099Y356748D01*
X345546Y355195D01*
X344706Y353166D01*
Y350970D01*
X345546Y348941D01*
X347099Y347388D01*
X349128Y346548D01*
X351324D01*
X353353Y347388D01*
X354906Y348941D01*
X355746Y350970D01*
Y353166D01*
X354906Y355195D01*
X353353Y356748D01*
X351324Y357588D01*
D02*
G37*
G36*
X480864Y343618D02*
X478668D01*
X476639Y342778D01*
X475086Y341225D01*
X474246Y339196D01*
Y337000D01*
X475086Y334971D01*
X476639Y333418D01*
X478668Y332578D01*
X480864D01*
X482893Y333418D01*
X484446Y334971D01*
X485286Y337000D01*
Y339196D01*
X484446Y341225D01*
X482893Y342778D01*
X480864Y343618D01*
D02*
G37*
G36*
X329004Y339718D02*
X326808D01*
X324779Y338878D01*
X323226Y337325D01*
X322386Y335296D01*
Y333100D01*
X323226Y331071D01*
X324779Y329518D01*
X326808Y328678D01*
X329004D01*
X331033Y329518D01*
X332586Y331071D01*
X333426Y333100D01*
Y335296D01*
X332586Y337325D01*
X331033Y338878D01*
X329004Y339718D01*
D02*
G37*
G36*
X376724Y318218D02*
X374528D01*
X372499Y317378D01*
X370946Y315825D01*
X370106Y313796D01*
Y311600D01*
X370946Y309571D01*
X372499Y308018D01*
X374528Y307178D01*
X376724D01*
X378753Y308018D01*
X380306Y309571D01*
X381146Y311600D01*
Y313796D01*
X380306Y315825D01*
X378753Y317378D01*
X376724Y318218D01*
D02*
G37*
G36*
X543828Y317686D02*
X541632D01*
X539603Y316845D01*
X538050Y315293D01*
X537210Y313264D01*
Y311068D01*
X538050Y309039D01*
X539603Y307486D01*
X541632Y306646D01*
X543828D01*
X545857Y307486D01*
X547410Y309039D01*
X548250Y311068D01*
Y313264D01*
X547410Y315293D01*
X545857Y316845D01*
X543828Y317686D01*
D02*
G37*
G36*
X24328D02*
X22132D01*
X20103Y316845D01*
X18550Y315293D01*
X17710Y313264D01*
Y311068D01*
X18550Y309039D01*
X20103Y307486D01*
X22132Y306646D01*
X24328D01*
X26357Y307486D01*
X27910Y309039D01*
X28750Y311068D01*
Y313264D01*
X27910Y315293D01*
X26357Y316845D01*
X24328Y317686D01*
D02*
G37*
G36*
X325754Y304218D02*
X323558D01*
X321529Y303378D01*
X319976Y301825D01*
X319488Y300647D01*
X317324D01*
X316836Y301825D01*
X315283Y303378D01*
X313254Y304218D01*
X311058D01*
X309029Y303378D01*
X307476Y301825D01*
X306636Y299796D01*
X304676D01*
X303836Y301825D01*
X302283Y303378D01*
X300254Y304218D01*
X298058D01*
X296029Y303378D01*
X294476Y301825D01*
X293636Y299796D01*
Y297600D01*
X294476Y295571D01*
X296029Y294018D01*
X298058Y293178D01*
X300254D01*
X302283Y294018D01*
X303836Y295571D01*
X304676Y297600D01*
X306636D01*
X307476Y295571D01*
X309029Y294018D01*
X311058Y293178D01*
X313254D01*
X315283Y294018D01*
X316836Y295571D01*
X317324Y296749D01*
X319488D01*
X319976Y295571D01*
X321529Y294018D01*
X323558Y293178D01*
X325754D01*
X327783Y294018D01*
X329336Y295571D01*
X330176Y297600D01*
Y299796D01*
X329336Y301825D01*
X327783Y303378D01*
X325754Y304218D01*
D02*
G37*
G36*
X274754D02*
X272558D01*
X270529Y303378D01*
X268976Y301825D01*
X268488Y300647D01*
X266324D01*
X265836Y301825D01*
X264283Y303378D01*
X262254Y304218D01*
X260058D01*
X258029Y303378D01*
X256476Y301825D01*
X255988Y300647D01*
X253824D01*
X253336Y301825D01*
X251783Y303378D01*
X249754Y304218D01*
X247558D01*
X245529Y303378D01*
X243976Y301825D01*
X243136Y299796D01*
X241176D01*
X240336Y301825D01*
X238783Y303378D01*
X236754Y304218D01*
X234558D01*
X232529Y303378D01*
X230976Y301825D01*
X230136Y299796D01*
Y297600D01*
X230976Y295571D01*
X232529Y294018D01*
X234558Y293178D01*
X236754D01*
X238783Y294018D01*
X240336Y295571D01*
X241176Y297600D01*
X243136D01*
X243976Y295571D01*
X245529Y294018D01*
X247558Y293178D01*
X249754D01*
X251783Y294018D01*
X253336Y295571D01*
X253824Y296749D01*
X255988D01*
X256476Y295571D01*
X258029Y294018D01*
X260058Y293178D01*
X262254D01*
X264283Y294018D01*
X265836Y295571D01*
X266324Y296749D01*
X268488D01*
X268976Y295571D01*
X270529Y294018D01*
X272558Y293178D01*
X274754D01*
X276783Y294018D01*
X278336Y295571D01*
X279176Y297600D01*
Y299796D01*
X278336Y301825D01*
X276783Y303378D01*
X274754Y304218D01*
D02*
G37*
G36*
X527000Y314260D02*
X511000D01*
X510212Y314103D01*
X509544Y313656D01*
X509097Y312988D01*
X508941Y312200D01*
Y296200D01*
X509097Y295412D01*
X509544Y294744D01*
X510212Y294297D01*
X511000Y294140D01*
X527000D01*
X527788Y294297D01*
X528456Y294744D01*
X528903Y295412D01*
X529060Y296200D01*
Y312200D01*
X528903Y312988D01*
X528456Y313656D01*
X527788Y314103D01*
X527000Y314260D01*
D02*
G37*
G36*
X212004Y304468D02*
X209808D01*
X207779Y303628D01*
X206226Y302075D01*
X205386Y300046D01*
Y297850D01*
X206226Y295821D01*
X207779Y294268D01*
X209808Y293428D01*
X212004D01*
X214033Y294268D01*
X215586Y295821D01*
X216426Y297850D01*
Y300046D01*
X215586Y302075D01*
X214033Y303628D01*
X212004Y304468D01*
D02*
G37*
G36*
X543828Y292686D02*
X541632D01*
X539603Y291845D01*
X538050Y290293D01*
X537210Y288264D01*
Y286068D01*
X538050Y284039D01*
X539603Y282486D01*
X541632Y281646D01*
X543828D01*
X545857Y282486D01*
X547410Y284039D01*
X548250Y286068D01*
Y288264D01*
X547410Y290293D01*
X545857Y291845D01*
X543828Y292686D01*
D02*
G37*
G36*
X24328D02*
X22132D01*
X20103Y291845D01*
X18550Y290293D01*
X17710Y288264D01*
Y286068D01*
X18550Y284039D01*
X20103Y282486D01*
X22132Y281646D01*
X24328D01*
X26357Y282486D01*
X27910Y284039D01*
X28750Y286068D01*
Y288264D01*
X27910Y290293D01*
X26357Y291845D01*
X24328Y292686D01*
D02*
G37*
G36*
X275004Y269468D02*
X272808D01*
X270779Y268628D01*
X269226Y267075D01*
X268386Y265046D01*
Y262850D01*
X269226Y260821D01*
X270779Y259268D01*
X272808Y258428D01*
X275004D01*
X277033Y259268D01*
X278586Y260821D01*
X279426Y262850D01*
Y265046D01*
X278586Y267075D01*
X277033Y268628D01*
X275004Y269468D01*
D02*
G37*
G36*
X306504Y269218D02*
X304308D01*
X302279Y268378D01*
X300726Y266825D01*
X299886Y264796D01*
Y262600D01*
X300726Y260571D01*
X302279Y259018D01*
X304308Y258178D01*
X306504D01*
X308533Y259018D01*
X310086Y260571D01*
X310926Y262600D01*
Y264796D01*
X310086Y266825D01*
X308533Y268378D01*
X306504Y269218D01*
D02*
G37*
G36*
X543828Y267686D02*
X541632D01*
X539603Y266845D01*
X538050Y265293D01*
X537210Y263264D01*
Y261068D01*
X538050Y259039D01*
X539603Y257486D01*
X541632Y256646D01*
X543828D01*
X545857Y257486D01*
X547410Y259039D01*
X548250Y261068D01*
Y263264D01*
X547410Y265293D01*
X545857Y266845D01*
X543828Y267686D01*
D02*
G37*
G36*
X24328D02*
X22132D01*
X20103Y266845D01*
X18550Y265293D01*
X17710Y263264D01*
Y261068D01*
X18550Y259039D01*
X20103Y257486D01*
X22132Y256646D01*
X24328D01*
X26357Y257486D01*
X27910Y259039D01*
X28750Y261068D01*
Y263264D01*
X27910Y265293D01*
X26357Y266845D01*
X24328Y267686D01*
D02*
G37*
G36*
X145274Y260552D02*
X143078D01*
X141049Y259712D01*
X139496Y258159D01*
X138656Y256130D01*
Y253934D01*
X139496Y251905D01*
X141049Y250352D01*
X143078Y249512D01*
X145274D01*
X147303Y250352D01*
X148856Y251905D01*
X149696Y253934D01*
Y256130D01*
X148856Y258159D01*
X147303Y259712D01*
X145274Y260552D01*
D02*
G37*
G36*
X520319Y263420D02*
X517681D01*
X515132Y262737D01*
X512848Y261418D01*
X510982Y259552D01*
X509663Y257268D01*
X508980Y254719D01*
Y252081D01*
X509663Y249532D01*
X510982Y247248D01*
X512848Y245382D01*
X515132Y244063D01*
X517681Y243380D01*
X520319D01*
X522868Y244063D01*
X525153Y245382D01*
X527018Y247248D01*
X528337Y249532D01*
X529020Y252081D01*
Y254719D01*
X528337Y257268D01*
X527018Y259552D01*
X525153Y261418D01*
X522868Y262737D01*
X520319Y263420D01*
D02*
G37*
G36*
X335754Y252468D02*
X333558D01*
X331529Y251628D01*
X329976Y250075D01*
X329136Y248046D01*
Y245850D01*
X329976Y243821D01*
X331529Y242268D01*
X333558Y241428D01*
X335754D01*
X337783Y242268D01*
X339336Y243821D01*
X340176Y245850D01*
Y248046D01*
X339336Y250075D01*
X337783Y251628D01*
X335754Y252468D01*
D02*
G37*
G36*
X312004Y251968D02*
X309808D01*
X307779Y251128D01*
X306226Y249575D01*
X305386Y247546D01*
Y245350D01*
X306226Y243321D01*
X307779Y241768D01*
X309808Y240928D01*
X312004D01*
X314033Y241768D01*
X315586Y243321D01*
X316426Y245350D01*
Y247546D01*
X315586Y249575D01*
X314033Y251128D01*
X312004Y251968D01*
D02*
G37*
G36*
X145274Y245802D02*
X143078D01*
X141049Y244962D01*
X139496Y243409D01*
X138656Y241380D01*
Y239184D01*
X139496Y237155D01*
X141049Y235602D01*
X143078Y234762D01*
X145274D01*
X147303Y235602D01*
X148856Y237155D01*
X149696Y239184D01*
Y241380D01*
X148856Y243409D01*
X147303Y244962D01*
X145274Y245802D01*
D02*
G37*
G36*
X217754Y243468D02*
X215558D01*
X213529Y242628D01*
X211976Y241075D01*
X211136Y239046D01*
Y236850D01*
X211976Y234821D01*
X213529Y233268D01*
X215558Y232428D01*
X217754D01*
X219783Y233268D01*
X221336Y234821D01*
X222176Y236850D01*
Y239046D01*
X221336Y241075D01*
X219783Y242628D01*
X217754Y243468D01*
D02*
G37*
G36*
X543828Y242686D02*
X541632D01*
X539603Y241845D01*
X538050Y240293D01*
X537210Y238264D01*
Y236068D01*
X538050Y234039D01*
X539603Y232486D01*
X541632Y231646D01*
X543828D01*
X545857Y232486D01*
X547410Y234039D01*
X548250Y236068D01*
Y238264D01*
X547410Y240293D01*
X545857Y241845D01*
X543828Y242686D01*
D02*
G37*
G36*
X24328D02*
X22132D01*
X20103Y241845D01*
X18550Y240293D01*
X17710Y238264D01*
Y236068D01*
X18550Y234039D01*
X20103Y232486D01*
X22132Y231646D01*
X24328D01*
X26357Y232486D01*
X27910Y234039D01*
X28750Y236068D01*
Y238264D01*
X27910Y240293D01*
X26357Y241845D01*
X24328Y242686D01*
D02*
G37*
G36*
X491004Y240218D02*
X488808D01*
X486779Y239378D01*
X485226Y237825D01*
X484386Y235796D01*
Y233600D01*
X485226Y231571D01*
X486779Y230018D01*
X488808Y229178D01*
X491004D01*
X493033Y230018D01*
X494586Y231571D01*
X495426Y233600D01*
Y235796D01*
X494586Y237825D01*
X493033Y239378D01*
X491004Y240218D01*
D02*
G37*
G36*
X263754Y239968D02*
X261558D01*
X259529Y239128D01*
X257976Y237575D01*
X257136Y235546D01*
Y233350D01*
X257976Y231321D01*
X259529Y229768D01*
X261558Y228928D01*
X263754D01*
X265783Y229768D01*
X267336Y231321D01*
X268176Y233350D01*
Y235546D01*
X267336Y237575D01*
X265783Y239128D01*
X263754Y239968D01*
D02*
G37*
G36*
X520319Y238020D02*
X517681D01*
X515132Y237337D01*
X512848Y236018D01*
X510982Y234152D01*
X509663Y231868D01*
X508980Y229319D01*
Y226681D01*
X509663Y224132D01*
X510982Y221848D01*
X512848Y219982D01*
X515132Y218663D01*
X517681Y217980D01*
X520319D01*
X522868Y218663D01*
X525152Y219982D01*
X527018Y221848D01*
X528337Y224132D01*
X529020Y226681D01*
Y229319D01*
X528337Y231868D01*
X527018Y234152D01*
X525152Y236018D01*
X522868Y237337D01*
X520319Y238020D01*
D02*
G37*
G36*
X292004Y223218D02*
X289808D01*
X287779Y222378D01*
X286226Y220825D01*
X285386Y218796D01*
Y216600D01*
X286226Y214571D01*
X287779Y213018D01*
X289808Y212178D01*
X292004D01*
X294033Y213018D01*
X295586Y214571D01*
X296426Y216600D01*
Y218796D01*
X295586Y220825D01*
X294033Y222378D01*
X292004Y223218D01*
D02*
G37*
G36*
X543828Y217686D02*
X541632D01*
X539603Y216845D01*
X538050Y215293D01*
X537210Y213264D01*
Y211068D01*
X538050Y209039D01*
X539603Y207486D01*
X541632Y206646D01*
X543828D01*
X545857Y207486D01*
X547410Y209039D01*
X548250Y211068D01*
Y213264D01*
X547410Y215293D01*
X545857Y216845D01*
X543828Y217686D01*
D02*
G37*
G36*
X24328D02*
X22132D01*
X20103Y216845D01*
X18550Y215293D01*
X17710Y213264D01*
Y211068D01*
X18550Y209039D01*
X20103Y207486D01*
X22132Y206646D01*
X24328D01*
X26357Y207486D01*
X27910Y209039D01*
X28750Y211068D01*
Y213264D01*
X27910Y215293D01*
X26357Y216845D01*
X24328Y217686D01*
D02*
G37*
G36*
X146754Y214968D02*
X144558D01*
X142529Y214128D01*
X140976Y212575D01*
X140136Y210546D01*
Y208350D01*
X140976Y206321D01*
X142529Y204768D01*
X144558Y203928D01*
X146754D01*
X148783Y204768D01*
X150336Y206321D01*
X151176Y208350D01*
Y210546D01*
X150336Y212575D01*
X148783Y214128D01*
X146754Y214968D01*
D02*
G37*
G36*
X267504Y211218D02*
X265308D01*
X263279Y210378D01*
X261726Y208825D01*
X260886Y206796D01*
Y204600D01*
X261726Y202571D01*
X263279Y201018D01*
X265308Y200178D01*
X267504D01*
X269533Y201018D01*
X271086Y202571D01*
X271926Y204600D01*
Y206796D01*
X271086Y208825D01*
X269533Y210378D01*
X267504Y211218D01*
D02*
G37*
G36*
X52004Y209968D02*
X49808D01*
X47779Y209128D01*
X46226Y207575D01*
X45386Y205546D01*
Y203350D01*
X46226Y201321D01*
X47779Y199768D01*
X49808Y198928D01*
X52004D01*
X54033Y199768D01*
X55586Y201321D01*
X56426Y203350D01*
Y205546D01*
X55586Y207575D01*
X54033Y209128D01*
X52004Y209968D01*
D02*
G37*
G36*
X66504Y209218D02*
X64308D01*
X62279Y208378D01*
X60726Y206825D01*
X59886Y204796D01*
Y202600D01*
X60726Y200571D01*
X62279Y199018D01*
X64308Y198178D01*
X66504D01*
X68533Y199018D01*
X70086Y200571D01*
X70926Y202600D01*
Y204796D01*
X70086Y206825D01*
X68533Y208378D01*
X66504Y209218D01*
D02*
G37*
G36*
X520319Y212620D02*
X517681D01*
X515132Y211937D01*
X512848Y210618D01*
X510982Y208752D01*
X509663Y206468D01*
X508980Y203919D01*
Y201281D01*
X509663Y198732D01*
X510982Y196448D01*
X512848Y194582D01*
X515132Y193263D01*
X517681Y192580D01*
X520319D01*
X522868Y193263D01*
X525153Y194582D01*
X527018Y196448D01*
X528337Y198732D01*
X529020Y201281D01*
Y203919D01*
X528337Y206468D01*
X527018Y208752D01*
X525153Y210618D01*
X522868Y211937D01*
X520319Y212620D01*
D02*
G37*
G36*
X254504Y200968D02*
X252308D01*
X250279Y200128D01*
X248726Y198575D01*
X247886Y196546D01*
Y194350D01*
X248726Y192321D01*
X250279Y190768D01*
X252308Y189928D01*
X254504D01*
X256533Y190768D01*
X258086Y192321D01*
X258926Y194350D01*
Y196546D01*
X258086Y198575D01*
X256533Y200128D01*
X254504Y200968D01*
D02*
G37*
G36*
X364024Y198838D02*
X361828D01*
X359799Y197998D01*
X358246Y196445D01*
X357406Y194416D01*
Y192220D01*
X358246Y190191D01*
X359799Y188638D01*
X361828Y187798D01*
X364024D01*
X366053Y188638D01*
X367606Y190191D01*
X368446Y192220D01*
Y194416D01*
X367606Y196445D01*
X366053Y197998D01*
X364024Y198838D01*
D02*
G37*
G36*
X206504Y194218D02*
X204308D01*
X202279Y193378D01*
X200726Y191825D01*
X199886Y189796D01*
Y187600D01*
X200726Y185571D01*
X202279Y184018D01*
X204308Y183178D01*
X206504D01*
X208533Y184018D01*
X210086Y185571D01*
X210926Y187600D01*
Y189796D01*
X210086Y191825D01*
X208533Y193378D01*
X206504Y194218D01*
D02*
G37*
G36*
X543828Y192686D02*
X541632D01*
X539603Y191845D01*
X538050Y190293D01*
X537210Y188264D01*
Y186068D01*
X538050Y184039D01*
X539603Y182486D01*
X541632Y181646D01*
X543828D01*
X545857Y182486D01*
X547410Y184039D01*
X548250Y186068D01*
Y188264D01*
X547410Y190293D01*
X545857Y191845D01*
X543828Y192686D01*
D02*
G37*
G36*
X24328D02*
X22132D01*
X20103Y191845D01*
X18550Y190293D01*
X17710Y188264D01*
Y186068D01*
X18550Y184039D01*
X20103Y182486D01*
X22132Y181646D01*
X24328D01*
X26357Y182486D01*
X27910Y184039D01*
X28750Y186068D01*
Y188264D01*
X27910Y190293D01*
X26357Y191845D01*
X24328Y192686D01*
D02*
G37*
G36*
X434504Y191218D02*
X432308D01*
X430279Y190378D01*
X428726Y188825D01*
X427886Y186796D01*
Y184600D01*
X428726Y182571D01*
X430279Y181018D01*
X432308Y180178D01*
X434504D01*
X436533Y181018D01*
X438086Y182571D01*
X438926Y184600D01*
Y186796D01*
X438086Y188825D01*
X436533Y190378D01*
X434504Y191218D01*
D02*
G37*
G36*
X417504Y190718D02*
X415308D01*
X413279Y189878D01*
X411726Y188325D01*
X410886Y186296D01*
Y184100D01*
X411726Y182071D01*
X412555Y181243D01*
X413058Y179948D01*
X412754Y179167D01*
X410723Y178318D01*
X409975Y178686D01*
X409283Y179378D01*
X407254Y180218D01*
X405058D01*
X403029Y179378D01*
X402463Y178811D01*
X401156Y178019D01*
X399850Y178811D01*
X399283Y179378D01*
X397254Y180218D01*
X395058D01*
X393029Y179378D01*
X391476Y177825D01*
X390636Y175796D01*
Y173600D01*
X391476Y171571D01*
X393029Y170018D01*
X395058Y169178D01*
X397254D01*
X399283Y170018D01*
X399850Y170585D01*
X401156Y171377D01*
X402463Y170585D01*
X403029Y170018D01*
X405058Y169178D01*
X407254D01*
X409283Y170018D01*
X409975Y170710D01*
X411281Y171352D01*
X412588Y170710D01*
X413279Y170018D01*
X415308Y169178D01*
X417504D01*
X419533Y170018D01*
X421086Y171571D01*
X421926Y173600D01*
Y175796D01*
X421086Y177825D01*
X420257Y178654D01*
X419754Y179948D01*
X420257Y181243D01*
X421086Y182071D01*
X421926Y184100D01*
Y186296D01*
X421086Y188325D01*
X419533Y189878D01*
X417504Y190718D01*
D02*
G37*
G36*
X520319Y187220D02*
X517681D01*
X515132Y186537D01*
X512848Y185218D01*
X510982Y183352D01*
X509663Y181068D01*
X508980Y178519D01*
Y175881D01*
X509663Y173332D01*
X510982Y171048D01*
X512848Y169182D01*
X515132Y167863D01*
X517681Y167180D01*
X520319D01*
X522868Y167863D01*
X525153Y169182D01*
X527018Y171048D01*
X528337Y173332D01*
X529020Y175881D01*
Y178519D01*
X528337Y181068D01*
X527018Y183352D01*
X525153Y185218D01*
X522868Y186537D01*
X520319Y187220D01*
D02*
G37*
G36*
X351504Y176968D02*
X349308D01*
X347279Y176128D01*
X345726Y174575D01*
X344886Y172546D01*
Y170350D01*
X345726Y168321D01*
X347279Y166768D01*
X349308Y165928D01*
X351504D01*
X353533Y166768D01*
X355086Y168321D01*
X355926Y170350D01*
Y172546D01*
X355086Y174575D01*
X353533Y176128D01*
X351504Y176968D01*
D02*
G37*
G36*
X402124Y208998D02*
X399928D01*
X397899Y208158D01*
X396346Y206605D01*
X395506Y204576D01*
Y203128D01*
X394869Y202015D01*
X393756Y201378D01*
X392308D01*
X390279Y200538D01*
X388726Y198985D01*
X387886Y196956D01*
Y195508D01*
X387249Y194395D01*
X386136Y193758D01*
X384688D01*
X382659Y192918D01*
X381106Y191365D01*
X380266Y189336D01*
Y187888D01*
X379629Y186775D01*
X378516Y186138D01*
X377068D01*
X375039Y185298D01*
X373486Y183745D01*
X372646Y181716D01*
Y180268D01*
X372009Y179155D01*
X370896Y178518D01*
X369448D01*
X367419Y177678D01*
X365866Y176125D01*
X365026Y174096D01*
Y172648D01*
X364389Y171535D01*
X363276Y170898D01*
X361828D01*
X359799Y170058D01*
X358246Y168505D01*
X357406Y166476D01*
Y164280D01*
X358246Y162251D01*
X359799Y160698D01*
X361828Y159858D01*
X364024D01*
X366053Y160698D01*
X367606Y162251D01*
X368446Y164280D01*
Y165728D01*
X369083Y166841D01*
X370196Y167478D01*
X371644D01*
X373673Y168318D01*
X375226Y169871D01*
X376066Y171900D01*
Y173348D01*
X376703Y174461D01*
X377816Y175098D01*
X379264D01*
X381293Y175938D01*
X382846Y177491D01*
X383686Y179520D01*
Y180968D01*
X384323Y182081D01*
X385436Y182718D01*
X386884D01*
X388913Y183558D01*
X390466Y185111D01*
X391306Y187140D01*
Y188588D01*
X391943Y189701D01*
X393056Y190338D01*
X394504D01*
X396533Y191178D01*
X398086Y192731D01*
X398926Y194760D01*
Y196208D01*
X399563Y197321D01*
X400676Y197958D01*
X402124D01*
X404153Y198798D01*
X405706Y200351D01*
X406546Y202380D01*
Y204576D01*
X405706Y206605D01*
X404153Y208158D01*
X402124Y208998D01*
D02*
G37*
G36*
X254504Y179718D02*
X252308D01*
X250279Y178878D01*
X248726Y177325D01*
X247886Y175296D01*
Y173100D01*
X248726Y171071D01*
X250279Y169518D01*
X250255Y167378D01*
X248702Y165825D01*
X247861Y163796D01*
Y161600D01*
X248702Y159571D01*
X250255Y158018D01*
X252283Y157178D01*
X254480D01*
X256508Y158018D01*
X258061Y159571D01*
X258902Y161600D01*
Y163796D01*
X258061Y165825D01*
X256508Y167378D01*
X256533Y169518D01*
X258086Y171071D01*
X258926Y173100D01*
Y175296D01*
X258086Y177325D01*
X256533Y178878D01*
X254504Y179718D01*
D02*
G37*
G36*
X543828Y167686D02*
X541632D01*
X539603Y166845D01*
X538050Y165293D01*
X537210Y163264D01*
Y161068D01*
X538050Y159039D01*
X539603Y157486D01*
X541632Y156646D01*
X543828D01*
X545857Y157486D01*
X547410Y159039D01*
X548250Y161068D01*
Y163264D01*
X547410Y165293D01*
X545857Y166845D01*
X543828Y167686D01*
D02*
G37*
G36*
X24328D02*
X22132D01*
X20103Y166845D01*
X18550Y165293D01*
X17710Y163264D01*
Y161068D01*
X18550Y159039D01*
X20103Y157486D01*
X22132Y156646D01*
X24328D01*
X26357Y157486D01*
X27910Y159039D01*
X28750Y161068D01*
Y163264D01*
X27910Y165293D01*
X26357Y166845D01*
X24328Y167686D01*
D02*
G37*
G36*
X79754Y164968D02*
X77558D01*
X75529Y164128D01*
X73976Y162575D01*
X73136Y160546D01*
Y158350D01*
X73976Y156321D01*
X75529Y154768D01*
X77558Y153928D01*
X79754D01*
X81783Y154768D01*
X83336Y156321D01*
X84176Y158350D01*
Y160546D01*
X83336Y162575D01*
X81783Y164128D01*
X79754Y164968D01*
D02*
G37*
G36*
X303062Y160526D02*
X300866D01*
X298838Y159686D01*
X297285Y158133D01*
X296444Y156104D01*
Y153908D01*
X297285Y151880D01*
X298838Y150327D01*
X300866Y149486D01*
X303062D01*
X305091Y150327D01*
X306644Y151880D01*
X307484Y153908D01*
Y156104D01*
X306644Y158133D01*
X305091Y159686D01*
X303062Y160526D01*
D02*
G37*
G36*
X386004Y166968D02*
X383808D01*
X381779Y166128D01*
X380226Y164575D01*
X379386Y162546D01*
Y160350D01*
X380226Y158321D01*
X381779Y156768D01*
X383808Y155928D01*
X386004D01*
X386038Y155942D01*
X386069Y155936D01*
X387886Y154543D01*
Y153350D01*
X388726Y151321D01*
X390279Y149768D01*
X392308Y148928D01*
X394504D01*
X396533Y149768D01*
X398086Y151321D01*
X398926Y153350D01*
Y155546D01*
X398086Y157575D01*
X396533Y159128D01*
X394504Y159968D01*
X392308D01*
X392274Y159954D01*
X392243Y159960D01*
X390426Y161353D01*
Y162546D01*
X389586Y164575D01*
X388033Y166128D01*
X386004Y166968D01*
D02*
G37*
G36*
X181504Y156468D02*
X179308D01*
X177279Y155628D01*
X175726Y154075D01*
X174886Y152046D01*
Y149850D01*
X175726Y147821D01*
X177279Y146268D01*
X179308Y145428D01*
X181504D01*
X183533Y146268D01*
X183974Y146710D01*
X185544Y147482D01*
X186588Y146710D01*
X187279Y146018D01*
X189308Y145178D01*
X191504D01*
X193533Y146018D01*
X195086Y147571D01*
X195926Y149600D01*
Y151796D01*
X195086Y153825D01*
X193533Y155378D01*
X191504Y156218D01*
X189308D01*
X187279Y155378D01*
X186838Y154936D01*
X185268Y154164D01*
X184224Y154936D01*
X183533Y155628D01*
X181504Y156468D01*
D02*
G37*
G36*
X146004Y150968D02*
X143808D01*
X141779Y150128D01*
X140226Y148575D01*
X139386Y146546D01*
Y144350D01*
X140226Y142321D01*
X141779Y140768D01*
X143808Y139928D01*
X146004D01*
X148033Y140768D01*
X149586Y142321D01*
X150426Y144350D01*
Y146546D01*
X149586Y148575D01*
X148033Y150128D01*
X146004Y150968D01*
D02*
G37*
G36*
X348558Y146190D02*
X346362D01*
X344333Y145350D01*
X342780Y143797D01*
X341940Y141768D01*
Y139572D01*
X342780Y137543D01*
X344333Y135990D01*
X346362Y135150D01*
X348558D01*
X350587Y135990D01*
X352140Y137543D01*
X352980Y139572D01*
Y141768D01*
X352140Y143797D01*
X350587Y145350D01*
X348558Y146190D01*
D02*
G37*
G36*
X543828Y142686D02*
X541632D01*
X539603Y141846D01*
X538050Y140293D01*
X537210Y138264D01*
Y136068D01*
X538050Y134039D01*
X539603Y132486D01*
X541632Y131646D01*
X543828D01*
X545857Y132486D01*
X547410Y134039D01*
X548250Y136068D01*
Y138264D01*
X547410Y140293D01*
X545857Y141846D01*
X543828Y142686D01*
D02*
G37*
G36*
X24328D02*
X22132D01*
X20103Y141846D01*
X18550Y140293D01*
X17710Y138264D01*
Y136068D01*
X18550Y134039D01*
X20103Y132486D01*
X22132Y131646D01*
X24328D01*
X26357Y132486D01*
X27910Y134039D01*
X28750Y136068D01*
Y138264D01*
X27910Y140293D01*
X26357Y141846D01*
X24328Y142686D01*
D02*
G37*
G36*
X399254Y142218D02*
X397058D01*
X395029Y141378D01*
X393476Y139825D01*
X392636Y137796D01*
Y135600D01*
X393476Y133571D01*
X395029Y132018D01*
X397058Y131178D01*
X399254D01*
X401283Y132018D01*
X402836Y133571D01*
X403676Y135600D01*
Y137796D01*
X402836Y139825D01*
X401283Y141378D01*
X399254Y142218D01*
D02*
G37*
G36*
X368004Y142468D02*
X365808D01*
X363779Y141628D01*
X362226Y140075D01*
X361386Y138046D01*
Y136358D01*
X360352Y135208D01*
X359664Y134780D01*
X357772D01*
X355743Y133940D01*
X354190Y132387D01*
X353350Y130358D01*
Y128162D01*
X354190Y126133D01*
X355743Y124581D01*
X357772Y123740D01*
X359968D01*
X361997Y124581D01*
X363550Y126133D01*
X364390Y128162D01*
Y129851D01*
X365424Y131001D01*
X366112Y131428D01*
X367628D01*
X368412Y130941D01*
X369350Y129821D01*
Y128162D01*
X370190Y126133D01*
X371743Y124581D01*
X373772Y123740D01*
X375968D01*
X377997Y124581D01*
X379550Y126133D01*
X380390Y128162D01*
Y130094D01*
X380984Y130703D01*
X382136Y131371D01*
X383808Y130678D01*
X386004D01*
X388033Y131518D01*
X389586Y133071D01*
X390426Y135100D01*
Y137296D01*
X389586Y139325D01*
X388033Y140878D01*
X386004Y141718D01*
X383808D01*
X381779Y140878D01*
X380226Y139325D01*
X379386Y137296D01*
Y135365D01*
X378792Y134755D01*
X377641Y134087D01*
X375968Y134780D01*
X374148D01*
X373365Y135267D01*
X372426Y136388D01*
Y138046D01*
X371586Y140075D01*
X370033Y141628D01*
X368004Y142468D01*
D02*
G37*
G36*
X471079Y138393D02*
X468883D01*
X466854Y137553D01*
X465302Y136000D01*
X464461Y133971D01*
Y131775D01*
X465302Y129746D01*
X466854Y128193D01*
X468883Y127353D01*
X471079D01*
X473108Y128193D01*
X474661Y129746D01*
X475501Y131775D01*
Y133971D01*
X474661Y136000D01*
X473108Y137553D01*
X471079Y138393D01*
D02*
G37*
G36*
X238254Y137468D02*
X236058D01*
X234029Y136628D01*
X232476Y135075D01*
X231636Y133046D01*
Y130850D01*
X232476Y128821D01*
X234029Y127268D01*
X236058Y126428D01*
X238254D01*
X240283Y127268D01*
X241836Y128821D01*
X242676Y130850D01*
Y133046D01*
X241836Y135075D01*
X240283Y136628D01*
X238254Y137468D01*
D02*
G37*
G36*
X196841Y135968D02*
X194645D01*
X192616Y135128D01*
X191063Y133575D01*
X190223Y131546D01*
Y129350D01*
X191063Y127321D01*
X192616Y125768D01*
X194645Y124928D01*
X196841D01*
X198870Y125768D01*
X200423Y127321D01*
X201263Y129350D01*
Y131546D01*
X200423Y133575D01*
X198870Y135128D01*
X196841Y135968D01*
D02*
G37*
G36*
X75784Y125984D02*
X73588D01*
X71559Y125143D01*
X70006Y123591D01*
X69166Y121562D01*
Y119366D01*
X70006Y117337D01*
X71559Y115784D01*
X73588Y114944D01*
X75784D01*
X77813Y115784D01*
X79366Y117337D01*
X80206Y119366D01*
Y121562D01*
X79366Y123591D01*
X77813Y125143D01*
X75784Y125984D01*
D02*
G37*
G36*
X180004Y123718D02*
X177808D01*
X175779Y122878D01*
X174226Y121325D01*
X173386Y119296D01*
Y117100D01*
X174226Y115071D01*
X175779Y113518D01*
X177808Y112678D01*
X180004D01*
X182033Y113518D01*
X183586Y115071D01*
X184426Y117100D01*
Y119296D01*
X183586Y121325D01*
X182033Y122878D01*
X180004Y123718D01*
D02*
G37*
G36*
X543828Y117686D02*
X541632D01*
X539603Y116846D01*
X538050Y115293D01*
X537210Y113264D01*
Y111068D01*
X538050Y109039D01*
X539603Y107486D01*
X541632Y106646D01*
X543828D01*
X545857Y107486D01*
X547410Y109039D01*
X548250Y111068D01*
Y113264D01*
X547410Y115293D01*
X545857Y116846D01*
X543828Y117686D01*
D02*
G37*
G36*
X24328D02*
X22132D01*
X20103Y116846D01*
X18550Y115293D01*
X17710Y113264D01*
Y111068D01*
X18550Y109039D01*
X20103Y107486D01*
X22132Y106646D01*
X24328D01*
X26357Y107486D01*
X27910Y109039D01*
X28750Y111068D01*
Y113264D01*
X27910Y115293D01*
X26357Y116846D01*
X24328Y117686D01*
D02*
G37*
G36*
X321674Y114398D02*
X319478D01*
X317449Y113558D01*
X315896Y112005D01*
X315056Y109976D01*
Y107780D01*
X315896Y105751D01*
X317449Y104198D01*
X319478Y103358D01*
X321674D01*
X323703Y104198D01*
X325256Y105751D01*
X326096Y107780D01*
Y109976D01*
X325256Y112005D01*
X323703Y113558D01*
X321674Y114398D01*
D02*
G37*
G36*
X180254Y102968D02*
X178058D01*
X176029Y102128D01*
X174476Y100575D01*
X173636Y98546D01*
Y96350D01*
X174476Y94321D01*
X176029Y92768D01*
X178058Y91928D01*
X180254D01*
X182283Y92768D01*
X183836Y94321D01*
X184676Y96350D01*
Y98546D01*
X183836Y100575D01*
X182283Y102128D01*
X180254Y102968D01*
D02*
G37*
G36*
X257504Y100218D02*
X255308D01*
X253279Y99378D01*
X251726Y97825D01*
X250886Y95796D01*
Y93600D01*
X251726Y91571D01*
X253279Y90018D01*
X255308Y89178D01*
X257504D01*
X259533Y90018D01*
X261086Y91571D01*
X261926Y93600D01*
Y95796D01*
X261086Y97825D01*
X259533Y99378D01*
X257504Y100218D01*
D02*
G37*
G36*
X482804Y102032D02*
X480429D01*
X478135Y101418D01*
X476078Y100230D01*
X474398Y98551D01*
X473211Y96494D01*
X472596Y94200D01*
Y91825D01*
X473211Y89531D01*
X474398Y87474D01*
X476078Y85795D01*
X478135Y84607D01*
X480429Y83992D01*
X482804D01*
X485098Y84607D01*
X487155Y85795D01*
X488834Y87474D01*
X490022Y89531D01*
X490636Y91825D01*
Y94200D01*
X490022Y96494D01*
X488834Y98551D01*
X487155Y100230D01*
X485098Y101418D01*
X482804Y102032D01*
D02*
G37*
G36*
X522804Y102032D02*
X520429D01*
X518135Y101418D01*
X516078Y100230D01*
X514398Y98551D01*
X513211Y96494D01*
X512596Y94200D01*
Y91825D01*
X513211Y89531D01*
X514398Y87474D01*
X516078Y85795D01*
X518135Y84607D01*
X520429Y83992D01*
X522804D01*
X525098Y84607D01*
X527155Y85795D01*
X528834Y87474D01*
X530022Y89531D01*
X530636Y91825D01*
Y94200D01*
X530022Y96494D01*
X528834Y98551D01*
X527155Y100230D01*
X525098Y101418D01*
X522804Y102032D01*
D02*
G37*
G36*
X442804D02*
X440429D01*
X438135Y101418D01*
X436078Y100230D01*
X434398Y98551D01*
X433211Y96494D01*
X432596Y94200D01*
Y91825D01*
X433211Y89531D01*
X434398Y87474D01*
X436078Y85795D01*
X438135Y84607D01*
X440429Y83992D01*
X442804D01*
X445098Y84607D01*
X447155Y85795D01*
X448834Y87474D01*
X450022Y89531D01*
X450636Y91825D01*
Y94200D01*
X450022Y96494D01*
X448834Y98551D01*
X447155Y100230D01*
X445098Y101418D01*
X442804Y102032D01*
D02*
G37*
G36*
X402804D02*
X400429D01*
X398135Y101418D01*
X396078Y100230D01*
X394398Y98551D01*
X393211Y96494D01*
X392596Y94200D01*
Y91825D01*
X393211Y89531D01*
X394398Y87474D01*
X396078Y85795D01*
X398135Y84607D01*
X400429Y83992D01*
X402804D01*
X405098Y84607D01*
X407155Y85795D01*
X408834Y87474D01*
X410022Y89531D01*
X410636Y91825D01*
Y94200D01*
X410022Y96494D01*
X408834Y98551D01*
X407155Y100230D01*
X405098Y101418D01*
X402804Y102032D01*
D02*
G37*
G36*
X543828Y92686D02*
X541632D01*
X539603Y91846D01*
X538050Y90293D01*
X537210Y88264D01*
Y86068D01*
X538050Y84039D01*
X539603Y82486D01*
X541632Y81646D01*
X543828D01*
X545857Y82486D01*
X547410Y84039D01*
X548250Y86068D01*
Y88264D01*
X547410Y90293D01*
X545857Y91846D01*
X543828Y92686D01*
D02*
G37*
G36*
X24328D02*
X22132D01*
X20103Y91846D01*
X18550Y90293D01*
X17710Y88264D01*
Y86068D01*
X18550Y84039D01*
X20103Y82486D01*
X22132Y81646D01*
X24328D01*
X26357Y82486D01*
X27910Y84039D01*
X28750Y86068D01*
Y88264D01*
X27910Y90293D01*
X26357Y91846D01*
X24328Y92686D01*
D02*
G37*
G36*
X424843Y84072D02*
X422468D01*
X420174Y83457D01*
X418117Y82270D01*
X416438Y80590D01*
X415251Y78534D01*
X414636Y76239D01*
Y73864D01*
X415251Y71570D01*
X416438Y69514D01*
X418117Y67834D01*
X420174Y66647D01*
X422468Y66032D01*
X424843D01*
X427137Y66647D01*
X429194Y67834D01*
X430874Y69514D01*
X432061Y71570D01*
X432676Y73864D01*
Y76239D01*
X432061Y78534D01*
X430874Y80590D01*
X429194Y82270D01*
X427137Y83457D01*
X424843Y84072D01*
D02*
G37*
G36*
X384843Y84072D02*
X382468D01*
X380174Y83457D01*
X378117Y82270D01*
X376438Y80590D01*
X375251Y78534D01*
X374636Y76239D01*
Y73864D01*
X375251Y71570D01*
X376438Y69514D01*
X378117Y67834D01*
X380174Y66647D01*
X382468Y66032D01*
X384843D01*
X387137Y66647D01*
X389194Y67834D01*
X390874Y69514D01*
X392061Y71570D01*
X392676Y73864D01*
Y76239D01*
X392061Y78534D01*
X390874Y80590D01*
X389194Y82270D01*
X387137Y83457D01*
X384843Y84072D01*
D02*
G37*
G36*
X134939Y60866D02*
X133041D01*
X131288Y60140D01*
X131047Y59898D01*
X129740Y58948D01*
X128433Y59898D01*
X128192Y60140D01*
X126439Y60866D01*
X124541D01*
X122788Y60140D01*
X122547Y59898D01*
X121240Y58948D01*
X119933Y59898D01*
X119692Y60140D01*
X117939Y60866D01*
X116041D01*
X114288Y60140D01*
X114047Y59898D01*
X112740Y58948D01*
X111433Y59898D01*
X111192Y60140D01*
X109439Y60866D01*
X107541D01*
X105788Y60140D01*
X105547Y59898D01*
X104240Y58948D01*
X102933Y59898D01*
X102692Y60140D01*
X100939Y60866D01*
X99041D01*
X97288Y60140D01*
X97047Y59898D01*
X95740Y58948D01*
X94433Y59898D01*
X94192Y60140D01*
X92439Y60866D01*
X90541D01*
X88788Y60140D01*
X88547Y59898D01*
X87240Y58948D01*
X85933Y59898D01*
X85692Y60140D01*
X83939Y60866D01*
X82041D01*
X80288Y60140D01*
X80047Y59898D01*
X78740Y58948D01*
X77433Y59898D01*
X77192Y60140D01*
X75439Y60866D01*
X73541D01*
X71788Y60140D01*
X70446Y58798D01*
X69720Y57045D01*
Y55147D01*
X70446Y53394D01*
X71788Y52052D01*
X73541Y51326D01*
X75439D01*
X77192Y52052D01*
X77433Y52294D01*
X78740Y53244D01*
X80047Y52294D01*
X80288Y52052D01*
X82041Y51326D01*
X83939D01*
X85692Y52052D01*
X85933Y52294D01*
X87240Y53244D01*
X88547Y52294D01*
X88788Y52052D01*
X90541Y51326D01*
X92439D01*
X94192Y52052D01*
X94433Y52294D01*
X95740Y53244D01*
X97047Y52294D01*
X97288Y52052D01*
X99041Y51326D01*
X100939D01*
X102692Y52052D01*
X102933Y52294D01*
X104240Y53244D01*
X105547Y52294D01*
X105788Y52052D01*
X107541Y51326D01*
X109439D01*
X111192Y52052D01*
X111433Y52294D01*
X112740Y53244D01*
X114047Y52294D01*
X114288Y52052D01*
X116041Y51326D01*
X117939D01*
X119692Y52052D01*
X119933Y52294D01*
X121240Y53244D01*
X122547Y52294D01*
X122788Y52052D01*
X124541Y51326D01*
X126439D01*
X128192Y52052D01*
X128433Y52294D01*
X129740Y53244D01*
X131047Y52294D01*
X131288Y52052D01*
X133041Y51326D01*
X134939D01*
X136692Y52052D01*
X138034Y53394D01*
X138760Y55147D01*
Y57045D01*
X138034Y58798D01*
X136692Y60140D01*
X134939Y60866D01*
D02*
G37*
G36*
X543828Y67686D02*
X541632D01*
X539603Y66845D01*
X538050Y65293D01*
X537210Y63264D01*
Y61068D01*
X538050Y59039D01*
X539603Y57486D01*
X541632Y56646D01*
X543828D01*
X545857Y57486D01*
X547410Y59039D01*
X548250Y61068D01*
Y63264D01*
X547410Y65293D01*
X545857Y66845D01*
X543828Y67686D01*
D02*
G37*
G36*
X24328D02*
X22132D01*
X20103Y66845D01*
X18550Y65293D01*
X17710Y63264D01*
Y61068D01*
X18550Y59039D01*
X20103Y57486D01*
X22132Y56646D01*
X24328D01*
X26357Y57486D01*
X27910Y59039D01*
X28750Y61068D01*
Y63264D01*
X27910Y65293D01*
X26357Y66845D01*
X24328Y67686D01*
D02*
G37*
G36*
X243004Y59968D02*
X240808D01*
X238779Y59128D01*
X237226Y57575D01*
X236386Y55546D01*
Y53350D01*
X237226Y51321D01*
X238779Y49768D01*
X240808Y48928D01*
X243004D01*
X245033Y49768D01*
X246586Y51321D01*
X247426Y53350D01*
Y55546D01*
X246586Y57575D01*
X245033Y59128D01*
X243004Y59968D01*
D02*
G37*
G36*
X134939Y47366D02*
X133041D01*
X131288Y46640D01*
X131047Y46398D01*
X129740Y45448D01*
X128433Y46398D01*
X128192Y46640D01*
X126439Y47366D01*
X124541D01*
X122788Y46640D01*
X122547Y46398D01*
X121240Y45448D01*
X119933Y46398D01*
X119692Y46640D01*
X117939Y47366D01*
X116041D01*
X114288Y46640D01*
X114047Y46398D01*
X112740Y45448D01*
X111433Y46398D01*
X111192Y46640D01*
X109439Y47366D01*
X107541D01*
X105788Y46640D01*
X105547Y46398D01*
X104240Y45448D01*
X102933Y46398D01*
X102692Y46640D01*
X100939Y47366D01*
X99041D01*
X97288Y46640D01*
X97047Y46398D01*
X95740Y45448D01*
X94433Y46398D01*
X94192Y46640D01*
X92439Y47366D01*
X90541D01*
X88788Y46640D01*
X88547Y46398D01*
X87240Y45448D01*
X85933Y46398D01*
X85692Y46640D01*
X83939Y47366D01*
X82041D01*
X80288Y46640D01*
X80047Y46398D01*
X78740Y45448D01*
X77433Y46398D01*
X77192Y46640D01*
X75439Y47366D01*
X73541D01*
X71788Y46640D01*
X70446Y45298D01*
X69720Y43545D01*
Y41647D01*
X70446Y39894D01*
X71788Y38552D01*
X73541Y37826D01*
X75439D01*
X77192Y38552D01*
X77433Y38793D01*
X78740Y39744D01*
X80047Y38793D01*
X80288Y38552D01*
X82041Y37826D01*
X83939D01*
X85692Y38552D01*
X85933Y38793D01*
X87240Y39744D01*
X88547Y38793D01*
X88788Y38552D01*
X90541Y37826D01*
X92439D01*
X94192Y38552D01*
X94433Y38793D01*
X95740Y39744D01*
X97047Y38793D01*
X97288Y38552D01*
X99041Y37826D01*
X100939D01*
X102692Y38552D01*
X102933Y38793D01*
X104240Y39744D01*
X105547Y38793D01*
X105788Y38552D01*
X107541Y37826D01*
X109439D01*
X111192Y38552D01*
X111433Y38793D01*
X112740Y39744D01*
X114047Y38793D01*
X114288Y38552D01*
X116041Y37826D01*
X117939D01*
X119692Y38552D01*
X119933Y38793D01*
X121240Y39744D01*
X122547Y38793D01*
X122788Y38552D01*
X124541Y37826D01*
X126439D01*
X128192Y38552D01*
X128433Y38793D01*
X129740Y39744D01*
X131047Y38793D01*
X131288Y38552D01*
X133041Y37826D01*
X134939D01*
X136692Y38552D01*
X138034Y39894D01*
X138760Y41647D01*
Y43545D01*
X138034Y45298D01*
X136692Y46640D01*
X134939Y47366D01*
D02*
G37*
G36*
X147490Y59934D02*
X145141Y59467D01*
X143150Y58136D01*
X141819Y56145D01*
X141352Y53796D01*
Y38796D01*
X141819Y36447D01*
X143150Y34456D01*
X145141Y33125D01*
X147490Y32658D01*
X149839Y33125D01*
X151830Y34456D01*
X153161Y36447D01*
X153628Y38796D01*
Y53796D01*
X153161Y56145D01*
X151830Y58136D01*
X149839Y59467D01*
X147490Y59934D01*
D02*
G37*
G36*
X60990D02*
X58641Y59467D01*
X56650Y58136D01*
X55319Y56145D01*
X54852Y53796D01*
Y38796D01*
X55319Y36447D01*
X56650Y34456D01*
X58641Y33125D01*
X60990Y32658D01*
X63339Y33125D01*
X65330Y34456D01*
X66661Y36447D01*
X67128Y38796D01*
Y53796D01*
X66661Y56145D01*
X65330Y58136D01*
X63339Y59467D01*
X60990Y59934D01*
D02*
G37*
G36*
X543828Y42686D02*
X541632D01*
X539603Y41845D01*
X538050Y40293D01*
X537210Y38264D01*
Y36068D01*
X538050Y34039D01*
X539603Y32486D01*
X541632Y31646D01*
X543828D01*
X545857Y32486D01*
X547410Y34039D01*
X548250Y36068D01*
Y38264D01*
X547410Y40293D01*
X545857Y41845D01*
X543828Y42686D01*
D02*
G37*
G36*
X24328D02*
X22132D01*
X20103Y41845D01*
X18550Y40293D01*
X17710Y38264D01*
Y36068D01*
X18550Y34039D01*
X20103Y32486D01*
X22132Y31646D01*
X24328D01*
X26357Y32486D01*
X27910Y34039D01*
X28750Y36068D01*
Y38264D01*
X27910Y40293D01*
X26357Y41845D01*
X24328Y42686D01*
D02*
G37*
G36*
X43328Y35436D02*
X41132D01*
X39103Y34595D01*
X37550Y33043D01*
X36710Y31014D01*
Y28818D01*
X37550Y26789D01*
X39103Y25236D01*
X41132Y24396D01*
X43328D01*
X45357Y25236D01*
X46910Y26789D01*
X47750Y28818D01*
Y31014D01*
X46910Y33043D01*
X45357Y34595D01*
X43328Y35436D01*
D02*
G37*
%LPD*%
D53*
X99990Y42596D02*
D03*
X108490Y56096D02*
D03*
Y42596D02*
D03*
X99990Y56096D02*
D03*
X74490Y42596D02*
D03*
X82990D02*
D03*
X91490D02*
D03*
X116990D02*
D03*
X125490D02*
D03*
X133990D02*
D03*
Y56096D02*
D03*
X125490D02*
D03*
X116990D02*
D03*
X91490D02*
D03*
X82990D02*
D03*
X74490D02*
D03*
D54*
X423656Y75052D02*
D03*
X441616Y93012D02*
D03*
X503656Y75052D02*
D03*
X521616Y93012D02*
D03*
X463656Y75052D02*
D03*
X481616Y93012D02*
D03*
X383656Y75052D02*
D03*
X401616Y93012D02*
D03*
D55*
X147490Y46296D02*
D03*
X60990D02*
D03*
D56*
X147490Y12496D02*
D03*
X60990D02*
D03*
D57*
X164314Y530712D02*
D03*
X185904D02*
D03*
X207494D02*
D03*
X229084D02*
D03*
X250674D02*
D03*
X272264D02*
D03*
X293854D02*
D03*
X315444D02*
D03*
X337034D02*
D03*
X358624D02*
D03*
X380214D02*
D03*
X401804D02*
D03*
X164314Y487786D02*
D03*
X185904D02*
D03*
X207494D02*
D03*
X229084D02*
D03*
X250674D02*
D03*
X272264D02*
D03*
X293854D02*
D03*
X315444D02*
D03*
X337034D02*
D03*
X358624D02*
D03*
X380214D02*
D03*
X401804D02*
D03*
D58*
X48998Y509249D02*
D03*
X517120D02*
D03*
X143050Y428300D02*
D03*
X423050D02*
D03*
D59*
X519000Y304200D02*
D03*
D60*
Y278800D02*
D03*
X519000Y228000D02*
D03*
X519000Y202600D02*
D03*
Y177200D02*
D03*
X519000Y253400D02*
D03*
D61*
X144176Y240282D02*
D03*
Y255032D02*
D03*
X50906Y204448D02*
D03*
X65406Y203698D02*
D03*
X74686Y120464D02*
D03*
X23230Y37166D02*
D03*
Y112166D02*
D03*
Y87166D02*
D03*
Y62166D02*
D03*
X33230Y12166D02*
D03*
X78230D02*
D03*
X42230Y29916D02*
D03*
X39666Y415770D02*
D03*
X64666Y415770D02*
D03*
X108230Y12166D02*
D03*
X133230D02*
D03*
X158230D02*
D03*
X258230D02*
D03*
X183230D02*
D03*
X208230D02*
D03*
X233230D02*
D03*
X241906Y54448D02*
D03*
X256406Y94698D02*
D03*
X179156Y97448D02*
D03*
X178906Y118198D02*
D03*
X195743Y130448D02*
D03*
X274656Y131198D02*
D03*
X237156Y131948D02*
D03*
X274656Y140698D02*
D03*
X144906Y145448D02*
D03*
X190406Y150698D02*
D03*
X23230Y137166D02*
D03*
Y162166D02*
D03*
Y187166D02*
D03*
Y312166D02*
D03*
Y212166D02*
D03*
Y237166D02*
D03*
Y287166D02*
D03*
Y262166D02*
D03*
X78656Y159448D02*
D03*
X145656Y209448D02*
D03*
X180406Y150948D02*
D03*
X253382Y162698D02*
D03*
X253406Y174198D02*
D03*
Y185198D02*
D03*
X205406Y188698D02*
D03*
X253406Y195448D02*
D03*
X266406Y205698D02*
D03*
X216656Y223448D02*
D03*
X262656Y234448D02*
D03*
X216656Y237948D02*
D03*
X243656Y263948D02*
D03*
X273906D02*
D03*
X261156Y298698D02*
D03*
X248656D02*
D03*
X235656D02*
D03*
X273656D02*
D03*
X210906Y298948D02*
D03*
X210526Y353338D02*
D03*
X274026Y397788D02*
D03*
X358230Y12166D02*
D03*
X283230D02*
D03*
X350406Y171448D02*
D03*
X301964Y155006D02*
D03*
X358870Y129260D02*
D03*
X362926Y165378D02*
D03*
X347460Y140670D02*
D03*
X308230Y12166D02*
D03*
X333230D02*
D03*
X290906Y217698D02*
D03*
X320576Y108878D02*
D03*
X317406Y194948D02*
D03*
X362926Y193318D02*
D03*
X366906Y136948D02*
D03*
X370546Y172998D02*
D03*
X383230Y12166D02*
D03*
X408230D02*
D03*
X433230D02*
D03*
X458230D02*
D03*
X483230D02*
D03*
X508230D02*
D03*
X533230D02*
D03*
X542730Y37166D02*
D03*
Y62166D02*
D03*
Y87166D02*
D03*
X374870Y129260D02*
D03*
X469981Y132873D02*
D03*
X384906Y136198D02*
D03*
X398156Y136698D02*
D03*
X542730Y112166D02*
D03*
X401026Y203478D02*
D03*
X542730Y187166D02*
D03*
X489906Y234698D02*
D03*
X286726Y397788D02*
D03*
X299156Y298698D02*
D03*
X299426Y397788D02*
D03*
X305406Y263698D02*
D03*
X310906Y246448D02*
D03*
X312126Y397788D02*
D03*
X312156Y298698D02*
D03*
X324656D02*
D03*
X327906Y334198D02*
D03*
X334656Y246948D02*
D03*
X542730Y212166D02*
D03*
X361906Y259448D02*
D03*
X542730Y237166D02*
D03*
X500276Y269438D02*
D03*
X542730Y262166D02*
D03*
Y287166D02*
D03*
X375626Y312698D02*
D03*
X542730Y312166D02*
D03*
X479766Y338098D02*
D03*
X350226Y352068D02*
D03*
X388326Y353338D02*
D03*
X378166Y180618D02*
D03*
X393406Y154448D02*
D03*
X384906Y161448D02*
D03*
X542730Y137166D02*
D03*
X483406Y163948D02*
D03*
X396156Y174698D02*
D03*
X406156D02*
D03*
X416406D02*
D03*
Y185198D02*
D03*
X433406Y185698D02*
D03*
X542730Y162166D02*
D03*
X385786Y188238D02*
D03*
X393406Y195858D02*
D03*
X413726Y353338D02*
D03*
X426426D02*
D03*
X401026Y353338D02*
D03*
X375656Y353340D02*
D03*
M02*
