G04*
G04 #@! TF.GenerationSoftware,Altium Limited,Altium Designer,25.8.1 (18)*
G04*
G04 Layer_Color=255*
%FSLAX44Y44*%
%MOMM*%
G71*
G04*
G04 #@! TF.SameCoordinates,23F0502B-7B20-4CC9-97BB-DA64BA6573D7*
G04*
G04*
G04 #@! TF.FilePolarity,Positive*
G04*
G01*
G75*
G04:AMPARAMS|DCode=15|XSize=1.05mm|YSize=0.55mm|CornerRadius=0.0688mm|HoleSize=0mm|Usage=FLASHONLY|Rotation=0.000|XOffset=0mm|YOffset=0mm|HoleType=Round|Shape=RoundedRectangle|*
%AMROUNDEDRECTD15*
21,1,1.0500,0.4125,0,0,0.0*
21,1,0.9125,0.5500,0,0,0.0*
1,1,0.1375,0.4563,-0.2063*
1,1,0.1375,-0.4563,-0.2063*
1,1,0.1375,-0.4563,0.2063*
1,1,0.1375,0.4563,0.2063*
%
%ADD15ROUNDEDRECTD15*%
G04:AMPARAMS|DCode=16|XSize=0.72mm|YSize=0.99mm|CornerRadius=0.09mm|HoleSize=0mm|Usage=FLASHONLY|Rotation=90.000|XOffset=0mm|YOffset=0mm|HoleType=Round|Shape=RoundedRectangle|*
%AMROUNDEDRECTD16*
21,1,0.7200,0.8100,0,0,90.0*
21,1,0.5400,0.9900,0,0,90.0*
1,1,0.1800,0.4050,0.2700*
1,1,0.1800,0.4050,-0.2700*
1,1,0.1800,-0.4050,-0.2700*
1,1,0.1800,-0.4050,0.2700*
%
%ADD16ROUNDEDRECTD16*%
G04:AMPARAMS|DCode=17|XSize=1.5mm|YSize=0.54mm|CornerRadius=0.0675mm|HoleSize=0mm|Usage=FLASHONLY|Rotation=270.000|XOffset=0mm|YOffset=0mm|HoleType=Round|Shape=RoundedRectangle|*
%AMROUNDEDRECTD17*
21,1,1.5000,0.4050,0,0,270.0*
21,1,1.3650,0.5400,0,0,270.0*
1,1,0.1350,-0.2025,-0.6825*
1,1,0.1350,-0.2025,0.6825*
1,1,0.1350,0.2025,0.6825*
1,1,0.1350,0.2025,-0.6825*
%
%ADD17ROUNDEDRECTD17*%
G04:AMPARAMS|DCode=18|XSize=1.5mm|YSize=0.54mm|CornerRadius=0.0675mm|HoleSize=0mm|Usage=FLASHONLY|Rotation=180.000|XOffset=0mm|YOffset=0mm|HoleType=Round|Shape=RoundedRectangle|*
%AMROUNDEDRECTD18*
21,1,1.5000,0.4050,0,0,180.0*
21,1,1.3650,0.5400,0,0,180.0*
1,1,0.1350,-0.6825,0.2025*
1,1,0.1350,0.6825,0.2025*
1,1,0.1350,0.6825,-0.2025*
1,1,0.1350,-0.6825,-0.2025*
%
%ADD18ROUNDEDRECTD18*%
G04:AMPARAMS|DCode=19|XSize=0.6mm|YSize=1.85mm|CornerRadius=0.075mm|HoleSize=0mm|Usage=FLASHONLY|Rotation=0.000|XOffset=0mm|YOffset=0mm|HoleType=Round|Shape=RoundedRectangle|*
%AMROUNDEDRECTD19*
21,1,0.6000,1.7000,0,0,0.0*
21,1,0.4500,1.8500,0,0,0.0*
1,1,0.1500,0.2250,-0.8500*
1,1,0.1500,-0.2250,-0.8500*
1,1,0.1500,-0.2250,0.8500*
1,1,0.1500,0.2250,0.8500*
%
%ADD19ROUNDEDRECTD19*%
G04:AMPARAMS|DCode=20|XSize=0.72mm|YSize=0.99mm|CornerRadius=0.09mm|HoleSize=0mm|Usage=FLASHONLY|Rotation=0.000|XOffset=0mm|YOffset=0mm|HoleType=Round|Shape=RoundedRectangle|*
%AMROUNDEDRECTD20*
21,1,0.7200,0.8100,0,0,0.0*
21,1,0.5400,0.9900,0,0,0.0*
1,1,0.1800,0.2700,-0.4050*
1,1,0.1800,-0.2700,-0.4050*
1,1,0.1800,-0.2700,0.4050*
1,1,0.1800,0.2700,0.4050*
%
%ADD20ROUNDEDRECTD20*%
G04:AMPARAMS|DCode=21|XSize=0.55mm|YSize=1.9mm|CornerRadius=0.0688mm|HoleSize=0mm|Usage=FLASHONLY|Rotation=0.000|XOffset=0mm|YOffset=0mm|HoleType=Round|Shape=RoundedRectangle|*
%AMROUNDEDRECTD21*
21,1,0.5500,1.7625,0,0,0.0*
21,1,0.4125,1.9000,0,0,0.0*
1,1,0.1375,0.2063,-0.8813*
1,1,0.1375,-0.2063,-0.8813*
1,1,0.1375,-0.2063,0.8813*
1,1,0.1375,0.2063,0.8813*
%
%ADD21ROUNDEDRECTD21*%
G04:AMPARAMS|DCode=22|XSize=1.4mm|YSize=1.05mm|CornerRadius=0.1313mm|HoleSize=0mm|Usage=FLASHONLY|Rotation=0.000|XOffset=0mm|YOffset=0mm|HoleType=Round|Shape=RoundedRectangle|*
%AMROUNDEDRECTD22*
21,1,1.4000,0.7875,0,0,0.0*
21,1,1.1375,1.0500,0,0,0.0*
1,1,0.2625,0.5688,-0.3938*
1,1,0.2625,-0.5688,-0.3938*
1,1,0.2625,-0.5688,0.3938*
1,1,0.2625,0.5688,0.3938*
%
%ADD22ROUNDEDRECTD22*%
G04:AMPARAMS|DCode=23|XSize=1.9mm|YSize=2.4mm|CornerRadius=0.0475mm|HoleSize=0mm|Usage=FLASHONLY|Rotation=0.000|XOffset=0mm|YOffset=0mm|HoleType=Round|Shape=RoundedRectangle|*
%AMROUNDEDRECTD23*
21,1,1.9000,2.3050,0,0,0.0*
21,1,1.8050,2.4000,0,0,0.0*
1,1,0.0950,0.9025,-1.1525*
1,1,0.0950,-0.9025,-1.1525*
1,1,0.0950,-0.9025,1.1525*
1,1,0.0950,0.9025,1.1525*
%
%ADD23ROUNDEDRECTD23*%
G04:AMPARAMS|DCode=24|XSize=1.4mm|YSize=1.05mm|CornerRadius=0.1313mm|HoleSize=0mm|Usage=FLASHONLY|Rotation=90.000|XOffset=0mm|YOffset=0mm|HoleType=Round|Shape=RoundedRectangle|*
%AMROUNDEDRECTD24*
21,1,1.4000,0.7875,0,0,90.0*
21,1,1.1375,1.0500,0,0,90.0*
1,1,0.2625,0.3938,0.5688*
1,1,0.2625,0.3938,-0.5688*
1,1,0.2625,-0.3938,-0.5688*
1,1,0.2625,-0.3938,0.5688*
%
%ADD24ROUNDEDRECTD24*%
G04:AMPARAMS|DCode=25|XSize=1.7mm|YSize=0.35mm|CornerRadius=0.0438mm|HoleSize=0mm|Usage=FLASHONLY|Rotation=180.000|XOffset=0mm|YOffset=0mm|HoleType=Round|Shape=RoundedRectangle|*
%AMROUNDEDRECTD25*
21,1,1.7000,0.2625,0,0,180.0*
21,1,1.6125,0.3500,0,0,180.0*
1,1,0.0875,-0.8063,0.1313*
1,1,0.0875,0.8063,0.1313*
1,1,0.0875,0.8063,-0.1313*
1,1,0.0875,-0.8063,-0.1313*
%
%ADD25ROUNDEDRECTD25*%
G04:AMPARAMS|DCode=26|XSize=1.15mm|YSize=1.05mm|CornerRadius=0.1313mm|HoleSize=0mm|Usage=FLASHONLY|Rotation=270.000|XOffset=0mm|YOffset=0mm|HoleType=Round|Shape=RoundedRectangle|*
%AMROUNDEDRECTD26*
21,1,1.1500,0.7875,0,0,270.0*
21,1,0.8875,1.0500,0,0,270.0*
1,1,0.2625,-0.3938,-0.4438*
1,1,0.2625,-0.3938,0.4438*
1,1,0.2625,0.3938,0.4438*
1,1,0.2625,0.3938,-0.4438*
%
%ADD26ROUNDEDRECTD26*%
%ADD27R,1.0500X1.1500*%
%ADD53C,0.6500*%
%ADD54C,1.5000*%
G04:AMPARAMS|DCode=55|XSize=0.9mm|YSize=2.4mm|CornerRadius=0.45mm|HoleSize=0mm|Usage=FLASHONLY|Rotation=0.000|XOffset=0mm|YOffset=0mm|HoleType=Round|Shape=RoundedRectangle|*
%AMROUNDEDRECTD55*
21,1,0.9000,1.5000,0,0,0.0*
21,1,0.0000,2.4000,0,0,0.0*
1,1,0.9000,0.0000,-0.7500*
1,1,0.9000,0.0000,-0.7500*
1,1,0.9000,0.0000,0.7500*
1,1,0.9000,0.0000,0.7500*
%
%ADD55ROUNDEDRECTD55*%
G04:AMPARAMS|DCode=56|XSize=0.9mm|YSize=1.7mm|CornerRadius=0.45mm|HoleSize=0mm|Usage=FLASHONLY|Rotation=0.000|XOffset=0mm|YOffset=0mm|HoleType=Round|Shape=RoundedRectangle|*
%AMROUNDEDRECTD56*
21,1,0.9000,0.8000,0,0,0.0*
21,1,0.0000,1.7000,0,0,0.0*
1,1,0.9000,0.0000,-0.4000*
1,1,0.9000,0.0000,-0.4000*
1,1,0.9000,0.0000,0.4000*
1,1,0.9000,0.0000,0.4000*
%
%ADD56ROUNDEDRECTD56*%
%ADD57O,1.5000X2.0000*%
%ADD58C,6.0000*%
G04:AMPARAMS|DCode=59|XSize=1.7mm|YSize=1.7mm|CornerRadius=0.05mm|HoleSize=0mm|Usage=FLASHONLY|Rotation=270.000|XOffset=0mm|YOffset=0mm|HoleType=Round|Shape=RoundedRectangle|*
%AMROUNDEDRECTD59*
21,1,1.7000,1.6000,0,0,270.0*
21,1,1.6000,1.7000,0,0,270.0*
1,1,0.1000,-0.8000,-0.8000*
1,1,0.1000,-0.8000,0.8000*
1,1,0.1000,0.8000,0.8000*
1,1,0.1000,0.8000,-0.8000*
%
%ADD59ROUNDEDRECTD59*%
%ADD60C,1.7000*%
D15*
X116666Y111130D02*
D03*
X91666D02*
D03*
Y130130D02*
D03*
X116666D02*
D03*
X91666Y120630D02*
D03*
X262156Y131198D02*
D03*
X262156Y140698D02*
D03*
Y150198D02*
D03*
X287156Y150198D02*
D03*
X287156Y140698D02*
D03*
Y131198D02*
D03*
D16*
X110916Y158480D02*
D03*
X97416D02*
D03*
X489926Y258638D02*
D03*
Y244838D02*
D03*
X42230Y56816D02*
D03*
Y43016D02*
D03*
X39416Y438920D02*
D03*
Y425120D02*
D03*
X97416Y172280D02*
D03*
X110916D02*
D03*
X144906Y172848D02*
D03*
Y159048D02*
D03*
X203156Y67948D02*
D03*
X203156Y81848D02*
D03*
X182406Y68048D02*
D03*
Y81848D02*
D03*
X240656Y151548D02*
D03*
Y165348D02*
D03*
X50906Y177048D02*
D03*
Y190848D02*
D03*
X65406Y177048D02*
D03*
Y190848D02*
D03*
X312656Y179848D02*
D03*
Y166048D02*
D03*
D17*
X430870Y115670D02*
D03*
X422870D02*
D03*
X414870D02*
D03*
X406870D02*
D03*
X398870D02*
D03*
X390870D02*
D03*
X382870D02*
D03*
X350870D02*
D03*
Y229670D02*
D03*
X358870D02*
D03*
X366870D02*
D03*
X374870D02*
D03*
X382870D02*
D03*
X390870D02*
D03*
X398870D02*
D03*
X406870D02*
D03*
X414870D02*
D03*
X422870D02*
D03*
X430870D02*
D03*
X358870Y115670D02*
D03*
X366870D02*
D03*
X374870D02*
D03*
D18*
X333870Y132670D02*
D03*
Y148670D02*
D03*
Y156670D02*
D03*
Y172670D02*
D03*
Y180670D02*
D03*
Y188670D02*
D03*
Y196670D02*
D03*
Y204670D02*
D03*
Y212670D02*
D03*
X447870D02*
D03*
Y204670D02*
D03*
Y196670D02*
D03*
Y188670D02*
D03*
Y180670D02*
D03*
Y164670D02*
D03*
Y156670D02*
D03*
Y148670D02*
D03*
Y140670D02*
D03*
Y132670D02*
D03*
X333870Y140670D02*
D03*
X333870Y164670D02*
D03*
X447870Y172670D02*
D03*
D19*
X375626Y281188D02*
D03*
X388326D02*
D03*
X401026D02*
D03*
X413726D02*
D03*
X426426D02*
D03*
X439126D02*
D03*
X451826D02*
D03*
X464526D02*
D03*
X477226D02*
D03*
X489926D02*
D03*
X388326Y374688D02*
D03*
X401026D02*
D03*
X413726D02*
D03*
X426426D02*
D03*
X439126D02*
D03*
X451826D02*
D03*
X464526D02*
D03*
X477226D02*
D03*
X489926D02*
D03*
X375626D02*
D03*
D20*
X467006Y179448D02*
D03*
X480806D02*
D03*
X153006Y97448D02*
D03*
X166806D02*
D03*
X152756Y118198D02*
D03*
X166556D02*
D03*
X284296Y94908D02*
D03*
X270496D02*
D03*
X281556Y165698D02*
D03*
X267756D02*
D03*
X181556Y209448D02*
D03*
X167756D02*
D03*
X242306Y209448D02*
D03*
X228506D02*
D03*
Y223448D02*
D03*
X242306D02*
D03*
Y237948D02*
D03*
X228506D02*
D03*
X242318Y252448D02*
D03*
X228518D02*
D03*
X306056Y94908D02*
D03*
X319856D02*
D03*
X349506Y259358D02*
D03*
X335706D02*
D03*
X267756Y180198D02*
D03*
X281556D02*
D03*
X267756Y194948D02*
D03*
X281556D02*
D03*
D21*
X350226Y375438D02*
D03*
X337526D02*
D03*
X324826D02*
D03*
X312126D02*
D03*
X299426D02*
D03*
X286726D02*
D03*
X274026D02*
D03*
X261326D02*
D03*
X248626D02*
D03*
X235926D02*
D03*
X223226D02*
D03*
X350226Y280438D02*
D03*
X337526D02*
D03*
X324826D02*
D03*
X312126D02*
D03*
X299426D02*
D03*
X286726D02*
D03*
X274026D02*
D03*
X261326D02*
D03*
X248626D02*
D03*
X235926D02*
D03*
X223226D02*
D03*
X210526D02*
D03*
Y375438D02*
D03*
D22*
X64257Y447596D02*
D03*
Y428596D02*
D03*
X225406Y81198D02*
D03*
Y62198D02*
D03*
X470156Y163448D02*
D03*
X470156Y144448D02*
D03*
D23*
X274676Y68238D02*
D03*
X315676D02*
D03*
D24*
X249156Y112948D02*
D03*
X268156D02*
D03*
D25*
X163750Y136750D02*
D03*
X163750Y143250D02*
D03*
Y149750D02*
D03*
X163750Y156250D02*
D03*
X163750Y169250D02*
D03*
X163750Y175750D02*
D03*
Y182250D02*
D03*
Y188750D02*
D03*
Y195250D02*
D03*
X220750D02*
D03*
X220750Y188750D02*
D03*
Y182250D02*
D03*
X220750Y175750D02*
D03*
X220750Y162750D02*
D03*
Y156250D02*
D03*
X220750Y149750D02*
D03*
Y143250D02*
D03*
Y136750D02*
D03*
X163750Y162750D02*
D03*
X220750Y169250D02*
D03*
D26*
X278156Y217698D02*
D03*
X262656D02*
D03*
X278156Y251198D02*
D03*
D27*
X262656D02*
D03*
D53*
X99990Y42596D02*
D03*
X108490Y56096D02*
D03*
Y42596D02*
D03*
X99990Y56096D02*
D03*
X74490Y42596D02*
D03*
X82990D02*
D03*
X91490D02*
D03*
X116990D02*
D03*
X125490D02*
D03*
X133990D02*
D03*
Y56096D02*
D03*
X125490D02*
D03*
X116990D02*
D03*
X91490D02*
D03*
X82990D02*
D03*
X74490D02*
D03*
D54*
X423656Y75052D02*
D03*
X441616Y93012D02*
D03*
X503656Y75052D02*
D03*
X521616Y93012D02*
D03*
X463656Y75052D02*
D03*
X481616Y93012D02*
D03*
X383656Y75052D02*
D03*
X401616Y93012D02*
D03*
D55*
X147490Y46296D02*
D03*
X60990D02*
D03*
D56*
X147490Y12496D02*
D03*
X60990D02*
D03*
D57*
X164314Y530712D02*
D03*
X185904D02*
D03*
X207494D02*
D03*
X229084D02*
D03*
X250674D02*
D03*
X272264D02*
D03*
X293854D02*
D03*
X315444D02*
D03*
X337034D02*
D03*
X358624D02*
D03*
X380214D02*
D03*
X401804D02*
D03*
X164314Y487786D02*
D03*
X185904D02*
D03*
X207494D02*
D03*
X229084D02*
D03*
X250674D02*
D03*
X272264D02*
D03*
X293854D02*
D03*
X315444D02*
D03*
X337034D02*
D03*
X358624D02*
D03*
X380214D02*
D03*
X401804D02*
D03*
D58*
X48998Y509249D02*
D03*
X517120D02*
D03*
X143050Y428300D02*
D03*
X423050D02*
D03*
D59*
X519000Y304200D02*
D03*
D60*
Y278800D02*
D03*
X519000Y228000D02*
D03*
X519000Y202600D02*
D03*
Y177200D02*
D03*
X519000Y253400D02*
D03*
M02*
