G04*
G04 #@! TF.GenerationSoftware,Altium Limited,Altium Designer,25.8.1 (18)*
G04*
G04 Layer_Physical_Order=4*
G04 Layer_Color=16711680*
%FSLAX44Y44*%
%MOMM*%
G71*
G04*
G04 #@! TF.SameCoordinates,23F0502B-7B20-4CC9-97BB-DA64BA6573D7*
G04*
G04*
G04 #@! TF.FilePolarity,Positive*
G04*
G01*
G75*
%ADD11C,0.2000*%
%ADD53C,0.6500*%
%ADD54C,1.5000*%
G04:AMPARAMS|DCode=55|XSize=0.9mm|YSize=2.4mm|CornerRadius=0.45mm|HoleSize=0mm|Usage=FLASHONLY|Rotation=0.000|XOffset=0mm|YOffset=0mm|HoleType=Round|Shape=RoundedRectangle|*
%AMROUNDEDRECTD55*
21,1,0.9000,1.5000,0,0,0.0*
21,1,0.0000,2.4000,0,0,0.0*
1,1,0.9000,0.0000,-0.7500*
1,1,0.9000,0.0000,-0.7500*
1,1,0.9000,0.0000,0.7500*
1,1,0.9000,0.0000,0.7500*
%
%ADD55ROUNDEDRECTD55*%
G04:AMPARAMS|DCode=56|XSize=0.9mm|YSize=1.7mm|CornerRadius=0.45mm|HoleSize=0mm|Usage=FLASHONLY|Rotation=0.000|XOffset=0mm|YOffset=0mm|HoleType=Round|Shape=RoundedRectangle|*
%AMROUNDEDRECTD56*
21,1,0.9000,0.8000,0,0,0.0*
21,1,0.0000,1.7000,0,0,0.0*
1,1,0.9000,0.0000,-0.4000*
1,1,0.9000,0.0000,-0.4000*
1,1,0.9000,0.0000,0.4000*
1,1,0.9000,0.0000,0.4000*
%
%ADD56ROUNDEDRECTD56*%
%ADD57O,1.5000X2.0000*%
%ADD58C,6.0000*%
G04:AMPARAMS|DCode=59|XSize=1.7mm|YSize=1.7mm|CornerRadius=0.05mm|HoleSize=0mm|Usage=FLASHONLY|Rotation=270.000|XOffset=0mm|YOffset=0mm|HoleType=Round|Shape=RoundedRectangle|*
%AMROUNDEDRECTD59*
21,1,1.7000,1.6000,0,0,270.0*
21,1,1.6000,1.7000,0,0,270.0*
1,1,0.1000,-0.8000,-0.8000*
1,1,0.1000,-0.8000,0.8000*
1,1,0.1000,0.8000,0.8000*
1,1,0.1000,0.8000,-0.8000*
%
%ADD59ROUNDEDRECTD59*%
%ADD60C,1.7000*%
%ADD61C,0.8000*%
G36*
X560747Y400153D02*
X533050D01*
Y400169D01*
X527024Y399695D01*
X521147Y398284D01*
X515563Y395970D01*
X510409Y392812D01*
X505813Y388887D01*
X501888Y384291D01*
X498730Y379137D01*
X496417Y373553D01*
X495005Y367676D01*
X494531Y361650D01*
X495005Y355624D01*
X496417Y349747D01*
X498730Y344163D01*
X501888Y339009D01*
X505813Y334413D01*
X510409Y330488D01*
X515563Y327330D01*
X521147Y325017D01*
X527024Y323605D01*
X533050Y323131D01*
Y323147D01*
X560747D01*
Y5353D01*
X5353D01*
Y323147D01*
X33050D01*
Y323131D01*
X39076Y323605D01*
X44953Y325017D01*
X50537Y327330D01*
X55691Y330488D01*
X60287Y334413D01*
X64212Y339009D01*
X67370Y344163D01*
X69683Y349747D01*
X71094Y355624D01*
X71569Y361650D01*
X71094Y367676D01*
X69683Y373553D01*
X67370Y379137D01*
X64212Y384291D01*
X60287Y388887D01*
X55691Y392812D01*
X50537Y395970D01*
X44953Y398284D01*
X39076Y399695D01*
X33050Y400169D01*
Y400153D01*
X5353D01*
Y571247D01*
X560747D01*
Y400153D01*
D02*
G37*
%LPC*%
G36*
X315444Y542310D02*
X313090Y542000D01*
X310895Y541091D01*
X309011Y539645D01*
X307565Y537761D01*
X306656Y535567D01*
X306346Y533212D01*
Y528212D01*
X306656Y525858D01*
X307565Y523663D01*
X309011Y521779D01*
X310895Y520333D01*
X313090Y519424D01*
X315444Y519114D01*
X317799Y519424D01*
X319993Y520333D01*
X321878Y521779D01*
X323323Y523663D01*
X324232Y525858D01*
X324542Y528212D01*
Y533212D01*
X324232Y535567D01*
X323323Y537761D01*
X321878Y539645D01*
X319993Y541091D01*
X317799Y542000D01*
X315444Y542310D01*
D02*
G37*
G36*
X401804D02*
X399450Y542000D01*
X397255Y541091D01*
X395371Y539645D01*
X393925Y537761D01*
X393017Y535567D01*
X392706Y533212D01*
Y528212D01*
X393017Y525858D01*
X393925Y523663D01*
X395371Y521779D01*
X397255Y520333D01*
X399235Y519513D01*
Y510696D01*
X399431Y509712D01*
X399987Y508879D01*
X457181Y451686D01*
Y385170D01*
X429790Y357780D01*
X429553Y358018D01*
X427524Y358858D01*
X425328D01*
X423299Y358018D01*
X421746Y356465D01*
X421094Y354889D01*
X419058D01*
X418406Y356465D01*
X416853Y358018D01*
X414824Y358858D01*
X412628D01*
X412071Y358627D01*
X376069Y394628D01*
Y458686D01*
X392347Y474963D01*
X392904Y475797D01*
X393099Y476780D01*
X393099Y476780D01*
Y478528D01*
X395099Y479207D01*
X395371Y478853D01*
X397255Y477407D01*
X399450Y476498D01*
X401804Y476188D01*
X404159Y476498D01*
X406353Y477407D01*
X408237Y478853D01*
X409683Y480737D01*
X410592Y482932D01*
X410902Y485286D01*
Y490286D01*
X410592Y492641D01*
X409683Y494835D01*
X408237Y496719D01*
X406353Y498165D01*
X404159Y499074D01*
X401804Y499384D01*
X399450Y499074D01*
X397255Y498165D01*
X395371Y496719D01*
X394670Y495806D01*
X394627Y495789D01*
X392347Y495958D01*
X382784Y505521D01*
Y519513D01*
X384763Y520333D01*
X386647Y521779D01*
X388093Y523663D01*
X389002Y525858D01*
X389312Y528212D01*
Y533212D01*
X389002Y535567D01*
X388093Y537761D01*
X386647Y539645D01*
X384763Y541091D01*
X382569Y542000D01*
X380214Y542310D01*
X377860Y542000D01*
X375665Y541091D01*
X373781Y539645D01*
X372335Y537761D01*
X371427Y535567D01*
X371116Y533212D01*
Y528212D01*
X371427Y525858D01*
X372335Y523663D01*
X373781Y521779D01*
X375665Y520333D01*
X377645Y519513D01*
Y504457D01*
X377840Y503473D01*
X378397Y502640D01*
X379703Y501334D01*
X378987Y499222D01*
X377860Y499074D01*
X375665Y498165D01*
X373919Y496825D01*
X373311Y496936D01*
X371919Y497578D01*
Y501900D01*
X371724Y502883D01*
X371167Y503717D01*
X361194Y513690D01*
Y519513D01*
X363173Y520333D01*
X365057Y521779D01*
X366503Y523663D01*
X367412Y525858D01*
X367722Y528212D01*
Y533212D01*
X367412Y535567D01*
X366503Y537761D01*
X365057Y539645D01*
X363173Y541091D01*
X360979Y542000D01*
X358624Y542310D01*
X356270Y542000D01*
X354075Y541091D01*
X352191Y539645D01*
X350745Y537761D01*
X349837Y535567D01*
X349526Y533212D01*
Y528212D01*
X349837Y525858D01*
X350745Y523663D01*
X352191Y521779D01*
X354075Y520333D01*
X356055Y519513D01*
Y512626D01*
X356250Y511642D01*
X356808Y510809D01*
X366781Y500836D01*
Y497759D01*
X365852Y497199D01*
X364781Y496932D01*
X363173Y498165D01*
X360979Y499074D01*
X358624Y499384D01*
X356270Y499074D01*
X354075Y498165D01*
X352592Y497027D01*
X351215Y497453D01*
X350592Y497921D01*
Y500477D01*
X350397Y501460D01*
X349840Y502294D01*
X339604Y512530D01*
Y519513D01*
X341583Y520333D01*
X343467Y521779D01*
X344913Y523663D01*
X345822Y525858D01*
X346132Y528212D01*
Y533212D01*
X345822Y535567D01*
X344913Y537761D01*
X343467Y539645D01*
X341583Y541091D01*
X339389Y542000D01*
X337034Y542310D01*
X334680Y542000D01*
X332485Y541091D01*
X330601Y539645D01*
X329155Y537761D01*
X328246Y535567D01*
X327937Y533212D01*
Y528212D01*
X328246Y525858D01*
X329155Y523663D01*
X330601Y521779D01*
X332485Y520333D01*
X334465Y519513D01*
Y511466D01*
X334660Y510482D01*
X335218Y509649D01*
X345454Y499413D01*
Y497416D01*
X343467Y496719D01*
X341583Y498165D01*
X339389Y499074D01*
X337034Y499384D01*
X334680Y499074D01*
X332485Y498165D01*
X330601Y496719D01*
X329155Y494835D01*
X328246Y492641D01*
X327937Y490286D01*
Y485286D01*
X328246Y482932D01*
X329155Y480737D01*
X330601Y478853D01*
X332485Y477407D01*
X334680Y476498D01*
X337034Y476188D01*
X339389Y476498D01*
X341583Y477407D01*
X343467Y478853D01*
X345454Y478156D01*
Y477227D01*
X345649Y476244D01*
X346206Y475410D01*
X362562Y459054D01*
Y376978D01*
X362488Y376607D01*
X362684Y375623D01*
X362727Y375559D01*
X362757Y375405D01*
X363315Y374571D01*
X363751Y374280D01*
X383037Y354993D01*
X382806Y354436D01*
Y352240D01*
X383646Y350211D01*
X385199Y348658D01*
X387228Y347818D01*
X389424D01*
X391453Y348658D01*
X393006Y350211D01*
X393658Y351787D01*
X395694Y351787D01*
X396346Y350211D01*
X397899Y348658D01*
X399928Y347818D01*
X402124D01*
X404153Y348658D01*
X405706Y350211D01*
X406358Y351787D01*
X408394Y351787D01*
X409046Y350211D01*
X410599Y348658D01*
X412628Y347818D01*
X414824D01*
X416853Y348658D01*
X418406Y350211D01*
X419058Y351787D01*
X421094D01*
X421746Y350211D01*
X423299Y348658D01*
X425328Y347818D01*
X427524D01*
X429553Y348658D01*
X431106Y350211D01*
X431946Y352240D01*
Y352669D01*
X431947Y352669D01*
X461344Y382066D01*
X461567Y382215D01*
X462124Y383049D01*
X462319Y384032D01*
Y452750D01*
X462124Y453733D01*
X461567Y454567D01*
X404374Y511760D01*
Y519513D01*
X406353Y520333D01*
X408237Y521779D01*
X409683Y523663D01*
X410592Y525858D01*
X410902Y528212D01*
Y533212D01*
X410592Y535567D01*
X409683Y537761D01*
X408237Y539645D01*
X406353Y541091D01*
X404159Y542000D01*
X401804Y542310D01*
D02*
G37*
G36*
X315444Y499384D02*
X313090Y499074D01*
X310895Y498165D01*
X309011Y496719D01*
X307565Y494835D01*
X306656Y492641D01*
X306346Y490286D01*
Y485286D01*
X306656Y482932D01*
X307565Y480737D01*
X309011Y478853D01*
X310895Y477407D01*
X313090Y476498D01*
X315444Y476188D01*
X317799Y476498D01*
X319993Y477407D01*
X321878Y478853D01*
X323323Y480737D01*
X324232Y482932D01*
X324542Y485286D01*
Y490286D01*
X324232Y492641D01*
X323323Y494835D01*
X321878Y496719D01*
X319993Y498165D01*
X317799Y499074D01*
X315444Y499384D01*
D02*
G37*
G36*
X207494D02*
X205140Y499074D01*
X202945Y498165D01*
X201061Y496719D01*
X199615Y494835D01*
X198706Y492641D01*
X198396Y490286D01*
Y485286D01*
X198706Y482932D01*
X199615Y480737D01*
X201061Y478853D01*
X202945Y477407D01*
X205140Y476498D01*
X207494Y476188D01*
X209849Y476498D01*
X212043Y477407D01*
X213927Y478853D01*
X215373Y480737D01*
X216282Y482932D01*
X216592Y485286D01*
Y490286D01*
X216282Y492641D01*
X215373Y494835D01*
X213927Y496719D01*
X212043Y498165D01*
X209849Y499074D01*
X207494Y499384D01*
D02*
G37*
G36*
X164314Y502894D02*
X161051Y502464D01*
X158010Y501205D01*
X155399Y499201D01*
X153396Y496590D01*
X152136Y493549D01*
X151706Y490286D01*
Y485286D01*
X152136Y482023D01*
X153396Y478982D01*
X155399Y476371D01*
X158010Y474367D01*
X161051Y473108D01*
X164314Y472678D01*
X167577Y473108D01*
X170618Y474367D01*
X173229Y476371D01*
X175233Y478982D01*
X175910Y480617D01*
X177667Y480717D01*
X178090Y480653D01*
X179471Y478853D01*
X181355Y477407D01*
X183550Y476498D01*
X185904Y476188D01*
X188259Y476498D01*
X190453Y477407D01*
X192337Y478853D01*
X193783Y480737D01*
X194692Y482932D01*
X195002Y485286D01*
Y490286D01*
X194692Y492641D01*
X193783Y494835D01*
X192337Y496719D01*
X190453Y498165D01*
X188259Y499074D01*
X185904Y499384D01*
X183550Y499074D01*
X181355Y498165D01*
X179471Y496719D01*
X178090Y494919D01*
X177667Y494855D01*
X175910Y494955D01*
X175233Y496590D01*
X173229Y499201D01*
X170618Y501205D01*
X167577Y502464D01*
X164314Y502894D01*
D02*
G37*
G36*
X519875Y544249D02*
X514366D01*
X508924Y543387D01*
X503685Y541685D01*
X498776Y539184D01*
X494319Y535946D01*
X490424Y532050D01*
X487186Y527593D01*
X484685Y522685D01*
X482982Y517445D01*
X482120Y512004D01*
Y506495D01*
X482982Y501053D01*
X484685Y495814D01*
X487186Y490905D01*
X490424Y486448D01*
X494319Y482553D01*
X498776Y479314D01*
X503685Y476813D01*
X508924Y475111D01*
X514366Y474249D01*
X519875D01*
X525316Y475111D01*
X530556Y476813D01*
X535464Y479314D01*
X539921Y482553D01*
X543817Y486448D01*
X547055Y490905D01*
X549556Y495814D01*
X551259Y501053D01*
X552120Y506495D01*
Y512004D01*
X551259Y517445D01*
X549556Y522685D01*
X547055Y527593D01*
X543817Y532050D01*
X539921Y535946D01*
X535464Y539184D01*
X530556Y541685D01*
X525316Y543387D01*
X519875Y544249D01*
D02*
G37*
G36*
X51753D02*
X46244D01*
X40802Y543387D01*
X35563Y541685D01*
X30654Y539184D01*
X26197Y535946D01*
X22302Y532050D01*
X19064Y527593D01*
X16563Y522685D01*
X14860Y517445D01*
X13998Y512004D01*
Y506495D01*
X14860Y501053D01*
X16563Y495814D01*
X19064Y490905D01*
X22302Y486448D01*
X26197Y482553D01*
X30654Y479314D01*
X35563Y476813D01*
X40802Y475111D01*
X46244Y474249D01*
X51753D01*
X57194Y475111D01*
X62434Y476813D01*
X67342Y479314D01*
X71799Y482553D01*
X75695Y486448D01*
X78933Y490905D01*
X81434Y495814D01*
X83137Y501053D01*
X83998Y506495D01*
Y512004D01*
X83137Y517445D01*
X81434Y522685D01*
X78933Y527593D01*
X75695Y532050D01*
X71799Y535946D01*
X67342Y539184D01*
X62434Y541685D01*
X57194Y543387D01*
X51753Y544249D01*
D02*
G37*
G36*
X293854Y499384D02*
X291500Y499074D01*
X289305Y498165D01*
X287421Y496719D01*
X285975Y494835D01*
X285067Y492641D01*
X284757Y490286D01*
Y485286D01*
X285067Y482932D01*
X285975Y480737D01*
X287421Y478853D01*
X289305Y477407D01*
X291216Y476616D01*
Y418611D01*
X275681Y403077D01*
X275124Y403308D01*
X272928D01*
X270899Y402468D01*
X269346Y400915D01*
X268506Y398886D01*
Y396752D01*
X268277Y396516D01*
X266858Y395443D01*
X266475Y395695D01*
Y404467D01*
X273789Y411781D01*
X274012Y411930D01*
X274569Y412763D01*
X274764Y413747D01*
Y476559D01*
X276813Y477407D01*
X278697Y478853D01*
X280143Y480737D01*
X281052Y482932D01*
X281362Y485286D01*
Y490286D01*
X281052Y492641D01*
X280143Y494835D01*
X278697Y496719D01*
X276813Y498165D01*
X274619Y499074D01*
X272264Y499384D01*
X269910Y499074D01*
X267715Y498165D01*
X265831Y496719D01*
X264385Y494835D01*
X263477Y492641D01*
X263167Y490286D01*
Y485286D01*
X263477Y482932D01*
X264385Y480737D01*
X265831Y478853D01*
X267715Y477407D01*
X269626Y476616D01*
Y414885D01*
X262089Y407349D01*
X261532Y406515D01*
X261337Y405532D01*
Y395979D01*
X259337Y395151D01*
X253174Y401313D01*
Y476559D01*
X255223Y477407D01*
X257108Y478853D01*
X258553Y480737D01*
X259462Y482932D01*
X259772Y485286D01*
Y490286D01*
X259462Y492641D01*
X258553Y494835D01*
X257108Y496719D01*
X255223Y498165D01*
X253029Y499074D01*
X250674Y499384D01*
X248320Y499074D01*
X246125Y498165D01*
X244241Y496719D01*
X242795Y494835D01*
X241887Y492641D01*
X241576Y490286D01*
Y485286D01*
X241887Y482932D01*
X242795Y480737D01*
X244241Y478853D01*
X246125Y477407D01*
X248036Y476616D01*
Y400834D01*
X247712Y400553D01*
X246770Y400139D01*
X246018Y400023D01*
X231584Y414457D01*
Y476559D01*
X233633Y477407D01*
X235518Y478853D01*
X236963Y480737D01*
X237872Y482932D01*
X238182Y485286D01*
Y490286D01*
X237872Y492641D01*
X236963Y494835D01*
X235518Y496719D01*
X233633Y498165D01*
X231439Y499074D01*
X229084Y499384D01*
X226730Y499074D01*
X224535Y498165D01*
X222651Y496719D01*
X221205Y494835D01*
X220296Y492641D01*
X219986Y490286D01*
Y485286D01*
X220296Y482932D01*
X221205Y480737D01*
X222651Y478853D01*
X224535Y477407D01*
X226446Y476616D01*
Y413839D01*
X226372Y413467D01*
X226567Y412484D01*
X227124Y411650D01*
X263285Y375490D01*
X264118Y374933D01*
X265102Y374737D01*
X291644D01*
X292628Y374933D01*
X293461Y375490D01*
X310471Y392499D01*
X311028Y392268D01*
X313224D01*
X315253Y393108D01*
X316806Y394661D01*
X317646Y396690D01*
Y398886D01*
X316806Y400915D01*
X315253Y402468D01*
X313224Y403308D01*
X311028D01*
X308999Y402468D01*
X307446Y400915D01*
X306794Y399339D01*
X304758D01*
X304106Y400915D01*
X302553Y402468D01*
X300524Y403308D01*
X298328D01*
X296299Y402468D01*
X294746Y400915D01*
X294094Y399339D01*
X292058D01*
X291406Y400915D01*
X289853Y402468D01*
X287824Y403308D01*
X286008D01*
X285281Y404377D01*
X285028Y405156D01*
X295379Y415507D01*
X295602Y415656D01*
X296159Y416490D01*
X296354Y417473D01*
Y476559D01*
X298403Y477407D01*
X300287Y478853D01*
X301733Y480737D01*
X302642Y482932D01*
X302952Y485286D01*
Y490286D01*
X302642Y492641D01*
X301733Y494835D01*
X300287Y496719D01*
X298403Y498165D01*
X296209Y499074D01*
X293854Y499384D01*
D02*
G37*
G36*
X425531Y459820D02*
X420569D01*
X415669Y459044D01*
X410951Y457511D01*
X406530Y455258D01*
X402516Y452342D01*
X399008Y448834D01*
X396092Y444820D01*
X393839Y440400D01*
X392306Y435681D01*
X391530Y430781D01*
Y425819D01*
X392306Y420919D01*
X393839Y416200D01*
X396092Y411780D01*
X399008Y407766D01*
X402516Y404258D01*
X406530Y401342D01*
X410951Y399089D01*
X415669Y397556D01*
X420569Y396780D01*
X425531D01*
X430431Y397556D01*
X435149Y399089D01*
X439570Y401342D01*
X443584Y404258D01*
X447092Y407766D01*
X450008Y411780D01*
X452261Y416200D01*
X453794Y420919D01*
X454570Y425819D01*
Y430781D01*
X453794Y435681D01*
X452261Y440400D01*
X450008Y444820D01*
X447092Y448834D01*
X443584Y452342D01*
X439570Y455258D01*
X435149Y457511D01*
X430431Y459044D01*
X425531Y459820D01*
D02*
G37*
G36*
X145531D02*
X140569D01*
X135669Y459044D01*
X130950Y457511D01*
X126530Y455258D01*
X122516Y452342D01*
X119008Y448834D01*
X116092Y444820D01*
X113839Y440400D01*
X112306Y435681D01*
X111530Y430781D01*
Y425819D01*
X112306Y420919D01*
X113839Y416200D01*
X116092Y411780D01*
X119008Y407766D01*
X122516Y404258D01*
X126530Y401342D01*
X130950Y399089D01*
X135669Y397556D01*
X140569Y396780D01*
X145531D01*
X150431Y397556D01*
X155149Y399089D01*
X159570Y401342D01*
X163584Y404258D01*
X167092Y407766D01*
X170008Y411780D01*
X172261Y416200D01*
X173794Y420919D01*
X174570Y425819D01*
Y430781D01*
X173794Y435681D01*
X172261Y440400D01*
X170008Y444820D01*
X167092Y448834D01*
X163584Y452342D01*
X159570Y455258D01*
X155149Y457511D01*
X150431Y459044D01*
X145531Y459820D01*
D02*
G37*
G36*
X351324Y357588D02*
X349128D01*
X347099Y356748D01*
X345546Y355195D01*
X344706Y353166D01*
Y350970D01*
X345546Y348941D01*
X347099Y347388D01*
X349128Y346548D01*
X351324D01*
X351881Y346779D01*
X379376Y319284D01*
X378243Y317589D01*
X376724Y318218D01*
X374528D01*
X372499Y317378D01*
X370946Y315825D01*
X370106Y313796D01*
Y311600D01*
X370946Y309571D01*
X372499Y308018D01*
X374528Y307178D01*
X376724D01*
X378753Y308018D01*
X379618Y308883D01*
X410684Y277817D01*
Y268990D01*
X408684Y268162D01*
X349330Y327515D01*
X348497Y328072D01*
X347513Y328267D01*
X332610D01*
X331782Y330267D01*
X332586Y331071D01*
X333426Y333100D01*
Y335296D01*
X332586Y337325D01*
X331033Y338878D01*
X329004Y339718D01*
X326808D01*
X324779Y338878D01*
X323226Y337325D01*
X322995Y336767D01*
X233406D01*
X232423Y336572D01*
X231589Y336015D01*
X198339Y302765D01*
X197782Y301931D01*
X197587Y300948D01*
Y269198D01*
X197782Y268215D01*
X198339Y267381D01*
X233089Y232631D01*
X233923Y232074D01*
X234906Y231879D01*
X257745D01*
X257976Y231321D01*
X259529Y229768D01*
X261558Y228928D01*
X263754D01*
X265783Y229768D01*
X267336Y231321D01*
X267567Y231879D01*
X298406D01*
X299389Y232074D01*
X300223Y232631D01*
X308897Y241305D01*
X309808Y240928D01*
X312004D01*
X314033Y241768D01*
X315586Y243321D01*
X316087Y244531D01*
X318087Y244133D01*
Y235588D01*
X318282Y234605D01*
X318839Y233771D01*
X357637Y194973D01*
X357406Y194416D01*
Y192220D01*
X358246Y190191D01*
X359799Y188638D01*
X361530Y187922D01*
X362043Y186741D01*
X362234Y185798D01*
X361109Y184673D01*
X360552Y183839D01*
X360357Y182856D01*
Y170289D01*
X359799Y170058D01*
X358246Y168505D01*
X357406Y166476D01*
Y164280D01*
X357958Y162947D01*
X356937Y160947D01*
X343927D01*
X335687Y169187D01*
X334853Y169744D01*
X333870Y169940D01*
X266980D01*
X266980Y169940D01*
X265996Y169744D01*
X265163Y169187D01*
X261243Y165267D01*
X258292D01*
X258061Y165825D01*
X256508Y167378D01*
X254480Y168218D01*
X252283D01*
X250255Y167378D01*
X248702Y165825D01*
X247861Y163796D01*
Y161600D01*
X248414Y160267D01*
X247393Y158267D01*
X220993D01*
X220010Y158072D01*
X219176Y157515D01*
X198730Y137069D01*
X198237Y137029D01*
X197899Y137430D01*
X197654Y139275D01*
X207223Y148843D01*
X207780Y149677D01*
X207975Y150660D01*
Y183787D01*
X208533Y184018D01*
X210086Y185571D01*
X210926Y187600D01*
Y189796D01*
X210086Y191825D01*
X208533Y193378D01*
X206504Y194218D01*
X205881Y196218D01*
X212792Y203129D01*
X261495D01*
X261726Y202571D01*
X263279Y201018D01*
X265308Y200178D01*
X267504D01*
X269533Y201018D01*
X271086Y202571D01*
X271926Y204600D01*
Y206796D01*
X271086Y208825D01*
X269533Y210378D01*
X267504Y211218D01*
X265308D01*
X263279Y210378D01*
X261726Y208825D01*
X261495Y208267D01*
X211728D01*
X210744Y208072D01*
X209911Y207515D01*
X188589Y186193D01*
X188032Y185360D01*
X187837Y184377D01*
Y155609D01*
X187279Y155378D01*
X186838Y154936D01*
X185268Y154164D01*
X184224Y154936D01*
X183533Y155628D01*
X181504Y156468D01*
X179308D01*
X178751Y156237D01*
X173723Y161265D01*
X172889Y161822D01*
X171906Y162017D01*
X83567D01*
X83336Y162575D01*
X81783Y164128D01*
X79754Y164968D01*
X77558D01*
X75529Y164128D01*
X73976Y162575D01*
X73136Y160546D01*
Y158350D01*
X73976Y156321D01*
X75529Y154768D01*
X77558Y153928D01*
X79754D01*
X81783Y154768D01*
X83336Y156321D01*
X83567Y156879D01*
X170842D01*
X175117Y152604D01*
X174886Y152046D01*
Y149850D01*
X175726Y147821D01*
X177279Y146268D01*
X179308Y145428D01*
X181504D01*
X183533Y146268D01*
X183974Y146710D01*
X185544Y147482D01*
X186588Y146710D01*
X187279Y146018D01*
X189308Y145178D01*
X191504D01*
X193533Y146018D01*
X195086Y147571D01*
X195926Y149600D01*
Y151796D01*
X195086Y153825D01*
X193533Y155378D01*
X192975Y155609D01*
Y183312D01*
X197886Y188223D01*
X199886Y187600D01*
X200726Y185571D01*
X202279Y184018D01*
X202837Y183787D01*
Y151724D01*
X186926Y135814D01*
X186369Y134980D01*
X186174Y133997D01*
Y123606D01*
X186369Y122623D01*
X186926Y121790D01*
X192085Y116631D01*
X192659Y116247D01*
X192645Y115230D01*
X192326Y114247D01*
X106598D01*
X67975Y152870D01*
Y198787D01*
X68533Y199018D01*
X70086Y200571D01*
X70926Y202600D01*
Y204796D01*
X70086Y206825D01*
X68533Y208378D01*
X66504Y209218D01*
X64308D01*
X62279Y208378D01*
X60726Y206825D01*
X59886Y204796D01*
Y202600D01*
X60726Y200571D01*
X62279Y199018D01*
X62837Y198787D01*
Y151806D01*
X63032Y150822D01*
X63589Y149989D01*
X101003Y112575D01*
X100238Y110727D01*
X78836D01*
X53475Y136087D01*
Y199537D01*
X54033Y199768D01*
X55586Y201321D01*
X56426Y203350D01*
Y205546D01*
X55586Y207575D01*
X54033Y209128D01*
X53180Y209481D01*
X52687Y211816D01*
X78584Y237713D01*
X139265D01*
X139496Y237155D01*
X141049Y235602D01*
X143078Y234762D01*
X145274D01*
X147303Y235602D01*
X148856Y237155D01*
X149696Y239184D01*
Y241380D01*
X148856Y243409D01*
X147303Y244962D01*
X145274Y245802D01*
X143078D01*
X141049Y244962D01*
X139496Y243409D01*
X139265Y242852D01*
X81358D01*
X80592Y244699D01*
X88356Y252463D01*
X139265D01*
X139496Y251905D01*
X141049Y250352D01*
X143078Y249512D01*
X145274D01*
X147303Y250352D01*
X148856Y251905D01*
X149696Y253934D01*
Y256130D01*
X148856Y258159D01*
X147303Y259712D01*
X145274Y260552D01*
X143078D01*
X141049Y259712D01*
X139496Y258159D01*
X139265Y257602D01*
X87291D01*
X86308Y257406D01*
X85475Y256849D01*
X39049Y210424D01*
X38492Y209590D01*
X38297Y208607D01*
Y135107D01*
X38492Y134124D01*
X39049Y133290D01*
X73038Y99301D01*
X73872Y98744D01*
X74855Y98549D01*
X141026D01*
X157218Y82357D01*
X158052Y81799D01*
X159035Y81604D01*
X373470D01*
X375723Y79351D01*
X375251Y78534D01*
X374636Y76239D01*
Y73864D01*
X375251Y71570D01*
X376438Y69514D01*
X378117Y67834D01*
X380174Y66647D01*
X382468Y66032D01*
X384843D01*
X387137Y66647D01*
X389194Y67834D01*
X390874Y69514D01*
X392061Y71570D01*
X392676Y73864D01*
Y76239D01*
X392203Y78003D01*
X393996Y79038D01*
X399799Y73235D01*
X400633Y72678D01*
X401616Y72483D01*
X415006D01*
X415251Y71570D01*
X416438Y69514D01*
X418117Y67834D01*
X420174Y66647D01*
X422468Y66032D01*
X424843D01*
X427137Y66647D01*
X429194Y67834D01*
X430874Y69514D01*
X432061Y71570D01*
X432676Y73864D01*
Y76239D01*
X432061Y78534D01*
X430874Y80590D01*
X429194Y82270D01*
X427137Y83457D01*
X424843Y84072D01*
X422468D01*
X420174Y83457D01*
X418117Y82270D01*
X416438Y80590D01*
X415251Y78534D01*
X415006Y77621D01*
X402681D01*
X390307Y89995D01*
X389473Y90552D01*
X388490Y90747D01*
X161073D01*
X148079Y103741D01*
X148844Y105589D01*
X251103D01*
X259670Y97021D01*
X259670Y97021D01*
X260504Y96464D01*
X261487Y96269D01*
X261487Y96269D01*
X373871D01*
X374855Y96464D01*
X375688Y97021D01*
X382841Y104174D01*
X448900D01*
X467786Y85289D01*
X466661Y83585D01*
X464843Y84072D01*
X462468D01*
X460174Y83457D01*
X458117Y82270D01*
X456438Y80590D01*
X455251Y78534D01*
X454636Y76239D01*
Y73864D01*
X455251Y71570D01*
X456438Y69514D01*
X458117Y67834D01*
X460174Y66647D01*
X462468Y66032D01*
X464843D01*
X467137Y66647D01*
X469194Y67834D01*
X470874Y69514D01*
X472061Y71570D01*
X472676Y73864D01*
Y76239D01*
X472061Y78534D01*
X471843Y78912D01*
X472070Y79348D01*
X473223Y80521D01*
X473716Y80423D01*
X490877D01*
X491860Y80619D01*
X492694Y81176D01*
X501961Y90443D01*
X512967D01*
X513211Y89531D01*
X514398Y87474D01*
X516078Y85795D01*
X518135Y84607D01*
X520429Y83992D01*
X522804D01*
X525098Y84607D01*
X527155Y85795D01*
X528834Y87474D01*
X530022Y89531D01*
X530636Y91825D01*
Y94200D01*
X530022Y96494D01*
X528834Y98551D01*
X527155Y100230D01*
X525098Y101418D01*
X522804Y102032D01*
X520429D01*
X518135Y101418D01*
X516078Y100230D01*
X514398Y98551D01*
X513211Y96494D01*
X512967Y95582D01*
X500897D01*
X499914Y95386D01*
X499080Y94829D01*
X491270Y87019D01*
X490894Y87043D01*
X489827Y89034D01*
X489855Y89242D01*
X490022Y89531D01*
X490636Y91825D01*
Y94200D01*
X490022Y96494D01*
X488834Y98551D01*
X487155Y100230D01*
X485098Y101418D01*
X482804Y102032D01*
X480429D01*
X478135Y101418D01*
X477317Y100946D01*
X464755Y113507D01*
X463922Y114064D01*
X462938Y114260D01*
X381609D01*
X380626Y114064D01*
X379792Y113507D01*
X371213Y104927D01*
X264914D01*
X256347Y113495D01*
X255773Y113879D01*
X255787Y114896D01*
X256105Y115879D01*
X374050D01*
X375033Y116074D01*
X375867Y116631D01*
X386723Y127487D01*
X387280Y128321D01*
X387475Y129304D01*
Y131287D01*
X388033Y131518D01*
X389586Y133071D01*
X390426Y135100D01*
Y137154D01*
X390836Y137518D01*
X392194Y138253D01*
X392654Y137839D01*
X392636Y137796D01*
Y135600D01*
X393476Y133571D01*
X395029Y132018D01*
X397058Y131178D01*
X399254D01*
X401283Y132018D01*
X402836Y133571D01*
X403676Y135600D01*
Y137796D01*
X402836Y139825D01*
X401283Y141378D01*
X399254Y142218D01*
X397058D01*
X396501Y141987D01*
X391312Y147176D01*
X392180Y148702D01*
X392388Y148928D01*
X394504D01*
X396533Y149768D01*
X398086Y151321D01*
X398926Y153350D01*
Y155546D01*
X398086Y157575D01*
X396533Y159128D01*
X395975Y159359D01*
Y162847D01*
X395780Y163831D01*
X395223Y164664D01*
X389622Y170265D01*
X388789Y170822D01*
X387805Y171017D01*
X377865D01*
X376768Y171556D01*
X376289Y173737D01*
X376703Y174461D01*
X377816Y175098D01*
X379264D01*
X381293Y175938D01*
X382846Y177491D01*
X383686Y179520D01*
Y180968D01*
X384323Y182081D01*
X385436Y182718D01*
X386884D01*
X388913Y183558D01*
X390466Y185111D01*
X391306Y187140D01*
Y188588D01*
X391943Y189701D01*
X393056Y190338D01*
X394504D01*
X394532Y190350D01*
X395665Y188654D01*
X394339Y187328D01*
X393782Y186495D01*
X393587Y185512D01*
Y179609D01*
X393029Y179378D01*
X391476Y177825D01*
X390636Y175796D01*
Y173600D01*
X391476Y171571D01*
X393029Y170018D01*
X395058Y169178D01*
X397254D01*
X399283Y170018D01*
X399850Y170585D01*
X401156Y171377D01*
X402463Y170585D01*
X403029Y170018D01*
X405058Y169178D01*
X407254D01*
X409283Y170018D01*
X409975Y170710D01*
X411281Y171352D01*
X412588Y170710D01*
X413279Y170018D01*
X415308Y169178D01*
X417504D01*
X419533Y170018D01*
X421086Y171571D01*
X421926Y173600D01*
Y175796D01*
X421695Y176353D01*
X426473Y181131D01*
X427030Y181965D01*
X427225Y182948D01*
Y281924D01*
X460048Y314746D01*
X460048Y314746D01*
X478111Y332809D01*
X478668Y332578D01*
X480864D01*
X482893Y333418D01*
X484446Y334971D01*
X485286Y337000D01*
Y339196D01*
X484446Y341225D01*
X482893Y342778D01*
X480864Y343618D01*
X478668D01*
X476639Y342778D01*
X475086Y341225D01*
X474246Y339196D01*
Y337000D01*
X474477Y336443D01*
X456414Y318380D01*
X456414Y318380D01*
X423063Y285029D01*
X422992Y285002D01*
X421947Y284973D01*
X420723Y285205D01*
X355515Y350413D01*
X355746Y350970D01*
Y353166D01*
X354906Y355195D01*
X353353Y356748D01*
X351324Y357588D01*
D02*
G37*
G36*
X527000Y314260D02*
X511000D01*
X510212Y314103D01*
X509544Y313656D01*
X509097Y312988D01*
X508941Y312200D01*
Y296200D01*
X509097Y295412D01*
X509544Y294744D01*
X510212Y294297D01*
X511000Y294140D01*
X527000D01*
X527788Y294297D01*
X528456Y294744D01*
X528903Y295412D01*
X529060Y296200D01*
Y312200D01*
X528903Y312988D01*
X528456Y313656D01*
X527788Y314103D01*
X527000Y314260D01*
D02*
G37*
G36*
X520319Y288820D02*
X517681D01*
X515132Y288137D01*
X512848Y286818D01*
X510982Y284952D01*
X509663Y282668D01*
X508980Y280119D01*
Y277481D01*
X509663Y274932D01*
X510982Y272648D01*
X512848Y270782D01*
X515132Y269463D01*
X517681Y268780D01*
X520319D01*
X522868Y269463D01*
X525153Y270782D01*
X527018Y272648D01*
X528337Y274932D01*
X529020Y277481D01*
Y280119D01*
X528337Y282668D01*
X527018Y284952D01*
X525153Y286818D01*
X522868Y288137D01*
X520319Y288820D01*
D02*
G37*
G36*
X501374Y274958D02*
X499178D01*
X497149Y274118D01*
X495596Y272565D01*
X494756Y270536D01*
Y268340D01*
X495596Y266311D01*
X497149Y264758D01*
X499178Y263918D01*
X501374D01*
X503403Y264758D01*
X504956Y266311D01*
X505796Y268340D01*
Y270536D01*
X504956Y272565D01*
X503403Y274118D01*
X501374Y274958D01*
D02*
G37*
G36*
X520319Y238020D02*
X517681D01*
X515132Y237337D01*
X512848Y236018D01*
X510982Y234152D01*
X509663Y231868D01*
X508980Y229319D01*
Y226681D01*
X509663Y224132D01*
X510982Y221848D01*
X512848Y219982D01*
X515132Y218663D01*
X517681Y217980D01*
X520319D01*
X522868Y218663D01*
X525152Y219982D01*
X527018Y221848D01*
X528337Y224132D01*
X529020Y226681D01*
Y229319D01*
X528337Y231868D01*
X527018Y234152D01*
X525152Y236018D01*
X522868Y237337D01*
X520319Y238020D01*
D02*
G37*
G36*
X217754Y228968D02*
X215558D01*
X213529Y228128D01*
X211976Y226575D01*
X211136Y224546D01*
Y222350D01*
X211976Y220321D01*
X213529Y218768D01*
X215558Y217928D01*
X217754D01*
X219783Y218768D01*
X221336Y220321D01*
X222176Y222350D01*
Y224546D01*
X221336Y226575D01*
X219783Y228128D01*
X217754Y228968D01*
D02*
G37*
G36*
X520319Y212620D02*
X517681D01*
X515132Y211937D01*
X512848Y210618D01*
X510982Y208752D01*
X509663Y206468D01*
X508980Y203919D01*
Y201281D01*
X509663Y198732D01*
X510982Y196448D01*
X512848Y194582D01*
X515132Y193263D01*
X517681Y192580D01*
X520319D01*
X522868Y193263D01*
X525153Y194582D01*
X527018Y196448D01*
X528337Y198732D01*
X529020Y201281D01*
Y203919D01*
X528337Y206468D01*
X527018Y208752D01*
X525153Y210618D01*
X522868Y211937D01*
X520319Y212620D01*
D02*
G37*
G36*
Y187220D02*
X517681D01*
X515132Y186537D01*
X512848Y185218D01*
X510982Y183352D01*
X509663Y181068D01*
X508980Y178519D01*
Y175881D01*
X509663Y173332D01*
X510982Y171048D01*
X512848Y169182D01*
X515132Y167863D01*
X517681Y167180D01*
X520319D01*
X522868Y167863D01*
X525153Y169182D01*
X527018Y171048D01*
X528337Y173332D01*
X529020Y175881D01*
Y178519D01*
X528337Y181068D01*
X527018Y183352D01*
X525153Y185218D01*
X522868Y186537D01*
X520319Y187220D01*
D02*
G37*
G36*
X254504Y200968D02*
X252308D01*
X250279Y200128D01*
X248726Y198575D01*
X247886Y196546D01*
Y194350D01*
X248726Y192321D01*
X249418Y191630D01*
X250060Y190323D01*
X249418Y189016D01*
X248726Y188325D01*
X247886Y186296D01*
Y184100D01*
X248726Y182071D01*
X250279Y180518D01*
X252308Y179678D01*
X254504D01*
X256533Y180518D01*
X258086Y182071D01*
X258926Y184100D01*
Y186296D01*
X258086Y188325D01*
X257394Y189016D01*
X256752Y190323D01*
X257394Y191630D01*
X258086Y192321D01*
X258317Y192879D01*
X304193D01*
X317855Y179217D01*
X318689Y178660D01*
X319672Y178465D01*
X339756D01*
X345117Y173103D01*
X344886Y172546D01*
Y170350D01*
X345726Y168321D01*
X347279Y166768D01*
X349308Y165928D01*
X351504D01*
X353533Y166768D01*
X355086Y168321D01*
X355926Y170350D01*
Y172546D01*
X355086Y174575D01*
X353533Y176128D01*
X351504Y176968D01*
X349308D01*
X348751Y176737D01*
X342637Y182851D01*
X341803Y183408D01*
X340820Y183603D01*
X320736D01*
X316911Y187428D01*
X317740Y189428D01*
X318504D01*
X320533Y190268D01*
X322086Y191821D01*
X322926Y193850D01*
Y196046D01*
X322086Y198075D01*
X320533Y199628D01*
X318504Y200468D01*
X316308D01*
X314279Y199628D01*
X312726Y198075D01*
X311886Y196046D01*
Y195282D01*
X309886Y194453D01*
X307074Y197265D01*
X306241Y197822D01*
X305258Y198017D01*
X258317D01*
X258086Y198575D01*
X256533Y200128D01*
X254504Y200968D01*
D02*
G37*
G36*
X484504Y169468D02*
X482308D01*
X480279Y168628D01*
X478726Y167075D01*
X477886Y165046D01*
Y162850D01*
X478726Y160821D01*
X480279Y159268D01*
X482308Y158428D01*
X484504D01*
X486533Y159268D01*
X488086Y160821D01*
X488926Y162850D01*
Y165046D01*
X488086Y167075D01*
X486533Y168628D01*
X484504Y169468D01*
D02*
G37*
G36*
X504843Y84072D02*
X502468D01*
X500174Y83457D01*
X498117Y82270D01*
X496438Y80590D01*
X495251Y78534D01*
X494636Y76239D01*
Y73864D01*
X495251Y71570D01*
X496438Y69514D01*
X498117Y67834D01*
X500174Y66647D01*
X502468Y66032D01*
X504843D01*
X507137Y66647D01*
X509194Y67834D01*
X510874Y69514D01*
X512061Y71570D01*
X512676Y73864D01*
Y76239D01*
X512061Y78534D01*
X510874Y80590D01*
X509194Y82270D01*
X507137Y83457D01*
X504843Y84072D01*
D02*
G37*
G36*
X126439Y60866D02*
X124541D01*
X122788Y60140D01*
X122547Y59898D01*
X121240Y58948D01*
X119933Y59898D01*
X119692Y60140D01*
X117939Y60866D01*
X116041D01*
X114288Y60140D01*
X114047Y59898D01*
X112740Y58948D01*
X111433Y59898D01*
X111192Y60140D01*
X109439Y60866D01*
X107541D01*
X105788Y60140D01*
X105547Y59898D01*
X104240Y58948D01*
X102933Y59898D01*
X102692Y60140D01*
X100939Y60866D01*
X99041D01*
X97288Y60140D01*
X97047Y59898D01*
X95740Y58948D01*
X94433Y59898D01*
X94192Y60140D01*
X92439Y60866D01*
X90541D01*
X88788Y60140D01*
X88547Y59898D01*
X87240Y58948D01*
X85933Y59898D01*
X85692Y60140D01*
X83939Y60866D01*
X82041D01*
X80288Y60140D01*
X78946Y58798D01*
X78220Y57045D01*
Y55147D01*
X78946Y53394D01*
X80288Y52052D01*
X82041Y51326D01*
X83939D01*
X85692Y52052D01*
X85933Y52294D01*
X87240Y53244D01*
X88547Y52294D01*
X88788Y52052D01*
X90541Y51326D01*
X92439D01*
X94192Y52052D01*
X94433Y52294D01*
X95740Y53244D01*
X97047Y52294D01*
X97288Y52052D01*
X99041Y51326D01*
X100939D01*
X101671Y49478D01*
Y48163D01*
X100873Y47366D01*
X99041D01*
X97288Y46640D01*
X97047Y46398D01*
X95740Y45448D01*
X94433Y46398D01*
X94192Y46640D01*
X92439Y47366D01*
X90541D01*
X88788Y46640D01*
X88547Y46398D01*
X87240Y45448D01*
X85933Y46398D01*
X85692Y46640D01*
X83939Y47366D01*
X82041D01*
X80288Y46640D01*
X78946Y45298D01*
X78220Y43545D01*
Y41647D01*
X78946Y39894D01*
X80288Y38552D01*
X80991Y38261D01*
Y36250D01*
X81186Y35267D01*
X81743Y34433D01*
X85173Y31003D01*
X86007Y30446D01*
X86990Y30251D01*
X121240D01*
X122223Y30446D01*
X123057Y31003D01*
X127317Y35263D01*
X127874Y36097D01*
X128069Y37080D01*
Y38501D01*
X128192Y38552D01*
X129534Y39894D01*
X130260Y41647D01*
Y43545D01*
X129534Y45298D01*
X128192Y46640D01*
X126439Y47366D01*
X124541D01*
X122788Y46640D01*
X122547Y46398D01*
X121240Y45448D01*
X119933Y46398D01*
X119692Y46640D01*
X117939Y47366D01*
X116041D01*
X114288Y46640D01*
X114047Y46398D01*
X112740Y45448D01*
X111433Y46398D01*
X111192Y46640D01*
X109439Y47366D01*
X107541Y47366D01*
X106809Y49214D01*
Y49478D01*
X107541Y51326D01*
X109439D01*
X111192Y52052D01*
X111433Y52294D01*
X112740Y53244D01*
X114047Y52294D01*
X114288Y52052D01*
X116041Y51326D01*
X117939D01*
X119692Y52052D01*
X119933Y52294D01*
X121240Y53244D01*
X122547Y52294D01*
X122788Y52052D01*
X124541Y51326D01*
X126439D01*
X128192Y52052D01*
X129534Y53394D01*
X130260Y55147D01*
Y57045D01*
X129534Y58798D01*
X128192Y60140D01*
X126439Y60866D01*
D02*
G37*
%LPD*%
G36*
X254605Y321281D02*
X237311Y303987D01*
X236754Y304218D01*
X234558D01*
X232529Y303378D01*
X230976Y301825D01*
X230136Y299796D01*
Y297600D01*
X230976Y295571D01*
X232529Y294018D01*
X234558Y293178D01*
X236754D01*
X238783Y294018D01*
X240336Y295571D01*
X241176Y297600D01*
X243136D01*
X243976Y295571D01*
X245529Y294018D01*
X247558Y293178D01*
X249754D01*
X251783Y294018D01*
X253336Y295571D01*
X253824Y296749D01*
X255988D01*
X256476Y295571D01*
X258029Y294018D01*
X260058Y293178D01*
X262254D01*
X264283Y294018D01*
X265836Y295571D01*
X266324Y296749D01*
X268488D01*
X268976Y295571D01*
X270529Y294018D01*
X272558Y293178D01*
X274754D01*
X276783Y294018D01*
X278336Y295571D01*
X279176Y297600D01*
Y299796D01*
X278945Y300354D01*
X285720Y307129D01*
X314340D01*
X315087Y305325D01*
X313768Y304005D01*
X313254Y304218D01*
X311058D01*
X309029Y303378D01*
X307476Y301825D01*
X306636Y299796D01*
X304676D01*
X303836Y301825D01*
X302283Y303378D01*
X300254Y304218D01*
X298058D01*
X296029Y303378D01*
X294476Y301825D01*
X293636Y299796D01*
Y297600D01*
X294476Y295571D01*
X296029Y294018D01*
X298058Y293178D01*
X300254D01*
X300812Y293409D01*
X318087Y276134D01*
Y248763D01*
X316087Y248365D01*
X315586Y249575D01*
X314033Y251128D01*
X312004Y251968D01*
X309808D01*
X307779Y251128D01*
X306226Y249575D01*
X305386Y247546D01*
Y245350D01*
X305471Y245146D01*
X297342Y237017D01*
X267567D01*
X267336Y237575D01*
X265783Y239128D01*
X263754Y239968D01*
X261558D01*
X259529Y239128D01*
X257976Y237575D01*
X257745Y237017D01*
X235970D01*
X202725Y270262D01*
Y298943D01*
X203386Y299478D01*
X205386Y298524D01*
Y297850D01*
X206226Y295821D01*
X207779Y294268D01*
X209808Y293428D01*
X212004D01*
X214033Y294268D01*
X215586Y295821D01*
X216426Y297850D01*
Y300046D01*
X216195Y300604D01*
X238720Y323129D01*
X253840D01*
X254605Y321281D01*
D02*
G37*
G36*
X319976Y295571D02*
X321529Y294018D01*
X323558Y293178D01*
X325754D01*
X327783Y294018D01*
X329336Y295571D01*
X329567Y296129D01*
X339508D01*
X367357Y268280D01*
Y264632D01*
X365357Y263804D01*
X365033Y264128D01*
X363004Y264968D01*
X360808D01*
X358779Y264128D01*
X357226Y262575D01*
X356386Y260546D01*
Y258350D01*
X357226Y256321D01*
X358779Y254768D01*
X360808Y253928D01*
X363004D01*
X365033Y254768D01*
X365357Y255092D01*
X367357Y254264D01*
Y199307D01*
X365357Y198286D01*
X364024Y198838D01*
X361828D01*
X361271Y198607D01*
X323225Y236652D01*
Y277198D01*
X323030Y278181D01*
X322473Y279015D01*
X310062Y291426D01*
X310930Y292952D01*
X311138Y293178D01*
X313254D01*
X315283Y294018D01*
X316836Y295571D01*
X317324Y296749D01*
X319488D01*
X319976Y295571D01*
D02*
G37*
G36*
X338042Y152240D02*
X338019Y151871D01*
X337392Y150240D01*
X279582D01*
X279442Y150267D01*
X267938D01*
X266955Y150072D01*
X266121Y149515D01*
X251124Y134517D01*
X242067D01*
X241836Y135075D01*
X240283Y136628D01*
X238254Y137468D01*
X236058D01*
X234029Y136628D01*
X232476Y135075D01*
X231636Y133046D01*
Y130850D01*
X232476Y128821D01*
X234029Y127268D01*
X236058Y126428D01*
X238254D01*
X240283Y127268D01*
X241836Y128821D01*
X242067Y129379D01*
X252188D01*
X253171Y129574D01*
X254005Y130131D01*
X267892Y144018D01*
X269587Y142885D01*
X269136Y141796D01*
Y139600D01*
X269976Y137571D01*
X270293Y137255D01*
X271466Y135948D01*
X270293Y134641D01*
X269976Y134325D01*
X269136Y132296D01*
Y130100D01*
X269976Y128071D01*
X271529Y126518D01*
X273558Y125678D01*
X275754D01*
X277783Y126518D01*
X279336Y128071D01*
X280176Y130100D01*
Y132296D01*
X279336Y134325D01*
X279019Y134641D01*
X277846Y135948D01*
X279019Y137255D01*
X279336Y137571D01*
X280176Y139600D01*
Y141796D01*
X279636Y143101D01*
X280563Y144889D01*
X280807Y145101D01*
X386120D01*
X388280Y142940D01*
X387148Y141244D01*
X386004Y141718D01*
X383808D01*
X381779Y140878D01*
X380226Y139325D01*
X379386Y137296D01*
Y135100D01*
X380226Y133071D01*
X381779Y131518D01*
X381456Y129487D01*
X372986Y121017D01*
X194966D01*
X192212Y123771D01*
X193345Y125466D01*
X194645Y124928D01*
X196841D01*
X198870Y125768D01*
X200423Y127321D01*
X201263Y129350D01*
Y131546D01*
X201032Y132103D01*
X222057Y153129D01*
X262723D01*
X263706Y153324D01*
X264540Y153881D01*
X271287Y160629D01*
X329653D01*
X338042Y152240D01*
D02*
G37*
%LPC*%
G36*
X244754Y269468D02*
X242558D01*
X240529Y268628D01*
X238976Y267075D01*
X238136Y265046D01*
Y262850D01*
X238976Y260821D01*
X240529Y259268D01*
X242558Y258428D01*
X244754D01*
X246783Y259268D01*
X248336Y260821D01*
X249176Y262850D01*
Y265046D01*
X248336Y267075D01*
X246783Y268628D01*
X244754Y269468D01*
D02*
G37*
%LPD*%
D11*
X108500Y55992D02*
Y56331D01*
X104240Y51732D02*
X108500Y55992D01*
X100000Y42500D02*
Y42859D01*
X104240Y47099D01*
Y51401D01*
X365131Y376533D02*
Y460119D01*
Y376388D02*
Y376533D01*
X388326Y353338D01*
X365057Y376607D02*
X365131Y376533D01*
X373500Y393638D02*
Y459750D01*
X373426Y393638D02*
X413726Y353338D01*
X369350Y385088D02*
Y501900D01*
X369276Y385088D02*
X401026Y353338D01*
X358624Y512626D02*
X369350Y501900D01*
X348023Y477227D02*
X365131Y460119D01*
X427574Y354486D02*
X430130D01*
X459750Y384032D02*
Y452750D01*
X426426Y353338D02*
X427574Y354486D01*
X430130D02*
X459676Y384032D01*
X373500Y459750D02*
X390530Y476780D01*
Y494141D01*
X348023Y477227D02*
Y500477D01*
X105534Y111678D02*
X254530D01*
X65406Y151806D02*
Y203698D01*
Y151806D02*
X105534Y111678D01*
X254530D02*
X263850Y102358D01*
X372277D01*
X384906Y129304D02*
Y136198D01*
X193902Y118448D02*
X374050D01*
X384906Y129304D01*
X381609Y111690D02*
X462938D01*
X372277Y102358D02*
X381609Y111690D01*
X381777Y106743D02*
X449965D01*
X373871Y98838D02*
X381777Y106743D01*
X261487Y98838D02*
X373871D01*
X374534Y84173D02*
X383656Y75052D01*
X159035Y84173D02*
X374534D01*
X74855Y101118D02*
X142090D01*
X159035Y84173D01*
X449965Y106743D02*
X473716Y82992D01*
X490877D01*
X401616Y75052D02*
X423656D01*
X160008Y88178D02*
X388490D01*
X401616Y75052D01*
X50906Y135023D02*
Y204448D01*
X490877Y82992D02*
X500897Y93012D01*
X462938Y111690D02*
X481616Y93012D01*
X188743Y123606D02*
X193902Y118448D01*
X188743Y123606D02*
Y133997D01*
X87291Y255032D02*
X144176D01*
X40866Y135107D02*
Y208607D01*
X87291Y255032D01*
X40866Y135107D02*
X74855Y101118D01*
X77519Y240282D02*
X144176D01*
X252167Y108158D02*
X261487Y98838D01*
X143548Y104638D02*
X160008Y88178D01*
X500897Y93012D02*
X521616D01*
X44386Y136565D02*
Y207149D01*
Y136565D02*
X76313Y104638D01*
X143548D01*
X44386Y207149D02*
X77519Y240282D01*
X77771Y108158D02*
X252167D01*
X50906Y135023D02*
X77771Y108158D01*
X401804Y510696D02*
Y530712D01*
Y510696D02*
X459750Y452750D01*
X380214Y504457D02*
Y530712D01*
Y504457D02*
X390530Y494141D01*
X358624Y512626D02*
Y530712D01*
X337034Y511466D02*
Y530712D01*
Y511466D02*
X348023Y500477D01*
X293785Y487717D02*
X293854Y487786D01*
X293785Y417473D02*
Y487717D01*
X272195D02*
X272264Y487786D01*
X272195Y413747D02*
Y487717D01*
X250605D02*
X250674Y487786D01*
X250605Y400323D02*
Y487717D01*
X229015D02*
X229084Y487786D01*
X229015Y413467D02*
Y487717D01*
X200156Y269198D02*
Y300948D01*
X233406Y334198D01*
X200156Y269198D02*
X234906Y234448D01*
X210906Y298948D02*
X237656Y325698D01*
X211728Y205698D02*
X266406D01*
X235656Y298698D02*
X258656Y321698D01*
X234906Y234448D02*
X262656D01*
X248656Y298698D02*
X267656Y317698D01*
X228941Y413467D02*
X265102Y377306D01*
X250531Y400323D02*
X267931Y382923D01*
X263906Y393890D02*
Y405532D01*
X237656Y325698D02*
X347513D01*
X267656Y317698D02*
X344200D01*
X276156Y313698D02*
X342543D01*
X299156Y298698D02*
X320656Y277198D01*
X310406Y246448D02*
X310906D01*
X284656Y309698D02*
X340886D01*
X312156Y298698D02*
X319156Y305698D01*
X320656Y235588D02*
Y277198D01*
X319156Y305698D02*
X339229D01*
X324656Y298698D02*
X340572D01*
X339229Y305698D02*
X373990Y270937D01*
X320656Y235588D02*
X362926Y193318D01*
X340572Y298698D02*
X369926Y269344D01*
X263906Y393890D02*
X270358Y387438D01*
X263906Y405532D02*
X272121Y413747D01*
X270358Y387438D02*
X276376D01*
X267931Y382923D02*
X284561D01*
X265102Y377306D02*
X291644D01*
X233406Y334198D02*
X327906D01*
X276376Y387438D02*
X286726Y397788D01*
X274026D02*
X293711Y417473D01*
X284561Y382923D02*
X299426Y397788D01*
X291644Y377306D02*
X312126Y397788D01*
X261156Y298698D02*
X276156Y313698D01*
X273656Y298698D02*
X284656Y309698D01*
X262656Y234448D02*
X298406D01*
X310406Y246448D01*
X258656Y321698D02*
X345857D01*
X387184Y147670D02*
X398156Y136698D01*
X367075Y153970D02*
X374552Y161448D01*
X393406Y154448D02*
Y162847D01*
X374552Y161448D02*
X384906D01*
X396156Y185512D02*
X408656Y198012D01*
X405906Y174948D02*
X406156Y174698D01*
X416406D02*
X424656Y182948D01*
X405906Y174948D02*
Y187847D01*
X416406Y185198D02*
Y186822D01*
X418906Y189322D01*
X405906Y187847D02*
X413253Y195194D01*
X378166Y180618D02*
Y272418D01*
X385786Y188238D02*
Y270455D01*
X369926Y189856D02*
Y269344D01*
X373990Y188263D02*
Y270937D01*
X393406Y195858D02*
Y268492D01*
X340886Y309698D02*
X378166Y272418D01*
X342543Y313698D02*
X385786Y270455D01*
X344200Y317698D02*
X393406Y268492D01*
X345857Y321698D02*
X401026Y266528D01*
X347513Y325698D02*
X408656Y264555D01*
X380481Y311653D02*
X413253Y278881D01*
X376671Y311653D02*
X380481D01*
X375626Y312698D02*
X376671Y311653D01*
X350226Y352068D02*
X418906Y283388D01*
Y189322D02*
Y283388D01*
X424656Y282988D02*
X458231Y316563D01*
Y316563D01*
X479766Y338098D01*
X362926Y165378D02*
Y182856D01*
X365826Y158378D02*
X375896Y168448D01*
X387805D02*
X393406Y162847D01*
X375896Y168448D02*
X387805D01*
X370546Y172998D02*
Y184819D01*
X396156Y174698D02*
Y185512D01*
X362926Y182856D02*
X369926Y189856D01*
X370546Y184819D02*
X373990Y188263D01*
X401026Y203478D02*
Y266528D01*
X424656Y182948D02*
Y282988D01*
X413253Y195194D02*
Y278881D01*
X408656Y198012D02*
Y264555D01*
X83000Y42500D02*
X83560Y41940D01*
Y36250D02*
Y41940D01*
Y36250D02*
X86990Y32820D01*
X121240D01*
X125500Y37080D01*
Y42500D01*
X78656Y159448D02*
X171906D01*
X180406Y150948D01*
X188743Y133997D02*
X205406Y150660D01*
X237156Y131948D02*
X252188D01*
X267938Y147698D01*
X190406Y150698D02*
Y184377D01*
X211728Y205698D01*
X205406Y150660D02*
Y188698D01*
X195743Y130448D02*
X220993Y155698D01*
X262723D01*
X253382Y162698D02*
X262308D01*
X266980Y167370D01*
X262723Y155698D02*
X270223Y163198D01*
X267938Y147698D02*
X279442D01*
X279470Y147670D01*
X253406Y195448D02*
X305258D01*
X342862Y158378D02*
X365826D01*
X266980Y167370D02*
X333870D01*
X270223Y163198D02*
X330717D01*
X305258Y195448D02*
X319672Y181034D01*
X340820D01*
X279470Y147670D02*
X387184D01*
X330717Y163198D02*
X339945Y153970D01*
X333870Y167370D02*
X342862Y158378D01*
X340820Y181034D02*
X350406Y171448D01*
X339945Y153970D02*
X367075D01*
D53*
X99990Y42596D02*
D03*
X108490Y56096D02*
D03*
Y42596D02*
D03*
X99990Y56096D02*
D03*
X74490Y42596D02*
D03*
X82990D02*
D03*
X91490D02*
D03*
X116990D02*
D03*
X125490D02*
D03*
X133990D02*
D03*
Y56096D02*
D03*
X125490D02*
D03*
X116990D02*
D03*
X91490D02*
D03*
X82990D02*
D03*
X74490D02*
D03*
D54*
X423656Y75052D02*
D03*
X441616Y93012D02*
D03*
X503656Y75052D02*
D03*
X521616Y93012D02*
D03*
X463656Y75052D02*
D03*
X481616Y93012D02*
D03*
X383656Y75052D02*
D03*
X401616Y93012D02*
D03*
D55*
X147490Y46296D02*
D03*
X60990D02*
D03*
D56*
X147490Y12496D02*
D03*
X60990D02*
D03*
D57*
X164314Y530712D02*
D03*
X185904D02*
D03*
X207494D02*
D03*
X229084D02*
D03*
X250674D02*
D03*
X272264D02*
D03*
X293854D02*
D03*
X315444D02*
D03*
X337034D02*
D03*
X358624D02*
D03*
X380214D02*
D03*
X401804D02*
D03*
X164314Y487786D02*
D03*
X185904D02*
D03*
X207494D02*
D03*
X229084D02*
D03*
X250674D02*
D03*
X272264D02*
D03*
X293854D02*
D03*
X315444D02*
D03*
X337034D02*
D03*
X358624D02*
D03*
X380214D02*
D03*
X401804D02*
D03*
D58*
X48998Y509249D02*
D03*
X517120D02*
D03*
X143050Y428300D02*
D03*
X423050D02*
D03*
D59*
X519000Y304200D02*
D03*
D60*
Y278800D02*
D03*
X519000Y228000D02*
D03*
X519000Y202600D02*
D03*
Y177200D02*
D03*
X519000Y253400D02*
D03*
D61*
X144176Y240282D02*
D03*
Y255032D02*
D03*
X50906Y204448D02*
D03*
X65406Y203698D02*
D03*
X74686Y120464D02*
D03*
X23230Y37166D02*
D03*
Y112166D02*
D03*
Y87166D02*
D03*
Y62166D02*
D03*
X33230Y12166D02*
D03*
X78230D02*
D03*
X42230Y29916D02*
D03*
X39666Y415770D02*
D03*
X64666Y415770D02*
D03*
X108230Y12166D02*
D03*
X133230D02*
D03*
X158230D02*
D03*
X258230D02*
D03*
X183230D02*
D03*
X208230D02*
D03*
X233230D02*
D03*
X241906Y54448D02*
D03*
X256406Y94698D02*
D03*
X179156Y97448D02*
D03*
X178906Y118198D02*
D03*
X195743Y130448D02*
D03*
X274656Y131198D02*
D03*
X237156Y131948D02*
D03*
X274656Y140698D02*
D03*
X144906Y145448D02*
D03*
X190406Y150698D02*
D03*
X23230Y137166D02*
D03*
Y162166D02*
D03*
Y187166D02*
D03*
Y312166D02*
D03*
Y212166D02*
D03*
Y237166D02*
D03*
Y287166D02*
D03*
Y262166D02*
D03*
X78656Y159448D02*
D03*
X145656Y209448D02*
D03*
X180406Y150948D02*
D03*
X253382Y162698D02*
D03*
X253406Y174198D02*
D03*
Y185198D02*
D03*
X205406Y188698D02*
D03*
X253406Y195448D02*
D03*
X266406Y205698D02*
D03*
X216656Y223448D02*
D03*
X262656Y234448D02*
D03*
X216656Y237948D02*
D03*
X243656Y263948D02*
D03*
X273906D02*
D03*
X261156Y298698D02*
D03*
X248656D02*
D03*
X235656D02*
D03*
X273656D02*
D03*
X210906Y298948D02*
D03*
X210526Y353338D02*
D03*
X274026Y397788D02*
D03*
X358230Y12166D02*
D03*
X283230D02*
D03*
X350406Y171448D02*
D03*
X301964Y155006D02*
D03*
X358870Y129260D02*
D03*
X362926Y165378D02*
D03*
X347460Y140670D02*
D03*
X308230Y12166D02*
D03*
X333230D02*
D03*
X290906Y217698D02*
D03*
X320576Y108878D02*
D03*
X317406Y194948D02*
D03*
X362926Y193318D02*
D03*
X366906Y136948D02*
D03*
X370546Y172998D02*
D03*
X383230Y12166D02*
D03*
X408230D02*
D03*
X433230D02*
D03*
X458230D02*
D03*
X483230D02*
D03*
X508230D02*
D03*
X533230D02*
D03*
X542730Y37166D02*
D03*
Y62166D02*
D03*
Y87166D02*
D03*
X374870Y129260D02*
D03*
X469981Y132873D02*
D03*
X384906Y136198D02*
D03*
X398156Y136698D02*
D03*
X542730Y112166D02*
D03*
X401026Y203478D02*
D03*
X542730Y187166D02*
D03*
X489906Y234698D02*
D03*
X286726Y397788D02*
D03*
X299156Y298698D02*
D03*
X299426Y397788D02*
D03*
X305406Y263698D02*
D03*
X310906Y246448D02*
D03*
X312126Y397788D02*
D03*
X312156Y298698D02*
D03*
X324656D02*
D03*
X327906Y334198D02*
D03*
X334656Y246948D02*
D03*
X542730Y212166D02*
D03*
X361906Y259448D02*
D03*
X542730Y237166D02*
D03*
X500276Y269438D02*
D03*
X542730Y262166D02*
D03*
Y287166D02*
D03*
X375626Y312698D02*
D03*
X542730Y312166D02*
D03*
X479766Y338098D02*
D03*
X350226Y352068D02*
D03*
X388326Y353338D02*
D03*
X378166Y180618D02*
D03*
X393406Y154448D02*
D03*
X384906Y161448D02*
D03*
X542730Y137166D02*
D03*
X483406Y163948D02*
D03*
X396156Y174698D02*
D03*
X406156D02*
D03*
X416406D02*
D03*
Y185198D02*
D03*
X433406Y185698D02*
D03*
X542730Y162166D02*
D03*
X385786Y188238D02*
D03*
X393406Y195858D02*
D03*
X413726Y353338D02*
D03*
X426426D02*
D03*
X401026Y353338D02*
D03*
X375656Y353340D02*
D03*
M02*
