G04*
G04 #@! TF.GenerationSoftware,Altium Limited,Altium Designer,25.8.1 (18)*
G04*
G04 Layer_Color=32896*
%FSLAX44Y44*%
%MOMM*%
G71*
G04*
G04 #@! TF.SameCoordinates,23F0502B-7B20-4CC9-97BB-DA64BA6573D7*
G04*
G04*
G04 #@! TF.FilePolarity,Positive*
G04*
G01*
G75*
%ADD10C,0.4000*%
%ADD11C,0.2000*%
G36*
X311768Y266903D02*
X312271Y266851D01*
X312722Y266782D01*
X312930Y266747D01*
X313104Y266713D01*
X313277Y266678D01*
X313433Y266643D01*
X313555Y266609D01*
X313659Y266574D01*
X313746Y266539D01*
X313815Y266522D01*
X313850Y266504D01*
X313867D01*
X314266Y266331D01*
X314613Y266140D01*
X314908Y265949D01*
X315151Y265758D01*
X315342Y265585D01*
X315481Y265446D01*
X315567Y265359D01*
X315602Y265342D01*
Y265325D01*
X315810Y265030D01*
X315984Y264700D01*
X316122Y264371D01*
X316244Y264058D01*
X316331Y263781D01*
X316365Y263659D01*
X316400Y263555D01*
X316417Y263468D01*
X316435Y263399D01*
X316452Y263364D01*
Y263347D01*
X314527Y263087D01*
X314457Y263312D01*
X314388Y263521D01*
X314249Y263867D01*
X314075Y264180D01*
X313919Y264405D01*
X313780Y264579D01*
X313659Y264718D01*
X313590Y264787D01*
X313555Y264804D01*
X313277Y264960D01*
X312948Y265082D01*
X312618Y265169D01*
X312289Y265238D01*
X311976Y265273D01*
X311855D01*
X311733Y265290D01*
X311508D01*
X310987Y265255D01*
X310536Y265186D01*
X310155Y265082D01*
X309842Y264960D01*
X309600Y264822D01*
X309513Y264770D01*
X309426Y264718D01*
X309357Y264683D01*
X309322Y264648D01*
X309287Y264613D01*
X309097Y264405D01*
X308958Y264145D01*
X308854Y263867D01*
X308784Y263590D01*
X308750Y263330D01*
X308715Y263122D01*
Y263052D01*
Y262983D01*
Y262948D01*
Y262931D01*
Y262879D01*
Y262809D01*
Y262636D01*
X308732Y262566D01*
Y262497D01*
Y262445D01*
Y262428D01*
X308958Y262358D01*
X309201Y262289D01*
X309478Y262220D01*
X309756Y262150D01*
X310328Y262029D01*
X310901Y261924D01*
X311178Y261890D01*
X311421Y261855D01*
X311647Y261821D01*
X311855Y261786D01*
X312011Y261768D01*
X312132Y261751D01*
X312202Y261734D01*
X312236D01*
X312653Y261682D01*
X313000Y261630D01*
X313312Y261578D01*
X313555Y261543D01*
X313746Y261491D01*
X313885Y261474D01*
X313954Y261439D01*
X313989D01*
X314266Y261352D01*
X314544Y261248D01*
X314787Y261144D01*
X314995Y261040D01*
X315168Y260953D01*
X315290Y260866D01*
X315376Y260814D01*
X315411Y260797D01*
X315637Y260623D01*
X315828Y260450D01*
X316001Y260259D01*
X316140Y260086D01*
X316261Y259912D01*
X316348Y259791D01*
X316400Y259704D01*
X316417Y259669D01*
X316539Y259392D01*
X316643Y259132D01*
X316712Y258871D01*
X316747Y258628D01*
X316782Y258420D01*
X316799Y258247D01*
Y258143D01*
Y258125D01*
Y258108D01*
X316782Y257848D01*
X316747Y257588D01*
X316712Y257345D01*
X316643Y257119D01*
X316469Y256703D01*
X316279Y256373D01*
X316192Y256217D01*
X316105Y256096D01*
X316018Y255974D01*
X315932Y255887D01*
X315862Y255818D01*
X315828Y255766D01*
X315793Y255731D01*
X315776Y255714D01*
X315567Y255558D01*
X315359Y255419D01*
X315116Y255280D01*
X314891Y255176D01*
X314405Y255020D01*
X313919Y254916D01*
X313711Y254864D01*
X313503Y254846D01*
X313312Y254829D01*
X313156Y254812D01*
X313034Y254794D01*
X312844D01*
X312410Y254812D01*
X312011Y254846D01*
X311647Y254916D01*
X311317Y254985D01*
X311057Y255055D01*
X310935Y255089D01*
X310849Y255124D01*
X310779Y255141D01*
X310727Y255159D01*
X310693Y255176D01*
X310675D01*
X310294Y255350D01*
X309912Y255540D01*
X309565Y255766D01*
X309235Y255991D01*
X308958Y256182D01*
X308854Y256286D01*
X308750Y256356D01*
X308663Y256425D01*
X308611Y256477D01*
X308576Y256495D01*
X308559Y256512D01*
X308524Y256200D01*
X308472Y255922D01*
X308403Y255679D01*
X308333Y255471D01*
X308281Y255298D01*
X308229Y255159D01*
X308194Y255089D01*
X308177Y255055D01*
X306130D01*
X306251Y255298D01*
X306355Y255558D01*
X306442Y255783D01*
X306512Y255991D01*
X306564Y256182D01*
X306598Y256321D01*
X306616Y256408D01*
Y256443D01*
X306633Y256599D01*
X306650Y256807D01*
X306668Y257032D01*
X306685Y257293D01*
X306702Y257570D01*
Y257865D01*
X306720Y258455D01*
Y258732D01*
X306737Y259010D01*
Y259253D01*
Y259478D01*
Y259652D01*
Y259791D01*
Y259877D01*
Y259912D01*
Y262532D01*
Y262775D01*
Y262983D01*
X306754Y263174D01*
Y263364D01*
X306772Y263677D01*
X306789Y263920D01*
X306807Y264110D01*
X306824Y264232D01*
X306841Y264319D01*
Y264336D01*
X306911Y264631D01*
X307015Y264891D01*
X307119Y265117D01*
X307223Y265307D01*
X307310Y265464D01*
X307396Y265585D01*
X307448Y265654D01*
X307466Y265672D01*
X307657Y265863D01*
X307865Y266036D01*
X308090Y266192D01*
X308316Y266314D01*
X308524Y266418D01*
X308680Y266487D01*
X308750Y266522D01*
X308802Y266539D01*
X308819Y266556D01*
X308836D01*
X309201Y266678D01*
X309600Y266765D01*
X309999Y266834D01*
X310380Y266869D01*
X310710Y266903D01*
X310866D01*
X310987Y266921D01*
X311230D01*
X311768Y266903D01*
D02*
G37*
G36*
X290933Y269523D02*
Y266661D01*
X292390D01*
Y265134D01*
X290933D01*
Y258438D01*
Y258125D01*
X290916Y257830D01*
Y257570D01*
X290898Y257327D01*
X290881Y257119D01*
X290863Y256928D01*
X290846Y256755D01*
X290812Y256616D01*
X290794Y256495D01*
X290777Y256390D01*
X290759Y256304D01*
X290742Y256234D01*
X290725Y256148D01*
X290707Y256113D01*
X290603Y255922D01*
X290482Y255749D01*
X290343Y255592D01*
X290204Y255471D01*
X290065Y255367D01*
X289961Y255298D01*
X289892Y255245D01*
X289875Y255228D01*
X289632Y255124D01*
X289372Y255037D01*
X289094Y254985D01*
X288816Y254933D01*
X288574Y254916D01*
X288383Y254898D01*
X288209D01*
X287689Y254933D01*
X287446Y254951D01*
X287220Y254985D01*
X287012Y255020D01*
X286856Y255037D01*
X286752Y255072D01*
X286717D01*
X286978Y256807D01*
X287168Y256789D01*
X287342Y256772D01*
X287498Y256755D01*
X287619D01*
X287724Y256737D01*
X288018D01*
X288157Y256755D01*
X288261Y256789D01*
X288365Y256807D01*
X288435Y256842D01*
X288487Y256859D01*
X288521Y256876D01*
X288539D01*
X288678Y256998D01*
X288782Y257119D01*
X288851Y257223D01*
X288869Y257241D01*
Y257258D01*
X288903Y257379D01*
X288920Y257535D01*
X288955Y257709D01*
Y257882D01*
X288973Y258056D01*
Y258195D01*
Y258299D01*
Y258316D01*
Y258333D01*
Y265134D01*
X286978D01*
Y266661D01*
X288973D01*
Y270703D01*
X290933Y269523D01*
D02*
G37*
G36*
X455082Y261821D02*
Y261352D01*
X455047Y260918D01*
X455029Y260502D01*
X454977Y260120D01*
X454943Y259756D01*
X454891Y259426D01*
X454839Y259132D01*
X454769Y258854D01*
X454717Y258611D01*
X454665Y258403D01*
X454613Y258212D01*
X454561Y258073D01*
X454526Y257952D01*
X454492Y257865D01*
X454474Y257813D01*
Y257796D01*
X454353Y257535D01*
X454214Y257275D01*
X453902Y256824D01*
X453572Y256443D01*
X453225Y256130D01*
X453069Y255991D01*
X452930Y255887D01*
X452792Y255783D01*
X452670Y255697D01*
X452583Y255644D01*
X452514Y255592D01*
X452462Y255575D01*
X452445Y255558D01*
X452167Y255419D01*
X451872Y255315D01*
X451265Y255124D01*
X450640Y254985D01*
X450051Y254899D01*
X449790Y254864D01*
X449530Y254829D01*
X449322Y254812D01*
X449131D01*
X448975Y254795D01*
X448750D01*
X448333Y254812D01*
X447934Y254829D01*
X447552Y254881D01*
X447188Y254933D01*
X446858Y255003D01*
X446546Y255072D01*
X446269Y255159D01*
X446026Y255245D01*
X445783Y255315D01*
X445592Y255402D01*
X445419Y255471D01*
X445280Y255540D01*
X445158Y255592D01*
X445089Y255644D01*
X445037Y255662D01*
X445020Y255679D01*
X444759Y255853D01*
X444516Y256026D01*
X444308Y256217D01*
X444100Y256408D01*
X443927Y256599D01*
X443753Y256807D01*
X443614Y256980D01*
X443493Y257171D01*
X443285Y257483D01*
X443215Y257622D01*
X443146Y257744D01*
X443094Y257848D01*
X443059Y257917D01*
X443042Y257969D01*
Y257987D01*
X442938Y258264D01*
X442851Y258559D01*
X442712Y259184D01*
X442626Y259825D01*
X442556Y260433D01*
X442539Y260728D01*
X442522Y260988D01*
X442504Y261213D01*
X442487Y261422D01*
Y261595D01*
Y261716D01*
Y261786D01*
Y261821D01*
Y271067D01*
X444603D01*
Y261821D01*
X444621Y261283D01*
X444638Y260780D01*
X444690Y260329D01*
X444759Y259912D01*
X444829Y259548D01*
X444916Y259218D01*
X445020Y258923D01*
X445106Y258663D01*
X445193Y258438D01*
X445297Y258247D01*
X445384Y258091D01*
X445453Y257969D01*
X445523Y257882D01*
X445557Y257813D01*
X445592Y257778D01*
X445610Y257761D01*
X445818Y257570D01*
X446043Y257414D01*
X446286Y257275D01*
X446546Y257154D01*
X446824Y257050D01*
X447101Y256963D01*
X447639Y256842D01*
X447899Y256789D01*
X448142Y256755D01*
X448368Y256737D01*
X448559Y256720D01*
X448715Y256703D01*
X448940D01*
X449426Y256720D01*
X449877Y256789D01*
X450276Y256876D01*
X450623Y256963D01*
X450762Y257015D01*
X450883Y257067D01*
X451005Y257102D01*
X451091Y257136D01*
X451161Y257171D01*
X451213Y257206D01*
X451248Y257223D01*
X451265D01*
X451595Y257449D01*
X451872Y257692D01*
X452098Y257934D01*
X452271Y258195D01*
X452410Y258403D01*
X452514Y258594D01*
X452549Y258663D01*
X452566Y258715D01*
X452583Y258732D01*
Y258750D01*
X452653Y258941D01*
X452705Y259166D01*
X452809Y259652D01*
X452878Y260155D01*
X452913Y260658D01*
X452930Y260884D01*
X452948Y261109D01*
Y261300D01*
X452965Y261474D01*
Y261630D01*
Y261734D01*
Y261803D01*
Y261821D01*
Y271067D01*
X455082D01*
Y261821D01*
D02*
G37*
G36*
X395872Y271327D02*
X396306Y271310D01*
X396722Y271258D01*
X397104Y271189D01*
X397486Y271119D01*
X397832Y271032D01*
X398162Y270946D01*
X398457Y270859D01*
X398717Y270755D01*
X398960Y270668D01*
X399168Y270581D01*
X399342Y270512D01*
X399481Y270443D01*
X399585Y270390D01*
X399654Y270373D01*
X399671Y270356D01*
X400001Y270165D01*
X400313Y269939D01*
X400608Y269714D01*
X400868Y269471D01*
X401129Y269211D01*
X401354Y268968D01*
X401562Y268725D01*
X401753Y268482D01*
X401909Y268239D01*
X402066Y268031D01*
X402187Y267840D01*
X402291Y267667D01*
X402360Y267528D01*
X402412Y267424D01*
X402447Y267355D01*
X402464Y267337D01*
X402638Y266956D01*
X402777Y266574D01*
X402916Y266192D01*
X403020Y265811D01*
X403193Y265082D01*
X403262Y264735D01*
X403315Y264405D01*
X403349Y264110D01*
X403384Y263833D01*
X403401Y263590D01*
X403419Y263382D01*
X403436Y263208D01*
Y263087D01*
Y263018D01*
Y262983D01*
X403419Y262549D01*
X403401Y262115D01*
X403349Y261716D01*
X403280Y261317D01*
X403210Y260953D01*
X403124Y260589D01*
X403037Y260259D01*
X402950Y259964D01*
X402864Y259687D01*
X402777Y259444D01*
X402690Y259236D01*
X402621Y259045D01*
X402551Y258906D01*
X402499Y258802D01*
X402482Y258732D01*
X402464Y258715D01*
X402274Y258368D01*
X402048Y258039D01*
X401823Y257744D01*
X401597Y257449D01*
X401354Y257188D01*
X401111Y256963D01*
X400868Y256737D01*
X400643Y256547D01*
X400417Y256373D01*
X400209Y256217D01*
X400018Y256096D01*
X399862Y255991D01*
X399741Y255905D01*
X399637Y255853D01*
X399567Y255818D01*
X399550Y255801D01*
X399186Y255627D01*
X398804Y255471D01*
X398440Y255332D01*
X398075Y255228D01*
X397694Y255124D01*
X397347Y255037D01*
X397000Y254968D01*
X396688Y254916D01*
X396393Y254881D01*
X396115Y254846D01*
X395872Y254829D01*
X395664Y254812D01*
X395490Y254795D01*
X395265D01*
X394623Y254829D01*
X393999Y254899D01*
X393426Y254985D01*
X393166Y255055D01*
X392906Y255107D01*
X392680Y255159D01*
X392489Y255228D01*
X392299Y255280D01*
X392160Y255315D01*
X392021Y255367D01*
X391934Y255384D01*
X391882Y255419D01*
X391865D01*
X391240Y255679D01*
X390650Y255974D01*
X390113Y256286D01*
X389852Y256443D01*
X389627Y256581D01*
X389419Y256720D01*
X389228Y256859D01*
X389054Y256963D01*
X388916Y257067D01*
X388794Y257154D01*
X388707Y257223D01*
X388655Y257258D01*
X388638Y257275D01*
Y263226D01*
X395421D01*
Y261335D01*
X390720D01*
Y258333D01*
X390997Y258108D01*
X391310Y257917D01*
X391639Y257726D01*
X391969Y257553D01*
X392264Y257414D01*
X392385Y257345D01*
X392489Y257293D01*
X392593Y257258D01*
X392663Y257223D01*
X392697Y257206D01*
X392715D01*
X393201Y257032D01*
X393686Y256911D01*
X394137Y256807D01*
X394536Y256755D01*
X394727Y256737D01*
X394883Y256720D01*
X395022Y256703D01*
X395144D01*
X395248Y256685D01*
X395386D01*
X395976Y256720D01*
X396531Y256789D01*
X397034Y256911D01*
X397277Y256963D01*
X397486Y257032D01*
X397676Y257102D01*
X397850Y257154D01*
X398006Y257223D01*
X398145Y257275D01*
X398249Y257310D01*
X398318Y257345D01*
X398370Y257379D01*
X398388D01*
X398648Y257518D01*
X398891Y257674D01*
X399307Y258004D01*
X399671Y258368D01*
X399984Y258715D01*
X400209Y259027D01*
X400313Y259166D01*
X400383Y259270D01*
X400452Y259374D01*
X400487Y259444D01*
X400504Y259496D01*
X400522Y259513D01*
X400764Y260086D01*
X400938Y260693D01*
X401077Y261283D01*
X401163Y261855D01*
X401181Y262115D01*
X401215Y262358D01*
X401233Y262567D01*
Y262757D01*
X401250Y262896D01*
Y263018D01*
Y263087D01*
Y263104D01*
X401215Y263746D01*
X401146Y264353D01*
X401059Y264891D01*
X401007Y265151D01*
X400938Y265377D01*
X400886Y265585D01*
X400834Y265776D01*
X400782Y265932D01*
X400730Y266071D01*
X400695Y266192D01*
X400660Y266262D01*
X400643Y266314D01*
Y266331D01*
X400504Y266643D01*
X400348Y266938D01*
X400174Y267216D01*
X400018Y267441D01*
X399880Y267632D01*
X399758Y267788D01*
X399689Y267875D01*
X399654Y267910D01*
X399394Y268170D01*
X399099Y268396D01*
X398821Y268604D01*
X398544Y268777D01*
X398301Y268916D01*
X398110Y269003D01*
X398041Y269037D01*
X397989Y269072D01*
X397954Y269089D01*
X397937D01*
X397520Y269245D01*
X397104Y269350D01*
X396670Y269436D01*
X396288Y269488D01*
X396098Y269506D01*
X395942Y269523D01*
X395785D01*
X395664Y269540D01*
X395421D01*
X394987Y269523D01*
X394571Y269471D01*
X394207Y269402D01*
X393877Y269332D01*
X393617Y269245D01*
X393495Y269211D01*
X393409Y269176D01*
X393339Y269141D01*
X393287Y269124D01*
X393253Y269107D01*
X393235D01*
X392888Y268933D01*
X392576Y268760D01*
X392316Y268569D01*
X392090Y268396D01*
X391934Y268222D01*
X391813Y268100D01*
X391726Y268014D01*
X391709Y267979D01*
X391518Y267701D01*
X391344Y267389D01*
X391188Y267077D01*
X391049Y266765D01*
X390945Y266487D01*
X390911Y266366D01*
X390876Y266279D01*
X390841Y266192D01*
X390824Y266123D01*
X390807Y266088D01*
Y266071D01*
X388881Y266591D01*
X389054Y267164D01*
X389245Y267684D01*
X389349Y267910D01*
X389453Y268135D01*
X389540Y268326D01*
X389644Y268500D01*
X389731Y268673D01*
X389818Y268812D01*
X389904Y268933D01*
X389956Y269037D01*
X390026Y269107D01*
X390061Y269159D01*
X390078Y269193D01*
X390095Y269211D01*
X390425Y269575D01*
X390772Y269887D01*
X391136Y270148D01*
X391500Y270373D01*
X391813Y270547D01*
X391951Y270616D01*
X392073Y270668D01*
X392160Y270720D01*
X392229Y270755D01*
X392281Y270772D01*
X392299D01*
X392836Y270963D01*
X393374Y271102D01*
X393912Y271206D01*
X394398Y271275D01*
X394623Y271293D01*
X394814Y271310D01*
X394987Y271327D01*
X395144Y271345D01*
X395438D01*
X395872Y271327D01*
D02*
G37*
G36*
X280732Y266903D02*
X281166Y266851D01*
X281548Y266765D01*
X281929Y266661D01*
X282276Y266539D01*
X282606Y266400D01*
X282901Y266262D01*
X283161Y266105D01*
X283404Y265949D01*
X283612Y265811D01*
X283803Y265672D01*
X283942Y265550D01*
X284063Y265446D01*
X284150Y265359D01*
X284202Y265307D01*
X284219Y265290D01*
X284479Y264978D01*
X284705Y264631D01*
X284913Y264267D01*
X285087Y263902D01*
X285225Y263521D01*
X285347Y263139D01*
X285451Y262775D01*
X285520Y262410D01*
X285590Y262081D01*
X285624Y261751D01*
X285659Y261474D01*
X285694Y261231D01*
Y261022D01*
X285711Y260866D01*
Y260780D01*
Y260745D01*
X285694Y260224D01*
X285642Y259739D01*
X285572Y259288D01*
X285486Y258871D01*
X285364Y258472D01*
X285243Y258108D01*
X285104Y257778D01*
X284965Y257483D01*
X284844Y257223D01*
X284705Y256998D01*
X284583Y256807D01*
X284462Y256651D01*
X284375Y256512D01*
X284306Y256425D01*
X284254Y256373D01*
X284237Y256356D01*
X283942Y256078D01*
X283629Y255835D01*
X283317Y255627D01*
X282970Y255454D01*
X282640Y255298D01*
X282293Y255176D01*
X281964Y255072D01*
X281652Y254985D01*
X281357Y254933D01*
X281079Y254881D01*
X280836Y254846D01*
X280611Y254812D01*
X280437D01*
X280299Y254794D01*
X280194D01*
X279830Y254812D01*
X279466Y254829D01*
X279136Y254881D01*
X278824Y254951D01*
X278529Y255020D01*
X278269Y255107D01*
X278008Y255193D01*
X277783Y255280D01*
X277575Y255367D01*
X277401Y255454D01*
X277245Y255540D01*
X277106Y255610D01*
X277020Y255679D01*
X276933Y255731D01*
X276898Y255749D01*
X276881Y255766D01*
X276638Y255957D01*
X276430Y256165D01*
X276239Y256390D01*
X276048Y256616D01*
X275736Y257084D01*
X275493Y257518D01*
X275406Y257726D01*
X275319Y257917D01*
X275250Y258091D01*
X275198Y258247D01*
X275146Y258368D01*
X275111Y258455D01*
X275094Y258524D01*
Y258542D01*
X277141Y258802D01*
X277315Y258368D01*
X277523Y257987D01*
X277731Y257657D01*
X277922Y257414D01*
X278095Y257206D01*
X278234Y257067D01*
X278321Y256998D01*
X278338Y256963D01*
X278356D01*
X278650Y256772D01*
X278963Y256651D01*
X279275Y256547D01*
X279552Y256477D01*
X279813Y256443D01*
X280021Y256425D01*
X280090Y256408D01*
X280194D01*
X280455Y256425D01*
X280715Y256460D01*
X280958Y256495D01*
X281183Y256564D01*
X281600Y256720D01*
X281947Y256911D01*
X282103Y256998D01*
X282241Y257102D01*
X282346Y257188D01*
X282450Y257258D01*
X282519Y257327D01*
X282571Y257379D01*
X282606Y257397D01*
X282623Y257414D01*
X282797Y257622D01*
X282953Y257830D01*
X283074Y258073D01*
X283196Y258299D01*
X283386Y258802D01*
X283525Y259270D01*
X283577Y259496D01*
X283612Y259704D01*
X283647Y259877D01*
X283664Y260051D01*
X283681Y260172D01*
X283699Y260277D01*
Y260346D01*
Y260363D01*
X275042D01*
X275025Y260589D01*
Y260762D01*
Y260849D01*
Y260884D01*
X275042Y261404D01*
X275094Y261890D01*
X275163Y262358D01*
X275250Y262792D01*
X275372Y263191D01*
X275493Y263555D01*
X275632Y263885D01*
X275753Y264180D01*
X275892Y264440D01*
X276031Y264683D01*
X276152Y264874D01*
X276274Y265030D01*
X276360Y265169D01*
X276430Y265255D01*
X276482Y265307D01*
X276499Y265325D01*
X276777Y265602D01*
X277089Y265845D01*
X277401Y266071D01*
X277714Y266244D01*
X278026Y266400D01*
X278356Y266539D01*
X278650Y266643D01*
X278945Y266730D01*
X279223Y266782D01*
X279483Y266834D01*
X279709Y266869D01*
X279917Y266903D01*
X280073D01*
X280194Y266921D01*
X280299D01*
X280732Y266903D01*
D02*
G37*
G36*
X424132Y255055D02*
X418043D01*
X417488Y255072D01*
X416985Y255089D01*
X416551Y255141D01*
X416343Y255159D01*
X416170Y255194D01*
X416013Y255211D01*
X415875Y255228D01*
X415753Y255263D01*
X415649Y255280D01*
X415562Y255298D01*
X415510D01*
X415476Y255315D01*
X415458D01*
X415077Y255419D01*
X414730Y255540D01*
X414435Y255679D01*
X414192Y255801D01*
X413984Y255922D01*
X413828Y256009D01*
X413741Y256078D01*
X413706Y256096D01*
X413446Y256321D01*
X413220Y256564D01*
X413012Y256807D01*
X412856Y257050D01*
X412717Y257258D01*
X412613Y257431D01*
X412579Y257501D01*
X412544Y257553D01*
X412527Y257570D01*
Y257588D01*
X412370Y257952D01*
X412249Y258333D01*
X412162Y258680D01*
X412093Y259010D01*
X412058Y259288D01*
Y259392D01*
X412041Y259496D01*
Y259583D01*
Y259635D01*
Y259669D01*
Y259687D01*
Y259947D01*
X412075Y260190D01*
X412162Y260658D01*
X412301Y261075D01*
X412440Y261422D01*
X412509Y261578D01*
X412579Y261716D01*
X412648Y261838D01*
X412717Y261942D01*
X412769Y262011D01*
X412804Y262063D01*
X412821Y262098D01*
X412839Y262115D01*
X413151Y262480D01*
X413515Y262775D01*
X413880Y263035D01*
X414244Y263226D01*
X414556Y263382D01*
X414695Y263434D01*
X414816Y263486D01*
X414921Y263521D01*
X414990Y263555D01*
X415042Y263573D01*
X415059D01*
X414660Y263798D01*
X414331Y264041D01*
X414036Y264284D01*
X413810Y264510D01*
X413619Y264718D01*
X413498Y264874D01*
X413446Y264943D01*
X413411Y264995D01*
X413394Y265013D01*
Y265030D01*
X413203Y265377D01*
X413064Y265707D01*
X412960Y266036D01*
X412891Y266331D01*
X412856Y266591D01*
X412821Y266782D01*
Y266852D01*
Y266903D01*
Y266938D01*
Y266956D01*
X412856Y267372D01*
X412925Y267754D01*
X413030Y268118D01*
X413134Y268430D01*
X413255Y268690D01*
X413307Y268812D01*
X413359Y268899D01*
X413411Y268968D01*
X413429Y269020D01*
X413463Y269055D01*
Y269072D01*
X413723Y269419D01*
X414001Y269731D01*
X414279Y269991D01*
X414556Y270200D01*
X414816Y270356D01*
X415007Y270477D01*
X415094Y270512D01*
X415146Y270547D01*
X415181Y270564D01*
X415198D01*
X415649Y270737D01*
X416118Y270859D01*
X416621Y270946D01*
X417072Y270998D01*
X417297Y271032D01*
X417488Y271050D01*
X417679D01*
X417835Y271067D01*
X424132D01*
Y255055D01*
D02*
G37*
G36*
X385515D02*
X383399D01*
Y261560D01*
X379305Y261560D01*
X378680Y261578D01*
X378125Y261630D01*
X377604Y261699D01*
X377119Y261786D01*
X376702Y261890D01*
X376303Y262011D01*
X375974Y262133D01*
X375662Y262271D01*
X375401Y262393D01*
X375176Y262514D01*
X374985Y262636D01*
X374846Y262740D01*
X374725Y262844D01*
X374655Y262913D01*
X374603Y262948D01*
X374586Y262965D01*
X374360Y263243D01*
X374152Y263521D01*
X373979Y263815D01*
X373840Y264110D01*
X373701Y264405D01*
X373597Y264683D01*
X373510Y264960D01*
X373441Y265221D01*
X373389Y265481D01*
X373354Y265707D01*
X373320Y265897D01*
X373302Y266071D01*
X373285Y266227D01*
Y266331D01*
Y266400D01*
Y266418D01*
X373302Y266851D01*
X373354Y267268D01*
X373441Y267632D01*
X373528Y267962D01*
X373632Y268222D01*
X373666Y268343D01*
X373701Y268430D01*
X373736Y268500D01*
X373771Y268552D01*
X373788Y268586D01*
Y268604D01*
X373979Y268968D01*
X374187Y269263D01*
X374412Y269540D01*
X374603Y269749D01*
X374794Y269922D01*
X374933Y270044D01*
X375037Y270130D01*
X375054Y270148D01*
X375072D01*
X375384Y270338D01*
X375714Y270495D01*
X376043Y270633D01*
X376356Y270737D01*
X376633Y270824D01*
X376754Y270842D01*
X376859Y270876D01*
X376928Y270894D01*
X376997D01*
X377032Y270911D01*
X377049D01*
X377206Y270946D01*
X377396Y270963D01*
X377778Y270998D01*
X378177Y271032D01*
X378576Y271050D01*
X378923Y271067D01*
X385515Y271067D01*
Y255055D01*
D02*
G37*
G36*
X370232Y255055D02*
X368115D01*
Y271067D01*
X370232D01*
Y255055D01*
D02*
G37*
G36*
X364472D02*
X358383D01*
X357828Y255072D01*
X357324Y255089D01*
X356891Y255141D01*
X356683Y255159D01*
X356509Y255193D01*
X356353Y255211D01*
X356214Y255228D01*
X356093Y255263D01*
X355989Y255280D01*
X355902Y255298D01*
X355850D01*
X355815Y255315D01*
X355798D01*
X355416Y255419D01*
X355069Y255540D01*
X354774Y255679D01*
X354531Y255801D01*
X354323Y255922D01*
X354167Y256009D01*
X354080Y256078D01*
X354046Y256096D01*
X353785Y256321D01*
X353560Y256564D01*
X353352Y256807D01*
X353196Y257050D01*
X353057Y257258D01*
X352953Y257431D01*
X352918Y257501D01*
X352883Y257553D01*
X352866Y257570D01*
Y257588D01*
X352710Y257952D01*
X352588Y258333D01*
X352502Y258680D01*
X352432Y259010D01*
X352398Y259288D01*
Y259392D01*
X352380Y259496D01*
Y259583D01*
Y259635D01*
Y259669D01*
Y259687D01*
Y259947D01*
X352415Y260190D01*
X352502Y260658D01*
X352640Y261075D01*
X352779Y261421D01*
X352849Y261578D01*
X352918Y261716D01*
X352987Y261838D01*
X353057Y261942D01*
X353109Y262011D01*
X353144Y262063D01*
X353161Y262098D01*
X353178Y262115D01*
X353490Y262480D01*
X353855Y262775D01*
X354219Y263035D01*
X354584Y263226D01*
X354896Y263382D01*
X355034Y263434D01*
X355156Y263486D01*
X355260Y263521D01*
X355329Y263555D01*
X355382Y263573D01*
X355399D01*
X355000Y263798D01*
X354670Y264041D01*
X354375Y264284D01*
X354150Y264509D01*
X353959Y264718D01*
X353838Y264874D01*
X353785Y264943D01*
X353751Y264995D01*
X353733Y265012D01*
Y265030D01*
X353543Y265377D01*
X353404Y265707D01*
X353300Y266036D01*
X353230Y266331D01*
X353196Y266591D01*
X353161Y266782D01*
Y266851D01*
Y266903D01*
Y266938D01*
Y266956D01*
X353196Y267372D01*
X353265Y267754D01*
X353369Y268118D01*
X353473Y268430D01*
X353595Y268690D01*
X353647Y268812D01*
X353699Y268899D01*
X353751Y268968D01*
X353768Y269020D01*
X353803Y269055D01*
Y269072D01*
X354063Y269419D01*
X354341Y269731D01*
X354618Y269991D01*
X354896Y270200D01*
X355156Y270356D01*
X355347Y270477D01*
X355434Y270512D01*
X355486Y270547D01*
X355520Y270564D01*
X355538D01*
X355989Y270737D01*
X356457Y270859D01*
X356960Y270946D01*
X357411Y270998D01*
X357637Y271032D01*
X357828Y271050D01*
X358018D01*
X358175Y271067D01*
X364472D01*
Y255055D01*
D02*
G37*
G36*
X344990D02*
X342752D01*
X341017Y259895D01*
X334286D01*
X332430Y255055D01*
X330018D01*
X336576Y271067D01*
X338866D01*
X344990Y255055D01*
D02*
G37*
G36*
X268606Y266903D02*
X268849Y266851D01*
X269057Y266799D01*
X269248Y266730D01*
X269387Y266643D01*
X269508Y266591D01*
X269577Y266539D01*
X269612Y266522D01*
X269716Y266435D01*
X269837Y266331D01*
X270046Y266105D01*
X270254Y265828D01*
X270445Y265550D01*
X270618Y265307D01*
X270740Y265082D01*
X270792Y265012D01*
X270826Y264943D01*
X270861Y264908D01*
Y266661D01*
X272631D01*
Y255055D01*
X270670D01*
Y261126D01*
X270653Y261578D01*
X270618Y262011D01*
X270566Y262393D01*
X270514Y262740D01*
X270462Y263018D01*
X270427Y263139D01*
X270410Y263243D01*
X270393Y263312D01*
X270375Y263364D01*
X270358Y263399D01*
Y263417D01*
X270254Y263659D01*
X270150Y263885D01*
X270028Y264058D01*
X269907Y264214D01*
X269803Y264336D01*
X269716Y264423D01*
X269647Y264475D01*
X269629Y264492D01*
X269421Y264631D01*
X269230Y264718D01*
X269039Y264787D01*
X268849Y264839D01*
X268692Y264874D01*
X268571Y264891D01*
X268467D01*
X268189Y264874D01*
X267929Y264822D01*
X267686Y264752D01*
X267478Y264683D01*
X267287Y264596D01*
X267148Y264527D01*
X267062Y264475D01*
X267027Y264457D01*
X266333Y266279D01*
X266715Y266487D01*
X267097Y266643D01*
X267426Y266765D01*
X267738Y266834D01*
X267999Y266886D01*
X268103Y266903D01*
X268189D01*
X268259Y266921D01*
X268363D01*
X268606Y266903D01*
D02*
G37*
G36*
X434021Y271327D02*
X434576Y271258D01*
X435062Y271171D01*
X435287Y271119D01*
X435495Y271067D01*
X435686Y271015D01*
X435860Y270963D01*
X436016Y270911D01*
X436137Y270876D01*
X436224Y270842D01*
X436311Y270807D01*
X436345Y270790D01*
X436363D01*
X436831Y270564D01*
X437230Y270304D01*
X437577Y270044D01*
X437855Y269783D01*
X438080Y269540D01*
X438254Y269350D01*
X438306Y269280D01*
X438341Y269228D01*
X438375Y269193D01*
Y269176D01*
X438601Y268777D01*
X438774Y268378D01*
X438878Y268014D01*
X438965Y267667D01*
X439017Y267355D01*
X439035Y267233D01*
Y267129D01*
X439052Y267042D01*
Y266973D01*
Y266938D01*
Y266921D01*
X439035Y266522D01*
X438965Y266140D01*
X438878Y265793D01*
X438774Y265498D01*
X438670Y265255D01*
X438583Y265065D01*
X438549Y264995D01*
X438514Y264943D01*
X438497Y264926D01*
Y264909D01*
X438271Y264596D01*
X437994Y264301D01*
X437716Y264058D01*
X437421Y263833D01*
X437178Y263659D01*
X436970Y263538D01*
X436883Y263503D01*
X436831Y263469D01*
X436797Y263434D01*
X436779D01*
X436606Y263347D01*
X436398Y263260D01*
X436172Y263174D01*
X435929Y263087D01*
X435426Y262913D01*
X434906Y262757D01*
X434663Y262688D01*
X434455Y262619D01*
X434246Y262567D01*
X434056Y262514D01*
X433917Y262480D01*
X433795Y262445D01*
X433726Y262428D01*
X433709D01*
X433310Y262341D01*
X432945Y262237D01*
X432633Y262167D01*
X432338Y262081D01*
X432078Y262011D01*
X431835Y261959D01*
X431644Y261890D01*
X431453Y261838D01*
X431315Y261803D01*
X431176Y261751D01*
X431072Y261716D01*
X431002Y261699D01*
X430933Y261682D01*
X430898Y261664D01*
X430863Y261647D01*
X430517Y261491D01*
X430222Y261335D01*
X429961Y261179D01*
X429771Y261040D01*
X429614Y260901D01*
X429510Y260797D01*
X429441Y260728D01*
X429424Y260710D01*
X429268Y260502D01*
X429163Y260277D01*
X429077Y260051D01*
X429025Y259843D01*
X428990Y259669D01*
X428973Y259513D01*
Y259426D01*
Y259409D01*
Y259392D01*
X428990Y259132D01*
X429042Y258871D01*
X429129Y258646D01*
X429198Y258438D01*
X429285Y258264D01*
X429372Y258125D01*
X429424Y258056D01*
X429441Y258021D01*
X429632Y257796D01*
X429840Y257605D01*
X430083Y257431D01*
X430308Y257293D01*
X430517Y257188D01*
X430673Y257102D01*
X430742Y257067D01*
X430794Y257050D01*
X430812Y257032D01*
X430829D01*
X431176Y256911D01*
X431540Y256824D01*
X431904Y256772D01*
X432234Y256737D01*
X432512Y256703D01*
X432633D01*
X432737Y256685D01*
X432945D01*
X433448Y256703D01*
X433899Y256755D01*
X434333Y256842D01*
X434697Y256928D01*
X434854Y256963D01*
X434992Y256998D01*
X435114Y257050D01*
X435218Y257084D01*
X435305Y257119D01*
X435357Y257136D01*
X435391Y257154D01*
X435409D01*
X435790Y257345D01*
X436120Y257553D01*
X436398Y257744D01*
X436623Y257952D01*
X436797Y258125D01*
X436918Y258264D01*
X437005Y258351D01*
X437022Y258386D01*
X437196Y258698D01*
X437334Y259027D01*
X437439Y259357D01*
X437525Y259669D01*
X437595Y259964D01*
X437612Y260068D01*
X437629Y260172D01*
X437647Y260259D01*
X437664Y260329D01*
Y260363D01*
Y260381D01*
X439659Y260207D01*
X439642Y259912D01*
X439607Y259617D01*
X439503Y259079D01*
X439364Y258576D01*
X439295Y258351D01*
X439208Y258160D01*
X439139Y257969D01*
X439052Y257796D01*
X438983Y257657D01*
X438913Y257535D01*
X438861Y257431D01*
X438826Y257362D01*
X438809Y257327D01*
X438792Y257310D01*
X438462Y256859D01*
X438080Y256477D01*
X437699Y256148D01*
X437334Y255887D01*
X437005Y255679D01*
X436866Y255610D01*
X436744Y255540D01*
X436641Y255488D01*
X436571Y255454D01*
X436519Y255419D01*
X436502D01*
X435912Y255211D01*
X435305Y255055D01*
X434697Y254951D01*
X434125Y254881D01*
X433847Y254846D01*
X433605Y254829D01*
X433396Y254812D01*
X433205D01*
X433049Y254795D01*
X432841D01*
X432217Y254829D01*
X431644Y254899D01*
X431124Y254985D01*
X430881Y255055D01*
X430673Y255107D01*
X430465Y255159D01*
X430291Y255228D01*
X430135Y255280D01*
X430013Y255315D01*
X429909Y255367D01*
X429840Y255384D01*
X429788Y255419D01*
X429771D01*
X429285Y255679D01*
X428868Y255957D01*
X428504Y256252D01*
X428209Y256529D01*
X427966Y256789D01*
X427810Y256980D01*
X427741Y257067D01*
X427706Y257119D01*
X427671Y257154D01*
Y257171D01*
X427533Y257379D01*
X427429Y257605D01*
X427238Y258021D01*
X427099Y258420D01*
X427012Y258785D01*
X426960Y259114D01*
X426943Y259236D01*
Y259357D01*
X426926Y259444D01*
Y259513D01*
Y259548D01*
Y259565D01*
X426960Y260034D01*
X427029Y260467D01*
X427134Y260849D01*
X427255Y261179D01*
X427394Y261456D01*
X427446Y261578D01*
X427498Y261664D01*
X427533Y261734D01*
X427567Y261786D01*
X427602Y261821D01*
Y261838D01*
X427741Y262011D01*
X427880Y262185D01*
X428209Y262514D01*
X428539Y262792D01*
X428886Y263018D01*
X429181Y263208D01*
X429319Y263295D01*
X429441Y263347D01*
X429528Y263399D01*
X429597Y263434D01*
X429649Y263469D01*
X429666D01*
X429857Y263555D01*
X430100Y263642D01*
X430343Y263729D01*
X430621Y263815D01*
X431211Y263972D01*
X431800Y264128D01*
X432078Y264214D01*
X432338Y264267D01*
X432581Y264336D01*
X432789Y264371D01*
X432963Y264423D01*
X433084Y264457D01*
X433171Y264475D01*
X433205D01*
X433674Y264579D01*
X434090Y264700D01*
X434455Y264804D01*
X434801Y264909D01*
X435097Y265013D01*
X435357Y265099D01*
X435582Y265186D01*
X435773Y265273D01*
X435929Y265359D01*
X436068Y265429D01*
X436172Y265481D01*
X436259Y265533D01*
X436328Y265585D01*
X436363Y265620D01*
X436398Y265637D01*
X436606Y265863D01*
X436744Y266088D01*
X436849Y266331D01*
X436935Y266556D01*
X436970Y266747D01*
X436987Y266903D01*
X437005Y267008D01*
Y267025D01*
Y267042D01*
X436987Y267233D01*
X436970Y267407D01*
X436866Y267719D01*
X436727Y268014D01*
X436571Y268257D01*
X436415Y268465D01*
X436276Y268621D01*
X436172Y268708D01*
X436155Y268742D01*
X436137D01*
X435964Y268864D01*
X435756Y268985D01*
X435322Y269159D01*
X434871Y269280D01*
X434403Y269367D01*
X434194Y269402D01*
X433986Y269419D01*
X433813Y269436D01*
X433657D01*
X433518Y269454D01*
X433015D01*
X432702Y269419D01*
X432407Y269384D01*
X432130Y269332D01*
X431887Y269280D01*
X431661Y269211D01*
X431453Y269141D01*
X431263Y269072D01*
X431106Y268985D01*
X430968Y268916D01*
X430846Y268846D01*
X430742Y268794D01*
X430673Y268742D01*
X430603Y268708D01*
X430586Y268690D01*
X430569Y268673D01*
X430395Y268517D01*
X430239Y268361D01*
X429996Y267996D01*
X429788Y267615D01*
X429649Y267250D01*
X429545Y266921D01*
X429510Y266782D01*
X429476Y266643D01*
X429458Y266539D01*
Y266470D01*
X429441Y266418D01*
Y266400D01*
X427411Y266556D01*
X427463Y267077D01*
X427567Y267545D01*
X427689Y267979D01*
X427828Y268343D01*
X427914Y268500D01*
X427966Y268656D01*
X428036Y268777D01*
X428088Y268881D01*
X428140Y268968D01*
X428175Y269020D01*
X428192Y269055D01*
X428209Y269072D01*
X428504Y269471D01*
X428834Y269801D01*
X429181Y270096D01*
X429528Y270338D01*
X429823Y270512D01*
X429961Y270581D01*
X430065Y270651D01*
X430152Y270703D01*
X430239Y270720D01*
X430274Y270755D01*
X430291D01*
X430812Y270946D01*
X431349Y271102D01*
X431887Y271206D01*
X432373Y271275D01*
X432598Y271293D01*
X432789Y271310D01*
X432980Y271327D01*
X433136Y271345D01*
X433431D01*
X434021Y271327D01*
D02*
G37*
G36*
X321205Y265307D02*
X321414Y265568D01*
X321639Y265793D01*
X321865Y265984D01*
X322073Y266157D01*
X322264Y266296D01*
X322403Y266383D01*
X322507Y266452D01*
X322524Y266470D01*
X322541D01*
X322854Y266626D01*
X323183Y266730D01*
X323495Y266817D01*
X323790Y266869D01*
X324033Y266903D01*
X324241Y266921D01*
X324675D01*
X324935Y266886D01*
X325421Y266799D01*
X325855Y266678D01*
X326236Y266539D01*
X326410Y266470D01*
X326549Y266400D01*
X326688Y266331D01*
X326792Y266279D01*
X326878Y266227D01*
X326948Y266192D01*
X326982Y266175D01*
X327000Y266157D01*
X327416Y265845D01*
X327763Y265498D01*
X328058Y265151D01*
X328301Y264787D01*
X328492Y264475D01*
X328561Y264336D01*
X328631Y264232D01*
X328665Y264128D01*
X328700Y264058D01*
X328735Y264006D01*
Y263989D01*
X328926Y263451D01*
X329064Y262896D01*
X329168Y262376D01*
X329238Y261890D01*
X329255Y261664D01*
X329272Y261456D01*
X329290Y261283D01*
Y261126D01*
X329307Y261005D01*
Y260918D01*
Y260849D01*
Y260832D01*
X329272Y260190D01*
X329203Y259600D01*
X329168Y259322D01*
X329116Y259062D01*
X329047Y258819D01*
X328995Y258594D01*
X328943Y258403D01*
X328873Y258212D01*
X328821Y258056D01*
X328787Y257934D01*
X328735Y257830D01*
X328717Y257761D01*
X328683Y257709D01*
Y257692D01*
X328422Y257206D01*
X328128Y256772D01*
X327832Y256408D01*
X327538Y256113D01*
X327277Y255870D01*
X327173Y255783D01*
X327069Y255697D01*
X326982Y255644D01*
X326930Y255592D01*
X326896Y255575D01*
X326878Y255558D01*
X326653Y255419D01*
X326427Y255315D01*
X325994Y255124D01*
X325560Y254985D01*
X325161Y254898D01*
X324987Y254864D01*
X324831Y254829D01*
X324692Y254812D01*
X324571D01*
X324467Y254794D01*
X324328D01*
X323929Y254812D01*
X323565Y254864D01*
X323235Y254951D01*
X322906Y255072D01*
X322611Y255193D01*
X322351Y255332D01*
X322108Y255488D01*
X321882Y255662D01*
X321691Y255818D01*
X321535Y255974D01*
X321396Y256113D01*
X321275Y256252D01*
X321188Y256356D01*
X321119Y256443D01*
X321084Y256495D01*
X321067Y256512D01*
Y255055D01*
X319245D01*
Y271067D01*
X321205D01*
Y265307D01*
D02*
G37*
G36*
X298965Y266903D02*
X299347Y266851D01*
X299676Y266782D01*
X299954Y266695D01*
X300180Y266609D01*
X300353Y266539D01*
X300457Y266487D01*
X300474Y266470D01*
X300492D01*
X300787Y266279D01*
X301047Y266071D01*
X301290Y265845D01*
X301498Y265637D01*
X301672Y265446D01*
X301810Y265273D01*
X301880Y265169D01*
X301914Y265151D01*
Y266661D01*
X303701D01*
Y250613D01*
X301741D01*
Y256252D01*
X301550Y256026D01*
X301342Y255818D01*
X301134Y255627D01*
X300926Y255488D01*
X300752Y255367D01*
X300596Y255263D01*
X300509Y255211D01*
X300474Y255193D01*
X300180Y255055D01*
X299867Y254968D01*
X299572Y254898D01*
X299295Y254846D01*
X299052Y254812D01*
X298878Y254794D01*
X298705D01*
X298445Y254812D01*
X298202Y254829D01*
X297733Y254916D01*
X297300Y255037D01*
X296918Y255176D01*
X296745Y255245D01*
X296588Y255298D01*
X296467Y255367D01*
X296346Y255419D01*
X296259Y255471D01*
X296189Y255506D01*
X296155Y255540D01*
X296137D01*
X295704Y255853D01*
X295339Y256200D01*
X295010Y256564D01*
X294750Y256928D01*
X294541Y257241D01*
X294472Y257379D01*
X294403Y257501D01*
X294350Y257588D01*
X294316Y257657D01*
X294281Y257709D01*
Y257726D01*
X294073Y258281D01*
X293917Y258837D01*
X293795Y259374D01*
X293726Y259860D01*
X293691Y260086D01*
X293674Y260294D01*
X293657Y260485D01*
Y260641D01*
X293639Y260762D01*
Y260849D01*
Y260918D01*
Y260936D01*
X293657Y261543D01*
X293726Y262115D01*
X293830Y262636D01*
X293882Y262861D01*
X293934Y263087D01*
X293986Y263278D01*
X294038Y263468D01*
X294090Y263625D01*
X294142Y263746D01*
X294177Y263850D01*
X294212Y263920D01*
X294229Y263972D01*
Y263989D01*
X294472Y264475D01*
X294732Y264908D01*
X295027Y265273D01*
X295305Y265585D01*
X295548Y265828D01*
X295756Y266001D01*
X295842Y266053D01*
X295895Y266105D01*
X295929Y266140D01*
X295947D01*
X296155Y266279D01*
X296380Y266400D01*
X296831Y266591D01*
X297265Y266730D01*
X297681Y266817D01*
X297872Y266851D01*
X298028Y266886D01*
X298185Y266903D01*
X298323D01*
X298427Y266921D01*
X298566D01*
X298965Y266903D01*
D02*
G37*
%LPC*%
G36*
X308732Y260884D02*
X308715D01*
X308732Y260155D01*
X308750Y259704D01*
X308784Y259305D01*
X308836Y258958D01*
X308888Y258680D01*
X308940Y258472D01*
X308992Y258316D01*
X309027Y258229D01*
X309044Y258195D01*
X309218Y257882D01*
X309426Y257622D01*
X309634Y257379D01*
X309842Y257188D01*
X310051Y257032D01*
X310207Y256911D01*
X310311Y256842D01*
X310328Y256824D01*
X310346D01*
X310693Y256668D01*
X311040Y256547D01*
X311369Y256460D01*
X311699Y256408D01*
X311959Y256373D01*
X312080Y256356D01*
X312185Y256338D01*
X312375D01*
X312774Y256356D01*
X313121Y256425D01*
X313433Y256512D01*
X313676Y256599D01*
X313867Y256703D01*
X314006Y256772D01*
X314075Y256842D01*
X314110Y256859D01*
X314301Y257067D01*
X314457Y257275D01*
X314561Y257501D01*
X314631Y257709D01*
X314665Y257882D01*
X314683Y258039D01*
X314700Y258125D01*
Y258160D01*
X314683Y258351D01*
X314665Y258524D01*
X314613Y258680D01*
X314561Y258819D01*
X314527Y258941D01*
X314474Y259027D01*
X314457Y259079D01*
X314440Y259097D01*
X314318Y259253D01*
X314197Y259374D01*
X314075Y259478D01*
X313937Y259583D01*
X313832Y259652D01*
X313746Y259704D01*
X313676Y259721D01*
X313659Y259739D01*
X313433Y259825D01*
X313173Y259895D01*
X312896Y259964D01*
X312618Y260016D01*
X312358Y260068D01*
X312132Y260103D01*
X312063Y260120D01*
X311994Y260138D01*
X311942D01*
X311543Y260190D01*
X311178Y260259D01*
X310849Y260311D01*
X310536Y260381D01*
X310242Y260450D01*
X309981Y260502D01*
X309738Y260571D01*
X309513Y260623D01*
X309339Y260676D01*
X309166Y260728D01*
X309027Y260762D01*
X308923Y260814D01*
X308836Y260849D01*
X308767Y260866D01*
X308732Y260884D01*
D02*
G37*
G36*
X280437Y265307D02*
X280299D01*
X280021Y265290D01*
X279761Y265255D01*
X279518Y265203D01*
X279292Y265134D01*
X278876Y264943D01*
X278685Y264839D01*
X278512Y264735D01*
X278373Y264631D01*
X278234Y264527D01*
X278113Y264423D01*
X278026Y264336D01*
X277957Y264267D01*
X277887Y264214D01*
X277870Y264180D01*
X277852Y264163D01*
X277644Y263867D01*
X277471Y263521D01*
X277349Y263156D01*
X277245Y262792D01*
X277176Y262480D01*
X277159Y262341D01*
X277141Y262220D01*
X277124Y262115D01*
X277106Y262046D01*
Y261994D01*
Y261977D01*
X283595D01*
X283560Y262254D01*
X283525Y262514D01*
X283404Y262983D01*
X283230Y263399D01*
X283144Y263590D01*
X283057Y263746D01*
X282970Y263902D01*
X282883Y264024D01*
X282797Y264128D01*
X282727Y264232D01*
X282675Y264301D01*
X282623Y264353D01*
X282606Y264371D01*
X282588Y264388D01*
X282415Y264544D01*
X282224Y264700D01*
X282033Y264822D01*
X281842Y264926D01*
X281444Y265082D01*
X281096Y265186D01*
X280767Y265255D01*
X280645Y265273D01*
X280524Y265290D01*
X280437Y265307D01*
D02*
G37*
G36*
X422016Y269176D02*
X418512D01*
X418217Y269159D01*
X417956D01*
X417714Y269141D01*
X417488Y269124D01*
X417297Y269107D01*
X417106Y269089D01*
X416950Y269072D01*
X416829Y269037D01*
X416707Y269020D01*
X416603Y269003D01*
X416534Y268985D01*
X416465Y268968D01*
X416430D01*
X416395Y268951D01*
X416135Y268846D01*
X415927Y268725D01*
X415736Y268586D01*
X415580Y268447D01*
X415458Y268326D01*
X415372Y268222D01*
X415320Y268153D01*
X415302Y268118D01*
X415163Y267892D01*
X415077Y267649D01*
X415007Y267407D01*
X414955Y267181D01*
X414921Y266990D01*
X414903Y266852D01*
Y266747D01*
Y266730D01*
Y266713D01*
X414921Y266400D01*
X414973Y266140D01*
X415042Y265897D01*
X415111Y265689D01*
X415181Y265533D01*
X415250Y265412D01*
X415302Y265342D01*
X415320Y265308D01*
X415493Y265117D01*
X415684Y264943D01*
X415892Y264804D01*
X416083Y264700D01*
X416256Y264613D01*
X416395Y264562D01*
X416499Y264527D01*
X416516Y264510D01*
X416534D01*
X416655Y264475D01*
X416794Y264457D01*
X417106Y264405D01*
X417453Y264371D01*
X417783Y264353D01*
X418078D01*
X418217Y264336D01*
X422016D01*
Y269176D01*
D02*
G37*
G36*
Y262445D02*
X418321D01*
X417783Y262428D01*
X417315Y262410D01*
X417106Y262376D01*
X416916Y262358D01*
X416742Y262341D01*
X416569Y262306D01*
X416430Y262289D01*
X416308Y262254D01*
X416222Y262237D01*
X416135Y262220D01*
X416065Y262202D01*
X416013Y262185D01*
X415996Y262167D01*
X415979D01*
X415684Y262046D01*
X415441Y261907D01*
X415215Y261768D01*
X415025Y261612D01*
X414886Y261474D01*
X414782Y261352D01*
X414712Y261283D01*
X414695Y261248D01*
X414539Y260988D01*
X414417Y260728D01*
X414348Y260467D01*
X414279Y260224D01*
X414244Y259999D01*
X414227Y259843D01*
Y259773D01*
Y259721D01*
Y259704D01*
Y259687D01*
X414244Y259409D01*
X414279Y259149D01*
X414331Y258923D01*
X414383Y258732D01*
X414452Y258559D01*
X414504Y258438D01*
X414539Y258368D01*
X414556Y258333D01*
X414678Y258125D01*
X414816Y257952D01*
X414955Y257796D01*
X415077Y257674D01*
X415198Y257570D01*
X415285Y257501D01*
X415354Y257466D01*
X415372Y257449D01*
X415562Y257345D01*
X415771Y257258D01*
X415961Y257171D01*
X416152Y257119D01*
X416326Y257067D01*
X416465Y257032D01*
X416551Y257015D01*
X416586D01*
X416759Y256998D01*
X416985Y256980D01*
X417228Y256963D01*
X417453D01*
X417679Y256946D01*
X422016D01*
Y262445D01*
D02*
G37*
G36*
X383399Y269176D02*
X378802Y269176D01*
X378593Y269159D01*
X378385D01*
X378212Y269141D01*
X378038Y269124D01*
X377899Y269107D01*
X377778D01*
X377570Y269072D01*
X377431Y269037D01*
X377344Y269020D01*
X377327D01*
X377032Y268916D01*
X376772Y268777D01*
X376546Y268621D01*
X376338Y268465D01*
X376199Y268326D01*
X376078Y268205D01*
X376008Y268118D01*
X375991Y268083D01*
X375818Y267806D01*
X375696Y267511D01*
X375592Y267233D01*
X375540Y266956D01*
X375505Y266730D01*
X375471Y266539D01*
Y266470D01*
Y266418D01*
Y266383D01*
Y266366D01*
X375488Y266105D01*
X375505Y265880D01*
X375610Y265446D01*
X375748Y265082D01*
X375904Y264770D01*
X376060Y264527D01*
X376199Y264353D01*
X376251Y264301D01*
X376303Y264249D01*
X376321Y264232D01*
X376338Y264214D01*
X376512Y264076D01*
X376720Y263972D01*
X376928Y263867D01*
X377154Y263781D01*
X377639Y263642D01*
X378125Y263555D01*
X378350Y263521D01*
X378576Y263486D01*
X378767Y263468D01*
X378940D01*
X379079Y263451D01*
X383399Y263451D01*
Y269176D01*
D02*
G37*
G36*
X362355Y269176D02*
X358851D01*
X358556Y269159D01*
X358296D01*
X358053Y269141D01*
X357828Y269124D01*
X357637Y269107D01*
X357446Y269089D01*
X357290Y269072D01*
X357168Y269037D01*
X357047Y269020D01*
X356943Y269003D01*
X356873Y268985D01*
X356804Y268968D01*
X356769D01*
X356735Y268951D01*
X356474Y268846D01*
X356266Y268725D01*
X356075Y268586D01*
X355919Y268447D01*
X355798Y268326D01*
X355711Y268222D01*
X355659Y268153D01*
X355642Y268118D01*
X355503Y267892D01*
X355416Y267649D01*
X355347Y267407D01*
X355295Y267181D01*
X355260Y266990D01*
X355243Y266851D01*
Y266747D01*
Y266730D01*
Y266713D01*
X355260Y266400D01*
X355312Y266140D01*
X355382Y265897D01*
X355451Y265689D01*
X355520Y265533D01*
X355590Y265411D01*
X355642Y265342D01*
X355659Y265307D01*
X355832Y265117D01*
X356023Y264943D01*
X356231Y264804D01*
X356422Y264700D01*
X356596Y264613D01*
X356735Y264562D01*
X356839Y264527D01*
X356856Y264509D01*
X356873D01*
X356995Y264475D01*
X357134Y264457D01*
X357446Y264405D01*
X357793Y264371D01*
X358122Y264353D01*
X358417D01*
X358556Y264336D01*
X362355D01*
Y269176D01*
D02*
G37*
G36*
Y262445D02*
X358660D01*
X358122Y262428D01*
X357654Y262410D01*
X357446Y262376D01*
X357255Y262358D01*
X357082Y262341D01*
X356908Y262306D01*
X356769Y262289D01*
X356648Y262254D01*
X356561Y262237D01*
X356474Y262220D01*
X356405Y262202D01*
X356353Y262185D01*
X356336Y262167D01*
X356318D01*
X356023Y262046D01*
X355780Y261907D01*
X355555Y261768D01*
X355364Y261612D01*
X355225Y261474D01*
X355121Y261352D01*
X355052Y261283D01*
X355034Y261248D01*
X354878Y260988D01*
X354757Y260728D01*
X354688Y260467D01*
X354618Y260224D01*
X354584Y259999D01*
X354566Y259843D01*
Y259773D01*
Y259721D01*
Y259704D01*
Y259687D01*
X354584Y259409D01*
X354618Y259149D01*
X354670Y258923D01*
X354722Y258732D01*
X354792Y258559D01*
X354844Y258438D01*
X354878Y258368D01*
X354896Y258333D01*
X355017Y258125D01*
X355156Y257952D01*
X355295Y257796D01*
X355416Y257674D01*
X355538Y257570D01*
X355624Y257501D01*
X355694Y257466D01*
X355711Y257449D01*
X355902Y257345D01*
X356110Y257258D01*
X356301Y257171D01*
X356492Y257119D01*
X356665Y257067D01*
X356804Y257032D01*
X356891Y257015D01*
X356926D01*
X357099Y256998D01*
X357324Y256980D01*
X357567Y256963D01*
X357793D01*
X358018Y256946D01*
X362355D01*
Y262445D01*
D02*
G37*
G36*
X337773Y269402D02*
X337617Y268881D01*
X337426Y268326D01*
X337235Y267771D01*
X337062Y267233D01*
X336975Y266990D01*
X336888Y266765D01*
X336819Y266556D01*
X336749Y266400D01*
X336698Y266244D01*
X336663Y266140D01*
X336628Y266071D01*
Y266053D01*
X334945Y261612D01*
X340410D01*
X338641Y266314D01*
X338450Y266886D01*
X338276Y267441D01*
X338120Y267962D01*
X338051Y268205D01*
X337999Y268430D01*
X337947Y268638D01*
X337895Y268829D01*
X337860Y268985D01*
X337825Y269141D01*
X337808Y269245D01*
X337790Y269332D01*
X337773Y269384D01*
Y269402D01*
D02*
G37*
G36*
X324346Y265290D02*
X324224D01*
X323981Y265273D01*
X323738Y265238D01*
X323513Y265186D01*
X323305Y265117D01*
X322906Y264926D01*
X322576Y264735D01*
X322316Y264527D01*
X322212Y264423D01*
X322108Y264336D01*
X322038Y264267D01*
X321986Y264214D01*
X321969Y264180D01*
X321951Y264163D01*
X321778Y263937D01*
X321639Y263694D01*
X321518Y263434D01*
X321414Y263156D01*
X321240Y262566D01*
X321136Y262011D01*
X321084Y261734D01*
X321067Y261491D01*
X321049Y261265D01*
X321032Y261057D01*
X321015Y260901D01*
Y260780D01*
Y260710D01*
Y260676D01*
X321032Y260277D01*
X321049Y259912D01*
X321101Y259565D01*
X321153Y259253D01*
X321223Y258975D01*
X321310Y258698D01*
X321396Y258455D01*
X321466Y258247D01*
X321553Y258056D01*
X321639Y257900D01*
X321726Y257761D01*
X321795Y257657D01*
X321847Y257553D01*
X321899Y257501D01*
X321917Y257466D01*
X321934Y257449D01*
X322108Y257258D01*
X322281Y257102D01*
X322472Y256963D01*
X322663Y256842D01*
X322836Y256755D01*
X323027Y256668D01*
X323374Y256547D01*
X323669Y256460D01*
X323808Y256443D01*
X323912Y256425D01*
X324016Y256408D01*
X324137D01*
X324380Y256425D01*
X324606Y256460D01*
X324814Y256512D01*
X325022Y256581D01*
X325404Y256755D01*
X325733Y256963D01*
X325994Y257154D01*
X326098Y257241D01*
X326185Y257327D01*
X326254Y257397D01*
X326323Y257449D01*
X326341Y257483D01*
X326358Y257501D01*
X326514Y257726D01*
X326670Y257969D01*
X326792Y258229D01*
X326896Y258490D01*
X327069Y259045D01*
X327173Y259583D01*
X327208Y259843D01*
X327243Y260068D01*
X327260Y260277D01*
X327277Y260467D01*
X327295Y260623D01*
Y260728D01*
Y260814D01*
Y260832D01*
X327277Y261248D01*
X327260Y261647D01*
X327208Y261994D01*
X327156Y262341D01*
X327087Y262636D01*
X327017Y262913D01*
X326948Y263174D01*
X326861Y263382D01*
X326774Y263590D01*
X326705Y263746D01*
X326636Y263902D01*
X326566Y264006D01*
X326514Y264093D01*
X326462Y264163D01*
X326445Y264197D01*
X326427Y264214D01*
X326254Y264405D01*
X326080Y264562D01*
X325890Y264718D01*
X325716Y264839D01*
X325525Y264943D01*
X325334Y265030D01*
X324987Y265151D01*
X324692Y265238D01*
X324554Y265255D01*
X324450Y265273D01*
X324346Y265290D01*
D02*
G37*
G36*
X298878Y265377D02*
X298757D01*
X298531Y265359D01*
X298306Y265325D01*
X298080Y265273D01*
X297872Y265203D01*
X297508Y265030D01*
X297196Y264822D01*
X296935Y264613D01*
X296814Y264527D01*
X296727Y264440D01*
X296658Y264371D01*
X296606Y264319D01*
X296588Y264284D01*
X296571Y264267D01*
X296415Y264041D01*
X296259Y263798D01*
X296137Y263555D01*
X296033Y263278D01*
X295877Y262723D01*
X295773Y262185D01*
X295721Y261924D01*
X295704Y261699D01*
X295686Y261491D01*
X295669Y261300D01*
X295652Y261144D01*
Y261040D01*
Y260953D01*
Y260936D01*
X295669Y260519D01*
X295686Y260120D01*
X295738Y259756D01*
X295790Y259426D01*
X295860Y259114D01*
X295947Y258819D01*
X296033Y258576D01*
X296120Y258351D01*
X296207Y258143D01*
X296294Y257969D01*
X296363Y257830D01*
X296450Y257709D01*
X296502Y257622D01*
X296554Y257553D01*
X296571Y257518D01*
X296588Y257501D01*
X296762Y257310D01*
X296953Y257136D01*
X297144Y256998D01*
X297334Y256876D01*
X297525Y256772D01*
X297716Y256668D01*
X298063Y256547D01*
X298375Y256460D01*
X298514Y256443D01*
X298618Y256425D01*
X298722Y256408D01*
X298844D01*
X299087Y256425D01*
X299312Y256460D01*
X299520Y256512D01*
X299729Y256581D01*
X300093Y256737D01*
X300422Y256946D01*
X300683Y257136D01*
X300787Y257223D01*
X300873Y257310D01*
X300943Y257362D01*
X300995Y257414D01*
X301012Y257449D01*
X301030Y257466D01*
X301186Y257674D01*
X301325Y257917D01*
X301446Y258177D01*
X301550Y258438D01*
X301706Y258993D01*
X301810Y259531D01*
X301862Y259773D01*
X301880Y260016D01*
X301897Y260224D01*
X301914Y260415D01*
X301932Y260571D01*
Y260676D01*
Y260762D01*
Y260780D01*
X301914Y261196D01*
X301897Y261578D01*
X301845Y261924D01*
X301775Y262254D01*
X301706Y262566D01*
X301637Y262844D01*
X301550Y263104D01*
X301446Y263330D01*
X301359Y263538D01*
X301272Y263711D01*
X301203Y263850D01*
X301134Y263972D01*
X301064Y264076D01*
X301012Y264145D01*
X300995Y264180D01*
X300977Y264197D01*
X300787Y264405D01*
X300596Y264579D01*
X300405Y264752D01*
X300214Y264874D01*
X300023Y264995D01*
X299850Y265082D01*
X299503Y265238D01*
X299208Y265307D01*
X299069Y265342D01*
X298965Y265359D01*
X298878Y265377D01*
D02*
G37*
%LPD*%
D10*
X255207Y292008D02*
G03*
X245207Y282008I0J-10000D01*
G01*
X475332Y282111D02*
G03*
X465332Y292111I-10000J0D01*
G01*
Y232111D02*
G03*
X475332Y242111I0J10000D01*
G01*
X245207Y242008D02*
G03*
X255207Y232008I10000J0D01*
G01*
Y292008D02*
X465332D01*
X475331Y242111D02*
X475331Y282111D01*
X245207Y242008D02*
Y282008D01*
X255207Y232111D02*
X465332D01*
D11*
X100356Y83517D02*
X100585Y83390D01*
X99823Y83847D02*
X100356Y83517D01*
X99086Y84330D02*
X99823Y83847D01*
X98197Y84914D02*
X99086Y84330D01*
X97334Y85524D02*
X98197Y84914D01*
X96597Y86006D02*
X97334Y85524D01*
X96089Y86336D02*
X96597Y86006D01*
X95886Y86438D02*
X96089Y86336D01*
X95759Y86412D02*
X95886Y86438D01*
X95353Y86209D02*
X95759Y86412D01*
X94743Y85879D02*
X95353Y86209D01*
X94388Y85701D02*
X94743Y85879D01*
X93829Y85473D02*
X94388Y85701D01*
X93549Y85422D02*
X93829Y85473D01*
X93498Y85498D02*
X93549Y85422D01*
X93295Y85905D02*
X93498Y85498D01*
X92990Y86641D02*
X93295Y85905D01*
X92559Y87606D02*
X92990Y86641D01*
X92076Y88749D02*
X92559Y87606D01*
X91568Y89969D02*
X92076Y88749D01*
X91035Y91188D02*
X91568Y89969D01*
X90552Y92381D02*
X91035Y91188D01*
X90120Y93448D02*
X90552Y92381D01*
X89765Y94312D02*
X90120Y93448D01*
X89536Y94922D02*
X89765Y94312D01*
X89460Y95176D02*
X89536Y94922D01*
X89460Y95176D02*
X89485Y95226D01*
X89765Y95506D01*
X90247Y95861D01*
X91288Y96725D01*
X92330Y98020D01*
X92965Y99494D01*
X93194Y101145D01*
X93016Y102643D02*
X93194Y101145D01*
X92406Y104091D02*
X93016Y102643D01*
X91390Y105412D02*
X92406Y104091D01*
X90146Y106377D02*
X91390Y105412D01*
X88723Y107012D02*
X90146Y106377D01*
X87098Y107215D02*
X88723Y107012D01*
X85548Y107037D02*
X87098Y107215D01*
X84075Y106453D02*
X85548Y107037D01*
X82754Y105437D02*
X84075Y106453D01*
X82195Y104802D02*
X82754Y105437D01*
X81433Y103481D02*
X82195Y104802D01*
X81002Y102059D02*
X81433Y103481D01*
X80951Y101703D02*
X81002Y102059D01*
X80951Y101703D02*
X81027Y100128D01*
X81484Y98630D01*
X82297Y97309D01*
X83440Y96192D01*
X83592Y96090D01*
X84126Y95709D01*
X84481Y95429D01*
X84761Y95201D01*
X82780Y90400D02*
X84761Y95201D01*
X82449Y89638D02*
X82780Y90400D01*
X81916Y88343D02*
X82449Y89638D01*
X81433Y87200D02*
X81916Y88343D01*
X81027Y86311D02*
X81433Y87200D01*
X80773Y85701D02*
X81027Y86311D01*
X80646Y85473D02*
X80773Y85701D01*
X80646Y85447D02*
X80646Y85473D01*
X80468Y85422D02*
X80646Y85447D01*
X80113Y85549D02*
X80468Y85422D01*
X79427Y85879D02*
X80113Y85549D01*
X78995Y86108D02*
X79427Y85879D01*
X78487Y86362D02*
X78995Y86108D01*
X78258Y86438D02*
X78487Y86362D01*
X78055Y86336D02*
X78258Y86438D01*
X77573Y86032D02*
X78055Y86336D01*
X76861Y85549D02*
X77573Y86032D01*
X75998Y84965D02*
X76861Y85549D01*
X75185Y84406D02*
X75998Y84965D01*
X74448Y83923D02*
X75185Y84406D01*
X73889Y83568D02*
X74448Y83923D01*
X73636Y83415D02*
X73889Y83568D01*
X73585Y83415D02*
X73636Y83415D01*
X73356Y83542D02*
X73585Y83415D01*
X72924Y83923D02*
X73356Y83542D01*
X72264Y84533D02*
X72924Y83923D01*
X71350Y85447D02*
X72264Y84533D01*
X71197Y85574D02*
X71350Y85447D01*
X70435Y86362D02*
X71197Y85574D01*
X69826Y86997D02*
X70435Y86362D01*
X69419Y87454D02*
X69826Y86997D01*
X69267Y87683D02*
X69419Y87454D01*
X69267Y87683D02*
X69394Y87936D01*
X69749Y88470D01*
X70232Y89232D01*
X70841Y90121D01*
X72442Y92432D01*
X71553Y94617D02*
X72442Y92432D01*
X71299Y95277D02*
X71553Y94617D01*
X70943Y96090D02*
X71299Y95277D01*
X70689Y96649D02*
X70943Y96090D01*
X70562Y96903D02*
X70689Y96649D01*
X70334Y97004D02*
X70562Y96903D01*
X69749Y97131D02*
X70334Y97004D01*
X68886Y97309D02*
X69749Y97131D01*
X67844Y97512D02*
X68886Y97309D01*
X66854Y97690D02*
X67844Y97512D01*
X65990Y97868D02*
X66854Y97690D01*
X65330Y97995D02*
X65990Y97868D01*
X65050Y98046D02*
X65330Y97995D01*
X64974Y98071D02*
X65050Y98046D01*
X64923Y98223D02*
X64974Y98071D01*
X64898Y98528D02*
X64923Y98223D01*
X64873Y99062D02*
X64898Y98528D01*
X64847Y99900D02*
X64873Y99062D01*
X64847Y99900D02*
X64847Y101145D01*
X64847Y101271D02*
X64847Y101145D01*
X64847Y101271D02*
X64873Y102440D01*
Y103380D01*
X64923Y103964D01*
X64949Y104218D01*
X65228Y104269D01*
X65863Y104421D01*
X66752Y104574D01*
X67793Y104777D01*
X67870Y104802D01*
X68911Y105005D01*
X69800Y105183D01*
X70410Y105336D01*
X70689Y105412D01*
X70740Y105488D01*
X70943Y105894D01*
X71248Y106555D01*
X71604Y107342D01*
X71934Y108180D01*
X72239Y108917D01*
X72442Y109476D01*
X72493Y109730D01*
X72340Y109984D02*
X72493Y109730D01*
X71985Y110517D02*
X72340Y109984D01*
X71477Y111279D02*
X71985Y110517D01*
X70842Y112168D02*
X71477Y111279D01*
X70816Y112244D02*
X70842Y112168D01*
X70207Y113133D02*
X70816Y112244D01*
X69699Y113895D02*
X70207Y113133D01*
X69394Y114429D02*
X69699Y113895D01*
X69267Y114657D02*
X69394Y114429D01*
X69267Y114657D02*
X69267Y114683D01*
X69470Y114937D01*
X69927Y115445D01*
X70562Y116131D01*
X71350Y116918D01*
X71604Y117172D01*
X72467Y118010D01*
X73051Y118569D01*
X73432Y118848D01*
X73610Y118925D01*
X73890Y118747D01*
X74448Y118391D01*
X75210Y117858D01*
X76125Y117248D01*
X76176Y117223D01*
X77065Y116613D01*
X77801Y116105D01*
X78335Y115750D01*
X78563Y115623D01*
X78614Y115623D01*
X78970Y115724D01*
X79605Y115953D01*
X80367Y116257D01*
X81205Y116588D01*
X81941Y116892D01*
X82500Y117147D01*
X82780Y117299D01*
X82780Y117324D01*
X82881Y117629D01*
X83034Y118289D01*
X83211Y119204D01*
X83415Y120296D01*
X83465Y120474D01*
X83669Y121541D01*
X83821Y122404D01*
X83948Y123014D01*
X84024Y123268D01*
X84177Y123293D01*
X84685Y123344D01*
X85472Y123370D01*
X86437Y123370D01*
X87428Y123370D01*
X88418Y123344D01*
X89257Y123319D01*
X89841Y123268D01*
X90095Y123217D01*
X90120Y123217D01*
X90196Y122887D01*
X90349Y122226D01*
X90527Y121287D01*
X90755Y120195D01*
X90781Y120017D01*
X90984Y118950D01*
X91162Y118086D01*
X91289Y117477D01*
X91365Y117248D01*
X91441Y117197D01*
X91898Y117020D01*
X92609Y116715D01*
X93473Y116359D01*
X95505Y115546D01*
X98020Y117248D01*
X98248Y117401D01*
X99137Y118010D01*
X99874Y118518D01*
X100382Y118848D01*
X100610Y118950D01*
X100864Y118721D01*
X101372Y118264D01*
X102033Y117604D01*
X102820Y116816D01*
X103404Y116257D01*
X104090Y115546D01*
X104547Y115064D01*
X104776Y114759D01*
X104852Y114581D01*
X104827Y114454D02*
X104852Y114581D01*
X104674Y114200D02*
X104827Y114454D01*
X104319Y113667D02*
X104674Y114200D01*
X103785Y112905D02*
X104319Y113667D01*
X103176Y112016D02*
X103785Y112905D01*
X102693Y111279D02*
X103176Y112016D01*
X102134Y110441D02*
X102693Y111279D01*
X101779Y109831D02*
X102134Y110441D01*
X101677Y109552D02*
X101779Y109831D01*
X101677Y109552D02*
X101703Y109425D01*
X101880Y108942D01*
X102160Y108206D01*
X102541Y107317D01*
X103404Y105336D01*
X104700Y105082D01*
X105487Y104955D01*
X106605Y104726D01*
X107646Y104523D01*
X109297Y104218D01*
X109348Y98198D01*
X109094Y98097D02*
X109348Y98198D01*
X108840Y98020D02*
X109094Y98097D01*
X108230Y97893D02*
X108840Y98020D01*
X107367Y97716D02*
X108230Y97893D01*
X106351Y97512D02*
X107367Y97716D01*
X105487Y97360D02*
X106351Y97512D01*
X104598Y97182D02*
X105487Y97360D01*
X103963Y97055D02*
X104598Y97182D01*
X103684Y97004D02*
X103963Y97055D01*
X103608Y96903D02*
X103684Y97004D01*
X103404Y96496D02*
X103608Y96903D01*
X103074Y95810D02*
X103404Y96496D01*
X102744Y94998D02*
X103074Y95810D01*
X102388Y94159D02*
X102744Y94998D01*
X102084Y93372D02*
X102388Y94159D01*
X101855Y92788D02*
X102084Y93372D01*
X101779Y92458D02*
X101855Y92788D01*
X101779Y92458D02*
X101906Y92229D01*
X102236Y91721D01*
X102719Y90984D01*
X103303Y90121D01*
X103912Y89232D01*
X104420Y88495D01*
X104751Y87962D01*
X104903Y87708D01*
X104827Y87530D02*
X104903Y87708D01*
X104497Y87124D02*
X104827Y87530D01*
X103836Y86438D02*
X104497Y87124D01*
X102846Y85473D02*
X103836Y86438D01*
X102693Y85320D02*
X102846Y85473D01*
X101906Y84558D02*
X102693Y85320D01*
X101245Y83949D02*
X101906Y84558D01*
X100788Y83542D02*
X101245Y83949D01*
X100585Y83390D02*
X100788Y83542D01*
M02*
