G04*
G04 #@! TF.GenerationSoftware,Altium Limited,Altium Designer,25.8.1 (18)*
G04*
G04 Layer_Color=65535*
%FSLAX44Y44*%
%MOMM*%
G71*
G04*
G04 #@! TF.SameCoordinates,23F0502B-7B20-4CC9-97BB-DA64BA6573D7*
G04*
G04*
G04 #@! TF.FilePolarity,Positive*
G04*
G01*
G75*
%ADD10C,0.4000*%
%ADD11C,0.2000*%
%ADD12C,0.1500*%
%ADD13C,0.1524*%
%ADD14C,0.1000*%
G36*
X91484Y386718D02*
X91484Y387267D01*
X91904Y388280D01*
X92680Y389056D01*
X93694Y389476D01*
X94242D01*
X94791Y389476D01*
X95805Y389056D01*
X96580Y388280D01*
X97000Y387267D01*
X97000Y386718D01*
X97000Y386718D01*
X97000Y381202D01*
Y380654D01*
X96580Y379640D01*
X95805Y378864D01*
X94791Y378445D01*
X94242Y378445D01*
X93694D01*
X92680Y378864D01*
X91904Y379640D01*
X91485Y380654D01*
Y381202D01*
X91484Y381203D01*
X91484Y386718D01*
D02*
G37*
G36*
X98984Y386976D02*
Y387525D01*
X99404Y388538D01*
X100180Y389314D01*
X101194Y389734D01*
X101742D01*
X102291D01*
X103304Y389314D01*
X104080Y388538D01*
X104500Y387525D01*
Y386976D01*
X104500Y386976D01*
X104500Y381460D01*
Y380912D01*
X104080Y379898D01*
X103304Y379123D01*
X102291Y378703D01*
X101742Y378703D01*
X101194Y378703D01*
X100180Y379123D01*
X99404Y379898D01*
X98984Y380912D01*
Y381460D01*
X98984Y381460D01*
X98984Y386976D01*
D02*
G37*
G36*
X107000Y386976D02*
Y387525D01*
X107420Y388538D01*
X108196Y389314D01*
X109209Y389734D01*
X109758D01*
X110307Y389734D01*
X111320Y389314D01*
X112096Y388538D01*
X112516Y387525D01*
Y386976D01*
X112516Y386976D01*
X112516Y381460D01*
Y380912D01*
X112096Y379898D01*
X111320Y379123D01*
X110307Y378703D01*
X109758Y378703D01*
X109209D01*
X108196Y379123D01*
X107420Y379898D01*
X107000Y380912D01*
Y381460D01*
X107000Y381460D01*
X107000Y386976D01*
D02*
G37*
G36*
X114500Y386976D02*
X114500Y387525D01*
X114920Y388538D01*
X115696Y389314D01*
X116709Y389734D01*
X117258Y389734D01*
X117807Y389734D01*
X118820Y389314D01*
X119596Y388538D01*
X120016Y387525D01*
Y386976D01*
X120016Y386976D01*
X120016Y381460D01*
Y380912D01*
X119596Y379898D01*
X118820Y379123D01*
X117806Y378703D01*
X117258Y378703D01*
X116709Y378703D01*
X115696Y379123D01*
X114920Y379898D01*
X114500Y380912D01*
Y381460D01*
X114500Y381460D01*
X114500Y386976D01*
D02*
G37*
G36*
X132330Y356710D02*
X132537Y356694D01*
X132760Y356646D01*
X133016Y356598D01*
X133271Y356519D01*
X133526Y356407D01*
X133558Y356391D01*
X133638Y356359D01*
X133750Y356279D01*
X133909Y356184D01*
X134084Y356056D01*
X134276Y355913D01*
X134467Y355737D01*
X134643Y355546D01*
X134659Y355514D01*
X134722Y355450D01*
X134802Y355338D01*
X134898Y355179D01*
X135010Y354987D01*
X135105Y354780D01*
X135217Y354525D01*
X135313Y354254D01*
X135329Y354222D01*
X135345Y354126D01*
X135377Y353982D01*
X135424Y353775D01*
X135472Y353552D01*
X135504Y353281D01*
X135520Y352994D01*
X135536Y352674D01*
Y352451D01*
X135520Y352308D01*
Y352132D01*
X135488Y351941D01*
X135440Y351558D01*
Y351542D01*
X135424Y351478D01*
X135408Y351382D01*
X135377Y351255D01*
X135345Y351111D01*
X135297Y350952D01*
X135201Y350649D01*
Y350633D01*
X135169Y350585D01*
X135137Y350505D01*
X135105Y350409D01*
X134994Y350202D01*
X134882Y349979D01*
Y349963D01*
X134850Y349931D01*
X134786Y349835D01*
X134706Y349707D01*
X134611Y349596D01*
X134595Y349580D01*
X134531Y349548D01*
X134451Y349500D01*
X134340Y349452D01*
X134324D01*
X134308D01*
X134212Y349436D01*
X134068Y349420D01*
X133877Y349404D01*
X133861D01*
X133845D01*
X133765D01*
X133654D01*
X133558Y349420D01*
X133526D01*
X133478Y349436D01*
X133399Y349452D01*
X133335Y349468D01*
X133319D01*
X133287Y349484D01*
X133255Y349516D01*
X133223Y349548D01*
X133207Y349564D01*
X133191Y349596D01*
X133175Y349644D01*
Y349724D01*
X133191Y349787D01*
X133239Y349899D01*
X133335Y350042D01*
Y350058D01*
X133367Y350090D01*
X133399Y350138D01*
X133430Y350202D01*
X133494Y350298D01*
X133542Y350393D01*
X133686Y350649D01*
Y350665D01*
X133718Y350712D01*
X133750Y350792D01*
X133797Y350904D01*
X133845Y351031D01*
X133893Y351191D01*
X133957Y351351D01*
X134021Y351542D01*
Y351574D01*
X134052Y351638D01*
X134068Y351749D01*
X134100Y351893D01*
X134132Y352068D01*
X134148Y352276D01*
X134180Y352499D01*
Y352930D01*
X134164Y353057D01*
X134148Y353201D01*
X134132Y353360D01*
X134052Y353679D01*
Y353695D01*
X134021Y353759D01*
X133989Y353839D01*
X133957Y353935D01*
X133829Y354174D01*
X133670Y354413D01*
X133654Y354429D01*
X133622Y354461D01*
X133574Y354525D01*
X133494Y354589D01*
X133399Y354668D01*
X133303Y354748D01*
X133048Y354892D01*
X133032Y354908D01*
X132984Y354924D01*
X132904Y354955D01*
X132808Y354987D01*
X132681Y355019D01*
X132537Y355035D01*
X132378Y355067D01*
X132202D01*
X132186D01*
X132122D01*
X132027Y355051D01*
X131899Y355035D01*
X131771Y355003D01*
X131628Y354971D01*
X131484Y354908D01*
X131341Y354828D01*
X131325Y354812D01*
X131277Y354780D01*
X131213Y354732D01*
X131133Y354668D01*
X131038Y354589D01*
X130926Y354477D01*
X130830Y354365D01*
X130719Y354222D01*
X130703Y354206D01*
X130671Y354158D01*
X130623Y354078D01*
X130543Y353966D01*
X130463Y353839D01*
X130384Y353695D01*
X130208Y353360D01*
X130192Y353344D01*
X130176Y353281D01*
X130128Y353185D01*
X130065Y353057D01*
X130001Y352914D01*
X129921Y352738D01*
X129762Y352371D01*
X129746Y352355D01*
X129714Y352292D01*
X129666Y352180D01*
X129602Y352052D01*
X129522Y351909D01*
X129443Y351733D01*
X129235Y351382D01*
X129219Y351366D01*
X129187Y351303D01*
X129124Y351207D01*
X129044Y351095D01*
X128948Y350968D01*
X128836Y350824D01*
X128565Y350521D01*
X128549Y350505D01*
X128502Y350457D01*
X128422Y350393D01*
X128310Y350314D01*
X128182Y350218D01*
X128023Y350106D01*
X127864Y350011D01*
X127672Y349915D01*
X127640Y349899D01*
X127576Y349883D01*
X127465Y349851D01*
X127321Y349803D01*
X127130Y349755D01*
X126922Y349724D01*
X126683Y349707D01*
X126412Y349692D01*
X126396D01*
X126380D01*
X126284D01*
X126141Y349707D01*
X125965Y349724D01*
X125758Y349755D01*
X125535Y349803D01*
X125311Y349867D01*
X125088Y349963D01*
X125056Y349979D01*
X124992Y350011D01*
X124881Y350074D01*
X124737Y350154D01*
X124593Y350266D01*
X124418Y350393D01*
X124258Y350537D01*
X124099Y350712D01*
X124083Y350728D01*
X124035Y350792D01*
X123955Y350904D01*
X123876Y351031D01*
X123780Y351207D01*
X123668Y351398D01*
X123573Y351622D01*
X123493Y351861D01*
X123477Y351893D01*
X123461Y351973D01*
X123429Y352116D01*
X123381Y352292D01*
X123349Y352499D01*
X123317Y352754D01*
X123301Y353009D01*
X123286Y353297D01*
Y353440D01*
X123301Y353552D01*
Y353663D01*
X123317Y353807D01*
X123365Y354094D01*
Y354110D01*
X123381Y354158D01*
X123397Y354238D01*
X123413Y354349D01*
X123429Y354461D01*
X123461Y354589D01*
X123541Y354860D01*
Y354876D01*
X123557Y354924D01*
X123589Y354987D01*
X123621Y355067D01*
X123700Y355275D01*
X123796Y355482D01*
Y355498D01*
X123812Y355530D01*
X123876Y355641D01*
X123955Y355753D01*
X123987Y355817D01*
X124019Y355849D01*
X124035Y355865D01*
X124067Y355897D01*
X124115Y355944D01*
X124163Y355960D01*
X124179D01*
X124195Y355976D01*
X124290Y356008D01*
X124306D01*
X124338Y356024D01*
X124402D01*
X124482Y356040D01*
X124498D01*
X124562Y356056D01*
X124657D01*
X124769D01*
X124801D01*
X124865D01*
X124960D01*
X125056Y356040D01*
X125072D01*
X125136Y356024D01*
X125200Y356008D01*
X125279Y355992D01*
X125295D01*
X125327Y355976D01*
X125407Y355913D01*
X125423Y355881D01*
X125439Y355801D01*
Y355785D01*
X125423Y355721D01*
X125391Y355625D01*
X125311Y355482D01*
Y355466D01*
X125295Y355450D01*
X125263Y355402D01*
X125232Y355338D01*
X125136Y355163D01*
X125024Y354939D01*
Y354924D01*
X124992Y354892D01*
X124960Y354828D01*
X124929Y354732D01*
X124881Y354621D01*
X124833Y354509D01*
X124785Y354365D01*
X124737Y354206D01*
Y354190D01*
X124721Y354126D01*
X124689Y354046D01*
X124657Y353919D01*
X124641Y353791D01*
X124609Y353615D01*
X124593Y353440D01*
Y353073D01*
X124609Y352962D01*
X124625Y352818D01*
X124657Y352674D01*
X124737Y352387D01*
Y352371D01*
X124753Y352323D01*
X124785Y352260D01*
X124833Y352180D01*
X124944Y351973D01*
X125088Y351781D01*
X125104Y351765D01*
X125120Y351749D01*
X125168Y351701D01*
X125232Y351654D01*
X125407Y351526D01*
X125614Y351414D01*
X125630D01*
X125662Y351398D01*
X125726Y351382D01*
X125806Y351366D01*
X125901Y351334D01*
X126013Y351319D01*
X126268Y351303D01*
X126284D01*
X126348D01*
X126444Y351319D01*
X126556Y351334D01*
X126699Y351351D01*
X126843Y351398D01*
X126986Y351446D01*
X127130Y351526D01*
X127146Y351542D01*
X127193Y351574D01*
X127257Y351622D01*
X127337Y351685D01*
X127433Y351765D01*
X127544Y351877D01*
X127640Y352005D01*
X127752Y352132D01*
X127768Y352148D01*
X127800Y352196D01*
X127847Y352276D01*
X127911Y352387D01*
X127991Y352515D01*
X128087Y352659D01*
X128262Y352994D01*
X128278Y353009D01*
X128294Y353073D01*
X128342Y353185D01*
X128406Y353312D01*
X128470Y353456D01*
X128549Y353632D01*
X128725Y353998D01*
X128741Y354014D01*
X128773Y354094D01*
X128820Y354190D01*
X128884Y354317D01*
X128964Y354461D01*
X129044Y354636D01*
X129251Y354987D01*
X129267Y355003D01*
X129299Y355067D01*
X129363Y355163D01*
X129427Y355290D01*
X129522Y355418D01*
X129634Y355562D01*
X129905Y355865D01*
X129921Y355881D01*
X129969Y355928D01*
X130049Y355992D01*
X130160Y356088D01*
X130288Y356184D01*
X130448Y356295D01*
X130623Y356391D01*
X130814Y356487D01*
X130830Y356503D01*
X130910Y356519D01*
X131006Y356567D01*
X131149Y356614D01*
X131341Y356646D01*
X131548Y356694D01*
X131771Y356710D01*
X132027Y356726D01*
X132043D01*
X132059D01*
X132107D01*
X132170D01*
X132330Y356710D01*
D02*
G37*
G36*
X124354Y348591D02*
X124450Y348575D01*
X124466D01*
X124530Y348559D01*
X124593Y348543D01*
X124657Y348511D01*
X124673D01*
X124705Y348495D01*
X124737Y348463D01*
X124769Y348415D01*
Y348400D01*
X124785Y348384D01*
X124801Y348288D01*
Y344954D01*
X135121D01*
X135137D01*
X135169D01*
X135217Y344938D01*
X135265Y344906D01*
X135297Y344874D01*
X135313Y344842D01*
X135345Y344779D01*
Y344763D01*
X135360Y344715D01*
Y344635D01*
X135377Y344523D01*
Y344492D01*
X135392Y344428D01*
X135408Y344316D01*
Y344029D01*
X135392Y343901D01*
X135377Y343774D01*
Y343758D01*
X135360Y343694D01*
Y343614D01*
X135345Y343534D01*
Y343518D01*
X135329Y343487D01*
X135297Y343439D01*
X135265Y343407D01*
X135249D01*
X135217Y343391D01*
X135121Y343375D01*
X124801D01*
Y339977D01*
X124769Y339882D01*
X124737Y339850D01*
X124705Y339818D01*
X124657Y339786D01*
X124641D01*
X124593Y339770D01*
X124530Y339754D01*
X124450Y339738D01*
X124434D01*
X124370D01*
X124275Y339722D01*
X124147D01*
X124131D01*
X124115D01*
X124035D01*
X123940D01*
X123844Y339738D01*
X123812D01*
X123764Y339754D01*
X123684Y339770D01*
X123621Y339786D01*
X123604Y339802D01*
X123573Y339818D01*
X123541Y339850D01*
X123509Y339882D01*
X123493Y339897D01*
X123477Y339929D01*
X123461Y339977D01*
Y348336D01*
X123477Y348384D01*
X123509Y348415D01*
Y348431D01*
X123541Y348447D01*
X123573Y348479D01*
X123621Y348511D01*
X123636Y348527D01*
X123684Y348543D01*
X123748Y348559D01*
X123844Y348575D01*
X123860D01*
X123924Y348591D01*
X124019Y348607D01*
X124147D01*
X124179D01*
X124243D01*
X124354Y348591D01*
D02*
G37*
G36*
X134930Y337967D02*
X135042Y337935D01*
X135057Y337920D01*
X135121Y337888D01*
X135185Y337840D01*
X135249Y337760D01*
X135265Y337744D01*
X135297Y337696D01*
X135329Y337632D01*
X135360Y337537D01*
Y337521D01*
X135377Y337473D01*
X135392Y337393D01*
Y336628D01*
X135377Y336484D01*
X135345Y336340D01*
X135329Y336309D01*
X135297Y336229D01*
X135249Y336117D01*
X135169Y335989D01*
X135137Y335958D01*
X135073Y335894D01*
X134946Y335782D01*
X134802Y335654D01*
X134786D01*
X134754Y335623D01*
X134706Y335591D01*
X134643Y335559D01*
X134547Y335495D01*
X134451Y335447D01*
X134196Y335304D01*
X127433Y331667D01*
X127417Y331651D01*
X127337Y331619D01*
X127241Y331555D01*
X127098Y331491D01*
X126938Y331395D01*
X126763Y331300D01*
X126556Y331204D01*
X126348Y331092D01*
X126316Y331077D01*
X126252Y331045D01*
X126141Y330997D01*
X125997Y330917D01*
X125822Y330837D01*
X125630Y330757D01*
X125232Y330566D01*
Y330534D01*
X125263D01*
X125343D01*
X125471Y330550D01*
X125646D01*
X125838D01*
X126077Y330566D01*
X126316D01*
X126571D01*
X126603D01*
X126683D01*
X126827D01*
X127002Y330582D01*
X127210D01*
X127433D01*
X127688D01*
X127943D01*
X135121D01*
X135137D01*
X135153D01*
X135201Y330566D01*
X135249Y330534D01*
X135265D01*
X135281Y330502D01*
X135313Y330470D01*
X135345Y330407D01*
Y330391D01*
X135360Y330343D01*
Y330263D01*
X135377Y330151D01*
Y330119D01*
X135392Y330056D01*
X135408Y329944D01*
Y329641D01*
X135392Y329513D01*
X135377Y329386D01*
Y329370D01*
X135360Y329306D01*
Y329226D01*
X135345Y329146D01*
Y329131D01*
X135313Y329099D01*
X135297Y329067D01*
X135249Y329035D01*
X135233D01*
X135201Y329019D01*
X135121Y329003D01*
X124147D01*
X124131D01*
X124083D01*
X124019Y329019D01*
X123940Y329035D01*
X123764Y329099D01*
X123684Y329146D01*
X123621Y329210D01*
Y329226D01*
X123589Y329242D01*
X123541Y329338D01*
X123493Y329481D01*
X123461Y329657D01*
Y330598D01*
X123477Y330742D01*
X123509Y330885D01*
Y330901D01*
X123525Y330917D01*
X123541Y330997D01*
X123589Y331108D01*
X123668Y331220D01*
X123684Y331252D01*
X123748Y331316D01*
X123844Y331412D01*
X123971Y331507D01*
X124003Y331539D01*
X124099Y331603D01*
X124243Y331699D01*
X124434Y331810D01*
X129650Y334602D01*
X129666Y334618D01*
X129730Y334650D01*
X129825Y334697D01*
X129953Y334761D01*
X130097Y334841D01*
X130256Y334921D01*
X130591Y335096D01*
X130607Y335112D01*
X130671Y335144D01*
X130751Y335192D01*
X130862Y335240D01*
X131006Y335320D01*
X131149Y335399D01*
X131484Y335559D01*
X131500Y335575D01*
X131564Y335591D01*
X131644Y335639D01*
X131756Y335702D01*
X131899Y335766D01*
X132043Y335830D01*
X132362Y335989D01*
X132378Y336005D01*
X132425Y336021D01*
X132521Y336069D01*
X132617Y336133D01*
X132745Y336197D01*
X132888Y336277D01*
X133207Y336436D01*
X133191D01*
X133175D01*
X133080D01*
X132936D01*
X132745D01*
X132521Y336420D01*
X132266D01*
X131995D01*
X131708D01*
X131692D01*
X131676D01*
X131628D01*
X131564D01*
X131421D01*
X131213D01*
X130990D01*
X130735D01*
X130192D01*
X123748D01*
X123732D01*
X123716D01*
X123636Y336452D01*
X123621D01*
X123604Y336484D01*
X123573Y336516D01*
X123541Y336580D01*
X123525Y336596D01*
X123509Y336643D01*
X123493Y336723D01*
X123477Y336819D01*
Y336851D01*
X123461Y336931D01*
X123445Y337058D01*
Y337345D01*
X123461Y337457D01*
X123477Y337585D01*
Y337617D01*
X123493Y337680D01*
X123509Y337760D01*
X123541Y337824D01*
Y337840D01*
X123557Y337872D01*
X123589Y337920D01*
X123636Y337952D01*
Y337967D01*
X123668Y337983D01*
X123700Y337999D01*
X123748D01*
X134722D01*
X134754D01*
X134834D01*
X134930Y337967D01*
D02*
G37*
G36*
X134914Y326419D02*
X135010Y326403D01*
X135026D01*
X135089Y326387D01*
X135153Y326371D01*
X135217Y326339D01*
X135233D01*
X135265Y326307D01*
X135297Y326275D01*
X135329Y326227D01*
Y326211D01*
X135345Y326195D01*
X135360Y326100D01*
Y320357D01*
X135345Y320262D01*
X135313Y320134D01*
X135233Y319990D01*
X135201Y319958D01*
X135169Y319943D01*
X135121Y319911D01*
X135042Y319879D01*
X134962Y319847D01*
X134850Y319831D01*
X134722Y319815D01*
X124115D01*
X124099D01*
X124051D01*
X123987Y319831D01*
X123908D01*
X123748Y319895D01*
X123668Y319927D01*
X123604Y319990D01*
Y320006D01*
X123589Y320022D01*
X123525Y320118D01*
X123477Y320246D01*
X123461Y320389D01*
Y326084D01*
X123477Y326132D01*
X123509Y326163D01*
Y326180D01*
X123541Y326195D01*
X123573Y326227D01*
X123621Y326259D01*
X123636Y326275D01*
X123668Y326291D01*
X123748Y326307D01*
X123828Y326323D01*
X123844D01*
X123908Y326339D01*
X124003Y326355D01*
X124131D01*
X124163D01*
X124227D01*
X124338Y326339D01*
X124434Y326323D01*
X124450D01*
X124498Y326307D01*
X124625Y326259D01*
X124641D01*
X124673Y326243D01*
X124705Y326211D01*
X124737Y326163D01*
Y326148D01*
X124753Y326132D01*
X124769Y326036D01*
Y321394D01*
X128518D01*
Y325430D01*
X128533Y325478D01*
X128565Y325509D01*
X128581Y325526D01*
X128597Y325541D01*
X128693Y325605D01*
X128709Y325621D01*
X128741Y325637D01*
X128805Y325653D01*
X128884Y325669D01*
X128900D01*
X128964Y325685D01*
X129060Y325701D01*
X129187D01*
X129219D01*
X129283D01*
X129379Y325685D01*
X129474Y325669D01*
X129490D01*
X129538Y325653D01*
X129666Y325605D01*
X129682D01*
X129698Y325589D01*
X129762Y325509D01*
Y325494D01*
X129778Y325478D01*
X129794Y325382D01*
Y321394D01*
X134052D01*
Y326148D01*
X134068Y326195D01*
X134100Y326227D01*
Y326243D01*
X134132Y326259D01*
X134164Y326307D01*
X134212Y326339D01*
X134228Y326355D01*
X134260Y326371D01*
X134340Y326387D01*
X134419Y326403D01*
X134435D01*
X134499Y326419D01*
X134595Y326435D01*
X134722D01*
X134754D01*
X134818D01*
X134914Y326419D01*
D02*
G37*
G36*
X135217Y316641D02*
X135265Y316609D01*
X135297Y316577D01*
X135313Y316545D01*
X135345Y316481D01*
Y316465D01*
X135360Y316417D01*
Y316338D01*
X135377Y316242D01*
Y316210D01*
X135392Y316146D01*
X135408Y316019D01*
Y315731D01*
X135392Y315604D01*
X135377Y315476D01*
Y315460D01*
X135360Y315396D01*
Y315317D01*
X135345Y315237D01*
Y315221D01*
X135329Y315189D01*
X135297Y315141D01*
X135265Y315109D01*
X135249D01*
X135217Y315093D01*
X135121Y315077D01*
X124769D01*
Y315046D01*
X135169Y310850D01*
X135185D01*
X135201Y310834D01*
X135249Y310819D01*
X135281Y310771D01*
Y310755D01*
X135313Y310739D01*
X135329Y310691D01*
X135360Y310627D01*
Y310611D01*
X135377Y310563D01*
Y310499D01*
X135392Y310404D01*
Y310324D01*
X135408Y310212D01*
Y309973D01*
X135392Y309861D01*
X135377Y309750D01*
Y309734D01*
X135360Y309670D01*
Y309606D01*
X135345Y309526D01*
Y309510D01*
X135329Y309479D01*
X135297Y309431D01*
X135265Y309383D01*
X135249D01*
X135233Y309351D01*
X135169Y309319D01*
X124769Y305299D01*
X135121D01*
X135137D01*
X135169D01*
X135217Y305283D01*
X135265Y305252D01*
X135297Y305220D01*
X135313Y305188D01*
X135345Y305124D01*
Y305108D01*
X135360Y305060D01*
Y304980D01*
X135377Y304869D01*
Y304837D01*
X135392Y304773D01*
X135408Y304645D01*
Y304358D01*
X135392Y304231D01*
X135377Y304103D01*
Y304087D01*
X135360Y304023D01*
Y303944D01*
X135345Y303864D01*
Y303848D01*
X135329Y303816D01*
X135297Y303784D01*
X135265Y303752D01*
X135249D01*
X135217Y303736D01*
X135121Y303720D01*
X124179D01*
X124163D01*
X124115D01*
X124051Y303736D01*
X123971Y303752D01*
X123780Y303800D01*
X123700Y303848D01*
X123636Y303912D01*
X123621Y303928D01*
X123604Y303944D01*
X123541Y304055D01*
X123493Y304199D01*
X123461Y304279D01*
Y305523D01*
X123493Y305698D01*
X123525Y305874D01*
Y305890D01*
X123541Y305905D01*
X123557Y306001D01*
X123621Y306129D01*
X123700Y306256D01*
Y306272D01*
X123716Y306288D01*
X123780Y306352D01*
X123876Y306448D01*
X124003Y306544D01*
X124035Y306560D01*
X124115Y306607D01*
X124258Y306671D01*
X124434Y306735D01*
X133048Y310149D01*
Y310180D01*
X124466Y313722D01*
X124450D01*
X124418Y313738D01*
X124370Y313769D01*
X124290Y313785D01*
X124147Y313865D01*
X123987Y313945D01*
X123971D01*
X123955Y313961D01*
X123876Y314025D01*
X123780Y314120D01*
X123684Y314216D01*
X123668Y314248D01*
X123621Y314312D01*
X123573Y314408D01*
X123525Y314535D01*
Y314551D01*
X123509Y314567D01*
X123493Y314647D01*
X123477Y314790D01*
X123461Y314950D01*
Y316050D01*
X123477Y316146D01*
X123509Y316226D01*
X123525Y316242D01*
X123541Y316306D01*
X123589Y316369D01*
X123652Y316433D01*
X123668Y316449D01*
X123700Y316497D01*
X123780Y316545D01*
X123860Y316593D01*
X123876Y316609D01*
X123940Y316625D01*
X124051Y316641D01*
X124179Y316657D01*
X135121D01*
X135137D01*
X135169D01*
X135217Y316641D01*
D02*
G37*
G36*
X131245Y300578D02*
X131357D01*
X131628Y300562D01*
X131931Y300514D01*
X132250Y300466D01*
X132585Y300386D01*
X132920Y300275D01*
X132936D01*
X132952Y300259D01*
X133000Y300243D01*
X133064Y300211D01*
X133223Y300147D01*
X133414Y300035D01*
X133638Y299908D01*
X133877Y299764D01*
X134116Y299573D01*
X134356Y299366D01*
X134388Y299334D01*
X134451Y299254D01*
X134547Y299142D01*
X134675Y298967D01*
X134818Y298759D01*
X134962Y298504D01*
X135105Y298233D01*
X135233Y297930D01*
Y297914D01*
X135249Y297898D01*
X135265Y297850D01*
X135281Y297786D01*
X135297Y297707D01*
X135329Y297611D01*
X135377Y297372D01*
X135440Y297085D01*
X135488Y296765D01*
X135520Y296399D01*
X135536Y296000D01*
Y295840D01*
X135520Y295745D01*
Y295649D01*
X135504Y295410D01*
X135472Y295138D01*
X135424Y294835D01*
X135360Y294516D01*
X135265Y294213D01*
Y294197D01*
X135249Y294181D01*
X135233Y294133D01*
X135217Y294086D01*
X135137Y293926D01*
X135057Y293735D01*
X134930Y293511D01*
X134786Y293288D01*
X134611Y293049D01*
X134419Y292826D01*
X134388Y292794D01*
X134324Y292730D01*
X134196Y292634D01*
X134037Y292507D01*
X133829Y292363D01*
X133590Y292203D01*
X133335Y292060D01*
X133032Y291932D01*
X133016D01*
X133000Y291916D01*
X132952Y291900D01*
X132888Y291884D01*
X132808Y291868D01*
X132713Y291837D01*
X132473Y291789D01*
X132186Y291725D01*
X131867Y291677D01*
X131500Y291645D01*
X131102Y291629D01*
X123716D01*
X123700D01*
X123668D01*
X123589Y291661D01*
X123573D01*
X123557Y291693D01*
X123525Y291725D01*
X123493Y291789D01*
Y291805D01*
X123477Y291852D01*
X123461Y291932D01*
X123445Y292028D01*
Y292060D01*
X123429Y292124D01*
X123413Y292251D01*
Y292538D01*
X123429Y292666D01*
X123445Y292794D01*
Y292826D01*
X123461Y292889D01*
X123477Y292969D01*
X123493Y293033D01*
Y293049D01*
X123509Y293081D01*
X123541Y293129D01*
X123589Y293160D01*
X123604Y293176D01*
X123621Y293192D01*
X123668Y293208D01*
X123716D01*
X130894D01*
X130910D01*
X130926D01*
X130974D01*
X131038D01*
X131181Y293224D01*
X131389Y293240D01*
X131612Y293256D01*
X131851Y293288D01*
X132107Y293336D01*
X132346Y293400D01*
X132378Y293416D01*
X132442Y293432D01*
X132553Y293479D01*
X132697Y293559D01*
X132856Y293639D01*
X133032Y293735D01*
X133207Y293862D01*
X133367Y293990D01*
X133383Y294006D01*
X133430Y294054D01*
X133510Y294133D01*
X133606Y294245D01*
X133702Y294373D01*
X133797Y294532D01*
X133909Y294708D01*
X133989Y294899D01*
Y294931D01*
X134021Y294995D01*
X134052Y295107D01*
X134084Y295250D01*
X134116Y295441D01*
X134148Y295633D01*
X134164Y295872D01*
X134180Y296112D01*
Y296223D01*
X134164Y296351D01*
X134148Y296526D01*
X134132Y296702D01*
X134100Y296909D01*
X134052Y297116D01*
X133989Y297324D01*
X133973Y297356D01*
X133957Y297419D01*
X133909Y297515D01*
X133829Y297643D01*
X133750Y297786D01*
X133638Y297930D01*
X133526Y298089D01*
X133383Y298233D01*
X133367Y298249D01*
X133303Y298297D01*
X133223Y298361D01*
X133096Y298456D01*
X132952Y298536D01*
X132776Y298632D01*
X132585Y298727D01*
X132378Y298807D01*
X132346Y298823D01*
X132266Y298839D01*
X132154Y298871D01*
X131979Y298919D01*
X131771Y298951D01*
X131532Y298983D01*
X131261Y298999D01*
X130974Y299015D01*
X123716D01*
X123700D01*
X123668D01*
X123589Y299046D01*
X123573D01*
X123557Y299078D01*
X123525Y299110D01*
X123493Y299174D01*
Y299190D01*
X123477Y299238D01*
X123461Y299318D01*
X123445Y299413D01*
Y299445D01*
X123429Y299525D01*
X123413Y299637D01*
Y299924D01*
X123429Y300051D01*
X123445Y300163D01*
Y300195D01*
X123461Y300259D01*
X123477Y300338D01*
X123493Y300402D01*
Y300418D01*
X123509Y300450D01*
X123541Y300498D01*
X123589Y300546D01*
X123604Y300562D01*
X123621Y300578D01*
X123668Y300594D01*
X123716D01*
X130974D01*
X130990D01*
X131022D01*
X131086D01*
X131149D01*
X131245Y300578D01*
D02*
G37*
G36*
X135265Y289316D02*
X135297Y289284D01*
X135313Y289252D01*
X135345Y289189D01*
Y289173D01*
X135360Y289125D01*
Y289045D01*
X135377Y288933D01*
Y288902D01*
X135392Y288822D01*
X135408Y288678D01*
Y288359D01*
X135392Y288232D01*
X135377Y288104D01*
Y288088D01*
X135360Y288024D01*
X135345Y287945D01*
X135329Y287865D01*
Y287849D01*
X135297Y287817D01*
X135281Y287769D01*
X135233Y287721D01*
X135217D01*
X135185Y287689D01*
X135121Y287673D01*
X135042Y287641D01*
X132234Y286541D01*
X132218Y286525D01*
X132154Y286509D01*
X132059Y286477D01*
X131947Y286413D01*
X131803Y286365D01*
X131660Y286285D01*
X131357Y286142D01*
X131341Y286126D01*
X131293Y286110D01*
X131213Y286062D01*
X131117Y285998D01*
X130894Y285839D01*
X130671Y285648D01*
X130655Y285632D01*
X130623Y285600D01*
X130575Y285536D01*
X130511Y285456D01*
X130432Y285360D01*
X130368Y285249D01*
X130224Y284977D01*
X130208Y284962D01*
X130192Y284914D01*
X130160Y284834D01*
X130128Y284722D01*
X130097Y284579D01*
X130081Y284419D01*
X130049Y284244D01*
Y283000D01*
X135121D01*
X135137D01*
X135169D01*
X135217Y282984D01*
X135265Y282952D01*
Y282936D01*
X135297Y282920D01*
X135313Y282872D01*
X135345Y282808D01*
Y282792D01*
X135360Y282744D01*
Y282681D01*
X135377Y282569D01*
Y282537D01*
X135392Y282473D01*
X135408Y282362D01*
Y282074D01*
X135392Y281947D01*
X135377Y281819D01*
Y281803D01*
X135360Y281739D01*
Y281660D01*
X135345Y281580D01*
Y281564D01*
X135329Y281532D01*
X135297Y281484D01*
X135265Y281452D01*
X135249D01*
X135217Y281436D01*
X135121Y281420D01*
X124115D01*
X124099D01*
X124051D01*
X123987Y281436D01*
X123908D01*
X123748Y281500D01*
X123668Y281532D01*
X123604Y281596D01*
Y281612D01*
X123589Y281628D01*
X123525Y281723D01*
X123477Y281851D01*
X123461Y281995D01*
Y284786D01*
X123477Y285041D01*
X123493Y285281D01*
Y285392D01*
X123509Y285456D01*
X123525Y285632D01*
X123541Y285823D01*
Y285855D01*
X123557Y285935D01*
X123589Y286062D01*
X123636Y286238D01*
X123684Y286413D01*
X123748Y286621D01*
X123924Y287035D01*
X123940Y287051D01*
X123971Y287131D01*
X124019Y287227D01*
X124099Y287338D01*
X124195Y287482D01*
X124306Y287625D01*
X124434Y287769D01*
X124578Y287913D01*
X124593Y287929D01*
X124641Y287976D01*
X124721Y288040D01*
X124833Y288120D01*
X124960Y288200D01*
X125120Y288295D01*
X125279Y288375D01*
X125471Y288455D01*
X125487Y288471D01*
X125567Y288487D01*
X125662Y288519D01*
X125806Y288551D01*
X125965Y288582D01*
X126157Y288614D01*
X126380Y288646D01*
X126603D01*
X126635D01*
X126699D01*
X126811Y288630D01*
X126954D01*
X127130Y288598D01*
X127305Y288567D01*
X127481Y288535D01*
X127672Y288471D01*
X127688D01*
X127752Y288439D01*
X127847Y288407D01*
X127959Y288359D01*
X128087Y288295D01*
X128230Y288216D01*
X128518Y288008D01*
X128533Y287992D01*
X128581Y287960D01*
X128645Y287897D01*
X128725Y287801D01*
X128820Y287689D01*
X128932Y287578D01*
X129028Y287434D01*
X129140Y287274D01*
X129156Y287259D01*
X129187Y287195D01*
X129235Y287115D01*
X129299Y287003D01*
X129363Y286860D01*
X129443Y286700D01*
X129522Y286525D01*
X129586Y286333D01*
Y286349D01*
X129602Y286381D01*
X129634Y286445D01*
X129682Y286509D01*
X129778Y286684D01*
X129921Y286876D01*
X129937Y286892D01*
X129953Y286924D01*
X130001Y286956D01*
X130049Y287019D01*
X130208Y287163D01*
X130400Y287322D01*
X130416Y287338D01*
X130448Y287354D01*
X130511Y287402D01*
X130575Y287450D01*
X130671Y287514D01*
X130782Y287578D01*
X131038Y287705D01*
X131054Y287721D01*
X131102Y287737D01*
X131165Y287769D01*
X131261Y287817D01*
X131389Y287881D01*
X131516Y287945D01*
X131835Y288072D01*
X134451Y289141D01*
X134467D01*
X134499Y289157D01*
X134563Y289189D01*
X134627Y289205D01*
X134786Y289268D01*
X134850Y289284D01*
X134914Y289300D01*
X134930Y289316D01*
X134994Y289332D01*
X135057Y289348D01*
X135121D01*
X135137D01*
X135169D01*
X135265Y289316D01*
D02*
G37*
G36*
X124354Y279682D02*
X124450Y279666D01*
X124466D01*
X124530Y279650D01*
X124593Y279634D01*
X124657Y279602D01*
X124673D01*
X124705Y279586D01*
X124737Y279554D01*
X124769Y279506D01*
Y279490D01*
X124785Y279474D01*
X124801Y279379D01*
Y276045D01*
X135121D01*
X135137D01*
X135169D01*
X135217Y276029D01*
X135265Y275997D01*
X135297Y275965D01*
X135313Y275933D01*
X135345Y275869D01*
Y275853D01*
X135360Y275806D01*
Y275726D01*
X135377Y275614D01*
Y275582D01*
X135392Y275518D01*
X135408Y275407D01*
Y275120D01*
X135392Y274992D01*
X135377Y274865D01*
Y274848D01*
X135360Y274785D01*
Y274705D01*
X135345Y274625D01*
Y274609D01*
X135329Y274577D01*
X135297Y274529D01*
X135265Y274498D01*
X135249D01*
X135217Y274482D01*
X135121Y274466D01*
X124801D01*
Y271068D01*
X124769Y270972D01*
X124737Y270940D01*
X124705Y270909D01*
X124657Y270877D01*
X124641D01*
X124593Y270861D01*
X124530Y270845D01*
X124450Y270829D01*
X124434D01*
X124370D01*
X124275Y270813D01*
X124147D01*
X124131D01*
X124115D01*
X124035D01*
X123940D01*
X123844Y270829D01*
X123812D01*
X123764Y270845D01*
X123684Y270861D01*
X123621Y270877D01*
X123604Y270893D01*
X123573Y270909D01*
X123541Y270940D01*
X123509Y270972D01*
X123493Y270988D01*
X123477Y271020D01*
X123461Y271068D01*
Y279426D01*
X123477Y279474D01*
X123509Y279506D01*
Y279522D01*
X123541Y279538D01*
X123573Y279570D01*
X123621Y279602D01*
X123636Y279618D01*
X123684Y279634D01*
X123748Y279650D01*
X123844Y279666D01*
X123860D01*
X123924Y279682D01*
X124019Y279698D01*
X124147D01*
X124179D01*
X124243D01*
X124354Y279682D01*
D02*
G37*
G36*
X132330Y269983D02*
X132537Y269967D01*
X132760Y269920D01*
X133016Y269872D01*
X133271Y269792D01*
X133526Y269680D01*
X133558Y269664D01*
X133638Y269632D01*
X133750Y269553D01*
X133909Y269457D01*
X134084Y269329D01*
X134276Y269186D01*
X134467Y269010D01*
X134643Y268819D01*
X134659Y268787D01*
X134722Y268723D01*
X134802Y268612D01*
X134898Y268452D01*
X135010Y268261D01*
X135105Y268053D01*
X135217Y267798D01*
X135313Y267527D01*
X135329Y267495D01*
X135345Y267399D01*
X135377Y267256D01*
X135424Y267048D01*
X135472Y266825D01*
X135504Y266554D01*
X135520Y266267D01*
X135536Y265948D01*
Y265724D01*
X135520Y265581D01*
Y265405D01*
X135488Y265214D01*
X135440Y264831D01*
Y264815D01*
X135424Y264751D01*
X135408Y264656D01*
X135377Y264528D01*
X135345Y264384D01*
X135297Y264225D01*
X135201Y263922D01*
Y263906D01*
X135169Y263858D01*
X135137Y263778D01*
X135105Y263683D01*
X134994Y263475D01*
X134882Y263252D01*
Y263236D01*
X134850Y263204D01*
X134786Y263108D01*
X134706Y262981D01*
X134611Y262869D01*
X134595Y262853D01*
X134531Y262821D01*
X134451Y262773D01*
X134340Y262726D01*
X134324D01*
X134308D01*
X134212Y262710D01*
X134068Y262694D01*
X133877Y262678D01*
X133861D01*
X133845D01*
X133765D01*
X133654D01*
X133558Y262694D01*
X133526D01*
X133478Y262710D01*
X133399Y262726D01*
X133335Y262742D01*
X133319D01*
X133287Y262757D01*
X133255Y262789D01*
X133223Y262821D01*
X133207Y262837D01*
X133191Y262869D01*
X133175Y262917D01*
Y262997D01*
X133191Y263061D01*
X133239Y263172D01*
X133335Y263316D01*
Y263332D01*
X133367Y263364D01*
X133399Y263412D01*
X133430Y263475D01*
X133494Y263571D01*
X133542Y263667D01*
X133686Y263922D01*
Y263938D01*
X133718Y263986D01*
X133750Y264065D01*
X133797Y264177D01*
X133845Y264305D01*
X133893Y264464D01*
X133957Y264624D01*
X134021Y264815D01*
Y264847D01*
X134052Y264911D01*
X134068Y265023D01*
X134100Y265166D01*
X134132Y265342D01*
X134148Y265549D01*
X134180Y265772D01*
Y266203D01*
X134164Y266331D01*
X134148Y266474D01*
X134132Y266634D01*
X134052Y266953D01*
Y266969D01*
X134021Y267032D01*
X133989Y267112D01*
X133957Y267208D01*
X133829Y267447D01*
X133670Y267686D01*
X133654Y267702D01*
X133622Y267734D01*
X133574Y267798D01*
X133494Y267862D01*
X133399Y267942D01*
X133303Y268021D01*
X133048Y268165D01*
X133032Y268181D01*
X132984Y268197D01*
X132904Y268229D01*
X132808Y268261D01*
X132681Y268293D01*
X132537Y268309D01*
X132378Y268340D01*
X132202D01*
X132186D01*
X132122D01*
X132027Y268325D01*
X131899Y268309D01*
X131771Y268277D01*
X131628Y268245D01*
X131484Y268181D01*
X131341Y268101D01*
X131325Y268085D01*
X131277Y268053D01*
X131213Y268006D01*
X131133Y267942D01*
X131038Y267862D01*
X130926Y267750D01*
X130830Y267639D01*
X130719Y267495D01*
X130703Y267479D01*
X130671Y267431D01*
X130623Y267351D01*
X130543Y267240D01*
X130463Y267112D01*
X130384Y266969D01*
X130208Y266634D01*
X130192Y266618D01*
X130176Y266554D01*
X130128Y266458D01*
X130065Y266331D01*
X130001Y266187D01*
X129921Y266012D01*
X129762Y265645D01*
X129746Y265629D01*
X129714Y265565D01*
X129666Y265453D01*
X129602Y265326D01*
X129522Y265182D01*
X129443Y265007D01*
X129235Y264656D01*
X129219Y264640D01*
X129187Y264576D01*
X129124Y264480D01*
X129044Y264369D01*
X128948Y264241D01*
X128836Y264097D01*
X128565Y263794D01*
X128549Y263778D01*
X128502Y263731D01*
X128422Y263667D01*
X128310Y263587D01*
X128182Y263491D01*
X128023Y263380D01*
X127864Y263284D01*
X127672Y263188D01*
X127640Y263172D01*
X127576Y263156D01*
X127465Y263124D01*
X127321Y263076D01*
X127130Y263029D01*
X126922Y262997D01*
X126683Y262981D01*
X126412Y262965D01*
X126396D01*
X126380D01*
X126284D01*
X126141Y262981D01*
X125965Y262997D01*
X125758Y263029D01*
X125535Y263076D01*
X125311Y263140D01*
X125088Y263236D01*
X125056Y263252D01*
X124992Y263284D01*
X124881Y263348D01*
X124737Y263428D01*
X124593Y263539D01*
X124418Y263667D01*
X124258Y263810D01*
X124099Y263986D01*
X124083Y264002D01*
X124035Y264065D01*
X123955Y264177D01*
X123876Y264305D01*
X123780Y264480D01*
X123668Y264672D01*
X123573Y264895D01*
X123493Y265134D01*
X123477Y265166D01*
X123461Y265246D01*
X123429Y265389D01*
X123381Y265565D01*
X123349Y265772D01*
X123317Y266028D01*
X123301Y266283D01*
X123286Y266570D01*
Y266713D01*
X123301Y266825D01*
Y266937D01*
X123317Y267080D01*
X123365Y267367D01*
Y267383D01*
X123381Y267431D01*
X123397Y267511D01*
X123413Y267623D01*
X123429Y267734D01*
X123461Y267862D01*
X123541Y268133D01*
Y268149D01*
X123557Y268197D01*
X123589Y268261D01*
X123621Y268340D01*
X123700Y268548D01*
X123796Y268755D01*
Y268771D01*
X123812Y268803D01*
X123876Y268915D01*
X123955Y269026D01*
X123987Y269090D01*
X124019Y269122D01*
X124035Y269138D01*
X124067Y269170D01*
X124115Y269218D01*
X124163Y269234D01*
X124179D01*
X124195Y269250D01*
X124290Y269282D01*
X124306D01*
X124338Y269298D01*
X124402D01*
X124482Y269314D01*
X124498D01*
X124562Y269329D01*
X124657D01*
X124769D01*
X124801D01*
X124865D01*
X124960D01*
X125056Y269314D01*
X125072D01*
X125136Y269298D01*
X125200Y269282D01*
X125279Y269266D01*
X125295D01*
X125327Y269250D01*
X125407Y269186D01*
X125423Y269154D01*
X125439Y269074D01*
Y269058D01*
X125423Y268994D01*
X125391Y268899D01*
X125311Y268755D01*
Y268739D01*
X125295Y268723D01*
X125263Y268675D01*
X125232Y268612D01*
X125136Y268436D01*
X125024Y268213D01*
Y268197D01*
X124992Y268165D01*
X124960Y268101D01*
X124929Y268006D01*
X124881Y267894D01*
X124833Y267782D01*
X124785Y267639D01*
X124737Y267479D01*
Y267463D01*
X124721Y267399D01*
X124689Y267320D01*
X124657Y267192D01*
X124641Y267064D01*
X124609Y266889D01*
X124593Y266713D01*
Y266346D01*
X124609Y266235D01*
X124625Y266091D01*
X124657Y265948D01*
X124737Y265661D01*
Y265645D01*
X124753Y265597D01*
X124785Y265533D01*
X124833Y265453D01*
X124944Y265246D01*
X125088Y265054D01*
X125104Y265039D01*
X125120Y265023D01*
X125168Y264975D01*
X125232Y264927D01*
X125407Y264799D01*
X125614Y264688D01*
X125630D01*
X125662Y264672D01*
X125726Y264656D01*
X125806Y264640D01*
X125901Y264608D01*
X126013Y264592D01*
X126268Y264576D01*
X126284D01*
X126348D01*
X126444Y264592D01*
X126556Y264608D01*
X126699Y264624D01*
X126843Y264672D01*
X126986Y264720D01*
X127130Y264799D01*
X127146Y264815D01*
X127193Y264847D01*
X127257Y264895D01*
X127337Y264959D01*
X127433Y265039D01*
X127544Y265150D01*
X127640Y265278D01*
X127752Y265405D01*
X127768Y265421D01*
X127800Y265469D01*
X127847Y265549D01*
X127911Y265661D01*
X127991Y265788D01*
X128087Y265932D01*
X128262Y266267D01*
X128278Y266283D01*
X128294Y266346D01*
X128342Y266458D01*
X128406Y266586D01*
X128470Y266729D01*
X128549Y266905D01*
X128725Y267272D01*
X128741Y267288D01*
X128773Y267367D01*
X128820Y267463D01*
X128884Y267591D01*
X128964Y267734D01*
X129044Y267910D01*
X129251Y268261D01*
X129267Y268277D01*
X129299Y268340D01*
X129363Y268436D01*
X129427Y268564D01*
X129522Y268691D01*
X129634Y268835D01*
X129905Y269138D01*
X129921Y269154D01*
X129969Y269202D01*
X130049Y269266D01*
X130160Y269361D01*
X130288Y269457D01*
X130448Y269569D01*
X130623Y269664D01*
X130814Y269760D01*
X130830Y269776D01*
X130910Y269792D01*
X131006Y269840D01*
X131149Y269888D01*
X131341Y269920D01*
X131548Y269967D01*
X131771Y269983D01*
X132027Y269999D01*
X132043D01*
X132059D01*
X132107D01*
X132170D01*
X132330Y269983D01*
D02*
G37*
G36*
X134930Y260413D02*
X135042Y260381D01*
X135057Y260365D01*
X135121Y260333D01*
X135185Y260285D01*
X135249Y260205D01*
X135265Y260189D01*
X135297Y260142D01*
X135329Y260078D01*
X135360Y259982D01*
Y259966D01*
X135377Y259918D01*
X135392Y259838D01*
Y259073D01*
X135377Y258929D01*
X135345Y258786D01*
X135329Y258754D01*
X135297Y258674D01*
X135249Y258562D01*
X135169Y258435D01*
X135137Y258403D01*
X135073Y258339D01*
X134946Y258227D01*
X134802Y258100D01*
X134786D01*
X134754Y258068D01*
X134706Y258036D01*
X134643Y258004D01*
X134547Y257940D01*
X134451Y257892D01*
X134196Y257749D01*
X127433Y254112D01*
X127417Y254096D01*
X127337Y254064D01*
X127241Y254000D01*
X127098Y253937D01*
X126938Y253841D01*
X126763Y253745D01*
X126556Y253649D01*
X126348Y253538D01*
X126316Y253522D01*
X126252Y253490D01*
X126141Y253442D01*
X125997Y253362D01*
X125822Y253283D01*
X125630Y253203D01*
X125232Y253011D01*
Y252979D01*
X125263D01*
X125343D01*
X125471Y252995D01*
X125646D01*
X125838D01*
X126077Y253011D01*
X126316D01*
X126571D01*
X126603D01*
X126683D01*
X126827D01*
X127002Y253027D01*
X127210D01*
X127433D01*
X127688D01*
X127943D01*
X135121D01*
X135137D01*
X135153D01*
X135201Y253011D01*
X135249Y252979D01*
X135265D01*
X135281Y252948D01*
X135313Y252916D01*
X135345Y252852D01*
Y252836D01*
X135360Y252788D01*
Y252708D01*
X135377Y252597D01*
Y252565D01*
X135392Y252501D01*
X135408Y252389D01*
Y252086D01*
X135392Y251959D01*
X135377Y251831D01*
Y251815D01*
X135360Y251751D01*
Y251671D01*
X135345Y251592D01*
Y251576D01*
X135313Y251544D01*
X135297Y251512D01*
X135249Y251480D01*
X135233D01*
X135201Y251464D01*
X135121Y251448D01*
X124147D01*
X124131D01*
X124083D01*
X124019Y251464D01*
X123940Y251480D01*
X123764Y251544D01*
X123684Y251592D01*
X123621Y251656D01*
Y251671D01*
X123589Y251687D01*
X123541Y251783D01*
X123493Y251927D01*
X123461Y252102D01*
Y253043D01*
X123477Y253187D01*
X123509Y253330D01*
Y253346D01*
X123525Y253362D01*
X123541Y253442D01*
X123589Y253554D01*
X123668Y253665D01*
X123684Y253697D01*
X123748Y253761D01*
X123844Y253857D01*
X123971Y253953D01*
X124003Y253984D01*
X124099Y254048D01*
X124243Y254144D01*
X124434Y254256D01*
X129650Y257047D01*
X129666Y257063D01*
X129730Y257095D01*
X129825Y257143D01*
X129953Y257206D01*
X130097Y257286D01*
X130256Y257366D01*
X130591Y257542D01*
X130607Y257557D01*
X130671Y257589D01*
X130751Y257637D01*
X130862Y257685D01*
X131006Y257765D01*
X131149Y257845D01*
X131484Y258004D01*
X131500Y258020D01*
X131564Y258036D01*
X131644Y258084D01*
X131756Y258148D01*
X131899Y258211D01*
X132043Y258275D01*
X132362Y258435D01*
X132378Y258451D01*
X132425Y258467D01*
X132521Y258514D01*
X132617Y258578D01*
X132745Y258642D01*
X132888Y258722D01*
X133207Y258881D01*
X133191D01*
X133175D01*
X133080D01*
X132936D01*
X132745D01*
X132521Y258865D01*
X132266D01*
X131995D01*
X131708D01*
X131692D01*
X131676D01*
X131628D01*
X131564D01*
X131421D01*
X131213D01*
X130990D01*
X130735D01*
X130192D01*
X123748D01*
X123732D01*
X123716D01*
X123636Y258897D01*
X123621D01*
X123604Y258929D01*
X123573Y258961D01*
X123541Y259025D01*
X123525Y259041D01*
X123509Y259089D01*
X123493Y259168D01*
X123477Y259264D01*
Y259296D01*
X123461Y259376D01*
X123445Y259503D01*
Y259791D01*
X123461Y259902D01*
X123477Y260030D01*
Y260062D01*
X123493Y260126D01*
X123509Y260205D01*
X123541Y260269D01*
Y260285D01*
X123557Y260317D01*
X123589Y260365D01*
X123636Y260397D01*
Y260413D01*
X123668Y260429D01*
X123700Y260445D01*
X123748D01*
X134722D01*
X134754D01*
X134834D01*
X134930Y260413D01*
D02*
G37*
G36*
X135217Y248274D02*
X135265Y248242D01*
X135297Y248210D01*
X135313Y248178D01*
X135345Y248114D01*
Y248098D01*
X135360Y248050D01*
Y247971D01*
X135377Y247859D01*
Y247827D01*
X135392Y247763D01*
X135408Y247652D01*
Y247365D01*
X135392Y247237D01*
X135377Y247109D01*
Y247093D01*
X135360Y247030D01*
Y246950D01*
X135345Y246870D01*
Y246854D01*
X135329Y246822D01*
X135297Y246774D01*
X135265Y246742D01*
X135249D01*
X135217Y246727D01*
X135121Y246711D01*
X123716D01*
X123700D01*
X123668D01*
X123589Y246742D01*
X123573Y246758D01*
X123557Y246774D01*
X123525Y246822D01*
X123493Y246886D01*
Y246902D01*
X123477Y246950D01*
X123461Y247030D01*
X123445Y247125D01*
Y247157D01*
X123429Y247237D01*
X123413Y247349D01*
Y247620D01*
X123429Y247747D01*
X123445Y247859D01*
Y247891D01*
X123461Y247955D01*
X123477Y248035D01*
X123493Y248114D01*
Y248130D01*
X123509Y248162D01*
X123541Y248210D01*
X123589Y248242D01*
X123604Y248258D01*
X123621Y248274D01*
X123668Y248290D01*
X123716D01*
X135121D01*
X135137D01*
X135169D01*
X135217Y248274D01*
D02*
G37*
G36*
X275041Y445849D02*
X275180Y445836D01*
X275332Y445822D01*
X275513Y445808D01*
X275901Y445752D01*
X276331Y445669D01*
X276761Y445558D01*
X277191Y445406D01*
X277204D01*
X277246Y445392D01*
X277302Y445364D01*
X277371Y445322D01*
X277468Y445281D01*
X277579Y445225D01*
X277829Y445087D01*
X278120Y444907D01*
X278411Y444698D01*
X278688Y444449D01*
X278952Y444158D01*
X278966Y444144D01*
X278980Y444116D01*
X279007Y444074D01*
X279063Y444019D01*
X279104Y443936D01*
X279174Y443839D01*
X279243Y443728D01*
X279312Y443589D01*
X279396Y443450D01*
X279465Y443298D01*
X279548Y443117D01*
X279631Y442937D01*
X279784Y442521D01*
X279923Y442063D01*
X278383Y441647D01*
Y441661D01*
X278369Y441689D01*
X278356Y441744D01*
X278328Y441814D01*
X278300Y441883D01*
X278272Y441980D01*
X278189Y442202D01*
X278078Y442452D01*
X277953Y442701D01*
X277815Y442951D01*
X277662Y443173D01*
X277648Y443201D01*
X277579Y443270D01*
X277482Y443367D01*
X277357Y443506D01*
X277177Y443644D01*
X276969Y443797D01*
X276719Y443936D01*
X276442Y444074D01*
X276428D01*
X276400Y444088D01*
X276359Y444102D01*
X276303Y444130D01*
X276234Y444158D01*
X276137Y444185D01*
X275929Y444255D01*
X275665Y444310D01*
X275374Y444366D01*
X275041Y444407D01*
X274694Y444421D01*
X274500D01*
X274403Y444407D01*
X274278D01*
X274153Y444393D01*
X274001Y444380D01*
X273696Y444338D01*
X273349Y444268D01*
X273016Y444185D01*
X272683Y444061D01*
X272670D01*
X272642Y444047D01*
X272600Y444019D01*
X272545Y443991D01*
X272392Y443922D01*
X272198Y443811D01*
X271976Y443672D01*
X271754Y443506D01*
X271518Y443326D01*
X271310Y443117D01*
X271283Y443090D01*
X271227Y443020D01*
X271130Y442896D01*
X271019Y442743D01*
X270894Y442563D01*
X270756Y442341D01*
X270631Y442105D01*
X270520Y441855D01*
Y441842D01*
X270506Y441800D01*
X270478Y441744D01*
X270451Y441647D01*
X270409Y441536D01*
X270367Y441412D01*
X270326Y441259D01*
X270284Y441093D01*
X270229Y440912D01*
X270187Y440704D01*
X270118Y440274D01*
X270062Y439789D01*
X270035Y439276D01*
Y439262D01*
Y439207D01*
Y439109D01*
X270048Y438998D01*
Y438846D01*
X270062Y438680D01*
X270090Y438485D01*
X270104Y438277D01*
X270173Y437820D01*
X270284Y437348D01*
X270423Y436863D01*
X270617Y436405D01*
X270631Y436391D01*
X270645Y436350D01*
X270672Y436294D01*
X270728Y436211D01*
X270783Y436128D01*
X270867Y436017D01*
X271047Y435767D01*
X271297Y435490D01*
X271588Y435199D01*
X271921Y434935D01*
X272115Y434810D01*
X272323Y434699D01*
X272337D01*
X272378Y434672D01*
X272434Y434644D01*
X272517Y434616D01*
X272628Y434575D01*
X272753Y434519D01*
X272891Y434477D01*
X273044Y434422D01*
X273210Y434366D01*
X273405Y434325D01*
X273807Y434228D01*
X274251Y434172D01*
X274722Y434145D01*
X274833D01*
X274916Y434158D01*
X275013D01*
X275124Y434172D01*
X275249Y434186D01*
X275402Y434200D01*
X275721Y434242D01*
X276081Y434325D01*
X276469Y434422D01*
X276858Y434561D01*
X276872D01*
X276899Y434575D01*
X276955Y434602D01*
X277038Y434630D01*
X277121Y434672D01*
X277218Y434727D01*
X277454Y434838D01*
X277718Y434977D01*
X277981Y435129D01*
X278231Y435282D01*
X278453Y435462D01*
Y437861D01*
X274694D01*
Y439373D01*
X280117D01*
Y434616D01*
X280103Y434602D01*
X280061Y434575D01*
X279992Y434519D01*
X279895Y434450D01*
X279784Y434366D01*
X279645Y434283D01*
X279493Y434172D01*
X279326Y434061D01*
X279146Y433950D01*
X278938Y433826D01*
X278508Y433576D01*
X278037Y433340D01*
X277537Y433132D01*
X277523D01*
X277482Y433104D01*
X277412Y433091D01*
X277302Y433049D01*
X277191Y433021D01*
X277038Y432980D01*
X276886Y432924D01*
X276705Y432882D01*
X276497Y432841D01*
X276289Y432785D01*
X275832Y432716D01*
X275332Y432661D01*
X274819Y432633D01*
X274639D01*
X274500Y432647D01*
X274334Y432661D01*
X274140Y432674D01*
X273918Y432702D01*
X273682Y432730D01*
X273432Y432772D01*
X273155Y432827D01*
X272878Y432896D01*
X272572Y432980D01*
X272281Y433063D01*
X271990Y433174D01*
X271685Y433299D01*
X271394Y433437D01*
X271380Y433451D01*
X271324Y433479D01*
X271241Y433521D01*
X271144Y433590D01*
X271019Y433673D01*
X270867Y433770D01*
X270700Y433895D01*
X270520Y434034D01*
X270340Y434186D01*
X270145Y434366D01*
X269951Y434547D01*
X269757Y434755D01*
X269577Y434991D01*
X269397Y435226D01*
X269216Y435490D01*
X269064Y435767D01*
X269050Y435781D01*
X269036Y435836D01*
X268994Y435920D01*
X268939Y436031D01*
X268883Y436183D01*
X268814Y436350D01*
X268745Y436544D01*
X268675Y436766D01*
X268606Y437001D01*
X268537Y437265D01*
X268467Y437556D01*
X268412Y437847D01*
X268356Y438166D01*
X268315Y438485D01*
X268301Y438832D01*
X268287Y439179D01*
Y439207D01*
Y439262D01*
Y439359D01*
X268301Y439498D01*
X268315Y439664D01*
X268329Y439858D01*
X268356Y440080D01*
X268384Y440316D01*
X268426Y440579D01*
X268481Y440857D01*
X268620Y441439D01*
X268703Y441744D01*
X268814Y442050D01*
X268925Y442355D01*
X269064Y442660D01*
X269078Y442674D01*
X269105Y442729D01*
X269147Y442812D01*
X269202Y442923D01*
X269286Y443062D01*
X269383Y443214D01*
X269508Y443381D01*
X269632Y443575D01*
X269785Y443769D01*
X269951Y443963D01*
X270132Y444158D01*
X270340Y444366D01*
X270548Y444560D01*
X270783Y444740D01*
X271033Y444920D01*
X271297Y445073D01*
X271310Y445087D01*
X271366Y445101D01*
X271449Y445142D01*
X271560Y445198D01*
X271699Y445253D01*
X271865Y445322D01*
X272059Y445392D01*
X272267Y445475D01*
X272503Y445544D01*
X272767Y445614D01*
X273044Y445683D01*
X273349Y445739D01*
X273654Y445794D01*
X273987Y445836D01*
X274334Y445849D01*
X274680Y445863D01*
X274916D01*
X275041Y445849D01*
D02*
G37*
G36*
X265888Y438250D02*
Y438222D01*
Y438166D01*
Y438069D01*
Y437931D01*
X265874Y437764D01*
X265860Y437584D01*
X265846Y437376D01*
X265832Y437140D01*
X265777Y436655D01*
X265708Y436142D01*
X265597Y435642D01*
X265527Y435407D01*
X265444Y435185D01*
Y435171D01*
X265430Y435129D01*
X265403Y435074D01*
X265361Y434991D01*
X265305Y434893D01*
X265250Y434782D01*
X265084Y434533D01*
X264986Y434380D01*
X264876Y434242D01*
X264737Y434075D01*
X264598Y433923D01*
X264432Y433770D01*
X264265Y433618D01*
X264071Y433479D01*
X263863Y433340D01*
X263849Y433326D01*
X263808Y433312D01*
X263752Y433271D01*
X263655Y433229D01*
X263544Y433174D01*
X263405Y433118D01*
X263253Y433049D01*
X263059Y432994D01*
X262864Y432924D01*
X262643Y432855D01*
X262393Y432799D01*
X262129Y432744D01*
X261838Y432702D01*
X261533Y432661D01*
X261214Y432647D01*
X260881Y432633D01*
X260701D01*
X260576Y432647D01*
X260424D01*
X260257Y432661D01*
X260049Y432688D01*
X259841Y432716D01*
X259370Y432785D01*
X258870Y432896D01*
X258385Y433049D01*
X258149Y433132D01*
X257927Y433243D01*
X257913Y433257D01*
X257872Y433271D01*
X257817Y433312D01*
X257747Y433354D01*
X257650Y433423D01*
X257539Y433507D01*
X257428Y433590D01*
X257303Y433701D01*
X257026Y433950D01*
X256763Y434255D01*
X256513Y434616D01*
X256402Y434824D01*
X256305Y435032D01*
Y435046D01*
X256291Y435088D01*
X256263Y435157D01*
X256236Y435254D01*
X256194Y435365D01*
X256152Y435518D01*
X256111Y435684D01*
X256069Y435878D01*
X256014Y436100D01*
X255972Y436336D01*
X255930Y436599D01*
X255903Y436890D01*
X255861Y437196D01*
X255847Y437528D01*
X255819Y437875D01*
Y438250D01*
Y445642D01*
X257511D01*
Y438250D01*
Y438236D01*
Y438180D01*
Y438097D01*
Y437972D01*
X257525Y437834D01*
Y437681D01*
X257539Y437501D01*
X257553Y437320D01*
X257581Y436918D01*
X257636Y436516D01*
X257719Y436128D01*
X257761Y435947D01*
X257817Y435795D01*
Y435781D01*
X257830Y435767D01*
X257844Y435726D01*
X257872Y435670D01*
X257955Y435518D01*
X258066Y435351D01*
X258205Y435143D01*
X258385Y434949D01*
X258607Y434755D01*
X258870Y434575D01*
X258884D01*
X258912Y434561D01*
X258954Y434533D01*
X259009Y434505D01*
X259079Y434477D01*
X259176Y434450D01*
X259273Y434408D01*
X259384Y434366D01*
X259661Y434297D01*
X259980Y434228D01*
X260340Y434172D01*
X260729Y434158D01*
X260909D01*
X261034Y434172D01*
X261187Y434186D01*
X261367Y434200D01*
X261561Y434228D01*
X261769Y434269D01*
X262199Y434366D01*
X262421Y434436D01*
X262643Y434519D01*
X262851Y434616D01*
X263045Y434727D01*
X263225Y434852D01*
X263391Y435004D01*
X263405Y435018D01*
X263433Y435046D01*
X263461Y435102D01*
X263516Y435171D01*
X263572Y435268D01*
X263641Y435393D01*
X263724Y435545D01*
X263794Y435726D01*
X263863Y435934D01*
X263946Y436169D01*
X264016Y436433D01*
X264071Y436724D01*
X264127Y437057D01*
X264168Y437417D01*
X264182Y437820D01*
X264196Y438250D01*
Y445642D01*
X265888D01*
Y438250D01*
D02*
G37*
G36*
X288590Y437348D02*
X290324D01*
Y435906D01*
X288590D01*
Y432841D01*
X287023D01*
Y435906D01*
X281448D01*
Y437348D01*
X287301Y445642D01*
X288590D01*
Y437348D01*
D02*
G37*
G36*
X306300Y445669D02*
X306439Y445655D01*
X306605Y445628D01*
X306786Y445600D01*
X306994Y445558D01*
X307202Y445503D01*
X307424Y445447D01*
X307646Y445364D01*
X307868Y445267D01*
X308103Y445156D01*
X308311Y445017D01*
X308533Y444879D01*
X308727Y444698D01*
X308741Y444685D01*
X308769Y444657D01*
X308824Y444601D01*
X308894Y444532D01*
X308963Y444435D01*
X309046Y444324D01*
X309143Y444185D01*
X309240Y444047D01*
X309338Y443880D01*
X309435Y443700D01*
X309518Y443506D01*
X309587Y443298D01*
X309657Y443076D01*
X309712Y442840D01*
X309740Y442590D01*
X309754Y442341D01*
Y442327D01*
Y442299D01*
Y442258D01*
Y442188D01*
X309740Y442119D01*
X309726Y442022D01*
X309698Y441814D01*
X309643Y441578D01*
X309559Y441315D01*
X309435Y441051D01*
X309282Y440788D01*
Y440774D01*
X309254Y440760D01*
X309199Y440677D01*
X309088Y440566D01*
X308935Y440413D01*
X308727Y440261D01*
X308492Y440080D01*
X308200Y439928D01*
X307868Y439775D01*
X307881D01*
X307923Y439761D01*
X307978Y439734D01*
X308062Y439706D01*
X308159Y439664D01*
X308270Y439609D01*
X308533Y439470D01*
X308824Y439304D01*
X309116Y439082D01*
X309407Y438832D01*
X309657Y438527D01*
X309670Y438513D01*
X309684Y438485D01*
X309712Y438444D01*
X309754Y438374D01*
X309795Y438291D01*
X309851Y438194D01*
X309906Y438083D01*
X309975Y437958D01*
X310086Y437667D01*
X310184Y437320D01*
X310253Y436932D01*
X310281Y436724D01*
Y436502D01*
Y436488D01*
Y436433D01*
X310267Y436350D01*
Y436225D01*
X310239Y436086D01*
X310225Y435920D01*
X310184Y435739D01*
X310142Y435545D01*
X310073Y435323D01*
X310003Y435102D01*
X309906Y434880D01*
X309795Y434644D01*
X309657Y434408D01*
X309504Y434186D01*
X309324Y433950D01*
X309116Y433742D01*
X309102Y433728D01*
X309060Y433701D01*
X308991Y433645D01*
X308908Y433576D01*
X308783Y433479D01*
X308644Y433396D01*
X308478Y433285D01*
X308297Y433188D01*
X308089Y433091D01*
X307854Y432980D01*
X307604Y432896D01*
X307341Y432813D01*
X307049Y432730D01*
X306744Y432674D01*
X306411Y432647D01*
X306065Y432633D01*
X305981D01*
X305884Y432647D01*
X305746D01*
X305593Y432661D01*
X305399Y432688D01*
X305191Y432730D01*
X304969Y432772D01*
X304733Y432827D01*
X304484Y432910D01*
X304234Y432994D01*
X303971Y433104D01*
X303721Y433229D01*
X303471Y433382D01*
X303222Y433548D01*
X303000Y433742D01*
X302986Y433756D01*
X302944Y433798D01*
X302889Y433853D01*
X302819Y433950D01*
X302736Y434061D01*
X302639Y434186D01*
X302528Y434339D01*
X302431Y434519D01*
X302320Y434713D01*
X302209Y434921D01*
X302112Y435157D01*
X302029Y435393D01*
X301960Y435656D01*
X301904Y435947D01*
X301863Y436239D01*
X301849Y436544D01*
Y436558D01*
Y436599D01*
Y436669D01*
X301863Y436752D01*
Y436863D01*
X301876Y436988D01*
X301904Y437126D01*
X301932Y437279D01*
X302001Y437598D01*
X302112Y437944D01*
X302265Y438291D01*
X302362Y438458D01*
X302473Y438624D01*
X302487Y438638D01*
X302500Y438666D01*
X302542Y438707D01*
X302598Y438763D01*
X302653Y438832D01*
X302736Y438901D01*
X302833Y438998D01*
X302944Y439082D01*
X303194Y439276D01*
X303499Y439470D01*
X303860Y439636D01*
X304276Y439775D01*
X304262D01*
X304234Y439789D01*
X304179Y439817D01*
X304123Y439845D01*
X304040Y439872D01*
X303943Y439928D01*
X303735Y440039D01*
X303499Y440177D01*
X303263Y440358D01*
X303027Y440552D01*
X302833Y440788D01*
Y440801D01*
X302819Y440815D01*
X302792Y440857D01*
X302764Y440912D01*
X302681Y441051D01*
X302598Y441231D01*
X302514Y441467D01*
X302431Y441744D01*
X302376Y442050D01*
X302362Y442382D01*
Y442396D01*
Y442438D01*
X302376Y442521D01*
Y442618D01*
X302390Y442729D01*
X302417Y442868D01*
X302445Y443020D01*
X302487Y443201D01*
X302542Y443381D01*
X302611Y443561D01*
X302681Y443755D01*
X302778Y443963D01*
X302903Y444158D01*
X303027Y444352D01*
X303180Y444546D01*
X303360Y444726D01*
X303374Y444740D01*
X303402Y444768D01*
X303457Y444809D01*
X303541Y444879D01*
X303638Y444948D01*
X303762Y445031D01*
X303901Y445115D01*
X304068Y445212D01*
X304248Y445295D01*
X304456Y445378D01*
X304664Y445461D01*
X304900Y445531D01*
X305163Y445600D01*
X305427Y445642D01*
X305718Y445669D01*
X306023Y445683D01*
X306189D01*
X306300Y445669D01*
D02*
G37*
G36*
X296357D02*
X296495Y445655D01*
X296662Y445628D01*
X296842Y445600D01*
X297050Y445558D01*
X297258Y445503D01*
X297480Y445447D01*
X297702Y445364D01*
X297924Y445267D01*
X298160Y445156D01*
X298368Y445017D01*
X298589Y444879D01*
X298784Y444698D01*
X298798Y444685D01*
X298825Y444657D01*
X298881Y444601D01*
X298950Y444532D01*
X299020Y444435D01*
X299103Y444324D01*
X299200Y444185D01*
X299297Y444047D01*
X299394Y443880D01*
X299491Y443700D01*
X299574Y443506D01*
X299643Y443298D01*
X299713Y443076D01*
X299768Y442840D01*
X299796Y442590D01*
X299810Y442341D01*
Y442327D01*
Y442299D01*
Y442258D01*
Y442188D01*
X299796Y442119D01*
X299782Y442022D01*
X299755Y441814D01*
X299699Y441578D01*
X299616Y441315D01*
X299491Y441051D01*
X299338Y440788D01*
Y440774D01*
X299311Y440760D01*
X299255Y440677D01*
X299144Y440566D01*
X298992Y440413D01*
X298784Y440261D01*
X298548Y440080D01*
X298257Y439928D01*
X297924Y439775D01*
X297938D01*
X297979Y439761D01*
X298035Y439734D01*
X298118Y439706D01*
X298215Y439664D01*
X298326Y439609D01*
X298589Y439470D01*
X298881Y439304D01*
X299172Y439082D01*
X299463Y438832D01*
X299713Y438527D01*
X299727Y438513D01*
X299741Y438485D01*
X299768Y438444D01*
X299810Y438374D01*
X299852Y438291D01*
X299907Y438194D01*
X299963Y438083D01*
X300032Y437958D01*
X300143Y437667D01*
X300240Y437320D01*
X300309Y436932D01*
X300337Y436724D01*
Y436502D01*
Y436488D01*
Y436433D01*
X300323Y436350D01*
Y436225D01*
X300295Y436086D01*
X300282Y435920D01*
X300240Y435739D01*
X300198Y435545D01*
X300129Y435323D01*
X300060Y435102D01*
X299963Y434880D01*
X299852Y434644D01*
X299713Y434408D01*
X299560Y434186D01*
X299380Y433950D01*
X299172Y433742D01*
X299158Y433728D01*
X299116Y433701D01*
X299047Y433645D01*
X298964Y433576D01*
X298839Y433479D01*
X298701Y433396D01*
X298534Y433285D01*
X298354Y433188D01*
X298146Y433091D01*
X297910Y432980D01*
X297660Y432896D01*
X297397Y432813D01*
X297106Y432730D01*
X296800Y432674D01*
X296468Y432647D01*
X296121Y432633D01*
X296038D01*
X295941Y432647D01*
X295802D01*
X295649Y432661D01*
X295455Y432688D01*
X295247Y432730D01*
X295025Y432772D01*
X294790Y432827D01*
X294540Y432910D01*
X294290Y432994D01*
X294027Y433104D01*
X293777Y433229D01*
X293528Y433382D01*
X293278Y433548D01*
X293056Y433742D01*
X293042Y433756D01*
X293001Y433798D01*
X292945Y433853D01*
X292876Y433950D01*
X292793Y434061D01*
X292696Y434186D01*
X292584Y434339D01*
X292488Y434519D01*
X292376Y434713D01*
X292266Y434921D01*
X292169Y435157D01*
X292085Y435393D01*
X292016Y435656D01*
X291961Y435947D01*
X291919Y436239D01*
X291905Y436544D01*
Y436558D01*
Y436599D01*
Y436669D01*
X291919Y436752D01*
Y436863D01*
X291933Y436988D01*
X291961Y437126D01*
X291988Y437279D01*
X292057Y437598D01*
X292169Y437944D01*
X292321Y438291D01*
X292418Y438458D01*
X292529Y438624D01*
X292543Y438638D01*
X292557Y438666D01*
X292598Y438707D01*
X292654Y438763D01*
X292709Y438832D01*
X292793Y438901D01*
X292890Y438998D01*
X293001Y439082D01*
X293250Y439276D01*
X293555Y439470D01*
X293916Y439636D01*
X294332Y439775D01*
X294318D01*
X294290Y439789D01*
X294235Y439817D01*
X294179Y439845D01*
X294096Y439872D01*
X293999Y439928D01*
X293791Y440039D01*
X293555Y440177D01*
X293320Y440358D01*
X293084Y440552D01*
X292890Y440788D01*
Y440801D01*
X292876Y440815D01*
X292848Y440857D01*
X292820Y440912D01*
X292737Y441051D01*
X292654Y441231D01*
X292571Y441467D01*
X292488Y441744D01*
X292432Y442050D01*
X292418Y442382D01*
Y442396D01*
Y442438D01*
X292432Y442521D01*
Y442618D01*
X292446Y442729D01*
X292474Y442868D01*
X292501Y443020D01*
X292543Y443201D01*
X292598Y443381D01*
X292668Y443561D01*
X292737Y443755D01*
X292834Y443963D01*
X292959Y444158D01*
X293084Y444352D01*
X293236Y444546D01*
X293417Y444726D01*
X293431Y444740D01*
X293458Y444768D01*
X293514Y444809D01*
X293597Y444879D01*
X293694Y444948D01*
X293819Y445031D01*
X293958Y445115D01*
X294124Y445212D01*
X294304Y445295D01*
X294512Y445378D01*
X294720Y445461D01*
X294956Y445531D01*
X295219Y445600D01*
X295483Y445642D01*
X295774Y445669D01*
X296079Y445683D01*
X296246D01*
X296357Y445669D01*
D02*
G37*
G36*
X225274Y430059D02*
X225427Y430045D01*
X225579Y430031D01*
X225760Y430017D01*
X226148Y429962D01*
X226578Y429879D01*
X227008Y429754D01*
X227424Y429601D01*
X227438D01*
X227465Y429574D01*
X227535Y429560D01*
X227604Y429518D01*
X227687Y429463D01*
X227798Y429407D01*
X228034Y429268D01*
X228311Y429074D01*
X228589Y428839D01*
X228852Y428575D01*
X229088Y428256D01*
X229102Y428242D01*
X229116Y428214D01*
X229144Y428173D01*
X229185Y428103D01*
X229227Y428020D01*
X229282Y427923D01*
X229324Y427798D01*
X229393Y427674D01*
X229504Y427382D01*
X229601Y427036D01*
X229684Y426661D01*
X229726Y426245D01*
X228103Y426120D01*
Y426134D01*
X228090Y426176D01*
Y426231D01*
X228076Y426315D01*
X228048Y426425D01*
X228020Y426536D01*
X227937Y426800D01*
X227826Y427091D01*
X227660Y427396D01*
X227465Y427687D01*
X227341Y427812D01*
X227202Y427937D01*
X227188Y427951D01*
X227174Y427965D01*
X227119Y427993D01*
X227063Y428034D01*
X226980Y428076D01*
X226883Y428131D01*
X226772Y428187D01*
X226647Y428256D01*
X226495Y428312D01*
X226328Y428367D01*
X226148Y428423D01*
X225954Y428464D01*
X225732Y428506D01*
X225496Y428533D01*
X225247Y428561D01*
X224844D01*
X224733Y428547D01*
X224609D01*
X224470Y428533D01*
X224303Y428520D01*
X224137Y428492D01*
X223763Y428423D01*
X223402Y428325D01*
X223055Y428187D01*
X222889Y428090D01*
X222750Y427993D01*
X222736D01*
X222722Y427965D01*
X222639Y427896D01*
X222528Y427771D01*
X222404Y427604D01*
X222279Y427410D01*
X222168Y427174D01*
X222085Y426925D01*
X222071Y426786D01*
X222057Y426633D01*
Y426620D01*
Y426606D01*
X222071Y426522D01*
X222085Y426398D01*
X222112Y426245D01*
X222182Y426065D01*
X222265Y425871D01*
X222376Y425690D01*
X222542Y425510D01*
X222570Y425496D01*
X222598Y425468D01*
X222653Y425427D01*
X222722Y425385D01*
X222806Y425344D01*
X222917Y425288D01*
X223041Y425219D01*
X223194Y425149D01*
X223374Y425080D01*
X223582Y425011D01*
X223818Y424928D01*
X224095Y424844D01*
X224387Y424761D01*
X224720Y424664D01*
X225094Y424581D01*
X225122D01*
X225191Y424567D01*
X225288Y424539D01*
X225427Y424498D01*
X225593Y424470D01*
X225787Y424414D01*
X225995Y424373D01*
X226217Y424304D01*
X226689Y424179D01*
X227160Y424054D01*
X227382Y423985D01*
X227576Y423915D01*
X227771Y423846D01*
X227923Y423777D01*
X227937D01*
X227979Y423749D01*
X228034Y423721D01*
X228103Y423680D01*
X228200Y423638D01*
X228311Y423568D01*
X228547Y423416D01*
X228825Y423236D01*
X229088Y423014D01*
X229352Y422750D01*
X229463Y422612D01*
X229573Y422473D01*
Y422459D01*
X229601Y422431D01*
X229629Y422390D01*
X229657Y422334D01*
X229698Y422265D01*
X229740Y422168D01*
X229851Y421946D01*
X229948Y421682D01*
X230031Y421377D01*
X230087Y421031D01*
X230114Y420656D01*
Y420642D01*
Y420615D01*
Y420559D01*
X230100Y420490D01*
Y420393D01*
X230087Y420296D01*
X230045Y420032D01*
X229976Y419741D01*
X229865Y419422D01*
X229712Y419089D01*
X229629Y418909D01*
X229518Y418742D01*
Y418728D01*
X229490Y418701D01*
X229463Y418659D01*
X229407Y418590D01*
X229282Y418437D01*
X229088Y418229D01*
X228852Y418007D01*
X228561Y417771D01*
X228228Y417550D01*
X227840Y417342D01*
X227826D01*
X227784Y417314D01*
X227729Y417300D01*
X227646Y417258D01*
X227549Y417231D01*
X227424Y417189D01*
X227285Y417134D01*
X227119Y417092D01*
X226952Y417050D01*
X226758Y416995D01*
X226342Y416926D01*
X225884Y416870D01*
X225385Y416842D01*
X225219D01*
X225094Y416856D01*
X224941D01*
X224775Y416870D01*
X224581Y416884D01*
X224359Y416912D01*
X223901Y416967D01*
X223416Y417050D01*
X222931Y417175D01*
X222459Y417342D01*
X222445D01*
X222404Y417369D01*
X222348Y417397D01*
X222265Y417439D01*
X222168Y417494D01*
X222057Y417550D01*
X221793Y417716D01*
X221502Y417924D01*
X221197Y418188D01*
X220892Y418493D01*
X220628Y418853D01*
X220614Y418867D01*
X220601Y418895D01*
X220573Y418950D01*
X220531Y419034D01*
X220476Y419131D01*
X220420Y419242D01*
X220351Y419380D01*
X220296Y419533D01*
X220226Y419685D01*
X220171Y419866D01*
X220060Y420268D01*
X219977Y420698D01*
X219949Y420933D01*
X219935Y421169D01*
X221530Y421308D01*
Y421294D01*
Y421266D01*
X221544Y421211D01*
X221558Y421142D01*
X221571Y421058D01*
X221585Y420975D01*
X221641Y420739D01*
X221710Y420490D01*
X221793Y420226D01*
X221904Y419963D01*
X222043Y419713D01*
X222057Y419685D01*
X222126Y419616D01*
X222223Y419505D01*
X222362Y419366D01*
X222542Y419200D01*
X222764Y419047D01*
X223028Y418881D01*
X223333Y418728D01*
X223347D01*
X223374Y418715D01*
X223416Y418701D01*
X223485Y418673D01*
X223568Y418645D01*
X223666Y418604D01*
X223776Y418576D01*
X223901Y418548D01*
X224193Y418479D01*
X224539Y418410D01*
X224900Y418368D01*
X225302Y418354D01*
X225468D01*
X225552Y418368D01*
X225649D01*
X225871Y418396D01*
X226134Y418423D01*
X226425Y418465D01*
X226717Y418534D01*
X226994Y418631D01*
X227008D01*
X227022Y418645D01*
X227063Y418659D01*
X227119Y418687D01*
X227244Y418756D01*
X227410Y418839D01*
X227590Y418950D01*
X227784Y419089D01*
X227951Y419242D01*
X228103Y419422D01*
X228117Y419450D01*
X228159Y419505D01*
X228228Y419616D01*
X228298Y419755D01*
X228353Y419921D01*
X228422Y420101D01*
X228464Y420309D01*
X228478Y420518D01*
Y420531D01*
Y420545D01*
Y420615D01*
X228464Y420739D01*
X228436Y420878D01*
X228395Y421045D01*
X228325Y421225D01*
X228242Y421405D01*
X228117Y421572D01*
X228103Y421585D01*
X228048Y421641D01*
X227965Y421724D01*
X227840Y421835D01*
X227687Y421946D01*
X227479Y422071D01*
X227244Y422196D01*
X226966Y422320D01*
X226938Y422334D01*
X226911Y422348D01*
X226855Y422362D01*
X226800Y422376D01*
X226717Y422404D01*
X226606Y422445D01*
X226495Y422473D01*
X226342Y422514D01*
X226190Y422570D01*
X225995Y422612D01*
X225787Y422667D01*
X225552Y422736D01*
X225302Y422792D01*
X225011Y422875D01*
X224692Y422944D01*
X224678D01*
X224622Y422958D01*
X224525Y422986D01*
X224414Y423014D01*
X224262Y423055D01*
X224095Y423097D01*
X223929Y423153D01*
X223735Y423208D01*
X223319Y423333D01*
X222917Y423471D01*
X222722Y423541D01*
X222542Y423610D01*
X222376Y423680D01*
X222237Y423749D01*
X222223D01*
X222195Y423777D01*
X222154Y423804D01*
X222085Y423832D01*
X221918Y423929D01*
X221724Y424068D01*
X221488Y424248D01*
X221266Y424442D01*
X221044Y424678D01*
X220864Y424928D01*
Y424941D01*
X220850Y424955D01*
X220823Y424997D01*
X220795Y425052D01*
X220725Y425205D01*
X220642Y425399D01*
X220559Y425635D01*
X220490Y425912D01*
X220434Y426217D01*
X220420Y426536D01*
Y426550D01*
Y426578D01*
Y426633D01*
X220434Y426703D01*
Y426786D01*
X220448Y426883D01*
X220490Y427133D01*
X220559Y427410D01*
X220642Y427701D01*
X220781Y428020D01*
X220961Y428339D01*
Y428353D01*
X220989Y428381D01*
X221017Y428423D01*
X221058Y428478D01*
X221197Y428630D01*
X221377Y428825D01*
X221599Y429033D01*
X221877Y429241D01*
X222195Y429449D01*
X222570Y429629D01*
X222584D01*
X222612Y429643D01*
X222681Y429671D01*
X222750Y429698D01*
X222847Y429726D01*
X222972Y429768D01*
X223111Y429809D01*
X223263Y429851D01*
X223430Y429893D01*
X223610Y429934D01*
X223998Y430004D01*
X224442Y430059D01*
X224914Y430073D01*
X225149D01*
X225274Y430059D01*
D02*
G37*
G36*
X255646D02*
X255785Y430045D01*
X255937Y430031D01*
X256118Y430017D01*
X256506Y429962D01*
X256936Y429879D01*
X257366Y429768D01*
X257796Y429615D01*
X257810D01*
X257851Y429601D01*
X257907Y429574D01*
X257976Y429532D01*
X258073Y429490D01*
X258184Y429435D01*
X258434Y429296D01*
X258725Y429116D01*
X259016Y428908D01*
X259293Y428658D01*
X259557Y428367D01*
X259571Y428353D01*
X259585Y428325D01*
X259612Y428284D01*
X259668Y428228D01*
X259709Y428145D01*
X259779Y428048D01*
X259848Y427937D01*
X259918Y427798D01*
X260001Y427660D01*
X260070Y427507D01*
X260153Y427327D01*
X260236Y427147D01*
X260389Y426730D01*
X260528Y426273D01*
X258988Y425857D01*
Y425871D01*
X258974Y425898D01*
X258961Y425954D01*
X258933Y426023D01*
X258905Y426093D01*
X258877Y426190D01*
X258794Y426412D01*
X258683Y426661D01*
X258558Y426911D01*
X258420Y427160D01*
X258267Y427382D01*
X258253Y427410D01*
X258184Y427479D01*
X258087Y427576D01*
X257962Y427715D01*
X257782Y427854D01*
X257574Y428006D01*
X257324Y428145D01*
X257047Y428284D01*
X257033D01*
X257005Y428298D01*
X256964Y428312D01*
X256908Y428339D01*
X256839Y428367D01*
X256742Y428395D01*
X256534Y428464D01*
X256270Y428520D01*
X255979Y428575D01*
X255646Y428617D01*
X255299Y428630D01*
X255105D01*
X255008Y428617D01*
X254883D01*
X254758Y428603D01*
X254606Y428589D01*
X254301Y428547D01*
X253954Y428478D01*
X253621Y428395D01*
X253288Y428270D01*
X253275D01*
X253247Y428256D01*
X253205Y428228D01*
X253150Y428201D01*
X252997Y428131D01*
X252803Y428020D01*
X252581Y427882D01*
X252359Y427715D01*
X252124Y427535D01*
X251915Y427327D01*
X251888Y427299D01*
X251832Y427230D01*
X251735Y427105D01*
X251624Y426952D01*
X251499Y426772D01*
X251361Y426550D01*
X251236Y426315D01*
X251125Y426065D01*
Y426051D01*
X251111Y426009D01*
X251083Y425954D01*
X251056Y425857D01*
X251014Y425746D01*
X250972Y425621D01*
X250931Y425468D01*
X250889Y425302D01*
X250834Y425122D01*
X250792Y424914D01*
X250723Y424484D01*
X250667Y423998D01*
X250640Y423485D01*
Y423471D01*
Y423416D01*
Y423319D01*
X250653Y423208D01*
Y423055D01*
X250667Y422889D01*
X250695Y422695D01*
X250709Y422487D01*
X250778Y422029D01*
X250889Y421558D01*
X251028Y421072D01*
X251222Y420615D01*
X251236Y420601D01*
X251250Y420559D01*
X251278Y420504D01*
X251333Y420420D01*
X251388Y420337D01*
X251472Y420226D01*
X251652Y419977D01*
X251902Y419699D01*
X252193Y419408D01*
X252526Y419145D01*
X252720Y419020D01*
X252928Y418909D01*
X252942D01*
X252983Y418881D01*
X253039Y418853D01*
X253122Y418825D01*
X253233Y418784D01*
X253358Y418728D01*
X253496Y418687D01*
X253649Y418631D01*
X253815Y418576D01*
X254010Y418534D01*
X254412Y418437D01*
X254855Y418382D01*
X255327Y418354D01*
X255438D01*
X255521Y418368D01*
X255618D01*
X255729Y418382D01*
X255854Y418396D01*
X256007Y418410D01*
X256326Y418451D01*
X256686Y418534D01*
X257075Y418631D01*
X257463Y418770D01*
X257477D01*
X257504Y418784D01*
X257560Y418812D01*
X257643Y418839D01*
X257726Y418881D01*
X257823Y418937D01*
X258059Y419047D01*
X258323Y419186D01*
X258586Y419339D01*
X258836Y419491D01*
X259058Y419672D01*
Y422071D01*
X255299D01*
Y423582D01*
X260722D01*
Y418825D01*
X260708Y418812D01*
X260666Y418784D01*
X260597Y418728D01*
X260500Y418659D01*
X260389Y418576D01*
X260250Y418493D01*
X260098Y418382D01*
X259931Y418271D01*
X259751Y418160D01*
X259543Y418035D01*
X259113Y417785D01*
X258642Y417550D01*
X258142Y417342D01*
X258129D01*
X258087Y417314D01*
X258018Y417300D01*
X257907Y417258D01*
X257796Y417231D01*
X257643Y417189D01*
X257491Y417134D01*
X257310Y417092D01*
X257102Y417050D01*
X256894Y416995D01*
X256437Y416926D01*
X255937Y416870D01*
X255424Y416842D01*
X255244D01*
X255105Y416856D01*
X254939Y416870D01*
X254745Y416884D01*
X254523Y416912D01*
X254287Y416939D01*
X254037Y416981D01*
X253760Y417037D01*
X253483Y417106D01*
X253178Y417189D01*
X252886Y417272D01*
X252595Y417383D01*
X252290Y417508D01*
X251999Y417647D01*
X251985Y417661D01*
X251929Y417688D01*
X251846Y417730D01*
X251749Y417799D01*
X251624Y417882D01*
X251472Y417980D01*
X251305Y418104D01*
X251125Y418243D01*
X250945Y418396D01*
X250751Y418576D01*
X250556Y418756D01*
X250362Y418964D01*
X250182Y419200D01*
X250002Y419436D01*
X249821Y419699D01*
X249669Y419977D01*
X249655Y419991D01*
X249641Y420046D01*
X249599Y420129D01*
X249544Y420240D01*
X249489Y420393D01*
X249419Y420559D01*
X249350Y420753D01*
X249280Y420975D01*
X249211Y421211D01*
X249142Y421474D01*
X249072Y421766D01*
X249017Y422057D01*
X248962Y422376D01*
X248920Y422695D01*
X248906Y423041D01*
X248892Y423388D01*
Y423416D01*
Y423471D01*
Y423568D01*
X248906Y423707D01*
X248920Y423874D01*
X248934Y424068D01*
X248962Y424290D01*
X248989Y424525D01*
X249031Y424789D01*
X249086Y425066D01*
X249225Y425649D01*
X249308Y425954D01*
X249419Y426259D01*
X249530Y426564D01*
X249669Y426869D01*
X249683Y426883D01*
X249710Y426939D01*
X249752Y427022D01*
X249807Y427133D01*
X249891Y427271D01*
X249988Y427424D01*
X250113Y427590D01*
X250237Y427785D01*
X250390Y427979D01*
X250556Y428173D01*
X250737Y428367D01*
X250945Y428575D01*
X251153Y428769D01*
X251388Y428950D01*
X251638Y429130D01*
X251902Y429282D01*
X251915Y429296D01*
X251971Y429310D01*
X252054Y429352D01*
X252165Y429407D01*
X252304Y429463D01*
X252470Y429532D01*
X252664Y429601D01*
X252872Y429684D01*
X253108Y429754D01*
X253372Y429823D01*
X253649Y429893D01*
X253954Y429948D01*
X254259Y430004D01*
X254592Y430045D01*
X254939Y430059D01*
X255285Y430073D01*
X255521D01*
X255646Y430059D01*
D02*
G37*
G36*
X316196Y417050D02*
X314739D01*
Y418215D01*
X314725Y418201D01*
X314698Y418160D01*
X314642Y418091D01*
X314573Y418007D01*
X314476Y417896D01*
X314365Y417785D01*
X314240Y417661D01*
X314088Y417536D01*
X313907Y417397D01*
X313713Y417272D01*
X313505Y417161D01*
X313269Y417064D01*
X313006Y416967D01*
X312742Y416898D01*
X312451Y416856D01*
X312132Y416842D01*
X312021D01*
X311938Y416856D01*
X311841D01*
X311730Y416870D01*
X311605Y416898D01*
X311466Y416926D01*
X311147Y416995D01*
X310801Y417106D01*
X310454Y417258D01*
X310274Y417342D01*
X310093Y417453D01*
X310079Y417466D01*
X310052Y417480D01*
X310010Y417522D01*
X309941Y417564D01*
X309858Y417633D01*
X309774Y417702D01*
X309566Y417896D01*
X309331Y418132D01*
X309095Y418423D01*
X308859Y418770D01*
X308651Y419158D01*
Y419172D01*
X308623Y419214D01*
X308610Y419269D01*
X308568Y419352D01*
X308540Y419450D01*
X308498Y419574D01*
X308443Y419727D01*
X308401Y419879D01*
X308360Y420060D01*
X308304Y420254D01*
X308263Y420462D01*
X308235Y420684D01*
X308179Y421155D01*
X308152Y421669D01*
Y421682D01*
Y421738D01*
Y421807D01*
X308166Y421904D01*
Y422029D01*
X308179Y422168D01*
X308193Y422334D01*
X308207Y422514D01*
X308263Y422903D01*
X308346Y423319D01*
X308457Y423763D01*
X308610Y424193D01*
Y424207D01*
X308637Y424248D01*
X308665Y424304D01*
X308693Y424387D01*
X308748Y424470D01*
X308804Y424581D01*
X308956Y424831D01*
X309150Y425122D01*
X309386Y425399D01*
X309664Y425676D01*
X309996Y425926D01*
X310010Y425940D01*
X310038Y425954D01*
X310093Y425982D01*
X310163Y426023D01*
X310246Y426065D01*
X310357Y426120D01*
X310468Y426176D01*
X310606Y426231D01*
X310912Y426342D01*
X311258Y426439D01*
X311647Y426509D01*
X311855Y426536D01*
X312201D01*
X312368Y426522D01*
X312562Y426495D01*
X312798Y426453D01*
X313047Y426384D01*
X313311Y426301D01*
X313561Y426176D01*
X313574D01*
X313588Y426162D01*
X313671Y426106D01*
X313782Y426037D01*
X313935Y425926D01*
X314101Y425788D01*
X314282Y425635D01*
X314462Y425455D01*
X314628Y425247D01*
Y429851D01*
X316196D01*
Y417050D01*
D02*
G37*
G36*
X332921Y426522D02*
X333032D01*
X333157Y426509D01*
X333281Y426481D01*
X333434Y426453D01*
X333767Y426384D01*
X334114Y426273D01*
X334474Y426120D01*
X334654Y426023D01*
X334821Y425912D01*
X334835D01*
X334862Y425885D01*
X334904Y425843D01*
X334973Y425801D01*
X335140Y425663D01*
X335334Y425468D01*
X335556Y425219D01*
X335792Y424928D01*
X336000Y424581D01*
X336194Y424193D01*
Y424179D01*
X336208Y424137D01*
X336235Y424082D01*
X336263Y423998D01*
X336305Y423901D01*
X336346Y423777D01*
X336388Y423624D01*
X336429Y423471D01*
X336471Y423291D01*
X336513Y423111D01*
X336596Y422695D01*
X336651Y422237D01*
X336665Y421752D01*
Y421738D01*
Y421682D01*
Y421613D01*
X336651Y421516D01*
Y421391D01*
X336637Y421239D01*
X336624Y421072D01*
X336596Y420892D01*
X336540Y420504D01*
X336443Y420074D01*
X336319Y419630D01*
X336152Y419186D01*
Y419172D01*
X336124Y419131D01*
X336097Y419075D01*
X336055Y419006D01*
X336000Y418909D01*
X335944Y418798D01*
X335778Y418548D01*
X335570Y418257D01*
X335306Y417966D01*
X335015Y417688D01*
X334668Y417439D01*
X334654D01*
X334627Y417411D01*
X334571Y417383D01*
X334502Y417342D01*
X334405Y417300D01*
X334308Y417244D01*
X334183Y417203D01*
X334044Y417147D01*
X333739Y417037D01*
X333392Y416939D01*
X333018Y416870D01*
X332824Y416856D01*
X332616Y416842D01*
X332477D01*
X332338Y416856D01*
X332144Y416884D01*
X331922Y416926D01*
X331687Y416981D01*
X331437Y417050D01*
X331201Y417161D01*
X331173Y417175D01*
X331104Y417217D01*
X330979Y417300D01*
X330840Y417397D01*
X330674Y417508D01*
X330508Y417661D01*
X330341Y417827D01*
X330189Y418007D01*
Y413500D01*
X328622D01*
Y426328D01*
X330050D01*
Y425122D01*
X330078Y425136D01*
X330133Y425219D01*
X330244Y425358D01*
X330383Y425510D01*
X330549Y425676D01*
X330743Y425857D01*
X330951Y426023D01*
X331187Y426176D01*
X331201D01*
X331215Y426190D01*
X331298Y426231D01*
X331437Y426287D01*
X331617Y426356D01*
X331839Y426425D01*
X332103Y426481D01*
X332408Y426522D01*
X332727Y426536D01*
X332838D01*
X332921Y426522D01*
D02*
G37*
G36*
X357010D02*
X357080D01*
X357163Y426509D01*
X357371Y426467D01*
X357620Y426412D01*
X357884Y426315D01*
X358189Y426190D01*
X358494Y426023D01*
X357939Y424567D01*
X357912Y424581D01*
X357842Y424622D01*
X357731Y424678D01*
X357579Y424747D01*
X357412Y424803D01*
X357218Y424858D01*
X357010Y424900D01*
X356788Y424914D01*
X356705D01*
X356608Y424900D01*
X356483Y424872D01*
X356331Y424831D01*
X356178Y424775D01*
X356026Y424706D01*
X355859Y424595D01*
X355845Y424581D01*
X355790Y424539D01*
X355720Y424470D01*
X355637Y424373D01*
X355540Y424248D01*
X355443Y424109D01*
X355360Y423929D01*
X355277Y423735D01*
Y423721D01*
X355263Y423693D01*
X355249Y423652D01*
X355235Y423596D01*
X355221Y423513D01*
X355193Y423416D01*
X355152Y423194D01*
X355110Y422917D01*
X355069Y422612D01*
X355041Y422265D01*
X355027Y421904D01*
Y417050D01*
X353460D01*
Y426328D01*
X354874D01*
Y424928D01*
X354902Y424955D01*
X354930Y425011D01*
X354972Y425066D01*
X355069Y425247D01*
X355207Y425441D01*
X355360Y425663D01*
X355526Y425885D01*
X355693Y426065D01*
X355790Y426148D01*
X355873Y426217D01*
X355901Y426231D01*
X355956Y426273D01*
X356053Y426315D01*
X356164Y426384D01*
X356317Y426439D01*
X356483Y426481D01*
X356677Y426522D01*
X356871Y426536D01*
X356955D01*
X357010Y426522D01*
D02*
G37*
G36*
X217674Y422459D02*
Y422431D01*
Y422376D01*
Y422279D01*
Y422140D01*
X217661Y421974D01*
X217647Y421793D01*
X217633Y421585D01*
X217619Y421350D01*
X217563Y420864D01*
X217494Y420351D01*
X217383Y419852D01*
X217314Y419616D01*
X217231Y419394D01*
Y419380D01*
X217217Y419339D01*
X217189Y419283D01*
X217147Y419200D01*
X217092Y419103D01*
X217036Y418992D01*
X216870Y418742D01*
X216773Y418590D01*
X216662Y418451D01*
X216523Y418285D01*
X216385Y418132D01*
X216218Y417980D01*
X216052Y417827D01*
X215858Y417688D01*
X215650Y417550D01*
X215636Y417536D01*
X215594Y417522D01*
X215539Y417480D01*
X215442Y417439D01*
X215331Y417383D01*
X215192Y417328D01*
X215039Y417258D01*
X214845Y417203D01*
X214651Y417134D01*
X214429Y417064D01*
X214179Y417009D01*
X213916Y416953D01*
X213625Y416912D01*
X213320Y416870D01*
X213001Y416856D01*
X212668Y416842D01*
X212488D01*
X212363Y416856D01*
X212210D01*
X212044Y416870D01*
X211836Y416898D01*
X211628Y416926D01*
X211156Y416995D01*
X210657Y417106D01*
X210172Y417258D01*
X209936Y417342D01*
X209714Y417453D01*
X209700Y417466D01*
X209658Y417480D01*
X209603Y417522D01*
X209534Y417564D01*
X209436Y417633D01*
X209326Y417716D01*
X209215Y417799D01*
X209090Y417910D01*
X208813Y418160D01*
X208549Y418465D01*
X208299Y418825D01*
X208188Y419034D01*
X208091Y419242D01*
Y419255D01*
X208077Y419297D01*
X208050Y419366D01*
X208022Y419463D01*
X207980Y419574D01*
X207939Y419727D01*
X207897Y419893D01*
X207855Y420088D01*
X207800Y420309D01*
X207759Y420545D01*
X207717Y420809D01*
X207689Y421100D01*
X207647Y421405D01*
X207634Y421738D01*
X207606Y422085D01*
Y422459D01*
Y429851D01*
X209298D01*
Y422459D01*
Y422445D01*
Y422390D01*
Y422307D01*
Y422182D01*
X209312Y422043D01*
Y421890D01*
X209326Y421710D01*
X209340Y421530D01*
X209367Y421128D01*
X209423Y420726D01*
X209506Y420337D01*
X209548Y420157D01*
X209603Y420004D01*
Y419990D01*
X209617Y419977D01*
X209631Y419935D01*
X209658Y419879D01*
X209742Y419727D01*
X209853Y419561D01*
X209991Y419352D01*
X210172Y419158D01*
X210394Y418964D01*
X210657Y418784D01*
X210671D01*
X210699Y418770D01*
X210740Y418742D01*
X210796Y418715D01*
X210865Y418687D01*
X210962Y418659D01*
X211059Y418618D01*
X211170Y418576D01*
X211448Y418507D01*
X211766Y418437D01*
X212127Y418382D01*
X212515Y418368D01*
X212696D01*
X212820Y418382D01*
X212973Y418396D01*
X213153Y418410D01*
X213347Y418437D01*
X213556Y418479D01*
X213985Y418576D01*
X214207Y418645D01*
X214429Y418728D01*
X214637Y418825D01*
X214831Y418936D01*
X215012Y419061D01*
X215178Y419214D01*
X215192Y419228D01*
X215220Y419255D01*
X215247Y419311D01*
X215303Y419380D01*
X215358Y419477D01*
X215428Y419602D01*
X215511Y419755D01*
X215580Y419935D01*
X215650Y420143D01*
X215733Y420379D01*
X215802Y420642D01*
X215858Y420933D01*
X215913Y421266D01*
X215955Y421627D01*
X215969Y422029D01*
X215982Y422459D01*
Y429851D01*
X217674D01*
Y422459D01*
D02*
G37*
G36*
X322894Y426522D02*
X323019D01*
X323282Y426495D01*
X323587Y426467D01*
X323906Y426412D01*
X324225Y426342D01*
X324516Y426245D01*
X324530D01*
X324544Y426231D01*
X324586Y426217D01*
X324641Y426190D01*
X324766Y426134D01*
X324933Y426051D01*
X325113Y425954D01*
X325293Y425829D01*
X325460Y425690D01*
X325612Y425538D01*
X325626Y425524D01*
X325668Y425468D01*
X325737Y425371D01*
X325806Y425247D01*
X325890Y425094D01*
X325973Y424914D01*
X326056Y424706D01*
X326111Y424470D01*
Y424456D01*
X326125Y424387D01*
X326139Y424290D01*
X326153Y424137D01*
X326167Y423943D01*
X326181Y423693D01*
Y423541D01*
X326195Y423388D01*
Y423222D01*
Y423028D01*
Y420933D01*
Y420906D01*
Y420836D01*
Y420726D01*
Y420587D01*
Y420406D01*
Y420212D01*
X326208Y419991D01*
Y419769D01*
X326222Y419297D01*
Y419061D01*
X326236Y418839D01*
X326250Y418631D01*
X326264Y418451D01*
X326278Y418285D01*
X326292Y418160D01*
Y418132D01*
X326306Y418063D01*
X326333Y417952D01*
X326375Y417799D01*
X326430Y417633D01*
X326500Y417453D01*
X326583Y417244D01*
X326680Y417050D01*
X325043D01*
X325030Y417078D01*
X325002Y417134D01*
X324960Y417244D01*
X324919Y417383D01*
X324863Y417550D01*
X324808Y417744D01*
X324766Y417966D01*
X324738Y418215D01*
X324725Y418201D01*
X324697Y418188D01*
X324655Y418146D01*
X324586Y418091D01*
X324503Y418035D01*
X324419Y417952D01*
X324198Y417799D01*
X323934Y417619D01*
X323657Y417439D01*
X323352Y417286D01*
X323046Y417147D01*
X323033D01*
X323005Y417134D01*
X322963Y417120D01*
X322908Y417106D01*
X322838Y417078D01*
X322741Y417050D01*
X322533Y416995D01*
X322270Y416939D01*
X321979Y416884D01*
X321660Y416856D01*
X321313Y416842D01*
X321160D01*
X321063Y416856D01*
X320938Y416870D01*
X320786Y416884D01*
X320620Y416898D01*
X320453Y416939D01*
X320065Y417023D01*
X319676Y417147D01*
X319496Y417231D01*
X319302Y417342D01*
X319136Y417453D01*
X318969Y417577D01*
X318955Y417591D01*
X318928Y417619D01*
X318900Y417661D01*
X318844Y417716D01*
X318775Y417785D01*
X318706Y417882D01*
X318636Y417980D01*
X318567Y418104D01*
X318414Y418368D01*
X318276Y418701D01*
X318220Y418881D01*
X318193Y419075D01*
X318165Y419283D01*
X318151Y419491D01*
Y419505D01*
Y419519D01*
Y419602D01*
X318165Y419741D01*
X318193Y419907D01*
X318220Y420101D01*
X318276Y420309D01*
X318359Y420518D01*
X318456Y420739D01*
X318470Y420767D01*
X318512Y420836D01*
X318581Y420933D01*
X318678Y421072D01*
X318789Y421211D01*
X318928Y421363D01*
X319080Y421502D01*
X319260Y421641D01*
X319288Y421655D01*
X319357Y421696D01*
X319455Y421766D01*
X319593Y421835D01*
X319760Y421918D01*
X319954Y422001D01*
X320176Y422085D01*
X320398Y422154D01*
X320425D01*
X320481Y422182D01*
X320592Y422196D01*
X320744Y422237D01*
X320938Y422265D01*
X321188Y422307D01*
X321465Y422348D01*
X321798Y422390D01*
X321826D01*
X321881Y422404D01*
X321979Y422417D01*
X322103Y422431D01*
X322270Y422459D01*
X322450Y422487D01*
X322644Y422514D01*
X322866Y422542D01*
X323324Y422626D01*
X323782Y422723D01*
X324003Y422778D01*
X324225Y422834D01*
X324419Y422889D01*
X324600Y422944D01*
Y422958D01*
Y423000D01*
Y423055D01*
X324614Y423111D01*
Y423250D01*
Y423305D01*
Y423347D01*
Y423360D01*
Y423388D01*
Y423444D01*
Y423499D01*
X324586Y423666D01*
X324558Y423874D01*
X324503Y424095D01*
X324419Y424317D01*
X324309Y424525D01*
X324156Y424692D01*
X324128Y424720D01*
X324100Y424747D01*
X324045Y424775D01*
X323976Y424817D01*
X323906Y424858D01*
X323712Y424969D01*
X323462Y425066D01*
X323157Y425149D01*
X322797Y425205D01*
X322381Y425233D01*
X322201D01*
X322103Y425219D01*
X322006D01*
X321757Y425191D01*
X321493Y425136D01*
X321230Y425066D01*
X320966Y424969D01*
X320744Y424844D01*
X320717Y424831D01*
X320661Y424775D01*
X320564Y424664D01*
X320453Y424525D01*
X320328Y424345D01*
X320190Y424095D01*
X320079Y423818D01*
X320023Y423652D01*
X319968Y423471D01*
X318428Y423680D01*
Y423693D01*
X318442Y423721D01*
X318456Y423777D01*
X318470Y423846D01*
X318498Y423929D01*
X318525Y424026D01*
X318595Y424248D01*
X318692Y424498D01*
X318803Y424761D01*
X318941Y425025D01*
X319108Y425261D01*
Y425274D01*
X319136Y425288D01*
X319205Y425358D01*
X319316Y425468D01*
X319468Y425607D01*
X319663Y425760D01*
X319898Y425912D01*
X320176Y426065D01*
X320495Y426203D01*
X320509D01*
X320536Y426217D01*
X320592Y426231D01*
X320661Y426259D01*
X320744Y426287D01*
X320841Y426315D01*
X320966Y426342D01*
X321105Y426370D01*
X321244Y426398D01*
X321410Y426425D01*
X321771Y426481D01*
X322173Y426522D01*
X322603Y426536D01*
X322797D01*
X322894Y426522D01*
D02*
G37*
G36*
X307583Y417050D02*
X305655D01*
X304172Y420920D01*
X298791D01*
X297404Y417050D01*
X295615D01*
X300510Y429851D01*
X302341D01*
X307583Y417050D01*
D02*
G37*
G36*
X285200Y429837D02*
X285352D01*
X285505Y429823D01*
X285685Y429795D01*
X286046Y429754D01*
X286448Y429684D01*
X286822Y429587D01*
X287183Y429449D01*
X287197D01*
X287224Y429435D01*
X287266Y429407D01*
X287335Y429379D01*
X287488Y429282D01*
X287696Y429157D01*
X287918Y428991D01*
X288140Y428783D01*
X288362Y428533D01*
X288570Y428256D01*
Y428242D01*
X288597Y428214D01*
X288611Y428173D01*
X288653Y428117D01*
X288694Y428048D01*
X288736Y427951D01*
X288833Y427743D01*
X288916Y427493D01*
X289000Y427202D01*
X289055Y426897D01*
X289083Y426564D01*
Y426550D01*
Y426522D01*
Y426481D01*
Y426425D01*
X289055Y426273D01*
X289027Y426065D01*
X288972Y425829D01*
X288889Y425566D01*
X288778Y425302D01*
X288625Y425025D01*
Y425011D01*
X288611Y424997D01*
X288584Y424955D01*
X288542Y424900D01*
X288445Y424775D01*
X288292Y424609D01*
X288112Y424428D01*
X287876Y424234D01*
X287613Y424040D01*
X287294Y423860D01*
X287308D01*
X287349Y423846D01*
X287405Y423818D01*
X287488Y423790D01*
X287585Y423749D01*
X287696Y423707D01*
X287946Y423582D01*
X288237Y423430D01*
X288528Y423222D01*
X288819Y422986D01*
X289069Y422695D01*
X289083Y422681D01*
X289097Y422653D01*
X289124Y422612D01*
X289166Y422556D01*
X289221Y422473D01*
X289277Y422376D01*
X289332Y422265D01*
X289388Y422140D01*
X289499Y421863D01*
X289610Y421530D01*
X289679Y421155D01*
X289707Y420961D01*
Y420753D01*
Y420739D01*
Y420712D01*
Y420670D01*
Y420601D01*
X289693Y420518D01*
Y420434D01*
X289665Y420212D01*
X289610Y419949D01*
X289540Y419672D01*
X289443Y419366D01*
X289319Y419075D01*
Y419061D01*
X289305Y419047D01*
X289277Y419006D01*
X289249Y418950D01*
X289166Y418812D01*
X289055Y418645D01*
X288930Y418451D01*
X288764Y418257D01*
X288584Y418063D01*
X288375Y417882D01*
X288348Y417869D01*
X288278Y417813D01*
X288154Y417744D01*
X287987Y417647D01*
X287793Y417550D01*
X287557Y417439D01*
X287280Y417342D01*
X286975Y417258D01*
X286961D01*
X286933Y417244D01*
X286892D01*
X286822Y417231D01*
X286739Y417217D01*
X286642Y417189D01*
X286531Y417175D01*
X286406Y417161D01*
X286268Y417134D01*
X286101Y417120D01*
X285754Y417078D01*
X285352Y417064D01*
X284908Y417050D01*
X280041D01*
Y429851D01*
X285075D01*
X285200Y429837D01*
D02*
G37*
G36*
X277128Y417050D02*
X275436D01*
Y429851D01*
X277128D01*
Y417050D01*
D02*
G37*
G36*
X268766Y429837D02*
X269084Y429823D01*
X269403Y429795D01*
X269709Y429768D01*
X269861Y429754D01*
X269986Y429726D01*
X270000D01*
X270028Y429712D01*
X270083D01*
X270138Y429698D01*
X270222Y429671D01*
X270319Y429657D01*
X270541Y429587D01*
X270790Y429504D01*
X271054Y429393D01*
X271317Y429268D01*
X271567Y429116D01*
X271581D01*
X271595Y429102D01*
X271678Y429033D01*
X271789Y428936D01*
X271941Y428797D01*
X272094Y428630D01*
X272274Y428409D01*
X272441Y428173D01*
X272593Y427882D01*
Y427868D01*
X272607Y427840D01*
X272635Y427798D01*
X272663Y427743D01*
X272690Y427674D01*
X272718Y427576D01*
X272801Y427369D01*
X272871Y427105D01*
X272940Y426814D01*
X272981Y426481D01*
X272995Y426134D01*
Y426120D01*
Y426065D01*
Y425982D01*
X272981Y425857D01*
X272968Y425718D01*
X272940Y425566D01*
X272912Y425385D01*
X272871Y425177D01*
X272815Y424969D01*
X272746Y424747D01*
X272663Y424525D01*
X272552Y424290D01*
X272441Y424054D01*
X272302Y423818D01*
X272136Y423596D01*
X271955Y423374D01*
X271941Y423360D01*
X271900Y423333D01*
X271844Y423277D01*
X271747Y423194D01*
X271636Y423111D01*
X271484Y423014D01*
X271304Y422917D01*
X271095Y422820D01*
X270846Y422709D01*
X270582Y422612D01*
X270263Y422514D01*
X269930Y422431D01*
X269542Y422362D01*
X269126Y422307D01*
X268682Y422265D01*
X268183Y422251D01*
X264910D01*
Y417050D01*
X263218D01*
Y429851D01*
X268488D01*
X268766Y429837D01*
D02*
G37*
G36*
X237506D02*
X237659D01*
X237811Y429823D01*
X237992Y429795D01*
X238352Y429754D01*
X238754Y429684D01*
X239129Y429587D01*
X239489Y429449D01*
X239503D01*
X239531Y429435D01*
X239573Y429407D01*
X239642Y429379D01*
X239795Y429282D01*
X240002Y429157D01*
X240224Y428991D01*
X240446Y428783D01*
X240668Y428533D01*
X240876Y428256D01*
Y428242D01*
X240904Y428214D01*
X240918Y428173D01*
X240959Y428117D01*
X241001Y428048D01*
X241043Y427951D01*
X241140Y427743D01*
X241223Y427493D01*
X241306Y427202D01*
X241362Y426897D01*
X241389Y426564D01*
Y426550D01*
Y426522D01*
Y426481D01*
Y426425D01*
X241362Y426273D01*
X241334Y426065D01*
X241278Y425829D01*
X241195Y425566D01*
X241084Y425302D01*
X240932Y425025D01*
Y425011D01*
X240918Y424997D01*
X240890Y424955D01*
X240849Y424900D01*
X240751Y424775D01*
X240599Y424609D01*
X240418Y424428D01*
X240183Y424234D01*
X239919Y424040D01*
X239600Y423860D01*
X239614D01*
X239656Y423846D01*
X239711Y423818D01*
X239795Y423790D01*
X239891Y423749D01*
X240002Y423707D01*
X240252Y423582D01*
X240543Y423430D01*
X240835Y423222D01*
X241126Y422986D01*
X241376Y422695D01*
X241389Y422681D01*
X241403Y422653D01*
X241431Y422612D01*
X241472Y422556D01*
X241528Y422473D01*
X241583Y422376D01*
X241639Y422265D01*
X241694Y422140D01*
X241805Y421863D01*
X241916Y421530D01*
X241986Y421155D01*
X242013Y420961D01*
Y420753D01*
Y420739D01*
Y420712D01*
Y420670D01*
Y420601D01*
X241999Y420518D01*
Y420434D01*
X241972Y420212D01*
X241916Y419949D01*
X241847Y419672D01*
X241750Y419366D01*
X241625Y419075D01*
Y419061D01*
X241611Y419047D01*
X241583Y419006D01*
X241556Y418950D01*
X241472Y418812D01*
X241362Y418645D01*
X241237Y418451D01*
X241070Y418257D01*
X240890Y418063D01*
X240682Y417882D01*
X240654Y417869D01*
X240585Y417813D01*
X240460Y417744D01*
X240294Y417647D01*
X240100Y417550D01*
X239864Y417439D01*
X239586Y417342D01*
X239281Y417258D01*
X239268D01*
X239240Y417244D01*
X239198D01*
X239129Y417231D01*
X239046Y417217D01*
X238948Y417189D01*
X238838Y417175D01*
X238713Y417161D01*
X238574Y417134D01*
X238408Y417120D01*
X238061Y417078D01*
X237659Y417064D01*
X237215Y417050D01*
X232347D01*
Y429851D01*
X237381D01*
X237506Y429837D01*
D02*
G37*
G36*
X340396Y426328D02*
X341991D01*
Y425108D01*
X340396D01*
Y419672D01*
Y419658D01*
Y419644D01*
Y419561D01*
Y419450D01*
X340410Y419311D01*
Y419172D01*
X340437Y419034D01*
X340451Y418909D01*
X340479Y418812D01*
Y418798D01*
X340493Y418784D01*
X340548Y418701D01*
X340632Y418604D01*
X340742Y418507D01*
X340756D01*
X340784Y418493D01*
X340826Y418479D01*
X340881Y418451D01*
X340964Y418437D01*
X341048Y418410D01*
X341159Y418396D01*
X341394D01*
X341478Y418410D01*
X341575D01*
X341699Y418423D01*
X341838Y418437D01*
X341991Y418451D01*
X342199Y417064D01*
X342171D01*
X342088Y417037D01*
X341963Y417023D01*
X341796Y416995D01*
X341616Y416967D01*
X341422Y416953D01*
X341006Y416926D01*
X340867D01*
X340715Y416939D01*
X340521Y416953D01*
X340299Y416995D01*
X340077Y417037D01*
X339869Y417106D01*
X339675Y417189D01*
X339661Y417203D01*
X339605Y417244D01*
X339522Y417300D01*
X339411Y417383D01*
X339300Y417480D01*
X339189Y417605D01*
X339092Y417744D01*
X339009Y417896D01*
X338995Y417924D01*
X338981Y417993D01*
X338967Y418049D01*
X338954Y418118D01*
X338940Y418201D01*
X338926Y418298D01*
X338898Y418410D01*
X338884Y418548D01*
X338870Y418701D01*
X338856Y418867D01*
X338843Y419061D01*
Y419269D01*
X338829Y419505D01*
Y419755D01*
Y425108D01*
X337664D01*
Y426328D01*
X338829D01*
Y428617D01*
X340396Y429560D01*
Y426328D01*
D02*
G37*
G36*
X347510Y426522D02*
X347635D01*
X347802Y426495D01*
X347982Y426467D01*
X348190Y426425D01*
X348412Y426384D01*
X348647Y426315D01*
X348883Y426231D01*
X349147Y426120D01*
X349396Y425995D01*
X349646Y425857D01*
X349896Y425676D01*
X350145Y425482D01*
X350367Y425261D01*
X350381Y425247D01*
X350423Y425205D01*
X350478Y425136D01*
X350547Y425025D01*
X350645Y424900D01*
X350742Y424747D01*
X350853Y424553D01*
X350964Y424345D01*
X351061Y424109D01*
X351172Y423846D01*
X351269Y423555D01*
X351366Y423236D01*
X351435Y422889D01*
X351491Y422514D01*
X351532Y422126D01*
X351546Y421710D01*
Y421682D01*
Y421613D01*
Y421474D01*
X351532Y421294D01*
X344612D01*
Y421280D01*
Y421225D01*
X344626Y421142D01*
X344640Y421045D01*
X344653Y420906D01*
X344681Y420767D01*
X344709Y420601D01*
X344751Y420420D01*
X344861Y420046D01*
X345014Y419644D01*
X345111Y419464D01*
X345208Y419269D01*
X345333Y419103D01*
X345472Y418937D01*
X345485Y418923D01*
X345513Y418909D01*
X345555Y418867D01*
X345610Y418812D01*
X345694Y418756D01*
X345777Y418687D01*
X345888Y418604D01*
X346012Y418534D01*
X346290Y418382D01*
X346623Y418257D01*
X346803Y418201D01*
X346997Y418174D01*
X347205Y418146D01*
X347413Y418132D01*
X347496D01*
X347552Y418146D01*
X347718Y418160D01*
X347926Y418188D01*
X348148Y418243D01*
X348398Y418326D01*
X348647Y418423D01*
X348883Y418576D01*
X348897D01*
X348911Y418604D01*
X348980Y418659D01*
X349091Y418770D01*
X349230Y418937D01*
X349383Y419131D01*
X349549Y419394D01*
X349715Y419699D01*
X349854Y420046D01*
X351491Y419838D01*
Y419824D01*
X351477Y419769D01*
X351449Y419699D01*
X351407Y419602D01*
X351366Y419477D01*
X351310Y419339D01*
X351241Y419186D01*
X351172Y419020D01*
X350977Y418673D01*
X350728Y418298D01*
X350575Y418118D01*
X350423Y417938D01*
X350256Y417771D01*
X350062Y417619D01*
X350048Y417605D01*
X350020Y417591D01*
X349951Y417550D01*
X349882Y417494D01*
X349771Y417439D01*
X349646Y417369D01*
X349507Y417300D01*
X349341Y417231D01*
X349161Y417161D01*
X348953Y417092D01*
X348745Y417023D01*
X348509Y416967D01*
X348259Y416912D01*
X347996Y416870D01*
X347705Y416856D01*
X347413Y416842D01*
X347330D01*
X347219Y416856D01*
X347080D01*
X346900Y416884D01*
X346706Y416912D01*
X346484Y416953D01*
X346248Y416995D01*
X345999Y417064D01*
X345735Y417147D01*
X345458Y417244D01*
X345194Y417369D01*
X344917Y417508D01*
X344667Y417674D01*
X344418Y417869D01*
X344182Y418091D01*
X344168Y418104D01*
X344126Y418146D01*
X344071Y418215D01*
X344002Y418326D01*
X343904Y418451D01*
X343807Y418604D01*
X343697Y418784D01*
X343599Y418992D01*
X343489Y419228D01*
X343377Y419491D01*
X343280Y419782D01*
X343183Y420101D01*
X343114Y420434D01*
X343059Y420795D01*
X343017Y421183D01*
X343003Y421599D01*
Y421627D01*
Y421696D01*
X343017Y421821D01*
Y421987D01*
X343045Y422182D01*
X343072Y422404D01*
X343100Y422667D01*
X343156Y422931D01*
X343211Y423222D01*
X343294Y423513D01*
X343391Y423818D01*
X343502Y424123D01*
X343641Y424414D01*
X343807Y424706D01*
X343988Y424983D01*
X344196Y425233D01*
X344210Y425247D01*
X344251Y425288D01*
X344321Y425358D01*
X344418Y425441D01*
X344529Y425538D01*
X344681Y425649D01*
X344848Y425760D01*
X345042Y425885D01*
X345250Y426009D01*
X345485Y426120D01*
X345749Y426231D01*
X346026Y426328D01*
X346331Y426412D01*
X346637Y426481D01*
X346983Y426522D01*
X347330Y426536D01*
X347413D01*
X347510Y426522D01*
D02*
G37*
G36*
X85003Y391571D02*
X85099Y391555D01*
X85115D01*
X85179Y391539D01*
X85243Y391524D01*
X85306Y391492D01*
X85322D01*
X85354Y391460D01*
X85386Y391428D01*
X85418Y391380D01*
Y391364D01*
X85434Y391348D01*
X85450Y391252D01*
Y385510D01*
X85434Y385414D01*
X85402Y385287D01*
X85322Y385143D01*
X85290Y385111D01*
X85258Y385095D01*
X85211Y385063D01*
X85131Y385031D01*
X85051Y385000D01*
X84939Y384983D01*
X84812Y384968D01*
X74204D01*
X74188D01*
X74140D01*
X74077Y384983D01*
X73997D01*
X73837Y385047D01*
X73758Y385079D01*
X73694Y385143D01*
Y385159D01*
X73678Y385175D01*
X73614Y385271D01*
X73566Y385398D01*
X73550Y385542D01*
Y391236D01*
X73566Y391284D01*
X73598Y391316D01*
Y391332D01*
X73630Y391348D01*
X73662Y391380D01*
X73710Y391412D01*
X73726Y391428D01*
X73758Y391444D01*
X73837Y391460D01*
X73917Y391476D01*
X73933D01*
X73997Y391492D01*
X74093Y391508D01*
X74220D01*
X74252D01*
X74316D01*
X74427Y391492D01*
X74523Y391476D01*
X74539D01*
X74587Y391460D01*
X74715Y391412D01*
X74731D01*
X74763Y391396D01*
X74794Y391364D01*
X74826Y391316D01*
Y391300D01*
X74842Y391284D01*
X74858Y391189D01*
Y386547D01*
X78607D01*
Y390582D01*
X78623Y390630D01*
X78655Y390662D01*
X78671Y390678D01*
X78686Y390694D01*
X78782Y390758D01*
X78798Y390774D01*
X78830Y390790D01*
X78894Y390806D01*
X78974Y390822D01*
X78990D01*
X79053Y390838D01*
X79149Y390854D01*
X79277D01*
X79309D01*
X79372D01*
X79468Y390838D01*
X79564Y390822D01*
X79580D01*
X79628Y390806D01*
X79755Y390758D01*
X79771D01*
X79787Y390742D01*
X79851Y390662D01*
Y390646D01*
X79867Y390630D01*
X79883Y390535D01*
Y386547D01*
X84142D01*
Y391300D01*
X84158Y391348D01*
X84190Y391380D01*
Y391396D01*
X84222Y391412D01*
X84254Y391460D01*
X84301Y391492D01*
X84317Y391508D01*
X84349Y391524D01*
X84429Y391539D01*
X84509Y391555D01*
X84525D01*
X84588Y391571D01*
X84684Y391587D01*
X84812D01*
X84844D01*
X84908D01*
X85003Y391571D01*
D02*
G37*
G36*
X75385Y382017D02*
X75496Y382001D01*
X75512D01*
X75576Y381985D01*
X75640Y381969D01*
X75720Y381953D01*
X75736D01*
X75767Y381937D01*
X75799Y381905D01*
X75831Y381857D01*
X75847Y381825D01*
X75863Y381745D01*
Y381730D01*
X75847Y381650D01*
X75799Y381538D01*
X75704Y381363D01*
X75688Y381347D01*
X75672Y381315D01*
X75640Y381267D01*
X75592Y381187D01*
X75528Y381091D01*
X75464Y380964D01*
X75401Y380836D01*
X75321Y380677D01*
X75305Y380661D01*
X75289Y380597D01*
X75241Y380501D01*
X75193Y380390D01*
X75129Y380230D01*
X75066Y380055D01*
X74986Y379863D01*
X74922Y379640D01*
X74906Y379608D01*
X74890Y379528D01*
X74858Y379417D01*
X74826Y379241D01*
X74794Y379034D01*
X74778Y378795D01*
X74747Y378523D01*
Y378061D01*
X74763Y377965D01*
Y377869D01*
X74794Y377630D01*
X74842Y377359D01*
X74906Y377056D01*
X74986Y376753D01*
X75113Y376450D01*
Y376434D01*
X75129Y376418D01*
X75177Y376322D01*
X75257Y376179D01*
X75369Y375987D01*
X75512Y375780D01*
X75672Y375556D01*
X75879Y375333D01*
X76102Y375126D01*
X76134Y375110D01*
X76214Y375030D01*
X76358Y374934D01*
X76533Y374823D01*
X76756Y374679D01*
X77012Y374551D01*
X77299Y374408D01*
X77618Y374296D01*
X77634D01*
X77650Y374280D01*
X77698Y374264D01*
X77761Y374248D01*
X77841Y374232D01*
X77937Y374201D01*
X78176Y374153D01*
X78463Y374105D01*
X78782Y374057D01*
X79133Y374025D01*
X79500Y374009D01*
X79516D01*
X79548D01*
X79612D01*
X79691D01*
X79787Y374025D01*
X79915D01*
X80186Y374041D01*
X80505Y374089D01*
X80840Y374137D01*
X81191Y374216D01*
X81526Y374312D01*
X81542D01*
X81558Y374328D01*
X81606Y374344D01*
X81669Y374376D01*
X81829Y374440D01*
X82036Y374535D01*
X82275Y374663D01*
X82515Y374823D01*
X82770Y374998D01*
X83009Y375190D01*
X83041Y375221D01*
X83105Y375285D01*
X83217Y375413D01*
X83344Y375572D01*
X83504Y375764D01*
X83647Y376003D01*
X83807Y376258D01*
X83934Y376529D01*
Y376545D01*
X83950Y376561D01*
X83966Y376609D01*
X83982Y376673D01*
X84030Y376833D01*
X84078Y377040D01*
X84142Y377295D01*
X84190Y377582D01*
X84222Y377901D01*
X84237Y378236D01*
Y378443D01*
X84222Y378587D01*
X84206Y378763D01*
X84190Y378938D01*
X84110Y379353D01*
Y379385D01*
X84078Y379449D01*
X84062Y379560D01*
X84014Y379704D01*
X83950Y379863D01*
X83887Y380039D01*
X83711Y380421D01*
X80234D01*
Y377614D01*
X80218Y377550D01*
X80170Y377471D01*
X80090Y377407D01*
X80058Y377391D01*
X79963Y377375D01*
X79899Y377359D01*
X79819D01*
X79707Y377343D01*
X79596D01*
X79580D01*
X79564D01*
X79500D01*
X79404D01*
X79309Y377359D01*
X79293D01*
X79229Y377375D01*
X79165Y377391D01*
X79101Y377407D01*
X79085Y377423D01*
X79053Y377439D01*
X79022Y377471D01*
X78990Y377502D01*
X78974Y377518D01*
X78958Y377550D01*
X78942Y377598D01*
Y381490D01*
X78958Y381554D01*
X78990Y381634D01*
Y381650D01*
X79022Y381698D01*
X79053Y381745D01*
X79101Y381809D01*
X79117Y381825D01*
X79149Y381857D01*
X79213Y381905D01*
X79293Y381953D01*
X79309Y381969D01*
X79372Y381985D01*
X79468Y382001D01*
X79596D01*
X84126D01*
X84142D01*
X84158D01*
X84269Y381985D01*
X84397Y381969D01*
X84541Y381905D01*
X84572Y381889D01*
X84636Y381825D01*
X84732Y381730D01*
X84796Y381650D01*
X84844Y381554D01*
Y381538D01*
X84860Y381506D01*
X84892Y381458D01*
X84923Y381379D01*
X84971Y381283D01*
X85019Y381155D01*
X85067Y381028D01*
X85131Y380868D01*
Y380852D01*
X85163Y380804D01*
X85195Y380709D01*
X85226Y380597D01*
X85274Y380469D01*
X85306Y380326D01*
X85402Y379991D01*
Y379975D01*
X85418Y379911D01*
X85434Y379831D01*
X85450Y379704D01*
X85482Y379576D01*
X85498Y379417D01*
X85546Y379082D01*
Y379066D01*
X85562Y379002D01*
Y378922D01*
X85577Y378795D01*
X85593Y378667D01*
Y378507D01*
X85609Y378172D01*
Y377949D01*
X85593Y377821D01*
Y377678D01*
X85577Y377518D01*
X85562Y377359D01*
X85514Y376976D01*
X85434Y376561D01*
X85338Y376131D01*
X85195Y375716D01*
Y375700D01*
X85179Y375668D01*
X85147Y375604D01*
X85115Y375540D01*
X85067Y375445D01*
X85019Y375333D01*
X84876Y375078D01*
X84716Y374791D01*
X84509Y374488D01*
X84254Y374169D01*
X83982Y373881D01*
X83966Y373866D01*
X83950Y373850D01*
X83903Y373818D01*
X83839Y373754D01*
X83679Y373626D01*
X83440Y373451D01*
X83169Y373275D01*
X82850Y373084D01*
X82483Y372892D01*
X82084Y372733D01*
X82068D01*
X82036Y372717D01*
X81973Y372701D01*
X81893Y372669D01*
X81781Y372637D01*
X81669Y372605D01*
X81526Y372574D01*
X81366Y372542D01*
X81191Y372510D01*
X80999Y372478D01*
X80569Y372414D01*
X80106Y372366D01*
X79612Y372350D01*
X79596D01*
X79548D01*
X79468D01*
X79372D01*
X79245Y372366D01*
X79101D01*
X78942Y372382D01*
X78766Y372398D01*
X78368Y372446D01*
X77937Y372526D01*
X77506Y372621D01*
X77059Y372765D01*
X77043D01*
X77012Y372781D01*
X76948Y372813D01*
X76868Y372845D01*
X76772Y372892D01*
X76645Y372940D01*
X76389Y373084D01*
X76070Y373243D01*
X75752Y373451D01*
X75416Y373706D01*
X75097Y373977D01*
X75082Y373993D01*
X75066Y374009D01*
X75018Y374057D01*
X74970Y374121D01*
X74810Y374280D01*
X74635Y374504D01*
X74427Y374775D01*
X74220Y375094D01*
X74013Y375445D01*
X73837Y375844D01*
Y375859D01*
X73821Y375891D01*
X73790Y375955D01*
X73773Y376035D01*
X73726Y376131D01*
X73694Y376258D01*
X73662Y376402D01*
X73614Y376545D01*
X73534Y376912D01*
X73454Y377311D01*
X73407Y377774D01*
X73391Y378252D01*
Y378507D01*
X73407Y378667D01*
X73423Y378858D01*
X73439Y379082D01*
X73518Y379528D01*
Y379560D01*
X73534Y379624D01*
X73566Y379752D01*
X73598Y379895D01*
X73646Y380055D01*
X73694Y380230D01*
X73805Y380597D01*
Y380613D01*
X73837Y380677D01*
X73869Y380756D01*
X73901Y380868D01*
X74013Y381123D01*
X74156Y381379D01*
Y381395D01*
X74188Y381426D01*
X74220Y381490D01*
X74252Y381554D01*
X74364Y381698D01*
X74412Y381761D01*
X74459Y381809D01*
X74475Y381825D01*
X74539Y381873D01*
X74619Y381937D01*
X74731Y381985D01*
X74763Y382001D01*
X74842Y382017D01*
X74986Y382033D01*
X75177D01*
X75209D01*
X75289D01*
X75385Y382017D01*
D02*
G37*
G36*
X85290Y371170D02*
X85354Y371154D01*
X85402Y371106D01*
Y371090D01*
X85434Y371058D01*
X85450Y370978D01*
X85466Y370867D01*
Y370835D01*
X85482Y370755D01*
X85498Y370611D01*
Y370101D01*
X85482Y369958D01*
Y369926D01*
X85466Y369862D01*
Y369782D01*
X85450Y369702D01*
Y369686D01*
X85434Y369654D01*
X85370Y369575D01*
X85354D01*
X85322Y369543D01*
X85226Y369495D01*
X82323Y368474D01*
Y363529D01*
X85179Y362556D01*
X85195D01*
X85226Y362540D01*
X85338Y362476D01*
X85370Y362444D01*
X85386Y362413D01*
X85418Y362349D01*
Y362333D01*
X85434Y362285D01*
X85450Y362205D01*
X85466Y362094D01*
Y362062D01*
X85482Y361982D01*
X85498Y361854D01*
Y361535D01*
X85482Y361392D01*
X85466Y361248D01*
Y361216D01*
X85450Y361152D01*
X85434Y361073D01*
X85402Y361009D01*
X85386Y360993D01*
X85354Y360977D01*
X85290Y360961D01*
X85211Y360945D01*
X85195D01*
X85115Y360961D01*
X85019Y360977D01*
X84876Y361025D01*
X73837Y365013D01*
X73821D01*
X73773Y365045D01*
X73678Y365108D01*
X73662Y365124D01*
X73646Y365156D01*
X73614Y365204D01*
X73582Y365284D01*
X73566Y365300D01*
X73550Y365364D01*
X73534Y365459D01*
X73518Y365571D01*
Y365603D01*
X73502Y365699D01*
Y366353D01*
X73518Y366512D01*
Y366544D01*
X73534Y366624D01*
X73550Y366735D01*
X73582Y366831D01*
Y366847D01*
X73598Y366895D01*
X73630Y366959D01*
X73678Y367006D01*
X73694Y367023D01*
X73726Y367054D01*
X73773Y367086D01*
X73853Y367118D01*
X84892Y371106D01*
X84908D01*
X84923Y371122D01*
X85003Y371154D01*
X85115Y371170D01*
X85226Y371186D01*
X85243D01*
X85290Y371170D01*
D02*
G37*
G36*
X85354Y359876D02*
X85386Y359844D01*
X85402Y359813D01*
X85434Y359749D01*
Y359733D01*
X85450Y359685D01*
Y359605D01*
X85466Y359493D01*
Y359462D01*
X85482Y359382D01*
X85498Y359238D01*
Y358919D01*
X85482Y358792D01*
X85466Y358664D01*
Y358648D01*
X85450Y358584D01*
X85434Y358504D01*
X85418Y358425D01*
Y358409D01*
X85386Y358377D01*
X85370Y358329D01*
X85322Y358281D01*
X85306D01*
X85274Y358249D01*
X85211Y358233D01*
X85131Y358201D01*
X82323Y357101D01*
X82307Y357085D01*
X82244Y357069D01*
X82148Y357037D01*
X82036Y356973D01*
X81893Y356925D01*
X81749Y356846D01*
X81446Y356702D01*
X81430Y356686D01*
X81382Y356670D01*
X81302Y356622D01*
X81207Y356558D01*
X80983Y356399D01*
X80760Y356208D01*
X80744Y356192D01*
X80712Y356160D01*
X80665Y356096D01*
X80601Y356016D01*
X80521Y355920D01*
X80457Y355809D01*
X80314Y355538D01*
X80298Y355522D01*
X80282Y355474D01*
X80250Y355394D01*
X80218Y355282D01*
X80186Y355139D01*
X80170Y354979D01*
X80138Y354804D01*
Y353560D01*
X85211D01*
X85226D01*
X85258D01*
X85306Y353544D01*
X85354Y353512D01*
Y353496D01*
X85386Y353480D01*
X85402Y353432D01*
X85434Y353368D01*
Y353352D01*
X85450Y353304D01*
Y353241D01*
X85466Y353129D01*
Y353097D01*
X85482Y353033D01*
X85498Y352922D01*
Y352635D01*
X85482Y352507D01*
X85466Y352379D01*
Y352363D01*
X85450Y352299D01*
Y352220D01*
X85434Y352140D01*
Y352124D01*
X85418Y352092D01*
X85386Y352044D01*
X85354Y352012D01*
X85338D01*
X85306Y351996D01*
X85211Y351981D01*
X74204D01*
X74188D01*
X74140D01*
X74077Y351996D01*
X73997D01*
X73837Y352060D01*
X73758Y352092D01*
X73694Y352156D01*
Y352172D01*
X73678Y352188D01*
X73614Y352284D01*
X73566Y352411D01*
X73550Y352555D01*
Y355346D01*
X73566Y355601D01*
X73582Y355841D01*
Y355952D01*
X73598Y356016D01*
X73614Y356192D01*
X73630Y356383D01*
Y356415D01*
X73646Y356495D01*
X73678Y356622D01*
X73726Y356798D01*
X73773Y356973D01*
X73837Y357181D01*
X74013Y357595D01*
X74029Y357611D01*
X74061Y357691D01*
X74109Y357787D01*
X74188Y357898D01*
X74284Y358042D01*
X74396Y358186D01*
X74523Y358329D01*
X74667Y358473D01*
X74683Y358489D01*
X74731Y358536D01*
X74810Y358600D01*
X74922Y358680D01*
X75050Y358760D01*
X75209Y358856D01*
X75369Y358935D01*
X75560Y359015D01*
X75576Y359031D01*
X75656Y359047D01*
X75752Y359079D01*
X75895Y359111D01*
X76055Y359143D01*
X76246Y359174D01*
X76469Y359206D01*
X76693D01*
X76725D01*
X76788D01*
X76900Y359190D01*
X77043D01*
X77219Y359159D01*
X77394Y359127D01*
X77570Y359095D01*
X77761Y359031D01*
X77777D01*
X77841Y358999D01*
X77937Y358967D01*
X78049Y358919D01*
X78176Y358856D01*
X78320Y358776D01*
X78607Y358568D01*
X78623Y358552D01*
X78671Y358521D01*
X78734Y358457D01*
X78814Y358361D01*
X78910Y358249D01*
X79022Y358138D01*
X79117Y357994D01*
X79229Y357835D01*
X79245Y357819D01*
X79277Y357755D01*
X79325Y357675D01*
X79388Y357563D01*
X79452Y357420D01*
X79532Y357260D01*
X79612Y357085D01*
X79675Y356894D01*
Y356909D01*
X79691Y356941D01*
X79723Y357005D01*
X79771Y357069D01*
X79867Y357244D01*
X80010Y357436D01*
X80026Y357452D01*
X80042Y357484D01*
X80090Y357516D01*
X80138Y357579D01*
X80298Y357723D01*
X80489Y357882D01*
X80505Y357898D01*
X80537Y357914D01*
X80601Y357962D01*
X80665Y358010D01*
X80760Y358074D01*
X80872Y358138D01*
X81127Y358265D01*
X81143Y358281D01*
X81191Y358297D01*
X81255Y358329D01*
X81350Y358377D01*
X81478Y358441D01*
X81606Y358504D01*
X81925Y358632D01*
X84541Y359701D01*
X84557D01*
X84588Y359717D01*
X84652Y359749D01*
X84716Y359765D01*
X84876Y359828D01*
X84939Y359844D01*
X85003Y359860D01*
X85019Y359876D01*
X85083Y359892D01*
X85147Y359908D01*
X85211D01*
X85226D01*
X85258D01*
X85354Y359876D01*
D02*
G37*
G36*
X85290Y350050D02*
X85354Y350034D01*
X85402Y349987D01*
Y349971D01*
X85434Y349939D01*
X85450Y349859D01*
X85466Y349747D01*
Y349715D01*
X85482Y349636D01*
X85498Y349492D01*
Y348982D01*
X85482Y348838D01*
Y348806D01*
X85466Y348742D01*
Y348663D01*
X85450Y348583D01*
Y348567D01*
X85434Y348535D01*
X85370Y348455D01*
X85354D01*
X85322Y348423D01*
X85226Y348376D01*
X82323Y347355D01*
Y342410D01*
X85179Y341437D01*
X85195D01*
X85226Y341421D01*
X85338Y341357D01*
X85370Y341325D01*
X85386Y341293D01*
X85418Y341229D01*
Y341213D01*
X85434Y341166D01*
X85450Y341086D01*
X85466Y340974D01*
Y340942D01*
X85482Y340863D01*
X85498Y340735D01*
Y340416D01*
X85482Y340272D01*
X85466Y340129D01*
Y340097D01*
X85450Y340033D01*
X85434Y339953D01*
X85402Y339889D01*
X85386Y339874D01*
X85354Y339858D01*
X85290Y339842D01*
X85211Y339826D01*
X85195D01*
X85115Y339842D01*
X85019Y339858D01*
X84876Y339905D01*
X73837Y343893D01*
X73821D01*
X73773Y343925D01*
X73678Y343989D01*
X73662Y344005D01*
X73646Y344037D01*
X73614Y344085D01*
X73582Y344164D01*
X73566Y344180D01*
X73550Y344244D01*
X73534Y344340D01*
X73518Y344451D01*
Y344483D01*
X73502Y344579D01*
Y345233D01*
X73518Y345393D01*
Y345425D01*
X73534Y345504D01*
X73550Y345616D01*
X73582Y345712D01*
Y345728D01*
X73598Y345775D01*
X73630Y345839D01*
X73678Y345887D01*
X73694Y345903D01*
X73726Y345935D01*
X73773Y345967D01*
X73853Y345999D01*
X84892Y349987D01*
X84908D01*
X84923Y350003D01*
X85003Y350034D01*
X85115Y350050D01*
X85226Y350066D01*
X85243D01*
X85290Y350050D01*
D02*
G37*
G36*
X75385Y338135D02*
X75496Y338119D01*
X75512D01*
X75576Y338103D01*
X75640Y338087D01*
X75720Y338071D01*
X75736D01*
X75767Y338055D01*
X75799Y338023D01*
X75831Y337975D01*
X75847Y337943D01*
X75863Y337864D01*
Y337848D01*
X75847Y337768D01*
X75799Y337656D01*
X75704Y337481D01*
X75688Y337465D01*
X75672Y337433D01*
X75640Y337385D01*
X75592Y337305D01*
X75528Y337210D01*
X75464Y337082D01*
X75401Y336954D01*
X75321Y336795D01*
X75305Y336779D01*
X75289Y336715D01*
X75241Y336619D01*
X75193Y336508D01*
X75129Y336348D01*
X75066Y336173D01*
X74986Y335981D01*
X74922Y335758D01*
X74906Y335726D01*
X74890Y335647D01*
X74858Y335535D01*
X74826Y335359D01*
X74794Y335152D01*
X74778Y334913D01*
X74747Y334641D01*
Y334179D01*
X74763Y334083D01*
Y333988D01*
X74794Y333748D01*
X74842Y333477D01*
X74906Y333174D01*
X74986Y332871D01*
X75113Y332568D01*
Y332552D01*
X75129Y332536D01*
X75177Y332440D01*
X75257Y332297D01*
X75369Y332105D01*
X75512Y331898D01*
X75672Y331675D01*
X75879Y331451D01*
X76102Y331244D01*
X76134Y331228D01*
X76214Y331148D01*
X76358Y331053D01*
X76533Y330941D01*
X76756Y330797D01*
X77012Y330670D01*
X77299Y330526D01*
X77618Y330415D01*
X77634D01*
X77650Y330398D01*
X77698Y330383D01*
X77761Y330367D01*
X77841Y330351D01*
X77937Y330319D01*
X78176Y330271D01*
X78463Y330223D01*
X78782Y330175D01*
X79133Y330143D01*
X79500Y330127D01*
X79516D01*
X79548D01*
X79612D01*
X79691D01*
X79787Y330143D01*
X79915D01*
X80186Y330159D01*
X80505Y330207D01*
X80840Y330255D01*
X81191Y330335D01*
X81526Y330430D01*
X81542D01*
X81558Y330446D01*
X81606Y330462D01*
X81669Y330494D01*
X81829Y330558D01*
X82036Y330654D01*
X82275Y330781D01*
X82515Y330941D01*
X82770Y331116D01*
X83009Y331308D01*
X83041Y331340D01*
X83105Y331404D01*
X83217Y331531D01*
X83344Y331691D01*
X83504Y331882D01*
X83647Y332121D01*
X83807Y332377D01*
X83934Y332648D01*
Y332664D01*
X83950Y332679D01*
X83966Y332727D01*
X83982Y332791D01*
X84030Y332951D01*
X84078Y333158D01*
X84142Y333413D01*
X84190Y333700D01*
X84222Y334019D01*
X84237Y334354D01*
Y334562D01*
X84222Y334705D01*
X84206Y334881D01*
X84190Y335056D01*
X84110Y335471D01*
Y335503D01*
X84078Y335567D01*
X84062Y335678D01*
X84014Y335822D01*
X83950Y335981D01*
X83887Y336157D01*
X83711Y336540D01*
X80234D01*
Y333732D01*
X80218Y333669D01*
X80170Y333589D01*
X80090Y333525D01*
X80058Y333509D01*
X79963Y333493D01*
X79899Y333477D01*
X79819D01*
X79707Y333461D01*
X79596D01*
X79580D01*
X79564D01*
X79500D01*
X79404D01*
X79309Y333477D01*
X79293D01*
X79229Y333493D01*
X79165Y333509D01*
X79101Y333525D01*
X79085Y333541D01*
X79053Y333557D01*
X79022Y333589D01*
X78990Y333621D01*
X78974Y333637D01*
X78958Y333669D01*
X78942Y333716D01*
Y337608D01*
X78958Y337672D01*
X78990Y337752D01*
Y337768D01*
X79022Y337816D01*
X79053Y337864D01*
X79101Y337928D01*
X79117Y337943D01*
X79149Y337975D01*
X79213Y338023D01*
X79293Y338071D01*
X79309Y338087D01*
X79372Y338103D01*
X79468Y338119D01*
X79596D01*
X84126D01*
X84142D01*
X84158D01*
X84269Y338103D01*
X84397Y338087D01*
X84541Y338023D01*
X84572Y338007D01*
X84636Y337943D01*
X84732Y337848D01*
X84796Y337768D01*
X84844Y337672D01*
Y337656D01*
X84860Y337624D01*
X84892Y337577D01*
X84923Y337497D01*
X84971Y337401D01*
X85019Y337273D01*
X85067Y337146D01*
X85131Y336986D01*
Y336970D01*
X85163Y336923D01*
X85195Y336827D01*
X85226Y336715D01*
X85274Y336588D01*
X85306Y336444D01*
X85402Y336109D01*
Y336093D01*
X85418Y336029D01*
X85434Y335950D01*
X85450Y335822D01*
X85482Y335694D01*
X85498Y335535D01*
X85546Y335200D01*
Y335184D01*
X85562Y335120D01*
Y335040D01*
X85577Y334913D01*
X85593Y334785D01*
Y334626D01*
X85609Y334291D01*
Y334067D01*
X85593Y333940D01*
Y333796D01*
X85577Y333637D01*
X85562Y333477D01*
X85514Y333094D01*
X85434Y332679D01*
X85338Y332249D01*
X85195Y331834D01*
Y331818D01*
X85179Y331786D01*
X85147Y331722D01*
X85115Y331659D01*
X85067Y331563D01*
X85019Y331451D01*
X84876Y331196D01*
X84716Y330909D01*
X84509Y330606D01*
X84254Y330287D01*
X83982Y330000D01*
X83966Y329984D01*
X83950Y329968D01*
X83903Y329936D01*
X83839Y329872D01*
X83679Y329744D01*
X83440Y329569D01*
X83169Y329394D01*
X82850Y329202D01*
X82483Y329011D01*
X82084Y328851D01*
X82068D01*
X82036Y328835D01*
X81973Y328819D01*
X81893Y328787D01*
X81781Y328756D01*
X81669Y328724D01*
X81526Y328692D01*
X81366Y328660D01*
X81191Y328628D01*
X80999Y328596D01*
X80569Y328532D01*
X80106Y328484D01*
X79612Y328468D01*
X79596D01*
X79548D01*
X79468D01*
X79372D01*
X79245Y328484D01*
X79101D01*
X78942Y328500D01*
X78766Y328516D01*
X78368Y328564D01*
X77937Y328644D01*
X77506Y328740D01*
X77059Y328883D01*
X77043D01*
X77012Y328899D01*
X76948Y328931D01*
X76868Y328963D01*
X76772Y329011D01*
X76645Y329059D01*
X76389Y329202D01*
X76070Y329362D01*
X75752Y329569D01*
X75416Y329824D01*
X75097Y330095D01*
X75082Y330111D01*
X75066Y330127D01*
X75018Y330175D01*
X74970Y330239D01*
X74810Y330398D01*
X74635Y330622D01*
X74427Y330893D01*
X74220Y331212D01*
X74013Y331563D01*
X73837Y331962D01*
Y331978D01*
X73821Y332010D01*
X73790Y332073D01*
X73773Y332153D01*
X73726Y332249D01*
X73694Y332377D01*
X73662Y332520D01*
X73614Y332664D01*
X73534Y333031D01*
X73454Y333429D01*
X73407Y333892D01*
X73391Y334370D01*
Y334626D01*
X73407Y334785D01*
X73423Y334977D01*
X73439Y335200D01*
X73518Y335647D01*
Y335678D01*
X73534Y335742D01*
X73566Y335870D01*
X73598Y336013D01*
X73646Y336173D01*
X73694Y336348D01*
X73805Y336715D01*
Y336731D01*
X73837Y336795D01*
X73869Y336875D01*
X73901Y336986D01*
X74013Y337242D01*
X74156Y337497D01*
Y337513D01*
X74188Y337545D01*
X74220Y337608D01*
X74252Y337672D01*
X74364Y337816D01*
X74412Y337880D01*
X74459Y337928D01*
X74475Y337943D01*
X74539Y337991D01*
X74619Y338055D01*
X74731Y338103D01*
X74763Y338119D01*
X74842Y338135D01*
X74986Y338151D01*
X75177D01*
X75209D01*
X75289D01*
X75385Y338135D01*
D02*
G37*
G36*
X73885Y327288D02*
X73981Y327240D01*
X74124Y327176D01*
X80824Y323827D01*
X85211D01*
X85226D01*
X85258D01*
X85306Y323811D01*
X85354Y323779D01*
X85386Y323747D01*
X85402Y323715D01*
X85434Y323651D01*
Y323635D01*
X85450Y323587D01*
Y323508D01*
X85466Y323396D01*
Y323364D01*
X85482Y323300D01*
X85498Y323189D01*
Y322901D01*
X85482Y322774D01*
X85466Y322646D01*
Y322630D01*
X85450Y322566D01*
Y322487D01*
X85434Y322407D01*
Y322391D01*
X85418Y322359D01*
X85386Y322311D01*
X85354Y322279D01*
X85338D01*
X85306Y322263D01*
X85211Y322248D01*
X80824D01*
X74124Y318882D01*
X74109D01*
X74093Y318866D01*
X74013Y318818D01*
X73901Y318770D01*
X73805Y318738D01*
X73790D01*
X73726D01*
X73678Y318754D01*
X73614Y318786D01*
X73598Y318802D01*
X73582Y318850D01*
X73550Y318930D01*
X73534Y319041D01*
Y319073D01*
X73518Y319121D01*
Y319169D01*
X73502Y319328D01*
Y319695D01*
X73518Y319839D01*
X73534Y319966D01*
Y319998D01*
X73550Y320062D01*
X73566Y320158D01*
X73582Y320238D01*
Y320254D01*
X73598Y320301D01*
X73630Y320349D01*
X73678Y320397D01*
X73694Y320413D01*
X73710Y320429D01*
X73758Y320461D01*
X73821Y320493D01*
X77235Y322136D01*
X77251Y322152D01*
X77315Y322184D01*
X77426Y322231D01*
X77554Y322279D01*
X77698Y322359D01*
X77873Y322439D01*
X78272Y322598D01*
X78288Y322614D01*
X78368Y322630D01*
X78463Y322678D01*
X78607Y322742D01*
X78766Y322806D01*
X78942Y322886D01*
X79341Y323061D01*
Y323077D01*
X79309Y323093D01*
X79245Y323109D01*
X79149Y323157D01*
X79005Y323204D01*
X78862Y323268D01*
X78686Y323348D01*
X78304Y323508D01*
X78272Y323524D01*
X78208Y323540D01*
X78112Y323587D01*
X77969Y323651D01*
X77825Y323715D01*
X77650Y323795D01*
X77267Y323970D01*
X73837Y325613D01*
X73821D01*
X73773Y325629D01*
X73678Y325693D01*
X73662Y325709D01*
X73646Y325741D01*
X73582Y325836D01*
Y325852D01*
X73566Y325900D01*
X73550Y325964D01*
X73534Y326076D01*
Y326108D01*
X73518Y326187D01*
X73502Y326315D01*
Y326666D01*
X73518Y326825D01*
X73534Y326985D01*
Y327017D01*
X73550Y327097D01*
X73566Y327176D01*
X73614Y327256D01*
X73630Y327272D01*
X73662Y327288D01*
X73726Y327304D01*
X73805D01*
X73821D01*
X73885Y327288D01*
D02*
G37*
G36*
X85003Y317462D02*
X85099Y317446D01*
X85115D01*
X85179Y317430D01*
X85243Y317414D01*
X85306Y317382D01*
X85322D01*
X85354Y317350D01*
X85386Y317318D01*
X85418Y317271D01*
Y317255D01*
X85434Y317239D01*
X85450Y317143D01*
Y311401D01*
X85434Y311305D01*
X85402Y311177D01*
X85322Y311034D01*
X85290Y311002D01*
X85258Y310986D01*
X85211Y310954D01*
X85131Y310922D01*
X85051Y310890D01*
X84939Y310874D01*
X84812Y310858D01*
X74204D01*
X74188D01*
X74140D01*
X74077Y310874D01*
X73997D01*
X73837Y310938D01*
X73758Y310970D01*
X73694Y311034D01*
Y311050D01*
X73678Y311066D01*
X73614Y311161D01*
X73566Y311289D01*
X73550Y311432D01*
Y317127D01*
X73566Y317175D01*
X73598Y317207D01*
Y317223D01*
X73630Y317239D01*
X73662Y317271D01*
X73710Y317303D01*
X73726Y317318D01*
X73758Y317334D01*
X73837Y317350D01*
X73917Y317366D01*
X73933D01*
X73997Y317382D01*
X74093Y317398D01*
X74220D01*
X74252D01*
X74316D01*
X74427Y317382D01*
X74523Y317366D01*
X74539D01*
X74587Y317350D01*
X74715Y317303D01*
X74731D01*
X74763Y317287D01*
X74794Y317255D01*
X74826Y317207D01*
Y317191D01*
X74842Y317175D01*
X74858Y317079D01*
Y312437D01*
X78607D01*
Y316473D01*
X78623Y316521D01*
X78655Y316553D01*
X78671Y316569D01*
X78686Y316585D01*
X78782Y316649D01*
X78798Y316665D01*
X78830Y316681D01*
X78894Y316696D01*
X78974Y316712D01*
X78990D01*
X79053Y316728D01*
X79149Y316744D01*
X79277D01*
X79309D01*
X79372D01*
X79468Y316728D01*
X79564Y316712D01*
X79580D01*
X79628Y316696D01*
X79755Y316649D01*
X79771D01*
X79787Y316633D01*
X79851Y316553D01*
Y316537D01*
X79867Y316521D01*
X79883Y316425D01*
Y312437D01*
X84142D01*
Y317191D01*
X84158Y317239D01*
X84190Y317271D01*
Y317287D01*
X84222Y317303D01*
X84254Y317350D01*
X84301Y317382D01*
X84317Y317398D01*
X84349Y317414D01*
X84429Y317430D01*
X84509Y317446D01*
X84525D01*
X84588Y317462D01*
X84684Y317478D01*
X84812D01*
X84844D01*
X84908D01*
X85003Y317462D01*
D02*
G37*
G36*
X84971Y309104D02*
X85083Y309088D01*
X85099D01*
X85147Y309072D01*
X85211Y309056D01*
X85290Y309024D01*
X85306D01*
X85338Y309008D01*
X85418Y308928D01*
Y308912D01*
X85434Y308896D01*
X85450Y308848D01*
Y303489D01*
X85434Y303393D01*
X85402Y303265D01*
X85322Y303122D01*
X85290Y303090D01*
X85258Y303074D01*
X85211Y303042D01*
X85131Y303010D01*
X85051Y302978D01*
X84939Y302962D01*
X84812Y302946D01*
X73805D01*
X73790D01*
X73758D01*
X73678Y302978D01*
X73662D01*
X73646Y303010D01*
X73614Y303042D01*
X73582Y303106D01*
Y303122D01*
X73566Y303170D01*
X73550Y303250D01*
X73534Y303345D01*
Y303377D01*
X73518Y303457D01*
X73502Y303569D01*
Y303856D01*
X73518Y303983D01*
X73534Y304095D01*
Y304127D01*
X73550Y304191D01*
X73566Y304270D01*
X73582Y304350D01*
Y304366D01*
X73598Y304398D01*
X73630Y304446D01*
X73678Y304478D01*
X73694Y304494D01*
X73710Y304510D01*
X73758Y304526D01*
X73805D01*
X84078D01*
Y308832D01*
X84094Y308880D01*
X84126Y308928D01*
X84142Y308944D01*
X84158Y308960D01*
X84254Y309024D01*
X84269Y309040D01*
X84301Y309056D01*
X84365Y309072D01*
X84461Y309088D01*
X84477D01*
X84541Y309104D01*
X84636Y309120D01*
X84764D01*
X84796D01*
X84876D01*
X84971Y309104D01*
D02*
G37*
G36*
Y301192D02*
X85083Y301176D01*
X85099D01*
X85147Y301160D01*
X85211Y301144D01*
X85290Y301112D01*
X85306D01*
X85338Y301096D01*
X85418Y301016D01*
Y301000D01*
X85434Y300984D01*
X85450Y300937D01*
Y295577D01*
X85434Y295481D01*
X85402Y295354D01*
X85322Y295210D01*
X85290Y295178D01*
X85258Y295162D01*
X85211Y295130D01*
X85131Y295098D01*
X85051Y295067D01*
X84939Y295051D01*
X84812Y295035D01*
X73805D01*
X73790D01*
X73758D01*
X73678Y295067D01*
X73662D01*
X73646Y295098D01*
X73614Y295130D01*
X73582Y295194D01*
Y295210D01*
X73566Y295258D01*
X73550Y295338D01*
X73534Y295434D01*
Y295465D01*
X73518Y295545D01*
X73502Y295657D01*
Y295944D01*
X73518Y296071D01*
X73534Y296183D01*
Y296215D01*
X73550Y296279D01*
X73566Y296359D01*
X73582Y296438D01*
Y296454D01*
X73598Y296486D01*
X73630Y296534D01*
X73678Y296566D01*
X73694Y296582D01*
X73710Y296598D01*
X73758Y296614D01*
X73805D01*
X84078D01*
Y300921D01*
X84094Y300969D01*
X84126Y301016D01*
X84142Y301032D01*
X84158Y301048D01*
X84254Y301112D01*
X84269Y301128D01*
X84301Y301144D01*
X84365Y301160D01*
X84461Y301176D01*
X84477D01*
X84541Y301192D01*
X84636Y301208D01*
X84764D01*
X84796D01*
X84876D01*
X84971Y301192D01*
D02*
G37*
G36*
X85290Y293105D02*
X85354Y293089D01*
X85402Y293041D01*
Y293025D01*
X85434Y292993D01*
X85450Y292913D01*
X85466Y292801D01*
Y292770D01*
X85482Y292690D01*
X85498Y292546D01*
Y292036D01*
X85482Y291892D01*
Y291860D01*
X85466Y291797D01*
Y291717D01*
X85450Y291637D01*
Y291621D01*
X85434Y291589D01*
X85370Y291509D01*
X85354D01*
X85322Y291478D01*
X85226Y291430D01*
X82323Y290409D01*
Y285464D01*
X85179Y284491D01*
X85195D01*
X85226Y284475D01*
X85338Y284411D01*
X85370Y284379D01*
X85386Y284347D01*
X85418Y284284D01*
Y284268D01*
X85434Y284220D01*
X85450Y284140D01*
X85466Y284028D01*
Y283997D01*
X85482Y283917D01*
X85498Y283789D01*
Y283470D01*
X85482Y283326D01*
X85466Y283183D01*
Y283151D01*
X85450Y283087D01*
X85434Y283008D01*
X85402Y282944D01*
X85386Y282928D01*
X85354Y282912D01*
X85290Y282896D01*
X85211Y282880D01*
X85195D01*
X85115Y282896D01*
X85019Y282912D01*
X84876Y282960D01*
X73837Y286947D01*
X73821D01*
X73773Y286979D01*
X73678Y287043D01*
X73662Y287059D01*
X73646Y287091D01*
X73614Y287139D01*
X73582Y287219D01*
X73566Y287235D01*
X73550Y287298D01*
X73534Y287394D01*
X73518Y287506D01*
Y287538D01*
X73502Y287633D01*
Y288287D01*
X73518Y288447D01*
Y288479D01*
X73534Y288559D01*
X73550Y288670D01*
X73582Y288766D01*
Y288782D01*
X73598Y288830D01*
X73630Y288894D01*
X73678Y288941D01*
X73694Y288957D01*
X73726Y288989D01*
X73773Y289021D01*
X73853Y289053D01*
X84892Y293041D01*
X84908D01*
X84923Y293057D01*
X85003Y293089D01*
X85115Y293105D01*
X85226Y293121D01*
X85243D01*
X85290Y293105D01*
D02*
G37*
G36*
X73901Y282194D02*
X73997Y282178D01*
X74140Y282130D01*
X85179Y278254D01*
X85195D01*
X85226Y278238D01*
X85338Y278158D01*
X85354Y278142D01*
X85370Y278111D01*
X85402Y278047D01*
X85434Y277967D01*
Y277951D01*
X85450Y277887D01*
X85466Y277792D01*
X85482Y277680D01*
Y277568D01*
X85498Y277425D01*
Y277010D01*
X85482Y276882D01*
Y276707D01*
X85466Y276627D01*
Y276611D01*
X85450Y276563D01*
X85434Y276436D01*
Y276420D01*
X85418Y276388D01*
X85386Y276292D01*
X85370D01*
X85354Y276260D01*
X85290Y276212D01*
X85274D01*
X85258Y276196D01*
X85163Y276164D01*
X74124Y272272D01*
X74109D01*
X74093Y272256D01*
X74013Y272241D01*
X73901Y272208D01*
X73805Y272193D01*
X73790D01*
X73726Y272208D01*
X73678Y272225D01*
X73614Y272272D01*
X73598Y272288D01*
X73582Y272336D01*
X73550Y272416D01*
X73534Y272528D01*
Y272560D01*
X73518Y272607D01*
Y272671D01*
X73502Y272831D01*
Y273309D01*
X73518Y273437D01*
Y273469D01*
X73534Y273533D01*
X73550Y273612D01*
X73582Y273676D01*
Y273692D01*
X73598Y273724D01*
X73630Y273756D01*
X73678Y273788D01*
X73694Y273804D01*
X73710Y273820D01*
X73758Y273852D01*
X73821Y273883D01*
X83823Y277297D01*
X73837Y280615D01*
X73821D01*
X73773Y280631D01*
X73678Y280663D01*
X73662Y280679D01*
X73646Y280695D01*
X73582Y280790D01*
X73566Y280806D01*
X73550Y280854D01*
X73534Y280934D01*
X73518Y281045D01*
Y281077D01*
X73502Y281173D01*
Y281652D01*
X73518Y281795D01*
X73534Y281939D01*
Y281971D01*
X73550Y282034D01*
X73566Y282114D01*
X73614Y282162D01*
X73630Y282178D01*
X73662Y282194D01*
X73726Y282210D01*
X73805D01*
X73821D01*
X73901Y282194D01*
D02*
G37*
G36*
X85019Y270263D02*
X85131Y270231D01*
X85147Y270215D01*
X85211Y270183D01*
X85274Y270135D01*
X85338Y270055D01*
X85354Y270039D01*
X85386Y269991D01*
X85418Y269928D01*
X85450Y269832D01*
Y269816D01*
X85466Y269768D01*
X85482Y269688D01*
Y268923D01*
X85466Y268779D01*
X85434Y268636D01*
X85418Y268604D01*
X85386Y268524D01*
X85338Y268412D01*
X85258Y268285D01*
X85226Y268253D01*
X85163Y268189D01*
X85035Y268077D01*
X84892Y267950D01*
X84876D01*
X84844Y267918D01*
X84796Y267886D01*
X84732Y267854D01*
X84636Y267790D01*
X84541Y267742D01*
X84285Y267599D01*
X77522Y263962D01*
X77506Y263946D01*
X77426Y263914D01*
X77331Y263850D01*
X77187Y263786D01*
X77028Y263691D01*
X76852Y263595D01*
X76645Y263499D01*
X76437Y263388D01*
X76406Y263372D01*
X76342Y263340D01*
X76230Y263292D01*
X76087Y263212D01*
X75911Y263132D01*
X75720Y263053D01*
X75321Y262861D01*
Y262829D01*
X75353D01*
X75433D01*
X75560Y262845D01*
X75736D01*
X75927D01*
X76166Y262861D01*
X76406D01*
X76661D01*
X76693D01*
X76772D01*
X76916D01*
X77091Y262877D01*
X77299D01*
X77522D01*
X77777D01*
X78032D01*
X85211D01*
X85226D01*
X85243D01*
X85290Y262861D01*
X85338Y262829D01*
X85354D01*
X85370Y262797D01*
X85402Y262765D01*
X85434Y262702D01*
Y262686D01*
X85450Y262638D01*
Y262558D01*
X85466Y262446D01*
Y262414D01*
X85482Y262351D01*
X85498Y262239D01*
Y261936D01*
X85482Y261808D01*
X85466Y261681D01*
Y261665D01*
X85450Y261601D01*
Y261521D01*
X85434Y261441D01*
Y261425D01*
X85402Y261394D01*
X85386Y261362D01*
X85338Y261330D01*
X85322D01*
X85290Y261314D01*
X85211Y261298D01*
X74236D01*
X74220D01*
X74172D01*
X74109Y261314D01*
X74029Y261330D01*
X73853Y261394D01*
X73773Y261441D01*
X73710Y261505D01*
Y261521D01*
X73678Y261537D01*
X73630Y261633D01*
X73582Y261777D01*
X73550Y261952D01*
Y262893D01*
X73566Y263037D01*
X73598Y263180D01*
Y263196D01*
X73614Y263212D01*
X73630Y263292D01*
X73678Y263403D01*
X73758Y263515D01*
X73773Y263547D01*
X73837Y263611D01*
X73933Y263707D01*
X74061Y263802D01*
X74093Y263834D01*
X74188Y263898D01*
X74332Y263994D01*
X74523Y264105D01*
X79739Y266897D01*
X79755Y266913D01*
X79819Y266945D01*
X79915Y266992D01*
X80042Y267056D01*
X80186Y267136D01*
X80345Y267216D01*
X80680Y267391D01*
X80696Y267407D01*
X80760Y267439D01*
X80840Y267487D01*
X80952Y267535D01*
X81095Y267615D01*
X81239Y267694D01*
X81574Y267854D01*
X81590Y267870D01*
X81653Y267886D01*
X81733Y267934D01*
X81845Y267997D01*
X81988Y268061D01*
X82132Y268125D01*
X82451Y268285D01*
X82467Y268300D01*
X82515Y268316D01*
X82611Y268364D01*
X82706Y268428D01*
X82834Y268492D01*
X82977Y268572D01*
X83296Y268731D01*
X83280D01*
X83265D01*
X83169D01*
X83025D01*
X82834D01*
X82611Y268715D01*
X82355D01*
X82084D01*
X81797D01*
X81781D01*
X81765D01*
X81717D01*
X81653D01*
X81510D01*
X81302D01*
X81079D01*
X80824D01*
X80282D01*
X73837D01*
X73821D01*
X73805D01*
X73726Y268747D01*
X73710D01*
X73694Y268779D01*
X73662Y268811D01*
X73630Y268875D01*
X73614Y268891D01*
X73598Y268939D01*
X73582Y269018D01*
X73566Y269114D01*
Y269146D01*
X73550Y269226D01*
X73534Y269353D01*
Y269640D01*
X73550Y269752D01*
X73566Y269880D01*
Y269912D01*
X73582Y269975D01*
X73598Y270055D01*
X73630Y270119D01*
Y270135D01*
X73646Y270167D01*
X73678Y270215D01*
X73726Y270247D01*
Y270263D01*
X73758Y270278D01*
X73790Y270294D01*
X73837D01*
X84812D01*
X84844D01*
X84923D01*
X85019Y270263D01*
D02*
G37*
G36*
X79739Y258794D02*
X79883D01*
X80058Y258778D01*
X80234Y258762D01*
X80633Y258730D01*
X81079Y258666D01*
X81526Y258570D01*
X81973Y258459D01*
X81988D01*
X82020Y258443D01*
X82084Y258427D01*
X82164Y258395D01*
X82260Y258363D01*
X82387Y258315D01*
X82658Y258203D01*
X82961Y258060D01*
X83296Y257884D01*
X83631Y257677D01*
X83950Y257438D01*
X83966D01*
X83982Y257406D01*
X84078Y257310D01*
X84237Y257167D01*
X84413Y256975D01*
X84604Y256736D01*
X84812Y256449D01*
X85019Y256114D01*
X85195Y255747D01*
Y255731D01*
X85211Y255699D01*
X85226Y255651D01*
X85258Y255571D01*
X85290Y255476D01*
X85338Y255348D01*
X85370Y255221D01*
X85402Y255061D01*
X85482Y254726D01*
X85562Y254311D01*
X85609Y253865D01*
X85625Y253370D01*
Y253147D01*
X85609Y253035D01*
Y252892D01*
X85593Y252748D01*
X85577Y252573D01*
X85530Y252206D01*
X85450Y251823D01*
X85354Y251424D01*
X85226Y251041D01*
Y251025D01*
X85211Y250993D01*
X85179Y250946D01*
X85147Y250882D01*
X85067Y250706D01*
X84939Y250483D01*
X84764Y250228D01*
X84572Y249957D01*
X84349Y249685D01*
X84078Y249430D01*
X84062D01*
X84046Y249398D01*
X83998Y249366D01*
X83934Y249319D01*
X83775Y249207D01*
X83552Y249079D01*
X83280Y248920D01*
X82961Y248760D01*
X82579Y248601D01*
X82180Y248473D01*
X82164D01*
X82132Y248457D01*
X82068Y248441D01*
X81973Y248425D01*
X81877Y248409D01*
X81749Y248377D01*
X81590Y248346D01*
X81430Y248330D01*
X81239Y248298D01*
X81047Y248266D01*
X80601Y248218D01*
X80106Y248186D01*
X79580Y248170D01*
X79564D01*
X79516D01*
X79436D01*
X79341D01*
X79213Y248186D01*
X79069D01*
X78910Y248202D01*
X78718Y248218D01*
X78336Y248250D01*
X77889Y248314D01*
X77458Y248393D01*
X77012Y248505D01*
X76996D01*
X76964Y248521D01*
X76900Y248537D01*
X76820Y248569D01*
X76725Y248601D01*
X76613Y248649D01*
X76342Y248760D01*
X76039Y248904D01*
X75704Y249063D01*
X75385Y249271D01*
X75066Y249510D01*
X75050Y249526D01*
X75034Y249542D01*
X74938Y249638D01*
X74778Y249781D01*
X74603Y249988D01*
X74412Y250228D01*
X74204Y250515D01*
X73997Y250850D01*
X73821Y251217D01*
Y251233D01*
X73805Y251265D01*
X73773Y251328D01*
X73758Y251392D01*
X73710Y251488D01*
X73678Y251616D01*
X73646Y251743D01*
X73598Y251903D01*
X73550Y252062D01*
X73518Y252254D01*
X73439Y252652D01*
X73391Y253115D01*
X73375Y253609D01*
Y253833D01*
X73391Y253944D01*
Y254072D01*
X73407Y254216D01*
X73423Y254391D01*
X73471Y254742D01*
X73550Y255125D01*
X73646Y255508D01*
X73773Y255891D01*
Y255906D01*
X73790Y255938D01*
X73821Y255986D01*
X73853Y256050D01*
X73933Y256225D01*
X74061Y256465D01*
X74236Y256720D01*
X74427Y256991D01*
X74667Y257262D01*
X74938Y257518D01*
X74954D01*
X74970Y257549D01*
X75018Y257581D01*
X75066Y257629D01*
X75241Y257741D01*
X75448Y257884D01*
X75720Y258044D01*
X76039Y258203D01*
X76406Y258363D01*
X76804Y258491D01*
X76820D01*
X76852Y258507D01*
X76916Y258522D01*
X76996Y258538D01*
X77107Y258570D01*
X77235Y258586D01*
X77379Y258618D01*
X77538Y258650D01*
X77729Y258682D01*
X77921Y258714D01*
X78351Y258762D01*
X78846Y258794D01*
X79372Y258810D01*
X79388D01*
X79436D01*
X79516D01*
X79612D01*
X79739Y258794D01*
D02*
G37*
G36*
X84014Y246735D02*
X84030D01*
X84078Y246719D01*
X84206Y246687D01*
X84222D01*
X84254Y246671D01*
X84349Y246639D01*
X84365D01*
X84397Y246607D01*
X84445Y246575D01*
X84509Y246511D01*
X84525Y246495D01*
X84572Y246431D01*
X84620Y246368D01*
X84668Y246304D01*
X84732Y246224D01*
X84796Y246112D01*
X84812Y246096D01*
X84828Y246064D01*
X84860Y246001D01*
X84908Y245921D01*
X84971Y245809D01*
X85035Y245682D01*
X85099Y245554D01*
X85179Y245395D01*
Y245379D01*
X85211Y245315D01*
X85243Y245235D01*
X85274Y245107D01*
X85322Y244964D01*
X85370Y244788D01*
X85418Y244597D01*
X85466Y244390D01*
Y244358D01*
X85482Y244294D01*
X85498Y244182D01*
X85530Y244023D01*
X85546Y243847D01*
X85577Y243640D01*
X85593Y243401D01*
Y242970D01*
X85577Y242858D01*
Y242747D01*
X85546Y242460D01*
X85498Y242141D01*
X85434Y241790D01*
X85338Y241423D01*
X85211Y241056D01*
Y241040D01*
X85195Y241008D01*
X85163Y240960D01*
X85131Y240896D01*
X85051Y240737D01*
X84923Y240513D01*
X84764Y240258D01*
X84572Y240003D01*
X84349Y239732D01*
X84078Y239477D01*
X84062D01*
X84046Y239445D01*
X83998Y239413D01*
X83950Y239365D01*
X83775Y239253D01*
X83568Y239110D01*
X83296Y238950D01*
X82977Y238775D01*
X82626Y238615D01*
X82228Y238472D01*
X82212D01*
X82180Y238456D01*
X82116Y238440D01*
X82036Y238424D01*
X81925Y238392D01*
X81797Y238360D01*
X81653Y238328D01*
X81494Y238296D01*
X81302Y238264D01*
X81111Y238232D01*
X80680Y238169D01*
X80186Y238137D01*
X79660Y238121D01*
X79644D01*
X79596D01*
X79516D01*
X79404D01*
X79277Y238137D01*
X79133D01*
X78958Y238153D01*
X78782Y238169D01*
X78368Y238216D01*
X77937Y238280D01*
X77474Y238360D01*
X77028Y238488D01*
X77012D01*
X76980Y238504D01*
X76916Y238536D01*
X76836Y238552D01*
X76740Y238599D01*
X76613Y238647D01*
X76342Y238759D01*
X76039Y238918D01*
X75704Y239094D01*
X75385Y239317D01*
X75066Y239556D01*
X75050Y239572D01*
X75034Y239588D01*
X74938Y239684D01*
X74778Y239828D01*
X74603Y240035D01*
X74412Y240274D01*
X74204Y240545D01*
X74013Y240864D01*
X73837Y241215D01*
Y241231D01*
X73821Y241263D01*
X73790Y241311D01*
X73773Y241391D01*
X73742Y241471D01*
X73694Y241582D01*
X73614Y241838D01*
X73550Y242157D01*
X73471Y242507D01*
X73423Y242906D01*
X73407Y243337D01*
Y243528D01*
X73423Y243656D01*
X73439Y243815D01*
X73454Y243991D01*
X73518Y244342D01*
Y244358D01*
X73534Y244422D01*
X73550Y244517D01*
X73582Y244645D01*
X73614Y244772D01*
X73662Y244932D01*
X73758Y245235D01*
Y245251D01*
X73790Y245299D01*
X73805Y245379D01*
X73853Y245490D01*
X73965Y245714D01*
X74093Y245969D01*
Y245985D01*
X74124Y246017D01*
X74156Y246080D01*
X74204Y246144D01*
X74300Y246304D01*
X74364Y246368D01*
X74412Y246416D01*
X74427Y246431D01*
X74475Y246479D01*
X74539Y246543D01*
X74603Y246575D01*
X74619Y246591D01*
X74651Y246607D01*
X74747Y246639D01*
X74763D01*
X74794Y246655D01*
X74874Y246671D01*
X74954Y246687D01*
X74970D01*
X75034Y246703D01*
X75129D01*
X75241D01*
X75273D01*
X75337D01*
X75448Y246687D01*
X75544Y246671D01*
X75560D01*
X75624Y246655D01*
X75688Y246639D01*
X75767Y246623D01*
X75783D01*
X75815Y246607D01*
X75895Y246527D01*
X75911Y246495D01*
X75927Y246416D01*
Y246384D01*
X75911Y246320D01*
X75847Y246208D01*
X75815Y246128D01*
X75752Y246049D01*
X75736Y246033D01*
X75720Y246001D01*
X75688Y245953D01*
X75640Y245889D01*
X75576Y245809D01*
X75512Y245714D01*
X75369Y245458D01*
X75353Y245442D01*
X75337Y245395D01*
X75289Y245315D01*
X75241Y245203D01*
X75177Y245076D01*
X75113Y244932D01*
X75034Y244757D01*
X74970Y244565D01*
X74954Y244549D01*
X74938Y244469D01*
X74906Y244358D01*
X74874Y244214D01*
X74842Y244023D01*
X74810Y243815D01*
X74778Y243576D01*
Y243193D01*
X74794Y243034D01*
X74810Y242842D01*
X74858Y242619D01*
X74906Y242380D01*
X74986Y242125D01*
X75097Y241869D01*
X75113Y241838D01*
X75161Y241758D01*
X75225Y241646D01*
X75337Y241486D01*
X75464Y241311D01*
X75624Y241120D01*
X75815Y240928D01*
X76039Y240753D01*
X76070Y240737D01*
X76150Y240673D01*
X76278Y240593D01*
X76453Y240498D01*
X76677Y240370D01*
X76932Y240258D01*
X77219Y240147D01*
X77538Y240035D01*
X77554D01*
X77586Y240019D01*
X77634D01*
X77698Y240003D01*
X77777Y239987D01*
X77873Y239955D01*
X78128Y239923D01*
X78431Y239876D01*
X78766Y239828D01*
X79149Y239812D01*
X79564Y239796D01*
X79580D01*
X79612D01*
X79675D01*
X79755D01*
X79851D01*
X79963Y239812D01*
X80234Y239828D01*
X80553Y239860D01*
X80888Y239891D01*
X81239Y239955D01*
X81574Y240035D01*
X81590D01*
X81606Y240051D01*
X81653Y240067D01*
X81717Y240083D01*
X81877Y240131D01*
X82084Y240210D01*
X82307Y240306D01*
X82547Y240434D01*
X82786Y240577D01*
X83025Y240737D01*
X83057Y240753D01*
X83121Y240817D01*
X83217Y240912D01*
X83344Y241056D01*
X83488Y241215D01*
X83631Y241407D01*
X83775Y241614D01*
X83903Y241853D01*
X83919Y241885D01*
X83950Y241965D01*
X83998Y242109D01*
X84046Y242300D01*
X84094Y242523D01*
X84142Y242779D01*
X84174Y243066D01*
X84190Y243369D01*
Y243480D01*
X84174Y243624D01*
Y243783D01*
X84158Y243975D01*
X84126Y244182D01*
X84078Y244390D01*
X84030Y244597D01*
X84014Y244629D01*
X83998Y244693D01*
X83966Y244788D01*
X83919Y244916D01*
X83855Y245060D01*
X83791Y245203D01*
X83711Y245363D01*
X83631Y245506D01*
X83615Y245522D01*
X83600Y245570D01*
X83552Y245634D01*
X83504Y245730D01*
X83376Y245937D01*
X83233Y246128D01*
X83217Y246144D01*
X83201Y246176D01*
X83137Y246272D01*
X83089Y246384D01*
X83057Y246447D01*
Y246543D01*
X83073Y246575D01*
X83089Y246607D01*
Y246623D01*
X83121Y246639D01*
X83153Y246655D01*
X83201Y246687D01*
X83217D01*
X83265Y246703D01*
X83328Y246719D01*
X83424Y246735D01*
X83440D01*
X83520Y246750D01*
X83615D01*
X83759D01*
X83775D01*
X83839D01*
X83934D01*
X84014Y246735D01*
D02*
G37*
G36*
X85306Y235632D02*
X85354Y235600D01*
X85386Y235569D01*
X85402Y235537D01*
X85434Y235473D01*
Y235457D01*
X85450Y235409D01*
Y235329D01*
X85466Y235218D01*
Y235186D01*
X85482Y235122D01*
X85498Y235010D01*
Y234723D01*
X85482Y234596D01*
X85466Y234468D01*
Y234452D01*
X85450Y234388D01*
Y234308D01*
X85434Y234229D01*
Y234213D01*
X85418Y234181D01*
X85386Y234133D01*
X85354Y234101D01*
X85338D01*
X85306Y234085D01*
X85211Y234069D01*
X73805D01*
X73790D01*
X73758D01*
X73678Y234101D01*
X73662Y234117D01*
X73646Y234133D01*
X73614Y234181D01*
X73582Y234245D01*
Y234261D01*
X73566Y234308D01*
X73550Y234388D01*
X73534Y234484D01*
Y234516D01*
X73518Y234596D01*
X73502Y234707D01*
Y234978D01*
X73518Y235106D01*
X73534Y235218D01*
Y235250D01*
X73550Y235313D01*
X73566Y235393D01*
X73582Y235473D01*
Y235489D01*
X73598Y235521D01*
X73630Y235569D01*
X73678Y235600D01*
X73694Y235616D01*
X73710Y235632D01*
X73758Y235648D01*
X73805D01*
X85211D01*
X85226D01*
X85258D01*
X85306Y235632D01*
D02*
G37*
G36*
X84971Y232315D02*
X85083Y232299D01*
X85099D01*
X85147Y232283D01*
X85211Y232267D01*
X85290Y232235D01*
X85306D01*
X85338Y232219D01*
X85418Y232139D01*
Y232123D01*
X85434Y232107D01*
X85450Y232059D01*
Y226700D01*
X85434Y226604D01*
X85402Y226476D01*
X85322Y226333D01*
X85290Y226301D01*
X85258Y226285D01*
X85211Y226253D01*
X85131Y226221D01*
X85051Y226189D01*
X84939Y226173D01*
X84812Y226157D01*
X73805D01*
X73790D01*
X73758D01*
X73678Y226189D01*
X73662D01*
X73646Y226221D01*
X73614Y226253D01*
X73582Y226317D01*
Y226333D01*
X73566Y226381D01*
X73550Y226460D01*
X73534Y226556D01*
Y226588D01*
X73518Y226668D01*
X73502Y226779D01*
Y227067D01*
X73518Y227194D01*
X73534Y227306D01*
Y227338D01*
X73550Y227402D01*
X73566Y227481D01*
X73582Y227561D01*
Y227577D01*
X73598Y227609D01*
X73630Y227657D01*
X73678Y227689D01*
X73694Y227705D01*
X73710Y227721D01*
X73758Y227737D01*
X73805D01*
X84078D01*
Y232043D01*
X84094Y232091D01*
X84126Y232139D01*
X84142Y232155D01*
X84158Y232171D01*
X84254Y232235D01*
X84269Y232251D01*
X84301Y232267D01*
X84365Y232283D01*
X84461Y232299D01*
X84477D01*
X84541Y232315D01*
X84636Y232330D01*
X84764D01*
X84796D01*
X84876D01*
X84971Y232315D01*
D02*
G37*
G36*
X85306Y222983D02*
X85354Y222951D01*
X85386Y222919D01*
X85402Y222887D01*
X85434Y222824D01*
Y222808D01*
X85450Y222760D01*
Y222680D01*
X85466Y222568D01*
Y222537D01*
X85482Y222473D01*
X85498Y222361D01*
Y222074D01*
X85482Y221946D01*
X85466Y221819D01*
Y221803D01*
X85450Y221739D01*
Y221659D01*
X85434Y221579D01*
Y221563D01*
X85418Y221532D01*
X85386Y221484D01*
X85354Y221452D01*
X85338D01*
X85306Y221436D01*
X85211Y221420D01*
X73805D01*
X73790D01*
X73758D01*
X73678Y221452D01*
X73662Y221468D01*
X73646Y221484D01*
X73614Y221532D01*
X73582Y221595D01*
Y221611D01*
X73566Y221659D01*
X73550Y221739D01*
X73534Y221835D01*
Y221867D01*
X73518Y221946D01*
X73502Y222058D01*
Y222329D01*
X73518Y222457D01*
X73534Y222568D01*
Y222600D01*
X73550Y222664D01*
X73566Y222744D01*
X73582Y222824D01*
Y222840D01*
X73598Y222871D01*
X73630Y222919D01*
X73678Y222951D01*
X73694Y222967D01*
X73710Y222983D01*
X73758Y222999D01*
X73805D01*
X85211D01*
X85226D01*
X85258D01*
X85306Y222983D01*
D02*
G37*
G36*
X82419Y219155D02*
X82626Y219139D01*
X82850Y219091D01*
X83105Y219043D01*
X83360Y218963D01*
X83615Y218852D01*
X83647Y218836D01*
X83727Y218804D01*
X83839Y218724D01*
X83998Y218629D01*
X84174Y218501D01*
X84365Y218357D01*
X84557Y218182D01*
X84732Y217990D01*
X84748Y217959D01*
X84812Y217895D01*
X84892Y217783D01*
X84987Y217624D01*
X85099Y217432D01*
X85195Y217225D01*
X85306Y216970D01*
X85402Y216698D01*
X85418Y216667D01*
X85434Y216571D01*
X85466Y216427D01*
X85514Y216220D01*
X85562Y215996D01*
X85593Y215725D01*
X85609Y215438D01*
X85625Y215119D01*
Y214896D01*
X85609Y214752D01*
Y214577D01*
X85577Y214385D01*
X85530Y214003D01*
Y213987D01*
X85514Y213923D01*
X85498Y213827D01*
X85466Y213699D01*
X85434Y213556D01*
X85386Y213396D01*
X85290Y213093D01*
Y213078D01*
X85258Y213030D01*
X85226Y212950D01*
X85195Y212854D01*
X85083Y212647D01*
X84971Y212423D01*
Y212407D01*
X84939Y212376D01*
X84876Y212280D01*
X84796Y212152D01*
X84700Y212041D01*
X84684Y212025D01*
X84620Y211993D01*
X84541Y211945D01*
X84429Y211897D01*
X84413D01*
X84397D01*
X84301Y211881D01*
X84158Y211865D01*
X83966Y211849D01*
X83950D01*
X83934D01*
X83855D01*
X83743D01*
X83647Y211865D01*
X83615D01*
X83568Y211881D01*
X83488Y211897D01*
X83424Y211913D01*
X83408D01*
X83376Y211929D01*
X83344Y211961D01*
X83312Y211993D01*
X83296Y212009D01*
X83280Y212041D01*
X83265Y212089D01*
Y212168D01*
X83280Y212232D01*
X83328Y212344D01*
X83424Y212487D01*
Y212503D01*
X83456Y212535D01*
X83488Y212583D01*
X83520Y212647D01*
X83583Y212743D01*
X83631Y212838D01*
X83775Y213093D01*
Y213109D01*
X83807Y213157D01*
X83839Y213237D01*
X83887Y213349D01*
X83934Y213476D01*
X83982Y213636D01*
X84046Y213795D01*
X84110Y213987D01*
Y214019D01*
X84142Y214082D01*
X84158Y214194D01*
X84190Y214338D01*
X84222Y214513D01*
X84237Y214720D01*
X84269Y214944D01*
Y215374D01*
X84254Y215502D01*
X84237Y215646D01*
X84222Y215805D01*
X84142Y216124D01*
Y216140D01*
X84110Y216204D01*
X84078Y216284D01*
X84046Y216379D01*
X83919Y216619D01*
X83759Y216858D01*
X83743Y216874D01*
X83711Y216906D01*
X83663Y216970D01*
X83583Y217033D01*
X83488Y217113D01*
X83392Y217193D01*
X83137Y217336D01*
X83121Y217352D01*
X83073Y217368D01*
X82993Y217400D01*
X82898Y217432D01*
X82770Y217464D01*
X82626Y217480D01*
X82467Y217512D01*
X82291D01*
X82275D01*
X82212D01*
X82116Y217496D01*
X81988Y217480D01*
X81861Y217448D01*
X81717Y217416D01*
X81574Y217352D01*
X81430Y217273D01*
X81414Y217257D01*
X81366Y217225D01*
X81302Y217177D01*
X81223Y217113D01*
X81127Y217033D01*
X81015Y216922D01*
X80920Y216810D01*
X80808Y216667D01*
X80792Y216651D01*
X80760Y216603D01*
X80712Y216523D01*
X80633Y216411D01*
X80553Y216284D01*
X80473Y216140D01*
X80298Y215805D01*
X80282Y215789D01*
X80266Y215725D01*
X80218Y215630D01*
X80154Y215502D01*
X80090Y215359D01*
X80010Y215183D01*
X79851Y214816D01*
X79835Y214800D01*
X79803Y214736D01*
X79755Y214625D01*
X79691Y214497D01*
X79612Y214354D01*
X79532Y214178D01*
X79325Y213827D01*
X79309Y213811D01*
X79277Y213747D01*
X79213Y213652D01*
X79133Y213540D01*
X79037Y213412D01*
X78926Y213269D01*
X78655Y212966D01*
X78639Y212950D01*
X78591Y212902D01*
X78511Y212838D01*
X78399Y212758D01*
X78272Y212663D01*
X78112Y212551D01*
X77953Y212455D01*
X77761Y212360D01*
X77729Y212344D01*
X77666Y212328D01*
X77554Y212296D01*
X77410Y212248D01*
X77219Y212200D01*
X77012Y212168D01*
X76772Y212152D01*
X76501Y212136D01*
X76485D01*
X76469D01*
X76374D01*
X76230Y212152D01*
X76055Y212168D01*
X75847Y212200D01*
X75624Y212248D01*
X75401Y212312D01*
X75177Y212407D01*
X75145Y212423D01*
X75082Y212455D01*
X74970Y212519D01*
X74826Y212599D01*
X74683Y212711D01*
X74507Y212838D01*
X74348Y212982D01*
X74188Y213157D01*
X74172Y213173D01*
X74124Y213237D01*
X74045Y213349D01*
X73965Y213476D01*
X73869Y213652D01*
X73758Y213843D01*
X73662Y214066D01*
X73582Y214306D01*
X73566Y214338D01*
X73550Y214417D01*
X73518Y214561D01*
X73471Y214736D01*
X73439Y214944D01*
X73407Y215199D01*
X73391Y215454D01*
X73375Y215741D01*
Y215885D01*
X73391Y215996D01*
Y216108D01*
X73407Y216252D01*
X73454Y216539D01*
Y216555D01*
X73471Y216603D01*
X73486Y216682D01*
X73502Y216794D01*
X73518Y216906D01*
X73550Y217033D01*
X73630Y217304D01*
Y217320D01*
X73646Y217368D01*
X73678Y217432D01*
X73710Y217512D01*
X73790Y217719D01*
X73885Y217927D01*
Y217943D01*
X73901Y217974D01*
X73965Y218086D01*
X74045Y218198D01*
X74077Y218262D01*
X74109Y218293D01*
X74124Y218309D01*
X74156Y218341D01*
X74204Y218389D01*
X74252Y218405D01*
X74268D01*
X74284Y218421D01*
X74380Y218453D01*
X74396D01*
X74427Y218469D01*
X74491D01*
X74571Y218485D01*
X74587D01*
X74651Y218501D01*
X74747D01*
X74858D01*
X74890D01*
X74954D01*
X75050D01*
X75145Y218485D01*
X75161D01*
X75225Y218469D01*
X75289Y218453D01*
X75369Y218437D01*
X75385D01*
X75416Y218421D01*
X75496Y218357D01*
X75512Y218325D01*
X75528Y218246D01*
Y218230D01*
X75512Y218166D01*
X75480Y218070D01*
X75401Y217927D01*
Y217911D01*
X75385Y217895D01*
X75353Y217847D01*
X75321Y217783D01*
X75225Y217608D01*
X75113Y217384D01*
Y217368D01*
X75082Y217336D01*
X75050Y217273D01*
X75018Y217177D01*
X74970Y217065D01*
X74922Y216954D01*
X74874Y216810D01*
X74826Y216651D01*
Y216635D01*
X74810Y216571D01*
X74778Y216491D01*
X74747Y216363D01*
X74731Y216236D01*
X74699Y216060D01*
X74683Y215885D01*
Y215518D01*
X74699Y215406D01*
X74715Y215263D01*
X74747Y215119D01*
X74826Y214832D01*
Y214816D01*
X74842Y214768D01*
X74874Y214704D01*
X74922Y214625D01*
X75034Y214417D01*
X75177Y214226D01*
X75193Y214210D01*
X75209Y214194D01*
X75257Y214146D01*
X75321Y214098D01*
X75496Y213971D01*
X75704Y213859D01*
X75720D01*
X75752Y213843D01*
X75815Y213827D01*
X75895Y213811D01*
X75991Y213779D01*
X76102Y213763D01*
X76358Y213747D01*
X76374D01*
X76437D01*
X76533Y213763D01*
X76645Y213779D01*
X76788Y213795D01*
X76932Y213843D01*
X77075Y213891D01*
X77219Y213971D01*
X77235Y213987D01*
X77283Y214019D01*
X77347Y214066D01*
X77426Y214130D01*
X77522Y214210D01*
X77634Y214322D01*
X77729Y214449D01*
X77841Y214577D01*
X77857Y214593D01*
X77889Y214641D01*
X77937Y214720D01*
X78001Y214832D01*
X78080Y214960D01*
X78176Y215103D01*
X78351Y215438D01*
X78368Y215454D01*
X78383Y215518D01*
X78431Y215630D01*
X78495Y215757D01*
X78559Y215901D01*
X78639Y216076D01*
X78814Y216443D01*
X78830Y216459D01*
X78862Y216539D01*
X78910Y216635D01*
X78974Y216762D01*
X79053Y216906D01*
X79133Y217081D01*
X79341Y217432D01*
X79356Y217448D01*
X79388Y217512D01*
X79452Y217608D01*
X79516Y217735D01*
X79612Y217863D01*
X79723Y218006D01*
X79995Y218309D01*
X80010Y218325D01*
X80058Y218373D01*
X80138Y218437D01*
X80250Y218533D01*
X80377Y218629D01*
X80537Y218740D01*
X80712Y218836D01*
X80904Y218932D01*
X80920Y218948D01*
X80999Y218963D01*
X81095Y219011D01*
X81239Y219059D01*
X81430Y219091D01*
X81637Y219139D01*
X81861Y219155D01*
X82116Y219171D01*
X82132D01*
X82148D01*
X82196D01*
X82260D01*
X82419Y219155D01*
D02*
G37*
%LPC*%
G36*
X126763Y286971D02*
X126747D01*
X126731D01*
X126651D01*
X126524Y286956D01*
X126364Y286940D01*
X126173Y286892D01*
X125981Y286844D01*
X125790Y286764D01*
X125598Y286652D01*
X125583Y286637D01*
X125519Y286589D01*
X125423Y286509D01*
X125327Y286397D01*
X125216Y286254D01*
X125088Y286078D01*
X124992Y285855D01*
X124896Y285600D01*
Y285584D01*
X124881Y285568D01*
Y285520D01*
X124865Y285456D01*
X124833Y285281D01*
X124801Y285073D01*
Y285025D01*
X124785Y284962D01*
Y284770D01*
X124769Y284643D01*
Y283000D01*
X128773D01*
Y284643D01*
X128757Y284754D01*
Y284914D01*
X128741Y285073D01*
X128709Y285265D01*
X128677Y285440D01*
X128629Y285616D01*
Y285632D01*
X128597Y285695D01*
X128565Y285775D01*
X128518Y285887D01*
X128390Y286142D01*
X128214Y286381D01*
X128198Y286397D01*
X128167Y286429D01*
X128103Y286493D01*
X128039Y286557D01*
X127943Y286621D01*
X127832Y286700D01*
X127576Y286828D01*
X127560D01*
X127513Y286844D01*
X127433Y286876D01*
X127337Y286908D01*
X127210Y286924D01*
X127066Y286956D01*
X126763Y286971D01*
D02*
G37*
G36*
X287023Y443117D02*
X282988Y437348D01*
X287023D01*
Y443117D01*
D02*
G37*
G36*
X306217Y444393D02*
X305968D01*
X305898Y444380D01*
X305829D01*
X305732Y444366D01*
X305524Y444324D01*
X305288Y444255D01*
X305038Y444144D01*
X304789Y444005D01*
X304553Y443811D01*
X304525Y443783D01*
X304456Y443714D01*
X304373Y443589D01*
X304262Y443423D01*
X304151Y443228D01*
X304068Y442993D01*
X303998Y442729D01*
X303971Y442438D01*
Y442424D01*
Y442396D01*
Y442355D01*
X303984Y442285D01*
Y442202D01*
X303998Y442119D01*
X304040Y441911D01*
X304109Y441675D01*
X304206Y441426D01*
X304345Y441176D01*
X304539Y440954D01*
X304567Y440926D01*
X304650Y440871D01*
X304775Y440774D01*
X304955Y440677D01*
X305163Y440566D01*
X305427Y440469D01*
X305732Y440413D01*
X306065Y440385D01*
X306148D01*
X306217Y440399D01*
X306300D01*
X306384Y440413D01*
X306592Y440455D01*
X306827Y440524D01*
X307077Y440621D01*
X307327Y440760D01*
X307562Y440954D01*
X307590Y440982D01*
X307659Y441051D01*
X307743Y441176D01*
X307854Y441342D01*
X307965Y441536D01*
X308048Y441786D01*
X308117Y442050D01*
X308145Y442341D01*
Y442355D01*
Y442382D01*
Y442424D01*
X308131Y442493D01*
X308117Y442646D01*
X308076Y442854D01*
X308006Y443076D01*
X307895Y443326D01*
X307743Y443561D01*
X307659Y443686D01*
X307549Y443797D01*
Y443811D01*
X307521Y443825D01*
X307438Y443894D01*
X307313Y443991D01*
X307132Y444102D01*
X306924Y444199D01*
X306661Y444296D01*
X306370Y444366D01*
X306217Y444393D01*
D02*
G37*
G36*
X306023Y439096D02*
X305912D01*
X305843Y439082D01*
X305746Y439068D01*
X305635Y439054D01*
X305371Y438998D01*
X305080Y438915D01*
X304775Y438791D01*
X304622Y438707D01*
X304470Y438610D01*
X304317Y438485D01*
X304179Y438361D01*
X304165Y438347D01*
X304151Y438333D01*
X304109Y438291D01*
X304068Y438236D01*
X304012Y438153D01*
X303957Y438069D01*
X303887Y437972D01*
X303818Y437861D01*
X303679Y437598D01*
X303568Y437279D01*
X303485Y436918D01*
X303471Y436738D01*
X303457Y436530D01*
Y436516D01*
Y436502D01*
Y436419D01*
X303471Y436280D01*
X303499Y436114D01*
X303527Y435920D01*
X303582Y435698D01*
X303665Y435462D01*
X303762Y435226D01*
X303776Y435199D01*
X303818Y435129D01*
X303901Y435004D01*
X303998Y434866D01*
X304137Y434713D01*
X304289Y434561D01*
X304484Y434394D01*
X304706Y434255D01*
X304719D01*
X304733Y434242D01*
X304816Y434200D01*
X304941Y434145D01*
X305122Y434089D01*
X305316Y434034D01*
X305551Y433978D01*
X305801Y433937D01*
X306065Y433923D01*
X306176D01*
X306259Y433937D01*
X306356Y433950D01*
X306467Y433964D01*
X306730Y434020D01*
X307022Y434103D01*
X307341Y434228D01*
X307493Y434311D01*
X307646Y434408D01*
X307798Y434519D01*
X307937Y434644D01*
X307951Y434658D01*
X307965Y434672D01*
X308006Y434713D01*
X308048Y434769D01*
X308103Y434852D01*
X308173Y434935D01*
X308242Y435032D01*
X308311Y435143D01*
X308436Y435407D01*
X308561Y435726D01*
X308644Y436072D01*
X308658Y436266D01*
X308672Y436474D01*
Y436488D01*
Y436530D01*
Y436585D01*
X308658Y436669D01*
X308644Y436766D01*
X308630Y436877D01*
X308575Y437140D01*
X308492Y437431D01*
X308353Y437750D01*
X308270Y437903D01*
X308159Y438055D01*
X308048Y438208D01*
X307909Y438347D01*
X307895Y438361D01*
X307881Y438374D01*
X307840Y438416D01*
X307770Y438458D01*
X307701Y438527D01*
X307618Y438582D01*
X307507Y438652D01*
X307396Y438721D01*
X307119Y438860D01*
X306800Y438985D01*
X306425Y439068D01*
X306231Y439082D01*
X306023Y439096D01*
D02*
G37*
G36*
X296273Y444393D02*
X296024D01*
X295955Y444380D01*
X295885D01*
X295788Y444366D01*
X295580Y444324D01*
X295344Y444255D01*
X295095Y444144D01*
X294845Y444005D01*
X294609Y443811D01*
X294582Y443783D01*
X294512Y443714D01*
X294429Y443589D01*
X294318Y443423D01*
X294207Y443228D01*
X294124Y442993D01*
X294055Y442729D01*
X294027Y442438D01*
Y442424D01*
Y442396D01*
Y442355D01*
X294041Y442285D01*
Y442202D01*
X294055Y442119D01*
X294096Y441911D01*
X294165Y441675D01*
X294263Y441426D01*
X294401Y441176D01*
X294595Y440954D01*
X294623Y440926D01*
X294706Y440871D01*
X294831Y440774D01*
X295012Y440677D01*
X295219Y440566D01*
X295483Y440469D01*
X295788Y440413D01*
X296121Y440385D01*
X296204D01*
X296273Y440399D01*
X296357D01*
X296440Y440413D01*
X296648Y440455D01*
X296884Y440524D01*
X297133Y440621D01*
X297383Y440760D01*
X297619Y440954D01*
X297647Y440982D01*
X297716Y441051D01*
X297799Y441176D01*
X297910Y441342D01*
X298021Y441536D01*
X298104Y441786D01*
X298174Y442050D01*
X298201Y442341D01*
Y442355D01*
Y442382D01*
Y442424D01*
X298187Y442493D01*
X298174Y442646D01*
X298132Y442854D01*
X298062Y443076D01*
X297952Y443326D01*
X297799Y443561D01*
X297716Y443686D01*
X297605Y443797D01*
Y443811D01*
X297577Y443825D01*
X297494Y443894D01*
X297369Y443991D01*
X297189Y444102D01*
X296981Y444199D01*
X296717Y444296D01*
X296426Y444366D01*
X296273Y444393D01*
D02*
G37*
G36*
X296079Y439096D02*
X295968D01*
X295899Y439082D01*
X295802Y439068D01*
X295691Y439054D01*
X295428Y438998D01*
X295136Y438915D01*
X294831Y438791D01*
X294679Y438707D01*
X294526Y438610D01*
X294374Y438485D01*
X294235Y438361D01*
X294221Y438347D01*
X294207Y438333D01*
X294165Y438291D01*
X294124Y438236D01*
X294068Y438153D01*
X294013Y438069D01*
X293944Y437972D01*
X293874Y437861D01*
X293736Y437598D01*
X293625Y437279D01*
X293542Y436918D01*
X293528Y436738D01*
X293514Y436530D01*
Y436516D01*
Y436502D01*
Y436419D01*
X293528Y436280D01*
X293555Y436114D01*
X293583Y435920D01*
X293638Y435698D01*
X293722Y435462D01*
X293819Y435226D01*
X293833Y435199D01*
X293874Y435129D01*
X293958Y435004D01*
X294055Y434866D01*
X294193Y434713D01*
X294346Y434561D01*
X294540Y434394D01*
X294762Y434255D01*
X294776D01*
X294790Y434242D01*
X294873Y434200D01*
X294998Y434145D01*
X295178Y434089D01*
X295372Y434034D01*
X295608Y433978D01*
X295858Y433937D01*
X296121Y433923D01*
X296232D01*
X296315Y433937D01*
X296412Y433950D01*
X296523Y433964D01*
X296787Y434020D01*
X297078Y434103D01*
X297397Y434228D01*
X297549Y434311D01*
X297702Y434408D01*
X297854Y434519D01*
X297993Y434644D01*
X298007Y434658D01*
X298021Y434672D01*
X298062Y434713D01*
X298104Y434769D01*
X298160Y434852D01*
X298229Y434935D01*
X298298Y435032D01*
X298368Y435143D01*
X298493Y435407D01*
X298617Y435726D01*
X298701Y436072D01*
X298714Y436266D01*
X298728Y436474D01*
Y436488D01*
Y436530D01*
Y436585D01*
X298714Y436669D01*
X298701Y436766D01*
X298687Y436877D01*
X298631Y437140D01*
X298548Y437431D01*
X298409Y437750D01*
X298326Y437903D01*
X298215Y438055D01*
X298104Y438208D01*
X297966Y438347D01*
X297952Y438361D01*
X297938Y438374D01*
X297896Y438416D01*
X297827Y438458D01*
X297757Y438527D01*
X297674Y438582D01*
X297563Y438652D01*
X297452Y438721D01*
X297175Y438860D01*
X296856Y438985D01*
X296482Y439068D01*
X296287Y439082D01*
X296079Y439096D01*
D02*
G37*
G36*
X312215Y425233D02*
X312118D01*
X312035Y425219D01*
X311952Y425205D01*
X311841Y425191D01*
X311605Y425122D01*
X311328Y425025D01*
X311175Y424955D01*
X311023Y424872D01*
X310884Y424775D01*
X310731Y424650D01*
X310593Y424525D01*
X310454Y424373D01*
X310440Y424359D01*
X310426Y424331D01*
X310385Y424276D01*
X310343Y424207D01*
X310287Y424123D01*
X310232Y423998D01*
X310177Y423874D01*
X310107Y423707D01*
X310038Y423541D01*
X309982Y423333D01*
X309927Y423111D01*
X309872Y422875D01*
X309830Y422598D01*
X309788Y422320D01*
X309774Y422001D01*
X309760Y421669D01*
Y421655D01*
Y421585D01*
Y421502D01*
X309774Y421377D01*
X309788Y421225D01*
X309802Y421058D01*
X309830Y420878D01*
X309858Y420670D01*
X309941Y420240D01*
X310079Y419796D01*
X310163Y419588D01*
X310260Y419380D01*
X310385Y419186D01*
X310509Y419006D01*
X310523Y418992D01*
X310537Y418964D01*
X310593Y418923D01*
X310648Y418867D01*
X310718Y418798D01*
X310801Y418728D01*
X311009Y418576D01*
X311272Y418410D01*
X311577Y418271D01*
X311744Y418215D01*
X311910Y418174D01*
X312090Y418146D01*
X312285Y418132D01*
X312382D01*
X312465Y418146D01*
X312548Y418160D01*
X312659Y418174D01*
X312895Y418243D01*
X313172Y418340D01*
X313325Y418410D01*
X313463Y418479D01*
X313616Y418576D01*
X313769Y418687D01*
X313907Y418812D01*
X314046Y418964D01*
X314060Y418978D01*
X314074Y419006D01*
X314115Y419047D01*
X314157Y419131D01*
X314212Y419214D01*
X314282Y419325D01*
X314351Y419450D01*
X314420Y419602D01*
X314476Y419769D01*
X314545Y419963D01*
X314615Y420185D01*
X314670Y420406D01*
X314712Y420656D01*
X314753Y420933D01*
X314767Y421225D01*
X314781Y421544D01*
Y421572D01*
Y421627D01*
Y421724D01*
X314767Y421849D01*
X314753Y422015D01*
X314739Y422196D01*
X314725Y422390D01*
X314684Y422612D01*
X314601Y423055D01*
X314462Y423527D01*
X314379Y423749D01*
X314282Y423957D01*
X314171Y424151D01*
X314032Y424331D01*
X314018Y424345D01*
X314004Y424373D01*
X313963Y424414D01*
X313907Y424470D01*
X313824Y424539D01*
X313741Y424622D01*
X313533Y424789D01*
X313269Y424941D01*
X312950Y425094D01*
X312784Y425149D01*
X312604Y425191D01*
X312409Y425219D01*
X312215Y425233D01*
D02*
G37*
G36*
X332574Y425302D02*
X332477D01*
X332408Y425288D01*
X332324Y425274D01*
X332214Y425247D01*
X331978Y425191D01*
X331700Y425066D01*
X331562Y424997D01*
X331409Y424900D01*
X331257Y424803D01*
X331104Y424664D01*
X330951Y424525D01*
X330799Y424359D01*
X330785Y424345D01*
X330771Y424317D01*
X330730Y424262D01*
X330674Y424179D01*
X330619Y424082D01*
X330563Y423971D01*
X330494Y423832D01*
X330424Y423666D01*
X330341Y423485D01*
X330272Y423277D01*
X330216Y423055D01*
X330161Y422806D01*
X330106Y422542D01*
X330064Y422265D01*
X330050Y421960D01*
X330036Y421627D01*
Y421613D01*
Y421544D01*
Y421460D01*
X330050Y421336D01*
X330064Y421183D01*
X330078Y421017D01*
X330092Y420823D01*
X330133Y420628D01*
X330216Y420199D01*
X330341Y419755D01*
X330424Y419547D01*
X330522Y419339D01*
X330633Y419145D01*
X330757Y418978D01*
X330771Y418964D01*
X330785Y418937D01*
X330827Y418895D01*
X330882Y418853D01*
X330951Y418784D01*
X331035Y418715D01*
X331243Y418562D01*
X331506Y418396D01*
X331797Y418271D01*
X331964Y418215D01*
X332130Y418174D01*
X332311Y418146D01*
X332505Y418132D01*
X332602D01*
X332685Y418146D01*
X332768Y418160D01*
X332879Y418174D01*
X333129Y418243D01*
X333406Y418340D01*
X333559Y418423D01*
X333711Y418507D01*
X333864Y418604D01*
X334016Y418715D01*
X334169Y418853D01*
X334308Y419006D01*
X334322Y419020D01*
X334335Y419047D01*
X334377Y419103D01*
X334419Y419172D01*
X334488Y419269D01*
X334543Y419380D01*
X334613Y419519D01*
X334682Y419685D01*
X334751Y419866D01*
X334821Y420060D01*
X334890Y420296D01*
X334946Y420545D01*
X334987Y420809D01*
X335029Y421100D01*
X335043Y421419D01*
X335056Y421752D01*
Y421766D01*
Y421835D01*
Y421918D01*
X335043Y422043D01*
X335029Y422196D01*
X335015Y422362D01*
X335001Y422542D01*
X334959Y422750D01*
X334876Y423180D01*
X334751Y423624D01*
X334668Y423846D01*
X334571Y424040D01*
X334446Y424234D01*
X334322Y424414D01*
X334308Y424428D01*
X334294Y424456D01*
X334252Y424498D01*
X334197Y424553D01*
X334127Y424622D01*
X334030Y424692D01*
X333822Y424858D01*
X333573Y425025D01*
X333281Y425163D01*
X333115Y425219D01*
X332935Y425261D01*
X332754Y425288D01*
X332574Y425302D01*
D02*
G37*
G36*
X324614Y421710D02*
X324600D01*
X324572Y421696D01*
X324516Y421682D01*
X324447Y421655D01*
X324364Y421613D01*
X324253Y421585D01*
X324114Y421544D01*
X323976Y421502D01*
X323795Y421460D01*
X323601Y421405D01*
X323393Y421363D01*
X323157Y421308D01*
X322908Y421253D01*
X322644Y421211D01*
X322353Y421155D01*
X322034Y421114D01*
X321992D01*
X321937Y421100D01*
X321881Y421086D01*
X321701Y421058D01*
X321493Y421017D01*
X321271Y420975D01*
X321049Y420920D01*
X320841Y420864D01*
X320661Y420795D01*
X320647Y420781D01*
X320592Y420767D01*
X320522Y420726D01*
X320439Y420670D01*
X320328Y420587D01*
X320231Y420504D01*
X320134Y420406D01*
X320037Y420282D01*
X320023Y420268D01*
X320009Y420226D01*
X319968Y420157D01*
X319940Y420060D01*
X319898Y419949D01*
X319857Y419824D01*
X319843Y419685D01*
X319829Y419533D01*
Y419505D01*
X319843Y419436D01*
X319857Y419311D01*
X319884Y419172D01*
X319940Y419006D01*
X320023Y418825D01*
X320148Y418659D01*
X320300Y418493D01*
X320328Y418479D01*
X320384Y418423D01*
X320495Y418368D01*
X320647Y418285D01*
X320841Y418215D01*
X321091Y418146D01*
X321368Y418091D01*
X321687Y418077D01*
X321840D01*
X321923Y418091D01*
X322020Y418104D01*
X322228Y418132D01*
X322492Y418174D01*
X322755Y418243D01*
X323033Y418340D01*
X323310Y418465D01*
X323324D01*
X323338Y418479D01*
X323421Y418534D01*
X323546Y418631D01*
X323712Y418756D01*
X323879Y418909D01*
X324045Y419103D01*
X324211Y419311D01*
X324350Y419561D01*
X324364Y419588D01*
X324392Y419658D01*
X324433Y419782D01*
X324475Y419949D01*
X324516Y420171D01*
X324558Y420448D01*
X324586Y420767D01*
X324600Y421128D01*
X324614Y421710D01*
D02*
G37*
G36*
X301384Y428520D02*
Y428506D01*
X301370Y428464D01*
X301356Y428395D01*
X301342Y428312D01*
X301315Y428187D01*
X301287Y428062D01*
X301245Y427909D01*
X301204Y427743D01*
X301162Y427563D01*
X301107Y427369D01*
X300982Y426952D01*
X300843Y426509D01*
X300691Y426051D01*
X299276Y422293D01*
X303645D01*
X302299Y425843D01*
Y425857D01*
X302272Y425912D01*
X302244Y425995D01*
X302202Y426120D01*
X302147Y426245D01*
X302091Y426412D01*
X302022Y426592D01*
X301953Y426786D01*
X301814Y427216D01*
X301661Y427660D01*
X301509Y428103D01*
X301384Y428520D01*
D02*
G37*
G36*
X284534Y428339D02*
X281733D01*
Y424470D01*
X284770D01*
X284881Y424484D01*
X285116D01*
X285380Y424498D01*
X285657Y424525D01*
X285907Y424567D01*
X286018Y424581D01*
X286115Y424609D01*
X286129D01*
X286143Y424622D01*
X286226Y424650D01*
X286337Y424692D01*
X286476Y424761D01*
X286628Y424844D01*
X286794Y424955D01*
X286947Y425094D01*
X287086Y425247D01*
X287100Y425274D01*
X287141Y425330D01*
X287197Y425427D01*
X287252Y425552D01*
X287308Y425718D01*
X287363Y425912D01*
X287405Y426120D01*
X287419Y426370D01*
Y426384D01*
Y426398D01*
Y426481D01*
X287405Y426592D01*
X287377Y426744D01*
X287335Y426925D01*
X287280Y427119D01*
X287211Y427313D01*
X287100Y427493D01*
X287086Y427521D01*
X287044Y427576D01*
X286975Y427660D01*
X286878Y427757D01*
X286753Y427868D01*
X286600Y427979D01*
X286434Y428076D01*
X286226Y428159D01*
X286198Y428173D01*
X286170D01*
X286115Y428187D01*
X286059Y428201D01*
X285976Y428214D01*
X285879Y428228D01*
X285782Y428256D01*
X285657Y428270D01*
X285505Y428284D01*
X285352Y428298D01*
X285172Y428312D01*
X284978Y428325D01*
X284770D01*
X284534Y428339D01*
D02*
G37*
G36*
X284687Y422958D02*
X281733D01*
Y418562D01*
X285200D01*
X285380Y418576D01*
X285560D01*
X285754Y418590D01*
X285935Y418604D01*
X286073Y418618D01*
X286101D01*
X286170Y418631D01*
X286281Y418659D01*
X286420Y418701D01*
X286573Y418742D01*
X286725Y418812D01*
X286892Y418881D01*
X287044Y418964D01*
X287058Y418978D01*
X287113Y419006D01*
X287183Y419061D01*
X287280Y419145D01*
X287377Y419242D01*
X287488Y419366D01*
X287599Y419505D01*
X287696Y419672D01*
X287710Y419699D01*
X287738Y419755D01*
X287779Y419852D01*
X287835Y419991D01*
X287876Y420143D01*
X287918Y420323D01*
X287946Y420531D01*
X287959Y420753D01*
Y420767D01*
Y420781D01*
Y420823D01*
Y420878D01*
X287946Y421003D01*
X287918Y421183D01*
X287862Y421377D01*
X287807Y421585D01*
X287710Y421793D01*
X287585Y422001D01*
X287571Y422029D01*
X287516Y422085D01*
X287432Y422182D01*
X287321Y422293D01*
X287169Y422417D01*
X286989Y422528D01*
X286794Y422639D01*
X286559Y422736D01*
X286545D01*
X286531Y422750D01*
X286489Y422764D01*
X286434Y422778D01*
X286365Y422792D01*
X286295Y422806D01*
X286198Y422834D01*
X286087Y422847D01*
X285949Y422875D01*
X285810Y422889D01*
X285657Y422903D01*
X285491Y422931D01*
X285116Y422944D01*
X284687Y422958D01*
D02*
G37*
G36*
X268585Y428339D02*
X264910D01*
Y423763D01*
X268363D01*
X268474Y423777D01*
X268613D01*
X268766Y423790D01*
X268946Y423818D01*
X269126Y423846D01*
X269514Y423915D01*
X269903Y424026D01*
X270083Y424095D01*
X270250Y424179D01*
X270416Y424262D01*
X270555Y424373D01*
X270568Y424387D01*
X270582Y424401D01*
X270624Y424442D01*
X270665Y424484D01*
X270777Y424622D01*
X270901Y424817D01*
X271026Y425066D01*
X271137Y425358D01*
X271220Y425704D01*
X271234Y425885D01*
X271248Y426093D01*
Y426106D01*
Y426134D01*
Y426176D01*
Y426231D01*
X271220Y426384D01*
X271192Y426564D01*
X271151Y426786D01*
X271068Y427008D01*
X270971Y427244D01*
X270832Y427466D01*
X270818Y427493D01*
X270763Y427563D01*
X270665Y427660D01*
X270555Y427771D01*
X270388Y427896D01*
X270208Y428020D01*
X270000Y428131D01*
X269764Y428214D01*
X269750D01*
X269681Y428228D01*
X269570Y428256D01*
X269403Y428284D01*
X269306D01*
X269195Y428298D01*
X269057Y428312D01*
X268918Y428325D01*
X268752D01*
X268585Y428339D01*
D02*
G37*
G36*
X236840D02*
X234039D01*
Y424470D01*
X237076D01*
X237187Y424484D01*
X237423D01*
X237687Y424498D01*
X237964Y424525D01*
X238214Y424567D01*
X238324Y424581D01*
X238421Y424609D01*
X238435D01*
X238449Y424622D01*
X238532Y424650D01*
X238643Y424692D01*
X238782Y424761D01*
X238935Y424844D01*
X239101Y424955D01*
X239254Y425094D01*
X239392Y425247D01*
X239406Y425274D01*
X239448Y425330D01*
X239503Y425427D01*
X239559Y425552D01*
X239614Y425718D01*
X239670Y425912D01*
X239711Y426120D01*
X239725Y426370D01*
Y426384D01*
Y426398D01*
Y426481D01*
X239711Y426592D01*
X239683Y426744D01*
X239642Y426925D01*
X239586Y427119D01*
X239517Y427313D01*
X239406Y427493D01*
X239392Y427521D01*
X239351Y427576D01*
X239281Y427660D01*
X239184Y427757D01*
X239059Y427868D01*
X238907Y427979D01*
X238741Y428076D01*
X238532Y428159D01*
X238505Y428173D01*
X238477D01*
X238421Y428187D01*
X238366Y428201D01*
X238283Y428214D01*
X238186Y428228D01*
X238089Y428256D01*
X237964Y428270D01*
X237811Y428284D01*
X237659Y428298D01*
X237478Y428312D01*
X237284Y428325D01*
X237076D01*
X236840Y428339D01*
D02*
G37*
G36*
X236993Y422958D02*
X234039D01*
Y418562D01*
X237506D01*
X237687Y418576D01*
X237867D01*
X238061Y418590D01*
X238241Y418604D01*
X238380Y418618D01*
X238408D01*
X238477Y418631D01*
X238588Y418659D01*
X238727Y418701D01*
X238879Y418742D01*
X239032Y418812D01*
X239198Y418881D01*
X239351Y418964D01*
X239364Y418978D01*
X239420Y419006D01*
X239489Y419061D01*
X239586Y419145D01*
X239683Y419242D01*
X239795Y419366D01*
X239905Y419505D01*
X240002Y419672D01*
X240016Y419699D01*
X240044Y419755D01*
X240086Y419852D01*
X240141Y419991D01*
X240183Y420143D01*
X240224Y420323D01*
X240252Y420531D01*
X240266Y420753D01*
Y420767D01*
Y420781D01*
Y420823D01*
Y420878D01*
X240252Y421003D01*
X240224Y421183D01*
X240169Y421377D01*
X240113Y421585D01*
X240016Y421793D01*
X239891Y422001D01*
X239878Y422029D01*
X239822Y422085D01*
X239739Y422182D01*
X239628Y422293D01*
X239475Y422417D01*
X239295Y422528D01*
X239101Y422639D01*
X238865Y422736D01*
X238851D01*
X238838Y422750D01*
X238796Y422764D01*
X238741Y422778D01*
X238671Y422792D01*
X238602Y422806D01*
X238505Y422834D01*
X238394Y422847D01*
X238255Y422875D01*
X238116Y422889D01*
X237964Y422903D01*
X237797Y422931D01*
X237423Y422944D01*
X236993Y422958D01*
D02*
G37*
G36*
X347330Y425247D02*
X347219D01*
X347150Y425233D01*
X347053Y425219D01*
X346956Y425205D01*
X346692Y425149D01*
X346415Y425066D01*
X346096Y424941D01*
X345943Y424858D01*
X345791Y424761D01*
X345638Y424636D01*
X345499Y424512D01*
X345485Y424498D01*
X345472Y424484D01*
X345430Y424442D01*
X345388Y424387D01*
X345333Y424304D01*
X345264Y424220D01*
X345194Y424123D01*
X345125Y423998D01*
X345056Y423874D01*
X344986Y423721D01*
X344848Y423388D01*
X344751Y423014D01*
X344723Y422806D01*
X344695Y422584D01*
X349882D01*
Y422598D01*
Y422639D01*
X349868Y422695D01*
X349854Y422778D01*
X349840Y422875D01*
X349826Y422986D01*
X349771Y423236D01*
X349688Y423527D01*
X349591Y423818D01*
X349452Y424095D01*
X349286Y424331D01*
X349272Y424345D01*
X349258Y424373D01*
X349202Y424414D01*
X349147Y424470D01*
X349077Y424539D01*
X348980Y424622D01*
X348869Y424706D01*
X348759Y424789D01*
X348620Y424872D01*
X348467Y424955D01*
X348134Y425108D01*
X347954Y425163D01*
X347760Y425205D01*
X347552Y425233D01*
X347330Y425247D01*
D02*
G37*
G36*
X81063Y368059D02*
X75129Y365986D01*
Y365970D01*
X81063Y363928D01*
Y368059D01*
D02*
G37*
G36*
X76852Y357532D02*
X76836D01*
X76820D01*
X76740D01*
X76613Y357516D01*
X76453Y357500D01*
X76262Y357452D01*
X76070Y357404D01*
X75879Y357324D01*
X75688Y357212D01*
X75672Y357197D01*
X75608Y357149D01*
X75512Y357069D01*
X75416Y356957D01*
X75305Y356814D01*
X75177Y356638D01*
X75082Y356415D01*
X74986Y356160D01*
Y356144D01*
X74970Y356128D01*
Y356080D01*
X74954Y356016D01*
X74922Y355841D01*
X74890Y355633D01*
Y355586D01*
X74874Y355522D01*
Y355330D01*
X74858Y355203D01*
Y353560D01*
X78862D01*
Y355203D01*
X78846Y355314D01*
Y355474D01*
X78830Y355633D01*
X78798Y355825D01*
X78766Y356000D01*
X78718Y356176D01*
Y356192D01*
X78686Y356255D01*
X78655Y356335D01*
X78607Y356447D01*
X78479Y356702D01*
X78304Y356941D01*
X78288Y356957D01*
X78256Y356989D01*
X78192Y357053D01*
X78128Y357117D01*
X78032Y357181D01*
X77921Y357260D01*
X77666Y357388D01*
X77650D01*
X77602Y357404D01*
X77522Y357436D01*
X77426Y357468D01*
X77299Y357484D01*
X77155Y357516D01*
X76852Y357532D01*
D02*
G37*
G36*
X81063Y346940D02*
X75129Y344866D01*
Y344850D01*
X81063Y342809D01*
Y346940D01*
D02*
G37*
G36*
Y289994D02*
X75129Y287920D01*
Y287904D01*
X81063Y285863D01*
Y289994D01*
D02*
G37*
G36*
X79835Y257135D02*
X79484D01*
X79468D01*
X79436D01*
X79388D01*
X79309D01*
X79213D01*
X79117Y257119D01*
X78862D01*
X78575Y257087D01*
X78256Y257055D01*
X77937Y257007D01*
X77602Y256943D01*
X77586D01*
X77570D01*
X77522Y256927D01*
X77458Y256911D01*
X77299Y256863D01*
X77091Y256800D01*
X76852Y256720D01*
X76613Y256624D01*
X76342Y256497D01*
X76102Y256353D01*
X76070Y256337D01*
X75991Y256273D01*
X75879Y256178D01*
X75736Y256066D01*
X75576Y255906D01*
X75401Y255715D01*
X75241Y255492D01*
X75097Y255236D01*
X75082Y255205D01*
X75034Y255109D01*
X74986Y254965D01*
X74906Y254758D01*
X74842Y254503D01*
X74794Y254216D01*
X74747Y253881D01*
X74731Y253514D01*
Y253338D01*
X74747Y253258D01*
Y253147D01*
X74778Y252908D01*
X74826Y252636D01*
X74906Y252349D01*
X75002Y252046D01*
X75129Y251775D01*
X75145Y251743D01*
X75193Y251663D01*
X75289Y251536D01*
X75401Y251376D01*
X75544Y251201D01*
X75736Y251009D01*
X75927Y250818D01*
X76166Y250643D01*
X76198Y250627D01*
X76278Y250579D01*
X76406Y250499D01*
X76597Y250403D01*
X76804Y250308D01*
X77059Y250196D01*
X77347Y250100D01*
X77666Y250020D01*
X77682D01*
X77698D01*
X77745Y250005D01*
X77809Y249988D01*
X77985Y249973D01*
X78208Y249941D01*
X78479Y249909D01*
X78782Y249877D01*
X79117Y249861D01*
X79468Y249845D01*
X79484D01*
X79516D01*
X79564D01*
X79644D01*
X79739D01*
X79835Y249861D01*
X80090D01*
X80393Y249877D01*
X80712Y249909D01*
X81398Y250005D01*
X81414D01*
X81430Y250020D01*
X81478D01*
X81542Y250036D01*
X81701Y250084D01*
X81909Y250148D01*
X82148Y250228D01*
X82403Y250324D01*
X82658Y250451D01*
X82914Y250595D01*
X82945Y250611D01*
X83025Y250674D01*
X83137Y250770D01*
X83280Y250882D01*
X83440Y251041D01*
X83600Y251233D01*
X83759Y251456D01*
X83903Y251695D01*
Y251711D01*
X83919Y251727D01*
X83950Y251823D01*
X84014Y251966D01*
X84078Y252174D01*
X84142Y252429D01*
X84206Y252732D01*
X84237Y253067D01*
X84254Y253450D01*
Y253625D01*
X84237Y253705D01*
Y253817D01*
X84206Y254056D01*
X84158Y254327D01*
X84094Y254614D01*
X83998Y254917D01*
X83871Y255189D01*
Y255205D01*
X83855Y255221D01*
X83807Y255300D01*
X83711Y255428D01*
X83600Y255587D01*
X83456Y255779D01*
X83265Y255970D01*
X83073Y256146D01*
X82834Y256321D01*
X82802Y256337D01*
X82722Y256385D01*
X82579Y256465D01*
X82403Y256560D01*
X82180Y256656D01*
X81925Y256768D01*
X81637Y256863D01*
X81319Y256943D01*
X81302D01*
X81271Y256959D01*
X81223D01*
X81159Y256975D01*
X80983Y257007D01*
X80760Y257039D01*
X80489Y257071D01*
X80170Y257103D01*
X79835Y257135D01*
D02*
G37*
%LPD*%
D10*
X368750Y448142D02*
G03*
X361892Y455000I-6858J0D01*
G01*
Y404663D02*
G03*
X368750Y411521I0J6858D01*
G01*
X194750D02*
G03*
X201608Y404663I6858J0D01*
G01*
Y455000D02*
G03*
X194750Y448142I0J-6858D01*
G01*
X286250Y455000D02*
X361892D01*
X368750Y411521D02*
Y448142D01*
X201608Y404663D02*
X361892D01*
X194750Y411521D02*
Y448142D01*
X201608Y455000D02*
X286250D01*
D11*
X114206Y356718D02*
G03*
X114206Y356718I-2206J0D01*
G01*
X111706Y364218D02*
G03*
X111706Y364218I-2206J0D01*
G01*
X104206Y366718D02*
G03*
X104206Y366718I-2206J0D01*
G01*
X106706Y344218D02*
G03*
X106706Y344218I-2206J0D01*
G01*
X96706Y369218D02*
G03*
X96706Y369218I-2206J0D01*
G01*
X104500Y346718D02*
Y359218D01*
X104500Y359218D02*
X107941Y362659D01*
X109500Y354218D02*
X110250Y354968D01*
X109500Y346718D02*
Y354218D01*
X99500Y346718D02*
X99500Y364218D01*
X100534Y365252D01*
X94500Y346718D02*
X94500Y366718D01*
X109500Y366718D02*
X109500Y381203D01*
X102000Y384218D02*
X102000Y369218D01*
X102000Y284218D02*
X107000Y289218D01*
X104500Y291718D02*
X107000Y289218D01*
X99500Y301718D02*
X109500Y301718D01*
X104500Y306718D02*
X109500D01*
X110162Y315541D02*
X112000Y319218D01*
X108323Y317380D02*
X110162Y315541D01*
X108323Y317380D02*
X112000Y319218D01*
Y324218D01*
X97000Y311718D02*
X112000Y311718D01*
X97000Y319218D02*
X104500Y311718D01*
X104500Y324218D02*
X104500Y329218D01*
X104500Y324218D02*
X112000D01*
X104500Y311718D02*
X112000Y319218D01*
X99500Y306718D02*
X104500Y306718D01*
Y311718D01*
X104500Y291718D02*
Y301718D01*
X104500Y341718D02*
X112000Y329218D01*
X97000Y329218D02*
X104500Y341718D01*
X97000Y329218D02*
X112000Y329218D01*
X93500Y220218D02*
X97000Y221718D01*
X92000Y319218D02*
X97000D01*
X92000Y216718D02*
X93500Y220218D01*
X92000Y239218D02*
Y244218D01*
X92000Y254218D02*
X92000Y249218D01*
X92000Y216718D02*
X93500Y213218D01*
X94500Y371718D02*
Y384218D01*
X93500Y213218D02*
X97000Y211718D01*
X102000Y284218D02*
X107000Y279218D01*
X102000Y274218D02*
X107000Y279218D01*
X102000Y274218D02*
X104500Y271718D01*
X97000Y221718D02*
X112000Y226718D01*
X97000Y211718D02*
X104500Y209218D01*
X92000Y261718D02*
X92000Y266718D01*
X104500Y266718D02*
Y271718D01*
X117000Y254218D02*
Y261718D01*
X117000Y244218D02*
Y249218D01*
X92000Y244218D02*
X117000Y244218D01*
X92000Y249218D02*
X117000Y249218D01*
X92000Y254218D02*
X117000D01*
X92000Y266718D02*
X104500Y266718D01*
X92000Y261718D02*
X117000D01*
X92000Y239218D02*
X112000Y236718D01*
X114500Y351718D02*
X117000Y354218D01*
X114500Y351718D02*
X114500Y347222D01*
X112000Y319218D02*
X117000D01*
X115500Y235218D02*
X117000Y231718D01*
X112000Y236718D02*
X115500Y235218D01*
Y228218D02*
X117000Y231718D01*
Y354218D02*
Y384218D01*
X112000Y226718D02*
X115500Y228218D01*
X444620Y111420D02*
X452120D01*
Y118920D01*
X222906Y131948D02*
X230406Y131948D01*
D12*
X436132Y104490D02*
G03*
X413387Y74955I-3708J-20670D01*
G01*
X423559Y64783D02*
G03*
X453094Y87528I8865J19037D01*
G01*
X516132Y104490D02*
G03*
X493387Y74955I-3708J-20670D01*
G01*
X503559Y64783D02*
G03*
X533094Y87528I8865J19037D01*
G01*
X476132Y104490D02*
G03*
X453387Y74955I-3708J-20670D01*
G01*
X463559Y64783D02*
G03*
X493094Y87528I8865J19037D01*
G01*
X396132Y104490D02*
G03*
X373387Y74955I-3708J-20670D01*
G01*
X383559Y64783D02*
G03*
X413094Y87528I8865J19037D01*
G01*
X436132Y104490D02*
X437895Y102726D01*
X451330Y89291D02*
X453094Y87528D01*
X516132Y104490D02*
X517895Y102726D01*
X531330Y89291D02*
X533094Y87528D01*
X476132Y104490D02*
X477895Y102726D01*
X491330Y89291D02*
X493094Y87528D01*
X396132Y104490D02*
X397895Y102726D01*
X411330Y89291D02*
X413094Y87528D01*
X399309Y456749D02*
X404309D01*
X401809Y461749D02*
X404309Y456749D01*
X399309D02*
X401809Y461749D01*
X505250Y316700D02*
X505250Y304200D01*
X505250Y291700D02*
X505250Y304200D01*
X532750Y291700D02*
X532750Y304200D01*
X532750Y316700D02*
X532750Y304200D01*
X519000Y316900D02*
X521500Y320700D01*
X516500Y320700D02*
X519000Y316900D01*
X516500Y320700D02*
X521500Y320700D01*
X285906Y124948D02*
X293406Y124948D01*
X30292Y122918D02*
X37624Y126060D01*
X30292Y129202D02*
X37624Y126060D01*
X26626Y132030D02*
X27150Y132554D01*
X26626Y133078D01*
X26102Y132554D01*
X26626Y132030D01*
X30292Y132554D02*
X37624D01*
X30292Y135015D02*
X37624D01*
X32387D02*
X30816Y136587D01*
X30292Y137634D01*
Y139205D01*
X30816Y140252D01*
X32387Y140776D01*
X37624D01*
X31863Y149941D02*
X30816Y148893D01*
X30292Y147846D01*
Y146275D01*
X30816Y145227D01*
X31863Y144180D01*
X33434Y143657D01*
X34482D01*
X36053Y144180D01*
X37100Y145227D01*
X37624Y146275D01*
Y147846D01*
X37100Y148893D01*
X36053Y149941D01*
X33434Y152297D02*
Y158582D01*
X32387D01*
X31339Y158058D01*
X30816Y157534D01*
X30292Y156487D01*
Y154916D01*
X30816Y153869D01*
X31863Y152821D01*
X33434Y152297D01*
X34482D01*
X36053Y152821D01*
X37100Y153869D01*
X37624Y154916D01*
Y156487D01*
X37100Y157534D01*
X36053Y158582D01*
X30292Y160938D02*
X37624D01*
X32387D02*
X30816Y162510D01*
X30292Y163557D01*
Y165128D01*
X30816Y166175D01*
X32387Y166699D01*
X37624D01*
X26626Y171151D02*
X35529D01*
X37100Y171674D01*
X37624Y172722D01*
Y173769D01*
X30292Y169580D02*
Y173245D01*
X32911Y175340D02*
Y184767D01*
X26626Y188014D02*
X37624D01*
X32387D02*
X30816Y189585D01*
X30292Y190632D01*
Y192203D01*
X30816Y193251D01*
X32387Y193774D01*
X37624D01*
X26626Y197702D02*
X27150Y198226D01*
X26626Y198749D01*
X26102Y198226D01*
X26626Y197702D01*
X30292Y198226D02*
X37624D01*
X30292Y200687D02*
X37624D01*
X32387D02*
X30816Y202258D01*
X30292Y203306D01*
Y204877D01*
X30816Y205924D01*
X32387Y206448D01*
X37624D01*
X32387D02*
X30816Y208019D01*
X30292Y209066D01*
Y210637D01*
X30816Y211685D01*
X32387Y212208D01*
X37624D01*
X30292Y215665D02*
X41290D01*
X31863D02*
X30816Y216712D01*
X30292Y217760D01*
Y219331D01*
X30816Y220378D01*
X31863Y221425D01*
X33434Y221949D01*
X34482D01*
X36053Y221425D01*
X37100Y220378D01*
X37624Y219331D01*
Y217760D01*
X37100Y216712D01*
X36053Y215665D01*
X33434Y224306D02*
Y230590D01*
X32387D01*
X31339Y230067D01*
X30816Y229543D01*
X30292Y228495D01*
Y226924D01*
X30816Y225877D01*
X31863Y224830D01*
X33434Y224306D01*
X34482D01*
X36053Y224830D01*
X37100Y225877D01*
X37624Y226924D01*
Y228495D01*
X37100Y229543D01*
X36053Y230590D01*
X39195Y232947D02*
X26626Y240279D01*
Y241012D02*
X34482D01*
X36053Y241535D01*
X37100Y242583D01*
X37624Y244154D01*
Y245201D01*
X37100Y246772D01*
X36053Y247820D01*
X34482Y248344D01*
X26626D01*
X28197Y258713D02*
X27150Y257665D01*
X26626Y256094D01*
Y254000D01*
X27150Y252428D01*
X28197Y251381D01*
X29245D01*
X30292Y251905D01*
X30816Y252428D01*
X31339Y253476D01*
X32387Y256618D01*
X32911Y257665D01*
X33434Y258189D01*
X34482Y258713D01*
X36053D01*
X37100Y257665D01*
X37624Y256094D01*
Y254000D01*
X37100Y252428D01*
X36053Y251381D01*
X26626Y261174D02*
X37624D01*
X26626D02*
Y265887D01*
X27150Y267458D01*
X27674Y267982D01*
X28721Y268506D01*
X29768D01*
X30816Y267982D01*
X31339Y267458D01*
X31863Y265887D01*
Y261174D02*
Y265887D01*
X32387Y267458D01*
X32911Y267982D01*
X33958Y268506D01*
X35529D01*
X36576Y267982D01*
X37100Y267458D01*
X37624Y265887D01*
Y261174D01*
X29245Y278823D02*
X28197Y278299D01*
X27150Y277252D01*
X26626Y276204D01*
Y274109D01*
X27150Y273062D01*
X28197Y272015D01*
X29245Y271491D01*
X30816Y270967D01*
X33434D01*
X35005Y271491D01*
X36053Y272015D01*
X37100Y273062D01*
X37624Y274109D01*
Y276204D01*
X37100Y277252D01*
X36053Y278299D01*
X35005Y278823D01*
X33434D01*
Y276204D02*
Y278823D01*
X32387Y281336D02*
Y286050D01*
X31863Y287621D01*
X31339Y288145D01*
X30292Y288668D01*
X28721D01*
X27674Y288145D01*
X27150Y287621D01*
X26626Y286050D01*
Y281336D01*
X37624D01*
X26626Y291130D02*
X37624D01*
X26626Y293434D02*
X37624D01*
X26626D02*
Y298147D01*
X27150Y299718D01*
X27674Y300242D01*
X28721Y300766D01*
X29768D01*
X30816Y300242D01*
X31339Y299718D01*
X31863Y298147D01*
Y293434D02*
Y298147D01*
X32387Y299718D01*
X32911Y300242D01*
X33958Y300766D01*
X35529D01*
X36576Y300242D01*
X37100Y299718D01*
X37624Y298147D01*
Y293434D01*
X9765Y128323D02*
X8717Y127799D01*
X7670Y126751D01*
X7146Y125704D01*
Y123609D01*
X7670Y122562D01*
X8717Y121515D01*
X9765Y120991D01*
X11336Y120467D01*
X13954D01*
X15525Y120991D01*
X16573Y121515D01*
X17620Y122562D01*
X18144Y123609D01*
Y125704D01*
X17620Y126751D01*
X16573Y127799D01*
X15525Y128323D01*
X13954D01*
Y125704D02*
Y128323D01*
X10812Y137121D02*
X18144D01*
X12383D02*
X11336Y136073D01*
X10812Y135026D01*
Y133455D01*
X11336Y132408D01*
X12383Y131360D01*
X13954Y130836D01*
X15002D01*
X16573Y131360D01*
X17620Y132408D01*
X18144Y133455D01*
Y135026D01*
X17620Y136073D01*
X16573Y137121D01*
X7146Y140054D02*
X18144D01*
X10812Y142358D02*
X18144Y145500D01*
X10812Y148642D02*
X18144Y145500D01*
X10812Y156707D02*
X18144D01*
X12383D02*
X11336Y155660D01*
X10812Y154612D01*
Y153041D01*
X11336Y151994D01*
X12383Y150946D01*
X13954Y150423D01*
X15002D01*
X16573Y150946D01*
X17620Y151994D01*
X18144Y153041D01*
Y154612D01*
X17620Y155660D01*
X16573Y156707D01*
X10812Y159640D02*
X18144D01*
X12907D02*
X11336Y161211D01*
X10812Y162258D01*
Y163829D01*
X11336Y164877D01*
X12907Y165400D01*
X18144D01*
X7146Y169852D02*
X16049D01*
X17620Y170375D01*
X18144Y171423D01*
Y172470D01*
X10812Y168281D02*
Y171947D01*
X19715Y174041D02*
X7146Y181373D01*
X10812Y188391D02*
X19191D01*
X20762Y187867D01*
X21286Y187343D01*
X21810Y186296D01*
Y184725D01*
X21286Y183677D01*
X12383Y188391D02*
X11336Y187343D01*
X10812Y186296D01*
Y184725D01*
X11336Y183677D01*
X12383Y182630D01*
X13954Y182106D01*
X15002D01*
X16573Y182630D01*
X17620Y183677D01*
X18144Y184725D01*
Y186296D01*
X17620Y187343D01*
X16573Y188391D01*
X10812Y191323D02*
X21810D01*
X12383D02*
X11336Y192371D01*
X10812Y193418D01*
Y194989D01*
X11336Y196037D01*
X12383Y197084D01*
X13954Y197608D01*
X15002D01*
X16573Y197084D01*
X17620Y196037D01*
X18144Y194989D01*
Y193418D01*
X17620Y192371D01*
X16573Y191323D01*
X7146Y201012D02*
X7670Y201535D01*
X7146Y202059D01*
X6622Y201535D01*
X7146Y201012D01*
X10812Y201535D02*
X18144D01*
X7146Y203997D02*
X18144D01*
X12383D02*
X11336Y205044D01*
X10812Y206092D01*
Y207663D01*
X11336Y208710D01*
X12383Y209758D01*
X13954Y210281D01*
X15002D01*
X16573Y209758D01*
X17620Y208710D01*
X18144Y207663D01*
Y206092D01*
X17620Y205044D01*
X16573Y203997D01*
X10812Y212638D02*
X16049D01*
X17620Y213162D01*
X18144Y214209D01*
Y215780D01*
X17620Y216828D01*
X16049Y218399D01*
X10812D02*
X18144D01*
X12383Y227040D02*
X11336Y226516D01*
X10812Y224945D01*
Y223374D01*
X11336Y221803D01*
X12383Y221279D01*
X13431Y221803D01*
X13954Y222850D01*
X14478Y225469D01*
X15002Y226516D01*
X16049Y227040D01*
X16573D01*
X17620Y226516D01*
X18144Y224945D01*
Y223374D01*
X17620Y221803D01*
X16573Y221279D01*
X7146Y229344D02*
X18144D01*
X12383D02*
X11336Y230391D01*
X10812Y231439D01*
Y233010D01*
X11336Y234057D01*
X12383Y235105D01*
X13954Y235628D01*
X15002D01*
X16573Y235105D01*
X17620Y234057D01*
X18144Y233010D01*
Y231439D01*
X17620Y230391D01*
X16573Y229344D01*
X13431Y237985D02*
Y247411D01*
X7146Y254848D02*
Y253801D01*
X7670Y252753D01*
X9241Y252229D01*
X18144D01*
X10812Y250658D02*
Y254324D01*
X7146Y257466D02*
X7670Y257990D01*
X7146Y258514D01*
X6622Y257990D01*
X7146Y257466D01*
X10812Y257990D02*
X18144D01*
X10812Y260452D02*
X18144D01*
X13954D02*
X12383Y260975D01*
X11336Y262023D01*
X10812Y263070D01*
Y264641D01*
Y265636D02*
X18144D01*
X12907D02*
X11336Y267207D01*
X10812Y268255D01*
Y269826D01*
X11336Y270873D01*
X12907Y271397D01*
X18144D01*
X12907D02*
X11336Y272968D01*
X10812Y274015D01*
Y275586D01*
X11336Y276634D01*
X12907Y277157D01*
X18144D01*
X10812Y280614D02*
X18144Y282709D01*
X10812Y284803D02*
X18144Y282709D01*
X10812Y284803D02*
X18144Y286898D01*
X10812Y288993D02*
X18144Y286898D01*
X10812Y297843D02*
X18144D01*
X12383D02*
X11336Y296796D01*
X10812Y295749D01*
Y294178D01*
X11336Y293130D01*
X12383Y292083D01*
X13954Y291559D01*
X15002D01*
X16573Y292083D01*
X17620Y293130D01*
X18144Y294178D01*
Y295749D01*
X17620Y296796D01*
X16573Y297843D01*
X10812Y300776D02*
X18144D01*
X13954D02*
X12383Y301300D01*
X11336Y302347D01*
X10812Y303395D01*
Y304966D01*
X13954Y305961D02*
Y312245D01*
X12907D01*
X11859Y311721D01*
X11336Y311198D01*
X10812Y310150D01*
Y308579D01*
X11336Y307532D01*
X12383Y306485D01*
X13954Y305961D01*
X15002D01*
X16573Y306485D01*
X17620Y307532D01*
X18144Y308579D01*
Y310150D01*
X17620Y311198D01*
X16573Y312245D01*
X21109Y79751D02*
X20252Y79322D01*
X19395Y78465D01*
X18967Y77608D01*
Y75894D01*
X19395Y75037D01*
X20252Y74181D01*
X21109Y73752D01*
X22394Y73324D01*
X24537D01*
X25822Y73752D01*
X26679Y74181D01*
X27536Y75037D01*
X27965Y75894D01*
Y77608D01*
X27536Y78465D01*
X26679Y79322D01*
X25822Y79751D01*
X24537D01*
Y77608D02*
Y79751D01*
X18967Y81807D02*
X27965D01*
X18967Y86692D02*
X27965D01*
X18967Y83693D02*
Y89691D01*
Y90763D02*
X27965D01*
X18967Y96762D02*
X27965D01*
X23252Y90763D02*
Y96762D01*
X18967Y99247D02*
X25394D01*
X26679Y99675D01*
X27536Y100532D01*
X27965Y101818D01*
Y102675D01*
X27536Y103960D01*
X26679Y104817D01*
X25394Y105245D01*
X18967D01*
Y107731D02*
X27965D01*
X18967D02*
Y111587D01*
X19395Y112872D01*
X19824Y113301D01*
X20681Y113729D01*
X21537D01*
X22394Y113301D01*
X22823Y112872D01*
X23252Y111587D01*
Y107731D02*
Y111587D01*
X23680Y112872D01*
X24108Y113301D01*
X24965Y113729D01*
X26251D01*
X27108Y113301D01*
X27536Y112872D01*
X27965Y111587D01*
Y107731D01*
X472561Y121523D02*
X471799Y121142D01*
X471038Y120380D01*
X470657Y119618D01*
Y118095D01*
X471038Y117333D01*
X471799Y116571D01*
X472561Y116190D01*
X473704Y115809D01*
X475608D01*
X476751Y116190D01*
X477513Y116571D01*
X478274Y117333D01*
X478655Y118095D01*
Y119618D01*
X478274Y120380D01*
X477513Y121142D01*
X476751Y121523D01*
X472180Y123770D02*
X471799Y124531D01*
X470657Y125674D01*
X478655D01*
X471799Y134206D02*
X471038Y133825D01*
X470657Y132682D01*
Y131920D01*
X471038Y130778D01*
X472180Y130016D01*
X474085Y129635D01*
X475989D01*
X477513Y130016D01*
X478274Y130778D01*
X478655Y131920D01*
Y132301D01*
X478274Y133444D01*
X477513Y134206D01*
X476370Y134586D01*
X475989D01*
X474846Y134206D01*
X474085Y133444D01*
X473704Y132301D01*
Y131920D01*
X474085Y130778D01*
X474846Y130016D01*
X475989Y129635D01*
X145290Y211043D02*
X144909Y211805D01*
X144148Y212566D01*
X143386Y212947D01*
X141862D01*
X141101Y212566D01*
X140339Y211805D01*
X139958Y211043D01*
X139577Y209900D01*
Y207996D01*
X139958Y206853D01*
X140339Y206091D01*
X141101Y205330D01*
X141862Y204949D01*
X143386D01*
X144148Y205330D01*
X144909Y206091D01*
X145290Y206853D01*
X147537Y211424D02*
X148299Y211805D01*
X149442Y212947D01*
Y204949D01*
X157973Y212947D02*
X154164D01*
X153784Y209519D01*
X154164Y209900D01*
X155307Y210281D01*
X156450D01*
X157592Y209900D01*
X158354Y209138D01*
X158735Y207996D01*
Y207234D01*
X158354Y206091D01*
X157592Y205330D01*
X156450Y204949D01*
X155307D01*
X154164Y205330D01*
X153784Y205711D01*
X153403Y206472D01*
X277452Y117123D02*
Y109125D01*
Y117123D02*
X280880D01*
X282023Y116742D01*
X282404Y116362D01*
X282784Y115600D01*
Y114838D01*
X282404Y114076D01*
X282023Y113695D01*
X280880Y113315D01*
X277452D01*
X280118D02*
X282784Y109125D01*
X284575Y115600D02*
X285336Y115981D01*
X286479Y117123D01*
Y109125D01*
X291202Y117123D02*
X295391D01*
X293106Y114076D01*
X294249D01*
X295010Y113695D01*
X295391Y113315D01*
X295772Y112172D01*
Y111410D01*
X295391Y110268D01*
X294629Y109506D01*
X293487Y109125D01*
X292344D01*
X291202Y109506D01*
X290821Y109887D01*
X290440Y110648D01*
X180790Y120293D02*
X180409Y121054D01*
X179648Y121816D01*
X178886Y122197D01*
X177362D01*
X176601Y121816D01*
X175839Y121054D01*
X175458Y120293D01*
X175077Y119150D01*
Y117246D01*
X175458Y116103D01*
X175839Y115342D01*
X176601Y114580D01*
X177362Y114199D01*
X178886D01*
X179648Y114580D01*
X180409Y115342D01*
X180790Y116103D01*
X183037Y120674D02*
X183799Y121054D01*
X184942Y122197D01*
Y114199D01*
X189284Y120293D02*
Y120674D01*
X189664Y121435D01*
X190045Y121816D01*
X190807Y122197D01*
X192331D01*
X193092Y121816D01*
X193473Y121435D01*
X193854Y120674D01*
Y119912D01*
X193473Y119150D01*
X192712Y118008D01*
X188903Y114199D01*
X194235D01*
X93417Y182220D02*
X101415D01*
X93417D02*
Y185648D01*
X93798Y186790D01*
X94179Y187171D01*
X94940Y187552D01*
X95702D01*
X96464Y187171D01*
X96845Y186790D01*
X97226Y185648D01*
Y182220D01*
Y184886D02*
X101415Y187552D01*
X94940Y189342D02*
X94559Y190104D01*
X93417Y191246D01*
X101415D01*
X95321Y195588D02*
X94940D01*
X94179Y195969D01*
X93798Y196350D01*
X93417Y197112D01*
Y198635D01*
X93798Y199397D01*
X94179Y199778D01*
X94940Y200159D01*
X95702D01*
X96464Y199778D01*
X97606Y199016D01*
X101415Y195207D01*
Y200540D01*
X107417Y182434D02*
X115415D01*
X107417D02*
Y185861D01*
X107798Y187004D01*
X108179Y187385D01*
X108940Y187766D01*
X109702D01*
X110464Y187385D01*
X110845Y187004D01*
X111226Y185861D01*
Y182434D01*
Y185100D02*
X115415Y187766D01*
X108940Y189556D02*
X108559Y190318D01*
X107417Y191460D01*
X115415D01*
X108940Y195421D02*
X108559Y196183D01*
X107417Y197326D01*
X115415D01*
X290746Y199197D02*
Y191199D01*
Y199197D02*
X294174D01*
X295317Y198816D01*
X295697Y198435D01*
X296078Y197674D01*
Y196912D01*
X295697Y196150D01*
X295317Y195769D01*
X294174Y195388D01*
X290746D01*
X293412D02*
X296078Y191199D01*
X297868Y197674D02*
X298630Y198055D01*
X299773Y199197D01*
Y191199D01*
X306019Y199197D02*
X304876Y198816D01*
X304115Y197674D01*
X303734Y195769D01*
Y194627D01*
X304115Y192722D01*
X304876Y191580D01*
X306019Y191199D01*
X306781D01*
X307923Y191580D01*
X308685Y192722D01*
X309066Y194627D01*
Y195769D01*
X308685Y197674D01*
X307923Y198816D01*
X306781Y199197D01*
X306019D01*
X291429Y169697D02*
Y161699D01*
Y169697D02*
X294857D01*
X295999Y169316D01*
X296380Y168935D01*
X296761Y168174D01*
Y167412D01*
X296380Y166650D01*
X295999Y166269D01*
X294857Y165888D01*
X291429D01*
X294095D02*
X296761Y161699D01*
X299313Y169697D02*
X303502D01*
X301217Y166650D01*
X302360D01*
X303121Y166269D01*
X303502Y165888D01*
X303883Y164746D01*
Y163984D01*
X303502Y162841D01*
X302741Y162080D01*
X301598Y161699D01*
X300455D01*
X299313Y162080D01*
X298932Y162461D01*
X298551Y163222D01*
X299317Y135441D02*
X298556Y135060D01*
X297794Y134299D01*
X297413Y133537D01*
X297032Y132394D01*
Y130490D01*
X297413Y129347D01*
X297794Y128586D01*
X298556Y127824D01*
X299317Y127443D01*
X300841D01*
X301602Y127824D01*
X302364Y128586D01*
X302745Y129347D01*
X303126Y130490D01*
Y132394D01*
X302745Y133537D01*
X302364Y134299D01*
X301602Y135060D01*
X300841Y135441D01*
X299317D01*
X300460Y128966D02*
X302745Y126681D01*
X304992Y133918D02*
X305754Y134299D01*
X306897Y135441D01*
Y127443D01*
X84439Y147629D02*
Y139631D01*
Y147629D02*
X87105D01*
X88247Y147248D01*
X89009Y146486D01*
X89390Y145724D01*
X89771Y144582D01*
Y142677D01*
X89390Y141535D01*
X89009Y140773D01*
X88247Y140011D01*
X87105Y139631D01*
X84439D01*
X96131Y147629D02*
X92323D01*
X91942Y144201D01*
X92323Y144582D01*
X93465Y144963D01*
X94608D01*
X95751Y144582D01*
X96512Y143820D01*
X96893Y142677D01*
Y141916D01*
X96512Y140773D01*
X95751Y140011D01*
X94608Y139631D01*
X93465D01*
X92323Y140011D01*
X91942Y140392D01*
X91561Y141154D01*
X296510Y181793D02*
X296129Y182554D01*
X295367Y183316D01*
X294606Y183697D01*
X293082D01*
X292320Y183316D01*
X291559Y182554D01*
X291178Y181793D01*
X290797Y180650D01*
Y178746D01*
X291178Y177603D01*
X291559Y176842D01*
X292320Y176080D01*
X293082Y175699D01*
X294606D01*
X295367Y176080D01*
X296129Y176842D01*
X296510Y177603D01*
X303328Y182554D02*
X302947Y183316D01*
X301804Y183697D01*
X301042D01*
X299900Y183316D01*
X299138Y182174D01*
X298757Y180269D01*
Y178365D01*
X299138Y176842D01*
X299900Y176080D01*
X301042Y175699D01*
X301423D01*
X302566Y176080D01*
X303328Y176842D01*
X303708Y177984D01*
Y178365D01*
X303328Y179508D01*
X302566Y180269D01*
X301423Y180650D01*
X301042D01*
X299900Y180269D01*
X299138Y179508D01*
X298757Y178365D01*
X205540Y240043D02*
X205159Y240805D01*
X204398Y241566D01*
X203636Y241947D01*
X202112D01*
X201351Y241566D01*
X200589Y240805D01*
X200208Y240043D01*
X199827Y238900D01*
Y236996D01*
X200208Y235853D01*
X200589Y235091D01*
X201351Y234330D01*
X202112Y233949D01*
X203636D01*
X204398Y234330D01*
X205159Y235091D01*
X205540Y235853D01*
X207787Y240424D02*
X208549Y240805D01*
X209692Y241947D01*
Y233949D01*
X215938Y241947D02*
X214795Y241566D01*
X214034Y240424D01*
X213653Y238519D01*
Y237377D01*
X214034Y235472D01*
X214795Y234330D01*
X215938Y233949D01*
X216700D01*
X217842Y234330D01*
X218604Y235472D01*
X218985Y237377D01*
Y238519D01*
X218604Y240424D01*
X217842Y241566D01*
X216700Y241947D01*
X215938D01*
X35417Y403543D02*
X43415D01*
X35417D02*
Y406971D01*
X35798Y408113D01*
X36178Y408494D01*
X36940Y408875D01*
X37702D01*
X38464Y408494D01*
X38844Y408113D01*
X39225Y406971D01*
Y403543D01*
Y406209D02*
X43415Y408875D01*
X37321Y411046D02*
X36940D01*
X36178Y411427D01*
X35798Y411808D01*
X35417Y412569D01*
Y414093D01*
X35798Y414855D01*
X36178Y415235D01*
X36940Y415616D01*
X37702D01*
X38464Y415235D01*
X39606Y414474D01*
X43415Y410665D01*
Y415997D01*
X238811Y67832D02*
X238050Y67451D01*
X237288Y66690D01*
X236907Y65928D01*
Y64404D01*
X237288Y63643D01*
X238050Y62881D01*
X238811Y62500D01*
X239954Y62119D01*
X241858D01*
X243001Y62500D01*
X243763Y62881D01*
X244524Y63643D01*
X244905Y64404D01*
Y65928D01*
X244524Y66690D01*
X243763Y67451D01*
X243001Y67832D01*
X238430Y70079D02*
X238050Y70841D01*
X236907Y71984D01*
X244905D01*
X236907Y76707D02*
Y80896D01*
X239954Y78611D01*
Y79753D01*
X240335Y80515D01*
X240716Y80896D01*
X241858Y81277D01*
X242620D01*
X243763Y80896D01*
X244524Y80134D01*
X244905Y78992D01*
Y77849D01*
X244524Y76707D01*
X244144Y76326D01*
X243382Y75945D01*
X62321Y408618D02*
X61559Y408237D01*
X60798Y407475D01*
X60417Y406714D01*
Y405190D01*
X60798Y404428D01*
X61559Y403667D01*
X62321Y403286D01*
X63464Y402905D01*
X65368D01*
X66511Y403286D01*
X67272Y403667D01*
X68034Y404428D01*
X68415Y405190D01*
Y406714D01*
X68034Y407475D01*
X67272Y408237D01*
X66511Y408618D01*
X61940Y410865D02*
X61559Y411627D01*
X60417Y412770D01*
X68415D01*
X61940Y416731D02*
X61559Y417492D01*
X60417Y418635D01*
X68415D01*
X545960Y316499D02*
Y310405D01*
X545579Y309263D01*
X545198Y308882D01*
X544436Y308501D01*
X543675D01*
X542913Y308882D01*
X542532Y309263D01*
X542151Y310405D01*
Y311167D01*
X548397Y314595D02*
Y314976D01*
X548778Y315737D01*
X549159Y316118D01*
X549921Y316499D01*
X551445D01*
X552206Y316118D01*
X552587Y315737D01*
X552968Y314976D01*
Y314214D01*
X552587Y313452D01*
X551825Y312310D01*
X548017Y308501D01*
X553349D01*
X291490Y231243D02*
X290728Y230482D01*
X290347Y229339D01*
Y227815D01*
X290728Y226673D01*
X291490Y225911D01*
X292251D01*
X293013Y226292D01*
X293394Y226673D01*
X293775Y227435D01*
X294536Y229720D01*
X294917Y230482D01*
X295298Y230863D01*
X296060Y231243D01*
X297203D01*
X297964Y230482D01*
X298345Y229339D01*
Y227815D01*
X297964Y226673D01*
X297203Y225911D01*
X290347Y233033D02*
X298345Y234938D01*
X290347Y236842D02*
X298345Y234938D01*
X290347Y236842D02*
X298345Y238746D01*
X290347Y240651D02*
X298345Y238746D01*
X291870Y242250D02*
X291490Y243012D01*
X290347Y244155D01*
X298345D01*
X198907Y90502D02*
X206905D01*
X198907D02*
Y95453D01*
X202716Y90502D02*
Y93549D01*
X198907Y96367D02*
X206905D01*
X198907D02*
Y99795D01*
X199288Y100938D01*
X199669Y101319D01*
X200430Y101700D01*
X201192D01*
X201954Y101319D01*
X202335Y100938D01*
X202716Y99795D01*
Y96367D02*
Y99795D01*
X203097Y100938D01*
X203477Y101319D01*
X204239Y101700D01*
X205382D01*
X206143Y101319D01*
X206524Y100938D01*
X206905Y99795D01*
Y96367D01*
X200430Y103490D02*
X200049Y104251D01*
X198907Y105394D01*
X206905D01*
X137473Y99793D02*
X137092Y100555D01*
X136330Y101316D01*
X135569Y101697D01*
X134045D01*
X133283Y101316D01*
X132522Y100555D01*
X132141Y99793D01*
X131760Y98650D01*
Y96746D01*
X132141Y95603D01*
X132522Y94841D01*
X133283Y94080D01*
X134045Y93699D01*
X135569D01*
X136330Y94080D01*
X137092Y94841D01*
X137473Y95603D01*
X145052Y101697D02*
X141243Y93699D01*
X139720Y101697D02*
X145052D01*
X61157Y152780D02*
X69155D01*
X61157D02*
Y156208D01*
X61538Y157351D01*
X61919Y157732D01*
X62680Y158112D01*
X63442D01*
X64204Y157732D01*
X64585Y157351D01*
X64966Y156208D01*
Y152780D01*
Y155447D02*
X69155Y158112D01*
X61157Y163711D02*
X66489Y159903D01*
Y165616D01*
X61157Y163711D02*
X69155D01*
X206133Y227437D02*
Y219439D01*
Y227437D02*
X209561D01*
X210703Y227056D01*
X211084Y226675D01*
X211465Y225914D01*
Y225152D01*
X211084Y224390D01*
X210703Y224009D01*
X209561Y223628D01*
X206133D01*
X208799D02*
X211465Y219439D01*
X213255Y225914D02*
X214017Y226294D01*
X215159Y227437D01*
Y219439D01*
X206369Y213197D02*
Y205199D01*
Y213197D02*
X209797D01*
X210940Y212816D01*
X211321Y212435D01*
X211702Y211674D01*
Y210912D01*
X211321Y210150D01*
X210940Y209769D01*
X209797Y209389D01*
X206369D01*
X209035D02*
X211702Y205199D01*
X218062Y212055D02*
X217681Y212816D01*
X216539Y213197D01*
X215777D01*
X214634Y212816D01*
X213872Y211674D01*
X213491Y209769D01*
Y207865D01*
X213872Y206341D01*
X214634Y205580D01*
X215777Y205199D01*
X216158D01*
X217300Y205580D01*
X218062Y206341D01*
X218443Y207484D01*
Y207865D01*
X218062Y209008D01*
X217300Y209769D01*
X216158Y210150D01*
X215777D01*
X214634Y209769D01*
X213872Y209008D01*
X213491Y207865D01*
X24731Y42939D02*
X32729D01*
X24731D02*
Y46367D01*
X25112Y47509D01*
X25493Y47890D01*
X26254Y48271D01*
X27016D01*
X27778Y47890D01*
X28159Y47509D01*
X28540Y46367D01*
Y42939D01*
Y45605D02*
X32729Y48271D01*
X24731Y51965D02*
X25112Y50823D01*
X25873Y50442D01*
X26635D01*
X27397Y50823D01*
X27778Y51584D01*
X28159Y53108D01*
X28540Y54250D01*
X29301Y55012D01*
X30063Y55393D01*
X31206D01*
X31967Y55012D01*
X32348Y54631D01*
X32729Y53489D01*
Y51965D01*
X32348Y50823D01*
X31967Y50442D01*
X31206Y50061D01*
X30063D01*
X29301Y50442D01*
X28540Y51203D01*
X28159Y52346D01*
X27778Y53870D01*
X27397Y54631D01*
X26635Y55012D01*
X25873D01*
X25112Y54631D01*
X24731Y53489D01*
Y51965D01*
X206441Y256197D02*
Y248199D01*
Y256197D02*
X209868D01*
X211011Y255816D01*
X211392Y255435D01*
X211773Y254674D01*
Y253912D01*
X211392Y253150D01*
X211011Y252769D01*
X209868Y252388D01*
X206441D01*
X209107D02*
X211773Y248199D01*
X218895Y256197D02*
X215086Y248199D01*
X213563Y256197D02*
X218895D01*
X46157Y152971D02*
X54155D01*
X46157D02*
Y156399D01*
X46538Y157541D01*
X46919Y157922D01*
X47680Y158303D01*
X48442D01*
X49204Y157922D01*
X49585Y157541D01*
X49966Y156399D01*
Y152971D01*
Y155637D02*
X54155Y158303D01*
X46157Y164664D02*
Y160855D01*
X49585Y160474D01*
X49204Y160855D01*
X48823Y161997D01*
Y163140D01*
X49204Y164283D01*
X49966Y165044D01*
X51108Y165425D01*
X51870D01*
X53012Y165044D01*
X53774Y164283D01*
X54155Y163140D01*
Y161997D01*
X53774Y160855D01*
X53393Y160474D01*
X52632Y160093D01*
X178157Y90661D02*
X186155D01*
X178157D02*
Y94089D01*
X178538Y95232D01*
X178919Y95612D01*
X179680Y95993D01*
X180442D01*
X181204Y95612D01*
X181585Y95232D01*
X181966Y94089D01*
Y90661D01*
Y93327D02*
X186155Y95993D01*
X180823Y102735D02*
X181966Y102354D01*
X182727Y101592D01*
X183108Y100450D01*
Y100069D01*
X182727Y98926D01*
X181966Y98164D01*
X180823Y97783D01*
X180442D01*
X179300Y98164D01*
X178538Y98926D01*
X178157Y100069D01*
Y100450D01*
X178538Y101592D01*
X179300Y102354D01*
X180823Y102735D01*
X182727D01*
X184632Y102354D01*
X185774Y101592D01*
X186155Y100450D01*
Y99688D01*
X185774Y98545D01*
X185013Y98164D01*
X252407Y62935D02*
X260405Y68267D01*
X252407D02*
X260405Y62935D01*
X253930Y70057D02*
X253549Y70819D01*
X252407Y71961D01*
X260405D01*
X216529Y127447D02*
Y121734D01*
X216910Y120591D01*
X217672Y119830D01*
X218814Y119449D01*
X219576D01*
X220718Y119830D01*
X221480Y120591D01*
X221861Y121734D01*
Y127447D01*
X227879D02*
X224070Y122115D01*
X229783D01*
X227879Y127447D02*
Y119449D01*
X8231Y719560D02*
X11659D01*
X12802Y719941D01*
X13183Y720322D01*
X13563Y721083D01*
Y722226D01*
X13183Y722988D01*
X12802Y723369D01*
X11659Y723749D01*
X8231D01*
Y715751D01*
X15354Y722226D02*
X16115Y722607D01*
X17258Y723749D01*
Y715751D01*
X455647Y115689D02*
Y109976D01*
X456028Y108834D01*
X456790Y108072D01*
X457933Y107691D01*
X458694D01*
X459837Y108072D01*
X460599Y108834D01*
X460979Y109976D01*
Y115689D01*
X463189Y114166D02*
X463950Y114547D01*
X465093Y115689D01*
Y107691D01*
X484219Y398697D02*
Y392984D01*
X484600Y391842D01*
X485362Y391080D01*
X486505Y390699D01*
X487266D01*
X488409Y391080D01*
X489171Y391842D01*
X489552Y392984D01*
Y398697D01*
X492141Y396793D02*
Y397174D01*
X492522Y397935D01*
X492903Y398316D01*
X493665Y398697D01*
X495188D01*
X495950Y398316D01*
X496331Y397935D01*
X496712Y397174D01*
Y396412D01*
X496331Y395650D01*
X495569Y394508D01*
X491761Y390699D01*
X497093D01*
X344219Y398697D02*
Y392984D01*
X344600Y391842D01*
X345362Y391080D01*
X346505Y390699D01*
X347266D01*
X348409Y391080D01*
X349171Y391842D01*
X349552Y392984D01*
Y398697D01*
X352522D02*
X356712D01*
X354427Y395650D01*
X355569D01*
X356331Y395269D01*
X356712Y394888D01*
X357093Y393746D01*
Y392984D01*
X356712Y391842D01*
X355950Y391080D01*
X354808Y390699D01*
X353665D01*
X352522Y391080D01*
X352141Y391461D01*
X351761Y392222D01*
X472533Y194793D02*
X472152Y195555D01*
X471390Y196316D01*
X470628Y196697D01*
X469105D01*
X468343Y196316D01*
X467581Y195555D01*
X467200Y194793D01*
X466819Y193650D01*
Y191746D01*
X467200Y190603D01*
X467581Y189841D01*
X468343Y189080D01*
X469105Y188699D01*
X470628D01*
X471390Y189080D01*
X472152Y189841D01*
X472533Y190603D01*
X478588Y196697D02*
X474780Y191365D01*
X480493D01*
X478588Y196697D02*
Y188699D01*
X319913Y261148D02*
X319533Y261910D01*
X318771Y262672D01*
X318009Y263053D01*
X316486D01*
X315724Y262672D01*
X314962Y261910D01*
X314581Y261148D01*
X314200Y260006D01*
Y258102D01*
X314581Y256959D01*
X314962Y256197D01*
X315724Y255435D01*
X316486Y255054D01*
X318009D01*
X318771Y255435D01*
X319533Y256197D01*
X319913Y256959D01*
X327112Y260387D02*
X326731Y259244D01*
X325969Y258482D01*
X324827Y258102D01*
X324446D01*
X323303Y258482D01*
X322541Y259244D01*
X322160Y260387D01*
Y260768D01*
X322541Y261910D01*
X323303Y262672D01*
X324446Y263053D01*
X324827D01*
X325969Y262672D01*
X326731Y261910D01*
X327112Y260387D01*
Y258482D01*
X326731Y256578D01*
X325969Y255435D01*
X324827Y255054D01*
X324065D01*
X322922Y255435D01*
X322541Y256197D01*
X473061Y249765D02*
X472299Y249384D01*
X471538Y248622D01*
X471157Y247861D01*
Y246337D01*
X471538Y245575D01*
X472299Y244814D01*
X473061Y244433D01*
X474204Y244052D01*
X476108D01*
X477251Y244433D01*
X478013Y244814D01*
X478774Y245575D01*
X479155Y246337D01*
Y247861D01*
X478774Y248622D01*
X478013Y249384D01*
X477251Y249765D01*
X471157Y256583D02*
Y252774D01*
X474585Y252393D01*
X474204Y252774D01*
X473823Y253916D01*
Y255059D01*
X474204Y256202D01*
X474966Y256963D01*
X476108Y257344D01*
X476870D01*
X478013Y256963D01*
X478774Y256202D01*
X479155Y255059D01*
Y253916D01*
X478774Y252774D01*
X478393Y252393D01*
X477632Y252012D01*
X310393Y151561D02*
X309632Y151180D01*
X308870Y150418D01*
X308489Y149656D01*
Y148133D01*
X308870Y147371D01*
X309632Y146609D01*
X310393Y146229D01*
X311536Y145848D01*
X313440D01*
X314583Y146229D01*
X315345Y146609D01*
X316106Y147371D01*
X316487Y148133D01*
Y149656D01*
X316106Y150418D01*
X315345Y151180D01*
X314583Y151561D01*
X310012Y153808D02*
X309632Y154570D01*
X308489Y155712D01*
X316487D01*
X255473Y96793D02*
X255092Y97555D01*
X254330Y98316D01*
X253569Y98697D01*
X252045D01*
X251283Y98316D01*
X250522Y97555D01*
X250141Y96793D01*
X249760Y95650D01*
Y93746D01*
X250141Y92603D01*
X250522Y91841D01*
X251283Y91080D01*
X252045Y90699D01*
X253569D01*
X254330Y91080D01*
X255092Y91841D01*
X255473Y92603D01*
X258101Y96793D02*
Y97174D01*
X258482Y97935D01*
X258863Y98316D01*
X259624Y98697D01*
X261148D01*
X261910Y98316D01*
X262290Y97935D01*
X262671Y97174D01*
Y96412D01*
X262290Y95650D01*
X261529Y94508D01*
X257720Y90699D01*
X263052D01*
X310723Y109543D02*
X310342Y110305D01*
X309580Y111066D01*
X308819Y111447D01*
X307295D01*
X306533Y111066D01*
X305772Y110305D01*
X305391Y109543D01*
X305010Y108400D01*
Y106496D01*
X305391Y105353D01*
X305772Y104592D01*
X306533Y103830D01*
X307295Y103449D01*
X308819D01*
X309580Y103830D01*
X310342Y104592D01*
X310723Y105353D01*
X313732Y111447D02*
X317921D01*
X315636Y108400D01*
X316779D01*
X317540Y108019D01*
X317921Y107638D01*
X318302Y106496D01*
Y105734D01*
X317921Y104592D01*
X317160Y103830D01*
X316017Y103449D01*
X314874D01*
X313732Y103830D01*
X313351Y104211D01*
X312970Y104972D01*
X238811Y179392D02*
X238050Y179011D01*
X237288Y178249D01*
X236907Y177487D01*
Y175964D01*
X237288Y175202D01*
X238050Y174440D01*
X238811Y174060D01*
X239954Y173679D01*
X241858D01*
X243001Y174060D01*
X243763Y174440D01*
X244524Y175202D01*
X244905Y175964D01*
Y177487D01*
X244524Y178249D01*
X243763Y179011D01*
X243001Y179392D01*
X238430Y181639D02*
X238050Y182401D01*
X236907Y183543D01*
X244905D01*
X236907Y191313D02*
X242239Y187504D01*
Y193217D01*
X236907Y191313D02*
X244905D01*
X142891Y189355D02*
X142129Y188974D01*
X141368Y188212D01*
X140987Y187451D01*
Y185927D01*
X141368Y185165D01*
X142129Y184404D01*
X142891Y184023D01*
X144034Y183642D01*
X145938D01*
X147081Y184023D01*
X147843Y184404D01*
X148604Y185165D01*
X148985Y185927D01*
Y187451D01*
X148604Y188212D01*
X147843Y188974D01*
X147081Y189355D01*
X140987Y193506D02*
X141368Y192364D01*
X142129Y191983D01*
X142891D01*
X143653Y192364D01*
X144034Y193125D01*
X144415Y194649D01*
X144796Y195792D01*
X145557Y196553D01*
X146319Y196934D01*
X147462D01*
X148223Y196553D01*
X148604Y196173D01*
X148985Y195030D01*
Y193506D01*
X148604Y192364D01*
X148223Y191983D01*
X147462Y191602D01*
X146319D01*
X145557Y191983D01*
X144796Y192745D01*
X144415Y193887D01*
X144034Y195411D01*
X143653Y196173D01*
X142891Y196553D01*
X142129D01*
X141368Y196173D01*
X140987Y195030D01*
Y193506D01*
X101914Y74461D02*
Y68367D01*
X101533Y67225D01*
X101152Y66844D01*
X100390Y66463D01*
X99629D01*
X98867Y66844D01*
X98486Y67225D01*
X98105Y68367D01*
Y69129D01*
X103971Y72938D02*
X104732Y73319D01*
X105875Y74461D01*
Y66463D01*
D13*
X498776Y377438D02*
Y384938D01*
X359376Y378438D02*
Y385938D01*
X85416Y136130D02*
X92916D01*
D14*
X411120Y67262D02*
X415968Y62414D01*
X411120D02*
X415968Y67262D01*
X491120D02*
X495968Y62414D01*
X491120D02*
X495968Y67262D01*
X451120D02*
X455968Y62414D01*
X451120D02*
X455968Y67262D01*
X371120Y67262D02*
X375968Y62414D01*
X371120D02*
X375968Y67262D01*
M02*
