G04*
G04 #@! TF.GenerationSoftware,Altium Limited,Altium Designer,25.8.1 (18)*
G04*
G04 Layer_Color=16711935*
%FSLAX44Y44*%
%MOMM*%
G71*
G04*
G04 #@! TF.SameCoordinates,23F0502B-7B20-4CC9-97BB-DA64BA6573D7*
G04*
G04*
G04 #@! TF.FilePolarity,Positive*
G04*
G01*
G75*
%ADD14C,0.1000*%
%ADD62C,0.0500*%
G36*
X457870Y129970D02*
X437870D01*
Y135370D01*
X457870D01*
Y129970D01*
D02*
G37*
G36*
X229250Y135000D02*
X212250D01*
Y138500D01*
X229250D01*
Y135000D01*
D02*
G37*
G36*
X492926Y365438D02*
X486926D01*
Y383938D01*
X492926D01*
Y365438D01*
D02*
G37*
G36*
X352976Y365938D02*
X347476D01*
Y384938D01*
X352976D01*
Y365938D01*
D02*
G37*
G36*
X96916Y126880D02*
X86416D01*
Y133380D01*
X96916D01*
Y126880D01*
D02*
G37*
G36*
X267906Y245448D02*
X257406D01*
Y256948D01*
X267906D01*
Y245448D01*
D02*
G37*
G36*
X292406Y134448D02*
Y127948D01*
X281906D01*
Y134448D01*
X292406D01*
D02*
G37*
%LPC*%
G36*
X448298Y133652D02*
Y132524D01*
X448199Y132486D01*
X448105Y132440D01*
X448064Y132417D01*
X448024Y132395D01*
X447986Y132372D01*
X447953Y132349D01*
X447922Y132326D01*
X447894Y132308D01*
X447871Y132288D01*
X447851Y132273D01*
X447836Y132260D01*
X447826Y132250D01*
X447818Y132245D01*
X447816Y132242D01*
Y133652D01*
X448298D01*
X447442D01*
Y131688D01*
X447747D01*
X447760Y131721D01*
X447775Y131755D01*
X447810Y131813D01*
X447849Y131866D01*
X447889Y131915D01*
X447925Y131950D01*
X447940Y131968D01*
X447955Y131981D01*
X447968Y131991D01*
X447976Y131998D01*
X447981Y132001D01*
X447983Y132003D01*
X448047Y132049D01*
X448105Y132087D01*
X448158Y132120D01*
X448204Y132143D01*
X448242Y132161D01*
X448260Y132169D01*
X448273Y132174D01*
X448283Y132179D01*
X448290Y132181D01*
X448296Y132184D01*
X448298D01*
Y133652D01*
D02*
G37*
G36*
X221178Y137732D02*
X220322D01*
Y135768D01*
X220627D01*
X220640Y135801D01*
X220655Y135834D01*
X220690Y135893D01*
X220728Y135946D01*
X220769Y135994D01*
X220805Y136030D01*
X220820Y136048D01*
X220835Y136060D01*
X220848Y136071D01*
X220856Y136078D01*
X220861Y136081D01*
X220863Y136083D01*
X220927Y136129D01*
X220985Y136167D01*
X221038Y136200D01*
X221084Y136223D01*
X221122Y136241D01*
X221140Y136248D01*
X221153Y136253D01*
X221163Y136258D01*
X221171Y136261D01*
X221176Y136264D01*
X221178D01*
Y137732D01*
D02*
G37*
%LPD*%
G36*
Y136604D02*
X221079Y136566D01*
X220985Y136520D01*
X220944Y136497D01*
X220904Y136474D01*
X220866Y136452D01*
X220833Y136429D01*
X220802Y136406D01*
X220774Y136388D01*
X220751Y136368D01*
X220731Y136353D01*
X220716Y136340D01*
X220706Y136330D01*
X220698Y136325D01*
X220695Y136322D01*
Y137732D01*
X221178D01*
Y136604D01*
D02*
G37*
%LPC*%
G36*
X490908Y375116D02*
D01*
Y374565D01*
X490875Y374577D01*
X490842Y374593D01*
X490783Y374628D01*
X490730Y374666D01*
X490682Y374707D01*
X490646Y374743D01*
X490628Y374758D01*
X490616Y374773D01*
X490606Y374786D01*
X490598Y374793D01*
X490595Y374799D01*
X490593Y374801D01*
X490547Y374865D01*
X490509Y374923D01*
X490476Y374976D01*
X490453Y375022D01*
X490435Y375060D01*
X490428Y375078D01*
X490423Y375091D01*
X490418Y375101D01*
X490415Y375108D01*
X490412Y375113D01*
Y375116D01*
X490072D01*
X490110Y375017D01*
X490156Y374923D01*
X490179Y374882D01*
X490202Y374842D01*
X490224Y374804D01*
X490247Y374771D01*
X490270Y374740D01*
X490288Y374712D01*
X490308Y374689D01*
X490324Y374669D01*
X490336Y374654D01*
X490346Y374644D01*
X490351Y374636D01*
X490354Y374633D01*
X488944D01*
Y374260D01*
X490908D01*
Y375116D01*
D02*
G37*
G36*
X351208Y375866D02*
D01*
Y375315D01*
X351175Y375328D01*
X351142Y375343D01*
X351083Y375378D01*
X351030Y375416D01*
X350982Y375457D01*
X350946Y375493D01*
X350928Y375508D01*
X350916Y375523D01*
X350905Y375536D01*
X350898Y375544D01*
X350895Y375549D01*
X350893Y375551D01*
X350847Y375615D01*
X350809Y375673D01*
X350776Y375726D01*
X350753Y375772D01*
X350735Y375810D01*
X350728Y375828D01*
X350723Y375841D01*
X350718Y375851D01*
X350715Y375858D01*
X350713Y375863D01*
Y375866D01*
X350372D01*
X350410Y375767D01*
X350456Y375673D01*
X350479Y375632D01*
X350502Y375592D01*
X350524Y375554D01*
X350547Y375521D01*
X350570Y375490D01*
X350588Y375462D01*
X350608Y375439D01*
X350624Y375419D01*
X350636Y375404D01*
X350646Y375394D01*
X350652Y375386D01*
X350654Y375383D01*
X349244D01*
Y375010D01*
X351208D01*
Y375866D01*
D02*
G37*
G36*
X92094Y131111D02*
X91789D01*
X91777Y131078D01*
X91761Y131045D01*
X91726Y130987D01*
X91688Y130934D01*
X91647Y130885D01*
X91611Y130850D01*
X91596Y130832D01*
X91581Y130819D01*
X91568Y130809D01*
X91561Y130802D01*
X91556Y130799D01*
X91553Y130796D01*
X91489Y130751D01*
X91431Y130713D01*
X91378Y130680D01*
X91332Y130657D01*
X91294Y130639D01*
X91276Y130631D01*
X91263Y130626D01*
X91253Y130621D01*
X91246Y130619D01*
X91241Y130616D01*
X91238D01*
Y130276D01*
X91337Y130314D01*
X91431Y130360D01*
X91472Y130382D01*
X91512Y130405D01*
X91550Y130428D01*
X91583Y130451D01*
X91614Y130474D01*
X91642Y130492D01*
X91665Y130512D01*
X91685Y130527D01*
X91700Y130540D01*
X91710Y130550D01*
X91718Y130555D01*
X91721Y130558D01*
Y129148D01*
X92094D01*
Y131111D01*
D02*
G37*
G36*
X265260Y252703D02*
X260052D01*
D01*
X264081D01*
X264032Y252696D01*
X264005D01*
X263991D01*
X263956Y252689D01*
X263929Y252675D01*
X263915Y252668D01*
X263908Y252661D01*
X263894Y252640D01*
X263887Y252613D01*
Y252585D01*
X263901Y252543D01*
X263922Y252502D01*
X263935Y252474D01*
X263942Y252460D01*
X264539Y251462D01*
X260607D01*
Y252564D01*
X260600Y252578D01*
X260593Y252592D01*
X260586Y252599D01*
X260551Y252633D01*
X260538Y252640D01*
X260531Y252647D01*
X260503Y252654D01*
X260475Y252668D01*
X260448Y252675D01*
X260441D01*
X260399Y252682D01*
X260364D01*
X260337D01*
X260323D01*
X260267D01*
X260226Y252675D01*
X260198D01*
X260191D01*
X260156Y252661D01*
X260129Y252654D01*
X260115Y252640D01*
X260108D01*
X260080Y252613D01*
X260066Y252599D01*
X260052Y252557D01*
Y249839D01*
X260059Y249804D01*
X260066Y249790D01*
X260094Y249756D01*
X260101Y249742D01*
X260108D01*
X260163Y249714D01*
X260184Y249707D01*
X260191D01*
X260233Y249700D01*
X260281Y249693D01*
X260371D01*
X260406Y249700D01*
X260434Y249707D01*
X260441D01*
X260475Y249714D01*
X260510Y249721D01*
X260524Y249728D01*
X260531Y249735D01*
X260572Y249769D01*
X260579Y249776D01*
X260586Y249783D01*
X260600Y249804D01*
X260607Y249818D01*
Y250775D01*
X265142D01*
X265177Y250782D01*
X265191Y250789D01*
X265204Y250803D01*
X265218Y250817D01*
X265225Y250830D01*
Y250837D01*
X265232Y250865D01*
X265239Y250900D01*
X265246Y250928D01*
Y250941D01*
X265253Y250990D01*
X265260Y251045D01*
Y251184D01*
X265253Y251212D01*
Y251281D01*
X265246Y251295D01*
Y251302D01*
X265232Y251344D01*
X265225Y251357D01*
Y251364D01*
X265218Y251392D01*
X265211Y251399D01*
X264449Y252592D01*
X264414Y252633D01*
X264400Y252640D01*
X264393Y252647D01*
X264358Y252675D01*
X264345Y252682D01*
X264338D01*
X264317Y252689D01*
X264289Y252696D01*
X264268Y252703D01*
X265260D01*
D01*
D02*
G37*
G36*
X287584Y132180D02*
Y131052D01*
X287485Y131014D01*
X287391Y130968D01*
X287350Y130945D01*
X287310Y130922D01*
X287272Y130899D01*
X287239Y130877D01*
X287208Y130854D01*
X287180Y130836D01*
X287157Y130816D01*
X287137Y130801D01*
X287122Y130788D01*
X287112Y130778D01*
X287104Y130772D01*
X287101Y130770D01*
Y132180D01*
X286728D01*
Y130216D01*
X287584D01*
X287033D01*
X287046Y130249D01*
X287061Y130282D01*
X287096Y130341D01*
X287134Y130394D01*
X287175Y130442D01*
X287211Y130478D01*
X287226Y130496D01*
X287241Y130508D01*
X287254Y130519D01*
X287262Y130526D01*
X287267Y130529D01*
X287269Y130531D01*
X287333Y130577D01*
X287391Y130615D01*
X287444Y130648D01*
X287490Y130671D01*
X287528Y130689D01*
X287546Y130696D01*
X287559Y130701D01*
X287569Y130707D01*
X287576Y130709D01*
X287582Y130712D01*
X287584D01*
Y132180D01*
D02*
G37*
%LPD*%
D14*
X330869Y112671D02*
X450869D01*
X330869Y232671D02*
X450869D01*
X330869Y112671D02*
Y232671D01*
X450869Y112671D02*
Y232671D01*
X367776Y379438D02*
X497776D01*
X367776Y276438D02*
X497776D01*
X367776D02*
Y379438D01*
X497776Y276438D02*
Y379438D01*
X202376Y379563D02*
X358376D01*
X202376Y276313D02*
X358376D01*
X202376D02*
Y379563D01*
X358376Y276313D02*
Y379563D01*
D62*
X435911Y103260D02*
G03*
X451863Y87313I-3487J-19440D01*
G01*
X515911Y103260D02*
G03*
X531863Y87313I-3487J-19440D01*
G01*
X475911Y103260D02*
G03*
X491863Y87313I-3487J-19440D01*
G01*
X395911Y103260D02*
G03*
X411863Y87313I-3487J-19440D01*
G01*
X524506Y304200D02*
G03*
X524506Y304200I-5506J0D01*
G01*
X527500Y278800D02*
G03*
X527500Y278800I-8500J0D01*
G01*
X524350D02*
G03*
X524350Y278800I-5350J0D01*
G01*
X527500Y253400D02*
G03*
X527500Y253400I-8500J0D01*
G01*
X524350D02*
G03*
X524350Y253400I-5350J0D01*
G01*
X527500Y228000D02*
G03*
X527500Y228000I-8500J0D01*
G01*
X524350D02*
G03*
X524350Y228000I-5350J0D01*
G01*
X527500Y202600D02*
G03*
X527500Y202600I-8500J0D01*
G01*
X524350D02*
G03*
X524350Y202600I-5350J0D01*
G01*
X527500Y177200D02*
G03*
X527500Y177200I-8500J0D01*
G01*
X524350D02*
G03*
X524350Y177200I-5350J0D01*
G01*
X435911Y103260D02*
X451864Y87307D01*
X515911Y103260D02*
X531864Y87307D01*
X475911Y103260D02*
X491864Y87307D01*
X395911Y103260D02*
X411864Y87307D01*
X58490Y63196D02*
X149990D01*
X55490Y-4904D02*
X152990D01*
X58490Y-31504D02*
Y63196D01*
Y-31504D02*
X149990D01*
Y63196D01*
X531700Y164500D02*
Y316900D01*
X506300D02*
X531700D01*
X506300Y164500D02*
Y316900D01*
Y164500D02*
X531700D01*
X527500Y304200D02*
Y312700D01*
X510500D02*
X527500D01*
X510500Y295700D02*
X510500Y312700D01*
X510500Y295700D02*
X527500Y295700D01*
X527500Y304200D01*
X437870Y135370D02*
X457870D01*
X437870Y129970D02*
X457870D01*
X437870D02*
Y135370D01*
X457870Y129970D02*
Y135370D01*
X437870Y143370D02*
X457870D01*
X437870Y137970D02*
X457870D01*
X437870D02*
Y143370D01*
X457870Y137970D02*
Y143370D01*
X437870Y151370D02*
X457870D01*
X437870Y145970D02*
X457870D01*
X437870D02*
Y151370D01*
X457870Y145970D02*
Y151370D01*
X437870Y159370D02*
X457870D01*
X437870Y153970D02*
X457870D01*
X437870D02*
Y159370D01*
X457870Y153970D02*
Y159370D01*
X437870Y167370D02*
X457870D01*
X437870Y161970D02*
X457870D01*
X437870D02*
Y167370D01*
X457870Y161970D02*
Y167370D01*
X437870Y175370D02*
X457870D01*
X437870Y169970D02*
X457870D01*
X437870D02*
Y175370D01*
X457870Y169970D02*
Y175370D01*
X437870Y183370D02*
X457870D01*
X437870Y177970D02*
X457870D01*
X437870D02*
Y183370D01*
X457870Y177970D02*
Y183370D01*
X437870Y191370D02*
X457870D01*
X437870Y185970D02*
X457870D01*
X437870D02*
Y191370D01*
X457870Y185970D02*
Y191370D01*
X437870Y199370D02*
X457870D01*
X437870Y193970D02*
X457870D01*
X437870D02*
Y199370D01*
X457870Y193970D02*
Y199370D01*
X437870Y207370D02*
X457870D01*
X437870Y201970D02*
X457870D01*
X437870D02*
Y207370D01*
X457870Y201970D02*
Y207370D01*
X437870Y215370D02*
X457870D01*
X437870Y209970D02*
X457870D01*
X437870D02*
Y215370D01*
X457870Y209970D02*
Y215370D01*
X428170Y239670D02*
X433570D01*
X428170Y219670D02*
X433570D01*
X428170D02*
Y239670D01*
X433570Y219670D02*
Y239670D01*
X420170D02*
X425570D01*
X420170Y219670D02*
X425570D01*
X420170D02*
Y239670D01*
X425570Y219670D02*
Y239670D01*
X412170D02*
X417570D01*
X412170Y219670D02*
X417570D01*
X412170D02*
Y239670D01*
X417570Y219670D02*
Y239670D01*
X404170D02*
X409570D01*
X404170Y219670D02*
X409570D01*
X404170D02*
Y239670D01*
X409570Y219670D02*
Y239670D01*
X396170D02*
X401570D01*
X396170Y219670D02*
X401570D01*
X396170D02*
Y239670D01*
X401570Y219670D02*
Y239670D01*
X388170D02*
X393570D01*
X388170Y219670D02*
X393570D01*
X388170D02*
Y239670D01*
X393570Y219670D02*
Y239670D01*
X380170D02*
X385570D01*
X380170Y219670D02*
X385570D01*
X380170D02*
Y239670D01*
X385570Y219670D02*
Y239670D01*
X372170D02*
X377570D01*
X372170Y219670D02*
X377570D01*
X372170D02*
Y239670D01*
X377570Y219670D02*
Y239670D01*
X364170D02*
X369570D01*
X364170Y219670D02*
X369570D01*
X364170D02*
Y239670D01*
X369570Y219670D02*
Y239670D01*
X356170D02*
X361570D01*
X356170Y219670D02*
X361570D01*
X356170D02*
Y239670D01*
X361570Y219670D02*
Y239670D01*
X348170D02*
X353570D01*
X348170Y219670D02*
X353570D01*
X348170D02*
Y239670D01*
X353570Y219670D02*
Y239670D01*
X323870Y215370D02*
X343870D01*
X323870Y209970D02*
X343870D01*
X323870D02*
Y215370D01*
X343870Y209970D02*
Y215370D01*
X323870Y207370D02*
X343870D01*
X323870Y201970D02*
X343870D01*
X323870D02*
Y207370D01*
X343870Y201970D02*
Y207370D01*
X323870Y199370D02*
X343870D01*
X323870Y193970D02*
X343870D01*
X323870D02*
Y199370D01*
X343870Y193970D02*
Y199370D01*
X323870Y191370D02*
X343870D01*
X323870Y185970D02*
X343870D01*
X323870D02*
Y191370D01*
X343870Y185970D02*
Y191370D01*
X323870Y183370D02*
X343870D01*
X323870Y177970D02*
X343870D01*
X323870D02*
Y183370D01*
X343870Y177970D02*
Y183370D01*
X323870Y175370D02*
X343870D01*
X323870Y169970D02*
X343870D01*
X323870D02*
Y175370D01*
X343870Y169970D02*
Y175370D01*
X323870Y167370D02*
X343870D01*
X323870Y161970D02*
X343870D01*
X323870D02*
Y167370D01*
X343870Y161970D02*
Y167370D01*
X323870Y159370D02*
X343870D01*
X323870Y153970D02*
X343870D01*
X323870D02*
Y159370D01*
X343870Y153970D02*
Y159370D01*
X323870Y151370D02*
X343870D01*
X323870Y145970D02*
X343870D01*
X323870D02*
Y151370D01*
X343870Y145970D02*
Y151370D01*
X323870Y143370D02*
X343870D01*
X323870Y137970D02*
X343870D01*
X323870D02*
Y143370D01*
X343870Y137970D02*
Y143370D01*
X323870Y135370D02*
X343870D01*
X323870Y129970D02*
X343870D01*
X323870D02*
Y135370D01*
X343870Y129970D02*
Y135370D01*
X348170Y125670D02*
X353570D01*
X348170Y105670D02*
X353570D01*
X348170D02*
Y125670D01*
X353570Y105670D02*
Y125670D01*
X356170D02*
X361570D01*
X356170Y105670D02*
X361570D01*
X356170D02*
Y125670D01*
X361570Y105670D02*
Y125670D01*
X364170D02*
X369570D01*
X364170Y105670D02*
X369570D01*
X364170D02*
Y125670D01*
X369570Y105670D02*
Y125670D01*
X372170D02*
X377570D01*
X372170Y105670D02*
X377570D01*
X372170D02*
Y125670D01*
X377570Y105670D02*
Y125670D01*
X380170D02*
X385570D01*
X380170Y105670D02*
X385570D01*
X380170D02*
Y125670D01*
X385570Y105670D02*
Y125670D01*
X388170D02*
X393570D01*
X388170Y105670D02*
X393570D01*
X388170D02*
Y125670D01*
X393570Y105670D02*
Y125670D01*
X396170D02*
X401570D01*
X396170Y105670D02*
X401570D01*
X396170D02*
Y125670D01*
X401570Y105670D02*
Y125670D01*
X404170D02*
X409570D01*
X404170Y105670D02*
X409570D01*
X404170D02*
Y125670D01*
X409570Y105670D02*
Y125670D01*
X412170D02*
X417570D01*
X412170Y105670D02*
X417570D01*
X412170D02*
Y125670D01*
X417570Y105670D02*
Y125670D01*
X420170D02*
X425570D01*
X420170Y105670D02*
X425570D01*
X420170D02*
Y125670D01*
X425570Y105670D02*
Y125670D01*
X428170D02*
X433570D01*
X428170Y105670D02*
X433570D01*
X428170D02*
Y125670D01*
X433570Y105670D02*
Y125670D01*
X484976Y255038D02*
Y262238D01*
X494876Y255038D02*
Y262238D01*
X484976Y255038D02*
X494876D01*
X484976Y262238D02*
X494876D01*
X484976Y241238D02*
Y248438D01*
X494876Y241238D02*
Y248438D01*
X484976Y241238D02*
X494876D01*
X484976Y248438D02*
X494876D01*
X494027Y243636D02*
Y259837D01*
X485828Y243636D02*
Y259837D01*
Y243636D02*
X494027D01*
X485828Y259837D02*
X494027D01*
X486926Y383938D02*
X492926D01*
X486926Y365438D02*
X492926D01*
Y383938D01*
X486926Y365438D02*
Y383938D01*
X474226D02*
X480226D01*
X474226Y365438D02*
X480226D01*
Y383938D01*
X474226Y365438D02*
Y383938D01*
X461526D02*
X467526D01*
X461526Y365438D02*
X467526D01*
Y383938D01*
X461526Y365438D02*
Y383938D01*
X448826D02*
X454826D01*
X448826Y365438D02*
X454826D01*
Y383938D01*
X448826Y365438D02*
Y383938D01*
X436126D02*
X442126D01*
X436126Y365438D02*
X442126D01*
Y383938D01*
X436126Y365438D02*
Y383938D01*
X423426D02*
X429426D01*
X423426Y365438D02*
X429426D01*
Y383938D01*
X423426Y365438D02*
Y383938D01*
X410726D02*
X416726D01*
X410726Y365438D02*
X416726D01*
Y383938D01*
X410726Y365438D02*
Y383938D01*
X398026D02*
X404026D01*
X398026Y365438D02*
X404026D01*
Y383938D01*
X398026Y365438D02*
Y383938D01*
X385326D02*
X391326D01*
X385326Y365438D02*
X391326D01*
Y383938D01*
X385326Y365438D02*
Y383938D01*
X372626D02*
X378626D01*
X372626Y365438D02*
X378626D01*
Y383938D01*
X372626Y365438D02*
Y383938D01*
X486926Y290438D02*
X492926D01*
X486926Y271938D02*
X492926D01*
Y290438D01*
X486926Y271938D02*
Y290438D01*
X474226D02*
X480226D01*
X474226Y271938D02*
X480226D01*
Y290438D01*
X474226Y271938D02*
Y290438D01*
X461526D02*
X467526D01*
X461526Y271938D02*
X467526D01*
Y290438D01*
X461526Y271938D02*
Y290438D01*
X448826D02*
X454826D01*
X448826Y271938D02*
X454826D01*
Y290438D01*
X448826Y271938D02*
Y290438D01*
X436126D02*
X442126D01*
X436126Y271938D02*
X442126D01*
Y290438D01*
X436126Y271938D02*
Y290438D01*
X423426D02*
X429426D01*
X423426Y271938D02*
X429426D01*
Y290438D01*
X423426Y271938D02*
Y290438D01*
X410726D02*
X416726D01*
X410726Y271938D02*
X416726D01*
Y290438D01*
X410726Y271938D02*
Y290438D01*
X398026D02*
X404026D01*
X398026Y271938D02*
X404026D01*
Y290438D01*
X398026Y271938D02*
Y290438D01*
X385326D02*
X391326D01*
X385326Y271938D02*
X391326D01*
Y290438D01*
X385326Y271938D02*
Y290438D01*
X372626D02*
X378626D01*
X372626Y271938D02*
X378626D01*
Y290438D01*
X372626Y271938D02*
Y290438D01*
X463406Y174498D02*
X470606Y174498D01*
X463406Y184398D02*
X470606D01*
Y174498D02*
Y184398D01*
X463406Y174498D02*
Y184398D01*
X477206Y174498D02*
X484406D01*
X477206Y184398D02*
X484406Y184398D01*
Y174498D02*
Y184398D01*
X477206Y174498D02*
Y184398D01*
X465807Y183549D02*
X482008Y183549D01*
X465807Y175350D02*
X482008D01*
Y183549D01*
X465807Y183549D02*
X465807Y175350D01*
X207776Y289938D02*
X213276D01*
X207776Y270938D02*
X213276D01*
Y289938D01*
X207776Y270938D02*
Y289938D01*
X220476D02*
X225976D01*
X220476Y270938D02*
X225976D01*
Y289938D01*
X220476Y270938D02*
Y289938D01*
X233176D02*
X238676D01*
X233176Y270938D02*
X238676D01*
Y289938D01*
X233176Y270938D02*
Y289938D01*
X245876D02*
X251376D01*
X245876Y270938D02*
X251376D01*
Y289938D01*
X245876Y270938D02*
Y289938D01*
X258576D02*
X264076D01*
X258576Y270938D02*
X264076D01*
Y289938D01*
X258576Y270938D02*
Y289938D01*
X271276D02*
X276776D01*
X271276Y270938D02*
X276776D01*
Y289938D01*
X271276Y270938D02*
Y289938D01*
X283976D02*
X289476D01*
X283976Y270938D02*
X289476D01*
Y289938D01*
X283976Y270938D02*
Y289938D01*
X296676D02*
X302176D01*
X296676Y270938D02*
X302176D01*
Y289938D01*
X296676Y270938D02*
Y289938D01*
X309376D02*
X314876D01*
X309376Y270938D02*
X314876D01*
Y289938D01*
X309376Y270938D02*
Y289938D01*
X322076D02*
X327576D01*
X322076Y270938D02*
X327576D01*
Y289938D01*
X322076Y270938D02*
Y289938D01*
X334776D02*
X340276D01*
X334776Y270938D02*
X340276D01*
Y289938D01*
X334776Y270938D02*
Y289938D01*
X347476D02*
X352976D01*
X347476Y270938D02*
X352976D01*
Y289938D01*
X347476Y270938D02*
Y289938D01*
X207776Y384938D02*
X213276D01*
X207776Y365938D02*
X213276D01*
Y384938D01*
X207776Y365938D02*
Y384938D01*
X220476D02*
X225976D01*
X220476Y365938D02*
X225976D01*
Y384938D01*
X220476Y365938D02*
Y384938D01*
X233176D02*
X238676D01*
X233176Y365938D02*
X238676D01*
Y384938D01*
X233176Y365938D02*
Y384938D01*
X245876D02*
X251376D01*
X245876Y365938D02*
X251376D01*
Y384938D01*
X245876Y365938D02*
Y384938D01*
X258576D02*
X264076D01*
X258576Y365938D02*
X264076D01*
Y384938D01*
X258576Y365938D02*
Y384938D01*
X271276D02*
X276776D01*
X271276Y365938D02*
X276776D01*
Y384938D01*
X271276Y365938D02*
Y384938D01*
X283976D02*
X289476D01*
X283976Y365938D02*
X289476D01*
Y384938D01*
X283976Y365938D02*
Y384938D01*
X296676D02*
X302176D01*
X296676Y365938D02*
X302176D01*
Y384938D01*
X296676Y365938D02*
Y384938D01*
X309376D02*
X314876D01*
X309376Y365938D02*
X314876D01*
Y384938D01*
X309376Y365938D02*
Y384938D01*
X322076D02*
X327576D01*
X322076Y365938D02*
X327576D01*
Y384938D01*
X322076Y365938D02*
Y384938D01*
X334776D02*
X340276D01*
X334776Y365938D02*
X340276D01*
Y384938D01*
X334776Y365938D02*
Y384938D01*
X347476D02*
X352976D01*
X347476Y365938D02*
X352976D01*
Y384938D01*
X347476Y365938D02*
Y384938D01*
X37280Y53216D02*
X47180D01*
X38219Y41917D02*
X46239D01*
X37280Y39416D02*
Y46616D01*
X38219Y41917D02*
Y57917D01*
X37280Y39416D02*
X47180D01*
X37280Y60416D02*
X47180D01*
X37280Y53216D02*
Y60416D01*
X47180Y39416D02*
Y46616D01*
Y53216D02*
Y60416D01*
X38219Y57917D02*
X46239D01*
Y41917D02*
Y57917D01*
X37280Y46616D02*
X47180D01*
X149406Y92498D02*
X156606D01*
X149406Y102398D02*
X156606D01*
Y92498D02*
Y102398D01*
X149406Y92498D02*
Y102398D01*
X163206Y92498D02*
X170406D01*
X163206Y102398D02*
X170406D01*
Y92498D02*
Y102398D01*
X163206Y92498D02*
Y102398D01*
X151807Y101549D02*
X168008D01*
X151807Y93350D02*
X168008D01*
Y101549D01*
X151807Y93350D02*
Y101549D01*
X34466Y428720D02*
X44366D01*
X35407Y440019D02*
X43427D01*
X44366Y435320D02*
X44366Y442520D01*
X43427Y424019D02*
Y440019D01*
X34466Y442520D02*
X44366D01*
X34466Y421520D02*
X44366D01*
Y428720D01*
X34466Y435320D02*
Y442520D01*
Y421520D02*
Y428720D01*
X35407Y424019D02*
X43427Y424019D01*
X35407Y424019D02*
Y440019D01*
X34466Y435320D02*
X44366Y435320D01*
X111416Y126880D02*
X121916D01*
X111416Y133380D02*
X121916D01*
Y126880D02*
Y133380D01*
X111416Y126880D02*
Y133380D01*
Y107880D02*
X121916D01*
X111416Y114380D02*
X121916D01*
Y107880D02*
Y114380D01*
X111416Y107880D02*
Y114380D01*
X86416Y107880D02*
X96916D01*
X86416Y114380D02*
X96916D01*
Y107880D02*
Y114380D01*
X86416Y107880D02*
Y114380D01*
Y117380D02*
X96916D01*
X86416Y123880D02*
X96916D01*
Y117380D02*
Y123880D01*
X86416Y117380D02*
Y123880D01*
Y126880D02*
X96916D01*
X86416Y133380D02*
X96916D01*
Y126880D02*
Y133380D01*
X86416Y126880D02*
Y133380D01*
X90158Y135072D02*
X118157D01*
X90158Y106071D02*
X118157D01*
Y135072D01*
X90158Y106071D02*
Y135072D01*
X149156Y113248D02*
X156356D01*
X149156Y123148D02*
X156356D01*
Y113248D02*
Y123148D01*
X149156Y113248D02*
Y123148D01*
X162956Y113248D02*
X170156D01*
X162956Y123148D02*
X170156D01*
Y113248D02*
Y123148D01*
X162956Y113248D02*
Y123148D01*
X151557Y122299D02*
X167758D01*
X151557Y114100D02*
X167758D01*
Y122299D01*
X151557Y114100D02*
Y122299D01*
X57909Y448194D02*
X70609Y448194D01*
X57909Y427995D02*
X70609D01*
X57909Y448194D02*
X57909Y427995D01*
X70609D02*
Y448194D01*
X57257Y433846D02*
X71257D01*
X57257Y423346D02*
X71257D01*
Y433846D01*
X57257Y423346D02*
X57257Y433846D01*
X57257Y452846D02*
X71257D01*
X57257Y442346D02*
X71257D01*
Y452846D01*
X57257D02*
X57257Y442346D01*
X92466Y168680D02*
X102366D01*
X93405Y157381D02*
X101425D01*
X92466Y154880D02*
Y162080D01*
X93405Y157381D02*
Y173381D01*
X92466Y154880D02*
X102366D01*
X92466Y175880D02*
X102366D01*
X92466Y168680D02*
Y175880D01*
X102366Y154880D02*
Y162080D01*
Y168680D02*
Y175880D01*
X93405Y173381D02*
X101425D01*
Y157381D02*
Y173381D01*
X92466Y162080D02*
X102366D01*
X105966Y168680D02*
X115866D01*
X106905Y157381D02*
X114925D01*
X105966Y154880D02*
Y162080D01*
X106905Y157381D02*
Y173381D01*
X105966Y154880D02*
X115866D01*
X105966Y175880D02*
X115866D01*
X105966Y168680D02*
Y175880D01*
X115866Y154880D02*
Y162080D01*
Y168680D02*
Y175880D01*
X106905Y173381D02*
X114925D01*
Y157381D02*
Y173381D01*
X105966Y162080D02*
X115866D01*
X139956Y169248D02*
Y176448D01*
X149856Y169248D02*
Y176448D01*
X139956Y169248D02*
X149856D01*
X139956Y176448D02*
X149856D01*
X139956Y155448D02*
Y162648D01*
X149856Y155448D02*
Y162648D01*
X139956Y155448D02*
X149856D01*
X139956Y162648D02*
X149856D01*
X149007Y157846D02*
Y174047D01*
X140808Y157846D02*
Y174047D01*
Y157846D02*
X149007D01*
X140808Y174047D02*
X149007D01*
X219058Y81796D02*
X231757D01*
X219058Y61596D02*
X231757D01*
X219058D02*
Y81796D01*
X231757Y61596D02*
Y81796D01*
X218406Y67448D02*
X232406D01*
X218406Y56948D02*
X232406D01*
Y67448D01*
X218406Y56948D02*
Y67448D01*
Y86448D02*
X232406D01*
X218406Y75948D02*
X232406D01*
Y86448D01*
X218406Y75948D02*
Y86448D01*
X198206Y64348D02*
X208106Y64348D01*
X207157Y66946D02*
X207157Y82947D01*
X199158Y66946D02*
X199158Y82947D01*
X198206Y71548D02*
X208106Y71548D01*
X198206Y71548D02*
X198206Y64348D01*
Y78248D02*
X198206Y85448D01*
X199158Y66946D02*
X207157Y66946D01*
X208106Y85448D02*
X208106Y78248D01*
X199158Y82947D02*
X207157D01*
X198206Y78248D02*
X208106D01*
X198206Y85448D02*
X208106Y85448D01*
X208106Y64348D02*
Y71548D01*
X177456Y78248D02*
X187356D01*
X178395Y66949D02*
X186415D01*
X177456Y64448D02*
Y71648D01*
X178395Y66949D02*
Y82949D01*
X177456Y64448D02*
X187356D01*
X177456Y85448D02*
X187356D01*
X177456Y78248D02*
Y85448D01*
X187356Y64448D02*
Y71648D01*
Y78248D02*
Y85448D01*
X178395Y82949D02*
X186415D01*
Y66949D02*
Y82949D01*
X177456Y71648D02*
X187356D01*
X265176Y80238D02*
X274676D01*
X265176Y56238D02*
Y80238D01*
Y56238D02*
X284176D01*
Y80238D01*
X274676D02*
X284176D01*
X270176Y84238D02*
X295176D01*
X270176Y52238D02*
Y84238D01*
Y52238D02*
X320176D01*
Y84238D01*
X295176D02*
X320176D01*
X295176D02*
Y84238D01*
X306176Y80238D02*
X315676D01*
X306176Y56238D02*
Y80238D01*
Y56238D02*
X325176D01*
Y80238D01*
X315676D02*
X325176D01*
X280696Y99858D02*
X287896D01*
X280696Y89958D02*
X287896D01*
X280696D02*
Y99858D01*
X287896Y89958D02*
Y99858D01*
X266896D02*
X274096D01*
X266896Y89958D02*
X274096D01*
X266896D02*
Y99858D01*
X274096Y89958D02*
Y99858D01*
X269294Y90807D02*
X285495D01*
X269294Y99006D02*
X285495D01*
X269294Y90807D02*
Y99006D01*
X285495Y90807D02*
Y99006D01*
X243906Y105948D02*
X254406Y105948D01*
X243906Y119948D02*
X254406Y119948D01*
Y105948D02*
Y119948D01*
X243906Y119948D02*
X243906Y105948D01*
X262906Y105948D02*
X273406Y105948D01*
X262906Y119948D02*
X273406Y119948D01*
X273406Y105948D01*
X262906Y105948D02*
Y119948D01*
X248657Y119210D02*
X268657Y119210D01*
X248657Y106690D02*
X268657D01*
X268657Y119210D02*
X268657Y106690D01*
X248657D02*
X248657Y119210D01*
X281906Y134448D02*
X292406D01*
X281906Y127948D02*
X292406Y127948D01*
X281906Y134448D02*
X281906Y127948D01*
X292406Y127948D02*
Y134448D01*
X281906Y143948D02*
X292406D01*
X281906Y137448D02*
X292406Y137448D01*
X281906Y137448D02*
X281906Y143948D01*
X292406Y137448D02*
X292406Y143948D01*
X281906Y153448D02*
X292406Y153448D01*
X281906Y146948D02*
X292406Y146948D01*
X281906Y153448D02*
X281906Y146948D01*
X292406Y153448D02*
X292406Y146948D01*
X256906Y153448D02*
X267406D01*
X256906Y146948D02*
X267406D01*
X256906Y153448D02*
X256906Y146948D01*
X267406D02*
Y153448D01*
X256906Y143948D02*
X267406Y143948D01*
X256906Y137448D02*
X267406D01*
X256906D02*
X256906Y143948D01*
X267406Y137448D02*
X267406Y143948D01*
X256906Y134448D02*
X267406D01*
X256906Y127948D02*
X267406Y127948D01*
X256906Y127948D02*
Y134448D01*
X267406Y127948D02*
X267406Y134448D01*
X260656Y126197D02*
X288656Y126197D01*
X260655Y155197D02*
X288656D01*
X260655D02*
X260656Y126197D01*
X288656Y155197D02*
X288656Y126197D01*
X225405Y198948D02*
X225405Y132949D01*
X159405Y132949D02*
X159406Y198948D01*
X225405D01*
X159405Y132949D02*
X225405Y132949D01*
X229250Y138500D02*
X229250Y135000D01*
X212250D02*
Y138500D01*
Y135000D02*
X229250D01*
X212250Y138500D02*
X229250Y138500D01*
Y141500D02*
Y145000D01*
X212250Y141500D02*
Y145000D01*
Y141500D02*
X229250D01*
X212250Y145000D02*
X229250Y145000D01*
Y151500D02*
X229250Y148000D01*
X212250Y148000D02*
Y151500D01*
Y148000D02*
X229250Y148000D01*
X212250Y151500D02*
X229250Y151500D01*
X229250Y154500D02*
Y158000D01*
X212250Y154500D02*
X212250Y158000D01*
X212250Y154500D02*
X229250D01*
X212250Y158000D02*
X229250D01*
Y161000D02*
X229250Y164500D01*
X212250Y161000D02*
Y164500D01*
Y161000D02*
X229250D01*
X212250Y164500D02*
X229250D01*
X229250Y167500D02*
X229250Y171000D01*
X212250Y167500D02*
X212250Y171000D01*
X212250Y167500D02*
X229250Y167500D01*
X212250Y171000D02*
X229250D01*
X229250Y174000D02*
X229250Y177500D01*
X212250D02*
X212250Y174000D01*
X229250Y174000D01*
X212250Y177500D02*
X229250D01*
X229250Y180500D02*
X229250Y184000D01*
X212250Y180500D02*
X212250Y184000D01*
X212250Y180500D02*
X229250Y180500D01*
X212250Y184000D02*
X229250D01*
X229250Y187000D02*
X229250Y190500D01*
X212250Y187000D02*
Y190500D01*
Y187000D02*
X229250D01*
X212250Y190500D02*
X229250D01*
X229250Y193500D02*
Y197000D01*
X212250D02*
X212250Y193500D01*
X229250Y193500D01*
X212250Y197000D02*
X229250D01*
X172250Y193500D02*
X172250Y197000D01*
X155250Y193500D02*
X155250Y197000D01*
X155250Y193500D02*
X172250Y193500D01*
X155250Y197000D02*
X172250D01*
X172250Y187000D02*
Y190500D01*
X155250Y190500D02*
X155250Y187000D01*
X172250D01*
X155250Y190500D02*
X172250Y190500D01*
X172250Y180500D02*
X172250Y184000D01*
X155250D02*
X155250Y180500D01*
X172250Y180500D01*
X155250Y184000D02*
X172250D01*
X172250Y174000D02*
Y177500D01*
X155250Y174000D02*
Y177500D01*
Y174000D02*
X172250Y174000D01*
X155250Y177500D02*
X172250D01*
X172250Y167500D02*
Y171000D01*
X155250Y167500D02*
X155250Y171000D01*
X155250Y167500D02*
X172250D01*
X155250Y171000D02*
X172250D01*
X172250Y161000D02*
X172250Y164500D01*
X155250Y161000D02*
Y164500D01*
Y161000D02*
X172250Y161000D01*
X155250Y164500D02*
X172250Y164500D01*
X172250Y154500D02*
Y158000D01*
X155250Y154500D02*
Y158000D01*
Y154500D02*
X172250D01*
X155250Y158000D02*
X172250Y158000D01*
Y148000D02*
X172250Y151500D01*
X155250Y148000D02*
Y151500D01*
Y148000D02*
X172250D01*
X155250Y151500D02*
X172250D01*
X172250Y141500D02*
Y145000D01*
X155250Y141500D02*
X155250Y145000D01*
X155250Y141500D02*
X172250Y141500D01*
X155250Y145000D02*
X172250Y145000D01*
X172250Y135000D02*
X172250Y138500D01*
X155250Y135000D02*
X155250Y138500D01*
X155250Y135000D02*
X172250Y135000D01*
X155250Y138500D02*
X172250Y138500D01*
X245606Y147948D02*
Y155148D01*
X235706Y147948D02*
Y155148D01*
X245606D01*
X235706Y147948D02*
X245606D01*
Y161748D02*
Y168948D01*
X235706Y161748D02*
Y168948D01*
X245606D01*
X235706Y161748D02*
X245606D01*
X236555Y150349D02*
Y166550D01*
X244754Y150349D02*
Y166550D01*
X236555D02*
X244754D01*
X236555Y150349D02*
X244754D01*
X271356Y160748D02*
Y170648D01*
X282655Y161687D02*
Y169707D01*
X277956Y160748D02*
X285156D01*
X266655Y161687D02*
X282655D01*
X285156Y160748D02*
Y170648D01*
X264156Y160748D02*
Y170648D01*
Y160748D02*
X271356D01*
X277956Y170648D02*
X285156D01*
X264156D02*
X271356D01*
X266655Y161687D02*
Y169707D01*
X282655D01*
X277956Y160748D02*
Y170648D01*
X45956Y187248D02*
X55856D01*
X46895Y175949D02*
X54915D01*
X45956Y173448D02*
Y180648D01*
X46895Y175949D02*
Y191949D01*
X45956Y173448D02*
X55856D01*
X45956Y194448D02*
X55856D01*
X45956Y187248D02*
Y194448D01*
X55856Y173448D02*
Y180648D01*
Y187248D02*
Y194448D01*
X46895Y191949D02*
X54915D01*
Y175949D02*
Y191949D01*
X45956Y180648D02*
X55856D01*
X60456Y187248D02*
X70356D01*
X61395Y175949D02*
X69415D01*
X60456Y173448D02*
Y180648D01*
X61395Y175949D02*
Y191949D01*
X60456Y173448D02*
X70356D01*
X60456Y194448D02*
X70356D01*
X60456Y187248D02*
Y194448D01*
X70356Y173448D02*
Y180648D01*
Y187248D02*
Y194448D01*
X61395Y191949D02*
X69415D01*
Y175949D02*
Y191949D01*
X60456Y180648D02*
X70356D01*
X177956Y214398D02*
X185156D01*
X177956Y204498D02*
X185156D01*
X177956D02*
Y214398D01*
X185156Y204498D02*
Y214398D01*
X164156D02*
X171356D01*
X164156Y204498D02*
X171356D01*
X164156D02*
Y214398D01*
X171356Y204498D02*
Y214398D01*
X166554Y205347D02*
X182755D01*
X166554Y213546D02*
X182755D01*
X166554Y205347D02*
Y213546D01*
X182755Y205347D02*
Y213546D01*
X232106Y204498D02*
Y214398D01*
X243405Y205437D02*
Y213457D01*
X238706Y204498D02*
X245906D01*
X227405Y205437D02*
X243405D01*
X245906Y204498D02*
Y214398D01*
X224906Y204498D02*
Y214398D01*
Y204498D02*
X232106D01*
X238706Y214398D02*
X245906D01*
X224906D02*
X232106D01*
X227405Y205437D02*
Y213457D01*
X243405D01*
X238706Y204498D02*
Y214398D01*
X254860Y255948D02*
X285952D01*
X254860Y212948D02*
X254860Y255948D01*
X254860Y212948D02*
X285952D01*
X285952Y255948D01*
X267906Y251198D02*
X267906Y256948D01*
X257406Y256948D02*
X267906Y256948D01*
X257406Y245448D02*
Y256948D01*
Y245448D02*
X267906D01*
Y251198D01*
X283406D02*
Y256948D01*
X272906D02*
X283406D01*
X272906D02*
X272906Y245448D01*
X283406Y245448D01*
X283406Y251198D02*
X283406Y245448D01*
X283406Y217698D02*
X283406Y223448D01*
X272906D02*
X283406D01*
X272906Y211948D02*
X272906Y223448D01*
X272906Y211948D02*
X283406Y211948D01*
X283406Y217698D02*
X283406Y211948D01*
X267906Y223448D02*
X267906Y217698D01*
X257406Y223448D02*
X267906Y223448D01*
X257406Y223448D02*
X257406Y211948D01*
X267906D01*
X267906Y217698D01*
X238706Y218498D02*
Y228398D01*
X227407Y219439D02*
Y227459D01*
X224906Y228398D02*
X232106D01*
X227407Y227459D02*
X243407D01*
X224906Y218498D02*
Y228398D01*
X245906Y218498D02*
Y228398D01*
X238706D02*
X245906D01*
X224906Y218498D02*
X232106D01*
X238706D02*
X245906D01*
X243407Y219439D02*
Y227459D01*
X227407Y219439D02*
X243407D01*
X232106Y218498D02*
Y228398D01*
X238706Y242898D02*
X245906D01*
X238706Y232998D02*
X245906D01*
X238706D02*
Y242898D01*
X245906Y232998D02*
Y242898D01*
X224906D02*
X232106D01*
X224906Y232998D02*
X232106D01*
X224906D02*
Y242898D01*
X232106Y232998D02*
Y242898D01*
X227304Y233847D02*
X243505D01*
X227304Y242046D02*
X243505D01*
X227304Y233847D02*
Y242046D01*
X243505Y233847D02*
Y242046D01*
X463808Y164046D02*
X476507Y164046D01*
X463808Y143847D02*
X476507Y143847D01*
X463808Y164046D02*
X463808Y143847D01*
X476507Y143847D02*
X476507Y164046D01*
X463156Y149698D02*
X477156Y149698D01*
X463156Y139198D02*
X477156Y139198D01*
X477156Y149698D02*
X477156Y139198D01*
X463156Y139198D02*
X463156Y149698D01*
Y168698D02*
X477156Y168698D01*
X463156Y158198D02*
X477156Y158198D01*
X477156Y168698D01*
X463156Y168698D02*
X463156Y158198D01*
X232118Y247498D02*
Y257398D01*
X243417Y248437D02*
Y256457D01*
X238718Y247498D02*
X245918D01*
X227417Y248437D02*
X243417D01*
X245918Y247498D02*
Y257398D01*
X224918Y247498D02*
Y257398D01*
Y247498D02*
X232118D01*
X238718Y257398D02*
X245918D01*
X224918D02*
X232118D01*
X227417Y248437D02*
Y256457D01*
X243417D01*
X238718Y247498D02*
Y257398D01*
X302456Y89958D02*
X309656D01*
X302456Y99858D02*
X309656D01*
Y89958D02*
Y99858D01*
X302456Y89958D02*
Y99858D01*
X316256Y89958D02*
X323456D01*
X316256Y99858D02*
X323456D01*
Y89958D02*
Y99858D01*
X316256Y89958D02*
Y99858D01*
X304857Y99009D02*
X321058D01*
X304857Y90810D02*
X321058D01*
Y99009D01*
X304857Y90810D02*
Y99009D01*
X307706Y176248D02*
Y183448D01*
X317606Y176248D02*
Y183448D01*
X307706Y176248D02*
X317606D01*
X307706Y183448D02*
X317606D01*
X307706Y162448D02*
Y169648D01*
X317606Y162448D02*
Y169648D01*
X307706Y162448D02*
X317606D01*
X307706Y169648D02*
X317606D01*
X316757Y164846D02*
Y181047D01*
X308558Y164846D02*
Y181047D01*
Y164846D02*
X316757D01*
X308558Y181047D02*
X316757D01*
X345906Y264308D02*
X353106D01*
X345906Y254408D02*
X353106D01*
X345906D02*
Y264308D01*
X353106Y254408D02*
Y264308D01*
X332106D02*
X339306D01*
X332106Y254408D02*
X339306D01*
X332106D02*
Y264308D01*
X339306Y254408D02*
Y264308D01*
X334504Y255257D02*
X350705D01*
X334504Y263456D02*
X350705D01*
X334504Y255257D02*
Y263456D01*
X350705Y255257D02*
Y263456D01*
X264156Y175248D02*
X271356D01*
X264156Y185148D02*
X271356D01*
Y175248D02*
Y185148D01*
X264156Y175248D02*
Y185148D01*
X277956Y175248D02*
X285156D01*
X277956Y185148D02*
X285156D01*
Y175248D02*
Y185148D01*
X277956Y175248D02*
Y185148D01*
X266557Y184299D02*
X282758D01*
X266557Y176100D02*
X282758D01*
Y184299D01*
X266557Y176100D02*
Y184299D01*
X277956Y189998D02*
Y199898D01*
X266657Y190939D02*
Y198959D01*
X264156Y199898D02*
X271356D01*
X266657Y198959D02*
X282657D01*
X264156Y189998D02*
Y199898D01*
X285156Y189998D02*
Y199898D01*
X277956D02*
X285156D01*
X264156Y189998D02*
X271356D01*
X277956D02*
X285156D01*
X282657Y190939D02*
Y198959D01*
X266657Y190939D02*
X282657D01*
X271356Y189998D02*
Y199898D01*
M02*
