G04*
G04 #@! TF.GenerationSoftware,Altium Limited,Altium Designer,25.8.1 (18)*
G04*
G04 Layer_Physical_Order=1*
G04 Layer_Color=255*
%FSLAX44Y44*%
%MOMM*%
G71*
G04*
G04 #@! TF.SameCoordinates,23F0502B-7B20-4CC9-97BB-DA64BA6573D7*
G04*
G04*
G04 #@! TF.FilePolarity,Positive*
G04*
G01*
G75*
%ADD10C,0.4000*%
%ADD11C,0.2000*%
G04:AMPARAMS|DCode=15|XSize=1.05mm|YSize=0.55mm|CornerRadius=0.0688mm|HoleSize=0mm|Usage=FLASHONLY|Rotation=0.000|XOffset=0mm|YOffset=0mm|HoleType=Round|Shape=RoundedRectangle|*
%AMROUNDEDRECTD15*
21,1,1.0500,0.4125,0,0,0.0*
21,1,0.9125,0.5500,0,0,0.0*
1,1,0.1375,0.4563,-0.2063*
1,1,0.1375,-0.4563,-0.2063*
1,1,0.1375,-0.4563,0.2063*
1,1,0.1375,0.4563,0.2063*
%
%ADD15ROUNDEDRECTD15*%
G04:AMPARAMS|DCode=16|XSize=0.72mm|YSize=0.99mm|CornerRadius=0.09mm|HoleSize=0mm|Usage=FLASHONLY|Rotation=90.000|XOffset=0mm|YOffset=0mm|HoleType=Round|Shape=RoundedRectangle|*
%AMROUNDEDRECTD16*
21,1,0.7200,0.8100,0,0,90.0*
21,1,0.5400,0.9900,0,0,90.0*
1,1,0.1800,0.4050,0.2700*
1,1,0.1800,0.4050,-0.2700*
1,1,0.1800,-0.4050,-0.2700*
1,1,0.1800,-0.4050,0.2700*
%
%ADD16ROUNDEDRECTD16*%
G04:AMPARAMS|DCode=17|XSize=1.5mm|YSize=0.54mm|CornerRadius=0.0675mm|HoleSize=0mm|Usage=FLASHONLY|Rotation=270.000|XOffset=0mm|YOffset=0mm|HoleType=Round|Shape=RoundedRectangle|*
%AMROUNDEDRECTD17*
21,1,1.5000,0.4050,0,0,270.0*
21,1,1.3650,0.5400,0,0,270.0*
1,1,0.1350,-0.2025,-0.6825*
1,1,0.1350,-0.2025,0.6825*
1,1,0.1350,0.2025,0.6825*
1,1,0.1350,0.2025,-0.6825*
%
%ADD17ROUNDEDRECTD17*%
G04:AMPARAMS|DCode=18|XSize=1.5mm|YSize=0.54mm|CornerRadius=0.0675mm|HoleSize=0mm|Usage=FLASHONLY|Rotation=180.000|XOffset=0mm|YOffset=0mm|HoleType=Round|Shape=RoundedRectangle|*
%AMROUNDEDRECTD18*
21,1,1.5000,0.4050,0,0,180.0*
21,1,1.3650,0.5400,0,0,180.0*
1,1,0.1350,-0.6825,0.2025*
1,1,0.1350,0.6825,0.2025*
1,1,0.1350,0.6825,-0.2025*
1,1,0.1350,-0.6825,-0.2025*
%
%ADD18ROUNDEDRECTD18*%
G04:AMPARAMS|DCode=19|XSize=0.6mm|YSize=1.85mm|CornerRadius=0.075mm|HoleSize=0mm|Usage=FLASHONLY|Rotation=0.000|XOffset=0mm|YOffset=0mm|HoleType=Round|Shape=RoundedRectangle|*
%AMROUNDEDRECTD19*
21,1,0.6000,1.7000,0,0,0.0*
21,1,0.4500,1.8500,0,0,0.0*
1,1,0.1500,0.2250,-0.8500*
1,1,0.1500,-0.2250,-0.8500*
1,1,0.1500,-0.2250,0.8500*
1,1,0.1500,0.2250,0.8500*
%
%ADD19ROUNDEDRECTD19*%
G04:AMPARAMS|DCode=20|XSize=0.72mm|YSize=0.99mm|CornerRadius=0.09mm|HoleSize=0mm|Usage=FLASHONLY|Rotation=0.000|XOffset=0mm|YOffset=0mm|HoleType=Round|Shape=RoundedRectangle|*
%AMROUNDEDRECTD20*
21,1,0.7200,0.8100,0,0,0.0*
21,1,0.5400,0.9900,0,0,0.0*
1,1,0.1800,0.2700,-0.4050*
1,1,0.1800,-0.2700,-0.4050*
1,1,0.1800,-0.2700,0.4050*
1,1,0.1800,0.2700,0.4050*
%
%ADD20ROUNDEDRECTD20*%
G04:AMPARAMS|DCode=21|XSize=0.55mm|YSize=1.9mm|CornerRadius=0.0688mm|HoleSize=0mm|Usage=FLASHONLY|Rotation=0.000|XOffset=0mm|YOffset=0mm|HoleType=Round|Shape=RoundedRectangle|*
%AMROUNDEDRECTD21*
21,1,0.5500,1.7625,0,0,0.0*
21,1,0.4125,1.9000,0,0,0.0*
1,1,0.1375,0.2063,-0.8813*
1,1,0.1375,-0.2063,-0.8813*
1,1,0.1375,-0.2063,0.8813*
1,1,0.1375,0.2063,0.8813*
%
%ADD21ROUNDEDRECTD21*%
G04:AMPARAMS|DCode=22|XSize=1.4mm|YSize=1.05mm|CornerRadius=0.1313mm|HoleSize=0mm|Usage=FLASHONLY|Rotation=0.000|XOffset=0mm|YOffset=0mm|HoleType=Round|Shape=RoundedRectangle|*
%AMROUNDEDRECTD22*
21,1,1.4000,0.7875,0,0,0.0*
21,1,1.1375,1.0500,0,0,0.0*
1,1,0.2625,0.5688,-0.3938*
1,1,0.2625,-0.5688,-0.3938*
1,1,0.2625,-0.5688,0.3938*
1,1,0.2625,0.5688,0.3938*
%
%ADD22ROUNDEDRECTD22*%
G04:AMPARAMS|DCode=23|XSize=1.9mm|YSize=2.4mm|CornerRadius=0.0475mm|HoleSize=0mm|Usage=FLASHONLY|Rotation=0.000|XOffset=0mm|YOffset=0mm|HoleType=Round|Shape=RoundedRectangle|*
%AMROUNDEDRECTD23*
21,1,1.9000,2.3050,0,0,0.0*
21,1,1.8050,2.4000,0,0,0.0*
1,1,0.0950,0.9025,-1.1525*
1,1,0.0950,-0.9025,-1.1525*
1,1,0.0950,-0.9025,1.1525*
1,1,0.0950,0.9025,1.1525*
%
%ADD23ROUNDEDRECTD23*%
G04:AMPARAMS|DCode=24|XSize=1.4mm|YSize=1.05mm|CornerRadius=0.1313mm|HoleSize=0mm|Usage=FLASHONLY|Rotation=90.000|XOffset=0mm|YOffset=0mm|HoleType=Round|Shape=RoundedRectangle|*
%AMROUNDEDRECTD24*
21,1,1.4000,0.7875,0,0,90.0*
21,1,1.1375,1.0500,0,0,90.0*
1,1,0.2625,0.3938,0.5688*
1,1,0.2625,0.3938,-0.5688*
1,1,0.2625,-0.3938,-0.5688*
1,1,0.2625,-0.3938,0.5688*
%
%ADD24ROUNDEDRECTD24*%
G04:AMPARAMS|DCode=25|XSize=1.7mm|YSize=0.35mm|CornerRadius=0.0438mm|HoleSize=0mm|Usage=FLASHONLY|Rotation=180.000|XOffset=0mm|YOffset=0mm|HoleType=Round|Shape=RoundedRectangle|*
%AMROUNDEDRECTD25*
21,1,1.7000,0.2625,0,0,180.0*
21,1,1.6125,0.3500,0,0,180.0*
1,1,0.0875,-0.8063,0.1313*
1,1,0.0875,0.8063,0.1313*
1,1,0.0875,0.8063,-0.1313*
1,1,0.0875,-0.8063,-0.1313*
%
%ADD25ROUNDEDRECTD25*%
G04:AMPARAMS|DCode=26|XSize=1.15mm|YSize=1.05mm|CornerRadius=0.1313mm|HoleSize=0mm|Usage=FLASHONLY|Rotation=270.000|XOffset=0mm|YOffset=0mm|HoleType=Round|Shape=RoundedRectangle|*
%AMROUNDEDRECTD26*
21,1,1.1500,0.7875,0,0,270.0*
21,1,0.8875,1.0500,0,0,270.0*
1,1,0.2625,-0.3938,-0.4438*
1,1,0.2625,-0.3938,0.4438*
1,1,0.2625,0.3938,0.4438*
1,1,0.2625,0.3938,-0.4438*
%
%ADD26ROUNDEDRECTD26*%
%ADD27R,1.0500X1.1500*%
%ADD52C,0.6000*%
%ADD53C,0.6500*%
%ADD54C,1.5000*%
G04:AMPARAMS|DCode=55|XSize=0.9mm|YSize=2.4mm|CornerRadius=0.45mm|HoleSize=0mm|Usage=FLASHONLY|Rotation=0.000|XOffset=0mm|YOffset=0mm|HoleType=Round|Shape=RoundedRectangle|*
%AMROUNDEDRECTD55*
21,1,0.9000,1.5000,0,0,0.0*
21,1,0.0000,2.4000,0,0,0.0*
1,1,0.9000,0.0000,-0.7500*
1,1,0.9000,0.0000,-0.7500*
1,1,0.9000,0.0000,0.7500*
1,1,0.9000,0.0000,0.7500*
%
%ADD55ROUNDEDRECTD55*%
G04:AMPARAMS|DCode=56|XSize=0.9mm|YSize=1.7mm|CornerRadius=0.45mm|HoleSize=0mm|Usage=FLASHONLY|Rotation=0.000|XOffset=0mm|YOffset=0mm|HoleType=Round|Shape=RoundedRectangle|*
%AMROUNDEDRECTD56*
21,1,0.9000,0.8000,0,0,0.0*
21,1,0.0000,1.7000,0,0,0.0*
1,1,0.9000,0.0000,-0.4000*
1,1,0.9000,0.0000,-0.4000*
1,1,0.9000,0.0000,0.4000*
1,1,0.9000,0.0000,0.4000*
%
%ADD56ROUNDEDRECTD56*%
%ADD57O,1.5000X2.0000*%
%ADD58C,6.0000*%
G04:AMPARAMS|DCode=59|XSize=1.7mm|YSize=1.7mm|CornerRadius=0.05mm|HoleSize=0mm|Usage=FLASHONLY|Rotation=270.000|XOffset=0mm|YOffset=0mm|HoleType=Round|Shape=RoundedRectangle|*
%AMROUNDEDRECTD59*
21,1,1.7000,1.6000,0,0,270.0*
21,1,1.6000,1.7000,0,0,270.0*
1,1,0.1000,-0.8000,-0.8000*
1,1,0.1000,-0.8000,0.8000*
1,1,0.1000,0.8000,0.8000*
1,1,0.1000,0.8000,-0.8000*
%
%ADD59ROUNDEDRECTD59*%
%ADD60C,1.7000*%
%ADD61C,0.8000*%
G36*
X560747Y400153D02*
X533050D01*
Y400169D01*
X527024Y399695D01*
X521147Y398284D01*
X515563Y395970D01*
X510409Y392812D01*
X505813Y388887D01*
X501888Y384291D01*
X498730Y379137D01*
X496417Y373553D01*
X494491Y374046D01*
Y383188D01*
X494314Y384074D01*
X493813Y384825D01*
X493062Y385326D01*
X492176Y385503D01*
X487676D01*
X486790Y385326D01*
X486040Y384825D01*
X485538Y384074D01*
X485362Y383188D01*
Y366188D01*
X485538Y365302D01*
X486040Y364551D01*
X486790Y364050D01*
X487357Y363937D01*
Y349322D01*
X481422Y343387D01*
X480864Y343618D01*
X478668D01*
X476639Y342778D01*
X475086Y341225D01*
X474855Y340667D01*
X346210D01*
X340095Y346782D01*
Y364476D01*
X340450Y364546D01*
X341180Y365034D01*
X341668Y365764D01*
X341839Y366626D01*
Y384250D01*
X341668Y385112D01*
X341180Y385842D01*
X340450Y386330D01*
X339589Y386501D01*
X335464D01*
X334602Y386330D01*
X333872Y385842D01*
X333384Y385112D01*
X333213Y384250D01*
Y366626D01*
X333384Y365764D01*
X333872Y365034D01*
X334602Y364546D01*
X334957Y364476D01*
Y345718D01*
X335152Y344735D01*
X335709Y343901D01*
X343329Y336281D01*
X344163Y335724D01*
X345146Y335529D01*
X474855D01*
X475086Y334971D01*
X476639Y333418D01*
X478668Y332578D01*
X480864D01*
X482893Y333418D01*
X484446Y334971D01*
X485286Y337000D01*
Y339196D01*
X485055Y339753D01*
X491743Y346441D01*
X492300Y347275D01*
X492495Y348258D01*
X492495Y348258D01*
Y361794D01*
X492540Y361839D01*
X493370Y361760D01*
X494607Y360691D01*
X495005Y355624D01*
X496417Y349747D01*
X498730Y344163D01*
X501888Y339009D01*
X505813Y334413D01*
X510409Y330488D01*
X515563Y327330D01*
X521147Y325017D01*
X527024Y323605D01*
X533050Y323131D01*
Y323147D01*
X560747D01*
Y5353D01*
X5353D01*
Y323147D01*
X33050D01*
Y323131D01*
X39076Y323605D01*
X44953Y325017D01*
X50537Y327330D01*
X55691Y330488D01*
X60287Y334413D01*
X64212Y339009D01*
X67370Y344163D01*
X69683Y349747D01*
X71094Y355624D01*
X71569Y361650D01*
X71094Y367676D01*
X69683Y373553D01*
X67370Y379137D01*
X64212Y384291D01*
X60287Y388887D01*
X55691Y392812D01*
X50537Y395970D01*
X44953Y398284D01*
X39076Y399695D01*
X33050Y400169D01*
Y400153D01*
X5353D01*
Y571247D01*
X560747D01*
Y400153D01*
D02*
G37*
%LPC*%
G36*
X401804Y542310D02*
X399450Y542000D01*
X397255Y541091D01*
X395371Y539645D01*
X393925Y537761D01*
X393017Y535567D01*
X392706Y533212D01*
Y528212D01*
X393017Y525858D01*
X393925Y523663D01*
X395371Y521779D01*
X397255Y520333D01*
X399450Y519424D01*
X401804Y519114D01*
X404159Y519424D01*
X406353Y520333D01*
X408237Y521779D01*
X409683Y523663D01*
X410592Y525858D01*
X410902Y528212D01*
Y533212D01*
X410592Y535567D01*
X409683Y537761D01*
X408237Y539645D01*
X406353Y541091D01*
X404159Y542000D01*
X401804Y542310D01*
D02*
G37*
G36*
X380214D02*
X377860Y542000D01*
X375665Y541091D01*
X373781Y539645D01*
X372335Y537761D01*
X371427Y535567D01*
X371116Y533212D01*
Y528212D01*
X371427Y525858D01*
X372335Y523663D01*
X373781Y521779D01*
X375665Y520333D01*
X377860Y519424D01*
X380214Y519114D01*
X382569Y519424D01*
X384763Y520333D01*
X386647Y521779D01*
X388093Y523663D01*
X389002Y525858D01*
X389312Y528212D01*
Y533212D01*
X389002Y535567D01*
X388093Y537761D01*
X386647Y539645D01*
X384763Y541091D01*
X382569Y542000D01*
X380214Y542310D01*
D02*
G37*
G36*
X358624D02*
X356270Y542000D01*
X354075Y541091D01*
X352191Y539645D01*
X350745Y537761D01*
X349837Y535567D01*
X349526Y533212D01*
Y528212D01*
X349837Y525858D01*
X350745Y523663D01*
X352191Y521779D01*
X354075Y520333D01*
X356270Y519424D01*
X358624Y519114D01*
X360979Y519424D01*
X363173Y520333D01*
X365057Y521779D01*
X366503Y523663D01*
X367412Y525858D01*
X367722Y528212D01*
Y533212D01*
X367412Y535567D01*
X366503Y537761D01*
X365057Y539645D01*
X363173Y541091D01*
X360979Y542000D01*
X358624Y542310D01*
D02*
G37*
G36*
X337034D02*
X334680Y542000D01*
X332485Y541091D01*
X330601Y539645D01*
X329155Y537761D01*
X328246Y535567D01*
X327937Y533212D01*
Y528212D01*
X328246Y525858D01*
X329155Y523663D01*
X330601Y521779D01*
X332485Y520333D01*
X334680Y519424D01*
X337034Y519114D01*
X339389Y519424D01*
X341583Y520333D01*
X343467Y521779D01*
X344913Y523663D01*
X345822Y525858D01*
X346132Y528212D01*
Y533212D01*
X345822Y535567D01*
X344913Y537761D01*
X343467Y539645D01*
X341583Y541091D01*
X339389Y542000D01*
X337034Y542310D01*
D02*
G37*
G36*
X315444D02*
X313090Y542000D01*
X310895Y541091D01*
X309011Y539645D01*
X307565Y537761D01*
X306656Y535567D01*
X306346Y533212D01*
Y528212D01*
X306656Y525858D01*
X307565Y523663D01*
X309011Y521779D01*
X310895Y520333D01*
X312875Y519513D01*
Y506822D01*
X313071Y505839D01*
X313627Y505005D01*
X317502Y501130D01*
X316568Y499236D01*
X315444Y499384D01*
X313090Y499074D01*
X310895Y498165D01*
X309011Y496719D01*
X307565Y494835D01*
X306656Y492641D01*
X306346Y490286D01*
Y485286D01*
X306656Y482932D01*
X307565Y480737D01*
X309011Y478853D01*
X310895Y477407D01*
X312806Y476616D01*
Y421307D01*
X304556Y413057D01*
X270216D01*
X269233Y412862D01*
X268399Y412305D01*
X259509Y403415D01*
X258952Y402581D01*
X258757Y401598D01*
Y386400D01*
X258402Y386330D01*
X257672Y385842D01*
X257184Y385112D01*
X257013Y384250D01*
Y366626D01*
X257184Y365764D01*
X257672Y365034D01*
X258402Y364546D01*
X259264Y364375D01*
X263389D01*
X264250Y364546D01*
X264980Y365034D01*
X265468Y365764D01*
X265639Y366626D01*
Y384250D01*
X265468Y385112D01*
X264980Y385842D01*
X264250Y386330D01*
X263895Y386400D01*
Y400534D01*
X271280Y407919D01*
X305620D01*
X306603Y408114D01*
X307437Y408671D01*
X316969Y418203D01*
X317192Y418352D01*
X317749Y419186D01*
X317944Y420169D01*
Y476559D01*
X319993Y477407D01*
X321375Y478467D01*
X323033Y477874D01*
X323375Y477584D01*
Y464478D01*
X323571Y463495D01*
X323601Y463450D01*
Y400276D01*
X323009Y399685D01*
X322452Y398851D01*
X322257Y397868D01*
Y386400D01*
X321902Y386330D01*
X321172Y385842D01*
X320684Y385112D01*
X320513Y384250D01*
Y366626D01*
X320684Y365764D01*
X321172Y365034D01*
X321902Y364546D01*
X322764Y364375D01*
X326889D01*
X327750Y364546D01*
X328480Y365034D01*
X328968Y365764D01*
X329139Y366626D01*
Y384250D01*
X328968Y385112D01*
X328480Y385842D01*
X327750Y386330D01*
X327395Y386400D01*
Y396804D01*
X327764Y397172D01*
X327987Y397321D01*
X328544Y398155D01*
X328739Y399138D01*
Y464253D01*
X328544Y465236D01*
X328514Y465281D01*
Y478288D01*
X330514Y478967D01*
X330601Y478853D01*
X332485Y477407D01*
X334396Y476616D01*
Y448406D01*
X334591Y447422D01*
X335148Y446589D01*
X391554Y390183D01*
X391554Y390183D01*
X392388Y389626D01*
X393371Y389431D01*
X434960D01*
X436557Y387834D01*
Y385439D01*
X435990Y385326D01*
X435239Y384825D01*
X434738Y384074D01*
X434562Y383188D01*
Y366188D01*
X434738Y365302D01*
X435239Y364551D01*
X435990Y364050D01*
X436876Y363873D01*
X441376D01*
X442262Y364050D01*
X443013Y364551D01*
X443514Y365302D01*
X443690Y366188D01*
Y383188D01*
X443514Y384074D01*
X443013Y384825D01*
X442262Y385326D01*
X441695Y385439D01*
Y388898D01*
X441500Y389881D01*
X440943Y390715D01*
X437841Y393817D01*
X437007Y394374D01*
X436024Y394569D01*
X394435D01*
X339534Y449470D01*
Y476559D01*
X341583Y477407D01*
X343467Y478853D01*
X344913Y480737D01*
X345822Y482932D01*
X346132Y485286D01*
Y490286D01*
X345822Y492641D01*
X344913Y494835D01*
X343467Y496719D01*
X341583Y498165D01*
X339389Y499074D01*
X337034Y499384D01*
X334680Y499074D01*
X332485Y498165D01*
X330601Y496719D01*
X330438Y496506D01*
X330419Y496504D01*
X328362Y497086D01*
X328318Y497305D01*
X327761Y498139D01*
X318014Y507886D01*
Y519513D01*
X319993Y520333D01*
X321878Y521779D01*
X323323Y523663D01*
X324232Y525858D01*
X324542Y528212D01*
Y533212D01*
X324232Y535567D01*
X323323Y537761D01*
X321878Y539645D01*
X319993Y541091D01*
X317799Y542000D01*
X315444Y542310D01*
D02*
G37*
G36*
X293854Y499384D02*
X291500Y499074D01*
X289305Y498165D01*
X287421Y496719D01*
X285975Y494835D01*
X285067Y492641D01*
X284757Y490286D01*
Y485286D01*
X285067Y482932D01*
X285975Y480737D01*
X287421Y478853D01*
X289305Y477407D01*
X291500Y476498D01*
X293854Y476188D01*
X296209Y476498D01*
X298403Y477407D01*
X300287Y478853D01*
X301733Y480737D01*
X302642Y482932D01*
X302952Y485286D01*
Y490286D01*
X302642Y492641D01*
X301733Y494835D01*
X300287Y496719D01*
X298403Y498165D01*
X296209Y499074D01*
X293854Y499384D01*
D02*
G37*
G36*
X272264D02*
X269910Y499074D01*
X267715Y498165D01*
X265831Y496719D01*
X264385Y494835D01*
X263477Y492641D01*
X263167Y490286D01*
Y485286D01*
X263477Y482932D01*
X264385Y480737D01*
X265831Y478853D01*
X267715Y477407D01*
X269910Y476498D01*
X272264Y476188D01*
X274619Y476498D01*
X276813Y477407D01*
X278697Y478853D01*
X280143Y480737D01*
X281052Y482932D01*
X281362Y485286D01*
Y490286D01*
X281052Y492641D01*
X280143Y494835D01*
X278697Y496719D01*
X276813Y498165D01*
X274619Y499074D01*
X272264Y499384D01*
D02*
G37*
G36*
X250674D02*
X248320Y499074D01*
X246125Y498165D01*
X244241Y496719D01*
X242795Y494835D01*
X241887Y492641D01*
X241576Y490286D01*
Y485286D01*
X241887Y482932D01*
X242795Y480737D01*
X244241Y478853D01*
X246125Y477407D01*
X248320Y476498D01*
X250674Y476188D01*
X253029Y476498D01*
X255223Y477407D01*
X257108Y478853D01*
X258553Y480737D01*
X259462Y482932D01*
X259772Y485286D01*
Y490286D01*
X259462Y492641D01*
X258553Y494835D01*
X257108Y496719D01*
X255223Y498165D01*
X253029Y499074D01*
X250674Y499384D01*
D02*
G37*
G36*
X229084D02*
X226730Y499074D01*
X224535Y498165D01*
X222651Y496719D01*
X221205Y494835D01*
X220296Y492641D01*
X219986Y490286D01*
Y485286D01*
X220296Y482932D01*
X221205Y480737D01*
X222651Y478853D01*
X224535Y477407D01*
X226730Y476498D01*
X229084Y476188D01*
X231439Y476498D01*
X233633Y477407D01*
X235518Y478853D01*
X236963Y480737D01*
X237872Y482932D01*
X238182Y485286D01*
Y490286D01*
X237872Y492641D01*
X236963Y494835D01*
X235518Y496719D01*
X233633Y498165D01*
X231439Y499074D01*
X229084Y499384D01*
D02*
G37*
G36*
X469619Y563810D02*
X133250D01*
X131423Y563570D01*
X129720Y562864D01*
X128258Y561742D01*
X115920Y549405D01*
X114798Y547943D01*
X114093Y546240D01*
X113852Y544413D01*
Y516310D01*
X83316D01*
X83137Y517445D01*
X81434Y522685D01*
X78933Y527593D01*
X75695Y532050D01*
X71799Y535946D01*
X67342Y539184D01*
X62434Y541685D01*
X57194Y543387D01*
X51753Y544249D01*
X46244D01*
X40802Y543387D01*
X35563Y541685D01*
X30654Y539184D01*
X26197Y535946D01*
X22302Y532050D01*
X19064Y527593D01*
X16563Y522685D01*
X14860Y517445D01*
X13998Y512004D01*
Y506495D01*
X14860Y501053D01*
X16563Y495814D01*
X19064Y490905D01*
X22302Y486448D01*
X26197Y482553D01*
X30654Y479314D01*
X35563Y476813D01*
X40802Y475111D01*
X41938Y474931D01*
Y450077D01*
X39497Y447636D01*
X35366D01*
X33064Y447178D01*
X31112Y445874D01*
X29808Y443922D01*
X29350Y441620D01*
Y436220D01*
X29808Y433918D01*
X31112Y431966D01*
X32021Y431359D01*
X32077Y431295D01*
X32634Y428951D01*
X32409Y427820D01*
Y426120D01*
X39416D01*
Y425120D01*
D01*
Y426120D01*
X46423D01*
Y427820D01*
X46198Y428951D01*
X46755Y431295D01*
X46811Y431359D01*
X47719Y431966D01*
X49023Y433918D01*
X49481Y436220D01*
Y437651D01*
X51377Y439547D01*
X53868Y439333D01*
X54019Y439108D01*
X56107Y437712D01*
X56820Y437570D01*
X57080Y436481D01*
X57031Y435489D01*
X56182Y434922D01*
X55450Y433826D01*
X55192Y432534D01*
Y429596D01*
X73322D01*
Y432534D01*
X73065Y433826D01*
X72333Y434922D01*
X71484Y435489D01*
X71435Y436481D01*
X71695Y437570D01*
X72408Y437712D01*
X74496Y439108D01*
X75891Y441196D01*
X76381Y443659D01*
Y451534D01*
X75891Y453997D01*
X74496Y456085D01*
X72408Y457480D01*
X69945Y457970D01*
X58570D01*
X58059Y457868D01*
X56059Y459509D01*
Y474931D01*
X57194Y475111D01*
X62434Y476813D01*
X67342Y479314D01*
X71799Y482553D01*
X75695Y486448D01*
X78933Y490905D01*
X81434Y495814D01*
X83137Y501053D01*
X83316Y502189D01*
X142427D01*
X152012Y492604D01*
X151706Y490286D01*
Y485286D01*
X152136Y482023D01*
X153396Y478982D01*
X155399Y476371D01*
X158010Y474367D01*
X161051Y473108D01*
X164314Y472678D01*
X167577Y473108D01*
X170618Y474367D01*
X173229Y476371D01*
X175233Y478982D01*
X175910Y480617D01*
X177667Y480717D01*
X178090Y480653D01*
X179471Y478853D01*
X181355Y477407D01*
X183266Y476616D01*
Y356885D01*
X183192Y356513D01*
X183387Y355530D01*
X183944Y354696D01*
X197279Y341361D01*
X198113Y340804D01*
X199096Y340609D01*
X233386D01*
X234369Y340804D01*
X235203Y341361D01*
X250443Y356601D01*
X250443Y356601D01*
X251000Y357435D01*
X251196Y358418D01*
X251196Y358418D01*
Y364476D01*
X251550Y364546D01*
X252280Y365034D01*
X252768Y365764D01*
X252939Y366626D01*
Y384250D01*
X252768Y385112D01*
X252280Y385842D01*
X251550Y386330D01*
X250688Y386501D01*
X246564D01*
X245702Y386330D01*
X244972Y385842D01*
X244484Y385112D01*
X244313Y384250D01*
Y366626D01*
X244484Y365764D01*
X244972Y365034D01*
X245702Y364546D01*
X246057Y364476D01*
Y359482D01*
X232322Y345747D01*
X200160D01*
X188404Y357503D01*
Y476559D01*
X190453Y477407D01*
X192337Y478853D01*
X193783Y480737D01*
X194692Y482932D01*
X195002Y485286D01*
Y490286D01*
X194692Y492641D01*
X193783Y494835D01*
X192337Y496719D01*
X190453Y498165D01*
X188259Y499074D01*
X185904Y499384D01*
X183550Y499074D01*
X181355Y498165D01*
X179471Y496719D01*
X178090Y494919D01*
X177667Y494855D01*
X175910Y494955D01*
X175233Y496590D01*
X173229Y499201D01*
X170618Y501205D01*
X167577Y502464D01*
X164314Y502894D01*
X161996Y502589D01*
X150344Y514242D01*
X148882Y515364D01*
X147179Y516069D01*
X145351Y516310D01*
X127973D01*
Y541488D01*
X136174Y549690D01*
X466695D01*
X487861Y528523D01*
X487186Y527593D01*
X484685Y522685D01*
X482982Y517445D01*
X482120Y512004D01*
Y506495D01*
X482982Y501053D01*
X484685Y495814D01*
X487186Y490905D01*
X490424Y486448D01*
X494319Y482553D01*
X498776Y479314D01*
X503685Y476813D01*
X508924Y475111D01*
X514366Y474249D01*
X519875D01*
X525316Y475111D01*
X530556Y476813D01*
X535464Y479314D01*
X539921Y482553D01*
X543817Y486448D01*
X547055Y490905D01*
X549556Y495814D01*
X551259Y501053D01*
X552120Y506495D01*
Y512004D01*
X551259Y517445D01*
X549556Y522685D01*
X547055Y527593D01*
X543817Y532050D01*
X539921Y535946D01*
X535464Y539184D01*
X530556Y541685D01*
X525316Y543387D01*
X519875Y544249D01*
X514366D01*
X508924Y543387D01*
X503685Y541685D01*
X498776Y539184D01*
X497846Y538508D01*
X474612Y561742D01*
X473150Y562864D01*
X471447Y563570D01*
X469619Y563810D01*
D02*
G37*
G36*
X401804Y499384D02*
X399450Y499074D01*
X397255Y498165D01*
X395371Y496719D01*
X393925Y494835D01*
X393017Y492641D01*
X392706Y490286D01*
Y485286D01*
X393017Y482932D01*
X393925Y480737D01*
X395371Y478853D01*
X397255Y477407D01*
X399450Y476498D01*
X401804Y476188D01*
X404159Y476498D01*
X406353Y477407D01*
X408237Y478853D01*
X409683Y480737D01*
X410592Y482932D01*
X410893Y485217D01*
X459899D01*
X488734Y456382D01*
X488584Y455628D01*
X486414Y454970D01*
X469817Y471567D01*
X468983Y472124D01*
X468000Y472319D01*
X385242D01*
X382822Y474739D01*
X383013Y476682D01*
X384763Y477407D01*
X386647Y478853D01*
X388093Y480737D01*
X389002Y482932D01*
X389312Y485286D01*
Y490286D01*
X389002Y492641D01*
X388093Y494835D01*
X386647Y496719D01*
X384763Y498165D01*
X382569Y499074D01*
X380214Y499384D01*
X377860Y499074D01*
X375665Y498165D01*
X373781Y496719D01*
X372335Y494835D01*
X371427Y492641D01*
X371116Y490286D01*
Y485286D01*
X371427Y482932D01*
X372335Y480737D01*
X373781Y478853D01*
X375665Y477407D01*
X377645Y476587D01*
Y473713D01*
X377840Y472730D01*
X378397Y471896D01*
X382360Y467933D01*
X383194Y467376D01*
X383484Y467318D01*
X383287Y465319D01*
X370315D01*
X361194Y474440D01*
Y476587D01*
X363173Y477407D01*
X365057Y478853D01*
X366503Y480737D01*
X367412Y482932D01*
X367722Y485286D01*
Y490286D01*
X367412Y492641D01*
X366503Y494835D01*
X365057Y496719D01*
X363173Y498165D01*
X360979Y499074D01*
X358624Y499384D01*
X356270Y499074D01*
X354075Y498165D01*
X352191Y496719D01*
X350745Y494835D01*
X349837Y492641D01*
X349526Y490286D01*
Y485286D01*
X349837Y482932D01*
X350745Y480737D01*
X352191Y478853D01*
X354075Y477407D01*
X356055Y476587D01*
Y473376D01*
X356250Y472392D01*
X356808Y471559D01*
X367434Y460932D01*
X368268Y460375D01*
X369251Y460180D01*
X412693D01*
X413010Y458180D01*
X410951Y457511D01*
X406530Y455258D01*
X402516Y452342D01*
X399008Y448834D01*
X396092Y444820D01*
X393839Y440400D01*
X392306Y435681D01*
X391530Y430781D01*
Y425819D01*
X392306Y420919D01*
X393839Y416200D01*
X396092Y411780D01*
X399008Y407766D01*
X402516Y404258D01*
X406530Y401342D01*
X410951Y399089D01*
X415669Y397556D01*
X420569Y396780D01*
X425531D01*
X430431Y397556D01*
X435149Y399089D01*
X439570Y401342D01*
X443584Y404258D01*
X447092Y407766D01*
X450008Y411780D01*
X452261Y416200D01*
X453794Y420919D01*
X454570Y425819D01*
Y430781D01*
X453794Y435681D01*
X452261Y440400D01*
X450008Y444820D01*
X447092Y448834D01*
X443584Y452342D01*
X439570Y455258D01*
X435149Y457511D01*
X433090Y458180D01*
X433407Y460180D01*
X463627D01*
X476181Y447626D01*
Y418920D01*
X450009Y392749D01*
X449452Y391915D01*
X449257Y390932D01*
Y385439D01*
X448690Y385326D01*
X447939Y384825D01*
X447438Y384074D01*
X447262Y383188D01*
Y366188D01*
X447438Y365302D01*
X447939Y364551D01*
X448690Y364050D01*
X449576Y363873D01*
X454076D01*
X454962Y364050D01*
X455713Y364551D01*
X456214Y365302D01*
X456390Y366188D01*
Y383188D01*
X456214Y384074D01*
X455713Y384825D01*
X454962Y385326D01*
X454395Y385439D01*
Y389868D01*
X460043Y395516D01*
X461290Y395103D01*
X461957Y394601D01*
Y385439D01*
X461390Y385326D01*
X460639Y384825D01*
X460138Y384074D01*
X459962Y383188D01*
Y366188D01*
X460138Y365302D01*
X460639Y364551D01*
X461390Y364050D01*
X462276Y363873D01*
X466776D01*
X467662Y364050D01*
X468413Y364551D01*
X468914Y365302D01*
X469090Y366188D01*
Y383188D01*
X468914Y384074D01*
X468413Y384825D01*
X467662Y385326D01*
X467095Y385439D01*
Y393818D01*
X472430Y399153D01*
X472845Y399090D01*
X474657Y397946D01*
Y385439D01*
X474090Y385326D01*
X473340Y384825D01*
X472838Y384074D01*
X472662Y383188D01*
Y366188D01*
X472838Y365302D01*
X473340Y364551D01*
X474090Y364050D01*
X474976Y363873D01*
X479476D01*
X480362Y364050D01*
X481113Y364551D01*
X481614Y365302D01*
X481791Y366188D01*
Y383188D01*
X481614Y384074D01*
X481113Y384825D01*
X480362Y385326D01*
X479795Y385439D01*
Y396881D01*
X493594Y410680D01*
X493817Y410829D01*
X494374Y411662D01*
X494569Y412646D01*
Y456750D01*
X494374Y457733D01*
X493817Y458567D01*
X462781Y489603D01*
X461947Y490160D01*
X460964Y490356D01*
X410893D01*
X410592Y492641D01*
X409683Y494835D01*
X408237Y496719D01*
X406353Y498165D01*
X404159Y499074D01*
X401804Y499384D01*
D02*
G37*
G36*
X73322Y427596D02*
X65257D01*
Y421281D01*
X69945D01*
X71237Y421538D01*
X72333Y422270D01*
X73065Y423366D01*
X73322Y424659D01*
Y427596D01*
D02*
G37*
G36*
X63257D02*
X55192D01*
Y424659D01*
X55450Y423366D01*
X56182Y422270D01*
X57277Y421538D01*
X58570Y421281D01*
X63257D01*
Y427596D01*
D02*
G37*
G36*
X46423Y424120D02*
X40416D01*
Y419463D01*
X43466D01*
X44597Y419688D01*
X45557Y420329D01*
X46198Y421288D01*
X46423Y422420D01*
Y424120D01*
D02*
G37*
G36*
X38416D02*
X32409D01*
Y422420D01*
X32634Y421288D01*
X33275Y420329D01*
X34234Y419688D01*
X35366Y419463D01*
X38416D01*
Y424120D01*
D02*
G37*
G36*
X313224Y403308D02*
X311028D01*
X308999Y402468D01*
X307446Y400915D01*
X306794Y399339D01*
X304758D01*
X304106Y400915D01*
X302553Y402468D01*
X300524Y403308D01*
X298328D01*
X296299Y402468D01*
X294746Y400915D01*
X294094Y399339D01*
X292058D01*
X291406Y400915D01*
X289853Y402468D01*
X287824Y403308D01*
X285628D01*
X283599Y402468D01*
X282046Y400915D01*
X281394Y399339D01*
X279358D01*
X278706Y400915D01*
X277153Y402468D01*
X275124Y403308D01*
X272928D01*
X270899Y402468D01*
X269346Y400915D01*
X268506Y398886D01*
Y396690D01*
X269346Y394661D01*
X270899Y393108D01*
X271457Y392877D01*
Y386400D01*
X271102Y386330D01*
X270372Y385842D01*
X269884Y385112D01*
X269713Y384250D01*
Y366626D01*
X269884Y365764D01*
X270372Y365034D01*
X271102Y364546D01*
X271964Y364375D01*
X276089D01*
X276950Y364546D01*
X277680Y365034D01*
X278168Y365764D01*
X278339Y366626D01*
Y384250D01*
X278168Y385112D01*
X277680Y385842D01*
X276950Y386330D01*
X276595Y386400D01*
Y392877D01*
X277153Y393108D01*
X278706Y394661D01*
X279358Y396237D01*
X281394D01*
X282046Y394661D01*
X283599Y393108D01*
X284157Y392877D01*
Y386400D01*
X283802Y386330D01*
X283072Y385842D01*
X282584Y385112D01*
X282413Y384250D01*
Y366626D01*
X282584Y365764D01*
X283072Y365034D01*
X283802Y364546D01*
X284664Y364375D01*
X288789D01*
X289650Y364546D01*
X290380Y365034D01*
X290868Y365764D01*
X291039Y366626D01*
Y384250D01*
X290868Y385112D01*
X290380Y385842D01*
X289650Y386330D01*
X289295Y386400D01*
Y392877D01*
X289853Y393108D01*
X291406Y394661D01*
X292058Y396237D01*
X294094D01*
X294746Y394661D01*
X296299Y393108D01*
X296857Y392878D01*
Y386400D01*
X296502Y386330D01*
X295772Y385842D01*
X295284Y385112D01*
X295113Y384250D01*
Y366626D01*
X295284Y365764D01*
X295772Y365034D01*
X296502Y364546D01*
X297364Y364375D01*
X301488D01*
X302350Y364546D01*
X303080Y365034D01*
X303568Y365764D01*
X303739Y366626D01*
Y384250D01*
X303568Y385112D01*
X303080Y385842D01*
X302350Y386330D01*
X301995Y386400D01*
Y392877D01*
X302553Y393108D01*
X304106Y394661D01*
X304758Y396237D01*
X306794D01*
X307446Y394661D01*
X308999Y393108D01*
X309557Y392877D01*
Y386400D01*
X309202Y386330D01*
X308472Y385842D01*
X307984Y385112D01*
X307813Y384250D01*
Y366626D01*
X307984Y365764D01*
X308472Y365034D01*
X309202Y364546D01*
X310064Y364375D01*
X314188D01*
X315050Y364546D01*
X315780Y365034D01*
X316268Y365764D01*
X316439Y366626D01*
Y384250D01*
X316268Y385112D01*
X315780Y385842D01*
X315050Y386330D01*
X314695Y386400D01*
Y392877D01*
X315253Y393108D01*
X316806Y394661D01*
X317646Y396690D01*
Y398886D01*
X316806Y400915D01*
X315253Y402468D01*
X313224Y403308D01*
D02*
G37*
G36*
X145531Y459820D02*
X140569D01*
X135669Y459044D01*
X130950Y457511D01*
X126530Y455258D01*
X122516Y452342D01*
X119008Y448834D01*
X116092Y444820D01*
X113839Y440400D01*
X112306Y435681D01*
X111530Y430781D01*
Y425819D01*
X112306Y420919D01*
X113839Y416200D01*
X116092Y411780D01*
X119008Y407766D01*
X122516Y404258D01*
X126530Y401342D01*
X130950Y399089D01*
X135669Y397556D01*
X140569Y396780D01*
X145531D01*
X150431Y397556D01*
X155149Y399089D01*
X159570Y401342D01*
X163584Y404258D01*
X167092Y407766D01*
X170008Y411780D01*
X172261Y416200D01*
X173794Y420919D01*
X174570Y425819D01*
Y430781D01*
X173794Y435681D01*
X172261Y440400D01*
X170008Y444820D01*
X167092Y448834D01*
X163584Y452342D01*
X159570Y455258D01*
X155149Y457511D01*
X150431Y459044D01*
X145531Y459820D01*
D02*
G37*
G36*
X212589Y386991D02*
X211526D01*
Y376438D01*
X215329D01*
Y384250D01*
X215120Y385299D01*
X214526Y386188D01*
X213637Y386782D01*
X212589Y386991D01*
D02*
G37*
G36*
X209526D02*
X208464D01*
X207415Y386782D01*
X206526Y386188D01*
X205932Y385299D01*
X205723Y384250D01*
Y376438D01*
X209526D01*
Y386991D01*
D02*
G37*
G36*
X377876Y385992D02*
X376626D01*
Y375688D01*
X380680D01*
Y383188D01*
X380466Y384261D01*
X379859Y385171D01*
X378949Y385778D01*
X377876Y385992D01*
D02*
G37*
G36*
X374626D02*
X373376D01*
X372303Y385778D01*
X371393Y385171D01*
X370786Y384261D01*
X370572Y383188D01*
Y375688D01*
X374626D01*
Y385992D01*
D02*
G37*
G36*
X207494Y499384D02*
X205140Y499074D01*
X202945Y498165D01*
X201061Y496719D01*
X199615Y494835D01*
X198706Y492641D01*
X198396Y490286D01*
Y485286D01*
X198706Y482932D01*
X199615Y480737D01*
X201061Y478853D01*
X202945Y477407D01*
X204856Y476616D01*
Y421655D01*
X204782Y421283D01*
X204977Y420300D01*
X205534Y419466D01*
X233357Y391644D01*
Y386400D01*
X233002Y386330D01*
X232272Y385842D01*
X231784Y385112D01*
X231613Y384250D01*
Y366626D01*
X231784Y365764D01*
X232272Y365034D01*
X233002Y364546D01*
X233864Y364375D01*
X237988D01*
X238850Y364546D01*
X239580Y365034D01*
X240068Y365764D01*
X240239Y366626D01*
Y384250D01*
X240068Y385112D01*
X239580Y385842D01*
X238850Y386330D01*
X238496Y386400D01*
Y392708D01*
X238496Y392708D01*
X238300Y393691D01*
X237743Y394525D01*
X209994Y422273D01*
Y476559D01*
X212043Y477407D01*
X213927Y478853D01*
X215373Y480737D01*
X216282Y482932D01*
X216592Y485286D01*
Y490286D01*
X216282Y492641D01*
X215373Y494835D01*
X213927Y496719D01*
X212043Y498165D01*
X209849Y499074D01*
X207494Y499384D01*
D02*
G37*
G36*
X225289Y386501D02*
X221164D01*
X220302Y386330D01*
X219572Y385842D01*
X219084Y385112D01*
X218913Y384250D01*
Y366626D01*
X219084Y365764D01*
X219572Y365034D01*
X220302Y364546D01*
X221164Y364375D01*
X225289D01*
X226150Y364546D01*
X226880Y365034D01*
X227368Y365764D01*
X227539Y366626D01*
Y384250D01*
X227368Y385112D01*
X226880Y385842D01*
X226150Y386330D01*
X225289Y386501D01*
D02*
G37*
G36*
X215329Y374438D02*
X211526D01*
Y363885D01*
X212589D01*
X213637Y364094D01*
X214526Y364688D01*
X215120Y365577D01*
X215329Y366626D01*
Y374438D01*
D02*
G37*
G36*
X209526D02*
X205723D01*
Y366626D01*
X205932Y365577D01*
X206526Y364688D01*
X207415Y364094D01*
X208464Y363885D01*
X209526D01*
Y374438D01*
D02*
G37*
G36*
X380680Y373688D02*
X376626D01*
Y363384D01*
X377876D01*
X378949Y363598D01*
X379859Y364205D01*
X380466Y365115D01*
X380680Y366188D01*
Y373688D01*
D02*
G37*
G36*
X374626D02*
X370572D01*
Y366188D01*
X370786Y365115D01*
X371393Y364205D01*
X372303Y363598D01*
X373376Y363384D01*
X374626D01*
Y373688D01*
D02*
G37*
G36*
X428676Y385503D02*
X424176D01*
X423290Y385326D01*
X422539Y384825D01*
X422038Y384074D01*
X421862Y383188D01*
Y366188D01*
X422038Y365302D01*
X422539Y364551D01*
X423290Y364050D01*
X423857Y363937D01*
Y358248D01*
X423299Y358018D01*
X421746Y356465D01*
X421094Y354889D01*
X419058D01*
X418406Y356465D01*
X416853Y358018D01*
X416295Y358249D01*
Y363937D01*
X416862Y364050D01*
X417613Y364551D01*
X418114Y365302D01*
X418290Y366188D01*
Y383188D01*
X418114Y384074D01*
X417613Y384825D01*
X416862Y385326D01*
X415976Y385503D01*
X411476D01*
X410590Y385326D01*
X409840Y384825D01*
X409338Y384074D01*
X409162Y383188D01*
Y366188D01*
X409338Y365302D01*
X409840Y364551D01*
X410590Y364050D01*
X411157Y363937D01*
Y358248D01*
X410599Y358018D01*
X409046Y356465D01*
X408394Y354889D01*
X406358Y354889D01*
X405706Y356465D01*
X404153Y358018D01*
X403595Y358249D01*
Y363937D01*
X404162Y364050D01*
X404913Y364551D01*
X405414Y365302D01*
X405591Y366188D01*
Y383188D01*
X405414Y384074D01*
X404913Y384825D01*
X404162Y385326D01*
X403276Y385503D01*
X398776D01*
X397890Y385326D01*
X397140Y384825D01*
X396638Y384074D01*
X396462Y383188D01*
Y366188D01*
X396638Y365302D01*
X397140Y364551D01*
X397890Y364050D01*
X398457Y363937D01*
Y358249D01*
X397899Y358018D01*
X396346Y356465D01*
X395694Y354889D01*
X393658Y354889D01*
X393006Y356465D01*
X391453Y358018D01*
X390895Y358249D01*
Y363937D01*
X391462Y364050D01*
X392213Y364551D01*
X392714Y365302D01*
X392891Y366188D01*
Y383188D01*
X392714Y384074D01*
X392213Y384825D01*
X391462Y385326D01*
X390576Y385503D01*
X386076D01*
X385190Y385326D01*
X384440Y384825D01*
X383938Y384074D01*
X383762Y383188D01*
Y366188D01*
X383938Y365302D01*
X384440Y364551D01*
X385190Y364050D01*
X385757Y363937D01*
Y358248D01*
X385199Y358018D01*
X383646Y356465D01*
X382806Y354436D01*
Y352240D01*
X383646Y350211D01*
X385199Y348658D01*
X387228Y347818D01*
X389424D01*
X391453Y348658D01*
X393006Y350211D01*
X393658Y351787D01*
X395694Y351787D01*
X396346Y350211D01*
X397899Y348658D01*
X399928Y347818D01*
X402124D01*
X404153Y348658D01*
X405706Y350211D01*
X406358Y351787D01*
X408394Y351787D01*
X409046Y350211D01*
X410599Y348658D01*
X412628Y347818D01*
X414824D01*
X416853Y348658D01*
X418406Y350211D01*
X419058Y351787D01*
X421094D01*
X421746Y350211D01*
X423299Y348658D01*
X425328Y347818D01*
X427524D01*
X429553Y348658D01*
X431106Y350211D01*
X431946Y352240D01*
Y354436D01*
X431106Y356465D01*
X429553Y358018D01*
X428995Y358249D01*
Y363937D01*
X429562Y364050D01*
X430313Y364551D01*
X430814Y365302D01*
X430990Y366188D01*
Y383188D01*
X430814Y384074D01*
X430313Y384825D01*
X429562Y385326D01*
X428676Y385503D01*
D02*
G37*
G36*
X352289Y386501D02*
X348164D01*
X347302Y386330D01*
X346572Y385842D01*
X346084Y385112D01*
X345913Y384250D01*
Y366626D01*
X346084Y365764D01*
X346572Y365034D01*
X347302Y364546D01*
X347657Y364476D01*
Y356979D01*
X347099Y356748D01*
X345546Y355195D01*
X344706Y353166D01*
Y350970D01*
X345546Y348941D01*
X347099Y347388D01*
X349128Y346548D01*
X351324D01*
X353353Y347388D01*
X354906Y348941D01*
X355746Y350970D01*
Y353166D01*
X354906Y355195D01*
X353353Y356748D01*
X352795Y356979D01*
Y364476D01*
X353150Y364546D01*
X353880Y365034D01*
X354368Y365764D01*
X354539Y366626D01*
Y384250D01*
X354368Y385112D01*
X353880Y385842D01*
X353150Y386330D01*
X352289Y386501D01*
D02*
G37*
G36*
X325754Y304218D02*
X323558D01*
X321529Y303378D01*
X319976Y301825D01*
X319488Y300647D01*
X317324D01*
X316836Y301825D01*
X315283Y303378D01*
X313254Y304218D01*
X311058D01*
X309029Y303378D01*
X307476Y301825D01*
X306636Y299796D01*
X304676D01*
X303836Y301825D01*
X302283Y303378D01*
X300254Y304218D01*
X298058D01*
X296029Y303378D01*
X294476Y301825D01*
X293636Y299796D01*
Y297600D01*
X294476Y295571D01*
X296029Y294018D01*
X296722Y293731D01*
Y291374D01*
X296502Y291330D01*
X295772Y290842D01*
X295284Y290112D01*
X295113Y289251D01*
Y271625D01*
X295284Y270764D01*
X295772Y270034D01*
X296502Y269546D01*
X297364Y269375D01*
X301488D01*
X302350Y269546D01*
X303080Y270034D01*
X303568Y270764D01*
X303739Y271625D01*
Y289251D01*
X303568Y290112D01*
X303080Y290842D01*
X302350Y291330D01*
X301860Y291427D01*
Y293843D01*
X302283Y294018D01*
X303836Y295571D01*
X304676Y297600D01*
X306636D01*
X307476Y295571D01*
X309029Y294018D01*
X309572Y293794D01*
Y291403D01*
X309202Y291330D01*
X308472Y290842D01*
X307984Y290112D01*
X307813Y289251D01*
Y271625D01*
X307984Y270764D01*
X308472Y270034D01*
X309202Y269546D01*
X310064Y269375D01*
X314188D01*
X315050Y269546D01*
X315780Y270034D01*
X316268Y270764D01*
X316439Y271625D01*
Y289251D01*
X316268Y290112D01*
X315780Y290842D01*
X315050Y291330D01*
X314710Y291397D01*
Y293781D01*
X315283Y294018D01*
X316836Y295571D01*
X317324Y296749D01*
X319488D01*
X319976Y295571D01*
X321529Y294018D01*
X322172Y293752D01*
Y291383D01*
X321902Y291330D01*
X321172Y290842D01*
X320684Y290112D01*
X320513Y289251D01*
Y271625D01*
X320684Y270764D01*
X321172Y270034D01*
X321902Y269546D01*
X322764Y269375D01*
X326889D01*
X327750Y269546D01*
X328480Y270034D01*
X328968Y270764D01*
X329139Y271625D01*
Y289251D01*
X328968Y290112D01*
X328480Y290842D01*
X327750Y291330D01*
X327310Y291417D01*
Y293823D01*
X327783Y294018D01*
X329336Y295571D01*
X330176Y297600D01*
Y299796D01*
X329336Y301825D01*
X327783Y303378D01*
X325754Y304218D01*
D02*
G37*
G36*
X329004Y339718D02*
X326808D01*
X324779Y338878D01*
X323226Y337325D01*
X322386Y335296D01*
Y333100D01*
X323226Y331071D01*
X324779Y329518D01*
X326808Y328678D01*
X329004D01*
X329562Y328909D01*
X337839Y320631D01*
X338673Y320074D01*
X339656Y319879D01*
X373311D01*
X373709Y317879D01*
X372499Y317378D01*
X370946Y315825D01*
X370106Y313796D01*
Y311600D01*
X370946Y309571D01*
X372499Y308018D01*
X373057Y307787D01*
Y291939D01*
X372490Y291826D01*
X371740Y291325D01*
X371238Y290574D01*
X371062Y289688D01*
Y272688D01*
X371238Y271802D01*
X371740Y271051D01*
X372490Y270550D01*
X373376Y270373D01*
X377876D01*
X378762Y270550D01*
X379513Y271051D01*
X380014Y271802D01*
X380191Y272688D01*
Y289688D01*
X380014Y290574D01*
X379513Y291325D01*
X378762Y291826D01*
X378195Y291939D01*
Y307787D01*
X378753Y308018D01*
X380306Y309571D01*
X381146Y311600D01*
Y313796D01*
X380306Y315825D01*
X378753Y317378D01*
X377543Y317879D01*
X377941Y319879D01*
X499688D01*
X508941Y310626D01*
Y300235D01*
X507093Y299470D01*
X501528Y305035D01*
X500694Y305592D01*
X499711Y305787D01*
X398106D01*
X397123Y305592D01*
X396289Y305035D01*
X386509Y295255D01*
X385952Y294421D01*
X385757Y293438D01*
Y291939D01*
X385190Y291826D01*
X384440Y291325D01*
X383938Y290574D01*
X383762Y289688D01*
Y272688D01*
X383938Y271802D01*
X384440Y271051D01*
X385190Y270550D01*
X385757Y270437D01*
Y269528D01*
X385952Y268545D01*
X386509Y267711D01*
X388301Y265920D01*
Y239673D01*
X386870Y238813D01*
X385439Y239673D01*
Y240508D01*
X385244Y241491D01*
X384687Y242325D01*
X384687Y242325D01*
X378497Y248515D01*
X377663Y249072D01*
X376680Y249267D01*
X347718D01*
X346735Y249072D01*
X345901Y248515D01*
X338404Y241017D01*
X319970D01*
X316195Y244793D01*
X316426Y245350D01*
Y247546D01*
X315586Y249575D01*
X314033Y251128D01*
X312004Y251968D01*
X309808D01*
X307779Y251128D01*
X306226Y249575D01*
X305386Y247546D01*
Y245350D01*
X306226Y243321D01*
X307779Y241768D01*
X309808Y240928D01*
X312004D01*
X312561Y241159D01*
X317089Y236631D01*
X317923Y236074D01*
X318906Y235879D01*
X339468D01*
X340451Y236074D01*
X341285Y236631D01*
X348782Y244129D01*
X375616D01*
X378123Y241622D01*
X378331Y240188D01*
X377938Y238978D01*
X377296Y238653D01*
X376895Y238733D01*
X372845D01*
X371989Y238563D01*
X370870Y238204D01*
X369752Y238563D01*
X368895Y238733D01*
X364845D01*
X363989Y238563D01*
X362870Y238204D01*
X361752Y238563D01*
X360895Y238733D01*
X356845D01*
X355989Y238563D01*
X354870Y238204D01*
X353751Y238563D01*
X352895Y238733D01*
X348845D01*
X347989Y238563D01*
X347263Y238078D01*
X346777Y237352D01*
X346607Y236495D01*
Y222845D01*
X346777Y221989D01*
X347263Y221263D01*
X347989Y220777D01*
X348301Y220716D01*
Y216354D01*
X348496Y215371D01*
X349053Y214537D01*
X361530Y202060D01*
X360872Y199890D01*
X360134Y199744D01*
X353352Y206526D01*
X352518Y207083D01*
X351535Y207278D01*
X343207D01*
X342278Y208987D01*
Y209063D01*
X342763Y209789D01*
X342933Y210645D01*
Y214695D01*
X342763Y215552D01*
X342278Y216278D01*
X341552Y216763D01*
X340695Y216933D01*
X327045D01*
X326189Y216763D01*
X325463Y216278D01*
X324977Y215552D01*
X324915Y215240D01*
X315998D01*
X296915Y234322D01*
Y257258D01*
X296720Y258241D01*
X296163Y259075D01*
X289295Y265942D01*
Y269476D01*
X289650Y269546D01*
X290380Y270034D01*
X290868Y270764D01*
X291039Y271625D01*
Y289251D01*
X290868Y290112D01*
X290380Y290842D01*
X289650Y291330D01*
X288789Y291501D01*
X284664D01*
X283802Y291330D01*
X283072Y290842D01*
X282584Y290112D01*
X282413Y289251D01*
Y271625D01*
X282584Y270764D01*
X283072Y270034D01*
X283802Y269546D01*
X284157Y269476D01*
Y264878D01*
X284352Y263895D01*
X284909Y263061D01*
X291777Y256194D01*
Y233258D01*
X291972Y232275D01*
X292529Y231441D01*
X313117Y210853D01*
X313951Y210296D01*
X314934Y210101D01*
X324591D01*
X325463Y208719D01*
Y208278D01*
X324977Y207552D01*
X324807Y206695D01*
Y202645D01*
X324977Y201789D01*
X325337Y200670D01*
X324977Y199552D01*
X324807Y198695D01*
Y196333D01*
X322926Y196046D01*
X322086Y198075D01*
X320533Y199628D01*
X318504Y200468D01*
X316308D01*
X314279Y199628D01*
X312726Y198075D01*
X311886Y196046D01*
Y193850D01*
X312410Y192586D01*
X311139Y191315D01*
X310582Y190482D01*
X310387Y189499D01*
Y185016D01*
X308606D01*
X307662Y184828D01*
X306861Y184293D01*
X306326Y183492D01*
X306139Y182548D01*
Y177148D01*
X306326Y176204D01*
X306861Y175403D01*
X307662Y174868D01*
X308606Y174681D01*
X315656D01*
X316579Y173591D01*
X315609Y171705D01*
X313656D01*
Y166048D01*
X312656D01*
Y165048D01*
X305649D01*
Y163348D01*
X305874Y162216D01*
X306515Y161257D01*
X307474Y160616D01*
X307735Y160565D01*
X308481Y158482D01*
X302801Y152803D01*
X301696Y151149D01*
X301308Y149198D01*
Y129810D01*
X276187Y104688D01*
X274633Y105963D01*
X274762Y106155D01*
X274981Y107261D01*
Y118059D01*
X276473Y119550D01*
X277030Y120384D01*
X277225Y121367D01*
Y126287D01*
X277783Y126518D01*
X277854Y126589D01*
X287156D01*
X288640Y126885D01*
X291719D01*
X292580Y127056D01*
X293310Y127544D01*
X293798Y128274D01*
X293969Y129136D01*
Y133260D01*
X293798Y134122D01*
X293324Y134831D01*
X293310Y134864D01*
Y137032D01*
X293324Y137065D01*
X293798Y137774D01*
X293969Y138636D01*
Y142760D01*
X293798Y143622D01*
X293330Y144321D01*
X293310Y144369D01*
X293310Y146527D01*
X293331Y146574D01*
X293798Y147274D01*
X293969Y148135D01*
Y152261D01*
X293798Y153122D01*
X293310Y153852D01*
X292580Y154340D01*
X291719Y154511D01*
X289725D01*
Y158748D01*
X289530Y159731D01*
X288973Y160565D01*
X286723Y162814D01*
Y169748D01*
X286536Y170692D01*
X286001Y171493D01*
X285429Y171875D01*
X285306Y172948D01*
X285429Y174021D01*
X286001Y174403D01*
X286536Y175204D01*
X286723Y176148D01*
Y184248D01*
X286536Y185192D01*
X286001Y185993D01*
X285200Y186528D01*
X285071Y186553D01*
Y188593D01*
X285200Y188618D01*
X286001Y189153D01*
X286536Y189954D01*
X286723Y190898D01*
Y198998D01*
X286536Y199942D01*
X286001Y200743D01*
X285200Y201278D01*
X284256Y201465D01*
X278856D01*
X277912Y201278D01*
X277111Y200743D01*
X276576Y199942D01*
X276389Y198998D01*
Y190898D01*
X276576Y189954D01*
X277111Y189153D01*
X277912Y188618D01*
X278041Y188593D01*
Y186553D01*
X277912Y186528D01*
X277111Y185993D01*
X276576Y185192D01*
X276389Y184248D01*
Y176148D01*
X276576Y175204D01*
X277111Y174403D01*
X277683Y174021D01*
X277806Y172948D01*
X277683Y171875D01*
X277111Y171493D01*
X276576Y170692D01*
X276389Y169748D01*
Y161648D01*
X276576Y160704D01*
X277111Y159903D01*
X277912Y159368D01*
X278856Y159181D01*
X283090D01*
X284587Y157684D01*
Y154511D01*
X282594D01*
X281732Y154340D01*
X281002Y153852D01*
X280514Y153122D01*
X280343Y152261D01*
Y148135D01*
X280514Y147274D01*
X280982Y146574D01*
X281002Y146527D01*
X281002Y146286D01*
X279020Y144377D01*
X278781Y144380D01*
X277783Y145378D01*
X275754Y146218D01*
X273558D01*
X271529Y145378D01*
X270531Y144380D01*
X270292Y144377D01*
X268310Y146286D01*
Y146532D01*
X268324Y146565D01*
X268798Y147274D01*
X268969Y148135D01*
Y152261D01*
X268798Y153122D01*
X268310Y153852D01*
X267580Y154340D01*
X266719Y154511D01*
X264725D01*
Y157684D01*
X266222Y159181D01*
X270456D01*
X271400Y159368D01*
X272201Y159903D01*
X272736Y160704D01*
X272924Y161648D01*
Y169748D01*
X272736Y170692D01*
X272201Y171493D01*
X271629Y171875D01*
X271506Y172948D01*
X271629Y174021D01*
X272201Y174403D01*
X272736Y175204D01*
X272924Y176148D01*
Y184248D01*
X272736Y185192D01*
X272201Y185993D01*
X271400Y186528D01*
X271271Y186553D01*
Y188593D01*
X271400Y188618D01*
X272201Y189153D01*
X272736Y189954D01*
X272924Y190898D01*
Y198998D01*
X272736Y199942D01*
X272201Y200743D01*
X272132Y200789D01*
X271398Y202039D01*
X271395Y203318D01*
X271926Y204600D01*
Y206796D01*
X271086Y208825D01*
X269533Y210378D01*
X269471Y210782D01*
X269845Y211258D01*
X272176Y211218D01*
X273113Y210592D01*
X274219Y210373D01*
X282094D01*
X283199Y210592D01*
X284136Y211218D01*
X284762Y212155D01*
X284981Y213260D01*
Y222136D01*
X284762Y223241D01*
X284136Y224178D01*
X283199Y224804D01*
X282094Y225024D01*
X274219D01*
X273113Y224804D01*
X272176Y224178D01*
X271550Y223241D01*
X271426Y222614D01*
X269387D01*
X269262Y223241D01*
X268636Y224178D01*
X267699Y224804D01*
X266594Y225024D01*
X265226D01*
Y229538D01*
X265783Y229768D01*
X267336Y231321D01*
X268176Y233350D01*
Y235546D01*
X267336Y237575D01*
X265783Y239128D01*
X263754Y239968D01*
X261558D01*
X259529Y239128D01*
X257976Y237575D01*
X257835Y237233D01*
X255898Y237044D01*
X253176Y239765D01*
X252343Y240322D01*
X251360Y240517D01*
X247474D01*
Y241998D01*
X247286Y242942D01*
X246751Y243743D01*
X246182Y244123D01*
X246062Y245212D01*
X246188Y246269D01*
X246762Y246653D01*
X247297Y247454D01*
X247485Y248398D01*
Y256498D01*
X247297Y257442D01*
X246954Y258663D01*
X247602Y260087D01*
X248336Y260821D01*
X249176Y262850D01*
Y265046D01*
X248336Y267075D01*
X248036Y267375D01*
X248864Y269375D01*
X250688D01*
X251550Y269546D01*
X252280Y270034D01*
X252768Y270764D01*
X252939Y271625D01*
Y289251D01*
X252768Y290112D01*
X252280Y290842D01*
X251550Y291330D01*
X251210Y291397D01*
Y293781D01*
X251783Y294018D01*
X253336Y295571D01*
X253824Y296749D01*
X255988D01*
X256476Y295571D01*
X258029Y294018D01*
X258672Y293752D01*
Y291383D01*
X258402Y291330D01*
X257672Y290842D01*
X257184Y290112D01*
X257013Y289251D01*
Y271625D01*
X257184Y270764D01*
X257672Y270034D01*
X258402Y269546D01*
X259264Y269375D01*
X263389D01*
X264250Y269546D01*
X264980Y270034D01*
X265468Y270764D01*
X265639Y271625D01*
Y289251D01*
X265468Y290112D01*
X264980Y290842D01*
X264250Y291330D01*
X263810Y291417D01*
Y293823D01*
X264283Y294018D01*
X265836Y295571D01*
X266324Y296749D01*
X268488D01*
X268976Y295571D01*
X270529Y294018D01*
X271272Y293711D01*
Y291364D01*
X271102Y291330D01*
X270372Y290842D01*
X269884Y290112D01*
X269713Y289251D01*
Y271625D01*
X269884Y270764D01*
X270372Y270034D01*
X271102Y269546D01*
X271964Y269375D01*
X276089D01*
X276950Y269546D01*
X277680Y270034D01*
X278168Y270764D01*
X278339Y271625D01*
Y289251D01*
X278168Y290112D01*
X277680Y290842D01*
X276950Y291330D01*
X276410Y291437D01*
Y293864D01*
X276783Y294018D01*
X278336Y295571D01*
X279176Y297600D01*
Y299796D01*
X278336Y301825D01*
X276783Y303378D01*
X274754Y304218D01*
X272558D01*
X270529Y303378D01*
X268976Y301825D01*
X268488Y300647D01*
X266324D01*
X265836Y301825D01*
X264283Y303378D01*
X262254Y304218D01*
X260058D01*
X258029Y303378D01*
X256476Y301825D01*
X255988Y300647D01*
X253824D01*
X253336Y301825D01*
X251783Y303378D01*
X249754Y304218D01*
X247558D01*
X245529Y303378D01*
X243976Y301825D01*
X243136Y299796D01*
X241176D01*
X240336Y301825D01*
X238783Y303378D01*
X236754Y304218D01*
X234558D01*
X232529Y303378D01*
X230976Y301825D01*
X230136Y299796D01*
Y297600D01*
X230976Y295571D01*
X232529Y294018D01*
X233222Y293731D01*
Y291374D01*
X233002Y291330D01*
X232272Y290842D01*
X231784Y290112D01*
X231613Y289251D01*
Y271625D01*
X231784Y270764D01*
X232272Y270034D01*
X233002Y269546D01*
X233864Y269375D01*
X237988D01*
X238916Y267520D01*
X238976Y267075D01*
X238136Y265046D01*
Y262850D01*
X238976Y260821D01*
X238879Y260162D01*
X238384Y258585D01*
X237873Y258243D01*
X237338Y257442D01*
X237150Y256498D01*
Y248398D01*
X237338Y247454D01*
X237873Y246653D01*
X238442Y246273D01*
X238562Y245184D01*
X238436Y244126D01*
X237861Y243743D01*
X237327Y242942D01*
X237139Y241998D01*
Y233898D01*
X237327Y232954D01*
X237861Y232153D01*
X238433Y231771D01*
X238556Y230698D01*
X238433Y229625D01*
X237861Y229243D01*
X237327Y228442D01*
X237139Y227498D01*
Y219398D01*
X237327Y218454D01*
X237861Y217653D01*
X238002Y217559D01*
X238035Y217470D01*
Y215427D01*
X238002Y215337D01*
X237861Y215243D01*
X237327Y214442D01*
X237139Y213498D01*
Y205398D01*
X237327Y204454D01*
X237861Y203653D01*
X238662Y203118D01*
X239606Y202931D01*
X241087D01*
Y199120D01*
X241282Y198136D01*
X241839Y197303D01*
X244589Y194553D01*
X245423Y193996D01*
X246406Y193800D01*
X248114D01*
X248726Y192321D01*
X249418Y191630D01*
X250060Y190323D01*
X249418Y189016D01*
X248726Y188325D01*
X247886Y186296D01*
Y184100D01*
X248726Y182071D01*
X250279Y180518D01*
X252308Y179678D01*
X254504D01*
X255061Y179909D01*
X256589Y178381D01*
X256589Y178381D01*
X257423Y177824D01*
X258406Y177629D01*
X258406Y177629D01*
X262589D01*
Y176148D01*
X262776Y175204D01*
X263311Y174403D01*
X263883Y174021D01*
X264006Y172948D01*
X263883Y171875D01*
X263311Y171493D01*
X262776Y170692D01*
X262589Y169748D01*
Y162814D01*
X260749Y160975D01*
X259850Y161279D01*
X258902Y161922D01*
Y163796D01*
X258061Y165825D01*
X256508Y167378D01*
X254480Y168218D01*
X252283D01*
X250255Y167378D01*
X249663Y166786D01*
X247663Y167614D01*
Y168048D01*
X247438Y169179D01*
X246797Y170139D01*
X245838Y170780D01*
X244706Y171005D01*
X241656D01*
Y165348D01*
X240656D01*
Y164348D01*
X233649D01*
Y163697D01*
X231922Y161989D01*
X230891Y162084D01*
X230808Y162175D01*
Y164062D01*
X230657Y164826D01*
X230570Y166180D01*
X231109Y166987D01*
X231298Y167938D01*
Y168250D01*
X220750D01*
Y170250D01*
X231298D01*
Y170562D01*
X231109Y171514D01*
X230570Y172320D01*
X230656Y173674D01*
X230808Y174438D01*
Y177062D01*
X230656Y177826D01*
X230224Y178474D01*
X230224Y179526D01*
X230657Y180174D01*
X230808Y180938D01*
Y183563D01*
X230657Y184326D01*
X230224Y184974D01*
Y186026D01*
X230657Y186674D01*
X230808Y187437D01*
Y190063D01*
X230657Y190826D01*
X230224Y191474D01*
X230224Y192526D01*
X230656Y193174D01*
X230808Y193937D01*
Y196562D01*
X230656Y197326D01*
X230224Y197974D01*
X229576Y198406D01*
X228813Y198558D01*
X212687D01*
X211924Y198406D01*
X211276Y197974D01*
X209377Y198260D01*
X207586Y200051D01*
Y213410D01*
X207996Y213753D01*
X209473Y214351D01*
X216193Y207631D01*
X217027Y207074D01*
X218010Y206879D01*
X223339D01*
Y205398D01*
X223526Y204454D01*
X224061Y203653D01*
X224862Y203118D01*
X225806Y202931D01*
X231206D01*
X232150Y203118D01*
X232951Y203653D01*
X233486Y204454D01*
X233673Y205398D01*
Y213498D01*
X233486Y214442D01*
X232951Y215243D01*
X232810Y215337D01*
X232777Y215427D01*
Y217470D01*
X232810Y217559D01*
X232951Y217653D01*
X233486Y218454D01*
X233673Y219398D01*
Y227498D01*
X233486Y228442D01*
X232951Y229243D01*
X232868Y229298D01*
X232776Y229620D01*
X232866Y231516D01*
X232868Y231521D01*
X233297Y231807D01*
X233938Y232766D01*
X234163Y233898D01*
Y236948D01*
X228506D01*
X222849D01*
Y233898D01*
X223074Y232766D01*
X223715Y231807D01*
X224144Y231521D01*
X224146Y231516D01*
X224236Y229620D01*
X224144Y229298D01*
X224061Y229243D01*
X223526Y228442D01*
X223339Y227498D01*
Y226966D01*
X221339Y226568D01*
X221336Y226575D01*
X219783Y228128D01*
X217754Y228968D01*
X215558D01*
X213529Y228128D01*
X211976Y226575D01*
X211136Y224546D01*
Y222784D01*
X209886Y221980D01*
X209288Y221804D01*
X188993Y242099D01*
X188159Y242656D01*
X187176Y242852D01*
X149087D01*
X148856Y243409D01*
X147303Y244962D01*
X145274Y245802D01*
X143078D01*
X141049Y244962D01*
X139496Y243409D01*
X138656Y241380D01*
Y239184D01*
X139496Y237155D01*
X141049Y235602D01*
X143078Y234762D01*
X145274D01*
X147303Y235602D01*
X148856Y237155D01*
X149087Y237713D01*
X186112D01*
X196420Y227405D01*
X195822Y225928D01*
X195479Y225517D01*
X115406D01*
X114423Y225322D01*
X113589Y224765D01*
X113589Y224765D01*
X93839Y205015D01*
X93282Y204181D01*
X93087Y203198D01*
Y191132D01*
X80222Y178267D01*
X71923D01*
Y179748D01*
X71736Y180692D01*
X71201Y181493D01*
X70400Y182028D01*
X69456Y182215D01*
X61356D01*
X60412Y182028D01*
X59611Y181493D01*
X59229Y180921D01*
X58156Y180798D01*
X57083Y180921D01*
X56701Y181493D01*
X55900Y182028D01*
X54956Y182215D01*
X46856D01*
X45912Y182028D01*
X45111Y181493D01*
X44576Y180692D01*
X44389Y179748D01*
Y174348D01*
X44576Y173404D01*
X45111Y172603D01*
X45912Y172068D01*
X46856Y171881D01*
X48337D01*
Y165948D01*
X48532Y164965D01*
X49089Y164131D01*
X55589Y157631D01*
X56423Y157074D01*
X57406Y156879D01*
X73745D01*
X73976Y156321D01*
X75529Y154768D01*
X77558Y153928D01*
X79754D01*
X81783Y154768D01*
X83336Y156321D01*
X84176Y158350D01*
Y160546D01*
X83336Y162575D01*
X81783Y164128D01*
X79754Y164968D01*
X77558D01*
X75529Y164128D01*
X73976Y162575D01*
X73745Y162017D01*
X58470D01*
X53475Y167012D01*
Y171881D01*
X54956D01*
X55900Y172068D01*
X56701Y172603D01*
X57083Y173175D01*
X58156Y173298D01*
X59229Y173175D01*
X59611Y172603D01*
X60412Y172068D01*
X61356Y171881D01*
X69456D01*
X70400Y172068D01*
X71201Y172603D01*
X71552Y173129D01*
X81287D01*
X82270Y173324D01*
X83104Y173881D01*
X97473Y188251D01*
X98030Y189084D01*
X98225Y190067D01*
Y202134D01*
X116470Y220379D01*
X194592D01*
X202447Y212523D01*
Y200880D01*
X202423Y200643D01*
X200447Y200263D01*
X200313Y200599D01*
X200280Y200681D01*
X200188Y200818D01*
X199723Y201515D01*
X189973Y211265D01*
X189139Y211822D01*
X188156Y212017D01*
X186723D01*
Y213498D01*
X186536Y214442D01*
X186001Y215243D01*
X185200Y215778D01*
X184256Y215965D01*
X178856D01*
X177912Y215778D01*
X177111Y215243D01*
X176576Y214442D01*
X176389Y213498D01*
Y205398D01*
X176576Y204454D01*
X177111Y203653D01*
X177912Y203118D01*
X178856Y202931D01*
X178987D01*
Y176620D01*
X175554Y173188D01*
X173767Y174229D01*
X173808Y174438D01*
Y177062D01*
X173657Y177826D01*
X173224Y178474D01*
Y179526D01*
X173657Y180174D01*
X173808Y180938D01*
Y183563D01*
X173657Y184326D01*
X173224Y184974D01*
Y186026D01*
X173657Y186674D01*
X173808Y187437D01*
Y190063D01*
X173657Y190826D01*
X173224Y191474D01*
Y192526D01*
X173657Y193174D01*
X173808Y193937D01*
Y196562D01*
X173657Y197326D01*
X173224Y197974D01*
X172576Y198406D01*
X171812Y198558D01*
X155688D01*
X154924Y198406D01*
X154276Y197974D01*
X154173Y197819D01*
X153341D01*
X152358Y197624D01*
X151524Y197067D01*
X150975Y196517D01*
X109827D01*
X108844Y196322D01*
X108011Y195765D01*
X100609Y188363D01*
X100052Y187530D01*
X99857Y186547D01*
Y179704D01*
X98849Y178696D01*
X98292Y177863D01*
X98209Y177447D01*
X93366D01*
X92422Y177259D01*
X91621Y176724D01*
X91086Y175924D01*
X90899Y174980D01*
Y169580D01*
X91086Y168636D01*
X91621Y167835D01*
X92422Y167300D01*
X93366Y167112D01*
X101466D01*
X102410Y167300D01*
X102995Y167691D01*
X103238Y167835D01*
X105094D01*
X105337Y167691D01*
X105922Y167300D01*
X106866Y167112D01*
X114966D01*
X115910Y167300D01*
X116711Y167835D01*
X117246Y168636D01*
X117433Y169580D01*
Y174980D01*
X117246Y175924D01*
X116711Y176724D01*
X115910Y177259D01*
X114966Y177447D01*
X110122D01*
X110040Y177863D01*
X109483Y178696D01*
X108996Y179184D01*
Y183825D01*
X110219Y185049D01*
X110434Y185193D01*
X112620Y187379D01*
X149774D01*
X150215Y186819D01*
X149244Y184819D01*
X145718D01*
X145343Y184745D01*
X144968Y184819D01*
X143985Y184624D01*
X143151Y184067D01*
X141509Y182425D01*
X141509Y182425D01*
X140952Y181591D01*
X140757Y180608D01*
Y177996D01*
X139912Y177828D01*
X139111Y177293D01*
X138576Y176492D01*
X138389Y175548D01*
Y170148D01*
X138576Y169204D01*
X139111Y168403D01*
X139912Y167868D01*
X140856Y167681D01*
X148956D01*
X149900Y167868D01*
X150701Y168403D01*
X151236Y169204D01*
X151424Y170148D01*
Y171500D01*
X151890Y171627D01*
X152640Y171184D01*
X153692Y170043D01*
Y167938D01*
X153844Y167174D01*
X153930Y165820D01*
X153392Y165014D01*
X153225Y164178D01*
X152916Y163997D01*
X151202Y163606D01*
X151047Y163839D01*
X150088Y164480D01*
X148956Y164705D01*
X145906D01*
Y159048D01*
Y153391D01*
X148956D01*
X150088Y153616D01*
X151047Y154257D01*
X151688Y155217D01*
X151692Y155236D01*
X153692Y155039D01*
Y154937D01*
X153844Y154174D01*
X154276Y153526D01*
X154276Y152474D01*
X153844Y151826D01*
X153692Y151062D01*
Y148438D01*
X153844Y147674D01*
X154276Y147026D01*
Y145974D01*
X153844Y145326D01*
X153692Y144563D01*
Y141938D01*
X153844Y141174D01*
X154276Y140526D01*
X154276Y139474D01*
X153844Y138826D01*
X153692Y138062D01*
Y135437D01*
X153844Y134674D01*
X154276Y134026D01*
X154924Y133594D01*
X155688Y133442D01*
X157503D01*
X158117Y131507D01*
X158118Y131442D01*
X154340Y127664D01*
X154311Y127620D01*
X151406Y124715D01*
X150056D01*
X149112Y124528D01*
X148311Y123993D01*
X147776Y123192D01*
X147589Y122248D01*
Y120767D01*
X120662D01*
X119235Y122194D01*
Y125816D01*
X121229D01*
X122090Y125988D01*
X122820Y126476D01*
X123308Y127206D01*
X123479Y128067D01*
Y132192D01*
X123308Y133054D01*
X122820Y133784D01*
X122090Y134272D01*
X121229Y134443D01*
X112104D01*
X111242Y134272D01*
X110995Y134107D01*
X109350Y134710D01*
X108995Y134993D01*
Y151575D01*
X109483Y152063D01*
X110040Y152896D01*
X110122Y153312D01*
X114966D01*
X115910Y153500D01*
X116711Y154035D01*
X117246Y154836D01*
X117433Y155780D01*
Y161180D01*
X117246Y162124D01*
X116711Y162924D01*
X115910Y163459D01*
X114966Y163647D01*
X106866D01*
X105922Y163459D01*
X105337Y163068D01*
X105094Y162924D01*
X103238D01*
X102995Y163068D01*
X102410Y163459D01*
X101466Y163647D01*
X93366D01*
X92422Y163459D01*
X91621Y162924D01*
X91086Y162124D01*
X90899Y161180D01*
Y155780D01*
X91086Y154836D01*
X91621Y154035D01*
X92422Y153500D01*
X93366Y153312D01*
X98209D01*
X98292Y152896D01*
X98849Y152063D01*
X99357Y151555D01*
Y134979D01*
X98953Y134665D01*
X97357Y134093D01*
X97090Y134272D01*
X96229Y134443D01*
X87104D01*
X86242Y134272D01*
X85512Y133784D01*
X85024Y133054D01*
X84853Y132192D01*
Y128067D01*
X85024Y127206D01*
X85203Y126938D01*
X85166Y124630D01*
X85014Y124403D01*
X84572Y123741D01*
X84363Y122692D01*
Y121630D01*
X91666D01*
Y119630D01*
X84363D01*
Y118567D01*
X84572Y117519D01*
X85014Y116857D01*
X85166Y116630D01*
X85203Y114321D01*
X85024Y114053D01*
X84853Y113192D01*
Y109067D01*
X85024Y108206D01*
X85512Y107476D01*
X86242Y106988D01*
X87104Y106817D01*
X96229D01*
X97090Y106988D01*
X97357Y107166D01*
X98953Y106594D01*
X99357Y106280D01*
Y89005D01*
Y65766D01*
X98183Y64593D01*
X97626Y63759D01*
X97431Y62776D01*
Y60199D01*
X97288Y60140D01*
X97047Y59898D01*
X95740Y58948D01*
X94433Y59898D01*
X94192Y60140D01*
X94059Y60195D01*
Y81054D01*
X93985Y81426D01*
Y91792D01*
X93790Y92775D01*
X93233Y93609D01*
X93233Y93609D01*
X89493Y97349D01*
X88659Y97906D01*
X87676Y98102D01*
X50490D01*
X49507Y97906D01*
X48673Y97349D01*
X40418Y89093D01*
X39861Y88260D01*
X39665Y87276D01*
Y81945D01*
X39661Y81922D01*
Y61983D01*
X38180D01*
X37236Y61796D01*
X36435Y61261D01*
X35900Y60460D01*
X35713Y59516D01*
Y54116D01*
X35900Y53172D01*
X36435Y52371D01*
X37236Y51836D01*
X38180Y51648D01*
X46280D01*
X47224Y51836D01*
X48025Y52371D01*
X48560Y53172D01*
X48748Y54116D01*
Y59516D01*
X48560Y60460D01*
X48025Y61261D01*
X47224Y61796D01*
X46280Y61983D01*
X44799D01*
Y81904D01*
X44804Y81926D01*
Y86212D01*
X51554Y92963D01*
X86612D01*
X88847Y90728D01*
Y81128D01*
X88921Y80756D01*
Y60195D01*
X88788Y60140D01*
X88547Y59898D01*
X87240Y58948D01*
X85933Y59898D01*
X85692Y60140D01*
X83939Y60866D01*
X82041D01*
X80288Y60140D01*
X78946Y58798D01*
X78220Y57045D01*
Y55147D01*
X78946Y53394D01*
X80288Y52052D01*
X80431Y51993D01*
Y46699D01*
X80288Y46640D01*
X78946Y45298D01*
X78220Y43545D01*
Y41647D01*
X78946Y39894D01*
X80288Y38552D01*
X82041Y37826D01*
X83939D01*
X85692Y38552D01*
X85933Y38793D01*
X87240Y39744D01*
X88547Y38793D01*
X88788Y38552D01*
X90541Y37826D01*
X92439D01*
X94192Y38552D01*
X94433Y38793D01*
X95740Y39744D01*
X97047Y38793D01*
X97288Y38552D01*
X99041Y37826D01*
X100939D01*
X102692Y38552D01*
X102933Y38793D01*
X104240Y39744D01*
X105547Y38793D01*
X105788Y38552D01*
X107541Y37826D01*
X109439D01*
X111192Y38552D01*
X111433Y38793D01*
X112740Y39744D01*
X114047Y38793D01*
X114288Y38552D01*
X114431Y38493D01*
Y35115D01*
X114626Y34132D01*
X115183Y33299D01*
X123126Y25356D01*
X123960Y24799D01*
X124943Y24603D01*
X144837D01*
X145319Y24699D01*
X165669D01*
X166653Y24895D01*
X167486Y25452D01*
X184223Y42188D01*
X184780Y43022D01*
X184975Y44005D01*
X184975Y44005D01*
Y62881D01*
X186456D01*
X187400Y63068D01*
X188201Y63603D01*
X188736Y64404D01*
X188923Y65348D01*
Y70748D01*
X188736Y71692D01*
X188201Y72493D01*
X187400Y73028D01*
X186456Y73215D01*
X178356D01*
X177412Y73028D01*
X176611Y72493D01*
X176076Y71692D01*
X175889Y70748D01*
Y65348D01*
X176076Y64404D01*
X176611Y63603D01*
X177412Y63068D01*
X178356Y62881D01*
X179837D01*
Y45069D01*
X164605Y29838D01*
X144933D01*
X144933Y29838D01*
X144451Y29742D01*
X126007D01*
X119569Y36180D01*
Y38501D01*
X119692Y38552D01*
X119933Y38793D01*
X121240Y39744D01*
X122547Y38793D01*
X122788Y38552D01*
X124541Y37826D01*
X126439D01*
X128192Y38552D01*
X129534Y39894D01*
X130260Y41647D01*
Y43545D01*
X130098Y43934D01*
Y54757D01*
X130260Y55147D01*
Y57045D01*
X130120Y57382D01*
Y90459D01*
X132501Y92839D01*
X147950D01*
X148026Y92454D01*
X148561Y91653D01*
X149362Y91118D01*
X150306Y90931D01*
X155706D01*
X156650Y91118D01*
X157451Y91653D01*
X157986Y92454D01*
X158173Y93398D01*
Y96786D01*
X159149Y97537D01*
X161149Y96584D01*
Y93398D01*
X161374Y92267D01*
X162015Y91307D01*
X162974Y90666D01*
X164106Y90441D01*
X165806D01*
Y97448D01*
X166806D01*
Y98448D01*
X172463D01*
Y101498D01*
X174069Y103214D01*
X187872D01*
X198547Y92539D01*
Y86904D01*
X198162Y86828D01*
X197361Y86293D01*
X196826Y85492D01*
X196639Y84548D01*
Y79148D01*
X196826Y78204D01*
X197361Y77403D01*
X198162Y76869D01*
X199106Y76681D01*
X207206D01*
X208150Y76869D01*
X208951Y77403D01*
X209486Y78204D01*
X209674Y79148D01*
Y84548D01*
X209486Y85492D01*
X208951Y86293D01*
X208150Y86828D01*
X207765Y86904D01*
Y94448D01*
X207765Y94448D01*
X207414Y96212D01*
X206415Y97707D01*
X193040Y111082D01*
X191906Y111840D01*
X192141Y113593D01*
X192239Y113840D01*
X207997D01*
X213094Y108743D01*
X213398Y107212D01*
X214397Y105717D01*
X220798Y99317D01*
Y88024D01*
X219718D01*
X218613Y87804D01*
X217676Y87178D01*
X217050Y86241D01*
X216831Y85135D01*
Y80890D01*
X214680Y78739D01*
X214512Y78706D01*
X213017Y77707D01*
X213017Y77707D01*
X208466Y73157D01*
X203756D01*
X203549Y73115D01*
X199106D01*
X198162Y72928D01*
X197361Y72393D01*
X196826Y71592D01*
X196639Y70648D01*
Y65248D01*
X196826Y64304D01*
X197361Y63503D01*
X198162Y62968D01*
X199106Y62781D01*
X207206D01*
X208150Y62968D01*
X208951Y63503D01*
X209242Y63939D01*
X210375D01*
X212139Y64290D01*
X213634Y65289D01*
X214341Y65996D01*
X216341Y65168D01*
Y63198D01*
X224406D01*
Y69513D01*
X221256D01*
X220778Y70247D01*
X220488Y71513D01*
X223348Y74373D01*
X231094D01*
X232199Y74592D01*
X233136Y75218D01*
X233762Y76155D01*
X233981Y77260D01*
Y85135D01*
X233762Y86241D01*
X233136Y87178D01*
X232199Y87804D01*
X231094Y88024D01*
X230015D01*
Y99317D01*
X239538Y108839D01*
X242331D01*
Y107261D01*
X242550Y106155D01*
X243176Y105218D01*
X244113Y104592D01*
X245219Y104373D01*
X253094D01*
X254199Y104592D01*
X255136Y105218D01*
X255762Y106155D01*
X255982Y107261D01*
Y113282D01*
X256015Y113448D01*
X255982Y113614D01*
Y118636D01*
X255762Y119741D01*
X255136Y120678D01*
X254199Y121304D01*
X253765Y121390D01*
Y127567D01*
X253889Y127617D01*
X255765Y127899D01*
X256002Y127544D01*
X256732Y127056D01*
X257594Y126885D01*
X260672D01*
X262156Y126589D01*
X271458D01*
X271529Y126518D01*
X272087Y126287D01*
Y122432D01*
X271179Y121524D01*
X264218D01*
X263113Y121304D01*
X262176Y120678D01*
X261550Y119741D01*
X261330Y118636D01*
Y107261D01*
X261550Y106155D01*
X262176Y105218D01*
X263113Y104592D01*
X264218Y104373D01*
X272094D01*
X272698Y104493D01*
X273890Y102999D01*
X273951Y102858D01*
X273686Y102526D01*
X273106Y101915D01*
X271496D01*
Y94908D01*
X270496D01*
Y93908D01*
X264839D01*
Y91596D01*
X264093Y91448D01*
X262439Y90343D01*
X258301Y86205D01*
X257196Y84551D01*
X256808Y82600D01*
Y56198D01*
X257196Y54247D01*
X258301Y52593D01*
X262261Y48633D01*
X263915Y47528D01*
X265866Y47140D01*
X325452D01*
X327402Y47528D01*
X329056Y48633D01*
X332261Y51838D01*
X333366Y53492D01*
X333754Y55443D01*
Y82083D01*
X333366Y84034D01*
X332261Y85687D01*
X327605Y90343D01*
X325951Y91448D01*
X325513Y91535D01*
Y93908D01*
X319856D01*
Y94908D01*
X318856D01*
Y101915D01*
X318054D01*
Y113886D01*
X322511Y118343D01*
X323616Y119997D01*
X324004Y121948D01*
Y127815D01*
X324229Y128008D01*
X326004Y128701D01*
X326189Y128577D01*
X327045Y128407D01*
X340695D01*
X341552Y128577D01*
X342278Y129063D01*
X342763Y129789D01*
X342933Y130645D01*
Y134695D01*
X342763Y135552D01*
X342624Y136717D01*
X343215Y137601D01*
X343423Y138645D01*
Y139670D01*
X333870D01*
Y140872D01*
X341685D01*
X343423Y141217D01*
Y141218D01*
X343636Y141260D01*
X345290Y142365D01*
X345475Y142550D01*
X346580Y144204D01*
X346968Y146155D01*
Y156674D01*
X348968Y157502D01*
X361214Y145256D01*
X362048Y144699D01*
X363031Y144504D01*
X404717D01*
X420301Y128920D01*
Y125673D01*
X418870Y124813D01*
X417439Y125673D01*
Y127484D01*
X417244Y128467D01*
X416687Y129301D01*
X407473Y138515D01*
X406639Y139072D01*
X405656Y139267D01*
X403067D01*
X402836Y139825D01*
X401283Y141378D01*
X399254Y142218D01*
X397058D01*
X395029Y141378D01*
X393476Y139825D01*
X392636Y137796D01*
Y135600D01*
X393395Y133767D01*
X393369Y133697D01*
X391414Y132824D01*
X390049Y134189D01*
X390426Y135100D01*
Y137296D01*
X389586Y139325D01*
X388033Y140878D01*
X386004Y141718D01*
X383808D01*
X381779Y140878D01*
X380226Y139325D01*
X379386Y137296D01*
Y135100D01*
X380226Y133071D01*
X381779Y131518D01*
X383808Y130678D01*
X386004D01*
X386208Y130763D01*
X389589Y127381D01*
X390423Y126824D01*
X390880Y126733D01*
X390683Y124733D01*
X388845D01*
X387989Y124563D01*
X386870Y124204D01*
X385751Y124563D01*
X384895Y124733D01*
X380845D01*
X379989Y124563D01*
X378824Y124424D01*
X377939Y125015D01*
X376895Y125223D01*
X375870D01*
Y115670D01*
Y106118D01*
X376895D01*
X377939Y106325D01*
X378824Y106917D01*
X379989Y106778D01*
X380845Y106607D01*
X384895D01*
X385751Y106778D01*
X386870Y107137D01*
X387989Y106778D01*
X388845Y106607D01*
X392895D01*
X393751Y106778D01*
X394870Y107137D01*
X395989Y106778D01*
X396845Y106607D01*
X400895D01*
X401752Y106778D01*
X402870Y107137D01*
X403989Y106778D01*
X404845Y106607D01*
X408895D01*
X409752Y106778D01*
X410870Y107137D01*
X411989Y106778D01*
X412845Y106607D01*
X416895D01*
X417752Y106778D01*
X418870Y107137D01*
X419989Y106778D01*
X420845Y106607D01*
X424895D01*
X425751Y106778D01*
X426870Y107137D01*
X427989Y106778D01*
X428845Y106607D01*
X432895D01*
X433751Y106778D01*
X434478Y107263D01*
X434963Y107989D01*
X435133Y108845D01*
Y122495D01*
X434963Y123352D01*
X434478Y124078D01*
X433751Y124563D01*
X433439Y124625D01*
Y127641D01*
X433348Y128101D01*
X434217Y129637D01*
X434663Y130101D01*
X438915D01*
X438977Y129789D01*
X439463Y129063D01*
X440189Y128577D01*
X441045Y128407D01*
X454695D01*
X455551Y128577D01*
X456278Y129063D01*
X456763Y129789D01*
X456933Y130645D01*
Y134695D01*
X456763Y135552D01*
X456278Y136278D01*
Y137063D01*
X456763Y137789D01*
X456933Y138645D01*
Y142695D01*
X456763Y143552D01*
X456404Y144670D01*
X456763Y145789D01*
X456933Y146645D01*
Y150695D01*
X456763Y151552D01*
X456404Y152670D01*
X456763Y153789D01*
X456933Y154645D01*
Y158695D01*
X456763Y159552D01*
X456278Y160278D01*
Y161063D01*
X456763Y161789D01*
X456933Y162645D01*
Y166695D01*
X456763Y167552D01*
X456624Y168717D01*
X457215Y169601D01*
X457422Y170645D01*
Y171670D01*
X447870D01*
X438318D01*
Y170645D01*
X436513Y169466D01*
X436083Y169404D01*
X421768Y183719D01*
X421926Y184100D01*
Y186296D01*
X421086Y188325D01*
X419533Y189878D01*
X417504Y190718D01*
X415308D01*
X413279Y189878D01*
X411726Y188325D01*
X410886Y186296D01*
Y184100D01*
X411726Y182071D01*
X412555Y181243D01*
X413058Y179948D01*
X412754Y179167D01*
X410723Y178318D01*
X409975Y178686D01*
X409283Y179378D01*
X407254Y180218D01*
X405058D01*
X403029Y179378D01*
X402463Y178811D01*
X401156Y178019D01*
X399850Y178811D01*
X399283Y179378D01*
X397254Y180218D01*
X395058D01*
X393029Y179378D01*
X391476Y177825D01*
X390636Y175796D01*
Y173600D01*
X391476Y171571D01*
X393029Y170018D01*
X395058Y169178D01*
X397254D01*
X397812Y169409D01*
X401203Y166017D01*
X400374Y164017D01*
X389817D01*
X389586Y164575D01*
X388033Y166128D01*
X386004Y166968D01*
X383808D01*
X381779Y166128D01*
X380226Y164575D01*
X379386Y162546D01*
Y160350D01*
X380226Y158321D01*
X381779Y156768D01*
X383808Y155928D01*
X386004D01*
X386038Y155942D01*
X386069Y155936D01*
X387886Y154543D01*
Y153350D01*
X388593Y151642D01*
X388096Y150400D01*
X387577Y149642D01*
X364095D01*
X352725Y161012D01*
Y166434D01*
X353533Y166768D01*
X355086Y168321D01*
X355926Y170350D01*
Y172266D01*
X356673Y172829D01*
X357774Y173247D01*
X359091Y171929D01*
X359799Y170058D01*
X358246Y168505D01*
X357406Y166476D01*
Y164280D01*
X358246Y162251D01*
X359799Y160698D01*
X361828Y159858D01*
X364024D01*
X366053Y160698D01*
X367606Y162251D01*
X368446Y164280D01*
Y165728D01*
X369083Y166841D01*
X370196Y167478D01*
X371644D01*
X373673Y168318D01*
X375226Y169871D01*
X376066Y171900D01*
Y173348D01*
X376703Y174461D01*
X377816Y175098D01*
X379264D01*
X381293Y175938D01*
X382846Y177491D01*
X383686Y179520D01*
Y180968D01*
X384323Y182081D01*
X385436Y182718D01*
X386884D01*
X388913Y183558D01*
X390466Y185111D01*
X391306Y187140D01*
Y188588D01*
X391943Y189701D01*
X393056Y190338D01*
X394504D01*
X396533Y191178D01*
X398086Y192731D01*
X398926Y194760D01*
Y196208D01*
X399563Y197321D01*
X400676Y197958D01*
X402124D01*
X404153Y198798D01*
X405706Y200351D01*
X406546Y202380D01*
Y204576D01*
X405706Y206605D01*
X404153Y208158D01*
X402124Y208998D01*
X399928D01*
X397899Y208158D01*
X396346Y206605D01*
X396115Y206047D01*
X388120D01*
X377439Y216728D01*
Y219927D01*
X379171Y221040D01*
X379989Y220777D01*
X380845Y220607D01*
X384895D01*
X385751Y220777D01*
X386870Y221137D01*
X387989Y220777D01*
X388845Y220607D01*
X392895D01*
X393751Y220777D01*
X394870Y221137D01*
X395989Y220777D01*
X396845Y220607D01*
X400895D01*
X401752Y220777D01*
X402870Y221137D01*
X403989Y220777D01*
X404845Y220607D01*
X408895D01*
X409752Y220777D01*
X410870Y221137D01*
X411989Y220777D01*
X412845Y220607D01*
X416895D01*
X417752Y220777D01*
X418870Y221137D01*
X419989Y220777D01*
X420845Y220607D01*
X424895D01*
X425751Y220777D01*
X426870Y221137D01*
X427989Y220777D01*
X428845Y220607D01*
X432895D01*
X433751Y220777D01*
X434478Y221263D01*
X434963Y221989D01*
X435133Y222845D01*
Y236495D01*
X434963Y237352D01*
X434478Y238078D01*
X433751Y238563D01*
X432895Y238733D01*
X428845D01*
X427989Y238563D01*
X426870Y238204D01*
X425751Y238563D01*
X424895Y238733D01*
X420845D01*
X419989Y238563D01*
X419171Y238300D01*
X417439Y239413D01*
Y255098D01*
X428243Y265901D01*
X428800Y266735D01*
X428995Y267718D01*
Y270437D01*
X429562Y270550D01*
X430313Y271051D01*
X430814Y271802D01*
X430990Y272688D01*
Y289688D01*
X430814Y290574D01*
X430313Y291325D01*
X429562Y291826D01*
X428676Y292003D01*
X424176D01*
X423290Y291826D01*
X422539Y291325D01*
X422038Y290574D01*
X421862Y289688D01*
Y272688D01*
X422038Y271802D01*
X422539Y271051D01*
X423290Y270550D01*
X423293Y270549D01*
X423571Y268496D01*
X413053Y257979D01*
X412496Y257145D01*
X412301Y256162D01*
Y239673D01*
X410870Y238813D01*
X409440Y239673D01*
Y261705D01*
X415543Y267808D01*
X416100Y268642D01*
X416295Y269625D01*
Y270437D01*
X416862Y270550D01*
X417613Y271051D01*
X418114Y271802D01*
X418290Y272688D01*
Y289688D01*
X418114Y290574D01*
X417613Y291325D01*
X416862Y291826D01*
X415976Y292003D01*
X411476D01*
X410590Y291826D01*
X409840Y291325D01*
X409338Y290574D01*
X409162Y289688D01*
Y272688D01*
X409338Y271802D01*
X409840Y271052D01*
X409404Y268937D01*
X405053Y264586D01*
X404496Y263753D01*
X404301Y262770D01*
Y239673D01*
X402870Y238813D01*
X401440Y239673D01*
Y266416D01*
X402843Y267819D01*
X403400Y268653D01*
X403595Y269636D01*
Y270437D01*
X404162Y270550D01*
X404913Y271051D01*
X405414Y271802D01*
X405591Y272688D01*
Y289688D01*
X405414Y290574D01*
X404913Y291325D01*
X404909Y291358D01*
X410680Y297129D01*
X489147D01*
X492341Y293934D01*
X491444Y292003D01*
X487676D01*
X486790Y291826D01*
X486040Y291325D01*
X485538Y290574D01*
X485362Y289688D01*
Y272688D01*
X485538Y271802D01*
X486040Y271051D01*
X486790Y270550D01*
X487357Y270437D01*
Y263805D01*
X485876D01*
X484932Y263618D01*
X484131Y263083D01*
X483596Y262282D01*
X483409Y261338D01*
Y255938D01*
X483596Y254994D01*
X484131Y254193D01*
X484932Y253658D01*
X485876Y253471D01*
X493976D01*
X494920Y253658D01*
X495721Y254193D01*
X496256Y254994D01*
X496443Y255938D01*
Y257419D01*
X498255D01*
X499238Y257614D01*
X500072Y258171D01*
X502093Y260192D01*
X502650Y261026D01*
X502707Y261311D01*
X504707Y261114D01*
Y214324D01*
X504902Y213341D01*
X505459Y212507D01*
X510335Y207631D01*
X509663Y206468D01*
X508980Y203919D01*
Y201281D01*
X509663Y198732D01*
X510982Y196448D01*
X512848Y194582D01*
X515132Y193263D01*
X517681Y192580D01*
X520319D01*
X522868Y193263D01*
X525153Y194582D01*
X527018Y196448D01*
X528337Y198732D01*
X529020Y201281D01*
Y203919D01*
X528337Y206468D01*
X527018Y208752D01*
X525153Y210618D01*
X522868Y211937D01*
X520319Y212620D01*
X517681D01*
X515132Y211937D01*
X513969Y211265D01*
X509845Y215388D01*
Y220156D01*
X511845Y220984D01*
X512848Y219982D01*
X515132Y218663D01*
X517681Y217980D01*
X520319D01*
X522868Y218663D01*
X525152Y219982D01*
X527018Y221848D01*
X528337Y224132D01*
X529020Y226681D01*
Y229319D01*
X528337Y231868D01*
X527665Y233032D01*
X532243Y237609D01*
X532800Y238443D01*
X532995Y239426D01*
Y287043D01*
X532800Y288026D01*
X532243Y288860D01*
X528540Y292563D01*
X528456Y294744D01*
X528903Y295412D01*
X529060Y296200D01*
Y312200D01*
X528903Y312988D01*
X528456Y313656D01*
X527788Y314103D01*
X527000Y314260D01*
X512574D01*
X502569Y324265D01*
X501735Y324822D01*
X500752Y325017D01*
X340720D01*
X333195Y332543D01*
X333426Y333100D01*
Y335296D01*
X332586Y337325D01*
X331033Y338878D01*
X329004Y339718D01*
D02*
G37*
G36*
X339589Y291501D02*
X335464D01*
X334602Y291330D01*
X333872Y290842D01*
X333384Y290112D01*
X333213Y289251D01*
Y271625D01*
X333384Y270764D01*
X333872Y270034D01*
X334602Y269546D01*
X335464Y269375D01*
X339589D01*
X340450Y269546D01*
X341180Y270034D01*
X341668Y270764D01*
X341839Y271625D01*
Y289251D01*
X341668Y290112D01*
X341180Y290842D01*
X340450Y291330D01*
X339589Y291501D01*
D02*
G37*
G36*
X225289D02*
X221164D01*
X220302Y291330D01*
X219572Y290842D01*
X219084Y290112D01*
X218913Y289251D01*
Y271625D01*
X219084Y270764D01*
X219572Y270034D01*
X220302Y269546D01*
X221164Y269375D01*
X225289D01*
X226150Y269546D01*
X226880Y270034D01*
X227368Y270764D01*
X227539Y271625D01*
Y289251D01*
X227368Y290112D01*
X226880Y290842D01*
X226150Y291330D01*
X225289Y291501D01*
D02*
G37*
G36*
X212004Y304468D02*
X209808D01*
X207779Y303628D01*
X206226Y302075D01*
X205386Y300046D01*
Y297850D01*
X206226Y295821D01*
X207779Y294268D01*
X208147Y294116D01*
Y291438D01*
X207602Y291330D01*
X206872Y290842D01*
X206384Y290112D01*
X206213Y289251D01*
Y271625D01*
X206384Y270764D01*
X206872Y270034D01*
X207602Y269546D01*
X208464Y269375D01*
X212589D01*
X213450Y269546D01*
X214180Y270034D01*
X214668Y270764D01*
X214839Y271625D01*
Y289251D01*
X214668Y290112D01*
X214180Y290842D01*
X213450Y291330D01*
X213285Y291363D01*
Y293959D01*
X214033Y294268D01*
X215586Y295821D01*
X216426Y297850D01*
Y300046D01*
X215586Y302075D01*
X214033Y303628D01*
X212004Y304468D01*
D02*
G37*
G36*
X338406Y266365D02*
X336706D01*
Y260358D01*
X341363D01*
Y263408D01*
X341138Y264540D01*
X340497Y265499D01*
X339538Y266140D01*
X338406Y266365D01*
D02*
G37*
G36*
X334706D02*
X333006D01*
X331875Y266140D01*
X330915Y265499D01*
X330274Y264540D01*
X330049Y263408D01*
Y260358D01*
X334706D01*
Y266365D01*
D02*
G37*
G36*
X277156Y259013D02*
X274219D01*
X272926Y258756D01*
X271830Y258024D01*
X271426Y257419D01*
X269426Y257993D01*
Y258468D01*
X255886D01*
Y243928D01*
X269426D01*
Y244403D01*
X271426Y244977D01*
X271830Y244372D01*
X272926Y243640D01*
X274219Y243383D01*
X277156D01*
Y251198D01*
Y259013D01*
D02*
G37*
G36*
X352289Y291501D02*
X348164D01*
X347302Y291330D01*
X346572Y290842D01*
X346084Y290112D01*
X345913Y289251D01*
Y271625D01*
X346084Y270764D01*
X346572Y270034D01*
X347302Y269546D01*
X347657Y269476D01*
Y265875D01*
X346806D01*
X345862Y265688D01*
X345061Y265153D01*
X344526Y264352D01*
X344339Y263408D01*
Y255308D01*
X344526Y254364D01*
X345061Y253563D01*
X345862Y253028D01*
X346806Y252841D01*
X352206D01*
X353150Y253028D01*
X353951Y253563D01*
X354486Y254364D01*
X354674Y255308D01*
Y256879D01*
X356996D01*
X357226Y256321D01*
X358779Y254768D01*
X360808Y253928D01*
X363004D01*
X365033Y254768D01*
X366586Y256321D01*
X367426Y258350D01*
Y260546D01*
X366586Y262575D01*
X365033Y264128D01*
X363004Y264968D01*
X360808D01*
X358779Y264128D01*
X357226Y262575D01*
X356996Y262017D01*
X354674D01*
Y263408D01*
X354486Y264352D01*
X353951Y265153D01*
X353150Y265688D01*
X352795Y265758D01*
Y269476D01*
X353150Y269546D01*
X353880Y270034D01*
X354368Y270764D01*
X354539Y271625D01*
Y289251D01*
X354368Y290112D01*
X353880Y290842D01*
X353150Y291330D01*
X352289Y291501D01*
D02*
G37*
G36*
X341363Y258358D02*
X336706D01*
Y252351D01*
X338406D01*
X339538Y252576D01*
X340497Y253217D01*
X341138Y254177D01*
X341363Y255308D01*
Y258358D01*
D02*
G37*
G36*
X334706D02*
X330049D01*
Y255308D01*
X330274Y254177D01*
X330915Y253217D01*
X331875Y252576D01*
X333006Y252351D01*
X334706D01*
Y258358D01*
D02*
G37*
G36*
X282094Y259013D02*
X279156D01*
Y252198D01*
X285471D01*
Y255636D01*
X285214Y256928D01*
X284482Y258024D01*
X283386Y258756D01*
X282094Y259013D01*
D02*
G37*
G36*
X493976Y250495D02*
X490926D01*
Y245838D01*
X496933D01*
Y247538D01*
X496708Y248669D01*
X496067Y249629D01*
X495108Y250270D01*
X493976Y250495D01*
D02*
G37*
G36*
X488926D02*
X485876D01*
X484744Y250270D01*
X483785Y249629D01*
X483144Y248669D01*
X482919Y247538D01*
Y245838D01*
X488926D01*
Y250495D01*
D02*
G37*
G36*
X285471Y250198D02*
X279156D01*
Y243383D01*
X282094D01*
X283386Y243640D01*
X284482Y244372D01*
X285214Y245468D01*
X285471Y246761D01*
Y250198D01*
D02*
G37*
G36*
X496933Y243838D02*
X490926D01*
Y239181D01*
X493976D01*
X495108Y239406D01*
X496067Y240047D01*
X496708Y241007D01*
X496933Y242138D01*
Y243838D01*
D02*
G37*
G36*
X488926D02*
X482919D01*
Y242138D01*
X483144Y241007D01*
X483785Y240047D01*
X484744Y239406D01*
X485876Y239181D01*
X488926D01*
Y243838D01*
D02*
G37*
G36*
X145274Y260552D02*
X143078D01*
X141049Y259712D01*
X139496Y258159D01*
X138656Y256130D01*
Y253934D01*
X139496Y251905D01*
X141049Y250352D01*
X143078Y249512D01*
X145274D01*
X147303Y250352D01*
X148856Y251905D01*
X149087Y252463D01*
X196612D01*
X198609Y250465D01*
X199443Y249908D01*
X200426Y249713D01*
X223350D01*
Y248398D01*
X223538Y247454D01*
X224073Y246653D01*
X224150Y246602D01*
X224244Y246269D01*
X224149Y244379D01*
X223715Y244089D01*
X223074Y243130D01*
X222849Y241998D01*
Y238948D01*
X228506D01*
X234163D01*
Y241998D01*
X233938Y243130D01*
X233297Y244089D01*
X232874Y244372D01*
X232868Y244385D01*
X232784Y246283D01*
X232874Y246594D01*
X232962Y246653D01*
X233497Y247454D01*
X233685Y248398D01*
Y256498D01*
X233497Y257442D01*
X232962Y258243D01*
X232162Y258778D01*
X231218Y258965D01*
X225818D01*
X224874Y258778D01*
X224073Y258243D01*
X223538Y257442D01*
X223350Y256498D01*
Y254851D01*
X201490D01*
X199493Y256849D01*
X198659Y257406D01*
X197676Y257602D01*
X149087D01*
X148856Y258159D01*
X147303Y259712D01*
X145274Y260552D01*
D02*
G37*
G36*
X170456Y216455D02*
X168756D01*
Y210448D01*
X173413D01*
Y213498D01*
X173188Y214629D01*
X172547Y215589D01*
X171588Y216230D01*
X170456Y216455D01*
D02*
G37*
G36*
X166756D02*
X165056D01*
X163925Y216230D01*
X162965Y215589D01*
X162324Y214629D01*
X162099Y213498D01*
Y210448D01*
X166756D01*
Y216455D01*
D02*
G37*
G36*
X173413Y208448D02*
X168756D01*
Y202441D01*
X170456D01*
X171588Y202666D01*
X172547Y203307D01*
X173188Y204266D01*
X173413Y205398D01*
Y208448D01*
D02*
G37*
G36*
X166756D02*
X162099D01*
Y205398D01*
X162324Y204266D01*
X162965Y203307D01*
X163925Y202666D01*
X165056Y202441D01*
X166756D01*
Y208448D01*
D02*
G37*
G36*
X479476Y292003D02*
X474976D01*
X474090Y291826D01*
X473340Y291325D01*
X472838Y290574D01*
X472662Y289688D01*
Y272688D01*
X472838Y271802D01*
X473340Y271051D01*
X474090Y270550D01*
X474657Y270437D01*
Y239038D01*
Y203272D01*
X462624Y191240D01*
X457873D01*
X457013Y192670D01*
X457873Y194101D01*
X461528D01*
X462511Y194296D01*
X463345Y194853D01*
X470153Y201661D01*
X470710Y202495D01*
X470905Y203478D01*
X470905Y203478D01*
Y239038D01*
Y244268D01*
X470710Y245251D01*
X470153Y246085D01*
X467095Y249142D01*
Y270437D01*
X467662Y270550D01*
X468413Y271051D01*
X468914Y271802D01*
X469090Y272688D01*
Y289688D01*
X468914Y290574D01*
X468413Y291325D01*
X467662Y291826D01*
X466776Y292003D01*
X462276D01*
X461390Y291826D01*
X460639Y291325D01*
X460138Y290574D01*
X459962Y289688D01*
Y272688D01*
X460138Y271802D01*
X460639Y271051D01*
X461390Y270550D01*
X461957Y270437D01*
Y248078D01*
X462152Y247095D01*
X462709Y246261D01*
X465591Y243380D01*
X465399Y241778D01*
X463490Y241167D01*
X454395Y250262D01*
Y270437D01*
X454962Y270550D01*
X455713Y271051D01*
X456214Y271802D01*
X456390Y272688D01*
Y289688D01*
X456214Y290574D01*
X455713Y291325D01*
X454962Y291826D01*
X454076Y292003D01*
X449576D01*
X448690Y291826D01*
X447939Y291325D01*
X447438Y290574D01*
X447262Y289688D01*
Y272688D01*
X447438Y271802D01*
X447939Y271051D01*
X448690Y270550D01*
X449257Y270437D01*
Y249198D01*
X449452Y248215D01*
X450009Y247381D01*
X459417Y237974D01*
Y209011D01*
X459260Y208893D01*
X456797Y209541D01*
X456718Y209722D01*
X456763Y209789D01*
X456933Y210645D01*
Y214695D01*
X456763Y215552D01*
X456278Y216278D01*
X455551Y216763D01*
X454695Y216933D01*
X450439D01*
Y239038D01*
X450439Y239038D01*
X450244Y240021D01*
X449687Y240855D01*
X441695Y248846D01*
Y270437D01*
X442262Y270550D01*
X443013Y271051D01*
X443514Y271802D01*
X443690Y272688D01*
Y289688D01*
X443514Y290574D01*
X443013Y291325D01*
X442262Y291826D01*
X441376Y292003D01*
X436876D01*
X435990Y291826D01*
X435239Y291325D01*
X434738Y290574D01*
X434562Y289688D01*
Y272688D01*
X434738Y271802D01*
X435239Y271051D01*
X435990Y270550D01*
X436557Y270437D01*
Y247782D01*
X436752Y246799D01*
X437309Y245965D01*
X445301Y237974D01*
Y216933D01*
X441045D01*
X440189Y216763D01*
X439463Y216278D01*
X438977Y215552D01*
X438807Y214695D01*
Y210645D01*
X438977Y209789D01*
X439463Y209063D01*
Y208278D01*
X438977Y207552D01*
X438807Y206695D01*
Y202645D01*
X438977Y201789D01*
X439337Y200670D01*
X438977Y199552D01*
X438807Y198695D01*
Y194645D01*
X438977Y193789D01*
X439337Y192670D01*
X438977Y191552D01*
X438807Y190695D01*
Y186645D01*
X438977Y185789D01*
X439463Y185063D01*
Y184278D01*
X438977Y183552D01*
X438807Y182695D01*
Y178645D01*
X438977Y177789D01*
X439117Y176624D01*
X438525Y175739D01*
X438318Y174695D01*
Y173670D01*
X447870D01*
X457422D01*
Y174695D01*
X457215Y175739D01*
X456973Y176101D01*
X457637Y177836D01*
X457859Y178101D01*
X461839D01*
Y175398D01*
X462026Y174454D01*
X462561Y173653D01*
X463362Y173118D01*
X464306Y172931D01*
X464437D01*
Y170267D01*
X463363Y170054D01*
X462426Y169428D01*
X461800Y168491D01*
X461581Y167385D01*
Y159510D01*
X461800Y158405D01*
X462426Y157468D01*
X463363Y156842D01*
X464469Y156622D01*
X475844D01*
X476949Y156842D01*
X477886Y157468D01*
X478433Y158287D01*
X478612Y158450D01*
X480689Y159099D01*
X482308Y158428D01*
X484504D01*
X486533Y159268D01*
X488086Y160821D01*
X488926Y162850D01*
Y165046D01*
X488086Y167075D01*
X486533Y168628D01*
X484504Y169468D01*
X482308D01*
X480505Y168721D01*
X480099Y168674D01*
X478032Y169209D01*
X477886Y169428D01*
X476949Y170054D01*
X475844Y170273D01*
X469575D01*
Y172931D01*
X469706D01*
X470650Y173118D01*
X471451Y173653D01*
X471986Y174454D01*
X472173Y175398D01*
Y183498D01*
X471986Y184442D01*
X471451Y185243D01*
X470650Y185778D01*
X469706Y185965D01*
X467446D01*
X466617Y187966D01*
X479043Y200391D01*
X479600Y201225D01*
X479795Y202208D01*
Y239038D01*
Y270437D01*
X480362Y270550D01*
X481113Y271051D01*
X481614Y271802D01*
X481791Y272688D01*
Y289688D01*
X481614Y290574D01*
X481113Y291325D01*
X480362Y291826D01*
X479476Y292003D01*
D02*
G37*
G36*
X52004Y209968D02*
X49808D01*
X47779Y209128D01*
X46226Y207575D01*
X45386Y205546D01*
Y203350D01*
X46226Y201321D01*
X47779Y199768D01*
X48337Y199537D01*
Y196015D01*
X46856D01*
X45912Y195828D01*
X45111Y195293D01*
X44576Y194492D01*
X44389Y193548D01*
Y188148D01*
X44576Y187204D01*
X45111Y186403D01*
X45912Y185868D01*
X46856Y185681D01*
X54956D01*
X55900Y185868D01*
X56701Y186403D01*
X57083Y186975D01*
X58156Y187098D01*
X59229Y186975D01*
X59611Y186403D01*
X60412Y185868D01*
X61356Y185681D01*
X69456D01*
X70400Y185868D01*
X71201Y186403D01*
X71736Y187204D01*
X71923Y188148D01*
Y193548D01*
X71736Y194492D01*
X71201Y195293D01*
X70400Y195828D01*
X69456Y196015D01*
X67975D01*
Y198787D01*
X68533Y199018D01*
X70086Y200571D01*
X70926Y202600D01*
Y204796D01*
X70086Y206825D01*
X68533Y208378D01*
X66504Y209218D01*
X64308D01*
X62279Y208378D01*
X60726Y206825D01*
X59886Y204796D01*
Y202600D01*
X60726Y200571D01*
X62279Y199018D01*
X62837Y198787D01*
Y196015D01*
X61356D01*
X60412Y195828D01*
X59611Y195293D01*
X59229Y194721D01*
X58156Y194598D01*
X57083Y194721D01*
X56701Y195293D01*
X55900Y195828D01*
X54956Y196015D01*
X53475D01*
Y199537D01*
X54033Y199768D01*
X55586Y201321D01*
X56426Y203350D01*
Y205546D01*
X55586Y207575D01*
X54033Y209128D01*
X52004Y209968D01*
D02*
G37*
G36*
X483506Y186455D02*
X481806D01*
Y180448D01*
X486463D01*
Y183498D01*
X486238Y184630D01*
X485597Y185589D01*
X484638Y186230D01*
X483506Y186455D01*
D02*
G37*
G36*
X479806D02*
X478106D01*
X476975Y186230D01*
X476015Y185589D01*
X475374Y184630D01*
X475149Y183498D01*
Y180448D01*
X479806D01*
Y186455D01*
D02*
G37*
G36*
X486463Y178448D02*
X481806D01*
Y172441D01*
X483506D01*
X484638Y172666D01*
X485597Y173307D01*
X486238Y174266D01*
X486463Y175398D01*
Y178448D01*
D02*
G37*
G36*
X479806D02*
X475149D01*
Y175398D01*
X475374Y174266D01*
X476015Y173307D01*
X476975Y172666D01*
X478106Y172441D01*
X479806D01*
Y178448D01*
D02*
G37*
G36*
X520319Y187220D02*
X517681D01*
X515132Y186537D01*
X512848Y185218D01*
X510982Y183352D01*
X509663Y181068D01*
X508980Y178519D01*
Y175881D01*
X509663Y173332D01*
X510982Y171048D01*
X512848Y169182D01*
X515132Y167863D01*
X517681Y167180D01*
X520319D01*
X522868Y167863D01*
X525153Y169182D01*
X527018Y171048D01*
X528337Y173332D01*
X529020Y175881D01*
Y178519D01*
X528337Y181068D01*
X527018Y183352D01*
X525153Y185218D01*
X522868Y186537D01*
X520319Y187220D01*
D02*
G37*
G36*
X311656Y171705D02*
X308606D01*
X307474Y171480D01*
X306515Y170839D01*
X305874Y169879D01*
X305649Y168748D01*
Y167048D01*
X311656D01*
Y171705D01*
D02*
G37*
G36*
X239656Y171005D02*
X236606D01*
X235474Y170780D01*
X234515Y170139D01*
X233874Y169179D01*
X233649Y168048D01*
Y166348D01*
X239656D01*
Y171005D01*
D02*
G37*
G36*
X143906Y164705D02*
X140856D01*
X139725Y164480D01*
X138765Y163839D01*
X138124Y162880D01*
X137899Y161748D01*
Y160048D01*
X143906D01*
Y164705D01*
D02*
G37*
G36*
Y158048D02*
X137899D01*
Y156348D01*
X138124Y155217D01*
X138765Y154257D01*
X139725Y153616D01*
X140856Y153391D01*
X143906D01*
Y158048D01*
D02*
G37*
G36*
X475844Y151763D02*
X471156D01*
Y145448D01*
X479221D01*
Y148386D01*
X478964Y149678D01*
X478232Y150774D01*
X477136Y151506D01*
X475844Y151763D01*
D02*
G37*
G36*
X469156D02*
X464468D01*
X463176Y151506D01*
X462080Y150774D01*
X461348Y149678D01*
X461091Y148386D01*
Y145448D01*
X469156D01*
Y151763D01*
D02*
G37*
G36*
X479221Y143448D02*
X471156D01*
Y137133D01*
X475844D01*
X477136Y137390D01*
X478232Y138122D01*
X478964Y139218D01*
X479221Y140511D01*
Y143448D01*
D02*
G37*
G36*
X469156D02*
X461091D01*
Y140511D01*
X461348Y139218D01*
X462080Y138122D01*
X463176Y137390D01*
X464468Y137133D01*
X469156D01*
Y143448D01*
D02*
G37*
G36*
X373870Y125223D02*
X372845D01*
X371801Y125015D01*
X370870Y124452D01*
X369939Y125015D01*
X368895Y125223D01*
X367870D01*
Y115670D01*
Y106118D01*
X368895D01*
X369939Y106325D01*
X370870Y106889D01*
X371801Y106325D01*
X372845Y106118D01*
X373870D01*
Y115670D01*
Y125223D01*
D02*
G37*
G36*
X365870D02*
X364845D01*
X363801Y125015D01*
X362870Y124452D01*
X361939Y125015D01*
X360895Y125223D01*
X359870D01*
Y115670D01*
Y106118D01*
X360895D01*
X361939Y106325D01*
X362870Y106889D01*
X363801Y106325D01*
X364845Y106118D01*
X365870D01*
Y115670D01*
Y125223D01*
D02*
G37*
G36*
X357870D02*
X356845D01*
X355801Y125015D01*
X354916Y124424D01*
X353751Y124563D01*
X352895Y124733D01*
X348845D01*
X347989Y124563D01*
X347263Y124078D01*
X346777Y123352D01*
X346607Y122495D01*
Y108845D01*
X346777Y107989D01*
X347263Y107263D01*
X347989Y106778D01*
X348845Y106607D01*
X352895D01*
X353751Y106778D01*
X354916Y106917D01*
X355801Y106325D01*
X356845Y106118D01*
X357870D01*
Y115670D01*
Y125223D01*
D02*
G37*
G36*
X322556Y101915D02*
X320856D01*
Y95908D01*
X325513D01*
Y98958D01*
X325288Y100090D01*
X324647Y101049D01*
X323688Y101690D01*
X322556Y101915D01*
D02*
G37*
G36*
X269496Y101915D02*
X267796D01*
X266665Y101690D01*
X265705Y101049D01*
X265064Y100090D01*
X264839Y98958D01*
Y95908D01*
X269496D01*
Y101915D01*
D02*
G37*
G36*
X172463Y96448D02*
X167806D01*
Y90441D01*
X169506D01*
X170638Y90666D01*
X171597Y91307D01*
X172238Y92267D01*
X172463Y93398D01*
Y96448D01*
D02*
G37*
G36*
X482804Y102032D02*
X480429D01*
X478135Y101418D01*
X476078Y100230D01*
X474398Y98551D01*
X473211Y96494D01*
X472596Y94200D01*
Y91825D01*
X473211Y89531D01*
X474398Y87474D01*
X476078Y85795D01*
X478135Y84607D01*
X480429Y83992D01*
X482804D01*
X485098Y84607D01*
X487155Y85795D01*
X488834Y87474D01*
X490022Y89531D01*
X490636Y91825D01*
Y94200D01*
X490022Y96494D01*
X488834Y98551D01*
X487155Y100230D01*
X485098Y101418D01*
X482804Y102032D01*
D02*
G37*
G36*
X522804Y102032D02*
X520429D01*
X518135Y101418D01*
X516078Y100230D01*
X514398Y98551D01*
X513211Y96494D01*
X512596Y94200D01*
Y91825D01*
X513211Y89531D01*
X514398Y87474D01*
X516078Y85795D01*
X518135Y84607D01*
X520429Y83992D01*
X522804D01*
X525098Y84607D01*
X527155Y85795D01*
X528834Y87474D01*
X530022Y89531D01*
X530636Y91825D01*
Y94200D01*
X530022Y96494D01*
X528834Y98551D01*
X527155Y100230D01*
X525098Y101418D01*
X522804Y102032D01*
D02*
G37*
G36*
X186456Y87505D02*
X183406D01*
Y82848D01*
X189413D01*
Y84548D01*
X189188Y85680D01*
X188547Y86639D01*
X187588Y87280D01*
X186456Y87505D01*
D02*
G37*
G36*
X181406D02*
X178356D01*
X177225Y87280D01*
X176265Y86639D01*
X175624Y85680D01*
X175399Y84548D01*
Y82848D01*
X181406D01*
Y87505D01*
D02*
G37*
G36*
X189413Y80848D02*
X183406D01*
Y76191D01*
X186456D01*
X187588Y76416D01*
X188547Y77057D01*
X189188Y78017D01*
X189413Y79148D01*
Y80848D01*
D02*
G37*
G36*
X181406D02*
X175399D01*
Y79148D01*
X175624Y78017D01*
X176265Y77057D01*
X177225Y76416D01*
X178356Y76191D01*
X181406D01*
Y80848D01*
D02*
G37*
G36*
X504843Y84072D02*
X502468D01*
X500174Y83457D01*
X498117Y82270D01*
X496438Y80590D01*
X495251Y78534D01*
X494636Y76239D01*
Y73864D01*
X495251Y71570D01*
X496438Y69514D01*
X498117Y67834D01*
X500174Y66647D01*
X502468Y66032D01*
X504843D01*
X507137Y66647D01*
X509194Y67834D01*
X510874Y69514D01*
X512061Y71570D01*
X512676Y73864D01*
Y76239D01*
X512061Y78534D01*
X510874Y80590D01*
X509194Y82270D01*
X507137Y83457D01*
X504843Y84072D01*
D02*
G37*
G36*
X464843D02*
X462468D01*
X460174Y83457D01*
X458117Y82270D01*
X456438Y80590D01*
X455251Y78534D01*
X454636Y76239D01*
Y73864D01*
X455251Y71570D01*
X456438Y69514D01*
X458117Y67834D01*
X460174Y66647D01*
X462468Y66032D01*
X464843D01*
X467137Y66647D01*
X469194Y67834D01*
X470874Y69514D01*
X472061Y71570D01*
X472676Y73864D01*
Y76239D01*
X472061Y78534D01*
X470874Y80590D01*
X469194Y82270D01*
X467137Y83457D01*
X464843Y84072D01*
D02*
G37*
G36*
X424843D02*
X422468D01*
X420174Y83457D01*
X418117Y82270D01*
X416438Y80590D01*
X415251Y78534D01*
X414636Y76239D01*
Y73864D01*
X415251Y71570D01*
X416438Y69514D01*
X418117Y67834D01*
X420174Y66647D01*
X422468Y66032D01*
X424843D01*
X427137Y66647D01*
X429194Y67834D01*
X430874Y69514D01*
X432061Y71570D01*
X432676Y73864D01*
Y76239D01*
X432061Y78534D01*
X430874Y80590D01*
X429194Y82270D01*
X427137Y83457D01*
X424843Y84072D01*
D02*
G37*
G36*
X384843Y84072D02*
X382468D01*
X380174Y83457D01*
X378117Y82270D01*
X376438Y80590D01*
X375251Y78534D01*
X374636Y76239D01*
Y73864D01*
X375251Y71570D01*
X376438Y69514D01*
X378117Y67834D01*
X380174Y66647D01*
X382468Y66032D01*
X384843D01*
X387137Y66647D01*
X389194Y67834D01*
X390874Y69514D01*
X392061Y71570D01*
X392676Y73864D01*
Y76239D01*
X392061Y78534D01*
X390874Y80590D01*
X389194Y82270D01*
X387137Y83457D01*
X384843Y84072D01*
D02*
G37*
G36*
X231094Y69513D02*
X226406D01*
Y63198D01*
X234471D01*
Y66136D01*
X234214Y67428D01*
X233482Y68524D01*
X232386Y69256D01*
X231094Y69513D01*
D02*
G37*
G36*
X234471Y61198D02*
X226406D01*
Y54883D01*
X231094D01*
X232386Y55140D01*
X233482Y55872D01*
X234214Y56968D01*
X234471Y58260D01*
Y61198D01*
D02*
G37*
G36*
X224406D02*
X216341D01*
Y58260D01*
X216598Y56968D01*
X217330Y55872D01*
X218426Y55140D01*
X219718Y54883D01*
X224406D01*
Y61198D01*
D02*
G37*
G36*
X46280Y48673D02*
X43230D01*
Y44016D01*
X49237D01*
Y45716D01*
X49012Y46847D01*
X48371Y47807D01*
X47411Y48448D01*
X46280Y48673D01*
D02*
G37*
G36*
X41230D02*
X38180D01*
X37048Y48448D01*
X36089Y47807D01*
X35448Y46847D01*
X35223Y45716D01*
Y44016D01*
X41230D01*
Y48673D01*
D02*
G37*
G36*
X49237Y42016D02*
X43230D01*
Y37359D01*
X46280D01*
X47411Y37584D01*
X48371Y38225D01*
X49012Y39184D01*
X49237Y40316D01*
Y42016D01*
D02*
G37*
G36*
X41230D02*
X35223D01*
Y40316D01*
X35448Y39184D01*
X36089Y38225D01*
X37048Y37584D01*
X38180Y37359D01*
X41230D01*
Y42016D01*
D02*
G37*
%LPD*%
G36*
X512848Y270782D02*
X515132Y269463D01*
X517681Y268780D01*
X520319D01*
X522868Y269463D01*
X525153Y270782D01*
X525857Y271486D01*
X527857Y270658D01*
Y240490D01*
X524031Y236665D01*
X522868Y237337D01*
X520319Y238020D01*
X517681D01*
X515132Y237337D01*
X512848Y236018D01*
X511845Y235016D01*
X509845Y235844D01*
Y270956D01*
X511845Y271784D01*
X512848Y270782D01*
D02*
G37*
G36*
X188679Y205291D02*
X195337Y198634D01*
Y156402D01*
X194281Y155803D01*
X193337Y155459D01*
X191504Y156218D01*
X189308D01*
X187279Y155378D01*
X186838Y154936D01*
X185268Y154164D01*
X184224Y154936D01*
X183533Y155628D01*
X181504Y156468D01*
X179308D01*
X178751Y156237D01*
X176921Y158067D01*
X176087Y158624D01*
X175365Y158767D01*
X174715Y159657D01*
X174175Y160819D01*
X174298Y161437D01*
Y161750D01*
X163750D01*
Y163750D01*
X174298D01*
Y164062D01*
X174175Y164681D01*
X175047Y166384D01*
X175250Y166681D01*
X176233Y166876D01*
X177067Y167433D01*
X183373Y173739D01*
X183930Y174573D01*
X184125Y175556D01*
Y202931D01*
X184256D01*
X185200Y203118D01*
X186001Y203653D01*
X186536Y204454D01*
X186561Y204581D01*
X188478Y205302D01*
X188679Y205291D01*
D02*
G37*
D10*
X469619Y556750D02*
X517120Y509249D01*
X133250Y556750D02*
X469619D01*
X120913Y544413D02*
X133250Y556750D01*
X120913Y509249D02*
Y544413D01*
Y509249D02*
X145351D01*
X164314Y487786D02*
Y490286D01*
X145351Y509249D02*
X164314Y490286D01*
X48998Y509249D02*
X120913D01*
X48998Y448040D02*
X49442Y447596D01*
X48998Y448040D02*
Y509249D01*
X49442Y447596D02*
X64257D01*
X40766Y438920D02*
X49442Y447596D01*
X39416Y438920D02*
X40766D01*
D11*
X507276Y214324D02*
X519000Y202600D01*
X507276Y214324D02*
Y282633D01*
X519000Y228000D02*
X530426Y239426D01*
Y287043D01*
X524289Y293180D02*
X530426Y287043D01*
X509749Y293180D02*
X524289D01*
X499711Y303218D02*
X509749Y293180D01*
X398106Y303218D02*
X499711D01*
X388326Y281188D02*
Y293438D01*
X500752Y322448D02*
X519000Y304200D01*
X339656Y322448D02*
X500752D01*
X388326Y293438D02*
X398106Y303218D01*
X388326Y269528D02*
Y281188D01*
X116666Y121130D02*
X119598Y118198D01*
X152756D01*
X101926Y64850D02*
X102000Y64776D01*
X101926Y64850D02*
Y89005D01*
X106426Y64850D02*
X106500Y64776D01*
X106426Y64850D02*
Y89477D01*
X108500Y57164D02*
Y62776D01*
X100000Y55641D02*
X104240Y51401D01*
X107667Y57164D02*
X108500Y56331D01*
X106500Y64776D02*
X108500Y62776D01*
Y56331D02*
Y57164D01*
X100000Y62776D02*
X102000Y64776D01*
X100000Y55641D02*
Y56331D01*
Y62776D01*
X108916Y111130D02*
X117666D01*
X106426Y113620D02*
X108916Y111130D01*
X106426Y108640D02*
X108916Y111130D01*
X106426Y113620D02*
Y152640D01*
X107666Y153880D01*
Y154630D01*
X110166Y157130D01*
X110916D01*
X106426Y89477D02*
Y108640D01*
X104240Y47099D02*
Y51070D01*
Y47099D02*
X108500Y42839D01*
Y42500D02*
Y42839D01*
X99666Y111130D02*
X101926Y108870D01*
X92416Y111130D02*
X99666D01*
X101926Y113390D01*
Y152620D01*
Y89005D02*
Y108870D01*
X100666Y153880D02*
X101926Y152620D01*
X100666Y153880D02*
Y154630D01*
X98166Y157130D02*
X100666Y154630D01*
X97416Y157130D02*
X98166D01*
X42230Y81922D02*
X42235Y81926D01*
X42230Y56816D02*
Y81922D01*
X91416Y81128D02*
X91490Y81054D01*
Y56096D02*
Y81054D01*
X182406Y44005D02*
Y66698D01*
X165669Y27269D02*
X182406Y44005D01*
X324826Y397868D02*
X326096Y399138D01*
X324826Y375438D02*
Y397868D01*
X326170Y399138D02*
Y464253D01*
X436024Y392000D02*
X439126Y388898D01*
X393371Y392000D02*
X436024D01*
X336965Y448406D02*
X393371Y392000D01*
X336965Y448406D02*
Y487717D01*
X380214Y473713D02*
X384177Y469750D01*
X468000D01*
X369251Y462749D02*
X464691D01*
X358624Y473376D02*
X369251Y462749D01*
X358624Y473376D02*
Y487786D01*
X380214Y473713D02*
Y487786D01*
X464691Y462749D02*
X478750Y448690D01*
Y417782D02*
Y448690D01*
X451826Y390932D02*
X478676Y417782D01*
X451826Y374688D02*
Y390932D01*
X468000Y469750D02*
X485500Y452250D01*
Y415782D02*
Y452250D01*
X464526Y394882D02*
X485426Y415782D01*
X464526Y374688D02*
Y394882D01*
X460964Y487786D02*
X492000Y456750D01*
X477226Y397946D02*
X491926Y412646D01*
X492000D02*
Y456750D01*
X401804Y487786D02*
X460964D01*
X144176Y240282D02*
X187176D01*
X228352Y252282D02*
X228518Y252448D01*
X200426Y252282D02*
X228352D01*
X197676Y255032D02*
X200426Y252282D01*
X144176Y255032D02*
X197676D01*
X187176Y240282D02*
X218010Y209448D01*
X228506D01*
X205017Y198987D02*
Y213587D01*
X195656Y222948D02*
X205017Y213587D01*
X115406Y222948D02*
X195656D01*
X95656Y203198D02*
X115406Y222948D01*
X50906Y192198D02*
Y204448D01*
X65406Y190848D02*
Y203698D01*
X91416Y81128D02*
Y91792D01*
X87676Y95532D02*
X91416Y91792D01*
X50490Y95532D02*
X87676D01*
X42235Y87276D02*
X50490Y95532D01*
X144837Y27173D02*
X144933Y27269D01*
X124943Y27173D02*
X144837D01*
X109606Y188070D02*
X111484Y189948D01*
X130977D01*
X109642Y188034D02*
X110987Y189380D01*
X109606Y188070D02*
X110666Y189130D01*
X108542Y192663D02*
X109827Y193948D01*
X129249D01*
X108542Y192663D02*
X109259Y193380D01*
X89917Y120547D02*
X90000Y120464D01*
X74769Y120547D02*
X89917D01*
X74686Y120464D02*
X74769Y120547D01*
X490211Y299698D02*
X507276Y282633D01*
X409616Y299698D02*
X490211D01*
X489926Y259988D02*
X490676D01*
X500276Y262009D02*
Y269438D01*
X498255Y259988D02*
X500276Y262009D01*
X336965Y487717D02*
X337034Y487786D01*
X325944Y464478D02*
X326170Y464253D01*
X315375Y487717D02*
X315444Y487786D01*
X315375Y420169D02*
Y487717D01*
X315444Y506822D02*
Y530712D01*
Y506822D02*
X325944Y496322D01*
Y464478D02*
Y496322D01*
X207425Y487717D02*
X207494Y487786D01*
X207425Y421283D02*
Y487717D01*
X185835D02*
X185904Y487786D01*
X185835Y356513D02*
Y487717D01*
X42230Y29916D02*
Y43016D01*
X42235Y81926D02*
Y87276D01*
X83000Y42500D02*
Y56000D01*
X39666Y415770D02*
Y425220D01*
X64666Y415770D02*
Y427995D01*
X144933Y27269D02*
X165669D01*
X117000Y35115D02*
X124943Y27173D01*
X117000Y35115D02*
Y42500D01*
X241906Y54448D02*
Y60698D01*
X240406Y62198D02*
X241906Y60698D01*
X225406Y62198D02*
X240406D01*
X182406Y66698D02*
X182406Y66698D01*
X182406Y83198D02*
Y87198D01*
X179156Y90448D02*
X182406Y87198D01*
X116666Y121130D02*
Y130130D01*
X163750Y143250D02*
X163776Y143224D01*
X179156Y90448D02*
Y97448D01*
X168906D02*
X179156D01*
X168906Y97448D02*
X168906Y97448D01*
X167906Y118198D02*
X178906D01*
X208406Y119948D02*
Y132029D01*
X195743Y130448D02*
X195743D01*
X189441Y136750D02*
X195743Y130448D01*
X237156Y131948D02*
Y137974D01*
X163750Y136750D02*
X179212Y136750D01*
X209403Y136750D02*
X220750Y136750D01*
X179212D02*
X189441D01*
X197906Y142529D02*
X208406Y132029D01*
X206156Y139997D02*
X209403Y136750D01*
X231906Y143224D02*
X237156Y137974D01*
X163776Y143224D02*
X182932D01*
X220026D02*
X231906D01*
X220750Y149750D02*
X240208D01*
X240656Y150198D01*
X206156Y139997D02*
Y172217D01*
X220750Y156250D02*
X231208D01*
X233484Y158526D01*
X249210D01*
X237656Y163698D02*
X240784Y166826D01*
X234078D02*
X240784D01*
X241534D01*
X231556Y169348D02*
X234078Y166826D01*
X57406Y159448D02*
X78656D01*
X50906Y165948D02*
X57406Y159448D01*
X50906Y165948D02*
Y175698D01*
X97416Y173630D02*
X98166D01*
X100666Y176130D01*
X65406Y175698D02*
X81287D01*
X100666Y176130D02*
Y176880D01*
X106426Y178120D02*
X107666Y176880D01*
X100666D02*
X102426Y178640D01*
X106426Y178120D02*
Y184890D01*
X81287Y175698D02*
X95656Y190067D01*
X102426Y178640D02*
Y186547D01*
X108542Y192663D01*
X144906Y145448D02*
Y154698D01*
X147962D01*
X148309Y155045D01*
X144906Y157698D02*
X145656D01*
X148656Y160698D01*
Y161448D01*
X149958Y162750D01*
X143326Y174108D02*
X144076Y174108D01*
X110166Y173630D02*
X110916D01*
X144076Y174108D02*
X145343Y175375D01*
X107666Y176130D02*
X110166Y173630D01*
X107666Y176130D02*
Y176880D01*
X143326Y174108D02*
Y180608D01*
X144968Y182250D01*
X106426Y184890D02*
X108546Y187010D01*
X108617D01*
X108546D02*
X109606Y188070D01*
X108617Y187010D02*
X109642Y188034D01*
X130977Y189948D02*
X147977D01*
X152143D01*
X129249Y193948D02*
X146656D01*
X152039D01*
X95656Y190067D02*
Y203198D01*
X197906Y142529D02*
Y199698D01*
X175250Y169250D02*
X181556Y175556D01*
X145718Y175750D02*
X163750Y175750D01*
X181556Y208098D02*
X182906Y209448D01*
X145718Y182250D02*
X163750Y182250D01*
X205406Y188698D02*
X205432Y188724D01*
X153341Y188750D02*
X163750D01*
X152143Y189948D02*
X153341Y188750D01*
X181556Y175556D02*
Y208098D01*
X152039Y193948D02*
X153341Y195250D01*
X163750D01*
X188156Y209448D02*
X197906Y199698D01*
X240784Y166826D02*
X243656Y169698D01*
X220750Y169250D02*
X221500Y168500D01*
X217228Y169348D02*
X231556D01*
X206156Y172217D02*
X209689Y175750D01*
X220750Y175750D01*
X205432Y188724D02*
X220724D01*
X220750Y188750D01*
X208754Y195250D02*
X220750D01*
X205017Y198987D02*
X208754Y195250D01*
X145656Y209448D02*
X166548D01*
X182906Y209448D02*
X188156D01*
X216656Y223448D02*
X224656D01*
X210526Y280438D02*
X210716Y280628D01*
Y298758D01*
X210906Y298948D01*
X216656Y237948D02*
X224656D01*
X281556Y164348D02*
Y165698D01*
X243656Y169698D02*
X244906D01*
X248456Y173248D01*
X281556Y167048D02*
Y178848D01*
X248456Y173248D02*
X252456D01*
X253406Y174198D01*
X281556Y178848D02*
X282906Y180198D01*
X258406Y180198D02*
X266406D01*
X281556Y181548D02*
X282906Y180198D01*
X253406Y185198D02*
X258406Y180198D01*
X274656Y131198D02*
X274656Y131198D01*
X268156Y112948D02*
Y114867D01*
X274656Y121367D01*
Y131198D01*
X285646Y94158D02*
Y94908D01*
X320576Y95538D02*
X321206Y94908D01*
X285646Y94908D02*
Y103438D01*
X320576Y95538D02*
Y108878D01*
X304706Y94908D02*
Y112498D01*
X269146Y95658D02*
X301964Y128476D01*
X285646Y103438D02*
X308757Y126549D01*
X304706Y112498D02*
X315906Y123698D01*
X287156Y131198D02*
X287156Y131198D01*
X262156Y140698D02*
X287156D01*
X262156Y150198D02*
Y158748D01*
X249210Y158526D02*
X253382Y162698D01*
X262156Y158748D02*
X266406Y162998D01*
Y165698D01*
X315906Y123698D02*
Y140410D01*
X308757Y126549D02*
Y147049D01*
X333668Y140670D02*
X333870D01*
X301964Y128476D02*
Y155006D01*
X315906Y140410D02*
X324166Y148670D01*
X333870D01*
X308757Y147049D02*
X318378Y156670D01*
X287156Y150198D02*
Y158748D01*
X302069Y154901D02*
X310953D01*
X301964Y155006D02*
X302069Y154901D01*
X301964Y155006D02*
X301964D01*
X310953Y154901D02*
X312656Y156605D01*
X318378Y156670D02*
X333870D01*
X312656Y156605D02*
Y166048D01*
X281556Y164348D02*
X287156Y158748D01*
X310681Y163473D02*
Y163723D01*
X315338Y164670D02*
X333870D01*
X321801Y172670D02*
X333870D01*
X316583Y177888D02*
X321801Y172670D01*
X358870Y115468D02*
Y115670D01*
X374870Y115468D02*
Y115670D01*
X366870Y115872D02*
X366888Y115890D01*
X406870Y115670D02*
Y125734D01*
X358870Y115670D02*
X358870Y129260D01*
X374870Y115670D02*
X374870Y129260D01*
X366888Y115890D02*
Y136930D01*
X403406Y129198D02*
X406870Y125734D01*
X391406Y129198D02*
X403406D01*
X384906Y135698D02*
X391406Y129198D01*
X384906Y135698D02*
Y136198D01*
X398156Y136698D02*
X405656D01*
X366888Y136930D02*
X366906Y136948D01*
X414870Y115670D02*
Y127484D01*
X430870Y115670D02*
Y127641D01*
X422870Y115670D02*
Y129984D01*
X405656Y136698D02*
X414870Y127484D01*
X431497Y132670D02*
X447870D01*
X405781Y147073D02*
X422870Y129984D01*
X470156Y133048D02*
X470156Y144448D01*
X333870Y140670D02*
X347460Y140670D01*
X404063Y154448D02*
X430870Y127641D01*
X402720Y161448D02*
X431497Y132670D01*
X363031Y147073D02*
X405781D01*
X350156Y159948D02*
X363031Y147073D01*
X393406Y154448D02*
X404063D01*
X396156Y174698D02*
X430184Y140670D01*
X384906Y161448D02*
X402720D01*
X406156Y174698D02*
X432184Y148670D01*
X350156Y159948D02*
Y171198D01*
X416406Y174698D02*
X434525Y156579D01*
X362926Y165378D02*
Y171728D01*
X350156Y171198D02*
X350406Y171448D01*
X416406Y185198D02*
X416656D01*
X437184Y164670D01*
X345984Y188670D02*
X362926Y171728D01*
X346874Y196670D02*
X370546Y172998D01*
X378166Y180618D02*
Y189058D01*
X430184Y140670D02*
X447870D01*
X432184Y148670D02*
X447870D01*
X434525Y156579D02*
X447779D01*
X447870Y156670D01*
X468906Y163948D02*
X483406D01*
X437184Y164670D02*
X447870D01*
X433406Y178259D02*
Y185698D01*
X467006Y165848D02*
X468906Y163948D01*
X447570Y172970D02*
X447870Y172670D01*
X438694Y172970D02*
X447570D01*
X467006Y165848D02*
Y182300D01*
X433406Y178259D02*
X438694Y172970D01*
X480806Y179448D02*
X480981Y179623D01*
X447870Y180670D02*
X465276D01*
X466956Y182351D01*
X467006Y182300D01*
X426426Y267718D02*
Y281188D01*
X439126Y247782D02*
Y281188D01*
Y247782D02*
X447870Y239038D01*
X439126Y374688D02*
Y388898D01*
X243656Y252470D02*
X243668Y252458D01*
X243656Y237948D02*
X251360D01*
X254860Y234448D01*
X262656D01*
X278156Y239272D02*
Y251198D01*
X401026Y354608D02*
Y374688D01*
X426426Y354608D02*
Y374688D01*
X388326Y269528D02*
X390870Y266984D01*
Y229670D02*
Y266984D01*
X398870Y229670D02*
Y267480D01*
X401026Y269636D01*
Y281188D01*
X406870Y229670D02*
Y239038D01*
Y262770D01*
X413726Y269625D01*
Y281188D01*
X414870Y229670D02*
Y239038D01*
Y256162D01*
X426426Y267718D01*
X447870Y196670D02*
X461528D01*
X451826Y249198D02*
X461986Y239038D01*
X451826Y249198D02*
Y281188D01*
X463688Y188670D02*
X477226Y202208D01*
X447870Y204670D02*
X459368D01*
X461986Y207288D01*
X461528Y196670D02*
X468336Y203478D01*
X464526Y248078D02*
X468336Y244268D01*
X447870Y188670D02*
X463688D01*
X461986Y207288D02*
Y239038D01*
X468336Y203478D02*
Y239038D01*
X464526Y248078D02*
Y281188D01*
X468336Y239038D02*
Y244268D01*
X477226Y202208D02*
Y239038D01*
X489906Y234698D02*
Y243670D01*
X489926Y243690D01*
Y259988D02*
X498255D01*
X477226Y239038D02*
Y281188D01*
X489926Y259988D02*
Y281188D01*
X477226Y374688D02*
Y397946D01*
X451826Y374688D02*
X451826Y374688D01*
X479766Y338098D02*
X489926Y348258D01*
Y374688D01*
X199096Y343178D02*
X233386D01*
X185761Y356513D02*
X199096Y343178D01*
X210526Y353338D02*
Y375438D01*
X243656Y252470D02*
Y263948D01*
X235791Y280573D02*
X235926Y280438D01*
X235791Y280573D02*
Y298563D01*
X235656Y298698D02*
X235791Y298563D01*
X233386Y343178D02*
X248626Y358418D01*
X235926Y375438D02*
Y392708D01*
X207351Y421283D02*
X235926Y392708D01*
X149958Y162750D02*
X163750D01*
X182932Y143224D02*
X190406Y150698D01*
X175104Y156250D02*
X180406Y150948D01*
X163750Y156250D02*
X175104D01*
X163750Y169250D02*
X175250D01*
X248626Y358418D02*
Y375438D01*
X248626Y280438D02*
X248641Y280453D01*
Y298683D01*
X248656Y298698D01*
X261156D02*
X261241Y298613D01*
Y280523D02*
Y298613D01*
Y280523D02*
X261326Y280438D01*
X273656Y298698D02*
X273841Y298513D01*
Y280623D02*
Y298513D01*
Y280623D02*
X274026Y280438D01*
Y375438D02*
X274026Y375438D01*
X243656Y199120D02*
Y209448D01*
Y223448D02*
Y237948D01*
Y199120D02*
X246406Y196370D01*
X252484D01*
X253406Y195448D01*
X262656Y234448D02*
X262656Y234448D01*
Y217698D02*
Y234448D01*
X266406Y194948D02*
Y205698D01*
X281556Y181548D02*
Y193598D01*
X282906Y194948D01*
X278156Y239272D02*
X290906Y226522D01*
Y217698D02*
Y226522D01*
X294346Y233258D02*
X314934Y212670D01*
X312956Y181648D02*
Y189499D01*
X317406Y193949D01*
Y194948D01*
X314934Y212670D02*
X333870D01*
Y204670D02*
X333909Y204709D01*
X401026Y281188D02*
Y291108D01*
X409616Y299698D01*
X345146Y338098D02*
X479766D01*
X413726Y354608D02*
Y374688D01*
X426426Y354608D02*
X426426Y354608D01*
Y353338D02*
Y354608D01*
X334558Y259358D02*
X334656Y259260D01*
X333870Y188670D02*
X345984D01*
X333870Y196670D02*
X346874D01*
X333909Y204709D02*
X351535D01*
X350870Y216354D02*
Y229670D01*
X351535Y204709D02*
X362926Y193318D01*
X358870Y215154D02*
Y229670D01*
X350870Y216354D02*
X378166Y189058D01*
X366870Y214774D02*
Y229670D01*
X358870Y215154D02*
X385786Y188238D01*
X374870Y215664D02*
Y229670D01*
X366870Y214774D02*
X385786Y195858D01*
X374870Y215664D02*
X387056Y203478D01*
X385786Y195858D02*
X393406D01*
X387056Y203478D02*
X401026D01*
X447870Y212670D02*
Y239038D01*
X334656Y246948D02*
Y259260D01*
X339468Y238448D02*
X347718Y246698D01*
X350226Y280438D02*
X350226Y280438D01*
Y259716D02*
Y280438D01*
Y259716D02*
X350494Y259448D01*
X361906D01*
X347718Y246698D02*
X376680D01*
X382870Y240508D01*
Y229670D02*
Y240508D01*
X299156Y298698D02*
X299291Y298563D01*
Y280573D02*
Y298563D01*
Y280573D02*
X299426Y280438D01*
X312126Y280438D02*
X312141Y280453D01*
Y298683D01*
X312156Y298698D01*
X324656D02*
X324741Y298613D01*
Y280523D02*
Y298613D01*
Y280523D02*
X324826Y280438D01*
X261326Y375438D02*
Y401598D01*
X270216Y410488D01*
X274026Y375438D02*
Y397788D01*
X286726Y375438D02*
Y397788D01*
X270216Y410488D02*
X305620D01*
X299426Y375438D02*
Y397788D01*
X299426Y397788D01*
X305620Y410488D02*
X315301Y420169D01*
X312126Y375438D02*
Y397788D01*
X327906Y334198D02*
X339656Y322448D01*
X337526Y345718D02*
Y375438D01*
Y345718D02*
X345146Y338098D01*
X350226Y352068D02*
Y375438D01*
X375626Y281188D02*
Y312698D01*
Y281188D02*
X375626Y281188D01*
X375656Y353340D02*
Y365198D01*
X388326Y354608D02*
Y374688D01*
X286726Y264878D02*
Y280438D01*
X286726Y280438D01*
X286726Y264878D02*
X294346Y257258D01*
Y233258D02*
Y257258D01*
X310906Y246448D02*
X318906Y238448D01*
X339468D01*
X258656Y55040D02*
X263406Y50290D01*
X258656Y55040D02*
Y83668D01*
X274676Y68238D02*
Y83238D01*
X282596Y91158D01*
X258656Y83668D02*
X266146Y91158D01*
X282596Y91158D02*
X282646D01*
X266146Y91158D02*
Y91908D01*
X282646Y91158D02*
X285646Y94158D01*
X266146Y91908D02*
X269146Y94908D01*
X256406Y94698D02*
X268936D01*
X263406Y50290D02*
X328028D01*
X331406Y53668D01*
Y83958D01*
X315676Y68238D02*
Y83238D01*
X307756Y91158D02*
X315676Y83238D01*
X321206Y94158D02*
X331406Y83958D01*
X307706Y91158D02*
X307756D01*
X304706Y94158D02*
X307706Y91158D01*
X321206Y94158D02*
Y94908D01*
X304706Y94158D02*
Y94908D01*
X268936Y94698D02*
X269146Y94908D01*
D15*
X116666Y111130D02*
D03*
X91666D02*
D03*
Y130130D02*
D03*
X116666D02*
D03*
X91666Y120630D02*
D03*
X262156Y131198D02*
D03*
X262156Y140698D02*
D03*
Y150198D02*
D03*
X287156Y150198D02*
D03*
X287156Y140698D02*
D03*
Y131198D02*
D03*
D16*
X110916Y158480D02*
D03*
X97416D02*
D03*
X489926Y258638D02*
D03*
Y244838D02*
D03*
X42230Y56816D02*
D03*
Y43016D02*
D03*
X39416Y438920D02*
D03*
Y425120D02*
D03*
X97416Y172280D02*
D03*
X110916D02*
D03*
X144906Y172848D02*
D03*
Y159048D02*
D03*
X203156Y67948D02*
D03*
X203156Y81848D02*
D03*
X182406Y68048D02*
D03*
Y81848D02*
D03*
X240656Y151548D02*
D03*
Y165348D02*
D03*
X50906Y177048D02*
D03*
Y190848D02*
D03*
X65406Y177048D02*
D03*
Y190848D02*
D03*
X312656Y179848D02*
D03*
Y166048D02*
D03*
D17*
X430870Y115670D02*
D03*
X422870D02*
D03*
X414870D02*
D03*
X406870D02*
D03*
X398870D02*
D03*
X390870D02*
D03*
X382870D02*
D03*
X350870D02*
D03*
Y229670D02*
D03*
X358870D02*
D03*
X366870D02*
D03*
X374870D02*
D03*
X382870D02*
D03*
X390870D02*
D03*
X398870D02*
D03*
X406870D02*
D03*
X414870D02*
D03*
X422870D02*
D03*
X430870D02*
D03*
X358870Y115670D02*
D03*
X366870D02*
D03*
X374870D02*
D03*
D18*
X333870Y132670D02*
D03*
Y148670D02*
D03*
Y156670D02*
D03*
Y172670D02*
D03*
Y180670D02*
D03*
Y188670D02*
D03*
Y196670D02*
D03*
Y204670D02*
D03*
Y212670D02*
D03*
X447870D02*
D03*
Y204670D02*
D03*
Y196670D02*
D03*
Y188670D02*
D03*
Y180670D02*
D03*
Y164670D02*
D03*
Y156670D02*
D03*
Y148670D02*
D03*
Y140670D02*
D03*
Y132670D02*
D03*
X333870Y140670D02*
D03*
X333870Y164670D02*
D03*
X447870Y172670D02*
D03*
D19*
X375626Y281188D02*
D03*
X388326D02*
D03*
X401026D02*
D03*
X413726D02*
D03*
X426426D02*
D03*
X439126D02*
D03*
X451826D02*
D03*
X464526D02*
D03*
X477226D02*
D03*
X489926D02*
D03*
X388326Y374688D02*
D03*
X401026D02*
D03*
X413726D02*
D03*
X426426D02*
D03*
X439126D02*
D03*
X451826D02*
D03*
X464526D02*
D03*
X477226D02*
D03*
X489926D02*
D03*
X375626D02*
D03*
D20*
X467006Y179448D02*
D03*
X480806D02*
D03*
X153006Y97448D02*
D03*
X166806D02*
D03*
X152756Y118198D02*
D03*
X166556D02*
D03*
X284296Y94908D02*
D03*
X270496D02*
D03*
X281556Y165698D02*
D03*
X267756D02*
D03*
X181556Y209448D02*
D03*
X167756D02*
D03*
X242306Y209448D02*
D03*
X228506D02*
D03*
Y223448D02*
D03*
X242306D02*
D03*
Y237948D02*
D03*
X228506D02*
D03*
X242318Y252448D02*
D03*
X228518D02*
D03*
X306056Y94908D02*
D03*
X319856D02*
D03*
X349506Y259358D02*
D03*
X335706D02*
D03*
X267756Y180198D02*
D03*
X281556D02*
D03*
X267756Y194948D02*
D03*
X281556D02*
D03*
D21*
X350226Y375438D02*
D03*
X337526D02*
D03*
X324826D02*
D03*
X312126D02*
D03*
X299426D02*
D03*
X286726D02*
D03*
X274026D02*
D03*
X261326D02*
D03*
X248626D02*
D03*
X235926D02*
D03*
X223226D02*
D03*
X350226Y280438D02*
D03*
X337526D02*
D03*
X324826D02*
D03*
X312126D02*
D03*
X299426D02*
D03*
X286726D02*
D03*
X274026D02*
D03*
X261326D02*
D03*
X248626D02*
D03*
X235926D02*
D03*
X223226D02*
D03*
X210526D02*
D03*
Y375438D02*
D03*
D22*
X64257Y447596D02*
D03*
Y428596D02*
D03*
X225406Y81198D02*
D03*
Y62198D02*
D03*
X470156Y163448D02*
D03*
X470156Y144448D02*
D03*
D23*
X274676Y68238D02*
D03*
X315676D02*
D03*
D24*
X249156Y112948D02*
D03*
X268156D02*
D03*
D25*
X163750Y136750D02*
D03*
X163750Y143250D02*
D03*
Y149750D02*
D03*
X163750Y156250D02*
D03*
X163750Y169250D02*
D03*
X163750Y175750D02*
D03*
Y182250D02*
D03*
Y188750D02*
D03*
Y195250D02*
D03*
X220750D02*
D03*
X220750Y188750D02*
D03*
Y182250D02*
D03*
X220750Y175750D02*
D03*
X220750Y162750D02*
D03*
Y156250D02*
D03*
X220750Y149750D02*
D03*
Y143250D02*
D03*
Y136750D02*
D03*
X163750Y162750D02*
D03*
X220750Y169250D02*
D03*
D26*
X278156Y217698D02*
D03*
X262656D02*
D03*
X278156Y251198D02*
D03*
D27*
X262656D02*
D03*
D52*
X125490Y56096D02*
X125512Y56118D01*
Y92368D01*
X125490Y42596D02*
Y56096D01*
X125512Y92368D02*
X130592Y97448D01*
X153006D01*
X203156Y67948D02*
X203756Y68548D01*
X210375D01*
X216275Y74448D01*
X216906D01*
X223656Y81198D01*
X225406D01*
Y101225D01*
X203156Y81848D02*
Y94448D01*
X153006Y98798D02*
X157781Y103573D01*
Y104118D01*
X161486Y107823D01*
X152156Y118948D02*
X157599Y124391D01*
Y124405D01*
X161392Y128198D01*
X189781Y107823D02*
X203156Y94448D01*
X217656Y108975D02*
X225406Y101225D01*
X237629Y113448D01*
X161486Y107823D02*
X189781D01*
X217656Y108975D02*
Y110698D01*
X209906Y118448D02*
X217656Y110698D01*
X191576Y118448D02*
X209906D01*
X181826Y128198D02*
X191576Y118448D01*
X161392Y128198D02*
X181826D01*
X237629Y113448D02*
X251406D01*
X249156Y112948D02*
Y135695D01*
X262156Y131198D02*
X274656D01*
X287156D01*
X249156Y135695D02*
X251406Y137945D01*
Y150198D01*
X260655D01*
X250656Y150948D02*
X251406Y150198D01*
X240656Y150948D02*
X250656D01*
D53*
X99990Y42596D02*
D03*
X108490Y56096D02*
D03*
Y42596D02*
D03*
X99990Y56096D02*
D03*
X74490Y42596D02*
D03*
X82990D02*
D03*
X91490D02*
D03*
X116990D02*
D03*
X125490D02*
D03*
X133990D02*
D03*
Y56096D02*
D03*
X125490D02*
D03*
X116990D02*
D03*
X91490D02*
D03*
X82990D02*
D03*
X74490D02*
D03*
D54*
X423656Y75052D02*
D03*
X441616Y93012D02*
D03*
X503656Y75052D02*
D03*
X521616Y93012D02*
D03*
X463656Y75052D02*
D03*
X481616Y93012D02*
D03*
X383656Y75052D02*
D03*
X401616Y93012D02*
D03*
D55*
X147490Y46296D02*
D03*
X60990D02*
D03*
D56*
X147490Y12496D02*
D03*
X60990D02*
D03*
D57*
X164314Y530712D02*
D03*
X185904D02*
D03*
X207494D02*
D03*
X229084D02*
D03*
X250674D02*
D03*
X272264D02*
D03*
X293854D02*
D03*
X315444D02*
D03*
X337034D02*
D03*
X358624D02*
D03*
X380214D02*
D03*
X401804D02*
D03*
X164314Y487786D02*
D03*
X185904D02*
D03*
X207494D02*
D03*
X229084D02*
D03*
X250674D02*
D03*
X272264D02*
D03*
X293854D02*
D03*
X315444D02*
D03*
X337034D02*
D03*
X358624D02*
D03*
X380214D02*
D03*
X401804D02*
D03*
D58*
X48998Y509249D02*
D03*
X517120D02*
D03*
X143050Y428300D02*
D03*
X423050D02*
D03*
D59*
X519000Y304200D02*
D03*
D60*
Y278800D02*
D03*
X519000Y228000D02*
D03*
X519000Y202600D02*
D03*
Y177200D02*
D03*
X519000Y253400D02*
D03*
D61*
X144176Y240282D02*
D03*
Y255032D02*
D03*
X50906Y204448D02*
D03*
X65406Y203698D02*
D03*
X74686Y120464D02*
D03*
X23230Y37166D02*
D03*
Y112166D02*
D03*
Y87166D02*
D03*
Y62166D02*
D03*
X33230Y12166D02*
D03*
X78230D02*
D03*
X42230Y29916D02*
D03*
X39666Y415770D02*
D03*
X64666Y415770D02*
D03*
X108230Y12166D02*
D03*
X133230D02*
D03*
X158230D02*
D03*
X258230D02*
D03*
X183230D02*
D03*
X208230D02*
D03*
X233230D02*
D03*
X241906Y54448D02*
D03*
X256406Y94698D02*
D03*
X179156Y97448D02*
D03*
X178906Y118198D02*
D03*
X195743Y130448D02*
D03*
X274656Y131198D02*
D03*
X237156Y131948D02*
D03*
X274656Y140698D02*
D03*
X144906Y145448D02*
D03*
X190406Y150698D02*
D03*
X23230Y137166D02*
D03*
Y162166D02*
D03*
Y187166D02*
D03*
Y312166D02*
D03*
Y212166D02*
D03*
Y237166D02*
D03*
Y287166D02*
D03*
Y262166D02*
D03*
X78656Y159448D02*
D03*
X145656Y209448D02*
D03*
X180406Y150948D02*
D03*
X253382Y162698D02*
D03*
X253406Y174198D02*
D03*
Y185198D02*
D03*
X205406Y188698D02*
D03*
X253406Y195448D02*
D03*
X266406Y205698D02*
D03*
X216656Y223448D02*
D03*
X262656Y234448D02*
D03*
X216656Y237948D02*
D03*
X243656Y263948D02*
D03*
X273906D02*
D03*
X261156Y298698D02*
D03*
X248656D02*
D03*
X235656D02*
D03*
X273656D02*
D03*
X210906Y298948D02*
D03*
X210526Y353338D02*
D03*
X274026Y397788D02*
D03*
X358230Y12166D02*
D03*
X283230D02*
D03*
X350406Y171448D02*
D03*
X301964Y155006D02*
D03*
X358870Y129260D02*
D03*
X362926Y165378D02*
D03*
X347460Y140670D02*
D03*
X308230Y12166D02*
D03*
X333230D02*
D03*
X290906Y217698D02*
D03*
X320576Y108878D02*
D03*
X317406Y194948D02*
D03*
X362926Y193318D02*
D03*
X366906Y136948D02*
D03*
X370546Y172998D02*
D03*
X383230Y12166D02*
D03*
X408230D02*
D03*
X433230D02*
D03*
X458230D02*
D03*
X483230D02*
D03*
X508230D02*
D03*
X533230D02*
D03*
X542730Y37166D02*
D03*
Y62166D02*
D03*
Y87166D02*
D03*
X374870Y129260D02*
D03*
X469981Y132873D02*
D03*
X384906Y136198D02*
D03*
X398156Y136698D02*
D03*
X542730Y112166D02*
D03*
X401026Y203478D02*
D03*
X542730Y187166D02*
D03*
X489906Y234698D02*
D03*
X286726Y397788D02*
D03*
X299156Y298698D02*
D03*
X299426Y397788D02*
D03*
X305406Y263698D02*
D03*
X310906Y246448D02*
D03*
X312126Y397788D02*
D03*
X312156Y298698D02*
D03*
X324656D02*
D03*
X327906Y334198D02*
D03*
X334656Y246948D02*
D03*
X542730Y212166D02*
D03*
X361906Y259448D02*
D03*
X542730Y237166D02*
D03*
X500276Y269438D02*
D03*
X542730Y262166D02*
D03*
Y287166D02*
D03*
X375626Y312698D02*
D03*
X542730Y312166D02*
D03*
X479766Y338098D02*
D03*
X350226Y352068D02*
D03*
X388326Y353338D02*
D03*
X378166Y180618D02*
D03*
X393406Y154448D02*
D03*
X384906Y161448D02*
D03*
X542730Y137166D02*
D03*
X483406Y163948D02*
D03*
X396156Y174698D02*
D03*
X406156D02*
D03*
X416406D02*
D03*
Y185198D02*
D03*
X433406Y185698D02*
D03*
X542730Y162166D02*
D03*
X385786Y188238D02*
D03*
X393406Y195858D02*
D03*
X413726Y353338D02*
D03*
X426426D02*
D03*
X401026Y353338D02*
D03*
X375656Y353340D02*
D03*
M02*
