G04*
G04 #@! TF.GenerationSoftware,Altium Limited,Altium Designer,25.5.2 (35)*
G04*
G04 Layer_Color=8388736*
%FSLAX44Y44*%
%MOMM*%
G71*
G04*
G04 #@! TF.SameCoordinates,24B21415-5C40-4A56-A289-731DE7267D3C*
G04*
G04*
G04 #@! TF.FilePolarity,Negative*
G04*
G01*
G75*
G04:AMPARAMS|DCode=27|XSize=2mm|YSize=2.5mm|CornerRadius=0.0975mm|HoleSize=0mm|Usage=FLASHONLY|Rotation=0.000|XOffset=0mm|YOffset=0mm|HoleType=Round|Shape=RoundedRectangle|*
%AMROUNDEDRECTD27*
21,1,2.0000,2.3050,0,0,0.0*
21,1,1.8050,2.5000,0,0,0.0*
1,1,0.1950,0.9025,-1.1525*
1,1,0.1950,-0.9025,-1.1525*
1,1,0.1950,-0.9025,1.1525*
1,1,0.1950,0.9025,1.1525*
%
%ADD27ROUNDEDRECTD27*%
G04:AMPARAMS|DCode=28|XSize=0.87mm|YSize=1.14mm|CornerRadius=0.165mm|HoleSize=0mm|Usage=FLASHONLY|Rotation=0.000|XOffset=0mm|YOffset=0mm|HoleType=Round|Shape=RoundedRectangle|*
%AMROUNDEDRECTD28*
21,1,0.8700,0.8100,0,0,0.0*
21,1,0.5400,1.1400,0,0,0.0*
1,1,0.3300,0.2700,-0.4050*
1,1,0.3300,-0.2700,-0.4050*
1,1,0.3300,-0.2700,0.4050*
1,1,0.3300,0.2700,0.4050*
%
%ADD28ROUNDEDRECTD28*%
G04:AMPARAMS|DCode=29|XSize=1.55mm|YSize=1.2mm|CornerRadius=0.2063mm|HoleSize=0mm|Usage=FLASHONLY|Rotation=0.000|XOffset=0mm|YOffset=0mm|HoleType=Round|Shape=RoundedRectangle|*
%AMROUNDEDRECTD29*
21,1,1.5500,0.7875,0,0,0.0*
21,1,1.1375,1.2000,0,0,0.0*
1,1,0.4125,0.5688,-0.3938*
1,1,0.4125,-0.5688,-0.3938*
1,1,0.4125,-0.5688,0.3938*
1,1,0.4125,0.5688,0.3938*
%
%ADD29ROUNDEDRECTD29*%
G04:AMPARAMS|DCode=30|XSize=0.75mm|YSize=2mm|CornerRadius=0.15mm|HoleSize=0mm|Usage=FLASHONLY|Rotation=0.000|XOffset=0mm|YOffset=0mm|HoleType=Round|Shape=RoundedRectangle|*
%AMROUNDEDRECTD30*
21,1,0.7500,1.7000,0,0,0.0*
21,1,0.4500,2.0000,0,0,0.0*
1,1,0.3000,0.2250,-0.8500*
1,1,0.3000,-0.2250,-0.8500*
1,1,0.3000,-0.2250,0.8500*
1,1,0.3000,0.2250,0.8500*
%
%ADD30ROUNDEDRECTD30*%
G04:AMPARAMS|DCode=31|XSize=0.87mm|YSize=1.14mm|CornerRadius=0.165mm|HoleSize=0mm|Usage=FLASHONLY|Rotation=270.000|XOffset=0mm|YOffset=0mm|HoleType=Round|Shape=RoundedRectangle|*
%AMROUNDEDRECTD31*
21,1,0.8700,0.8100,0,0,270.0*
21,1,0.5400,1.1400,0,0,270.0*
1,1,0.3300,-0.4050,-0.2700*
1,1,0.3300,-0.4050,0.2700*
1,1,0.3300,0.4050,0.2700*
1,1,0.3300,0.4050,-0.2700*
%
%ADD31ROUNDEDRECTD31*%
G04:AMPARAMS|DCode=32|XSize=1.65mm|YSize=0.69mm|CornerRadius=0.1425mm|HoleSize=0mm|Usage=FLASHONLY|Rotation=180.000|XOffset=0mm|YOffset=0mm|HoleType=Round|Shape=RoundedRectangle|*
%AMROUNDEDRECTD32*
21,1,1.6500,0.4050,0,0,180.0*
21,1,1.3650,0.6900,0,0,180.0*
1,1,0.2850,-0.6825,0.2025*
1,1,0.2850,0.6825,0.2025*
1,1,0.2850,0.6825,-0.2025*
1,1,0.2850,-0.6825,-0.2025*
%
%ADD32ROUNDEDRECTD32*%
G04:AMPARAMS|DCode=33|XSize=1.3mm|YSize=1.2mm|CornerRadius=0.2063mm|HoleSize=0mm|Usage=FLASHONLY|Rotation=270.000|XOffset=0mm|YOffset=0mm|HoleType=Round|Shape=RoundedRectangle|*
%AMROUNDEDRECTD33*
21,1,1.3000,0.7875,0,0,270.0*
21,1,0.8875,1.2000,0,0,270.0*
1,1,0.4125,-0.3938,-0.4438*
1,1,0.4125,-0.3938,0.4438*
1,1,0.4125,0.3938,0.4438*
1,1,0.4125,0.3938,-0.4438*
%
%ADD33ROUNDEDRECTD33*%
G04:AMPARAMS|DCode=34|XSize=1.65mm|YSize=0.69mm|CornerRadius=0.1425mm|HoleSize=0mm|Usage=FLASHONLY|Rotation=270.000|XOffset=0mm|YOffset=0mm|HoleType=Round|Shape=RoundedRectangle|*
%AMROUNDEDRECTD34*
21,1,1.6500,0.4050,0,0,270.0*
21,1,1.3650,0.6900,0,0,270.0*
1,1,0.2850,-0.2025,-0.6825*
1,1,0.2850,-0.2025,0.6825*
1,1,0.2850,0.2025,0.6825*
1,1,0.2850,0.2025,-0.6825*
%
%ADD34ROUNDEDRECTD34*%
G04:AMPARAMS|DCode=35|XSize=1.85mm|YSize=0.5mm|CornerRadius=0.1188mm|HoleSize=0mm|Usage=FLASHONLY|Rotation=180.000|XOffset=0mm|YOffset=0mm|HoleType=Round|Shape=RoundedRectangle|*
%AMROUNDEDRECTD35*
21,1,1.8500,0.2625,0,0,180.0*
21,1,1.6125,0.5000,0,0,180.0*
1,1,0.2375,-0.8063,0.1313*
1,1,0.2375,0.8063,0.1313*
1,1,0.2375,0.8063,-0.1313*
1,1,0.2375,-0.8063,-0.1313*
%
%ADD35ROUNDEDRECTD35*%
G04:AMPARAMS|DCode=36|XSize=0.7mm|YSize=2.05mm|CornerRadius=0.1438mm|HoleSize=0mm|Usage=FLASHONLY|Rotation=0.000|XOffset=0mm|YOffset=0mm|HoleType=Round|Shape=RoundedRectangle|*
%AMROUNDEDRECTD36*
21,1,0.7000,1.7625,0,0,0.0*
21,1,0.4125,2.0500,0,0,0.0*
1,1,0.2875,0.2063,-0.8813*
1,1,0.2875,-0.2063,-0.8813*
1,1,0.2875,-0.2063,0.8813*
1,1,0.2875,0.2063,0.8813*
%
%ADD36ROUNDEDRECTD36*%
G04:AMPARAMS|DCode=37|XSize=1.2mm|YSize=0.7mm|CornerRadius=0.1438mm|HoleSize=0mm|Usage=FLASHONLY|Rotation=0.000|XOffset=0mm|YOffset=0mm|HoleType=Round|Shape=RoundedRectangle|*
%AMROUNDEDRECTD37*
21,1,1.2000,0.4125,0,0,0.0*
21,1,0.9125,0.7000,0,0,0.0*
1,1,0.2875,0.4563,-0.2063*
1,1,0.2875,-0.4563,-0.2063*
1,1,0.2875,-0.4563,0.2063*
1,1,0.2875,0.4563,0.2063*
%
%ADD37ROUNDEDRECTD37*%
G04:AMPARAMS|DCode=38|XSize=1.55mm|YSize=1.2mm|CornerRadius=0.2063mm|HoleSize=0mm|Usage=FLASHONLY|Rotation=90.000|XOffset=0mm|YOffset=0mm|HoleType=Round|Shape=RoundedRectangle|*
%AMROUNDEDRECTD38*
21,1,1.5500,0.7875,0,0,90.0*
21,1,1.1375,1.2000,0,0,90.0*
1,1,0.4125,0.3938,0.5688*
1,1,0.4125,0.3938,-0.5688*
1,1,0.4125,-0.3938,-0.5688*
1,1,0.4125,-0.3938,0.5688*
%
%ADD38ROUNDEDRECTD38*%
G04:AMPARAMS|DCode=39|XSize=1.15mm|YSize=0.65mm|CornerRadius=0.1188mm|HoleSize=0mm|Usage=FLASHONLY|Rotation=180.000|XOffset=0mm|YOffset=0mm|HoleType=Round|Shape=RoundedRectangle|*
%AMROUNDEDRECTD39*
21,1,1.1500,0.4125,0,0,180.0*
21,1,0.9125,0.6500,0,0,180.0*
1,1,0.2375,-0.4563,0.2063*
1,1,0.2375,0.4563,0.2063*
1,1,0.2375,0.4563,-0.2063*
1,1,0.2375,-0.4563,-0.2063*
%
%ADD39ROUNDEDRECTD39*%
%ADD40R,1.2000X1.3000*%
G04:AMPARAMS|DCode=41|XSize=1.7mm|YSize=2.5mm|CornerRadius=0.1mm|HoleSize=0mm|Usage=FLASHONLY|Rotation=0.000|XOffset=0mm|YOffset=0mm|HoleType=Round|Shape=RoundedRectangle|*
%AMROUNDEDRECTD41*
21,1,1.7000,2.3000,0,0,0.0*
21,1,1.5000,2.5000,0,0,0.0*
1,1,0.2000,0.7500,-1.1500*
1,1,0.2000,-0.7500,-1.1500*
1,1,0.2000,-0.7500,1.1500*
1,1,0.2000,0.7500,1.1500*
%
%ADD41ROUNDEDRECTD41*%
%ADD42C,1.6500*%
%ADD43C,6.5080*%
%ADD44O,1.6000X2.1000*%
G04:AMPARAMS|DCode=45|XSize=1mm|YSize=1.8mm|CornerRadius=0.5mm|HoleSize=0mm|Usage=FLASHONLY|Rotation=0.000|XOffset=0mm|YOffset=0mm|HoleType=Round|Shape=RoundedRectangle|*
%AMROUNDEDRECTD45*
21,1,1.0000,0.8000,0,0,0.0*
21,1,0.0000,1.8000,0,0,0.0*
1,1,1.0000,0.0000,-0.4000*
1,1,1.0000,0.0000,-0.4000*
1,1,1.0000,0.0000,0.4000*
1,1,1.0000,0.0000,0.4000*
%
%ADD45ROUNDEDRECTD45*%
G04:AMPARAMS|DCode=46|XSize=1mm|YSize=2.5mm|CornerRadius=0.5mm|HoleSize=0mm|Usage=FLASHONLY|Rotation=0.000|XOffset=0mm|YOffset=0mm|HoleType=Round|Shape=RoundedRectangle|*
%AMROUNDEDRECTD46*
21,1,1.0000,1.5000,0,0,0.0*
21,1,0.0000,2.5000,0,0,0.0*
1,1,1.0000,0.0000,-0.7500*
1,1,1.0000,0.0000,-0.7500*
1,1,1.0000,0.0000,0.7500*
1,1,1.0000,0.0000,0.7500*
%
%ADD46ROUNDEDRECTD46*%
%ADD47C,0.7500*%
%ADD48C,1.8000*%
G04:AMPARAMS|DCode=49|XSize=1.8mm|YSize=1.8mm|CornerRadius=0.1mm|HoleSize=0mm|Usage=FLASHONLY|Rotation=270.000|XOffset=0mm|YOffset=0mm|HoleType=Round|Shape=RoundedRectangle|*
%AMROUNDEDRECTD49*
21,1,1.8000,1.6000,0,0,270.0*
21,1,1.6000,1.8000,0,0,270.0*
1,1,0.2000,-0.8000,-0.8000*
1,1,0.2000,-0.8000,0.8000*
1,1,0.2000,0.8000,0.8000*
1,1,0.2000,0.8000,-0.8000*
%
%ADD49ROUNDEDRECTD49*%
D27*
X240020Y-288960D02*
D03*
X199020D02*
D03*
D28*
X90900Y-239000D02*
D03*
X77100D02*
D03*
X260050Y-97840D02*
D03*
X405150Y-177750D02*
D03*
X244200Y-262290D02*
D03*
X194840Y-262290D02*
D03*
X152850Y-119250D02*
D03*
X92100Y-147750D02*
D03*
X91150Y-259750D02*
D03*
X-4350Y-248250D02*
D03*
X-18150D02*
D03*
X166650Y-133750D02*
D03*
X152850D02*
D03*
X205900Y-162250D02*
D03*
X192100D02*
D03*
X152862Y-104750D02*
D03*
X166662D02*
D03*
X152850Y-147750D02*
D03*
X166650D02*
D03*
X192100Y-191500D02*
D03*
X205900D02*
D03*
X105900Y-147750D02*
D03*
X166650Y-119250D02*
D03*
X273850Y-97840D02*
D03*
X77350Y-259750D02*
D03*
X205900Y-177000D02*
D03*
X192100D02*
D03*
X391350Y-177750D02*
D03*
X230400Y-262290D02*
D03*
X208640Y-262290D02*
D03*
D29*
X394500Y-212750D02*
D03*
X149750Y-295000D02*
D03*
X394500Y-193750D02*
D03*
X149750Y-276000D02*
D03*
D30*
X299970Y17490D02*
D03*
X414270D02*
D03*
X401570D02*
D03*
X388870D02*
D03*
X376170D02*
D03*
X363470D02*
D03*
X350770D02*
D03*
X338070D02*
D03*
X325370D02*
D03*
X312670D02*
D03*
X414270Y-76010D02*
D03*
X401570D02*
D03*
X388870D02*
D03*
X376170D02*
D03*
X363470D02*
D03*
X350770D02*
D03*
X338070D02*
D03*
X325370D02*
D03*
X312670D02*
D03*
X299970D02*
D03*
D31*
X414270Y-112360D02*
D03*
X237000Y-191150D02*
D03*
X165000Y-191850D02*
D03*
X69250Y-198150D02*
D03*
X106750Y-275350D02*
D03*
X-11000Y-289150D02*
D03*
X127500Y-275350D02*
D03*
X127500Y-289250D02*
D03*
X41750Y-184350D02*
D03*
Y-198150D02*
D03*
X55250Y-184350D02*
D03*
Y-198150D02*
D03*
X106750Y-289150D02*
D03*
X-11000Y-275350D02*
D03*
X-24750Y-166350D02*
D03*
Y-180150D02*
D03*
X-10250Y-166350D02*
D03*
Y-180150D02*
D03*
X165000Y-205650D02*
D03*
X69250Y-184350D02*
D03*
X414270Y-98560D02*
D03*
X237000Y-177350D02*
D03*
D32*
X372214Y-184528D02*
D03*
X258214Y-192528D02*
D03*
X258214Y-216528D02*
D03*
X372214Y-224528D02*
D03*
Y-216528D02*
D03*
Y-208528D02*
D03*
Y-200528D02*
D03*
Y-192528D02*
D03*
Y-176528D02*
D03*
Y-168528D02*
D03*
Y-160528D02*
D03*
Y-152528D02*
D03*
Y-144528D02*
D03*
X258214D02*
D03*
Y-152528D02*
D03*
Y-160528D02*
D03*
Y-168528D02*
D03*
Y-176528D02*
D03*
Y-184528D02*
D03*
Y-200528D02*
D03*
Y-208528D02*
D03*
Y-224528D02*
D03*
D33*
X202500Y-106000D02*
D03*
X187000Y-139500D02*
D03*
X202500D02*
D03*
D34*
X299214Y-241528D02*
D03*
X291214D02*
D03*
X283214D02*
D03*
X355214Y-127528D02*
D03*
X347214D02*
D03*
X339214D02*
D03*
X331214D02*
D03*
X323214D02*
D03*
X315214D02*
D03*
X307214D02*
D03*
X299214D02*
D03*
X291214D02*
D03*
X283214D02*
D03*
X275214D02*
D03*
Y-241528D02*
D03*
X307214D02*
D03*
X315214D02*
D03*
X323214D02*
D03*
X331214D02*
D03*
X339214D02*
D03*
X347214D02*
D03*
X355214D02*
D03*
D35*
X145094Y-187948D02*
D03*
X88094Y-194448D02*
D03*
X145094Y-220448D02*
D03*
Y-213948D02*
D03*
Y-207448D02*
D03*
X145094Y-200948D02*
D03*
Y-194448D02*
D03*
X145094Y-181448D02*
D03*
X145094Y-174948D02*
D03*
Y-168448D02*
D03*
X145094Y-161948D02*
D03*
X88094D02*
D03*
Y-168448D02*
D03*
Y-174948D02*
D03*
Y-181448D02*
D03*
X88094Y-187948D02*
D03*
X88094Y-200948D02*
D03*
X88094Y-207448D02*
D03*
Y-213948D02*
D03*
X88094Y-220448D02*
D03*
D36*
X134870Y18240D02*
D03*
Y-76760D02*
D03*
X147570D02*
D03*
X160270D02*
D03*
X172970D02*
D03*
X185670D02*
D03*
X198370D02*
D03*
X211070D02*
D03*
X223770D02*
D03*
X236470D02*
D03*
X249170D02*
D03*
X261870D02*
D03*
X274570D02*
D03*
X147570Y18240D02*
D03*
X160270D02*
D03*
X172970D02*
D03*
X185670D02*
D03*
X198370D02*
D03*
X211070D02*
D03*
X223770D02*
D03*
X236470D02*
D03*
X249170D02*
D03*
X261870D02*
D03*
X274570D02*
D03*
D37*
X36000Y-236000D02*
D03*
X61000Y-226500D02*
D03*
Y-245500D02*
D03*
X36000D02*
D03*
Y-226500D02*
D03*
D38*
X-7826Y-223409D02*
D03*
X192500Y-244250D02*
D03*
X173500D02*
D03*
X-26826Y-223409D02*
D03*
D39*
X211500Y-226000D02*
D03*
Y-216500D02*
D03*
X211500Y-207000D02*
D03*
X186500Y-207000D02*
D03*
Y-216500D02*
D03*
X186500Y-226000D02*
D03*
D40*
X187000Y-106000D02*
D03*
D41*
X14250Y0D02*
D03*
X-14250D02*
D03*
X14250Y-40000D02*
D03*
X-14250D02*
D03*
X14250Y-120000D02*
D03*
X-14250D02*
D03*
X14250Y-80000D02*
D03*
X-14250D02*
D03*
D42*
X467091Y-45000D02*
Y-20000D01*
Y-70000D02*
Y-45000D01*
Y-95000D02*
Y-70000D01*
Y5000D02*
Y30000D01*
Y-20000D02*
Y5000D01*
Y30000D02*
Y65575D01*
Y-270000D02*
Y-245000D01*
Y-295000D02*
Y-270000D01*
Y-145000D02*
Y-120000D01*
Y-170000D02*
Y-145000D01*
Y-120000D02*
Y-95000D01*
Y-220000D02*
Y-195000D01*
Y-245000D02*
Y-220000D01*
Y-195000D02*
Y-170000D01*
Y-317471D02*
Y-295000D01*
X282092Y-320409D02*
X307500D01*
X407500D02*
X432500D01*
X464091D01*
X382500D02*
X407500D01*
X307500D02*
X332500D01*
X357500D02*
X382500D01*
X332500D02*
X357500D01*
X257092Y-320409D02*
X282092Y-320409D01*
X182500Y-320409D02*
X207500D01*
X157500D02*
X182500D01*
X107092Y-320409D02*
X132092D01*
X91760Y-320409D02*
X107092D01*
X132092D02*
X157500D01*
X232500D02*
X257092D01*
X207500D02*
X232500D01*
X-27209Y99872D02*
X-19092D01*
X-52909Y30000D02*
Y55000D01*
Y66055D01*
Y-20000D02*
Y5000D01*
Y-45000D02*
Y-20000D01*
Y5000D02*
Y30000D01*
Y-70000D02*
Y-45000D01*
Y-95000D02*
Y-70000D01*
Y-145000D02*
Y-120000D01*
Y-95000D01*
X4852Y-320409D02*
X32092Y-320409D01*
X57500D02*
X82500D01*
X91760D01*
X32092D02*
X57500D01*
X-50000Y-320409D02*
X-42500D01*
X-17500D02*
X4852D01*
X-42500D02*
X-17500D01*
X-52909Y-195000D02*
Y-170000D01*
Y-145000D01*
Y-245408D02*
Y-220408D01*
Y-195000D01*
Y-295000D02*
Y-270000D01*
Y-245408D01*
Y-317500D02*
Y-295000D01*
X-50409Y-320409D02*
X-50000D01*
X-52909Y-317908D02*
Y-317500D01*
X440913Y91754D02*
X467091Y65575D01*
X-52909Y66055D02*
X-27209Y91754D01*
Y99872D01*
X440913Y91754D02*
Y99872D01*
X432795D02*
X440913D01*
X48341Y91341D02*
X62091Y77592D01*
X87289D01*
X88106Y78408D01*
X388075Y144592D02*
X432795Y99872D01*
X-19092D02*
X25628Y144592D01*
X48341D02*
X388075D01*
X48341Y91341D02*
Y144592D01*
X25628D02*
X48341D01*
D43*
X441321Y100280D02*
D03*
X-26801D02*
D03*
D44*
X326005Y78817D02*
D03*
X304415D02*
D03*
X282825D02*
D03*
X261235D02*
D03*
X239645D02*
D03*
X218055D02*
D03*
X196465D02*
D03*
X174875D02*
D03*
X153285D02*
D03*
X131695D02*
D03*
X110105D02*
D03*
X88515D02*
D03*
X326005Y121743D02*
D03*
X304415D02*
D03*
X282825D02*
D03*
X261235D02*
D03*
X239645D02*
D03*
X218055D02*
D03*
X196465D02*
D03*
X174875D02*
D03*
X153285D02*
D03*
X131695D02*
D03*
X110105D02*
D03*
X88515D02*
D03*
D45*
X5260Y-319670D02*
D03*
X91760D02*
D03*
D46*
X5260Y-285870D02*
D03*
X91760D02*
D03*
D47*
X18760Y-276070D02*
D03*
X27260D02*
D03*
X35760D02*
D03*
X44260D02*
D03*
X52760D02*
D03*
X61260D02*
D03*
X69760D02*
D03*
X78260D02*
D03*
Y-289570D02*
D03*
X69760D02*
D03*
X61260D02*
D03*
X52760D02*
D03*
X44260D02*
D03*
X35760D02*
D03*
X27260D02*
D03*
X18760D02*
D03*
D48*
X443250Y-28750D02*
D03*
X443250Y-104950D02*
D03*
Y-79550D02*
D03*
X443250Y-54150D02*
D03*
X443250Y-3350D02*
D03*
D49*
Y22050D02*
D03*
M02*
