G04*
G04 #@! TF.GenerationSoftware,Altium Limited,Altium Designer,25.5.2 (35)*
G04*
G04 Layer_Color=65535*
%FSLAX44Y44*%
%MOMM*%
G71*
G04*
G04 #@! TF.SameCoordinates,24B21415-5C40-4A56-A289-731DE7267D3C*
G04*
G04*
G04 #@! TF.FilePolarity,Positive*
G04*
G01*
G75*
%ADD10C,0.2000*%
%ADD11C,0.1500*%
%ADD12C,0.1524*%
G36*
X-14148Y50464D02*
X-13958Y50446D01*
X-13767Y50429D01*
X-13541Y50412D01*
X-13055Y50342D01*
X-12518Y50238D01*
X-11980Y50082D01*
X-11459Y49891D01*
X-11442D01*
X-11407Y49857D01*
X-11321Y49839D01*
X-11234Y49787D01*
X-11130Y49718D01*
X-10991Y49648D01*
X-10696Y49475D01*
X-10349Y49232D01*
X-10002Y48937D01*
X-9672Y48608D01*
X-9378Y48208D01*
X-9360Y48191D01*
X-9343Y48156D01*
X-9308Y48104D01*
X-9256Y48018D01*
X-9204Y47914D01*
X-9135Y47792D01*
X-9083Y47636D01*
X-8996Y47480D01*
X-8857Y47116D01*
X-8736Y46682D01*
X-8632Y46213D01*
X-8580Y45693D01*
X-10609Y45537D01*
Y45554D01*
X-10627Y45606D01*
Y45676D01*
X-10644Y45780D01*
X-10679Y45918D01*
X-10713Y46057D01*
X-10818Y46387D01*
X-10956Y46751D01*
X-11164Y47133D01*
X-11407Y47497D01*
X-11564Y47653D01*
X-11737Y47810D01*
X-11754Y47827D01*
X-11772Y47844D01*
X-11841Y47879D01*
X-11911Y47931D01*
X-12015Y47983D01*
X-12136Y48052D01*
X-12275Y48122D01*
X-12431Y48208D01*
X-12622Y48278D01*
X-12830Y48347D01*
X-13055Y48417D01*
X-13298Y48469D01*
X-13576Y48521D01*
X-13871Y48555D01*
X-14183Y48590D01*
X-14686D01*
X-14825Y48573D01*
X-14981D01*
X-15155Y48555D01*
X-15363Y48538D01*
X-15571Y48503D01*
X-16039Y48417D01*
X-16490Y48295D01*
X-16924Y48122D01*
X-17132Y48000D01*
X-17306Y47879D01*
X-17323D01*
X-17341Y47844D01*
X-17444Y47757D01*
X-17583Y47601D01*
X-17739Y47393D01*
X-17896Y47150D01*
X-18034Y46855D01*
X-18139Y46543D01*
X-18156Y46370D01*
X-18173Y46179D01*
Y46161D01*
Y46144D01*
X-18156Y46040D01*
X-18139Y45884D01*
X-18104Y45693D01*
X-18017Y45468D01*
X-17913Y45225D01*
X-17774Y44999D01*
X-17566Y44774D01*
X-17531Y44756D01*
X-17497Y44721D01*
X-17427Y44669D01*
X-17341Y44617D01*
X-17236Y44565D01*
X-17098Y44496D01*
X-16941Y44409D01*
X-16751Y44323D01*
X-16525Y44236D01*
X-16265Y44149D01*
X-15970Y44045D01*
X-15623Y43941D01*
X-15259Y43837D01*
X-14842Y43715D01*
X-14374Y43611D01*
X-14339D01*
X-14253Y43594D01*
X-14131Y43559D01*
X-13958Y43507D01*
X-13749Y43472D01*
X-13506Y43403D01*
X-13246Y43351D01*
X-12969Y43264D01*
X-12379Y43108D01*
X-11789Y42952D01*
X-11511Y42865D01*
X-11269Y42779D01*
X-11026Y42692D01*
X-10835Y42605D01*
X-10818D01*
X-10766Y42570D01*
X-10696Y42536D01*
X-10609Y42484D01*
X-10488Y42432D01*
X-10349Y42345D01*
X-10054Y42154D01*
X-9707Y41928D01*
X-9378Y41651D01*
X-9048Y41321D01*
X-8909Y41148D01*
X-8770Y40974D01*
Y40957D01*
X-8736Y40922D01*
X-8701Y40870D01*
X-8666Y40801D01*
X-8614Y40714D01*
X-8562Y40593D01*
X-8424Y40315D01*
X-8302Y39985D01*
X-8198Y39604D01*
X-8129Y39170D01*
X-8094Y38702D01*
Y38684D01*
Y38650D01*
Y38580D01*
X-8111Y38493D01*
Y38372D01*
X-8129Y38251D01*
X-8181Y37921D01*
X-8267Y37557D01*
X-8406Y37158D01*
X-8597Y36741D01*
X-8701Y36516D01*
X-8840Y36308D01*
Y36290D01*
X-8874Y36256D01*
X-8909Y36203D01*
X-8979Y36117D01*
X-9135Y35926D01*
X-9378Y35666D01*
X-9672Y35388D01*
X-10037Y35093D01*
X-10453Y34816D01*
X-10939Y34555D01*
X-10956D01*
X-11008Y34521D01*
X-11078Y34503D01*
X-11182Y34451D01*
X-11303Y34417D01*
X-11459Y34365D01*
X-11633Y34295D01*
X-11841Y34243D01*
X-12049Y34191D01*
X-12292Y34122D01*
X-12813Y34035D01*
X-13385Y33966D01*
X-14010Y33931D01*
X-14218D01*
X-14374Y33948D01*
X-14565D01*
X-14773Y33966D01*
X-15016Y33983D01*
X-15293Y34018D01*
X-15866Y34087D01*
X-16473Y34191D01*
X-17080Y34347D01*
X-17670Y34555D01*
X-17687D01*
X-17739Y34590D01*
X-17809Y34625D01*
X-17913Y34677D01*
X-18034Y34746D01*
X-18173Y34816D01*
X-18503Y35024D01*
X-18867Y35284D01*
X-19249Y35614D01*
X-19630Y35995D01*
X-19960Y36446D01*
X-19977Y36464D01*
X-19995Y36498D01*
X-20029Y36568D01*
X-20082Y36672D01*
X-20151Y36793D01*
X-20220Y36932D01*
X-20307Y37106D01*
X-20376Y37297D01*
X-20463Y37487D01*
X-20533Y37713D01*
X-20671Y38216D01*
X-20775Y38754D01*
X-20810Y39049D01*
X-20827Y39344D01*
X-18832Y39517D01*
Y39500D01*
Y39465D01*
X-18815Y39396D01*
X-18798Y39309D01*
X-18780Y39205D01*
X-18763Y39101D01*
X-18694Y38806D01*
X-18607Y38493D01*
X-18503Y38164D01*
X-18364Y37834D01*
X-18190Y37522D01*
X-18173Y37487D01*
X-18086Y37401D01*
X-17965Y37262D01*
X-17792Y37088D01*
X-17566Y36880D01*
X-17288Y36689D01*
X-16959Y36481D01*
X-16577Y36290D01*
X-16560D01*
X-16525Y36273D01*
X-16473Y36256D01*
X-16386Y36221D01*
X-16282Y36186D01*
X-16161Y36134D01*
X-16022Y36099D01*
X-15866Y36065D01*
X-15502Y35978D01*
X-15068Y35891D01*
X-14617Y35839D01*
X-14114Y35822D01*
X-13906D01*
X-13801Y35839D01*
X-13680D01*
X-13402Y35874D01*
X-13073Y35909D01*
X-12708Y35961D01*
X-12344Y36047D01*
X-11997Y36169D01*
X-11980D01*
X-11962Y36186D01*
X-11911Y36203D01*
X-11841Y36238D01*
X-11685Y36325D01*
X-11477Y36429D01*
X-11251Y36568D01*
X-11008Y36741D01*
X-10800Y36932D01*
X-10609Y37158D01*
X-10592Y37192D01*
X-10540Y37262D01*
X-10453Y37401D01*
X-10366Y37574D01*
X-10297Y37782D01*
X-10210Y38008D01*
X-10158Y38268D01*
X-10141Y38528D01*
Y38545D01*
Y38563D01*
Y38650D01*
X-10158Y38806D01*
X-10193Y38979D01*
X-10245Y39187D01*
X-10332Y39413D01*
X-10436Y39639D01*
X-10592Y39847D01*
X-10609Y39864D01*
X-10679Y39933D01*
X-10783Y40037D01*
X-10939Y40176D01*
X-11130Y40315D01*
X-11390Y40471D01*
X-11685Y40627D01*
X-12032Y40784D01*
X-12067Y40801D01*
X-12101Y40818D01*
X-12171Y40835D01*
X-12240Y40853D01*
X-12344Y40887D01*
X-12483Y40940D01*
X-12622Y40974D01*
X-12813Y41026D01*
X-13003Y41096D01*
X-13246Y41148D01*
X-13506Y41217D01*
X-13801Y41304D01*
X-14114Y41373D01*
X-14478Y41477D01*
X-14877Y41564D01*
X-14894D01*
X-14964Y41582D01*
X-15085Y41616D01*
X-15224Y41651D01*
X-15415Y41703D01*
X-15623Y41755D01*
X-15831Y41824D01*
X-16074Y41894D01*
X-16595Y42050D01*
X-17098Y42223D01*
X-17341Y42310D01*
X-17566Y42397D01*
X-17774Y42484D01*
X-17948Y42570D01*
X-17965D01*
X-18000Y42605D01*
X-18052Y42640D01*
X-18139Y42674D01*
X-18347Y42796D01*
X-18590Y42969D01*
X-18884Y43195D01*
X-19162Y43438D01*
X-19440Y43733D01*
X-19665Y44045D01*
Y44062D01*
X-19683Y44080D01*
X-19717Y44132D01*
X-19752Y44201D01*
X-19839Y44392D01*
X-19943Y44635D01*
X-20047Y44930D01*
X-20134Y45277D01*
X-20203Y45658D01*
X-20220Y46057D01*
Y46075D01*
Y46109D01*
Y46179D01*
X-20203Y46266D01*
Y46370D01*
X-20186Y46491D01*
X-20134Y46803D01*
X-20047Y47150D01*
X-19943Y47515D01*
X-19769Y47914D01*
X-19544Y48313D01*
Y48330D01*
X-19509Y48365D01*
X-19474Y48417D01*
X-19422Y48486D01*
X-19249Y48677D01*
X-19023Y48920D01*
X-18746Y49180D01*
X-18399Y49440D01*
X-18000Y49700D01*
X-17531Y49926D01*
X-17514D01*
X-17479Y49943D01*
X-17392Y49978D01*
X-17306Y50013D01*
X-17184Y50047D01*
X-17028Y50099D01*
X-16855Y50152D01*
X-16664Y50203D01*
X-16456Y50256D01*
X-16230Y50308D01*
X-15744Y50394D01*
X-15189Y50464D01*
X-14599Y50481D01*
X-14304D01*
X-14148Y50464D01*
D02*
G37*
G36*
X23844D02*
X24018Y50446D01*
X24209Y50429D01*
X24434Y50412D01*
X24920Y50342D01*
X25458Y50238D01*
X25995Y50099D01*
X26533Y49909D01*
X26551D01*
X26602Y49891D01*
X26672Y49857D01*
X26759Y49805D01*
X26880Y49752D01*
X27019Y49683D01*
X27331Y49510D01*
X27696Y49284D01*
X28060Y49024D01*
X28407Y48712D01*
X28736Y48347D01*
X28754Y48330D01*
X28771Y48295D01*
X28806Y48243D01*
X28875Y48174D01*
X28927Y48070D01*
X29014Y47948D01*
X29101Y47810D01*
X29187Y47636D01*
X29292Y47463D01*
X29378Y47272D01*
X29482Y47046D01*
X29586Y46821D01*
X29777Y46300D01*
X29951Y45728D01*
X28025Y45207D01*
Y45225D01*
X28008Y45259D01*
X27990Y45329D01*
X27956Y45415D01*
X27921Y45502D01*
X27886Y45624D01*
X27782Y45901D01*
X27643Y46213D01*
X27487Y46526D01*
X27314Y46838D01*
X27123Y47116D01*
X27106Y47150D01*
X27019Y47237D01*
X26897Y47358D01*
X26741Y47532D01*
X26516Y47705D01*
X26256Y47896D01*
X25943Y48070D01*
X25596Y48243D01*
X25579D01*
X25544Y48260D01*
X25492Y48278D01*
X25423Y48313D01*
X25336Y48347D01*
X25215Y48382D01*
X24955Y48469D01*
X24625Y48538D01*
X24260Y48608D01*
X23844Y48660D01*
X23410Y48677D01*
X23168D01*
X23046Y48660D01*
X22890D01*
X22734Y48642D01*
X22543Y48625D01*
X22161Y48573D01*
X21728Y48486D01*
X21311Y48382D01*
X20895Y48226D01*
X20878D01*
X20843Y48208D01*
X20791Y48174D01*
X20721Y48139D01*
X20531Y48052D01*
X20288Y47914D01*
X20010Y47740D01*
X19733Y47532D01*
X19438Y47306D01*
X19178Y47046D01*
X19143Y47011D01*
X19073Y46925D01*
X18952Y46769D01*
X18813Y46578D01*
X18657Y46352D01*
X18484Y46075D01*
X18327Y45780D01*
X18189Y45468D01*
Y45450D01*
X18171Y45398D01*
X18137Y45329D01*
X18102Y45207D01*
X18050Y45068D01*
X17998Y44912D01*
X17946Y44721D01*
X17894Y44513D01*
X17824Y44288D01*
X17772Y44028D01*
X17686Y43490D01*
X17616Y42883D01*
X17581Y42241D01*
Y42223D01*
Y42154D01*
Y42032D01*
X17599Y41894D01*
Y41703D01*
X17616Y41495D01*
X17651Y41252D01*
X17668Y40992D01*
X17755Y40419D01*
X17894Y39829D01*
X18067Y39222D01*
X18310Y38650D01*
X18327Y38632D01*
X18345Y38580D01*
X18379Y38511D01*
X18449Y38407D01*
X18518Y38303D01*
X18622Y38164D01*
X18848Y37852D01*
X19160Y37505D01*
X19525Y37140D01*
X19941Y36811D01*
X20184Y36655D01*
X20444Y36516D01*
X20461D01*
X20513Y36481D01*
X20583Y36446D01*
X20687Y36412D01*
X20826Y36360D01*
X20982Y36290D01*
X21155Y36238D01*
X21346Y36169D01*
X21554Y36099D01*
X21797Y36047D01*
X22300Y35926D01*
X22855Y35857D01*
X23445Y35822D01*
X23584D01*
X23688Y35839D01*
X23809D01*
X23948Y35857D01*
X24104Y35874D01*
X24295Y35891D01*
X24694Y35943D01*
X25145Y36047D01*
X25631Y36169D01*
X26117Y36342D01*
X26134D01*
X26169Y36360D01*
X26238Y36394D01*
X26342Y36429D01*
X26446Y36481D01*
X26568Y36551D01*
X26863Y36689D01*
X27192Y36863D01*
X27522Y37054D01*
X27834Y37244D01*
X28112Y37470D01*
Y40471D01*
X23410D01*
Y42362D01*
X30194D01*
Y36412D01*
X30176Y36394D01*
X30124Y36360D01*
X30038Y36290D01*
X29916Y36203D01*
X29777Y36099D01*
X29604Y35995D01*
X29413Y35857D01*
X29205Y35718D01*
X28979Y35579D01*
X28719Y35423D01*
X28181Y35111D01*
X27591Y34816D01*
X26967Y34555D01*
X26950D01*
X26897Y34521D01*
X26811Y34503D01*
X26672Y34451D01*
X26533Y34417D01*
X26342Y34365D01*
X26151Y34295D01*
X25926Y34243D01*
X25666Y34191D01*
X25405Y34122D01*
X24833Y34035D01*
X24209Y33966D01*
X23567Y33931D01*
X23341D01*
X23168Y33948D01*
X22959Y33966D01*
X22717Y33983D01*
X22439Y34018D01*
X22144Y34052D01*
X21832Y34104D01*
X21485Y34174D01*
X21138Y34260D01*
X20756Y34365D01*
X20392Y34469D01*
X20028Y34608D01*
X19646Y34764D01*
X19282Y34937D01*
X19264Y34955D01*
X19195Y34989D01*
X19091Y35041D01*
X18969Y35128D01*
X18813Y35232D01*
X18622Y35354D01*
X18414Y35510D01*
X18189Y35683D01*
X17963Y35874D01*
X17720Y36099D01*
X17477Y36325D01*
X17234Y36585D01*
X17009Y36880D01*
X16783Y37175D01*
X16558Y37505D01*
X16367Y37852D01*
X16350Y37869D01*
X16332Y37938D01*
X16280Y38042D01*
X16211Y38181D01*
X16142Y38372D01*
X16055Y38580D01*
X15968Y38823D01*
X15881Y39101D01*
X15795Y39396D01*
X15708Y39725D01*
X15621Y40090D01*
X15552Y40454D01*
X15482Y40853D01*
X15430Y41252D01*
X15413Y41686D01*
X15396Y42119D01*
Y42154D01*
Y42223D01*
Y42345D01*
X15413Y42518D01*
X15430Y42726D01*
X15448Y42969D01*
X15482Y43247D01*
X15517Y43542D01*
X15569Y43871D01*
X15639Y44218D01*
X15812Y44947D01*
X15916Y45329D01*
X16055Y45710D01*
X16194Y46092D01*
X16367Y46474D01*
X16384Y46491D01*
X16419Y46560D01*
X16471Y46665D01*
X16541Y46803D01*
X16645Y46977D01*
X16766Y47168D01*
X16922Y47376D01*
X17078Y47619D01*
X17269Y47861D01*
X17477Y48104D01*
X17703Y48347D01*
X17963Y48608D01*
X18223Y48850D01*
X18518Y49076D01*
X18830Y49301D01*
X19160Y49492D01*
X19178Y49510D01*
X19247Y49527D01*
X19351Y49579D01*
X19490Y49648D01*
X19663Y49718D01*
X19871Y49805D01*
X20114Y49891D01*
X20375Y49995D01*
X20670Y50082D01*
X20999Y50169D01*
X21346Y50256D01*
X21728Y50325D01*
X22109Y50394D01*
X22526Y50446D01*
X22959Y50464D01*
X23393Y50481D01*
X23688D01*
X23844Y50464D01*
D02*
G37*
G36*
X99586Y34191D02*
X97765D01*
Y35648D01*
X97747Y35631D01*
X97713Y35579D01*
X97643Y35492D01*
X97557Y35388D01*
X97435Y35249D01*
X97296Y35111D01*
X97140Y34955D01*
X96950Y34798D01*
X96724Y34625D01*
X96481Y34469D01*
X96221Y34330D01*
X95926Y34209D01*
X95596Y34087D01*
X95267Y34000D01*
X94902Y33948D01*
X94503Y33931D01*
X94365D01*
X94261Y33948D01*
X94139D01*
X94000Y33966D01*
X93844Y34000D01*
X93671Y34035D01*
X93272Y34122D01*
X92838Y34261D01*
X92404Y34451D01*
X92179Y34555D01*
X91953Y34694D01*
X91936Y34712D01*
X91901Y34729D01*
X91849Y34781D01*
X91762Y34833D01*
X91658Y34920D01*
X91554Y35006D01*
X91294Y35249D01*
X90999Y35544D01*
X90704Y35909D01*
X90409Y36342D01*
X90149Y36828D01*
Y36845D01*
X90114Y36897D01*
X90097Y36967D01*
X90045Y37071D01*
X90010Y37192D01*
X89958Y37348D01*
X89889Y37539D01*
X89837Y37730D01*
X89785Y37956D01*
X89715Y38199D01*
X89663Y38459D01*
X89628Y38736D01*
X89559Y39326D01*
X89524Y39968D01*
Y39985D01*
Y40055D01*
Y40142D01*
X89542Y40263D01*
Y40419D01*
X89559Y40593D01*
X89577Y40801D01*
X89594Y41026D01*
X89663Y41512D01*
X89767Y42033D01*
X89906Y42588D01*
X90097Y43126D01*
Y43143D01*
X90132Y43195D01*
X90166Y43264D01*
X90201Y43368D01*
X90270Y43472D01*
X90340Y43611D01*
X90531Y43924D01*
X90773Y44288D01*
X91068Y44635D01*
X91415Y44982D01*
X91832Y45294D01*
X91849Y45311D01*
X91884Y45329D01*
X91953Y45363D01*
X92040Y45416D01*
X92144Y45468D01*
X92283Y45537D01*
X92422Y45606D01*
X92595Y45676D01*
X92977Y45814D01*
X93411Y45936D01*
X93896Y46023D01*
X94156Y46057D01*
X94590D01*
X94798Y46040D01*
X95041Y46005D01*
X95336Y45953D01*
X95648Y45866D01*
X95978Y45762D01*
X96290Y45606D01*
X96308D01*
X96325Y45589D01*
X96429Y45519D01*
X96568Y45433D01*
X96759Y45294D01*
X96967Y45121D01*
X97192Y44930D01*
X97418Y44704D01*
X97626Y44444D01*
Y50204D01*
X99586D01*
Y34191D01*
D02*
G37*
G36*
X120508Y46040D02*
X120647D01*
X120803Y46023D01*
X120959Y45988D01*
X121150Y45953D01*
X121567Y45866D01*
X122000Y45728D01*
X122451Y45537D01*
X122677Y45416D01*
X122885Y45277D01*
X122902D01*
X122937Y45242D01*
X122989Y45190D01*
X123076Y45138D01*
X123284Y44964D01*
X123527Y44721D01*
X123805Y44409D01*
X124099Y44045D01*
X124360Y43611D01*
X124602Y43126D01*
Y43108D01*
X124620Y43056D01*
X124655Y42987D01*
X124689Y42883D01*
X124741Y42761D01*
X124793Y42605D01*
X124845Y42414D01*
X124897Y42223D01*
X124950Y41998D01*
X125001Y41772D01*
X125106Y41252D01*
X125175Y40679D01*
X125192Y40072D01*
Y40055D01*
Y39985D01*
Y39899D01*
X125175Y39777D01*
Y39621D01*
X125158Y39430D01*
X125140Y39222D01*
X125106Y38997D01*
X125036Y38511D01*
X124915Y37973D01*
X124759Y37418D01*
X124551Y36863D01*
Y36845D01*
X124516Y36793D01*
X124481Y36724D01*
X124429Y36637D01*
X124360Y36516D01*
X124290Y36377D01*
X124082Y36065D01*
X123822Y35701D01*
X123492Y35336D01*
X123128Y34989D01*
X122694Y34677D01*
X122677D01*
X122642Y34642D01*
X122573Y34608D01*
X122486Y34555D01*
X122365Y34503D01*
X122243Y34434D01*
X122087Y34382D01*
X121913Y34313D01*
X121532Y34174D01*
X121098Y34052D01*
X120630Y33966D01*
X120387Y33948D01*
X120127Y33931D01*
X119953D01*
X119780Y33948D01*
X119537Y33983D01*
X119259Y34035D01*
X118964Y34104D01*
X118652Y34191D01*
X118357Y34330D01*
X118322Y34347D01*
X118236Y34399D01*
X118080Y34503D01*
X117906Y34625D01*
X117698Y34764D01*
X117490Y34955D01*
X117282Y35163D01*
X117091Y35388D01*
Y29750D01*
X115130D01*
Y45797D01*
X116917D01*
Y44288D01*
X116952Y44305D01*
X117021Y44409D01*
X117160Y44583D01*
X117334Y44774D01*
X117542Y44982D01*
X117785Y45207D01*
X118045Y45416D01*
X118340Y45606D01*
X118357D01*
X118375Y45624D01*
X118479Y45676D01*
X118652Y45745D01*
X118878Y45832D01*
X119155Y45919D01*
X119485Y45988D01*
X119867Y46040D01*
X120266Y46057D01*
X120404D01*
X120508Y46040D01*
D02*
G37*
G36*
X150642D02*
X150729D01*
X150833Y46023D01*
X151093Y45971D01*
X151405Y45901D01*
X151735Y45780D01*
X152117Y45624D01*
X152498Y45416D01*
X151805Y43594D01*
X151770Y43611D01*
X151683Y43663D01*
X151544Y43733D01*
X151353Y43819D01*
X151145Y43889D01*
X150902Y43958D01*
X150642Y44010D01*
X150365Y44028D01*
X150260D01*
X150139Y44010D01*
X149983Y43976D01*
X149792Y43924D01*
X149601Y43854D01*
X149410Y43767D01*
X149202Y43629D01*
X149185Y43611D01*
X149115Y43559D01*
X149029Y43472D01*
X148925Y43351D01*
X148803Y43195D01*
X148682Y43021D01*
X148578Y42796D01*
X148474Y42553D01*
Y42536D01*
X148456Y42501D01*
X148439Y42449D01*
X148422Y42379D01*
X148404Y42275D01*
X148370Y42154D01*
X148317Y41876D01*
X148265Y41529D01*
X148213Y41148D01*
X148179Y40714D01*
X148161Y40263D01*
Y34191D01*
X146201D01*
Y45797D01*
X147971D01*
Y44045D01*
X148005Y44080D01*
X148040Y44149D01*
X148092Y44218D01*
X148213Y44444D01*
X148387Y44687D01*
X148578Y44964D01*
X148786Y45242D01*
X148994Y45468D01*
X149115Y45572D01*
X149220Y45658D01*
X149254Y45676D01*
X149324Y45728D01*
X149445Y45780D01*
X149584Y45866D01*
X149775Y45936D01*
X149983Y45988D01*
X150226Y46040D01*
X150469Y46057D01*
X150573D01*
X150642Y46040D01*
D02*
G37*
G36*
X-23655Y40957D02*
Y40922D01*
Y40853D01*
Y40731D01*
Y40558D01*
X-23672Y40350D01*
X-23690Y40124D01*
X-23707Y39864D01*
X-23725Y39569D01*
X-23794Y38962D01*
X-23881Y38320D01*
X-24019Y37696D01*
X-24106Y37401D01*
X-24210Y37123D01*
Y37106D01*
X-24228Y37054D01*
X-24262Y36984D01*
X-24314Y36880D01*
X-24384Y36759D01*
X-24453Y36620D01*
X-24661Y36308D01*
X-24783Y36117D01*
X-24922Y35943D01*
X-25095Y35735D01*
X-25269Y35544D01*
X-25477Y35354D01*
X-25685Y35163D01*
X-25928Y34989D01*
X-26188Y34816D01*
X-26205Y34798D01*
X-26257Y34781D01*
X-26327Y34729D01*
X-26448Y34677D01*
X-26587Y34608D01*
X-26760Y34538D01*
X-26951Y34451D01*
X-27194Y34382D01*
X-27437Y34295D01*
X-27715Y34209D01*
X-28027Y34139D01*
X-28357Y34070D01*
X-28721Y34018D01*
X-29102Y33966D01*
X-29502Y33948D01*
X-29918Y33931D01*
X-30143D01*
X-30300Y33948D01*
X-30490D01*
X-30699Y33966D01*
X-30959Y34000D01*
X-31219Y34035D01*
X-31809Y34122D01*
X-32433Y34260D01*
X-33041Y34451D01*
X-33335Y34555D01*
X-33613Y34694D01*
X-33630Y34712D01*
X-33682Y34729D01*
X-33752Y34781D01*
X-33839Y34833D01*
X-33960Y34920D01*
X-34099Y35024D01*
X-34238Y35128D01*
X-34394Y35267D01*
X-34741Y35579D01*
X-35070Y35961D01*
X-35383Y36412D01*
X-35521Y36672D01*
X-35643Y36932D01*
Y36950D01*
X-35660Y37002D01*
X-35695Y37088D01*
X-35729Y37210D01*
X-35782Y37348D01*
X-35834Y37539D01*
X-35886Y37747D01*
X-35938Y37990D01*
X-36007Y38268D01*
X-36059Y38563D01*
X-36111Y38893D01*
X-36146Y39257D01*
X-36198Y39639D01*
X-36215Y40055D01*
X-36250Y40489D01*
Y40957D01*
Y50203D01*
X-34134D01*
Y40957D01*
Y40940D01*
Y40870D01*
Y40766D01*
Y40610D01*
X-34116Y40437D01*
Y40246D01*
X-34099Y40020D01*
X-34081Y39795D01*
X-34047Y39292D01*
X-33977Y38788D01*
X-33873Y38303D01*
X-33821Y38077D01*
X-33752Y37886D01*
Y37869D01*
X-33735Y37852D01*
X-33717Y37800D01*
X-33682Y37730D01*
X-33578Y37539D01*
X-33440Y37331D01*
X-33266Y37071D01*
X-33041Y36828D01*
X-32763Y36585D01*
X-32433Y36360D01*
X-32416D01*
X-32381Y36342D01*
X-32329Y36308D01*
X-32260Y36273D01*
X-32173Y36238D01*
X-32052Y36203D01*
X-31930Y36151D01*
X-31792Y36099D01*
X-31444Y36013D01*
X-31045Y35926D01*
X-30594Y35857D01*
X-30109Y35839D01*
X-29883D01*
X-29727Y35857D01*
X-29536Y35874D01*
X-29311Y35891D01*
X-29068Y35926D01*
X-28808Y35978D01*
X-28270Y36099D01*
X-27992Y36186D01*
X-27715Y36290D01*
X-27455Y36412D01*
X-27212Y36551D01*
X-26986Y36707D01*
X-26778Y36897D01*
X-26760Y36915D01*
X-26726Y36950D01*
X-26691Y37019D01*
X-26622Y37106D01*
X-26552Y37227D01*
X-26466Y37383D01*
X-26361Y37574D01*
X-26275Y37800D01*
X-26188Y38060D01*
X-26084Y38355D01*
X-25997Y38684D01*
X-25928Y39049D01*
X-25858Y39465D01*
X-25806Y39916D01*
X-25789Y40419D01*
X-25772Y40957D01*
Y50203D01*
X-23655D01*
Y40957D01*
D02*
G37*
G36*
X107966Y46040D02*
X108122D01*
X108451Y46005D01*
X108833Y45971D01*
X109232Y45901D01*
X109631Y45814D01*
X109995Y45693D01*
X110013D01*
X110030Y45676D01*
X110082Y45658D01*
X110152Y45624D01*
X110308Y45554D01*
X110516Y45450D01*
X110741Y45329D01*
X110967Y45173D01*
X111175Y44999D01*
X111366Y44808D01*
X111383Y44791D01*
X111435Y44721D01*
X111522Y44600D01*
X111609Y44444D01*
X111713Y44253D01*
X111817Y44028D01*
X111921Y43767D01*
X111990Y43472D01*
Y43455D01*
X112008Y43368D01*
X112025Y43247D01*
X112042Y43056D01*
X112060Y42813D01*
X112077Y42501D01*
Y42310D01*
X112094Y42119D01*
Y41911D01*
Y41668D01*
Y39049D01*
Y39014D01*
Y38927D01*
Y38788D01*
Y38615D01*
Y38389D01*
Y38147D01*
X112112Y37869D01*
Y37591D01*
X112129Y37002D01*
Y36707D01*
X112147Y36429D01*
X112164Y36169D01*
X112181Y35943D01*
X112199Y35735D01*
X112216Y35579D01*
Y35544D01*
X112233Y35458D01*
X112268Y35319D01*
X112320Y35128D01*
X112389Y34920D01*
X112476Y34694D01*
X112580Y34434D01*
X112702Y34191D01*
X110655D01*
X110637Y34226D01*
X110603Y34295D01*
X110550Y34434D01*
X110498Y34608D01*
X110429Y34816D01*
X110360Y35059D01*
X110308Y35336D01*
X110273Y35648D01*
X110256Y35631D01*
X110221Y35614D01*
X110169Y35562D01*
X110082Y35492D01*
X109978Y35423D01*
X109874Y35319D01*
X109596Y35128D01*
X109267Y34902D01*
X108920Y34677D01*
X108538Y34486D01*
X108156Y34313D01*
X108139D01*
X108104Y34295D01*
X108052Y34278D01*
X107983Y34261D01*
X107896Y34226D01*
X107775Y34191D01*
X107514Y34122D01*
X107185Y34052D01*
X106821Y33983D01*
X106422Y33948D01*
X105988Y33931D01*
X105797D01*
X105676Y33948D01*
X105520Y33966D01*
X105329Y33983D01*
X105120Y34000D01*
X104912Y34052D01*
X104427Y34156D01*
X103941Y34313D01*
X103715Y34417D01*
X103472Y34555D01*
X103264Y34694D01*
X103056Y34850D01*
X103039Y34868D01*
X103004Y34902D01*
X102969Y34955D01*
X102900Y35024D01*
X102813Y35111D01*
X102726Y35232D01*
X102640Y35354D01*
X102553Y35510D01*
X102362Y35839D01*
X102189Y36256D01*
X102119Y36481D01*
X102085Y36724D01*
X102050Y36984D01*
X102032Y37245D01*
Y37262D01*
Y37279D01*
Y37383D01*
X102050Y37557D01*
X102085Y37765D01*
X102119Y38008D01*
X102189Y38268D01*
X102293Y38528D01*
X102414Y38806D01*
X102431Y38840D01*
X102484Y38927D01*
X102570Y39049D01*
X102692Y39222D01*
X102830Y39396D01*
X103004Y39587D01*
X103195Y39760D01*
X103420Y39933D01*
X103455Y39951D01*
X103542Y40003D01*
X103663Y40090D01*
X103837Y40176D01*
X104045Y40280D01*
X104288Y40384D01*
X104565Y40489D01*
X104843Y40575D01*
X104878D01*
X104947Y40610D01*
X105086Y40627D01*
X105277Y40679D01*
X105520Y40714D01*
X105832Y40766D01*
X106179Y40818D01*
X106595Y40870D01*
X106630D01*
X106699Y40888D01*
X106821Y40905D01*
X106977Y40922D01*
X107185Y40957D01*
X107410Y40992D01*
X107653Y41026D01*
X107931Y41061D01*
X108503Y41165D01*
X109076Y41287D01*
X109354Y41356D01*
X109631Y41425D01*
X109874Y41495D01*
X110099Y41564D01*
Y41582D01*
Y41634D01*
Y41703D01*
X110117Y41772D01*
Y41946D01*
Y42015D01*
Y42067D01*
Y42085D01*
Y42119D01*
Y42189D01*
Y42258D01*
X110082Y42466D01*
X110047Y42726D01*
X109978Y43004D01*
X109874Y43282D01*
X109735Y43542D01*
X109544Y43750D01*
X109510Y43785D01*
X109475Y43819D01*
X109405Y43854D01*
X109319Y43906D01*
X109232Y43958D01*
X108989Y44097D01*
X108677Y44218D01*
X108295Y44323D01*
X107844Y44392D01*
X107324Y44427D01*
X107098D01*
X106977Y44409D01*
X106855D01*
X106543Y44375D01*
X106213Y44305D01*
X105884Y44218D01*
X105554Y44097D01*
X105277Y43941D01*
X105242Y43924D01*
X105173Y43854D01*
X105051Y43715D01*
X104912Y43542D01*
X104756Y43316D01*
X104583Y43004D01*
X104444Y42657D01*
X104375Y42449D01*
X104305Y42223D01*
X102380Y42484D01*
Y42501D01*
X102397Y42536D01*
X102414Y42605D01*
X102431Y42692D01*
X102466Y42796D01*
X102501Y42917D01*
X102588Y43195D01*
X102709Y43507D01*
X102848Y43837D01*
X103021Y44166D01*
X103230Y44461D01*
Y44479D01*
X103264Y44496D01*
X103351Y44583D01*
X103490Y44721D01*
X103681Y44895D01*
X103924Y45086D01*
X104218Y45277D01*
X104565Y45468D01*
X104964Y45641D01*
X104982D01*
X105016Y45658D01*
X105086Y45676D01*
X105173Y45710D01*
X105277Y45745D01*
X105398Y45780D01*
X105554Y45814D01*
X105728Y45849D01*
X105901Y45884D01*
X106109Y45919D01*
X106560Y45988D01*
X107064Y46040D01*
X107601Y46057D01*
X107844D01*
X107966Y46040D01*
D02*
G37*
G36*
X88813Y34191D02*
X86402D01*
X84545Y39031D01*
X77814D01*
X76080Y34191D01*
X73842D01*
X79966Y50204D01*
X82256D01*
X88813Y34191D01*
D02*
G37*
G36*
X60813Y50186D02*
X61004D01*
X61195Y50169D01*
X61420Y50134D01*
X61871Y50082D01*
X62375Y49995D01*
X62843Y49874D01*
X63294Y49700D01*
X63311D01*
X63346Y49683D01*
X63398Y49648D01*
X63485Y49614D01*
X63676Y49492D01*
X63936Y49336D01*
X64213Y49128D01*
X64491Y48868D01*
X64769Y48555D01*
X65029Y48208D01*
Y48191D01*
X65064Y48156D01*
X65081Y48104D01*
X65133Y48035D01*
X65185Y47948D01*
X65237Y47827D01*
X65358Y47567D01*
X65462Y47254D01*
X65567Y46890D01*
X65636Y46508D01*
X65671Y46092D01*
Y46075D01*
Y46040D01*
Y45988D01*
Y45919D01*
X65636Y45728D01*
X65601Y45468D01*
X65532Y45173D01*
X65428Y44843D01*
X65289Y44513D01*
X65098Y44166D01*
Y44149D01*
X65081Y44132D01*
X65046Y44080D01*
X64994Y44010D01*
X64873Y43854D01*
X64682Y43646D01*
X64456Y43420D01*
X64161Y43177D01*
X63832Y42935D01*
X63433Y42709D01*
X63450D01*
X63502Y42692D01*
X63572Y42657D01*
X63676Y42622D01*
X63797Y42570D01*
X63936Y42518D01*
X64248Y42362D01*
X64612Y42171D01*
X64977Y41911D01*
X65341Y41616D01*
X65653Y41252D01*
X65671Y41234D01*
X65688Y41200D01*
X65723Y41148D01*
X65775Y41078D01*
X65844Y40974D01*
X65914Y40853D01*
X65983Y40714D01*
X66052Y40558D01*
X66191Y40211D01*
X66330Y39795D01*
X66417Y39326D01*
X66451Y39083D01*
Y38823D01*
Y38806D01*
Y38771D01*
Y38719D01*
Y38632D01*
X66434Y38528D01*
Y38424D01*
X66399Y38147D01*
X66330Y37817D01*
X66243Y37470D01*
X66122Y37088D01*
X65966Y36724D01*
Y36707D01*
X65948Y36689D01*
X65914Y36637D01*
X65879Y36568D01*
X65775Y36394D01*
X65636Y36186D01*
X65480Y35943D01*
X65272Y35701D01*
X65046Y35458D01*
X64786Y35232D01*
X64751Y35215D01*
X64665Y35145D01*
X64508Y35059D01*
X64300Y34937D01*
X64057Y34816D01*
X63762Y34677D01*
X63415Y34555D01*
X63034Y34451D01*
X63016D01*
X62982Y34434D01*
X62930D01*
X62843Y34417D01*
X62739Y34399D01*
X62617Y34365D01*
X62479Y34347D01*
X62323Y34330D01*
X62149Y34295D01*
X61941Y34278D01*
X61507Y34226D01*
X61004Y34209D01*
X60449Y34191D01*
X54360D01*
Y50204D01*
X60657D01*
X60813Y50186D01*
D02*
G37*
G36*
X50717Y34191D02*
X48600D01*
Y50204D01*
X50717D01*
Y34191D01*
D02*
G37*
G36*
X40256Y50186D02*
X40655Y50169D01*
X41054Y50134D01*
X41435Y50100D01*
X41626Y50082D01*
X41782Y50047D01*
X41800D01*
X41834Y50030D01*
X41904D01*
X41973Y50013D01*
X42077Y49978D01*
X42199Y49961D01*
X42476Y49874D01*
X42788Y49770D01*
X43118Y49631D01*
X43448Y49475D01*
X43760Y49284D01*
X43777D01*
X43795Y49267D01*
X43899Y49180D01*
X44037Y49059D01*
X44228Y48885D01*
X44419Y48677D01*
X44645Y48399D01*
X44853Y48104D01*
X45044Y47740D01*
Y47723D01*
X45061Y47688D01*
X45096Y47636D01*
X45130Y47567D01*
X45165Y47480D01*
X45200Y47358D01*
X45304Y47098D01*
X45391Y46769D01*
X45477Y46404D01*
X45529Y45988D01*
X45547Y45554D01*
Y45537D01*
Y45468D01*
Y45363D01*
X45529Y45207D01*
X45512Y45034D01*
X45477Y44843D01*
X45443Y44617D01*
X45391Y44357D01*
X45321Y44097D01*
X45234Y43819D01*
X45130Y43542D01*
X44992Y43247D01*
X44853Y42952D01*
X44679Y42657D01*
X44471Y42379D01*
X44246Y42102D01*
X44228Y42085D01*
X44176Y42050D01*
X44107Y41981D01*
X43985Y41876D01*
X43847Y41772D01*
X43656Y41651D01*
X43430Y41529D01*
X43170Y41408D01*
X42858Y41269D01*
X42528Y41148D01*
X42129Y41026D01*
X41713Y40922D01*
X41227Y40835D01*
X40707Y40766D01*
X40152Y40714D01*
X39527Y40697D01*
X35433Y40697D01*
Y34191D01*
X33316D01*
Y50203D01*
X39909Y50204D01*
X40256Y50186D01*
D02*
G37*
G36*
X1153Y50186D02*
X1344D01*
X1534Y50169D01*
X1760Y50134D01*
X2211Y50082D01*
X2714Y49995D01*
X3183Y49874D01*
X3634Y49700D01*
X3651D01*
X3686Y49683D01*
X3738Y49648D01*
X3824Y49614D01*
X4015Y49492D01*
X4275Y49336D01*
X4553Y49128D01*
X4830Y48868D01*
X5108Y48555D01*
X5368Y48208D01*
Y48191D01*
X5403Y48156D01*
X5420Y48104D01*
X5472Y48035D01*
X5525Y47948D01*
X5577Y47827D01*
X5698Y47567D01*
X5802Y47254D01*
X5906Y46890D01*
X5975Y46508D01*
X6010Y46092D01*
Y46075D01*
Y46040D01*
Y45988D01*
Y45918D01*
X5975Y45728D01*
X5941Y45468D01*
X5871Y45173D01*
X5767Y44843D01*
X5629Y44513D01*
X5438Y44166D01*
Y44149D01*
X5420Y44132D01*
X5386Y44080D01*
X5334Y44010D01*
X5212Y43854D01*
X5021Y43646D01*
X4796Y43420D01*
X4501Y43177D01*
X4171Y42935D01*
X3772Y42709D01*
X3790D01*
X3842Y42692D01*
X3911Y42657D01*
X4015Y42622D01*
X4137Y42570D01*
X4275Y42518D01*
X4588Y42362D01*
X4952Y42171D01*
X5316Y41911D01*
X5681Y41616D01*
X5993Y41252D01*
X6010Y41234D01*
X6028Y41200D01*
X6062Y41148D01*
X6114Y41078D01*
X6184Y40974D01*
X6253Y40853D01*
X6323Y40714D01*
X6392Y40558D01*
X6531Y40211D01*
X6669Y39795D01*
X6756Y39326D01*
X6791Y39083D01*
Y38823D01*
Y38806D01*
Y38771D01*
Y38719D01*
Y38632D01*
X6773Y38528D01*
Y38424D01*
X6739Y38147D01*
X6669Y37817D01*
X6583Y37470D01*
X6461Y37088D01*
X6305Y36724D01*
Y36707D01*
X6288Y36689D01*
X6253Y36637D01*
X6218Y36568D01*
X6114Y36394D01*
X5975Y36186D01*
X5819Y35943D01*
X5611Y35700D01*
X5386Y35458D01*
X5125Y35232D01*
X5091Y35215D01*
X5004Y35145D01*
X4848Y35059D01*
X4640Y34937D01*
X4397Y34816D01*
X4102Y34677D01*
X3755Y34555D01*
X3373Y34451D01*
X3356D01*
X3321Y34434D01*
X3269D01*
X3183Y34417D01*
X3078Y34399D01*
X2957Y34365D01*
X2818Y34347D01*
X2662Y34330D01*
X2489Y34295D01*
X2280Y34278D01*
X1847Y34226D01*
X1344Y34209D01*
X788Y34191D01*
X-5301D01*
Y50203D01*
X997D01*
X1153Y50186D01*
D02*
G37*
G36*
X129859Y45797D02*
X131854D01*
Y44271D01*
X129859D01*
Y37470D01*
Y37453D01*
Y37435D01*
Y37331D01*
Y37192D01*
X129876Y37019D01*
Y36845D01*
X129911Y36672D01*
X129928Y36516D01*
X129963Y36394D01*
Y36377D01*
X129980Y36360D01*
X130050Y36256D01*
X130154Y36134D01*
X130293Y36013D01*
X130310D01*
X130345Y35995D01*
X130397Y35978D01*
X130466Y35943D01*
X130570Y35926D01*
X130674Y35891D01*
X130813Y35874D01*
X131108D01*
X131212Y35891D01*
X131334D01*
X131490Y35909D01*
X131663Y35926D01*
X131854Y35943D01*
X132114Y34209D01*
X132080D01*
X131975Y34174D01*
X131819Y34156D01*
X131611Y34122D01*
X131386Y34087D01*
X131143Y34070D01*
X130622Y34035D01*
X130449D01*
X130258Y34052D01*
X130015Y34070D01*
X129738Y34122D01*
X129460Y34174D01*
X129200Y34261D01*
X128957Y34365D01*
X128940Y34382D01*
X128870Y34434D01*
X128766Y34503D01*
X128627Y34608D01*
X128489Y34729D01*
X128350Y34885D01*
X128228Y35059D01*
X128124Y35249D01*
X128107Y35284D01*
X128090Y35371D01*
X128072Y35440D01*
X128055Y35527D01*
X128038Y35631D01*
X128020Y35752D01*
X127985Y35891D01*
X127968Y36065D01*
X127951Y36256D01*
X127933Y36464D01*
X127916Y36707D01*
Y36967D01*
X127899Y37262D01*
Y37574D01*
Y44271D01*
X126441D01*
Y45797D01*
X127899D01*
Y48660D01*
X129859Y49839D01*
Y45797D01*
D02*
G37*
G36*
X138759Y46040D02*
X138915D01*
X139123Y46005D01*
X139348Y45971D01*
X139609Y45919D01*
X139886Y45866D01*
X140181Y45780D01*
X140476Y45676D01*
X140806Y45537D01*
X141118Y45381D01*
X141430Y45207D01*
X141742Y44982D01*
X142055Y44739D01*
X142332Y44461D01*
X142350Y44444D01*
X142402Y44392D01*
X142471Y44305D01*
X142558Y44166D01*
X142679Y44010D01*
X142801Y43819D01*
X142940Y43576D01*
X143078Y43316D01*
X143200Y43021D01*
X143339Y42692D01*
X143460Y42327D01*
X143581Y41929D01*
X143668Y41495D01*
X143738Y41026D01*
X143790Y40541D01*
X143807Y40020D01*
Y39985D01*
Y39899D01*
Y39725D01*
X143790Y39500D01*
X135133D01*
Y39482D01*
Y39413D01*
X135150Y39309D01*
X135168Y39188D01*
X135185Y39014D01*
X135220Y38840D01*
X135254Y38632D01*
X135306Y38407D01*
X135445Y37938D01*
X135636Y37435D01*
X135757Y37210D01*
X135879Y36967D01*
X136035Y36759D01*
X136208Y36551D01*
X136226Y36533D01*
X136260Y36516D01*
X136313Y36464D01*
X136382Y36394D01*
X136486Y36325D01*
X136590Y36238D01*
X136729Y36134D01*
X136885Y36047D01*
X137232Y35857D01*
X137648Y35701D01*
X137874Y35631D01*
X138117Y35596D01*
X138377Y35562D01*
X138637Y35544D01*
X138741D01*
X138811Y35562D01*
X139019Y35579D01*
X139279Y35614D01*
X139557Y35683D01*
X139869Y35787D01*
X140181Y35909D01*
X140476Y36100D01*
X140493D01*
X140511Y36134D01*
X140598Y36204D01*
X140736Y36342D01*
X140910Y36551D01*
X141101Y36793D01*
X141309Y37123D01*
X141517Y37505D01*
X141691Y37938D01*
X143738Y37678D01*
Y37661D01*
X143720Y37591D01*
X143686Y37505D01*
X143633Y37383D01*
X143581Y37227D01*
X143512Y37054D01*
X143425Y36863D01*
X143339Y36655D01*
X143096Y36221D01*
X142783Y35752D01*
X142593Y35527D01*
X142402Y35301D01*
X142194Y35093D01*
X141951Y34902D01*
X141933Y34885D01*
X141899Y34868D01*
X141812Y34816D01*
X141725Y34746D01*
X141586Y34677D01*
X141430Y34590D01*
X141257Y34503D01*
X141049Y34417D01*
X140823Y34330D01*
X140563Y34243D01*
X140303Y34156D01*
X140008Y34087D01*
X139696Y34018D01*
X139366Y33966D01*
X139002Y33948D01*
X138637Y33931D01*
X138533D01*
X138394Y33948D01*
X138221D01*
X137995Y33983D01*
X137753Y34018D01*
X137475Y34070D01*
X137180Y34122D01*
X136868Y34209D01*
X136538Y34313D01*
X136191Y34434D01*
X135862Y34590D01*
X135514Y34764D01*
X135202Y34972D01*
X134890Y35215D01*
X134595Y35492D01*
X134578Y35510D01*
X134526Y35562D01*
X134456Y35648D01*
X134370Y35787D01*
X134248Y35943D01*
X134127Y36134D01*
X133988Y36360D01*
X133867Y36620D01*
X133728Y36915D01*
X133589Y37245D01*
X133467Y37609D01*
X133346Y38008D01*
X133259Y38424D01*
X133190Y38875D01*
X133138Y39361D01*
X133120Y39881D01*
Y39916D01*
Y40003D01*
X133138Y40159D01*
Y40367D01*
X133173Y40610D01*
X133207Y40888D01*
X133242Y41217D01*
X133311Y41547D01*
X133381Y41911D01*
X133485Y42275D01*
X133606Y42657D01*
X133745Y43039D01*
X133919Y43403D01*
X134127Y43767D01*
X134352Y44114D01*
X134612Y44427D01*
X134630Y44444D01*
X134682Y44496D01*
X134769Y44583D01*
X134890Y44687D01*
X135029Y44808D01*
X135220Y44947D01*
X135428Y45086D01*
X135671Y45242D01*
X135931Y45398D01*
X136226Y45537D01*
X136555Y45676D01*
X136902Y45797D01*
X137284Y45901D01*
X137666Y45988D01*
X138099Y46040D01*
X138533Y46057D01*
X138637D01*
X138759Y46040D01*
D02*
G37*
G36*
X105000Y17500D02*
X105985Y17500D01*
X107917Y17116D01*
X109737Y16362D01*
X111375Y15267D01*
X112767Y13875D01*
X113862Y12237D01*
X114616Y10417D01*
X115000Y8485D01*
X115000Y7500D01*
X115000Y7500D01*
Y-2500D01*
Y-7500D01*
Y-8485D01*
X114616Y-10417D01*
X113862Y-12237D01*
X112767Y-13875D01*
X111375Y-15268D01*
X109737Y-16362D01*
X107917Y-17116D01*
X105985Y-17500D01*
X30000D01*
Y-10000D01*
X30000D01*
Y10000D01*
X30000D01*
Y17500D01*
X105000Y17500D01*
D02*
G37*
G36*
Y-22500D02*
X105985Y-22500D01*
X107917Y-22884D01*
X109737Y-23638D01*
X111375Y-24732D01*
X112767Y-26125D01*
X113862Y-27763D01*
X114616Y-29583D01*
X115000Y-31515D01*
X115000Y-32500D01*
X115000Y-32500D01*
Y-42500D01*
Y-47500D01*
Y-48485D01*
X114616Y-50417D01*
X113862Y-52237D01*
X112767Y-53875D01*
X111375Y-55268D01*
X109737Y-56362D01*
X107917Y-57116D01*
X105985Y-57500D01*
X30000D01*
Y-50000D01*
X30000D01*
Y-30000D01*
X30000D01*
Y-22500D01*
X105000Y-22500D01*
D02*
G37*
G36*
Y-62500D02*
X105985Y-62500D01*
X107917Y-62884D01*
X109737Y-63638D01*
X111375Y-64732D01*
X112767Y-66125D01*
X113862Y-67763D01*
X114616Y-69583D01*
X115000Y-71515D01*
X115000Y-72500D01*
X115000Y-72500D01*
Y-82500D01*
Y-87500D01*
Y-88485D01*
X114616Y-90417D01*
X113862Y-92237D01*
X112767Y-93875D01*
X111375Y-95268D01*
X109737Y-96362D01*
X107917Y-97116D01*
X105985Y-97500D01*
X30000D01*
Y-90000D01*
X30000D01*
Y-69169D01*
X30250D01*
Y-62500D01*
X105000Y-62500D01*
D02*
G37*
G36*
Y-102500D02*
X105985Y-102500D01*
X107917Y-102884D01*
X109737Y-103638D01*
X111375Y-104733D01*
X112767Y-106125D01*
X113862Y-107763D01*
X114616Y-109583D01*
X115000Y-111515D01*
X115000Y-112500D01*
X115000Y-112500D01*
Y-122500D01*
Y-127500D01*
Y-128485D01*
X114616Y-130417D01*
X113862Y-132237D01*
X112767Y-133875D01*
X111375Y-135267D01*
X109737Y-136362D01*
X107917Y-137116D01*
X105985Y-137500D01*
X30000D01*
Y-130000D01*
X30000D01*
Y-110000D01*
X30000D01*
Y-102500D01*
X105000Y-102500D01*
D02*
G37*
%LPC*%
G36*
X94607Y44427D02*
X94486D01*
X94382Y44409D01*
X94278Y44392D01*
X94139Y44375D01*
X93844Y44288D01*
X93497Y44166D01*
X93306Y44080D01*
X93116Y43976D01*
X92942Y43854D01*
X92751Y43698D01*
X92578Y43542D01*
X92404Y43351D01*
X92387Y43334D01*
X92370Y43299D01*
X92317Y43230D01*
X92266Y43143D01*
X92196Y43039D01*
X92127Y42883D01*
X92057Y42726D01*
X91971Y42518D01*
X91884Y42310D01*
X91814Y42050D01*
X91745Y41772D01*
X91676Y41477D01*
X91624Y41130D01*
X91572Y40784D01*
X91554Y40384D01*
X91537Y39968D01*
Y39951D01*
Y39864D01*
Y39760D01*
X91554Y39604D01*
X91572Y39413D01*
X91589Y39205D01*
X91624Y38979D01*
X91658Y38719D01*
X91762Y38181D01*
X91936Y37626D01*
X92040Y37366D01*
X92161Y37106D01*
X92317Y36863D01*
X92474Y36637D01*
X92491Y36620D01*
X92508Y36585D01*
X92578Y36533D01*
X92647Y36464D01*
X92734Y36377D01*
X92838Y36290D01*
X93098Y36100D01*
X93428Y35891D01*
X93809Y35718D01*
X94018Y35648D01*
X94226Y35596D01*
X94451Y35562D01*
X94694Y35544D01*
X94816D01*
X94920Y35562D01*
X95024Y35579D01*
X95163Y35596D01*
X95457Y35683D01*
X95805Y35805D01*
X95995Y35891D01*
X96169Y35978D01*
X96360Y36100D01*
X96551Y36238D01*
X96724Y36394D01*
X96897Y36585D01*
X96915Y36603D01*
X96932Y36637D01*
X96984Y36689D01*
X97036Y36793D01*
X97106Y36897D01*
X97192Y37036D01*
X97279Y37192D01*
X97366Y37383D01*
X97435Y37591D01*
X97522Y37834D01*
X97609Y38112D01*
X97678Y38389D01*
X97730Y38702D01*
X97782Y39049D01*
X97800Y39413D01*
X97817Y39812D01*
Y39847D01*
Y39916D01*
Y40037D01*
X97800Y40194D01*
X97782Y40402D01*
X97765Y40627D01*
X97747Y40870D01*
X97696Y41148D01*
X97591Y41703D01*
X97418Y42293D01*
X97314Y42570D01*
X97192Y42831D01*
X97054Y43073D01*
X96880Y43299D01*
X96863Y43316D01*
X96845Y43351D01*
X96793Y43403D01*
X96724Y43472D01*
X96620Y43559D01*
X96516Y43663D01*
X96256Y43871D01*
X95926Y44062D01*
X95527Y44253D01*
X95319Y44323D01*
X95093Y44375D01*
X94850Y44409D01*
X94607Y44427D01*
D02*
G37*
G36*
X120075Y44513D02*
X119953D01*
X119867Y44496D01*
X119762Y44479D01*
X119624Y44444D01*
X119329Y44375D01*
X118982Y44218D01*
X118808Y44132D01*
X118617Y44010D01*
X118427Y43889D01*
X118236Y43715D01*
X118045Y43542D01*
X117854Y43334D01*
X117837Y43316D01*
X117819Y43282D01*
X117767Y43212D01*
X117698Y43108D01*
X117628Y42987D01*
X117559Y42848D01*
X117472Y42674D01*
X117386Y42466D01*
X117282Y42241D01*
X117195Y41981D01*
X117125Y41703D01*
X117056Y41391D01*
X116987Y41061D01*
X116935Y40714D01*
X116917Y40332D01*
X116900Y39916D01*
Y39899D01*
Y39812D01*
Y39708D01*
X116917Y39552D01*
X116935Y39361D01*
X116952Y39153D01*
X116969Y38910D01*
X117021Y38667D01*
X117125Y38129D01*
X117282Y37574D01*
X117386Y37314D01*
X117507Y37054D01*
X117646Y36811D01*
X117802Y36603D01*
X117819Y36585D01*
X117837Y36551D01*
X117889Y36498D01*
X117958Y36446D01*
X118045Y36360D01*
X118149Y36273D01*
X118409Y36082D01*
X118739Y35874D01*
X119103Y35718D01*
X119311Y35648D01*
X119520Y35596D01*
X119745Y35562D01*
X119988Y35544D01*
X120109D01*
X120213Y35562D01*
X120317Y35579D01*
X120456Y35596D01*
X120769Y35683D01*
X121116Y35805D01*
X121306Y35909D01*
X121497Y36013D01*
X121688Y36134D01*
X121879Y36273D01*
X122070Y36446D01*
X122243Y36637D01*
X122261Y36655D01*
X122278Y36689D01*
X122330Y36759D01*
X122382Y36845D01*
X122469Y36967D01*
X122538Y37106D01*
X122625Y37279D01*
X122712Y37487D01*
X122798Y37713D01*
X122885Y37956D01*
X122972Y38251D01*
X123041Y38563D01*
X123093Y38893D01*
X123145Y39257D01*
X123163Y39656D01*
X123180Y40072D01*
Y40090D01*
Y40176D01*
Y40280D01*
X123163Y40437D01*
X123145Y40627D01*
X123128Y40835D01*
X123111Y41061D01*
X123059Y41321D01*
X122954Y41859D01*
X122798Y42414D01*
X122694Y42692D01*
X122573Y42935D01*
X122417Y43177D01*
X122261Y43403D01*
X122243Y43420D01*
X122226Y43455D01*
X122174Y43507D01*
X122104Y43576D01*
X122018Y43663D01*
X121896Y43750D01*
X121636Y43958D01*
X121324Y44166D01*
X120959Y44340D01*
X120751Y44409D01*
X120526Y44461D01*
X120300Y44496D01*
X120075Y44513D01*
D02*
G37*
G36*
X110117Y40020D02*
X110099D01*
X110065Y40003D01*
X109995Y39985D01*
X109909Y39951D01*
X109804Y39899D01*
X109666Y39864D01*
X109492Y39812D01*
X109319Y39760D01*
X109093Y39708D01*
X108850Y39639D01*
X108590Y39587D01*
X108295Y39517D01*
X107983Y39448D01*
X107653Y39396D01*
X107289Y39326D01*
X106890Y39274D01*
X106838D01*
X106769Y39257D01*
X106699Y39239D01*
X106474Y39205D01*
X106213Y39153D01*
X105936Y39101D01*
X105658Y39031D01*
X105398Y38962D01*
X105173Y38875D01*
X105155Y38858D01*
X105086Y38840D01*
X104999Y38788D01*
X104895Y38719D01*
X104756Y38615D01*
X104635Y38511D01*
X104513Y38389D01*
X104392Y38233D01*
X104375Y38216D01*
X104357Y38164D01*
X104305Y38077D01*
X104270Y37956D01*
X104218Y37817D01*
X104166Y37661D01*
X104149Y37487D01*
X104132Y37297D01*
Y37262D01*
X104149Y37175D01*
X104166Y37019D01*
X104201Y36845D01*
X104270Y36637D01*
X104375Y36412D01*
X104531Y36204D01*
X104721Y35995D01*
X104756Y35978D01*
X104826Y35909D01*
X104964Y35839D01*
X105155Y35735D01*
X105398Y35648D01*
X105710Y35562D01*
X106057Y35492D01*
X106456Y35475D01*
X106647D01*
X106751Y35492D01*
X106873Y35510D01*
X107133Y35544D01*
X107463Y35596D01*
X107792Y35683D01*
X108139Y35805D01*
X108486Y35961D01*
X108503D01*
X108521Y35978D01*
X108625Y36047D01*
X108781Y36169D01*
X108989Y36325D01*
X109197Y36516D01*
X109405Y36759D01*
X109614Y37019D01*
X109787Y37331D01*
X109804Y37366D01*
X109839Y37453D01*
X109891Y37609D01*
X109943Y37817D01*
X109995Y38094D01*
X110047Y38442D01*
X110082Y38840D01*
X110099Y39292D01*
X110117Y40020D01*
D02*
G37*
G36*
X81059Y48538D02*
Y48521D01*
X81041Y48469D01*
X81024Y48382D01*
X81006Y48278D01*
X80972Y48122D01*
X80937Y47966D01*
X80885Y47775D01*
X80833Y47567D01*
X80781Y47341D01*
X80712Y47098D01*
X80555Y46578D01*
X80382Y46023D01*
X80191Y45450D01*
X78422Y40749D01*
X83886D01*
X82204Y45190D01*
Y45207D01*
X82169Y45277D01*
X82134Y45381D01*
X82082Y45537D01*
X82013Y45693D01*
X81943Y45901D01*
X81857Y46127D01*
X81770Y46370D01*
X81596Y46907D01*
X81405Y47463D01*
X81215Y48018D01*
X81059Y48538D01*
D02*
G37*
G36*
X59981Y48313D02*
X56476D01*
Y43472D01*
X60275D01*
X60414Y43490D01*
X60709D01*
X61039Y43507D01*
X61386Y43542D01*
X61698Y43594D01*
X61837Y43611D01*
X61958Y43646D01*
X61975D01*
X61993Y43663D01*
X62097Y43698D01*
X62236Y43750D01*
X62409Y43837D01*
X62600Y43941D01*
X62808Y44080D01*
X62999Y44253D01*
X63172Y44444D01*
X63190Y44479D01*
X63242Y44548D01*
X63311Y44669D01*
X63381Y44826D01*
X63450Y45034D01*
X63520Y45277D01*
X63572Y45537D01*
X63589Y45849D01*
Y45866D01*
Y45884D01*
Y45988D01*
X63572Y46127D01*
X63537Y46318D01*
X63485Y46543D01*
X63415Y46786D01*
X63329Y47029D01*
X63190Y47254D01*
X63172Y47289D01*
X63120Y47358D01*
X63034Y47463D01*
X62912Y47584D01*
X62756Y47723D01*
X62565Y47862D01*
X62357Y47983D01*
X62097Y48087D01*
X62062Y48104D01*
X62028D01*
X61958Y48122D01*
X61889Y48139D01*
X61785Y48156D01*
X61663Y48174D01*
X61542Y48208D01*
X61386Y48226D01*
X61195Y48243D01*
X61004Y48261D01*
X60778Y48278D01*
X60536Y48295D01*
X60275D01*
X59981Y48313D01*
D02*
G37*
G36*
X60171Y41582D02*
X56476D01*
Y36082D01*
X60813D01*
X61039Y36100D01*
X61264D01*
X61507Y36117D01*
X61733Y36134D01*
X61906Y36151D01*
X61941D01*
X62028Y36169D01*
X62166Y36204D01*
X62340Y36256D01*
X62531Y36308D01*
X62722Y36394D01*
X62930Y36481D01*
X63120Y36585D01*
X63138Y36603D01*
X63207Y36637D01*
X63294Y36707D01*
X63415Y36811D01*
X63537Y36932D01*
X63676Y37088D01*
X63814Y37262D01*
X63936Y37470D01*
X63953Y37505D01*
X63988Y37574D01*
X64040Y37696D01*
X64109Y37869D01*
X64161Y38060D01*
X64213Y38285D01*
X64248Y38546D01*
X64265Y38823D01*
Y38840D01*
Y38858D01*
Y38910D01*
Y38979D01*
X64248Y39135D01*
X64213Y39361D01*
X64144Y39604D01*
X64075Y39864D01*
X63953Y40124D01*
X63797Y40384D01*
X63780Y40419D01*
X63710Y40489D01*
X63606Y40610D01*
X63467Y40749D01*
X63277Y40905D01*
X63051Y41044D01*
X62808Y41182D01*
X62513Y41304D01*
X62496D01*
X62479Y41321D01*
X62427Y41339D01*
X62357Y41356D01*
X62270Y41373D01*
X62184Y41391D01*
X62062Y41425D01*
X61923Y41443D01*
X61750Y41477D01*
X61576Y41495D01*
X61386Y41512D01*
X61178Y41547D01*
X60709Y41564D01*
X60171Y41582D01*
D02*
G37*
G36*
X40030Y48313D02*
X35433Y48313D01*
Y42588D01*
X39753Y42588D01*
X39891Y42605D01*
X40065D01*
X40256Y42622D01*
X40481Y42657D01*
X40707Y42692D01*
X41192Y42779D01*
X41678Y42917D01*
X41904Y43004D01*
X42112Y43108D01*
X42320Y43212D01*
X42494Y43351D01*
X42511Y43368D01*
X42528Y43386D01*
X42580Y43438D01*
X42632Y43490D01*
X42771Y43663D01*
X42927Y43906D01*
X43083Y44218D01*
X43222Y44583D01*
X43326Y45016D01*
X43344Y45242D01*
X43361Y45502D01*
Y45519D01*
Y45554D01*
Y45606D01*
Y45676D01*
X43326Y45866D01*
X43292Y46092D01*
X43239Y46370D01*
X43135Y46647D01*
X43014Y46942D01*
X42840Y47220D01*
X42823Y47254D01*
X42754Y47341D01*
X42632Y47463D01*
X42494Y47601D01*
X42285Y47758D01*
X42060Y47914D01*
X41800Y48052D01*
X41505Y48156D01*
X41487D01*
X41401Y48174D01*
X41262Y48208D01*
X41054Y48243D01*
X40932D01*
X40793Y48261D01*
X40620Y48278D01*
X40446Y48295D01*
X40238D01*
X40030Y48313D01*
D02*
G37*
G36*
X320Y48313D02*
X-3184D01*
Y43472D01*
X615D01*
X754Y43490D01*
X1049D01*
X1378Y43507D01*
X1725Y43542D01*
X2037Y43594D01*
X2176Y43611D01*
X2298Y43646D01*
X2315D01*
X2332Y43663D01*
X2437Y43698D01*
X2575Y43750D01*
X2749Y43837D01*
X2940Y43941D01*
X3148Y44080D01*
X3339Y44253D01*
X3512Y44444D01*
X3529Y44479D01*
X3582Y44548D01*
X3651Y44669D01*
X3720Y44826D01*
X3790Y45034D01*
X3859Y45277D01*
X3911Y45537D01*
X3928Y45849D01*
Y45866D01*
Y45884D01*
Y45988D01*
X3911Y46127D01*
X3876Y46318D01*
X3824Y46543D01*
X3755Y46786D01*
X3668Y47029D01*
X3529Y47254D01*
X3512Y47289D01*
X3460Y47358D01*
X3373Y47463D01*
X3252Y47584D01*
X3096Y47723D01*
X2905Y47861D01*
X2697Y47983D01*
X2437Y48087D01*
X2402Y48104D01*
X2367D01*
X2298Y48122D01*
X2228Y48139D01*
X2124Y48156D01*
X2003Y48174D01*
X1881Y48208D01*
X1725Y48226D01*
X1534Y48243D01*
X1344Y48260D01*
X1118Y48278D01*
X875Y48295D01*
X615D01*
X320Y48313D01*
D02*
G37*
G36*
X511Y41582D02*
X-3184D01*
Y36082D01*
X1153D01*
X1378Y36099D01*
X1604D01*
X1847Y36117D01*
X2072Y36134D01*
X2246Y36151D01*
X2280D01*
X2367Y36169D01*
X2506Y36203D01*
X2679Y36256D01*
X2870Y36308D01*
X3061Y36394D01*
X3269Y36481D01*
X3460Y36585D01*
X3477Y36602D01*
X3547Y36637D01*
X3634Y36707D01*
X3755Y36811D01*
X3876Y36932D01*
X4015Y37088D01*
X4154Y37262D01*
X4275Y37470D01*
X4293Y37505D01*
X4327Y37574D01*
X4379Y37696D01*
X4449Y37869D01*
X4501Y38060D01*
X4553Y38285D01*
X4588Y38545D01*
X4605Y38823D01*
Y38840D01*
Y38858D01*
Y38910D01*
Y38979D01*
X4588Y39135D01*
X4553Y39361D01*
X4484Y39604D01*
X4414Y39864D01*
X4293Y40124D01*
X4137Y40384D01*
X4119Y40419D01*
X4050Y40489D01*
X3946Y40610D01*
X3807Y40749D01*
X3616Y40905D01*
X3391Y41044D01*
X3148Y41182D01*
X2853Y41304D01*
X2835D01*
X2818Y41321D01*
X2766Y41339D01*
X2697Y41356D01*
X2610Y41373D01*
X2523Y41391D01*
X2402Y41425D01*
X2263Y41443D01*
X2089Y41477D01*
X1916Y41495D01*
X1725Y41512D01*
X1517Y41547D01*
X1049Y41564D01*
X511Y41582D01*
D02*
G37*
G36*
X138533Y44444D02*
X138394D01*
X138308Y44427D01*
X138186Y44409D01*
X138065Y44392D01*
X137735Y44323D01*
X137388Y44218D01*
X136989Y44062D01*
X136798Y43958D01*
X136608Y43837D01*
X136417Y43681D01*
X136243Y43524D01*
X136226Y43507D01*
X136208Y43490D01*
X136156Y43438D01*
X136104Y43368D01*
X136035Y43264D01*
X135948Y43160D01*
X135862Y43039D01*
X135775Y42883D01*
X135688Y42726D01*
X135601Y42536D01*
X135428Y42119D01*
X135306Y41651D01*
X135272Y41391D01*
X135237Y41113D01*
X141725D01*
Y41130D01*
Y41182D01*
X141708Y41252D01*
X141691Y41356D01*
X141673Y41477D01*
X141656Y41616D01*
X141586Y41929D01*
X141482Y42293D01*
X141361Y42657D01*
X141187Y43004D01*
X140979Y43299D01*
X140962Y43316D01*
X140944Y43351D01*
X140875Y43403D01*
X140806Y43472D01*
X140719Y43559D01*
X140598Y43663D01*
X140459Y43767D01*
X140320Y43871D01*
X140147Y43976D01*
X139956Y44080D01*
X139539Y44271D01*
X139314Y44340D01*
X139071Y44392D01*
X138811Y44427D01*
X138533Y44444D01*
D02*
G37*
G36*
X81675Y7831D02*
X81009D01*
X80863Y7811D01*
X80634D01*
X80571Y7790D01*
X80509D01*
X80300Y7769D01*
X80134Y7727D01*
X80050Y7706D01*
X80009Y7685D01*
X79905Y7623D01*
X79842Y7540D01*
X79801Y7477D01*
X79780Y7456D01*
X79759Y7352D01*
X79717Y7248D01*
X79696Y7186D01*
Y7144D01*
X76968Y-4707D01*
X76947D01*
X74010Y7082D01*
X73969Y7248D01*
X73927Y7373D01*
X73906Y7456D01*
X73885Y7477D01*
X73802Y7581D01*
X73719Y7644D01*
X73656Y7665D01*
X73615Y7685D01*
X73448Y7748D01*
X73281Y7769D01*
X73198Y7790D01*
X73073D01*
X72948Y7811D01*
X72782D01*
X72490Y7831D01*
X71803D01*
X71636Y7811D01*
X71407D01*
X71344Y7790D01*
X71282D01*
X71074Y7769D01*
X70907Y7727D01*
X70824Y7706D01*
X70782Y7685D01*
X70657Y7623D01*
X70574Y7540D01*
X70532Y7477D01*
X70511Y7456D01*
X70470Y7332D01*
X70428Y7207D01*
X70407Y7123D01*
Y7102D01*
Y7082D01*
X67575Y-4707D01*
X67554D01*
X64846Y7165D01*
X64804Y7311D01*
X64784Y7436D01*
X64763Y7498D01*
X64742Y7519D01*
X64679Y7602D01*
X64617Y7665D01*
X64534Y7685D01*
X64513Y7706D01*
X64367Y7769D01*
X64200Y7790D01*
X64075Y7811D01*
X63888D01*
X63742Y7831D01*
X62722D01*
X62555Y7811D01*
X62305D01*
X62222Y7790D01*
X62159D01*
X61951Y7748D01*
X61805Y7706D01*
X61701Y7644D01*
X61680Y7623D01*
X61597Y7519D01*
X61555Y7394D01*
X61534Y7290D01*
Y7248D01*
X61555Y7040D01*
X61597Y6832D01*
X61618Y6727D01*
X61638Y6644D01*
X61659Y6603D01*
Y6582D01*
X65179Y-6957D01*
X65242Y-7144D01*
X65304Y-7311D01*
X65346Y-7394D01*
X65367Y-7436D01*
X65471Y-7540D01*
X65575Y-7623D01*
X65658Y-7665D01*
X65700Y-7685D01*
X65908Y-7727D01*
X66137Y-7769D01*
X66221D01*
X66304Y-7790D01*
X66367D01*
X66533Y-7811D01*
X66720D01*
X67075Y-7831D01*
X67929D01*
X68095Y-7811D01*
X68366D01*
X68470Y-7790D01*
X68533D01*
X68803Y-7769D01*
X68991Y-7727D01*
X69116Y-7706D01*
X69157Y-7685D01*
X69324Y-7602D01*
X69428Y-7519D01*
X69491Y-7436D01*
X69511Y-7415D01*
X69574Y-7269D01*
X69637Y-7123D01*
X69657Y-6998D01*
X69678Y-6977D01*
Y-6957D01*
X72032Y2874D01*
X72052D01*
X74552Y-6957D01*
X74594Y-7144D01*
X74635Y-7311D01*
X74677Y-7394D01*
X74698Y-7436D01*
X74802Y-7540D01*
X74927Y-7623D01*
X75010Y-7665D01*
X75052Y-7685D01*
X75260Y-7727D01*
X75489Y-7769D01*
X75572D01*
X75656Y-7790D01*
X75718D01*
X75885Y-7811D01*
X76072D01*
X76426Y-7831D01*
X77239D01*
X77405Y-7811D01*
X77655D01*
X77759Y-7790D01*
X77822D01*
X78093Y-7769D01*
X78301Y-7727D01*
X78363Y-7706D01*
X78426D01*
X78447Y-7685D01*
X78467D01*
X78634Y-7602D01*
X78759Y-7519D01*
X78822Y-7456D01*
X78842Y-7436D01*
X78926Y-7290D01*
X78988Y-7123D01*
X79030Y-6998D01*
X79051Y-6977D01*
Y-6957D01*
X82612Y6540D01*
X82675Y6832D01*
X82716Y7040D01*
Y7123D01*
X82737Y7186D01*
Y7394D01*
X82675Y7519D01*
X82633Y7602D01*
X82612Y7623D01*
X82487Y7706D01*
X82362Y7769D01*
X82237Y7790D01*
X82196D01*
X82071Y7811D01*
X81946D01*
X81675Y7831D01*
D02*
G37*
G36*
X93714Y7769D02*
X85737D01*
X85611Y7727D01*
X85403Y7644D01*
X85320Y7602D01*
X85258Y7561D01*
X85237Y7540D01*
X85216Y7519D01*
X85133Y7415D01*
X85070Y7311D01*
X85007Y7061D01*
X84987Y6957D01*
X84966Y6852D01*
Y-6790D01*
X84987Y-6977D01*
X85007Y-7123D01*
X85049Y-7248D01*
X85091Y-7352D01*
X85133Y-7436D01*
X85174Y-7498D01*
X85216Y-7519D01*
Y-7540D01*
X85320Y-7623D01*
X85445Y-7665D01*
X85653Y-7748D01*
X85737D01*
X85820Y-7769D01*
X93693D01*
X93776Y-7748D01*
X93818Y-7727D01*
X93859Y-7706D01*
X93880D01*
X93943Y-7644D01*
X94005Y-7581D01*
X94026Y-7519D01*
X94047Y-7498D01*
X94088Y-7373D01*
X94109Y-7248D01*
X94130Y-7165D01*
Y-7123D01*
X94151Y-6936D01*
X94172Y-6748D01*
Y-6290D01*
X94151Y-6123D01*
X94130Y-5998D01*
Y-5957D01*
X94109Y-5811D01*
X94088Y-5686D01*
X94068Y-5603D01*
X94047Y-5582D01*
X94005Y-5478D01*
X93943Y-5415D01*
X93901Y-5394D01*
X93880Y-5374D01*
X93818Y-5332D01*
X93755Y-5290D01*
X88111D01*
Y-916D01*
X92797D01*
X92922Y-896D01*
X92964Y-875D01*
X92985D01*
X93047Y-812D01*
X93110Y-750D01*
X93130Y-687D01*
X93151Y-667D01*
X93193Y-542D01*
X93214Y-437D01*
X93235Y-354D01*
Y-312D01*
X93255Y-125D01*
X93276Y63D01*
Y146D01*
Y208D01*
Y250D01*
Y271D01*
Y500D01*
X93255Y687D01*
X93235Y791D01*
Y833D01*
X93214Y1000D01*
X93193Y1125D01*
X93172Y1187D01*
X93151Y1208D01*
X93110Y1312D01*
X93047Y1375D01*
X93006Y1396D01*
X92985Y1416D01*
X92922Y1458D01*
X92860Y1500D01*
X88111D01*
Y5290D01*
X93651D01*
X93735Y5311D01*
X93776Y5332D01*
X93818Y5353D01*
X93839D01*
X93901Y5415D01*
X93943Y5478D01*
X93984Y5540D01*
Y5561D01*
X94026Y5686D01*
X94047Y5811D01*
X94068Y5894D01*
Y5936D01*
X94088Y6123D01*
X94109Y6311D01*
Y6373D01*
Y6436D01*
Y6478D01*
Y6498D01*
Y6748D01*
X94088Y6936D01*
X94068Y7061D01*
Y7102D01*
X94047Y7248D01*
X94026Y7373D01*
X94005Y7456D01*
X93984Y7477D01*
X93943Y7581D01*
X93880Y7665D01*
X93859Y7685D01*
X93839Y7706D01*
X93776Y7748D01*
X93714Y7769D01*
D02*
G37*
G36*
X102274D02*
X97733D01*
X97608Y7727D01*
X97400Y7644D01*
X97317Y7602D01*
X97254Y7561D01*
X97234Y7540D01*
X97213Y7519D01*
X97129Y7415D01*
X97067Y7311D01*
X97004Y7061D01*
X96984Y6957D01*
X96963Y6852D01*
Y-7332D01*
X96984Y-7415D01*
X97004Y-7498D01*
X97025Y-7540D01*
Y-7561D01*
X97088Y-7623D01*
X97171Y-7665D01*
X97254Y-7685D01*
X97275Y-7706D01*
X97421Y-7748D01*
X97588Y-7769D01*
X97713Y-7790D01*
X97754D01*
X98004Y-7811D01*
X98254Y-7831D01*
X98858D01*
X98983Y-7811D01*
X99171D01*
X99233Y-7790D01*
X99296D01*
X99504Y-7769D01*
X99650Y-7748D01*
X99754Y-7706D01*
X99775D01*
X99900Y-7665D01*
X99983Y-7602D01*
X100024Y-7581D01*
X100045Y-7561D01*
X100087Y-7477D01*
X100129Y-7415D01*
Y-7352D01*
Y-7332D01*
Y-1416D01*
X101108D01*
X101462Y-1437D01*
X101607Y-1458D01*
X101732Y-1500D01*
X101837Y-1520D01*
X101920Y-1562D01*
X101961Y-1583D01*
X101982D01*
X102253Y-1708D01*
X102482Y-1875D01*
X102565Y-1937D01*
X102628Y-1999D01*
X102649Y-2020D01*
X102670Y-2041D01*
X102878Y-2291D01*
X103045Y-2541D01*
X103107Y-2645D01*
X103149Y-2729D01*
X103190Y-2791D01*
Y-2812D01*
X103378Y-3166D01*
X103461Y-3332D01*
X103544Y-3499D01*
X103607Y-3645D01*
X103669Y-3749D01*
X103690Y-3832D01*
X103711Y-3853D01*
X105106Y-7311D01*
X105148Y-7415D01*
X105169Y-7498D01*
X105211Y-7540D01*
Y-7561D01*
X105294Y-7623D01*
X105377Y-7685D01*
X105440Y-7706D01*
X105461Y-7727D01*
X105606Y-7748D01*
X105752Y-7769D01*
X105877Y-7790D01*
X105919D01*
X106169Y-7811D01*
X106440Y-7831D01*
X107127D01*
X107294Y-7811D01*
X107543D01*
X107627Y-7790D01*
X107689D01*
X107918Y-7769D01*
X108085Y-7748D01*
X108189Y-7727D01*
X108210D01*
X108335Y-7685D01*
X108397Y-7623D01*
X108439Y-7602D01*
Y-7581D01*
X108481Y-7519D01*
X108502Y-7436D01*
Y-7269D01*
X108481Y-7165D01*
X108460Y-7082D01*
X108439Y-7040D01*
X108418Y-6957D01*
X108377Y-6852D01*
X108293Y-6623D01*
X108252Y-6519D01*
X108210Y-6457D01*
X108189Y-6394D01*
Y-6373D01*
X106877Y-3312D01*
X106710Y-2916D01*
X106627Y-2749D01*
X106544Y-2603D01*
X106481Y-2479D01*
X106440Y-2395D01*
X106419Y-2333D01*
X106398Y-2312D01*
X106231Y-1999D01*
X106065Y-1770D01*
X106002Y-1666D01*
X105940Y-1604D01*
X105919Y-1562D01*
X105898Y-1541D01*
X105690Y-1291D01*
X105502Y-1125D01*
X105419Y-1041D01*
X105377Y-1000D01*
X105336Y-958D01*
X105315D01*
X105086Y-791D01*
X104877Y-646D01*
X104794Y-604D01*
X104732Y-562D01*
X104690Y-542D01*
X104669D01*
X104919Y-458D01*
X105169Y-354D01*
X105377Y-250D01*
X105565Y-167D01*
X105731Y-83D01*
X105836Y-21D01*
X105919Y21D01*
X105940Y42D01*
X106148Y188D01*
X106335Y333D01*
X106502Y479D01*
X106648Y625D01*
X106752Y729D01*
X106835Y833D01*
X106877Y896D01*
X106898Y916D01*
X107148Y1312D01*
X107252Y1500D01*
X107335Y1687D01*
X107398Y1833D01*
X107439Y1958D01*
X107481Y2041D01*
Y2062D01*
X107606Y2562D01*
X107648Y2791D01*
X107668Y3020D01*
X107689Y3207D01*
Y3374D01*
Y3457D01*
Y3499D01*
X107668Y3832D01*
X107648Y4145D01*
X107606Y4415D01*
X107543Y4665D01*
X107481Y4853D01*
X107439Y4999D01*
X107418Y5082D01*
X107398Y5124D01*
X107294Y5394D01*
X107169Y5624D01*
X107023Y5832D01*
X106898Y6019D01*
X106794Y6165D01*
X106690Y6290D01*
X106627Y6352D01*
X106606Y6373D01*
X106398Y6561D01*
X106190Y6727D01*
X105981Y6873D01*
X105773Y6977D01*
X105606Y7082D01*
X105461Y7144D01*
X105377Y7186D01*
X105336Y7207D01*
X104753Y7415D01*
X104482Y7498D01*
X104211Y7561D01*
X103982Y7602D01*
X103815Y7644D01*
X103690Y7665D01*
X103649D01*
X103399Y7685D01*
X103169Y7706D01*
X103065Y7727D01*
X102920D01*
X102607Y7748D01*
X102274Y7769D01*
D02*
G37*
G36*
X38061D02*
X34062D01*
X33896Y7748D01*
X33750Y7727D01*
X33604Y7685D01*
X33500Y7623D01*
X33417Y7561D01*
X33354Y7519D01*
X33312Y7498D01*
X33292Y7477D01*
X33187Y7352D01*
X33125Y7227D01*
X33042Y6936D01*
X33021Y6811D01*
X33000Y6707D01*
Y-7332D01*
X33021Y-7415D01*
X33042Y-7498D01*
X33063Y-7540D01*
Y-7561D01*
X33125Y-7623D01*
X33208Y-7665D01*
X33292Y-7685D01*
X33312Y-7706D01*
X33458Y-7748D01*
X33625Y-7769D01*
X33750Y-7790D01*
X33791D01*
X34041Y-7811D01*
X34291Y-7831D01*
X34895D01*
X35020Y-7811D01*
X35208D01*
X35270Y-7790D01*
X35333D01*
X35541Y-7769D01*
X35687Y-7748D01*
X35791Y-7706D01*
X35812D01*
X35937Y-7665D01*
X36020Y-7602D01*
X36062Y-7581D01*
X36083Y-7561D01*
X36124Y-7477D01*
X36166Y-7415D01*
Y-7352D01*
Y-7332D01*
Y-2374D01*
X37457D01*
X37999Y-2354D01*
X38519Y-2312D01*
X38957Y-2270D01*
X39353Y-2187D01*
X39665Y-2124D01*
X39790Y-2104D01*
X39894Y-2083D01*
X39998Y-2062D01*
X40061Y-2041D01*
X40082Y-2020D01*
X40102D01*
X40519Y-1875D01*
X40894Y-1708D01*
X41206Y-1541D01*
X41498Y-1375D01*
X41706Y-1208D01*
X41873Y-1083D01*
X41977Y-1000D01*
X42018Y-979D01*
X42289Y-708D01*
X42539Y-417D01*
X42727Y-146D01*
X42893Y125D01*
X43039Y354D01*
X43122Y542D01*
X43185Y667D01*
X43206Y687D01*
Y708D01*
X43351Y1104D01*
X43456Y1500D01*
X43518Y1895D01*
X43581Y2249D01*
X43601Y2583D01*
Y2708D01*
X43622Y2812D01*
Y3041D01*
X43601Y3395D01*
X43581Y3707D01*
X43539Y3999D01*
X43497Y4249D01*
X43435Y4457D01*
X43393Y4624D01*
X43372Y4707D01*
X43351Y4749D01*
X43247Y5020D01*
X43122Y5290D01*
X42997Y5519D01*
X42873Y5707D01*
X42748Y5874D01*
X42664Y5978D01*
X42602Y6061D01*
X42581Y6082D01*
X42393Y6290D01*
X42185Y6457D01*
X41977Y6623D01*
X41789Y6769D01*
X41602Y6873D01*
X41477Y6957D01*
X41394Y6998D01*
X41352Y7019D01*
X41081Y7144D01*
X40831Y7248D01*
X40602Y7352D01*
X40394Y7415D01*
X40206Y7456D01*
X40082Y7498D01*
X39998Y7519D01*
X39957D01*
X39707Y7561D01*
X39478Y7602D01*
X39269Y7644D01*
X39103Y7665D01*
X38957Y7685D01*
X38853Y7706D01*
X38769D01*
X38394Y7748D01*
X38207D01*
X38061Y7769D01*
D02*
G37*
G36*
X53141Y8040D02*
X52849D01*
X52183Y8019D01*
X51558Y7956D01*
X51016Y7852D01*
X50766Y7811D01*
X50537Y7748D01*
X50329Y7685D01*
X50142Y7644D01*
X49975Y7602D01*
X49850Y7540D01*
X49746Y7519D01*
X49662Y7477D01*
X49621Y7456D01*
X49600D01*
X49100Y7227D01*
X48642Y6957D01*
X48246Y6686D01*
X47892Y6436D01*
X47621Y6207D01*
X47413Y5998D01*
X47351Y5936D01*
X47288Y5874D01*
X47267Y5853D01*
X47246Y5832D01*
X46913Y5415D01*
X46621Y4999D01*
X46392Y4561D01*
X46184Y4166D01*
X46038Y3812D01*
X45976Y3645D01*
X45913Y3520D01*
X45872Y3416D01*
X45851Y3332D01*
X45830Y3291D01*
Y3270D01*
X45663Y2687D01*
X45559Y2104D01*
X45476Y1541D01*
X45413Y1021D01*
X45393Y791D01*
X45372Y562D01*
Y375D01*
X45351Y208D01*
Y-104D01*
X45372Y-854D01*
X45413Y-1520D01*
X45455Y-1833D01*
X45497Y-2145D01*
X45539Y-2416D01*
X45580Y-2666D01*
X45601Y-2874D01*
X45643Y-3083D01*
X45684Y-3249D01*
X45726Y-3395D01*
X45747Y-3520D01*
X45768Y-3603D01*
X45788Y-3645D01*
Y-3666D01*
X45976Y-4207D01*
X46184Y-4686D01*
X46413Y-5103D01*
X46642Y-5457D01*
X46830Y-5749D01*
X46996Y-5957D01*
X47059Y-6040D01*
X47101Y-6103D01*
X47142Y-6123D01*
Y-6144D01*
X47496Y-6478D01*
X47871Y-6769D01*
X48246Y-7019D01*
X48600Y-7227D01*
X48913Y-7373D01*
X49058Y-7436D01*
X49163Y-7498D01*
X49267Y-7540D01*
X49329Y-7561D01*
X49371Y-7581D01*
X49392D01*
X49912Y-7727D01*
X50454Y-7852D01*
X50995Y-7936D01*
X51474Y-7977D01*
X51704Y-7998D01*
X51912Y-8019D01*
X52099D01*
X52245Y-8040D01*
X52558D01*
X53224Y-8019D01*
X53828Y-7956D01*
X54390Y-7873D01*
X54640Y-7811D01*
X54869Y-7769D01*
X55057Y-7727D01*
X55244Y-7665D01*
X55411Y-7623D01*
X55536Y-7581D01*
X55640Y-7540D01*
X55723Y-7519D01*
X55765Y-7498D01*
X55786D01*
X56286Y-7269D01*
X56744Y-6998D01*
X57140Y-6727D01*
X57473Y-6478D01*
X57744Y-6248D01*
X57952Y-6040D01*
X58077Y-5915D01*
X58119Y-5894D01*
Y-5874D01*
X58452Y-5457D01*
X58743Y-5020D01*
X58993Y-4582D01*
X59202Y-4186D01*
X59347Y-3832D01*
X59410Y-3666D01*
X59472Y-3541D01*
X59514Y-3437D01*
X59535Y-3353D01*
X59556Y-3312D01*
Y-3291D01*
X59722Y-2708D01*
X59847Y-2104D01*
X59931Y-1520D01*
X59993Y-1000D01*
X60014Y-750D01*
X60035Y-521D01*
Y-333D01*
X60056Y-167D01*
Y167D01*
X60035Y896D01*
X59972Y1562D01*
X59951Y1875D01*
X59910Y2166D01*
X59868Y2437D01*
X59826Y2666D01*
X59764Y2895D01*
X59722Y3083D01*
X59681Y3270D01*
X59660Y3395D01*
X59618Y3520D01*
X59597Y3603D01*
X59577Y3645D01*
Y3666D01*
X59389Y4186D01*
X59160Y4665D01*
X58931Y5103D01*
X58723Y5457D01*
X58514Y5728D01*
X58348Y5957D01*
X58285Y6019D01*
X58243Y6082D01*
X58223Y6103D01*
X58202Y6123D01*
X57848Y6457D01*
X57473Y6769D01*
X57098Y7019D01*
X56744Y7207D01*
X56431Y7373D01*
X56286Y7415D01*
X56182Y7477D01*
X56077Y7519D01*
X56015Y7540D01*
X55973Y7561D01*
X55953D01*
X55432Y7727D01*
X54890Y7831D01*
X54370Y7915D01*
X53891Y7977D01*
X53682Y7998D01*
X53474Y8019D01*
X53286D01*
X53141Y8040D01*
D02*
G37*
%LPD*%
G36*
X102024Y5332D02*
X102253D01*
X102316Y5311D01*
X102378D01*
X102586Y5270D01*
X102774Y5249D01*
X102878Y5228D01*
X102920Y5207D01*
X103190Y5124D01*
X103440Y4999D01*
X103628Y4874D01*
X103794Y4749D01*
X103919Y4645D01*
X104003Y4541D01*
X104044Y4478D01*
X104065Y4457D01*
X104190Y4249D01*
X104273Y4041D01*
X104336Y3812D01*
X104378Y3624D01*
X104398Y3437D01*
X104419Y3291D01*
Y3207D01*
Y3166D01*
X104398Y2812D01*
X104357Y2666D01*
X104336Y2520D01*
X104294Y2416D01*
X104253Y2333D01*
X104232Y2270D01*
Y2249D01*
X104086Y1979D01*
X103919Y1750D01*
X103857Y1666D01*
X103794Y1625D01*
X103753Y1583D01*
X103732Y1562D01*
X103461Y1375D01*
X103190Y1229D01*
X103065Y1166D01*
X102982Y1146D01*
X102920Y1104D01*
X102899D01*
X102503Y1021D01*
X102316Y1000D01*
X102128Y979D01*
X101961Y958D01*
X100129D01*
Y5353D01*
X101878D01*
X102024Y5332D01*
D02*
G37*
G36*
X37853Y5311D02*
X37999D01*
X38145Y5290D01*
X38270Y5270D01*
X38353D01*
X38415Y5249D01*
X38436D01*
X38769Y5165D01*
X38936Y5124D01*
X39061Y5061D01*
X39165Y5020D01*
X39269Y4978D01*
X39311Y4957D01*
X39332Y4936D01*
X39478Y4832D01*
X39623Y4707D01*
X39852Y4457D01*
X39936Y4332D01*
X39998Y4228D01*
X40019Y4166D01*
X40040Y4145D01*
X40144Y3936D01*
X40206Y3707D01*
X40269Y3499D01*
X40290Y3291D01*
X40311Y3103D01*
X40332Y2958D01*
Y2853D01*
Y2812D01*
X40311Y2374D01*
X40269Y2187D01*
X40248Y2020D01*
X40206Y1875D01*
X40165Y1770D01*
X40144Y1708D01*
Y1687D01*
X39998Y1333D01*
X39915Y1187D01*
X39832Y1062D01*
X39769Y958D01*
X39707Y875D01*
X39665Y833D01*
X39644Y812D01*
X39394Y583D01*
X39123Y396D01*
X38998Y333D01*
X38915Y292D01*
X38853Y250D01*
X38832D01*
X38644Y188D01*
X38415Y146D01*
X38207Y104D01*
X38020Y83D01*
X37832D01*
X37686Y63D01*
X36166D01*
Y5332D01*
X37499D01*
X37853Y5311D01*
D02*
G37*
G36*
X53162Y5436D02*
X53536Y5394D01*
X53849Y5332D01*
X54140Y5270D01*
X54349Y5186D01*
X54515Y5124D01*
X54619Y5082D01*
X54661Y5061D01*
X54932Y4895D01*
X55182Y4728D01*
X55390Y4541D01*
X55557Y4353D01*
X55703Y4186D01*
X55807Y4062D01*
X55869Y3978D01*
X55890Y3936D01*
X56057Y3666D01*
X56182Y3374D01*
X56307Y3083D01*
X56390Y2812D01*
X56452Y2583D01*
X56494Y2395D01*
X56536Y2270D01*
Y2249D01*
Y2229D01*
X56598Y1854D01*
X56661Y1458D01*
X56702Y1083D01*
X56723Y750D01*
X56744Y437D01*
Y208D01*
Y125D01*
Y63D01*
Y21D01*
Y0D01*
Y-417D01*
X56702Y-791D01*
X56681Y-1146D01*
X56640Y-1458D01*
X56598Y-1729D01*
X56577Y-1937D01*
X56536Y-2062D01*
Y-2083D01*
Y-2104D01*
X56452Y-2458D01*
X56348Y-2791D01*
X56223Y-3083D01*
X56119Y-3332D01*
X56015Y-3541D01*
X55932Y-3707D01*
X55869Y-3791D01*
X55848Y-3832D01*
X55661Y-4103D01*
X55453Y-4332D01*
X55244Y-4541D01*
X55036Y-4707D01*
X54849Y-4832D01*
X54703Y-4936D01*
X54619Y-4999D01*
X54578Y-5020D01*
X54265Y-5165D01*
X53953Y-5270D01*
X53620Y-5332D01*
X53328Y-5374D01*
X53057Y-5415D01*
X52828Y-5436D01*
X52641D01*
X52224Y-5415D01*
X51849Y-5374D01*
X51537Y-5311D01*
X51245Y-5249D01*
X51037Y-5186D01*
X50870Y-5124D01*
X50766Y-5082D01*
X50725Y-5061D01*
X50454Y-4915D01*
X50204Y-4728D01*
X49996Y-4561D01*
X49829Y-4374D01*
X49683Y-4228D01*
X49579Y-4103D01*
X49517Y-3999D01*
X49496Y-3978D01*
X49329Y-3687D01*
X49204Y-3395D01*
X49100Y-3103D01*
X48996Y-2833D01*
X48933Y-2603D01*
X48892Y-2416D01*
X48850Y-2291D01*
Y-2270D01*
Y-2249D01*
X48788Y-1854D01*
X48746Y-1458D01*
X48704Y-1062D01*
X48684Y-708D01*
Y-396D01*
X48663Y-271D01*
Y-146D01*
Y-63D01*
Y0D01*
Y42D01*
Y63D01*
Y458D01*
X48684Y833D01*
X48725Y1187D01*
X48767Y1500D01*
X48788Y1750D01*
X48829Y1958D01*
X48850Y2083D01*
Y2104D01*
Y2124D01*
X48933Y2479D01*
X49038Y2812D01*
X49163Y3103D01*
X49267Y3353D01*
X49371Y3541D01*
X49454Y3707D01*
X49517Y3791D01*
X49537Y3832D01*
X49725Y4082D01*
X49933Y4332D01*
X50142Y4520D01*
X50350Y4686D01*
X50516Y4832D01*
X50662Y4915D01*
X50746Y4978D01*
X50787Y4999D01*
X51100Y5145D01*
X51433Y5270D01*
X51745Y5353D01*
X52058Y5394D01*
X52328Y5436D01*
X52558Y5457D01*
X52745D01*
X53162Y5436D01*
D02*
G37*
%LPC*%
G36*
X46090Y-32231D02*
X38113D01*
X37988Y-32273D01*
X37779Y-32356D01*
X37696Y-32398D01*
X37634Y-32439D01*
X37613Y-32460D01*
X37592Y-32481D01*
X37509Y-32585D01*
X37446Y-32689D01*
X37384Y-32939D01*
X37363Y-33043D01*
X37342Y-33148D01*
Y-46790D01*
X37363Y-46977D01*
X37384Y-47123D01*
X37425Y-47248D01*
X37467Y-47352D01*
X37509Y-47436D01*
X37550Y-47498D01*
X37592Y-47519D01*
Y-47540D01*
X37696Y-47623D01*
X37821Y-47665D01*
X38029Y-47748D01*
X38113D01*
X38196Y-47769D01*
X46069D01*
X46152Y-47748D01*
X46194Y-47727D01*
X46236Y-47706D01*
X46256D01*
X46319Y-47644D01*
X46381Y-47581D01*
X46402Y-47519D01*
X46423Y-47498D01*
X46465Y-47373D01*
X46486Y-47248D01*
X46506Y-47165D01*
Y-47123D01*
X46527Y-46936D01*
X46548Y-46748D01*
Y-46290D01*
X46527Y-46123D01*
X46506Y-45999D01*
Y-45957D01*
X46486Y-45811D01*
X46465Y-45686D01*
X46444Y-45603D01*
X46423Y-45582D01*
X46381Y-45478D01*
X46319Y-45415D01*
X46277Y-45395D01*
X46256Y-45374D01*
X46194Y-45332D01*
X46131Y-45290D01*
X40487D01*
Y-40917D01*
X45173D01*
X45298Y-40896D01*
X45340Y-40875D01*
X45361D01*
X45423Y-40812D01*
X45486Y-40750D01*
X45507Y-40687D01*
X45527Y-40666D01*
X45569Y-40542D01*
X45590Y-40437D01*
X45611Y-40354D01*
Y-40312D01*
X45632Y-40125D01*
X45652Y-39938D01*
Y-39854D01*
Y-39792D01*
Y-39750D01*
Y-39729D01*
Y-39500D01*
X45632Y-39313D01*
X45611Y-39209D01*
Y-39167D01*
X45590Y-39000D01*
X45569Y-38875D01*
X45548Y-38813D01*
X45527Y-38792D01*
X45486Y-38688D01*
X45423Y-38625D01*
X45382Y-38605D01*
X45361Y-38584D01*
X45298Y-38542D01*
X45236Y-38500D01*
X40487D01*
Y-34710D01*
X46027D01*
X46111Y-34689D01*
X46152Y-34668D01*
X46194Y-34647D01*
X46215D01*
X46277Y-34585D01*
X46319Y-34522D01*
X46361Y-34460D01*
Y-34439D01*
X46402Y-34314D01*
X46423Y-34189D01*
X46444Y-34106D01*
Y-34064D01*
X46465Y-33877D01*
X46486Y-33689D01*
Y-33627D01*
Y-33564D01*
Y-33523D01*
Y-33502D01*
Y-33252D01*
X46465Y-33064D01*
X46444Y-32939D01*
Y-32898D01*
X46423Y-32752D01*
X46402Y-32627D01*
X46381Y-32544D01*
X46361Y-32523D01*
X46319Y-32419D01*
X46256Y-32335D01*
X46236Y-32315D01*
X46215Y-32294D01*
X46152Y-32252D01*
X46090Y-32231D01*
D02*
G37*
G36*
X98930D02*
X94390D01*
X94265Y-32273D01*
X94057Y-32356D01*
X93973Y-32398D01*
X93911Y-32439D01*
X93890Y-32460D01*
X93869Y-32481D01*
X93786Y-32585D01*
X93723Y-32689D01*
X93661Y-32939D01*
X93640Y-33043D01*
X93619Y-33148D01*
Y-47332D01*
X93640Y-47415D01*
X93661Y-47498D01*
X93682Y-47540D01*
Y-47561D01*
X93744Y-47623D01*
X93827Y-47665D01*
X93911Y-47686D01*
X93932Y-47706D01*
X94078Y-47748D01*
X94244Y-47769D01*
X94369Y-47790D01*
X94411D01*
X94661Y-47811D01*
X94911Y-47831D01*
X95515D01*
X95640Y-47811D01*
X95827D01*
X95890Y-47790D01*
X95952D01*
X96160Y-47769D01*
X96306Y-47748D01*
X96410Y-47706D01*
X96431D01*
X96556Y-47665D01*
X96639Y-47602D01*
X96681Y-47581D01*
X96702Y-47561D01*
X96743Y-47477D01*
X96785Y-47415D01*
Y-47352D01*
Y-47332D01*
Y-41416D01*
X97764D01*
X98118Y-41437D01*
X98264Y-41458D01*
X98389Y-41500D01*
X98493Y-41521D01*
X98576Y-41562D01*
X98618Y-41583D01*
X98639D01*
X98910Y-41708D01*
X99139Y-41874D01*
X99222Y-41937D01*
X99284Y-42000D01*
X99305Y-42020D01*
X99326Y-42041D01*
X99534Y-42291D01*
X99701Y-42541D01*
X99763Y-42645D01*
X99805Y-42729D01*
X99847Y-42791D01*
Y-42812D01*
X100034Y-43166D01*
X100118Y-43333D01*
X100201Y-43499D01*
X100263Y-43645D01*
X100326Y-43749D01*
X100347Y-43832D01*
X100367Y-43853D01*
X101763Y-47311D01*
X101805Y-47415D01*
X101826Y-47498D01*
X101867Y-47540D01*
Y-47561D01*
X101951Y-47623D01*
X102034Y-47686D01*
X102096Y-47706D01*
X102117Y-47727D01*
X102263Y-47748D01*
X102409Y-47769D01*
X102534Y-47790D01*
X102575D01*
X102825Y-47811D01*
X103096Y-47831D01*
X103783D01*
X103950Y-47811D01*
X104200D01*
X104283Y-47790D01*
X104346D01*
X104575Y-47769D01*
X104741Y-47748D01*
X104846Y-47727D01*
X104866D01*
X104991Y-47686D01*
X105054Y-47623D01*
X105096Y-47602D01*
Y-47581D01*
X105137Y-47519D01*
X105158Y-47436D01*
Y-47269D01*
X105137Y-47165D01*
X105116Y-47081D01*
X105096Y-47040D01*
X105075Y-46957D01*
X105033Y-46852D01*
X104950Y-46623D01*
X104908Y-46519D01*
X104866Y-46457D01*
X104846Y-46394D01*
Y-46373D01*
X103533Y-43312D01*
X103367Y-42916D01*
X103284Y-42749D01*
X103200Y-42604D01*
X103138Y-42479D01*
X103096Y-42395D01*
X103075Y-42333D01*
X103054Y-42312D01*
X102888Y-42000D01*
X102721Y-41770D01*
X102659Y-41666D01*
X102596Y-41604D01*
X102575Y-41562D01*
X102555Y-41541D01*
X102346Y-41291D01*
X102159Y-41125D01*
X102075Y-41041D01*
X102034Y-41000D01*
X101992Y-40958D01*
X101971D01*
X101742Y-40792D01*
X101534Y-40646D01*
X101451Y-40604D01*
X101388Y-40562D01*
X101347Y-40542D01*
X101326D01*
X101576Y-40458D01*
X101826Y-40354D01*
X102034Y-40250D01*
X102221Y-40167D01*
X102388Y-40083D01*
X102492Y-40021D01*
X102575Y-39979D01*
X102596Y-39958D01*
X102804Y-39813D01*
X102992Y-39667D01*
X103159Y-39521D01*
X103304Y-39375D01*
X103408Y-39271D01*
X103492Y-39167D01*
X103533Y-39104D01*
X103554Y-39084D01*
X103804Y-38688D01*
X103908Y-38500D01*
X103992Y-38313D01*
X104054Y-38167D01*
X104096Y-38042D01*
X104137Y-37959D01*
Y-37938D01*
X104262Y-37438D01*
X104304Y-37209D01*
X104325Y-36980D01*
X104346Y-36793D01*
Y-36626D01*
Y-36543D01*
Y-36501D01*
X104325Y-36168D01*
X104304Y-35855D01*
X104262Y-35584D01*
X104200Y-35334D01*
X104137Y-35147D01*
X104096Y-35001D01*
X104075Y-34918D01*
X104054Y-34876D01*
X103950Y-34606D01*
X103825Y-34376D01*
X103679Y-34168D01*
X103554Y-33981D01*
X103450Y-33835D01*
X103346Y-33710D01*
X103284Y-33647D01*
X103263Y-33627D01*
X103054Y-33439D01*
X102846Y-33273D01*
X102638Y-33127D01*
X102430Y-33023D01*
X102263Y-32919D01*
X102117Y-32856D01*
X102034Y-32814D01*
X101992Y-32794D01*
X101409Y-32585D01*
X101138Y-32502D01*
X100867Y-32439D01*
X100638Y-32398D01*
X100472Y-32356D01*
X100347Y-32335D01*
X100305D01*
X100055Y-32315D01*
X99826Y-32294D01*
X99722Y-32273D01*
X99576D01*
X99264Y-32252D01*
X98930Y-32231D01*
D02*
G37*
G36*
X68480D02*
X63939D01*
X63814Y-32273D01*
X63606Y-32356D01*
X63523Y-32398D01*
X63460Y-32439D01*
X63439Y-32460D01*
X63419Y-32481D01*
X63335Y-32585D01*
X63273Y-32689D01*
X63210Y-32939D01*
X63190Y-33043D01*
X63169Y-33148D01*
Y-47332D01*
X63190Y-47415D01*
X63210Y-47498D01*
X63231Y-47540D01*
Y-47561D01*
X63294Y-47623D01*
X63377Y-47665D01*
X63460Y-47686D01*
X63481Y-47706D01*
X63627Y-47748D01*
X63794Y-47769D01*
X63918Y-47790D01*
X63960D01*
X64210Y-47811D01*
X64460Y-47831D01*
X65064D01*
X65189Y-47811D01*
X65377D01*
X65439Y-47790D01*
X65501D01*
X65710Y-47769D01*
X65855Y-47748D01*
X65960Y-47706D01*
X65981D01*
X66105Y-47665D01*
X66189Y-47602D01*
X66230Y-47581D01*
X66251Y-47561D01*
X66293Y-47477D01*
X66335Y-47415D01*
Y-47352D01*
Y-47332D01*
Y-41416D01*
X67313D01*
X67668Y-41437D01*
X67813Y-41458D01*
X67938Y-41500D01*
X68042Y-41521D01*
X68126Y-41562D01*
X68168Y-41583D01*
X68188D01*
X68459Y-41708D01*
X68688Y-41874D01*
X68772Y-41937D01*
X68834Y-42000D01*
X68855Y-42020D01*
X68876Y-42041D01*
X69084Y-42291D01*
X69250Y-42541D01*
X69313Y-42645D01*
X69355Y-42729D01*
X69396Y-42791D01*
Y-42812D01*
X69584Y-43166D01*
X69667Y-43333D01*
X69750Y-43499D01*
X69813Y-43645D01*
X69875Y-43749D01*
X69896Y-43832D01*
X69917Y-43853D01*
X71312Y-47311D01*
X71354Y-47415D01*
X71375Y-47498D01*
X71417Y-47540D01*
Y-47561D01*
X71500Y-47623D01*
X71583Y-47686D01*
X71646Y-47706D01*
X71667Y-47727D01*
X71812Y-47748D01*
X71958Y-47769D01*
X72083Y-47790D01*
X72125D01*
X72375Y-47811D01*
X72646Y-47831D01*
X73333D01*
X73499Y-47811D01*
X73749D01*
X73833Y-47790D01*
X73895D01*
X74124Y-47769D01*
X74291Y-47748D01*
X74395Y-47727D01*
X74416D01*
X74541Y-47686D01*
X74603Y-47623D01*
X74645Y-47602D01*
Y-47581D01*
X74687Y-47519D01*
X74707Y-47436D01*
Y-47269D01*
X74687Y-47165D01*
X74666Y-47081D01*
X74645Y-47040D01*
X74624Y-46957D01*
X74583Y-46852D01*
X74499Y-46623D01*
X74458Y-46519D01*
X74416Y-46457D01*
X74395Y-46394D01*
Y-46373D01*
X73083Y-43312D01*
X72916Y-42916D01*
X72833Y-42749D01*
X72750Y-42604D01*
X72687Y-42479D01*
X72646Y-42395D01*
X72625Y-42333D01*
X72604Y-42312D01*
X72437Y-42000D01*
X72271Y-41770D01*
X72208Y-41666D01*
X72146Y-41604D01*
X72125Y-41562D01*
X72104Y-41541D01*
X71896Y-41291D01*
X71708Y-41125D01*
X71625Y-41041D01*
X71583Y-41000D01*
X71542Y-40958D01*
X71521D01*
X71292Y-40792D01*
X71083Y-40646D01*
X71000Y-40604D01*
X70938Y-40562D01*
X70896Y-40542D01*
X70875D01*
X71125Y-40458D01*
X71375Y-40354D01*
X71583Y-40250D01*
X71771Y-40167D01*
X71937Y-40083D01*
X72042Y-40021D01*
X72125Y-39979D01*
X72146Y-39958D01*
X72354Y-39813D01*
X72541Y-39667D01*
X72708Y-39521D01*
X72854Y-39375D01*
X72958Y-39271D01*
X73041Y-39167D01*
X73083Y-39104D01*
X73104Y-39084D01*
X73354Y-38688D01*
X73458Y-38500D01*
X73541Y-38313D01*
X73604Y-38167D01*
X73645Y-38042D01*
X73687Y-37959D01*
Y-37938D01*
X73812Y-37438D01*
X73854Y-37209D01*
X73874Y-36980D01*
X73895Y-36793D01*
Y-36626D01*
Y-36543D01*
Y-36501D01*
X73874Y-36168D01*
X73854Y-35855D01*
X73812Y-35584D01*
X73749Y-35334D01*
X73687Y-35147D01*
X73645Y-35001D01*
X73624Y-34918D01*
X73604Y-34876D01*
X73499Y-34606D01*
X73375Y-34376D01*
X73229Y-34168D01*
X73104Y-33981D01*
X73000Y-33835D01*
X72895Y-33710D01*
X72833Y-33647D01*
X72812Y-33627D01*
X72604Y-33439D01*
X72396Y-33273D01*
X72187Y-33127D01*
X71979Y-33023D01*
X71812Y-32919D01*
X71667Y-32856D01*
X71583Y-32814D01*
X71542Y-32794D01*
X70958Y-32585D01*
X70688Y-32502D01*
X70417Y-32439D01*
X70188Y-32398D01*
X70021Y-32356D01*
X69896Y-32335D01*
X69854D01*
X69605Y-32315D01*
X69376Y-32294D01*
X69271Y-32273D01*
X69125D01*
X68813Y-32252D01*
X68480Y-32231D01*
D02*
G37*
G36*
X54650D02*
X50110D01*
X49985Y-32273D01*
X49776Y-32356D01*
X49693Y-32398D01*
X49630Y-32439D01*
X49610Y-32460D01*
X49589Y-32481D01*
X49506Y-32585D01*
X49443Y-32689D01*
X49381Y-32939D01*
X49360Y-33043D01*
X49339Y-33148D01*
Y-47332D01*
X49360Y-47415D01*
X49381Y-47498D01*
X49401Y-47540D01*
Y-47561D01*
X49464Y-47623D01*
X49547Y-47665D01*
X49630Y-47686D01*
X49651Y-47706D01*
X49797Y-47748D01*
X49964Y-47769D01*
X50089Y-47790D01*
X50130D01*
X50380Y-47811D01*
X50630Y-47831D01*
X51234D01*
X51359Y-47811D01*
X51547D01*
X51609Y-47790D01*
X51672D01*
X51880Y-47769D01*
X52026Y-47748D01*
X52130Y-47706D01*
X52151D01*
X52276Y-47665D01*
X52359Y-47602D01*
X52401Y-47581D01*
X52421Y-47561D01*
X52463Y-47477D01*
X52505Y-47415D01*
Y-47352D01*
Y-47332D01*
Y-41416D01*
X53484D01*
X53838Y-41437D01*
X53984Y-41458D01*
X54109Y-41500D01*
X54213Y-41521D01*
X54296Y-41562D01*
X54338Y-41583D01*
X54359D01*
X54629Y-41708D01*
X54858Y-41874D01*
X54942Y-41937D01*
X55004Y-42000D01*
X55025Y-42020D01*
X55046Y-42041D01*
X55254Y-42291D01*
X55421Y-42541D01*
X55483Y-42645D01*
X55525Y-42729D01*
X55567Y-42791D01*
Y-42812D01*
X55754Y-43166D01*
X55837Y-43333D01*
X55921Y-43499D01*
X55983Y-43645D01*
X56046Y-43749D01*
X56066Y-43832D01*
X56087Y-43853D01*
X57483Y-47311D01*
X57524Y-47415D01*
X57545Y-47498D01*
X57587Y-47540D01*
Y-47561D01*
X57670Y-47623D01*
X57754Y-47686D01*
X57816Y-47706D01*
X57837Y-47727D01*
X57983Y-47748D01*
X58128Y-47769D01*
X58253Y-47790D01*
X58295D01*
X58545Y-47811D01*
X58816Y-47831D01*
X59503D01*
X59670Y-47811D01*
X59920D01*
X60003Y-47790D01*
X60065D01*
X60294Y-47769D01*
X60461Y-47748D01*
X60565Y-47727D01*
X60586D01*
X60711Y-47686D01*
X60774Y-47623D01*
X60815Y-47602D01*
Y-47581D01*
X60857Y-47519D01*
X60878Y-47436D01*
Y-47269D01*
X60857Y-47165D01*
X60836Y-47081D01*
X60815Y-47040D01*
X60794Y-46957D01*
X60753Y-46852D01*
X60669Y-46623D01*
X60628Y-46519D01*
X60586Y-46457D01*
X60565Y-46394D01*
Y-46373D01*
X59253Y-43312D01*
X59086Y-42916D01*
X59003Y-42749D01*
X58920Y-42604D01*
X58857Y-42479D01*
X58816Y-42395D01*
X58795Y-42333D01*
X58774Y-42312D01*
X58607Y-42000D01*
X58441Y-41770D01*
X58378Y-41666D01*
X58316Y-41604D01*
X58295Y-41562D01*
X58274Y-41541D01*
X58066Y-41291D01*
X57878Y-41125D01*
X57795Y-41041D01*
X57754Y-41000D01*
X57712Y-40958D01*
X57691D01*
X57462Y-40792D01*
X57254Y-40646D01*
X57170Y-40604D01*
X57108Y-40562D01*
X57066Y-40542D01*
X57045D01*
X57295Y-40458D01*
X57545Y-40354D01*
X57754Y-40250D01*
X57941Y-40167D01*
X58108Y-40083D01*
X58212Y-40021D01*
X58295Y-39979D01*
X58316Y-39958D01*
X58524Y-39813D01*
X58712Y-39667D01*
X58878Y-39521D01*
X59024Y-39375D01*
X59128Y-39271D01*
X59211Y-39167D01*
X59253Y-39104D01*
X59274Y-39084D01*
X59524Y-38688D01*
X59628Y-38500D01*
X59711Y-38313D01*
X59774Y-38167D01*
X59815Y-38042D01*
X59857Y-37959D01*
Y-37938D01*
X59982Y-37438D01*
X60024Y-37209D01*
X60044Y-36980D01*
X60065Y-36793D01*
Y-36626D01*
Y-36543D01*
Y-36501D01*
X60044Y-36168D01*
X60024Y-35855D01*
X59982Y-35584D01*
X59920Y-35334D01*
X59857Y-35147D01*
X59815Y-35001D01*
X59795Y-34918D01*
X59774Y-34876D01*
X59670Y-34606D01*
X59545Y-34376D01*
X59399Y-34168D01*
X59274Y-33981D01*
X59170Y-33835D01*
X59066Y-33710D01*
X59003Y-33647D01*
X58982Y-33627D01*
X58774Y-33439D01*
X58566Y-33273D01*
X58358Y-33127D01*
X58149Y-33023D01*
X57983Y-32919D01*
X57837Y-32856D01*
X57754Y-32814D01*
X57712Y-32794D01*
X57129Y-32585D01*
X56858Y-32502D01*
X56587Y-32439D01*
X56358Y-32398D01*
X56191Y-32356D01*
X56066Y-32335D01*
X56025D01*
X55775Y-32315D01*
X55546Y-32294D01*
X55441Y-32273D01*
X55296D01*
X54983Y-32252D01*
X54650Y-32231D01*
D02*
G37*
G36*
X84059Y-31960D02*
X83768D01*
X83101Y-31981D01*
X82476Y-32044D01*
X81935Y-32148D01*
X81685Y-32190D01*
X81456Y-32252D01*
X81247Y-32315D01*
X81060Y-32356D01*
X80893Y-32398D01*
X80768Y-32460D01*
X80664Y-32481D01*
X80581Y-32523D01*
X80539Y-32544D01*
X80519D01*
X80019Y-32773D01*
X79560Y-33043D01*
X79165Y-33314D01*
X78811Y-33564D01*
X78540Y-33793D01*
X78331Y-34002D01*
X78269Y-34064D01*
X78207Y-34127D01*
X78186Y-34147D01*
X78165Y-34168D01*
X77832Y-34585D01*
X77540Y-35001D01*
X77311Y-35439D01*
X77103Y-35834D01*
X76957Y-36188D01*
X76894Y-36355D01*
X76832Y-36480D01*
X76790Y-36584D01*
X76769Y-36667D01*
X76749Y-36709D01*
Y-36730D01*
X76582Y-37313D01*
X76478Y-37896D01*
X76395Y-38459D01*
X76332Y-38979D01*
X76311Y-39209D01*
X76290Y-39438D01*
Y-39625D01*
X76269Y-39792D01*
Y-40104D01*
X76290Y-40854D01*
X76332Y-41521D01*
X76374Y-41833D01*
X76415Y-42145D01*
X76457Y-42416D01*
X76499Y-42666D01*
X76519Y-42874D01*
X76561Y-43083D01*
X76603Y-43249D01*
X76644Y-43395D01*
X76665Y-43520D01*
X76686Y-43603D01*
X76707Y-43645D01*
Y-43666D01*
X76894Y-44207D01*
X77103Y-44686D01*
X77332Y-45103D01*
X77561Y-45457D01*
X77748Y-45749D01*
X77915Y-45957D01*
X77977Y-46040D01*
X78019Y-46103D01*
X78061Y-46123D01*
Y-46144D01*
X78415Y-46477D01*
X78790Y-46769D01*
X79165Y-47019D01*
X79519Y-47227D01*
X79831Y-47373D01*
X79977Y-47436D01*
X80081Y-47498D01*
X80185Y-47540D01*
X80248Y-47561D01*
X80289Y-47581D01*
X80310D01*
X80831Y-47727D01*
X81372Y-47852D01*
X81914Y-47936D01*
X82393Y-47977D01*
X82622Y-47998D01*
X82830Y-48019D01*
X83018D01*
X83164Y-48040D01*
X83476D01*
X84143Y-48019D01*
X84747Y-47956D01*
X85309Y-47873D01*
X85559Y-47811D01*
X85788Y-47769D01*
X85975Y-47727D01*
X86163Y-47665D01*
X86329Y-47623D01*
X86454Y-47581D01*
X86559Y-47540D01*
X86642Y-47519D01*
X86684Y-47498D01*
X86704D01*
X87204Y-47269D01*
X87662Y-46998D01*
X88058Y-46727D01*
X88391Y-46477D01*
X88662Y-46248D01*
X88870Y-46040D01*
X88996Y-45915D01*
X89037Y-45894D01*
Y-45873D01*
X89370Y-45457D01*
X89662Y-45020D01*
X89912Y-44582D01*
X90120Y-44186D01*
X90266Y-43832D01*
X90328Y-43666D01*
X90391Y-43541D01*
X90433Y-43437D01*
X90453Y-43353D01*
X90474Y-43312D01*
Y-43291D01*
X90641Y-42708D01*
X90766Y-42104D01*
X90849Y-41521D01*
X90912Y-41000D01*
X90933Y-40750D01*
X90953Y-40521D01*
Y-40333D01*
X90974Y-40167D01*
Y-39833D01*
X90953Y-39104D01*
X90891Y-38438D01*
X90870Y-38126D01*
X90828Y-37834D01*
X90787Y-37563D01*
X90745Y-37334D01*
X90682Y-37105D01*
X90641Y-36918D01*
X90599Y-36730D01*
X90578Y-36605D01*
X90537Y-36480D01*
X90516Y-36397D01*
X90495Y-36355D01*
Y-36334D01*
X90308Y-35814D01*
X90078Y-35334D01*
X89849Y-34897D01*
X89641Y-34543D01*
X89433Y-34272D01*
X89266Y-34043D01*
X89204Y-33981D01*
X89162Y-33918D01*
X89141Y-33897D01*
X89120Y-33877D01*
X88766Y-33543D01*
X88391Y-33231D01*
X88017Y-32981D01*
X87662Y-32794D01*
X87350Y-32627D01*
X87204Y-32585D01*
X87100Y-32523D01*
X86996Y-32481D01*
X86933Y-32460D01*
X86892Y-32439D01*
X86871D01*
X86350Y-32273D01*
X85809Y-32169D01*
X85288Y-32085D01*
X84809Y-32023D01*
X84601Y-32002D01*
X84392Y-31981D01*
X84205D01*
X84059Y-31960D01*
D02*
G37*
%LPD*%
G36*
X98680Y-34668D02*
X98910D01*
X98972Y-34689D01*
X99035D01*
X99243Y-34731D01*
X99430Y-34751D01*
X99534Y-34772D01*
X99576Y-34793D01*
X99847Y-34876D01*
X100097Y-35001D01*
X100284Y-35126D01*
X100451Y-35251D01*
X100576Y-35355D01*
X100659Y-35459D01*
X100701Y-35522D01*
X100722Y-35543D01*
X100847Y-35751D01*
X100930Y-35959D01*
X100992Y-36188D01*
X101034Y-36376D01*
X101055Y-36563D01*
X101076Y-36709D01*
Y-36793D01*
Y-36834D01*
X101055Y-37188D01*
X101013Y-37334D01*
X100992Y-37480D01*
X100951Y-37584D01*
X100909Y-37667D01*
X100888Y-37730D01*
Y-37751D01*
X100742Y-38021D01*
X100576Y-38251D01*
X100513Y-38334D01*
X100451Y-38375D01*
X100409Y-38417D01*
X100388Y-38438D01*
X100118Y-38625D01*
X99847Y-38771D01*
X99722Y-38834D01*
X99639Y-38854D01*
X99576Y-38896D01*
X99555D01*
X99159Y-38979D01*
X98972Y-39000D01*
X98785Y-39021D01*
X98618Y-39042D01*
X96785D01*
Y-34647D01*
X98535D01*
X98680Y-34668D01*
D02*
G37*
G36*
X68230D02*
X68459D01*
X68521Y-34689D01*
X68584D01*
X68792Y-34731D01*
X68980Y-34751D01*
X69084Y-34772D01*
X69125Y-34793D01*
X69396Y-34876D01*
X69646Y-35001D01*
X69834Y-35126D01*
X70000Y-35251D01*
X70125Y-35355D01*
X70209Y-35459D01*
X70250Y-35522D01*
X70271Y-35543D01*
X70396Y-35751D01*
X70479Y-35959D01*
X70542Y-36188D01*
X70584Y-36376D01*
X70604Y-36563D01*
X70625Y-36709D01*
Y-36793D01*
Y-36834D01*
X70604Y-37188D01*
X70563Y-37334D01*
X70542Y-37480D01*
X70500Y-37584D01*
X70458Y-37667D01*
X70438Y-37730D01*
Y-37751D01*
X70292Y-38021D01*
X70125Y-38251D01*
X70063Y-38334D01*
X70000Y-38375D01*
X69959Y-38417D01*
X69938Y-38438D01*
X69667Y-38625D01*
X69396Y-38771D01*
X69271Y-38834D01*
X69188Y-38854D01*
X69125Y-38896D01*
X69105D01*
X68709Y-38979D01*
X68521Y-39000D01*
X68334Y-39021D01*
X68168Y-39042D01*
X66335D01*
Y-34647D01*
X68084D01*
X68230Y-34668D01*
D02*
G37*
G36*
X54400D02*
X54629D01*
X54692Y-34689D01*
X54754D01*
X54963Y-34731D01*
X55150Y-34751D01*
X55254Y-34772D01*
X55296Y-34793D01*
X55567Y-34876D01*
X55816Y-35001D01*
X56004Y-35126D01*
X56171Y-35251D01*
X56295Y-35355D01*
X56379Y-35459D01*
X56420Y-35522D01*
X56441Y-35543D01*
X56566Y-35751D01*
X56650Y-35959D01*
X56712Y-36188D01*
X56754Y-36376D01*
X56775Y-36563D01*
X56795Y-36709D01*
Y-36793D01*
Y-36834D01*
X56775Y-37188D01*
X56733Y-37334D01*
X56712Y-37480D01*
X56670Y-37584D01*
X56629Y-37667D01*
X56608Y-37730D01*
Y-37751D01*
X56462Y-38021D01*
X56295Y-38251D01*
X56233Y-38334D01*
X56171Y-38375D01*
X56129Y-38417D01*
X56108Y-38438D01*
X55837Y-38625D01*
X55567Y-38771D01*
X55441Y-38834D01*
X55358Y-38854D01*
X55296Y-38896D01*
X55275D01*
X54879Y-38979D01*
X54692Y-39000D01*
X54504Y-39021D01*
X54338Y-39042D01*
X52505D01*
Y-34647D01*
X54254D01*
X54400Y-34668D01*
D02*
G37*
G36*
X84080Y-34564D02*
X84455Y-34606D01*
X84767Y-34668D01*
X85059Y-34731D01*
X85267Y-34814D01*
X85434Y-34876D01*
X85538Y-34918D01*
X85580Y-34939D01*
X85850Y-35105D01*
X86100Y-35272D01*
X86309Y-35459D01*
X86475Y-35647D01*
X86621Y-35814D01*
X86725Y-35939D01*
X86788Y-36022D01*
X86809Y-36063D01*
X86975Y-36334D01*
X87100Y-36626D01*
X87225Y-36918D01*
X87308Y-37188D01*
X87371Y-37417D01*
X87413Y-37605D01*
X87454Y-37730D01*
Y-37751D01*
Y-37771D01*
X87517Y-38146D01*
X87579Y-38542D01*
X87621Y-38917D01*
X87642Y-39250D01*
X87662Y-39563D01*
Y-39792D01*
Y-39875D01*
Y-39938D01*
Y-39979D01*
Y-40000D01*
Y-40417D01*
X87621Y-40792D01*
X87600Y-41146D01*
X87558Y-41458D01*
X87517Y-41729D01*
X87496Y-41937D01*
X87454Y-42062D01*
Y-42083D01*
Y-42104D01*
X87371Y-42458D01*
X87267Y-42791D01*
X87142Y-43083D01*
X87038Y-43333D01*
X86933Y-43541D01*
X86850Y-43707D01*
X86788Y-43791D01*
X86767Y-43832D01*
X86579Y-44103D01*
X86371Y-44332D01*
X86163Y-44541D01*
X85955Y-44707D01*
X85767Y-44832D01*
X85621Y-44936D01*
X85538Y-44999D01*
X85496Y-45020D01*
X85184Y-45165D01*
X84872Y-45269D01*
X84538Y-45332D01*
X84247Y-45374D01*
X83976Y-45415D01*
X83747Y-45436D01*
X83559D01*
X83143Y-45415D01*
X82768Y-45374D01*
X82456Y-45311D01*
X82164Y-45249D01*
X81956Y-45186D01*
X81789Y-45124D01*
X81685Y-45082D01*
X81643Y-45061D01*
X81372Y-44915D01*
X81123Y-44728D01*
X80914Y-44561D01*
X80748Y-44374D01*
X80602Y-44228D01*
X80498Y-44103D01*
X80435Y-43999D01*
X80414Y-43978D01*
X80248Y-43687D01*
X80123Y-43395D01*
X80019Y-43103D01*
X79914Y-42833D01*
X79852Y-42604D01*
X79810Y-42416D01*
X79769Y-42291D01*
Y-42270D01*
Y-42249D01*
X79706Y-41854D01*
X79665Y-41458D01*
X79623Y-41062D01*
X79602Y-40708D01*
Y-40396D01*
X79581Y-40271D01*
Y-40146D01*
Y-40062D01*
Y-40000D01*
Y-39958D01*
Y-39938D01*
Y-39542D01*
X79602Y-39167D01*
X79644Y-38813D01*
X79685Y-38500D01*
X79706Y-38251D01*
X79748Y-38042D01*
X79769Y-37917D01*
Y-37896D01*
Y-37876D01*
X79852Y-37522D01*
X79956Y-37188D01*
X80081Y-36897D01*
X80185Y-36647D01*
X80289Y-36459D01*
X80373Y-36293D01*
X80435Y-36209D01*
X80456Y-36168D01*
X80643Y-35918D01*
X80852Y-35668D01*
X81060Y-35480D01*
X81268Y-35314D01*
X81435Y-35168D01*
X81581Y-35085D01*
X81664Y-35022D01*
X81706Y-35001D01*
X82018Y-34855D01*
X82351Y-34731D01*
X82664Y-34647D01*
X82976Y-34606D01*
X83247Y-34564D01*
X83476Y-34543D01*
X83664D01*
X84080Y-34564D01*
D02*
G37*
%LPC*%
G36*
X82383Y-72169D02*
X81695D01*
X81549Y-72189D01*
X81320D01*
X81258Y-72210D01*
X81195D01*
X80987Y-72231D01*
X80821Y-72252D01*
X80737Y-72273D01*
X80695Y-72294D01*
X80591Y-72335D01*
X80508Y-72377D01*
X80466Y-72419D01*
X80446Y-72439D01*
X80404Y-72502D01*
X80362Y-72585D01*
X80341Y-72648D01*
X80321Y-72669D01*
X77655Y-77813D01*
X74926Y-72669D01*
X74864Y-72564D01*
X74822Y-72502D01*
X74780Y-72460D01*
X74759Y-72439D01*
X74697Y-72377D01*
X74593Y-72335D01*
X74530Y-72294D01*
X74489D01*
X74322Y-72252D01*
X74156Y-72231D01*
X74030Y-72210D01*
X73968D01*
X73843Y-72189D01*
X73697D01*
X73406Y-72169D01*
X72635D01*
X72448Y-72189D01*
X72177D01*
X72094Y-72210D01*
X72031D01*
X71906Y-72231D01*
X71802D01*
X71635Y-72294D01*
X71531Y-72335D01*
X71510Y-72356D01*
X71448Y-72460D01*
X71427Y-72606D01*
X71448Y-72710D01*
Y-72731D01*
Y-72752D01*
X71531Y-72960D01*
X71635Y-73189D01*
X71677Y-73293D01*
X71719Y-73356D01*
X71760Y-73418D01*
Y-73439D01*
X75218Y-79813D01*
X71490Y-86582D01*
X71344Y-86852D01*
X71240Y-87061D01*
X71219Y-87144D01*
X71198Y-87206D01*
X71177Y-87227D01*
Y-87248D01*
X71156Y-87415D01*
X71177Y-87540D01*
X71219Y-87623D01*
X71240Y-87644D01*
X71365Y-87727D01*
X71510Y-87769D01*
X71635Y-87790D01*
X71698D01*
X71844Y-87810D01*
X71989D01*
X72302Y-87831D01*
X73031D01*
X73177Y-87810D01*
X73406D01*
X73468Y-87790D01*
X73531D01*
X73760Y-87769D01*
X73926Y-87748D01*
X74010Y-87727D01*
X74051D01*
X74176Y-87685D01*
X74260Y-87644D01*
X74301Y-87623D01*
X74322Y-87602D01*
X74426Y-87436D01*
X74468Y-87373D01*
Y-87352D01*
X77384Y-81750D01*
X80300Y-87352D01*
X80341Y-87456D01*
X80404Y-87540D01*
X80425Y-87581D01*
X80446Y-87602D01*
X80529Y-87665D01*
X80612Y-87685D01*
X80695Y-87727D01*
X80716D01*
X80883Y-87748D01*
X81029Y-87769D01*
X81174Y-87790D01*
X81216D01*
X81341Y-87810D01*
X81508D01*
X81799Y-87831D01*
X82570D01*
X82758Y-87810D01*
X83028D01*
X83111Y-87790D01*
X83174D01*
X83299Y-87769D01*
X83424Y-87748D01*
X83570Y-87706D01*
X83674Y-87665D01*
X83695Y-87644D01*
X83736Y-87581D01*
X83757Y-87519D01*
X83778Y-87394D01*
Y-87290D01*
X83757Y-87248D01*
X83695Y-87040D01*
X83591Y-86811D01*
X83549Y-86728D01*
X83528Y-86644D01*
X83486Y-86602D01*
Y-86582D01*
X79800Y-79771D01*
X83278Y-73439D01*
X83403Y-73148D01*
X83466Y-72939D01*
X83507Y-72856D01*
Y-72793D01*
X83528Y-72773D01*
Y-72752D01*
X83549Y-72669D01*
Y-72585D01*
X83528Y-72460D01*
X83486Y-72398D01*
X83466Y-72377D01*
X83403Y-72335D01*
X83341Y-72294D01*
X83174Y-72231D01*
X83049Y-72210D01*
X82987D01*
X82841Y-72189D01*
X82695D01*
X82383Y-72169D01*
D02*
G37*
G36*
X70177Y-72231D02*
X59180D01*
X59097Y-72252D01*
X59034Y-72273D01*
X58993Y-72294D01*
X58972Y-72315D01*
X58909Y-72377D01*
X58868Y-72439D01*
X58847Y-72502D01*
X58826Y-72523D01*
X58784Y-72648D01*
X58764Y-72773D01*
X58743Y-72877D01*
Y-72898D01*
Y-72919D01*
X58722Y-73127D01*
Y-73793D01*
X58743Y-73981D01*
Y-74106D01*
Y-74127D01*
Y-74147D01*
X58764Y-74314D01*
X58784Y-74439D01*
X58826Y-74522D01*
Y-74543D01*
X58868Y-74626D01*
X58930Y-74710D01*
X58951Y-74731D01*
X58972Y-74751D01*
X59034Y-74793D01*
X59118Y-74814D01*
X63075D01*
Y-87331D01*
X63096Y-87415D01*
X63117Y-87498D01*
X63137Y-87540D01*
Y-87561D01*
X63221Y-87623D01*
X63304Y-87665D01*
X63367Y-87685D01*
X63387Y-87706D01*
X63554Y-87748D01*
X63700Y-87769D01*
X63846Y-87790D01*
X63887D01*
X64137Y-87810D01*
X64387Y-87831D01*
X64970D01*
X65199Y-87810D01*
X65283D01*
X65345Y-87790D01*
X65408D01*
X65616Y-87769D01*
X65762Y-87748D01*
X65866Y-87706D01*
X65887D01*
X66012Y-87665D01*
X66095Y-87602D01*
X66137Y-87581D01*
X66158Y-87561D01*
X66199Y-87477D01*
X66241Y-87415D01*
Y-87352D01*
Y-87331D01*
Y-74814D01*
X70115D01*
X70198Y-74793D01*
X70240Y-74772D01*
X70282Y-74751D01*
X70302D01*
X70365Y-74689D01*
X70427Y-74626D01*
X70448Y-74564D01*
X70469Y-74543D01*
X70511Y-74418D01*
X70531Y-74272D01*
X70552Y-74189D01*
Y-74147D01*
X70573Y-73939D01*
X70594Y-73752D01*
Y-73293D01*
X70573Y-73085D01*
X70552Y-72960D01*
Y-72939D01*
Y-72919D01*
X70531Y-72752D01*
X70511Y-72627D01*
X70490Y-72544D01*
X70469Y-72523D01*
X70427Y-72419D01*
X70365Y-72356D01*
X70323Y-72335D01*
X70302Y-72315D01*
X70240Y-72273D01*
X70177Y-72231D01*
D02*
G37*
G36*
X81195Y-112169D02*
X80508D01*
X80362Y-112190D01*
X80133D01*
X80070Y-112210D01*
X80008D01*
X79800Y-112231D01*
X79633Y-112252D01*
X79550Y-112273D01*
X79508Y-112294D01*
X79404Y-112335D01*
X79321Y-112377D01*
X79279Y-112419D01*
X79258Y-112439D01*
X79216Y-112502D01*
X79175Y-112585D01*
X79154Y-112648D01*
X79133Y-112669D01*
X76467Y-117813D01*
X73739Y-112669D01*
X73676Y-112564D01*
X73635Y-112502D01*
X73593Y-112460D01*
X73572Y-112439D01*
X73509Y-112377D01*
X73405Y-112335D01*
X73343Y-112294D01*
X73301D01*
X73135Y-112252D01*
X72968Y-112231D01*
X72843Y-112210D01*
X72781D01*
X72656Y-112190D01*
X72510D01*
X72218Y-112169D01*
X71448D01*
X71260Y-112190D01*
X70989D01*
X70906Y-112210D01*
X70844D01*
X70719Y-112231D01*
X70614D01*
X70448Y-112294D01*
X70344Y-112335D01*
X70323Y-112356D01*
X70260Y-112460D01*
X70240Y-112606D01*
X70260Y-112710D01*
Y-112731D01*
Y-112752D01*
X70344Y-112960D01*
X70448Y-113189D01*
X70490Y-113293D01*
X70531Y-113356D01*
X70573Y-113418D01*
Y-113439D01*
X74030Y-119813D01*
X70302Y-126582D01*
X70156Y-126852D01*
X70052Y-127061D01*
X70031Y-127144D01*
X70010Y-127206D01*
X69990Y-127227D01*
Y-127248D01*
X69969Y-127415D01*
X69990Y-127540D01*
X70031Y-127623D01*
X70052Y-127644D01*
X70177Y-127727D01*
X70323Y-127769D01*
X70448Y-127790D01*
X70510D01*
X70656Y-127810D01*
X70802D01*
X71114Y-127831D01*
X71843D01*
X71989Y-127810D01*
X72218D01*
X72281Y-127790D01*
X72343D01*
X72572Y-127769D01*
X72739Y-127748D01*
X72822Y-127727D01*
X72864D01*
X72989Y-127685D01*
X73072Y-127644D01*
X73114Y-127623D01*
X73135Y-127602D01*
X73239Y-127436D01*
X73280Y-127373D01*
Y-127352D01*
X76196Y-121750D01*
X79112Y-127352D01*
X79154Y-127456D01*
X79216Y-127540D01*
X79237Y-127581D01*
X79258Y-127602D01*
X79341Y-127665D01*
X79425Y-127685D01*
X79508Y-127727D01*
X79529D01*
X79695Y-127748D01*
X79841Y-127769D01*
X79987Y-127790D01*
X80029D01*
X80154Y-127810D01*
X80320D01*
X80612Y-127831D01*
X81383D01*
X81570Y-127810D01*
X81841D01*
X81924Y-127790D01*
X81987D01*
X82112Y-127769D01*
X82236Y-127748D01*
X82382Y-127706D01*
X82486Y-127665D01*
X82507Y-127644D01*
X82549Y-127581D01*
X82570Y-127519D01*
X82591Y-127394D01*
Y-127290D01*
X82570Y-127248D01*
X82507Y-127040D01*
X82403Y-126811D01*
X82361Y-126728D01*
X82341Y-126644D01*
X82299Y-126602D01*
Y-126582D01*
X78612Y-119771D01*
X82091Y-113439D01*
X82216Y-113148D01*
X82278Y-112939D01*
X82320Y-112856D01*
Y-112794D01*
X82341Y-112773D01*
Y-112752D01*
X82361Y-112669D01*
Y-112585D01*
X82341Y-112460D01*
X82299Y-112398D01*
X82278Y-112377D01*
X82216Y-112335D01*
X82153Y-112294D01*
X81987Y-112231D01*
X81862Y-112210D01*
X81799D01*
X81653Y-112190D01*
X81508D01*
X81195Y-112169D01*
D02*
G37*
G36*
X62721Y-112231D02*
X58180D01*
X58055Y-112273D01*
X57847Y-112356D01*
X57764Y-112398D01*
X57701Y-112439D01*
X57680Y-112460D01*
X57659Y-112481D01*
X57576Y-112585D01*
X57514Y-112689D01*
X57451Y-112939D01*
X57430Y-113043D01*
X57410Y-113148D01*
Y-127331D01*
X57430Y-127415D01*
X57451Y-127498D01*
X57472Y-127540D01*
Y-127561D01*
X57534Y-127623D01*
X57618Y-127665D01*
X57701Y-127685D01*
X57722Y-127706D01*
X57868Y-127748D01*
X58034Y-127769D01*
X58159Y-127790D01*
X58201D01*
X58451Y-127810D01*
X58701Y-127831D01*
X59305D01*
X59430Y-127810D01*
X59617D01*
X59680Y-127790D01*
X59742D01*
X59950Y-127769D01*
X60096Y-127748D01*
X60200Y-127706D01*
X60221D01*
X60346Y-127665D01*
X60430Y-127602D01*
X60471Y-127581D01*
X60492Y-127561D01*
X60534Y-127477D01*
X60575Y-127415D01*
Y-127352D01*
Y-127331D01*
Y-121416D01*
X61554D01*
X61908Y-121437D01*
X62054Y-121458D01*
X62179Y-121500D01*
X62283Y-121521D01*
X62367Y-121562D01*
X62408Y-121583D01*
X62429D01*
X62700Y-121708D01*
X62929Y-121875D01*
X63012Y-121937D01*
X63075Y-122000D01*
X63095Y-122020D01*
X63116Y-122041D01*
X63325Y-122291D01*
X63491Y-122541D01*
X63554Y-122645D01*
X63595Y-122729D01*
X63637Y-122791D01*
Y-122812D01*
X63825Y-123166D01*
X63908Y-123333D01*
X63991Y-123499D01*
X64054Y-123645D01*
X64116Y-123749D01*
X64137Y-123832D01*
X64158Y-123853D01*
X65553Y-127311D01*
X65595Y-127415D01*
X65616Y-127498D01*
X65657Y-127540D01*
Y-127561D01*
X65741Y-127623D01*
X65824Y-127685D01*
X65887Y-127706D01*
X65907Y-127727D01*
X66053Y-127748D01*
X66199Y-127769D01*
X66324Y-127790D01*
X66365D01*
X66616Y-127810D01*
X66886Y-127831D01*
X67574D01*
X67740Y-127810D01*
X67990D01*
X68073Y-127790D01*
X68136D01*
X68365Y-127769D01*
X68532Y-127748D01*
X68636Y-127727D01*
X68657D01*
X68782Y-127685D01*
X68844Y-127623D01*
X68886Y-127602D01*
Y-127581D01*
X68927Y-127519D01*
X68948Y-127436D01*
Y-127269D01*
X68927Y-127165D01*
X68906Y-127081D01*
X68886Y-127040D01*
X68865Y-126957D01*
X68823Y-126852D01*
X68740Y-126623D01*
X68698Y-126519D01*
X68657Y-126457D01*
X68636Y-126394D01*
Y-126373D01*
X67324Y-123312D01*
X67157Y-122916D01*
X67074Y-122749D01*
X66990Y-122604D01*
X66928Y-122479D01*
X66886Y-122395D01*
X66865Y-122333D01*
X66845Y-122312D01*
X66678Y-122000D01*
X66511Y-121770D01*
X66449Y-121666D01*
X66386Y-121604D01*
X66365Y-121562D01*
X66345Y-121541D01*
X66136Y-121291D01*
X65949Y-121125D01*
X65866Y-121041D01*
X65824Y-121000D01*
X65782Y-120958D01*
X65761D01*
X65532Y-120792D01*
X65324Y-120646D01*
X65241Y-120604D01*
X65178Y-120562D01*
X65137Y-120541D01*
X65116D01*
X65366Y-120458D01*
X65616Y-120354D01*
X65824Y-120250D01*
X66012Y-120167D01*
X66178Y-120083D01*
X66282Y-120021D01*
X66365Y-119979D01*
X66386Y-119958D01*
X66595Y-119813D01*
X66782Y-119667D01*
X66949Y-119521D01*
X67094Y-119375D01*
X67199Y-119271D01*
X67282Y-119167D01*
X67324Y-119104D01*
X67344Y-119084D01*
X67594Y-118688D01*
X67698Y-118500D01*
X67782Y-118313D01*
X67844Y-118167D01*
X67886Y-118042D01*
X67928Y-117959D01*
Y-117938D01*
X68053Y-117438D01*
X68094Y-117209D01*
X68115Y-116980D01*
X68136Y-116792D01*
Y-116626D01*
Y-116543D01*
Y-116501D01*
X68115Y-116168D01*
X68094Y-115855D01*
X68053Y-115584D01*
X67990Y-115335D01*
X67928Y-115147D01*
X67886Y-115001D01*
X67865Y-114918D01*
X67844Y-114876D01*
X67740Y-114606D01*
X67615Y-114376D01*
X67469Y-114168D01*
X67344Y-113981D01*
X67240Y-113835D01*
X67136Y-113710D01*
X67074Y-113647D01*
X67053Y-113627D01*
X66845Y-113439D01*
X66636Y-113273D01*
X66428Y-113127D01*
X66220Y-113023D01*
X66053Y-112919D01*
X65907Y-112856D01*
X65824Y-112814D01*
X65782Y-112794D01*
X65199Y-112585D01*
X64928Y-112502D01*
X64658Y-112439D01*
X64429Y-112398D01*
X64262Y-112356D01*
X64137Y-112335D01*
X64095D01*
X63845Y-112315D01*
X63616Y-112294D01*
X63512Y-112273D01*
X63366D01*
X63054Y-112252D01*
X62721Y-112231D01*
D02*
G37*
%LPD*%
G36*
X62471Y-114668D02*
X62700D01*
X62762Y-114689D01*
X62825D01*
X63033Y-114731D01*
X63221Y-114751D01*
X63325Y-114772D01*
X63366Y-114793D01*
X63637Y-114876D01*
X63887Y-115001D01*
X64074Y-115126D01*
X64241Y-115251D01*
X64366Y-115355D01*
X64449Y-115459D01*
X64491Y-115522D01*
X64512Y-115543D01*
X64637Y-115751D01*
X64720Y-115959D01*
X64783Y-116188D01*
X64824Y-116376D01*
X64845Y-116563D01*
X64866Y-116709D01*
Y-116792D01*
Y-116834D01*
X64845Y-117188D01*
X64803Y-117334D01*
X64783Y-117480D01*
X64741Y-117584D01*
X64699Y-117667D01*
X64679Y-117730D01*
Y-117751D01*
X64533Y-118021D01*
X64366Y-118251D01*
X64304Y-118334D01*
X64241Y-118375D01*
X64199Y-118417D01*
X64179Y-118438D01*
X63908Y-118625D01*
X63637Y-118771D01*
X63512Y-118834D01*
X63429Y-118855D01*
X63366Y-118896D01*
X63345D01*
X62950Y-118979D01*
X62762Y-119000D01*
X62575Y-119021D01*
X62408Y-119042D01*
X60575D01*
Y-114647D01*
X62325D01*
X62471Y-114668D01*
D02*
G37*
D10*
X27750Y-140000D02*
G03*
X30250Y-137500I0J2500D01*
G01*
Y17250D02*
G03*
X27500Y20000I-2750J0D01*
G01*
X27750Y-20000D02*
G03*
X30250Y-17500I0J2500D01*
G01*
Y-22750D02*
G03*
X27500Y-20000I-2750J0D01*
G01*
X27750Y-60000D02*
G03*
X30250Y-57500I0J2500D01*
G01*
Y-62750D02*
G03*
X27500Y-60000I-2750J0D01*
G01*
X27750Y-100000D02*
G03*
X30250Y-97500I0J2500D01*
G01*
Y-103250D02*
G03*
X27000Y-100000I-3250J0D01*
G01*
X115000Y7500D02*
G03*
X105000Y17500I-10000J0D01*
G01*
Y-17500D02*
G03*
X115000Y-7500I0J10000D01*
G01*
Y-32500D02*
G03*
X105000Y-22500I-10000J0D01*
G01*
Y-57500D02*
G03*
X115000Y-47500I0J10000D01*
G01*
Y-72500D02*
G03*
X105000Y-62500I-10000J0D01*
G01*
Y-97500D02*
G03*
X115000Y-87500I0J10000D01*
G01*
X-29750Y-130000D02*
G03*
X-19750Y-140000I10000J0D01*
G01*
X-19750Y-100000D02*
G03*
X-29750Y-110000I0J-10000D01*
G01*
X105000Y-137500D02*
G03*
X115000Y-127500I0J10000D01*
G01*
Y-112500D02*
G03*
X105000Y-102500I-10000J0D01*
G01*
X-30000Y-90000D02*
G03*
X-20000Y-100000I10000J0D01*
G01*
X-20000Y-60000D02*
G03*
X-30000Y-70000I0J-10000D01*
G01*
Y-50000D02*
G03*
X-20000Y-60000I10000J0D01*
G01*
X-20000Y-20000D02*
G03*
X-30000Y-30000I0J-10000D01*
G01*
X-20000Y20000D02*
G03*
X-30000Y10000I0J-10000D01*
G01*
Y-10000D02*
G03*
X-20000Y-20000I10000J0D01*
G01*
X147250Y-225250D02*
X154750Y-225250D01*
X27500Y-140000D02*
X27750D01*
X24500Y-60000D02*
X27750D01*
X30250Y-17500D02*
Y17250D01*
X27500Y-20000D02*
X27750D01*
X30250Y-57500D02*
Y-22750D01*
X27500Y-60000D02*
X27750D01*
X30250Y-97500D02*
Y-62750D01*
X27000Y-100000D02*
X27750D01*
X30250Y-137500D02*
Y-103250D01*
Y-17500D02*
X105250D01*
X30250Y17500D02*
X105250D01*
X115000Y-7500D02*
Y7500D01*
X30250Y-57500D02*
X105250D01*
X30250Y-22500D02*
X105250D01*
X115000Y-47500D02*
Y-32500D01*
X30250Y-97500D02*
X105250D01*
X30250Y-62500D02*
X105250D01*
X115000Y-87500D02*
Y-72500D01*
Y-127500D02*
Y-112500D01*
X-19750Y-140000D02*
X27500D01*
X-29750Y-130000D02*
Y-110000D01*
X30250Y-102500D02*
X105250D01*
X30250Y-137500D02*
X105250D01*
X-20000Y-100000D02*
X27000Y-100000D01*
X-30000Y-90000D02*
Y-70000D01*
X-20000Y-60000D02*
X25000D01*
X-30000Y-50000D02*
Y-30000D01*
X-20000Y-20000D02*
X27500D01*
X-20000Y20000D02*
X27500D01*
X-30000Y-10000D02*
Y10000D01*
X-20000Y-20000D02*
X27500D01*
X-22500Y-25500D02*
X-15000D01*
X-22500Y-105500D02*
X-15000D01*
X-22500Y-65500D02*
X-15000D01*
X420513Y-165740D02*
X420741Y-165613D01*
X421275Y-165283D01*
X422011Y-164800D01*
X422900Y-164216D01*
X423764Y-163606D01*
X424500Y-163124D01*
X425008Y-162793D01*
X425212Y-162692D01*
X425339Y-162717D01*
X425745Y-162920D01*
X426354Y-163251D01*
X426710Y-163428D01*
X427269Y-163657D01*
X427548Y-163708D01*
X427599Y-163632D01*
X427802Y-163225D01*
X428107Y-162489D01*
X428539Y-161523D01*
X429022Y-160380D01*
X429530Y-159161D01*
X430063Y-157942D01*
X430546Y-156748D01*
X430977Y-155681D01*
X431333Y-154818D01*
X431562Y-154208D01*
X431638Y-153954D01*
X431612Y-153903D02*
X431638Y-153954D01*
X431333Y-153624D02*
X431612Y-153903D01*
X430850Y-153268D02*
X431333Y-153624D01*
X429809Y-152405D02*
X430850Y-153268D01*
X428768Y-151109D02*
X429809Y-152405D01*
X428133Y-149636D02*
X428768Y-151109D01*
X427904Y-147985D02*
X428133Y-149636D01*
X427904Y-147985D02*
X428082Y-146487D01*
X428691Y-145039D01*
X429707Y-143718D01*
X430952Y-142753D01*
X432374Y-142118D01*
X434000Y-141915D01*
X435549Y-142092D01*
X437023Y-142676D01*
X438343Y-143693D01*
X438902Y-144327D01*
X439664Y-145648D01*
X440096Y-147071D01*
X440147Y-147426D01*
X440071Y-149001D02*
X440147Y-147426D01*
X439613Y-150500D02*
X440071Y-149001D01*
X438801Y-151821D02*
X439613Y-150500D01*
X437658Y-152938D02*
X438801Y-151821D01*
X437505Y-153040D02*
X437658Y-152938D01*
X436972Y-153421D02*
X437505Y-153040D01*
X436616Y-153700D02*
X436972Y-153421D01*
X436337Y-153929D02*
X436616Y-153700D01*
X436337Y-153929D02*
X438318Y-158729D01*
X438648Y-159491D01*
X439182Y-160787D01*
X439664Y-161930D01*
X440071Y-162819D01*
X440325Y-163428D01*
X440452Y-163657D01*
X440452Y-163682D01*
X440629Y-163708D01*
X440985Y-163581D01*
X441671Y-163251D01*
X442103Y-163022D01*
X442611Y-162768D01*
X442839Y-162692D01*
X443042Y-162793D01*
X443525Y-163098D01*
X444236Y-163581D01*
X445100Y-164165D01*
X445913Y-164724D01*
X446649Y-165206D01*
X447208Y-165562D01*
X447462Y-165714D01*
X447513Y-165714D01*
X447741Y-165587D01*
X448173Y-165206D01*
X448834Y-164597D01*
X449748Y-163682D01*
X449900Y-163556D01*
X450662Y-162768D01*
X451272Y-162133D01*
X451678Y-161676D01*
X451831Y-161447D01*
X451704Y-161193D02*
X451831Y-161447D01*
X451348Y-160660D02*
X451704Y-161193D01*
X450866Y-159898D02*
X451348Y-160660D01*
X450256Y-159009D02*
X450866Y-159898D01*
X448656Y-156697D02*
X450256Y-159009D01*
X448656Y-156697D02*
X449545Y-154513D01*
X449799Y-153853D01*
X450154Y-153040D01*
X450408Y-152481D01*
X450535Y-152227D01*
X450764Y-152125D01*
X451348Y-151998D01*
X452212Y-151821D01*
X453253Y-151617D01*
X454244Y-151440D01*
X455107Y-151262D01*
X455768Y-151135D01*
X456047Y-151084D01*
X456123Y-151059D01*
X456174Y-150906D01*
X456199Y-150601D01*
X456225Y-150068D01*
X456250Y-149230D01*
X456250Y-147985D02*
X456250Y-149230D01*
X456250Y-147985D02*
X456250Y-147858D01*
X456225Y-146690D02*
X456250Y-147858D01*
X456225Y-146690D02*
X456225Y-145750D01*
X456174Y-145166D02*
X456225Y-145750D01*
X456149Y-144912D02*
X456174Y-145166D01*
X455869Y-144861D02*
X456149Y-144912D01*
X455234Y-144709D02*
X455869Y-144861D01*
X454345Y-144556D02*
X455234Y-144709D01*
X453304Y-144353D02*
X454345Y-144556D01*
X453228Y-144328D02*
X453304Y-144353D01*
X452187Y-144124D02*
X453228Y-144328D01*
X451297Y-143947D02*
X452187Y-144124D01*
X450688Y-143794D02*
X451297Y-143947D01*
X450408Y-143718D02*
X450688Y-143794D01*
X450358Y-143642D02*
X450408Y-143718D01*
X450154Y-143235D02*
X450358Y-143642D01*
X449850Y-142575D02*
X450154Y-143235D01*
X449494Y-141788D02*
X449850Y-142575D01*
X449164Y-140949D02*
X449494Y-141788D01*
X448859Y-140213D02*
X449164Y-140949D01*
X448656Y-139654D02*
X448859Y-140213D01*
X448605Y-139400D02*
X448656Y-139654D01*
X448605Y-139400D02*
X448757Y-139146D01*
X449113Y-138613D01*
X449621Y-137851D01*
X450256Y-136962D01*
X450281Y-136885D01*
X450891Y-135997D01*
X451399Y-135234D01*
X451704Y-134701D01*
X451831Y-134472D01*
X451831Y-134447D02*
X451831Y-134472D01*
X451628Y-134193D02*
X451831Y-134447D01*
X451170Y-133685D02*
X451628Y-134193D01*
X450535Y-132999D02*
X451170Y-133685D01*
X449748Y-132212D02*
X450535Y-132999D01*
X449494Y-131958D02*
X449748Y-132212D01*
X448630Y-131120D02*
X449494Y-131958D01*
X448046Y-130561D02*
X448630Y-131120D01*
X447665Y-130281D02*
X448046Y-130561D01*
X447487Y-130205D02*
X447665Y-130281D01*
X447208Y-130383D02*
X447487Y-130205D01*
X446649Y-130739D02*
X447208Y-130383D01*
X445887Y-131272D02*
X446649Y-130739D01*
X444973Y-131882D02*
X445887Y-131272D01*
X444922Y-131907D02*
X444973Y-131882D01*
X444033Y-132517D02*
X444922Y-131907D01*
X443296Y-133025D02*
X444033Y-132517D01*
X442763Y-133380D02*
X443296Y-133025D01*
X442534Y-133507D02*
X442763Y-133380D01*
X442484Y-133507D02*
X442534Y-133507D01*
X442128Y-133406D02*
X442484Y-133507D01*
X441493Y-133177D02*
X442128Y-133406D01*
X440731Y-132872D02*
X441493Y-133177D01*
X439893Y-132542D02*
X440731Y-132872D01*
X439156Y-132237D02*
X439893Y-132542D01*
X438597Y-131983D02*
X439156Y-132237D01*
X438318Y-131831D02*
X438597Y-131983D01*
X438318Y-131805D02*
X438318Y-131831D01*
X438216Y-131501D02*
X438318Y-131805D01*
X438064Y-130840D02*
X438216Y-131501D01*
X437886Y-129926D02*
X438064Y-130840D01*
X437683Y-128834D02*
X437886Y-129926D01*
X437632Y-128656D02*
X437683Y-128834D01*
X437429Y-127589D02*
X437632Y-128656D01*
X437277Y-126725D02*
X437429Y-127589D01*
X437150Y-126116D02*
X437277Y-126725D01*
X437073Y-125862D02*
X437150Y-126116D01*
X436921Y-125836D02*
X437073Y-125862D01*
X436413Y-125786D02*
X436921Y-125836D01*
X435626Y-125760D02*
X436413Y-125786D01*
X434660Y-125760D02*
X435626Y-125760D01*
X433670D02*
X434660Y-125760D01*
X432679Y-125786D02*
X433670Y-125760D01*
X431841Y-125811D02*
X432679Y-125786D01*
X431257Y-125862D02*
X431841Y-125811D01*
X431003Y-125913D02*
X431257Y-125862D01*
X430977Y-125913D02*
X431003Y-125913D01*
X430901Y-126243D02*
X430977Y-125913D01*
X430749Y-126903D02*
X430901Y-126243D01*
X430571Y-127843D02*
X430749Y-126903D01*
X430342Y-128935D02*
X430571Y-127843D01*
X430317Y-129113D02*
X430342Y-128935D01*
X430114Y-130180D02*
X430317Y-129113D01*
X429936Y-131043D02*
X430114Y-130180D01*
X429809Y-131653D02*
X429936Y-131043D01*
X429733Y-131882D02*
X429809Y-131653D01*
X429657Y-131932D02*
X429733Y-131882D01*
X429199Y-132110D02*
X429657Y-131932D01*
X428488Y-132415D02*
X429199Y-132110D01*
X427625Y-132771D02*
X428488Y-132415D01*
X425593Y-133583D02*
X427625Y-132771D01*
X423078Y-131882D02*
X425593Y-133583D01*
X422849Y-131729D02*
X423078Y-131882D01*
X421960Y-131120D02*
X422849Y-131729D01*
X421224Y-130612D02*
X421960Y-131120D01*
X420716Y-130281D02*
X421224Y-130612D01*
X420487Y-130180D02*
X420716Y-130281D01*
X420233Y-130408D02*
X420487Y-130180D01*
X419725Y-130866D02*
X420233Y-130408D01*
X419065Y-131526D02*
X419725Y-130866D01*
X418277Y-132313D02*
X419065Y-131526D01*
X417693Y-132872D02*
X418277Y-132313D01*
X417007Y-133583D02*
X417693Y-132872D01*
X416550Y-134066D02*
X417007Y-133583D01*
X416322Y-134371D02*
X416550Y-134066D01*
X416245Y-134549D02*
X416322Y-134371D01*
X416245Y-134549D02*
X416271Y-134676D01*
X416423Y-134930D01*
X416779Y-135463D01*
X417312Y-136225D01*
X417922Y-137114D01*
X418404Y-137851D01*
X418963Y-138689D01*
X419319Y-139298D01*
X419420Y-139578D01*
X419395Y-139705D02*
X419420Y-139578D01*
X419217Y-140187D02*
X419395Y-139705D01*
X418938Y-140924D02*
X419217Y-140187D01*
X418557Y-141813D02*
X418938Y-140924D01*
X417693Y-143794D02*
X418557Y-141813D01*
X416398Y-144048D02*
X417693Y-143794D01*
X415610Y-144175D02*
X416398Y-144048D01*
X414493Y-144404D02*
X415610Y-144175D01*
X413451Y-144607D02*
X414493Y-144404D01*
X411800Y-144912D02*
X413451Y-144607D01*
X411750Y-150932D02*
X411800Y-144912D01*
X411750Y-150932D02*
X412004Y-151033D01*
X412257Y-151109D01*
X412867Y-151236D01*
X413731Y-151414D01*
X414747Y-151617D01*
X415610Y-151770D01*
X416499Y-151948D01*
X417134Y-152075D01*
X417414Y-152125D01*
X417490Y-152227D01*
X417693Y-152633D01*
X418023Y-153319D01*
X418354Y-154132D01*
X418709Y-154970D01*
X419014Y-155758D01*
X419243Y-156342D01*
X419319Y-156672D01*
X419192Y-156901D02*
X419319Y-156672D01*
X418862Y-157409D02*
X419192Y-156901D01*
X418379Y-158145D02*
X418862Y-157409D01*
X417795Y-159009D02*
X418379Y-158145D01*
X417185Y-159898D02*
X417795Y-159009D01*
X416677Y-160634D02*
X417185Y-159898D01*
X416347Y-161168D02*
X416677Y-160634D01*
X416195Y-161422D02*
X416347Y-161168D01*
X416195Y-161422D02*
X416271Y-161600D01*
X416601Y-162006D01*
X417261Y-162692D01*
X418252Y-163657D01*
X418404Y-163809D01*
X419192Y-164571D01*
X419852Y-165181D01*
X420309Y-165587D01*
X420513Y-165740D01*
X376464Y-245778D02*
Y-238278D01*
X368964Y-245778D02*
X376464D01*
D11*
X323510Y47780D02*
X326010Y52780D01*
X328510Y47780D01*
X323510D02*
X328510D01*
X210250Y-232250D02*
X217750Y-232250D01*
X440750Y38550D02*
X445750Y38550D01*
X440750Y38550D02*
X443250Y34750D01*
X445750Y38550D01*
X457000Y34550D02*
X457000Y22050D01*
X457000Y9550D02*
X457000Y22050D01*
X429500Y9550D02*
X429500Y22050D01*
X429500Y34550D02*
X429500Y22050D01*
X-22500Y14500D02*
X-15000D01*
X268073Y-277765D02*
X267549Y-276717D01*
X266502Y-275670D01*
X265454Y-275146D01*
X263359D01*
X262312Y-275670D01*
X261265Y-276717D01*
X260741Y-277765D01*
X260217Y-279336D01*
Y-281954D01*
X260741Y-283525D01*
X261265Y-284573D01*
X262312Y-285620D01*
X263359Y-286144D01*
X265454D01*
X266502Y-285620D01*
X267549Y-284573D01*
X268073Y-283525D01*
Y-281954D01*
X265454D02*
X268073D01*
X276871Y-278812D02*
Y-286144D01*
Y-280383D02*
X275823Y-279336D01*
X274776Y-278812D01*
X273205D01*
X272157Y-279336D01*
X271110Y-280383D01*
X270586Y-281954D01*
Y-283002D01*
X271110Y-284573D01*
X272157Y-285620D01*
X273205Y-286144D01*
X274776D01*
X275823Y-285620D01*
X276871Y-284573D01*
X279804Y-275146D02*
Y-286144D01*
X282108Y-278812D02*
X285250Y-286144D01*
X288392Y-278812D02*
X285250Y-286144D01*
X296457Y-278812D02*
Y-286144D01*
Y-280383D02*
X295410Y-279336D01*
X294362Y-278812D01*
X292791D01*
X291744Y-279336D01*
X290696Y-280383D01*
X290173Y-281954D01*
Y-283002D01*
X290696Y-284573D01*
X291744Y-285620D01*
X292791Y-286144D01*
X294362D01*
X295410Y-285620D01*
X296457Y-284573D01*
X299390Y-278812D02*
Y-286144D01*
Y-280907D02*
X300961Y-279336D01*
X302008Y-278812D01*
X303579D01*
X304627Y-279336D01*
X305150Y-280907D01*
Y-286144D01*
X309602Y-275146D02*
Y-284049D01*
X310126Y-285620D01*
X311173Y-286144D01*
X312220D01*
X308031Y-278812D02*
X311697D01*
X313791Y-287715D02*
X321123Y-275146D01*
X328141Y-278812D02*
Y-287191D01*
X327617Y-288762D01*
X327093Y-289286D01*
X326046Y-289810D01*
X324475D01*
X323427Y-289286D01*
X328141Y-280383D02*
X327093Y-279336D01*
X326046Y-278812D01*
X324475D01*
X323427Y-279336D01*
X322380Y-280383D01*
X321856Y-281954D01*
Y-283002D01*
X322380Y-284573D01*
X323427Y-285620D01*
X324475Y-286144D01*
X326046D01*
X327093Y-285620D01*
X328141Y-284573D01*
X331073Y-278812D02*
Y-289810D01*
Y-280383D02*
X332121Y-279336D01*
X333168Y-278812D01*
X334739D01*
X335787Y-279336D01*
X336834Y-280383D01*
X337358Y-281954D01*
Y-283002D01*
X336834Y-284573D01*
X335787Y-285620D01*
X334739Y-286144D01*
X333168D01*
X332121Y-285620D01*
X331073Y-284573D01*
X340762Y-275146D02*
X341286Y-275670D01*
X341809Y-275146D01*
X341286Y-274622D01*
X340762Y-275146D01*
X341286Y-278812D02*
Y-286144D01*
X343747Y-275146D02*
Y-286144D01*
Y-280383D02*
X344794Y-279336D01*
X345842Y-278812D01*
X347413D01*
X348460Y-279336D01*
X349508Y-280383D01*
X350031Y-281954D01*
Y-283002D01*
X349508Y-284573D01*
X348460Y-285620D01*
X347413Y-286144D01*
X345842D01*
X344794Y-285620D01*
X343747Y-284573D01*
X352388Y-278812D02*
Y-284049D01*
X352912Y-285620D01*
X353959Y-286144D01*
X355530D01*
X356577Y-285620D01*
X358149Y-284049D01*
Y-278812D02*
Y-286144D01*
X366790Y-280383D02*
X366266Y-279336D01*
X364695Y-278812D01*
X363124D01*
X361553Y-279336D01*
X361029Y-280383D01*
X361553Y-281430D01*
X362600Y-281954D01*
X365219Y-282478D01*
X366266Y-283002D01*
X366790Y-284049D01*
Y-284573D01*
X366266Y-285620D01*
X364695Y-286144D01*
X363124D01*
X361553Y-285620D01*
X361029Y-284573D01*
X369094Y-275146D02*
Y-286144D01*
Y-280383D02*
X370141Y-279336D01*
X371189Y-278812D01*
X372760D01*
X373807Y-279336D01*
X374855Y-280383D01*
X375378Y-281954D01*
Y-283002D01*
X374855Y-284573D01*
X373807Y-285620D01*
X372760Y-286144D01*
X371189D01*
X370141Y-285620D01*
X369094Y-284573D01*
X377735Y-281430D02*
X387161D01*
X394598Y-275146D02*
X393550D01*
X392503Y-275670D01*
X391979Y-277241D01*
Y-286144D01*
X390408Y-278812D02*
X394074D01*
X397216Y-275146D02*
X397740Y-275670D01*
X398264Y-275146D01*
X397740Y-274622D01*
X397216Y-275146D01*
X397740Y-278812D02*
Y-286144D01*
X400201Y-278812D02*
Y-286144D01*
Y-281954D02*
X400725Y-280383D01*
X401773Y-279336D01*
X402820Y-278812D01*
X404391D01*
X405386D02*
Y-286144D01*
Y-280907D02*
X406957Y-279336D01*
X408005Y-278812D01*
X409576D01*
X410623Y-279336D01*
X411147Y-280907D01*
Y-286144D01*
Y-280907D02*
X412718Y-279336D01*
X413765Y-278812D01*
X415336D01*
X416384Y-279336D01*
X416907Y-280907D01*
Y-286144D01*
X420364Y-278812D02*
X422459Y-286144D01*
X424553Y-278812D02*
X422459Y-286144D01*
X424553Y-278812D02*
X426648Y-286144D01*
X428743Y-278812D02*
X426648Y-286144D01*
X437593Y-278812D02*
Y-286144D01*
Y-280383D02*
X436546Y-279336D01*
X435499Y-278812D01*
X433928D01*
X432880Y-279336D01*
X431833Y-280383D01*
X431309Y-281954D01*
Y-283002D01*
X431833Y-284573D01*
X432880Y-285620D01*
X433928Y-286144D01*
X435499D01*
X436546Y-285620D01*
X437593Y-284573D01*
X440526Y-278812D02*
Y-286144D01*
Y-281954D02*
X441050Y-280383D01*
X442097Y-279336D01*
X443145Y-278812D01*
X444716D01*
X445711Y-281954D02*
X451995D01*
Y-280907D01*
X451471Y-279859D01*
X450948Y-279336D01*
X449900Y-278812D01*
X448329D01*
X447282Y-279336D01*
X446235Y-280383D01*
X445711Y-281954D01*
Y-283002D01*
X446235Y-284573D01*
X447282Y-285620D01*
X448329Y-286144D01*
X449900D01*
X450948Y-285620D01*
X451995Y-284573D01*
X266667Y-261395D02*
X266238Y-260538D01*
X265381Y-259681D01*
X264524Y-259252D01*
X262810D01*
X261953Y-259681D01*
X261096Y-260538D01*
X260668Y-261395D01*
X260240Y-262680D01*
Y-264822D01*
X260668Y-266108D01*
X261096Y-266965D01*
X261953Y-267822D01*
X262810Y-268250D01*
X264524D01*
X265381Y-267822D01*
X266238Y-266965D01*
X266667Y-266108D01*
Y-264822D01*
X264524D02*
X266667D01*
X268723Y-259252D02*
Y-268250D01*
X273608Y-259252D02*
Y-268250D01*
X270609Y-259252D02*
X276607D01*
X277679D02*
Y-268250D01*
X283677Y-259252D02*
Y-268250D01*
X277679Y-263537D02*
X283677D01*
X286162Y-259252D02*
Y-265679D01*
X286591Y-266965D01*
X287448Y-267822D01*
X288733Y-268250D01*
X289590D01*
X290876Y-267822D01*
X291733Y-266965D01*
X292161Y-265679D01*
Y-259252D01*
X294646D02*
Y-268250D01*
Y-259252D02*
X298503D01*
X299788Y-259681D01*
X300217Y-260109D01*
X300645Y-260966D01*
Y-261823D01*
X300217Y-262680D01*
X299788Y-263109D01*
X298503Y-263537D01*
X294646D02*
X298503D01*
X299788Y-263965D01*
X300217Y-264394D01*
X300645Y-265251D01*
Y-266536D01*
X300217Y-267393D01*
X299788Y-267822D01*
X298503Y-268250D01*
X294646D01*
X260334Y-298812D02*
X263476Y-306144D01*
X266618Y-298812D02*
X263476Y-306144D01*
X269446Y-295146D02*
X269970Y-295670D01*
X270494Y-295146D01*
X269970Y-294622D01*
X269446Y-295146D01*
X269970Y-298812D02*
Y-306144D01*
X272431Y-298812D02*
Y-306144D01*
Y-300907D02*
X274002Y-299336D01*
X275050Y-298812D01*
X276621D01*
X277668Y-299336D01*
X278192Y-300907D01*
Y-306144D01*
X287357Y-300383D02*
X286309Y-299336D01*
X285262Y-298812D01*
X283691D01*
X282643Y-299336D01*
X281596Y-300383D01*
X281072Y-301954D01*
Y-303002D01*
X281596Y-304573D01*
X282643Y-305620D01*
X283691Y-306144D01*
X285262D01*
X286309Y-305620D01*
X287357Y-304573D01*
X289713Y-301954D02*
X295998D01*
Y-300907D01*
X295474Y-299859D01*
X294950Y-299336D01*
X293903Y-298812D01*
X292332D01*
X291284Y-299336D01*
X290237Y-300383D01*
X289713Y-301954D01*
Y-303002D01*
X290237Y-304573D01*
X291284Y-305620D01*
X292332Y-306144D01*
X293903D01*
X294950Y-305620D01*
X295998Y-304573D01*
X298354Y-298812D02*
Y-306144D01*
Y-300907D02*
X299925Y-299336D01*
X300973Y-298812D01*
X302544D01*
X303591Y-299336D01*
X304115Y-300907D01*
Y-306144D01*
X308566Y-295146D02*
Y-304049D01*
X309090Y-305620D01*
X310138Y-306144D01*
X311185D01*
X306995Y-298812D02*
X310661D01*
X312756Y-301430D02*
X322183D01*
X325429Y-295146D02*
Y-306144D01*
Y-300907D02*
X327001Y-299336D01*
X328048Y-298812D01*
X329619D01*
X330666Y-299336D01*
X331190Y-300907D01*
Y-306144D01*
X335118Y-295146D02*
X335642Y-295670D01*
X336165Y-295146D01*
X335642Y-294622D01*
X335118Y-295146D01*
X335642Y-298812D02*
Y-306144D01*
X338103Y-298812D02*
Y-306144D01*
Y-300907D02*
X339674Y-299336D01*
X340721Y-298812D01*
X342293D01*
X343340Y-299336D01*
X343864Y-300907D01*
Y-306144D01*
Y-300907D02*
X345435Y-299336D01*
X346482Y-298812D01*
X348053D01*
X349101Y-299336D01*
X349624Y-300907D01*
Y-306144D01*
X353081Y-298812D02*
Y-309810D01*
Y-300383D02*
X354128Y-299336D01*
X355176Y-298812D01*
X356747D01*
X357794Y-299336D01*
X358841Y-300383D01*
X359365Y-301954D01*
Y-303002D01*
X358841Y-304573D01*
X357794Y-305620D01*
X356747Y-306144D01*
X355176D01*
X354128Y-305620D01*
X353081Y-304573D01*
X361722Y-301954D02*
X368006D01*
Y-300907D01*
X367482Y-299859D01*
X366959Y-299336D01*
X365911Y-298812D01*
X364340D01*
X363293Y-299336D01*
X362245Y-300383D01*
X361722Y-301954D01*
Y-303002D01*
X362245Y-304573D01*
X363293Y-305620D01*
X364340Y-306144D01*
X365911D01*
X366959Y-305620D01*
X368006Y-304573D01*
X370363Y-307715D02*
X377695Y-295146D01*
X378428D02*
Y-303002D01*
X378951Y-304573D01*
X379999Y-305620D01*
X381570Y-306144D01*
X382617D01*
X384188Y-305620D01*
X385236Y-304573D01*
X385759Y-303002D01*
Y-295146D01*
X396129Y-296717D02*
X395081Y-295670D01*
X393510Y-295146D01*
X391415D01*
X389844Y-295670D01*
X388797Y-296717D01*
Y-297765D01*
X389321Y-298812D01*
X389844Y-299336D01*
X390892Y-299859D01*
X394034Y-300907D01*
X395081Y-301430D01*
X395605Y-301954D01*
X396129Y-303002D01*
Y-304573D01*
X395081Y-305620D01*
X393510Y-306144D01*
X391415D01*
X389844Y-305620D01*
X388797Y-304573D01*
X398590Y-295146D02*
Y-306144D01*
Y-295146D02*
X403303D01*
X404874Y-295670D01*
X405398Y-296194D01*
X405922Y-297241D01*
Y-298288D01*
X405398Y-299336D01*
X404874Y-299859D01*
X403303Y-300383D01*
X398590D02*
X403303D01*
X404874Y-300907D01*
X405398Y-301430D01*
X405922Y-302478D01*
Y-304049D01*
X405398Y-305096D01*
X404874Y-305620D01*
X403303Y-306144D01*
X398590D01*
X416239Y-297765D02*
X415715Y-296717D01*
X414668Y-295670D01*
X413620Y-295146D01*
X411525D01*
X410478Y-295670D01*
X409431Y-296717D01*
X408907Y-297765D01*
X408383Y-299336D01*
Y-301954D01*
X408907Y-303525D01*
X409431Y-304573D01*
X410478Y-305620D01*
X411525Y-306144D01*
X413620D01*
X414668Y-305620D01*
X415715Y-304573D01*
X416239Y-303525D01*
Y-301954D01*
X413620D02*
X416239D01*
X418752Y-300907D02*
X423466D01*
X425037Y-300383D01*
X425560Y-299859D01*
X426084Y-298812D01*
Y-297241D01*
X425560Y-296194D01*
X425037Y-295670D01*
X423466Y-295146D01*
X418752D01*
Y-306144D01*
X428545Y-295146D02*
Y-306144D01*
X430850Y-295146D02*
Y-306144D01*
Y-295146D02*
X435563D01*
X437134Y-295670D01*
X437658Y-296194D01*
X438181Y-297241D01*
Y-298288D01*
X437658Y-299336D01*
X437134Y-299859D01*
X435563Y-300383D01*
X430850D02*
X435563D01*
X437134Y-300907D01*
X437658Y-301430D01*
X438181Y-302478D01*
Y-304049D01*
X437658Y-305096D01*
X437134Y-305620D01*
X435563Y-306144D01*
X430850D01*
X105134Y-236905D02*
X104753Y-236143D01*
X103992Y-235382D01*
X103230Y-235001D01*
X101706D01*
X100945Y-235382D01*
X100183Y-236143D01*
X99802Y-236905D01*
X99421Y-238048D01*
Y-239952D01*
X99802Y-241095D01*
X100183Y-241856D01*
X100945Y-242618D01*
X101706Y-242999D01*
X103230D01*
X103992Y-242618D01*
X104753Y-241856D01*
X105134Y-241095D01*
X107381Y-236524D02*
X108143Y-236143D01*
X109286Y-235001D01*
Y-242999D01*
X113628Y-236905D02*
Y-236524D01*
X114009Y-235763D01*
X114389Y-235382D01*
X115151Y-235001D01*
X116675D01*
X117436Y-235382D01*
X117817Y-235763D01*
X118198Y-236524D01*
Y-237286D01*
X117817Y-238048D01*
X117055Y-239191D01*
X113247Y-242999D01*
X118579D01*
X396905Y-235676D02*
X396143Y-236056D01*
X395382Y-236818D01*
X395001Y-237580D01*
Y-239103D01*
X395382Y-239865D01*
X396143Y-240627D01*
X396905Y-241008D01*
X398048Y-241388D01*
X399952D01*
X401095Y-241008D01*
X401856Y-240627D01*
X402618Y-239865D01*
X402999Y-239103D01*
Y-237580D01*
X402618Y-236818D01*
X401856Y-236056D01*
X401095Y-235676D01*
X396524Y-233428D02*
X396143Y-232667D01*
X395001Y-231524D01*
X402999D01*
X396143Y-222992D02*
X395382Y-223373D01*
X395001Y-224516D01*
Y-225278D01*
X395382Y-226420D01*
X396524Y-227182D01*
X398429Y-227563D01*
X400333D01*
X401856Y-227182D01*
X402618Y-226420D01*
X402999Y-225278D01*
Y-224897D01*
X402618Y-223754D01*
X401856Y-222992D01*
X400714Y-222612D01*
X400333D01*
X399190Y-222992D01*
X398429Y-223754D01*
X398048Y-224897D01*
Y-225278D01*
X398429Y-226420D01*
X399190Y-227182D01*
X400333Y-227563D01*
X69634Y-146155D02*
X69253Y-145393D01*
X68492Y-144632D01*
X67730Y-144251D01*
X66206D01*
X65445Y-144632D01*
X64683Y-145393D01*
X64302Y-146155D01*
X63921Y-147298D01*
Y-149202D01*
X64302Y-150345D01*
X64683Y-151107D01*
X65445Y-151868D01*
X66206Y-152249D01*
X67730D01*
X68492Y-151868D01*
X69253Y-151107D01*
X69634Y-150345D01*
X71881Y-145774D02*
X72643Y-145393D01*
X73786Y-144251D01*
Y-152249D01*
X82317Y-144251D02*
X78509D01*
X78128Y-147679D01*
X78509Y-147298D01*
X79651Y-146917D01*
X80794D01*
X81936Y-147298D01*
X82698Y-148060D01*
X83079Y-149202D01*
Y-149964D01*
X82698Y-151107D01*
X81936Y-151868D01*
X80794Y-152249D01*
X79651D01*
X78509Y-151868D01*
X78128Y-151487D01*
X77747Y-150726D01*
X201796Y-240075D02*
Y-248073D01*
Y-240075D02*
X205224D01*
X206367Y-240455D01*
X206747Y-240836D01*
X207128Y-241598D01*
Y-242360D01*
X206747Y-243122D01*
X206367Y-243503D01*
X205224Y-243883D01*
X201796D01*
X204462D02*
X207128Y-248073D01*
X208918Y-241598D02*
X209680Y-241217D01*
X210823Y-240075D01*
Y-248073D01*
X215546Y-240075D02*
X219735D01*
X217450Y-243122D01*
X218593D01*
X219354Y-243503D01*
X219735Y-243883D01*
X220116Y-245026D01*
Y-245788D01*
X219735Y-246930D01*
X218973Y-247692D01*
X217831Y-248073D01*
X216688D01*
X215546Y-247692D01*
X215165Y-247311D01*
X214784Y-246549D01*
X37751Y-174410D02*
X45749D01*
X37751D02*
Y-170982D01*
X38132Y-169839D01*
X38512Y-169459D01*
X39274Y-169078D01*
X40036D01*
X40798Y-169459D01*
X41179Y-169839D01*
X41560Y-170982D01*
Y-174410D01*
Y-171744D02*
X45749Y-169078D01*
X39274Y-167288D02*
X38893Y-166526D01*
X37751Y-165383D01*
X45749D01*
X39655Y-161041D02*
X39274D01*
X38512Y-160660D01*
X38132Y-160280D01*
X37751Y-159518D01*
Y-157994D01*
X38132Y-157233D01*
X38512Y-156852D01*
X39274Y-156471D01*
X40036D01*
X40798Y-156852D01*
X41940Y-157614D01*
X45749Y-161422D01*
Y-156090D01*
X51751Y-174196D02*
X59749D01*
X51751D02*
Y-170768D01*
X52132Y-169626D01*
X52513Y-169245D01*
X53274Y-168864D01*
X54036D01*
X54798Y-169245D01*
X55179Y-169626D01*
X55560Y-170768D01*
Y-174196D01*
Y-171530D02*
X59749Y-168864D01*
X53274Y-167074D02*
X52893Y-166312D01*
X51751Y-165169D01*
X59749D01*
X53274Y-161208D02*
X52893Y-160447D01*
X51751Y-159304D01*
X59749D01*
X215090Y-158001D02*
Y-165999D01*
Y-158001D02*
X218518D01*
X219660Y-158382D01*
X220041Y-158763D01*
X220422Y-159524D01*
Y-160286D01*
X220041Y-161048D01*
X219660Y-161429D01*
X218518Y-161810D01*
X215090D01*
X217756D02*
X220422Y-165999D01*
X222212Y-159524D02*
X222974Y-159143D01*
X224117Y-158001D01*
Y-165999D01*
X230363Y-158001D02*
X229220Y-158382D01*
X228459Y-159524D01*
X228078Y-161429D01*
Y-162571D01*
X228459Y-164476D01*
X229220Y-165618D01*
X230363Y-165999D01*
X231125D01*
X232267Y-165618D01*
X233029Y-164476D01*
X233410Y-162571D01*
Y-161429D01*
X233029Y-159524D01*
X232267Y-158382D01*
X231125Y-158001D01*
X230363D01*
X215773Y-187501D02*
Y-195499D01*
Y-187501D02*
X219201D01*
X220343Y-187882D01*
X220724Y-188263D01*
X221105Y-189024D01*
Y-189786D01*
X220724Y-190548D01*
X220343Y-190929D01*
X219201Y-191310D01*
X215773D01*
X218439D02*
X221105Y-195499D01*
X223657Y-187501D02*
X227846D01*
X225561Y-190548D01*
X226704D01*
X227465Y-190929D01*
X227846Y-191310D01*
X228227Y-192452D01*
Y-193214D01*
X227846Y-194356D01*
X227085Y-195118D01*
X225942Y-195499D01*
X224799D01*
X223657Y-195118D01*
X223276Y-194737D01*
X222895Y-193976D01*
X223661Y-221757D02*
X222899Y-222138D01*
X222138Y-222899D01*
X221757Y-223661D01*
X221376Y-224804D01*
Y-226708D01*
X221757Y-227851D01*
X222138Y-228612D01*
X222899Y-229374D01*
X223661Y-229755D01*
X225185D01*
X225947Y-229374D01*
X226708Y-228612D01*
X227089Y-227851D01*
X227470Y-226708D01*
Y-224804D01*
X227089Y-223661D01*
X226708Y-222899D01*
X225947Y-222138D01*
X225185Y-221757D01*
X223661D01*
X224804Y-228232D02*
X227089Y-230517D01*
X229336Y-223280D02*
X230098Y-222899D01*
X231241Y-221757D01*
Y-229755D01*
X28773Y-209001D02*
Y-216999D01*
Y-209001D02*
X31439D01*
X32582Y-209382D01*
X33343Y-210144D01*
X33724Y-210905D01*
X34105Y-212048D01*
Y-213952D01*
X33724Y-215095D01*
X33343Y-215856D01*
X32582Y-216618D01*
X31439Y-216999D01*
X28773D01*
X40465Y-209001D02*
X36657D01*
X36276Y-212429D01*
X36657Y-212048D01*
X37799Y-211667D01*
X38942D01*
X40085Y-212048D01*
X40846Y-212810D01*
X41227Y-213952D01*
Y-214714D01*
X40846Y-215856D01*
X40085Y-216618D01*
X38942Y-216999D01*
X37799D01*
X36657Y-216618D01*
X36276Y-216237D01*
X35895Y-215476D01*
X220854Y-175405D02*
X220473Y-174643D01*
X219711Y-173882D01*
X218950Y-173501D01*
X217426D01*
X216664Y-173882D01*
X215903Y-174643D01*
X215522Y-175405D01*
X215141Y-176548D01*
Y-178452D01*
X215522Y-179595D01*
X215903Y-180357D01*
X216664Y-181118D01*
X217426Y-181499D01*
X218950D01*
X219711Y-181118D01*
X220473Y-180357D01*
X220854Y-179595D01*
X227672Y-174643D02*
X227291Y-173882D01*
X226148Y-173501D01*
X225386D01*
X224244Y-173882D01*
X223482Y-175024D01*
X223101Y-176929D01*
Y-178833D01*
X223482Y-180357D01*
X224244Y-181118D01*
X225386Y-181499D01*
X225767D01*
X226910Y-181118D01*
X227672Y-180357D01*
X228053Y-179214D01*
Y-178833D01*
X227672Y-177690D01*
X226910Y-176929D01*
X225767Y-176548D01*
X225386D01*
X224244Y-176929D01*
X223482Y-177690D01*
X223101Y-178833D01*
X129884Y-117155D02*
X129503Y-116393D01*
X128742Y-115632D01*
X127980Y-115251D01*
X126456D01*
X125695Y-115632D01*
X124933Y-116393D01*
X124552Y-117155D01*
X124171Y-118298D01*
Y-120202D01*
X124552Y-121345D01*
X124933Y-122107D01*
X125695Y-122868D01*
X126456Y-123249D01*
X127980D01*
X128742Y-122868D01*
X129503Y-122107D01*
X129884Y-121345D01*
X132131Y-116774D02*
X132893Y-116393D01*
X134036Y-115251D01*
Y-123249D01*
X140282Y-115251D02*
X139139Y-115632D01*
X138378Y-116774D01*
X137997Y-118679D01*
Y-119821D01*
X138378Y-121726D01*
X139139Y-122868D01*
X140282Y-123249D01*
X141044D01*
X142186Y-122868D01*
X142948Y-121726D01*
X143329Y-119821D01*
Y-118679D01*
X142948Y-116774D01*
X142186Y-115632D01*
X141044Y-115251D01*
X140282D01*
X4773Y-244251D02*
Y-252249D01*
Y-244251D02*
X8201D01*
X9343Y-244632D01*
X9724Y-245013D01*
X10105Y-245774D01*
Y-246536D01*
X9724Y-247298D01*
X9343Y-247679D01*
X8201Y-248060D01*
X4773D01*
X7439D02*
X10105Y-252249D01*
X12276Y-246155D02*
Y-245774D01*
X12657Y-245013D01*
X13038Y-244632D01*
X13799Y-244251D01*
X15323D01*
X16085Y-244632D01*
X16466Y-245013D01*
X16846Y-245774D01*
Y-246536D01*
X16466Y-247298D01*
X15704Y-248440D01*
X11895Y-252249D01*
X17227D01*
X163155Y-289366D02*
X162393Y-289747D01*
X161632Y-290508D01*
X161251Y-291270D01*
Y-292794D01*
X161632Y-293555D01*
X162393Y-294317D01*
X163155Y-294698D01*
X164298Y-295079D01*
X166202D01*
X167345Y-294698D01*
X168106Y-294317D01*
X168868Y-293555D01*
X169249Y-292794D01*
Y-291270D01*
X168868Y-290508D01*
X168106Y-289747D01*
X167345Y-289366D01*
X162774Y-287119D02*
X162393Y-286357D01*
X161251Y-285214D01*
X169249D01*
X161251Y-280492D02*
Y-276302D01*
X164298Y-278587D01*
Y-277445D01*
X164679Y-276683D01*
X165060Y-276302D01*
X166202Y-275921D01*
X166964D01*
X168106Y-276302D01*
X168868Y-277064D01*
X169249Y-278206D01*
Y-279349D01*
X168868Y-280492D01*
X168487Y-280872D01*
X167726Y-281253D01*
X7848Y-221155D02*
X7467Y-220394D01*
X6705Y-219632D01*
X5944Y-219251D01*
X4420D01*
X3659Y-219632D01*
X2897Y-220394D01*
X2516Y-221155D01*
X2135Y-222298D01*
Y-224202D01*
X2516Y-225345D01*
X2897Y-226106D01*
X3659Y-226868D01*
X4420Y-227249D01*
X5944D01*
X6705Y-226868D01*
X7467Y-226106D01*
X7848Y-225345D01*
X10095Y-220774D02*
X10857Y-220394D01*
X12000Y-219251D01*
Y-227249D01*
X15961Y-220774D02*
X16722Y-220394D01*
X17865Y-219251D01*
Y-227249D01*
X441210Y52149D02*
Y46055D01*
X440829Y44913D01*
X440448Y44532D01*
X439686Y44151D01*
X438925D01*
X438163Y44532D01*
X437782Y44913D01*
X437401Y46055D01*
Y46817D01*
X443647Y50245D02*
Y50626D01*
X444028Y51387D01*
X444409Y51768D01*
X445171Y52149D01*
X446694D01*
X447456Y51768D01*
X447837Y51387D01*
X448218Y50626D01*
Y49864D01*
X447837Y49102D01*
X447075Y47959D01*
X443267Y44151D01*
X448599D01*
X215833Y-125955D02*
X215072Y-126716D01*
X214691Y-127859D01*
Y-129382D01*
X215072Y-130525D01*
X215833Y-131287D01*
X216595D01*
X217357Y-130906D01*
X217738Y-130525D01*
X218119Y-129763D01*
X218880Y-127478D01*
X219261Y-126716D01*
X219642Y-126336D01*
X220404Y-125955D01*
X221546D01*
X222308Y-126716D01*
X222689Y-127859D01*
Y-129382D01*
X222308Y-130525D01*
X221546Y-131287D01*
X214691Y-124165D02*
X222689Y-122260D01*
X214691Y-120356D02*
X222689Y-122260D01*
X214691Y-120356D02*
X222689Y-118451D01*
X214691Y-116547D02*
X222689Y-118451D01*
X216214Y-114948D02*
X215833Y-114186D01*
X214691Y-113043D01*
X222689D01*
X123251Y-266696D02*
X131249D01*
X123251D02*
Y-261745D01*
X127059Y-266696D02*
Y-263649D01*
X123251Y-260831D02*
X131249D01*
X123251D02*
Y-257403D01*
X123632Y-256260D01*
X124013Y-255879D01*
X124774Y-255498D01*
X125536D01*
X126298Y-255879D01*
X126679Y-256260D01*
X127059Y-257403D01*
Y-260831D02*
Y-257403D01*
X127440Y-256260D01*
X127821Y-255879D01*
X128583Y-255498D01*
X129726D01*
X130487Y-255879D01*
X130868Y-256260D01*
X131249Y-257403D01*
Y-260831D01*
X124774Y-253708D02*
X124393Y-252947D01*
X123251Y-251804D01*
X131249D01*
X61817Y-257405D02*
X61436Y-256644D01*
X60674Y-255882D01*
X59913Y-255501D01*
X58389D01*
X57627Y-255882D01*
X56866Y-256644D01*
X56485Y-257405D01*
X56104Y-258548D01*
Y-260452D01*
X56485Y-261595D01*
X56866Y-262356D01*
X57627Y-263118D01*
X58389Y-263499D01*
X59913D01*
X60674Y-263118D01*
X61436Y-262356D01*
X61817Y-261595D01*
X69396Y-255501D02*
X65588Y-263499D01*
X64064Y-255501D02*
X69396D01*
X-14499Y-204418D02*
X-6501D01*
X-14499D02*
Y-200990D01*
X-14118Y-199847D01*
X-13737Y-199466D01*
X-12976Y-199086D01*
X-12214D01*
X-11452Y-199466D01*
X-11071Y-199847D01*
X-10690Y-200990D01*
Y-204418D01*
Y-201752D02*
X-6501Y-199086D01*
X-14499Y-193487D02*
X-9167Y-197295D01*
Y-191582D01*
X-14499Y-193487D02*
X-6501D01*
X130477Y-129761D02*
Y-137759D01*
Y-129761D02*
X133904D01*
X135047Y-130142D01*
X135428Y-130523D01*
X135809Y-131284D01*
Y-132046D01*
X135428Y-132808D01*
X135047Y-133189D01*
X133904Y-133570D01*
X130477D01*
X133143D02*
X135809Y-137759D01*
X137599Y-131284D02*
X138361Y-130904D01*
X139503Y-129761D01*
Y-137759D01*
X130713Y-144001D02*
Y-151999D01*
Y-144001D02*
X134141D01*
X135284Y-144382D01*
X135665Y-144763D01*
X136045Y-145524D01*
Y-146286D01*
X135665Y-147048D01*
X135284Y-147429D01*
X134141Y-147809D01*
X130713D01*
X133379D02*
X136045Y-151999D01*
X142406Y-145143D02*
X142025Y-144382D01*
X140883Y-144001D01*
X140121D01*
X138978Y-144382D01*
X138216Y-145524D01*
X137836Y-147429D01*
Y-149333D01*
X138216Y-150857D01*
X138978Y-151618D01*
X140121Y-151999D01*
X140502D01*
X141644Y-151618D01*
X142406Y-150857D01*
X142787Y-149714D01*
Y-149333D01*
X142406Y-148190D01*
X141644Y-147429D01*
X140502Y-147048D01*
X140121D01*
X138978Y-147429D01*
X138216Y-148190D01*
X137836Y-149333D01*
X-28499Y-289227D02*
X-20501D01*
X-28499D02*
Y-285799D01*
X-28118Y-284657D01*
X-27737Y-284276D01*
X-26976Y-283895D01*
X-26214D01*
X-25452Y-284276D01*
X-25071Y-284657D01*
X-24690Y-285799D01*
Y-289227D01*
Y-286561D02*
X-20501Y-283895D01*
X-28499Y-280201D02*
X-28118Y-281343D01*
X-27357Y-281724D01*
X-26595D01*
X-25833Y-281343D01*
X-25452Y-280581D01*
X-25071Y-279058D01*
X-24690Y-277915D01*
X-23929Y-277154D01*
X-23167Y-276773D01*
X-22024D01*
X-21263Y-277154D01*
X-20882Y-277535D01*
X-20501Y-278677D01*
Y-280201D01*
X-20882Y-281343D01*
X-21263Y-281724D01*
X-22024Y-282105D01*
X-23167D01*
X-23929Y-281724D01*
X-24690Y-280962D01*
X-25071Y-279820D01*
X-25452Y-278296D01*
X-25833Y-277535D01*
X-26595Y-277154D01*
X-27357D01*
X-28118Y-277535D01*
X-28499Y-278677D01*
Y-280201D01*
X130784Y-101001D02*
Y-108999D01*
Y-101001D02*
X134212D01*
X135355Y-101382D01*
X135736Y-101763D01*
X136117Y-102524D01*
Y-103286D01*
X135736Y-104048D01*
X135355Y-104429D01*
X134212Y-104810D01*
X130784D01*
X133450D02*
X136117Y-108999D01*
X143239Y-101001D02*
X139430Y-108999D01*
X137907Y-101001D02*
X143239D01*
X-29499Y-204227D02*
X-21501D01*
X-29499D02*
Y-200799D01*
X-29118Y-199657D01*
X-28737Y-199276D01*
X-27976Y-198895D01*
X-27214D01*
X-26452Y-199276D01*
X-26071Y-199657D01*
X-25690Y-200799D01*
Y-204227D01*
Y-201561D02*
X-21501Y-198895D01*
X-29499Y-192535D02*
Y-196343D01*
X-26071Y-196724D01*
X-26452Y-196343D01*
X-26833Y-195201D01*
Y-194058D01*
X-26452Y-192915D01*
X-25690Y-192154D01*
X-24548Y-191773D01*
X-23786D01*
X-22643Y-192154D01*
X-21882Y-192915D01*
X-21501Y-194058D01*
Y-195201D01*
X-21882Y-196343D01*
X-22263Y-196724D01*
X-23024Y-197105D01*
X102501Y-266537D02*
X110499D01*
X102501D02*
Y-263109D01*
X102882Y-261966D01*
X103263Y-261586D01*
X104024Y-261205D01*
X104786D01*
X105548Y-261586D01*
X105929Y-261966D01*
X106309Y-263109D01*
Y-266537D01*
Y-263871D02*
X110499Y-261205D01*
X105167Y-254463D02*
X106309Y-254844D01*
X107071Y-255606D01*
X107452Y-256748D01*
Y-257129D01*
X107071Y-258272D01*
X106309Y-259034D01*
X105167Y-259415D01*
X104786D01*
X103643Y-259034D01*
X102882Y-258272D01*
X102501Y-257129D01*
Y-256748D01*
X102882Y-255606D01*
X103643Y-254844D01*
X105167Y-254463D01*
X107071D01*
X108976Y-254844D01*
X110118Y-255606D01*
X110499Y-256748D01*
Y-257510D01*
X110118Y-258653D01*
X109356Y-259034D01*
X176751Y-294263D02*
X184749Y-288931D01*
X176751D02*
X184749Y-294263D01*
X178274Y-287141D02*
X177893Y-286379D01*
X176751Y-285237D01*
X184749D01*
X140873Y-229751D02*
Y-235464D01*
X141254Y-236607D01*
X142015Y-237368D01*
X143158Y-237749D01*
X143920D01*
X145062Y-237368D01*
X145824Y-236607D01*
X146205Y-235464D01*
Y-229751D01*
X152223D02*
X148414Y-235083D01*
X154127D01*
X152223Y-229751D02*
Y-237749D01*
X-67568Y310591D02*
X-64140D01*
X-62997Y310972D01*
X-62617Y311352D01*
X-62236Y312114D01*
Y313257D01*
X-62617Y314018D01*
X-62997Y314399D01*
X-64140Y314780D01*
X-67568D01*
Y306782D01*
X-60446Y313257D02*
X-59684Y313638D01*
X-58541Y314780D01*
Y306782D01*
X379991Y-245721D02*
Y-251434D01*
X380372Y-252577D01*
X381134Y-253338D01*
X382276Y-253719D01*
X383038D01*
X384181Y-253338D01*
X384943Y-252577D01*
X385323Y-251434D01*
Y-245721D01*
X387533Y-247244D02*
X388294Y-246863D01*
X389437Y-245721D01*
Y-253719D01*
X408563Y41499D02*
Y35786D01*
X408944Y34643D01*
X409706Y33882D01*
X410849Y33501D01*
X411610D01*
X412753Y33882D01*
X413515Y34643D01*
X413895Y35786D01*
Y41499D01*
X416485Y39595D02*
Y39976D01*
X416866Y40737D01*
X417247Y41118D01*
X418009Y41499D01*
X419532D01*
X420294Y41118D01*
X420675Y40737D01*
X421056Y39976D01*
Y39214D01*
X420675Y38452D01*
X419913Y37310D01*
X416105Y33501D01*
X421437D01*
X268563Y41499D02*
Y35786D01*
X268944Y34643D01*
X269706Y33882D01*
X270849Y33501D01*
X271610D01*
X272753Y33882D01*
X273515Y34643D01*
X273895Y35786D01*
Y41499D01*
X276866D02*
X281056D01*
X278771Y38452D01*
X279913D01*
X280675Y38071D01*
X281056Y37690D01*
X281437Y36548D01*
Y35786D01*
X281056Y34643D01*
X280294Y33882D01*
X279151Y33501D01*
X278009D01*
X276866Y33882D01*
X276485Y34263D01*
X276105Y35024D01*
X396876Y-162405D02*
X396496Y-161644D01*
X395734Y-160882D01*
X394972Y-160501D01*
X393449D01*
X392687Y-160882D01*
X391925Y-161644D01*
X391544Y-162405D01*
X391163Y-163548D01*
Y-165452D01*
X391544Y-166595D01*
X391925Y-167356D01*
X392687Y-168118D01*
X393449Y-168499D01*
X394972D01*
X395734Y-168118D01*
X396496Y-167356D01*
X396876Y-166595D01*
X402932Y-160501D02*
X399124Y-165833D01*
X404837D01*
X402932Y-160501D02*
Y-168499D01*
X244257Y-96050D02*
X243876Y-95288D01*
X243115Y-94526D01*
X242353Y-94145D01*
X240830D01*
X240068Y-94526D01*
X239306Y-95288D01*
X238925Y-96050D01*
X238544Y-97192D01*
Y-99097D01*
X238925Y-100239D01*
X239306Y-101001D01*
X240068Y-101763D01*
X240830Y-102143D01*
X242353D01*
X243115Y-101763D01*
X243876Y-101001D01*
X244257Y-100239D01*
X251456Y-96811D02*
X251075Y-97954D01*
X250313Y-98716D01*
X249171Y-99097D01*
X248790D01*
X247647Y-98716D01*
X246885Y-97954D01*
X246504Y-96811D01*
Y-96430D01*
X246885Y-95288D01*
X247647Y-94526D01*
X248790Y-94145D01*
X249171D01*
X250313Y-94526D01*
X251075Y-95288D01*
X251456Y-96811D01*
Y-98716D01*
X251075Y-100620D01*
X250313Y-101763D01*
X249171Y-102143D01*
X248409D01*
X247266Y-101763D01*
X246885Y-101001D01*
X397405Y-107433D02*
X396643Y-107814D01*
X395882Y-108576D01*
X395501Y-109338D01*
Y-110861D01*
X395882Y-111623D01*
X396643Y-112384D01*
X397405Y-112765D01*
X398548Y-113146D01*
X400452D01*
X401595Y-112765D01*
X402356Y-112384D01*
X403118Y-111623D01*
X403499Y-110861D01*
Y-109338D01*
X403118Y-108576D01*
X402356Y-107814D01*
X401595Y-107433D01*
X395501Y-100616D02*
Y-104424D01*
X398929Y-104805D01*
X398548Y-104424D01*
X398167Y-103282D01*
Y-102139D01*
X398548Y-100996D01*
X399310Y-100235D01*
X400452Y-99854D01*
X401214D01*
X402356Y-100235D01*
X403118Y-100996D01*
X403499Y-102139D01*
Y-103282D01*
X403118Y-104424D01*
X402737Y-104805D01*
X401976Y-105186D01*
X234737Y-205637D02*
X233976Y-206018D01*
X233214Y-206780D01*
X232833Y-207542D01*
Y-209065D01*
X233214Y-209827D01*
X233976Y-210588D01*
X234737Y-210969D01*
X235880Y-211350D01*
X237784D01*
X238927Y-210969D01*
X239689Y-210588D01*
X240450Y-209827D01*
X240831Y-209065D01*
Y-207542D01*
X240450Y-206780D01*
X239689Y-206018D01*
X238927Y-205637D01*
X234356Y-203390D02*
X233976Y-202628D01*
X232833Y-201486D01*
X240831D01*
X179817Y-260405D02*
X179436Y-259643D01*
X178674Y-258882D01*
X177913Y-258501D01*
X176389D01*
X175627Y-258882D01*
X174866Y-259643D01*
X174485Y-260405D01*
X174104Y-261548D01*
Y-263452D01*
X174485Y-264595D01*
X174866Y-265357D01*
X175627Y-266118D01*
X176389Y-266499D01*
X177913D01*
X178674Y-266118D01*
X179436Y-265357D01*
X179817Y-264595D01*
X182445Y-260405D02*
Y-260024D01*
X182826Y-259263D01*
X183207Y-258882D01*
X183968Y-258501D01*
X185492D01*
X186254Y-258882D01*
X186635Y-259263D01*
X187015Y-260024D01*
Y-260786D01*
X186635Y-261548D01*
X185873Y-262691D01*
X182064Y-266499D01*
X187396D01*
X235067Y-247655D02*
X234686Y-246894D01*
X233924Y-246132D01*
X233162Y-245751D01*
X231639D01*
X230877Y-246132D01*
X230116Y-246894D01*
X229735Y-247655D01*
X229354Y-248798D01*
Y-250702D01*
X229735Y-251845D01*
X230116Y-252607D01*
X230877Y-253368D01*
X231639Y-253749D01*
X233162D01*
X233924Y-253368D01*
X234686Y-252607D01*
X235067Y-251845D01*
X238076Y-245751D02*
X242265D01*
X239980Y-248798D01*
X241123D01*
X241884Y-249179D01*
X242265Y-249560D01*
X242646Y-250702D01*
Y-251464D01*
X242265Y-252607D01*
X241504Y-253368D01*
X240361Y-253749D01*
X239218D01*
X238076Y-253368D01*
X237695Y-252987D01*
X237314Y-252226D01*
X163155Y-177806D02*
X162393Y-178187D01*
X161632Y-178949D01*
X161251Y-179711D01*
Y-181234D01*
X161632Y-181996D01*
X162393Y-182758D01*
X163155Y-183139D01*
X164298Y-183519D01*
X166202D01*
X167345Y-183139D01*
X168106Y-182758D01*
X168868Y-181996D01*
X169249Y-181234D01*
Y-179711D01*
X168868Y-178949D01*
X168106Y-178187D01*
X167345Y-177806D01*
X162774Y-175559D02*
X162393Y-174797D01*
X161251Y-173655D01*
X169249D01*
X161251Y-165885D02*
X166583Y-169694D01*
Y-163981D01*
X161251Y-165885D02*
X169249D01*
X67235Y-167843D02*
X66473Y-168224D01*
X65712Y-168986D01*
X65331Y-169748D01*
Y-171271D01*
X65712Y-172033D01*
X66473Y-172794D01*
X67235Y-173175D01*
X68378Y-173556D01*
X70282D01*
X71425Y-173175D01*
X72186Y-172794D01*
X72948Y-172033D01*
X73329Y-171271D01*
Y-169748D01*
X72948Y-168986D01*
X72186Y-168224D01*
X71425Y-167843D01*
X65331Y-163692D02*
X65712Y-164834D01*
X66473Y-165215D01*
X67235D01*
X67997Y-164834D01*
X68378Y-164072D01*
X68759Y-162549D01*
X69140Y-161406D01*
X69901Y-160645D01*
X70663Y-160264D01*
X71806D01*
X72567Y-160645D01*
X72948Y-161026D01*
X73329Y-162168D01*
Y-163692D01*
X72948Y-164834D01*
X72567Y-165215D01*
X71806Y-165596D01*
X70663D01*
X69901Y-165215D01*
X69140Y-164453D01*
X68759Y-163311D01*
X68378Y-161787D01*
X67997Y-161026D01*
X67235Y-160645D01*
X66473D01*
X65712Y-161026D01*
X65331Y-162168D01*
Y-163692D01*
X46184Y-257705D02*
Y-263799D01*
X45803Y-264941D01*
X45422Y-265322D01*
X44660Y-265703D01*
X43899D01*
X43137Y-265322D01*
X42756Y-264941D01*
X42375Y-263799D01*
Y-263037D01*
X48241Y-259228D02*
X49002Y-258847D01*
X50145Y-257705D01*
Y-265703D01*
D12*
X29750Y-220500D02*
X37250D01*
X423120Y20240D02*
Y27740D01*
X283720Y21240D02*
Y28740D01*
M02*
