G04*
G04 #@! TF.GenerationSoftware,Altium Limited,Altium Designer,25.5.2 (35)*
G04*
G04 Layer_Color=16711935*
%FSLAX44Y44*%
%MOMM*%
G71*
G04*
G04 #@! TF.SameCoordinates,24B21415-5C40-4A56-A289-731DE7267D3C*
G04*
G04*
G04 #@! TF.FilePolarity,Positive*
G04*
G01*
G75*
%ADD62C,0.0500*%
%ADD63C,0.1000*%
G36*
X417270Y26740D02*
Y8240D01*
X411270D01*
Y26740D01*
X417270D01*
D02*
G37*
G36*
X192250Y-111750D02*
X181750D01*
Y-100250D01*
X192250D01*
Y-111750D01*
D02*
G37*
G36*
X41250Y-229750D02*
X30750D01*
Y-223250D01*
X41250D01*
Y-229750D01*
D02*
G37*
G36*
X277320Y8740D02*
X271820D01*
Y27740D01*
X277320D01*
Y8740D01*
D02*
G37*
G36*
X382214Y-221828D02*
Y-227228D01*
X362214D01*
Y-221828D01*
X382214D01*
D02*
G37*
G36*
X-6396Y-131854D02*
X-22250D01*
Y-108000D01*
X-6396D01*
Y-131854D01*
D02*
G37*
G36*
Y-11853D02*
X-22250D01*
Y12000D01*
X-6396D01*
Y-11853D01*
D02*
G37*
G36*
X153594Y-222198D02*
X136594D01*
Y-218698D01*
X153594D01*
Y-222198D01*
D02*
G37*
G36*
X-6396Y-51854D02*
X-22250D01*
Y-28000D01*
X-6396D01*
Y-51854D01*
D02*
G37*
G36*
X216750Y-222750D02*
Y-229250D01*
X206250D01*
Y-222750D01*
X216750D01*
D02*
G37*
G36*
X-6396Y-91854D02*
X-22250D01*
Y-68000D01*
X-6396D01*
Y-91854D01*
D02*
G37*
%LPC*%
G36*
X414756Y17918D02*
X414416D01*
X414454Y17819D01*
X414500Y17725D01*
X414523Y17684D01*
X414546Y17644D01*
X414568Y17606D01*
X414591Y17572D01*
X414614Y17542D01*
X414632Y17514D01*
X414652Y17491D01*
X414668Y17471D01*
X414680Y17456D01*
X414690Y17445D01*
X414696Y17438D01*
X414698Y17435D01*
X413288D01*
Y17918D01*
D01*
Y17062D01*
X415252D01*
Y17367D01*
X415219Y17379D01*
X415186Y17395D01*
X415127Y17430D01*
X415074Y17468D01*
X415026Y17509D01*
X414990Y17545D01*
X414972Y17560D01*
X414960Y17575D01*
X414949Y17588D01*
X414942Y17595D01*
X414939Y17601D01*
X414937Y17603D01*
X414891Y17666D01*
X414853Y17725D01*
X414820Y17778D01*
X414797Y17824D01*
X414779Y17862D01*
X414772Y17880D01*
X414767Y17893D01*
X414762Y17903D01*
X414759Y17910D01*
X414756Y17915D01*
Y17918D01*
D02*
G37*
G36*
X189604Y-104495D02*
X184396D01*
D01*
X188425D01*
X188377Y-104502D01*
X188349D01*
X188335D01*
X188300Y-104509D01*
X188272Y-104523D01*
X188259Y-104530D01*
X188252Y-104537D01*
X188238Y-104558D01*
X188231Y-104586D01*
Y-104613D01*
X188245Y-104655D01*
X188265Y-104696D01*
X188279Y-104724D01*
X188286Y-104738D01*
X188883Y-105737D01*
X184951D01*
Y-104634D01*
X184944Y-104620D01*
X184937Y-104606D01*
X184930Y-104599D01*
X184895Y-104565D01*
X184882Y-104558D01*
X184875Y-104551D01*
X184847Y-104544D01*
X184819Y-104530D01*
X184792Y-104523D01*
X184785D01*
X184743Y-104516D01*
X184708D01*
X184681D01*
X184667D01*
X184611D01*
X184570Y-104523D01*
X184542D01*
X184535D01*
X184500Y-104537D01*
X184473Y-104544D01*
X184459Y-104558D01*
X184452D01*
X184424Y-104586D01*
X184410Y-104599D01*
X184396Y-104641D01*
Y-107505D01*
D01*
Y-107359D01*
X184403Y-107394D01*
X184410Y-107408D01*
X184438Y-107442D01*
X184445Y-107456D01*
X184452D01*
X184507Y-107484D01*
X184528Y-107491D01*
X184535D01*
X184576Y-107498D01*
X184625Y-107505D01*
X184715D01*
X184750Y-107498D01*
X184778Y-107491D01*
X184785D01*
X184819Y-107484D01*
X184854Y-107477D01*
X184868Y-107470D01*
X184875Y-107463D01*
X184916Y-107429D01*
X184923Y-107422D01*
X184930Y-107415D01*
X184944Y-107394D01*
X184951Y-107380D01*
Y-106423D01*
X189486D01*
X189521Y-106416D01*
X189534Y-106409D01*
X189548Y-106395D01*
X189562Y-106381D01*
X189569Y-106368D01*
Y-106361D01*
X189576Y-106333D01*
X189583Y-106298D01*
X189590Y-106271D01*
Y-106257D01*
X189597Y-106208D01*
X189604Y-106153D01*
Y-106014D01*
X189597Y-105986D01*
Y-105917D01*
X189590Y-105903D01*
Y-105896D01*
X189576Y-105854D01*
X189569Y-105841D01*
Y-105834D01*
X189562Y-105806D01*
X189555Y-105799D01*
X188792Y-104606D01*
X188758Y-104565D01*
X188744Y-104558D01*
X188737Y-104551D01*
X188702Y-104523D01*
X188689Y-104516D01*
X188682D01*
X188661Y-104509D01*
X188633Y-104502D01*
X188612Y-104495D01*
X189604D01*
Y-105841D01*
Y-104495D01*
D02*
G37*
G36*
X36428Y-225518D02*
X36123D01*
X36110Y-225551D01*
X36095Y-225584D01*
X36060Y-225643D01*
X36022Y-225696D01*
X35981Y-225744D01*
X35945Y-225780D01*
X35930Y-225798D01*
X35915Y-225810D01*
X35902Y-225821D01*
X35895Y-225828D01*
X35889Y-225831D01*
X35887Y-225833D01*
X35824Y-225879D01*
X35765Y-225917D01*
X35712Y-225950D01*
X35666Y-225973D01*
X35628Y-225991D01*
X35610Y-225998D01*
X35597Y-226003D01*
X35587Y-226008D01*
X35580Y-226011D01*
X35575Y-226014D01*
X35572D01*
Y-226354D01*
X35671Y-226316D01*
X35765Y-226270D01*
X35806Y-226247D01*
X35846Y-226224D01*
X35884Y-226201D01*
X35917Y-226179D01*
X35948Y-226156D01*
X35976Y-226138D01*
X35999Y-226118D01*
X36019Y-226103D01*
X36034Y-226090D01*
X36044Y-226080D01*
X36052Y-226075D01*
X36055Y-226072D01*
Y-227482D01*
X36428D01*
Y-225518D01*
D02*
G37*
G36*
X275056Y18668D02*
X274716D01*
X274754Y18569D01*
X274800Y18475D01*
X274823Y18434D01*
X274846Y18394D01*
X274869Y18356D01*
X274891Y18323D01*
X274914Y18292D01*
X274932Y18264D01*
X274952Y18241D01*
X274967Y18221D01*
X274980Y18206D01*
X274990Y18196D01*
X274995Y18188D01*
X274998Y18185D01*
X273588D01*
Y18668D01*
D01*
Y17812D01*
X275552D01*
Y18117D01*
X275519Y18130D01*
X275486Y18145D01*
X275427Y18180D01*
X275374Y18218D01*
X275326Y18259D01*
X275290Y18295D01*
X275272Y18310D01*
X275260Y18325D01*
X275250Y18338D01*
X275242Y18346D01*
X275239Y18350D01*
X275237Y18353D01*
X275191Y18417D01*
X275153Y18475D01*
X275120Y18528D01*
X275097Y18574D01*
X275079Y18612D01*
X275072Y18630D01*
X275067Y18643D01*
X275061Y18653D01*
X275059Y18660D01*
X275056Y18665D01*
Y18668D01*
D02*
G37*
G36*
X372642Y-223546D02*
Y-224674D01*
D01*
Y-223546D01*
D02*
G37*
G36*
D02*
X371786D01*
Y-225509D01*
X372091D01*
X372104Y-225476D01*
X372119Y-225443D01*
X372154Y-225385D01*
X372192Y-225332D01*
X372233Y-225284D01*
X372269Y-225248D01*
X372284Y-225230D01*
X372299Y-225217D01*
X372312Y-225207D01*
X372319Y-225200D01*
X372324Y-225197D01*
X372327Y-225195D01*
X372391Y-225149D01*
X372449Y-225111D01*
X372502Y-225078D01*
X372548Y-225055D01*
X372586Y-225037D01*
X372604Y-225030D01*
X372617Y-225024D01*
X372627Y-225019D01*
X372634Y-225017D01*
X372640Y-225014D01*
X372642D01*
Y-225030D01*
Y-225014D01*
Y-224674D01*
X372543Y-224712D01*
X372449Y-224758D01*
X372408Y-224781D01*
X372368Y-224803D01*
X372330Y-224826D01*
X372297Y-224849D01*
X372266Y-224872D01*
X372238Y-224890D01*
X372215Y-224910D01*
X372195Y-224925D01*
X372180Y-224938D01*
X372170Y-224948D01*
X372162Y-224953D01*
X372159Y-224956D01*
Y-223546D01*
X372642D01*
D02*
G37*
G36*
X-11716Y-114712D02*
X-11980D01*
X-12090Y-114726D01*
X-12160Y-114740D01*
X-12188D01*
X-12271Y-114754D01*
X-12340Y-114768D01*
X-12395Y-114782D01*
X-12409D01*
X-12465Y-114809D01*
X-12520Y-114837D01*
X-12548Y-114851D01*
X-12562Y-114865D01*
X-12631Y-114934D01*
X-12659Y-114962D01*
X-12673Y-114976D01*
X-16320Y-119566D01*
Y-114976D01*
Y-114934D01*
X-16334Y-114893D01*
X-16348Y-114879D01*
X-16362Y-114865D01*
X-16390Y-114823D01*
X-16431Y-114796D01*
X-16459Y-114782D01*
X-16473D01*
X-16542Y-114768D01*
X-16611Y-114754D01*
X-16667Y-114740D01*
X-16695D01*
X-16792Y-114726D01*
X-16903Y-114712D01*
X-17152D01*
X-17249Y-114726D01*
X-17319Y-114740D01*
X-17347D01*
X-17430Y-114754D01*
X-17499Y-114768D01*
X-17541Y-114782D01*
X-17555D01*
X-17610Y-114809D01*
X-17638Y-114837D01*
X-17665Y-114851D01*
Y-114865D01*
X-17693Y-114934D01*
Y-124892D01*
X-17679Y-124961D01*
X-17665Y-124989D01*
Y-125003D01*
X-17638Y-125044D01*
X-17596Y-125058D01*
X-17568Y-125086D01*
X-17555D01*
X-17485Y-125100D01*
X-17416D01*
X-17360Y-125114D01*
X-17347D01*
X-17236Y-125127D01*
X-17125Y-125141D01*
X-16875D01*
X-16778Y-125127D01*
X-16723Y-125114D01*
X-16695D01*
X-16598Y-125100D01*
X-16528D01*
X-16487Y-125086D01*
X-16473D01*
X-16417Y-125058D01*
X-16390Y-125030D01*
X-16362Y-125016D01*
Y-125003D01*
X-16334Y-124961D01*
X-16320Y-124919D01*
Y-124906D01*
Y-124892D01*
Y-119733D01*
X-12520Y-124892D01*
X-12479Y-124947D01*
X-12423Y-125003D01*
X-12395Y-125030D01*
X-12382Y-125044D01*
X-12299Y-125072D01*
X-12215Y-125100D01*
X-12146Y-125114D01*
X-12118D01*
X-11966Y-125127D01*
X-11827Y-125141D01*
X-11508D01*
X-11397Y-125127D01*
X-11342Y-125114D01*
X-11314D01*
X-11217Y-125100D01*
X-11147Y-125086D01*
X-11106Y-125072D01*
X-11092D01*
X-11036Y-125044D01*
X-11009Y-125030D01*
X-10981Y-125003D01*
X-10953Y-124919D01*
Y-124878D01*
X-10967Y-124795D01*
X-10981Y-124767D01*
Y-124753D01*
X-11023Y-124684D01*
X-11078Y-124587D01*
X-11120Y-124503D01*
X-11147Y-124489D01*
Y-124476D01*
X-14836Y-119566D01*
X-11411Y-115475D01*
X-11328Y-115350D01*
X-11258Y-115253D01*
X-11231Y-115198D01*
X-11217Y-115184D01*
X-11189Y-115101D01*
X-11161Y-115031D01*
Y-114990D01*
Y-114976D01*
X-11175Y-114906D01*
X-11189Y-114879D01*
X-11217Y-114837D01*
X-11258Y-114809D01*
X-11286Y-114796D01*
X-11300D01*
X-11355Y-114768D01*
X-11425Y-114754D01*
X-11480Y-114740D01*
X-11508D01*
X-11619Y-114726D01*
X-11716Y-114712D01*
D02*
G37*
G36*
Y5288D02*
X-11980D01*
X-12090Y5274D01*
X-12160Y5260D01*
X-12188D01*
X-12271Y5246D01*
X-12340Y5232D01*
X-12395Y5218D01*
X-12409D01*
X-12465Y5191D01*
X-12520Y5163D01*
X-12548Y5149D01*
X-12562Y5135D01*
X-12631Y5066D01*
X-12659Y5038D01*
X-12673Y5024D01*
X-16320Y434D01*
Y5024D01*
Y5066D01*
X-16334Y5107D01*
X-16348Y5121D01*
X-16362Y5135D01*
X-16390Y5177D01*
X-16431Y5204D01*
X-16459Y5218D01*
X-16473D01*
X-16542Y5232D01*
X-16611Y5246D01*
X-16667Y5260D01*
X-16695D01*
X-16792Y5274D01*
X-16903Y5288D01*
X-17152D01*
X-17249Y5274D01*
X-17319Y5260D01*
X-17347D01*
X-17430Y5246D01*
X-17499Y5232D01*
X-17541Y5218D01*
X-17555D01*
X-17610Y5191D01*
X-17638Y5163D01*
X-17665Y5149D01*
Y5135D01*
X-17693Y5066D01*
Y-4892D01*
X-17679Y-4961D01*
X-17665Y-4989D01*
Y-5003D01*
X-17638Y-5044D01*
X-17596Y-5058D01*
X-17568Y-5086D01*
X-17555D01*
X-17485Y-5100D01*
X-17416D01*
X-17360Y-5114D01*
X-17347D01*
X-17236Y-5127D01*
X-17125Y-5141D01*
X-16875D01*
X-16778Y-5127D01*
X-16723Y-5114D01*
X-16695D01*
X-16598Y-5100D01*
X-16528D01*
X-16487Y-5086D01*
X-16473D01*
X-16417Y-5058D01*
X-16390Y-5030D01*
X-16362Y-5016D01*
Y-5003D01*
X-16334Y-4961D01*
X-16320Y-4919D01*
Y-4906D01*
Y-4892D01*
Y267D01*
X-12520Y-4892D01*
X-12479Y-4947D01*
X-12423Y-5003D01*
X-12395Y-5030D01*
X-12382Y-5044D01*
X-12299Y-5072D01*
X-12215Y-5100D01*
X-12146Y-5114D01*
X-12118D01*
X-11966Y-5127D01*
X-11827Y-5141D01*
X-11508D01*
X-11397Y-5127D01*
X-11342Y-5114D01*
X-11314D01*
X-11217Y-5100D01*
X-11147Y-5086D01*
X-11106Y-5072D01*
X-11092D01*
X-11036Y-5044D01*
X-11009Y-5030D01*
X-10981Y-5003D01*
X-10953Y-4919D01*
Y-4878D01*
X-10967Y-4795D01*
X-10981Y-4767D01*
Y-4753D01*
X-11023Y-4684D01*
X-11078Y-4587D01*
X-11120Y-4503D01*
X-11147Y-4489D01*
Y-4476D01*
X-14836Y434D01*
X-11411Y4525D01*
X-11328Y4650D01*
X-11258Y4747D01*
X-11231Y4802D01*
X-11217Y4816D01*
X-11189Y4899D01*
X-11161Y4969D01*
Y5010D01*
Y5024D01*
X-11175Y5094D01*
X-11189Y5121D01*
X-11217Y5163D01*
X-11258Y5191D01*
X-11286Y5204D01*
X-11300D01*
X-11355Y5232D01*
X-11425Y5246D01*
X-11480Y5260D01*
X-11508D01*
X-11619Y5274D01*
X-11716Y5288D01*
D02*
G37*
G36*
X145522Y-219466D02*
Y-220594D01*
D01*
Y-219466D01*
D02*
G37*
G36*
D02*
X144666D01*
Y-221430D01*
X144971D01*
X144984Y-221397D01*
X144999Y-221364D01*
X145034Y-221305D01*
X145072Y-221252D01*
X145113Y-221204D01*
X145149Y-221168D01*
X145164Y-221150D01*
X145179Y-221138D01*
X145192Y-221127D01*
X145199Y-221120D01*
X145205Y-221117D01*
X145207Y-221115D01*
X145271Y-221069D01*
X145329Y-221031D01*
X145382Y-220998D01*
X145428Y-220975D01*
X145466Y-220957D01*
X145484Y-220950D01*
X145497Y-220945D01*
X145507Y-220940D01*
X145514Y-220937D01*
X145520Y-220934D01*
X145522D01*
Y-220950D01*
Y-220934D01*
Y-220594D01*
X145423Y-220632D01*
X145329Y-220678D01*
X145288Y-220701D01*
X145248Y-220724D01*
X145210Y-220746D01*
X145177Y-220769D01*
X145146Y-220792D01*
X145118Y-220810D01*
X145095Y-220830D01*
X145075Y-220846D01*
X145060Y-220858D01*
X145050Y-220868D01*
X145042Y-220873D01*
X145040Y-220876D01*
Y-219466D01*
X145522D01*
D02*
G37*
G36*
X-11716Y-34712D02*
X-11980D01*
X-12090Y-34726D01*
X-12160Y-34740D01*
X-12188D01*
X-12271Y-34754D01*
X-12340Y-34768D01*
X-12395Y-34782D01*
X-12409D01*
X-12465Y-34809D01*
X-12520Y-34837D01*
X-12548Y-34851D01*
X-12562Y-34865D01*
X-12631Y-34934D01*
X-12659Y-34962D01*
X-12673Y-34976D01*
X-16320Y-39566D01*
Y-34976D01*
Y-34934D01*
X-16334Y-34893D01*
X-16348Y-34879D01*
X-16362Y-34865D01*
X-16390Y-34823D01*
X-16431Y-34795D01*
X-16459Y-34782D01*
X-16473D01*
X-16542Y-34768D01*
X-16611Y-34754D01*
X-16667Y-34740D01*
X-16695D01*
X-16792Y-34726D01*
X-16903Y-34712D01*
X-17152D01*
X-17249Y-34726D01*
X-17319Y-34740D01*
X-17347D01*
X-17430Y-34754D01*
X-17499Y-34768D01*
X-17541Y-34782D01*
X-17555D01*
X-17610Y-34809D01*
X-17638Y-34837D01*
X-17665Y-34851D01*
Y-34865D01*
X-17693Y-34934D01*
Y-44892D01*
X-17679Y-44961D01*
X-17665Y-44989D01*
Y-45003D01*
X-17638Y-45044D01*
X-17596Y-45058D01*
X-17568Y-45086D01*
X-17555D01*
X-17485Y-45100D01*
X-17416D01*
X-17360Y-45114D01*
X-17347D01*
X-17236Y-45127D01*
X-17125Y-45141D01*
X-16875D01*
X-16778Y-45127D01*
X-16723Y-45114D01*
X-16695D01*
X-16598Y-45100D01*
X-16528D01*
X-16487Y-45086D01*
X-16473D01*
X-16417Y-45058D01*
X-16390Y-45030D01*
X-16362Y-45016D01*
Y-45003D01*
X-16334Y-44961D01*
X-16320Y-44919D01*
Y-44906D01*
Y-44892D01*
Y-39733D01*
X-12520Y-44892D01*
X-12479Y-44947D01*
X-12423Y-45003D01*
X-12395Y-45030D01*
X-12382Y-45044D01*
X-12299Y-45072D01*
X-12215Y-45100D01*
X-12146Y-45114D01*
X-12118D01*
X-11966Y-45127D01*
X-11827Y-45141D01*
X-11508D01*
X-11397Y-45127D01*
X-11342Y-45114D01*
X-11314D01*
X-11217Y-45100D01*
X-11147Y-45086D01*
X-11106Y-45072D01*
X-11092D01*
X-11036Y-45044D01*
X-11009Y-45030D01*
X-10981Y-45003D01*
X-10953Y-44919D01*
Y-44878D01*
X-10967Y-44795D01*
X-10981Y-44767D01*
Y-44753D01*
X-11023Y-44684D01*
X-11078Y-44587D01*
X-11120Y-44503D01*
X-11147Y-44489D01*
Y-44476D01*
X-14836Y-39566D01*
X-11411Y-35475D01*
X-11328Y-35350D01*
X-11258Y-35253D01*
X-11231Y-35198D01*
X-11217Y-35184D01*
X-11189Y-35101D01*
X-11161Y-35031D01*
Y-34990D01*
Y-34976D01*
X-11175Y-34906D01*
X-11189Y-34879D01*
X-11217Y-34837D01*
X-11258Y-34809D01*
X-11286Y-34795D01*
X-11300D01*
X-11355Y-34768D01*
X-11425Y-34754D01*
X-11480Y-34740D01*
X-11508D01*
X-11619Y-34726D01*
X-11716Y-34712D01*
D02*
G37*
G36*
X211928Y-225018D02*
Y-226146D01*
X211829Y-226184D01*
X211735Y-226230D01*
X211694Y-226253D01*
X211654Y-226276D01*
X211616Y-226299D01*
X211583Y-226321D01*
X211552Y-226344D01*
X211524Y-226362D01*
X211501Y-226382D01*
X211481Y-226397D01*
X211466Y-226410D01*
X211456Y-226420D01*
X211448Y-226425D01*
X211445Y-226428D01*
Y-225018D01*
X211072D01*
Y-226982D01*
X211928D01*
Y-225018D01*
D02*
G37*
%LPD*%
G36*
Y-226982D02*
X211377D01*
X211390Y-226949D01*
X211405Y-226916D01*
X211440Y-226857D01*
X211478Y-226804D01*
X211519Y-226756D01*
X211555Y-226720D01*
X211570Y-226702D01*
X211585Y-226690D01*
X211598Y-226679D01*
X211605Y-226672D01*
X211611Y-226669D01*
X211613Y-226667D01*
X211677Y-226621D01*
X211735Y-226583D01*
X211788Y-226550D01*
X211834Y-226527D01*
X211872Y-226509D01*
X211890Y-226502D01*
X211903Y-226497D01*
X211913Y-226492D01*
X211920Y-226489D01*
X211926Y-226486D01*
X211928D01*
Y-226982D01*
D02*
G37*
%LPC*%
G36*
X-11716Y-74712D02*
X-11980D01*
X-12090Y-74726D01*
X-12160Y-74740D01*
X-12188D01*
X-12271Y-74754D01*
X-12340Y-74768D01*
X-12395Y-74782D01*
X-12409D01*
X-12465Y-74809D01*
X-12520Y-74837D01*
X-12548Y-74851D01*
X-12562Y-74865D01*
X-12631Y-74934D01*
X-12659Y-74962D01*
X-12673Y-74976D01*
X-16320Y-79566D01*
Y-74976D01*
Y-74934D01*
X-16334Y-74893D01*
X-16348Y-74879D01*
X-16362Y-74865D01*
X-16390Y-74823D01*
X-16431Y-74795D01*
X-16459Y-74782D01*
X-16473D01*
X-16542Y-74768D01*
X-16611Y-74754D01*
X-16667Y-74740D01*
X-16695D01*
X-16792Y-74726D01*
X-16903Y-74712D01*
X-17152D01*
X-17249Y-74726D01*
X-17319Y-74740D01*
X-17347D01*
X-17430Y-74754D01*
X-17499Y-74768D01*
X-17541Y-74782D01*
X-17555D01*
X-17610Y-74809D01*
X-17638Y-74837D01*
X-17665Y-74851D01*
Y-74865D01*
X-17693Y-74934D01*
Y-84892D01*
X-17679Y-84961D01*
X-17665Y-84989D01*
Y-85003D01*
X-17638Y-85044D01*
X-17596Y-85058D01*
X-17568Y-85086D01*
X-17555D01*
X-17485Y-85100D01*
X-17416D01*
X-17360Y-85114D01*
X-17347D01*
X-17236Y-85127D01*
X-17125Y-85141D01*
X-16875D01*
X-16778Y-85127D01*
X-16723Y-85114D01*
X-16695D01*
X-16598Y-85100D01*
X-16528D01*
X-16487Y-85086D01*
X-16473D01*
X-16417Y-85058D01*
X-16390Y-85030D01*
X-16362Y-85016D01*
Y-85003D01*
X-16334Y-84961D01*
X-16320Y-84919D01*
Y-84906D01*
Y-84892D01*
Y-79733D01*
X-12520Y-84892D01*
X-12479Y-84947D01*
X-12423Y-85003D01*
X-12395Y-85030D01*
X-12382Y-85044D01*
X-12299Y-85072D01*
X-12215Y-85100D01*
X-12146Y-85114D01*
X-12118D01*
X-11966Y-85127D01*
X-11827Y-85141D01*
X-11508D01*
X-11397Y-85127D01*
X-11342Y-85114D01*
X-11314D01*
X-11217Y-85100D01*
X-11147Y-85086D01*
X-11106Y-85072D01*
X-11092D01*
X-11036Y-85044D01*
X-11009Y-85030D01*
X-10981Y-85003D01*
X-10953Y-84919D01*
Y-84878D01*
X-10967Y-84795D01*
X-10981Y-84767D01*
Y-84753D01*
X-11023Y-84684D01*
X-11078Y-84587D01*
X-11120Y-84503D01*
X-11147Y-84489D01*
Y-84476D01*
X-14836Y-79566D01*
X-11411Y-75475D01*
X-11328Y-75350D01*
X-11258Y-75253D01*
X-11231Y-75198D01*
X-11217Y-75184D01*
X-11189Y-75101D01*
X-11161Y-75031D01*
Y-74990D01*
Y-74976D01*
X-11175Y-74906D01*
X-11189Y-74879D01*
X-11217Y-74837D01*
X-11258Y-74809D01*
X-11286Y-74795D01*
X-11300D01*
X-11355Y-74768D01*
X-11425Y-74754D01*
X-11480Y-74740D01*
X-11508D01*
X-11619Y-74726D01*
X-11716Y-74712D01*
D02*
G37*
%LPD*%
D62*
X481000Y164000D02*
G03*
X480750Y164250I-250J0D01*
G01*
X481000Y164000D02*
G03*
X480750Y164250I-250J0D01*
G01*
X468050Y-334750D02*
G03*
X481000Y-321800I0J12950D01*
G01*
X-66250Y164250D02*
G03*
X-66500Y164000I0J-250D01*
G01*
X-66250Y164250D02*
G03*
X-66500Y164000I0J-250D01*
G01*
Y-321800D02*
G03*
X-53550Y-334750I12950J0D01*
G01*
X448600Y-104950D02*
G03*
X448600Y-104950I-5350J0D01*
G01*
X451750D02*
G03*
X451750Y-104950I-8500J0D01*
G01*
X448600Y-79550D02*
G03*
X448600Y-79550I-5350J0D01*
G01*
X451750D02*
G03*
X451750Y-79550I-8500J0D01*
G01*
X448600Y-54150D02*
G03*
X448600Y-54150I-5350J0D01*
G01*
X451750D02*
G03*
X451750Y-54150I-8500J0D01*
G01*
X448600Y-28750D02*
G03*
X448600Y-28750I-5350J0D01*
G01*
X451750D02*
G03*
X451750Y-28750I-8500J0D01*
G01*
X448600Y-3350D02*
G03*
X448600Y-3350I-5350J0D01*
G01*
X451750D02*
G03*
X451750Y-3350I-8500J0D01*
G01*
X448756Y22050D02*
G03*
X448756Y22050I-5506J0D01*
G01*
X481000Y-321800D02*
Y164000D01*
X-53550Y-334750D02*
X468050D01*
X-66250Y164250D02*
X480750D01*
X-66500Y-321800D02*
Y164000D01*
X240020Y-276960D02*
X249520D01*
Y-300960D02*
Y-276960D01*
X230520Y-300960D02*
X249520D01*
X230520D02*
Y-276960D01*
X240020D01*
X219520Y-272960D02*
Y-272960D01*
Y-272960D02*
X244520D01*
Y-304960D02*
Y-272960D01*
X194520Y-304960D02*
X244520D01*
X194520D02*
Y-272960D01*
X219520D01*
X199020Y-276960D02*
X208520D01*
Y-300960D02*
Y-276960D01*
X189520Y-300960D02*
X208520D01*
X189520D02*
Y-276960D01*
X199020D01*
X94260Y-363670D02*
Y-268970D01*
X2760Y-363670D02*
X94260D01*
X2760D02*
Y-268970D01*
X-240Y-337070D02*
X97260D01*
X2760Y-268970D02*
X94260D01*
X75901Y-243098D02*
Y-234899D01*
X92102Y-243098D02*
Y-234899D01*
X75901Y-243098D02*
X92102D01*
X75901Y-234899D02*
X92102D01*
X87300Y-243950D02*
Y-234050D01*
X94500Y-243950D02*
Y-234050D01*
X87300D02*
X94500D01*
X87300Y-243950D02*
X94500D01*
X73500D02*
Y-234050D01*
X80700Y-243950D02*
Y-234050D01*
X73500D02*
X80700D01*
X73500Y-243950D02*
X80700D01*
X387500Y-188500D02*
X387500Y-199000D01*
X401500Y-199000D02*
X401500Y-188500D01*
X387500Y-199000D02*
X401500Y-199000D01*
X387500Y-188500D02*
X401500Y-188500D01*
X387500Y-218000D02*
X387500Y-207500D01*
X401500Y-207500D02*
X401500Y-218000D01*
X387500Y-218000D02*
X401500Y-218000D01*
X387500Y-207500D02*
X401500Y-207500D01*
X400851Y-213351D02*
X400851Y-193152D01*
X388152Y-193152D02*
X388152Y-213351D01*
X400851Y-213351D01*
X388152Y-193152D02*
X400851Y-193152D01*
X173001Y-250508D02*
X173001Y-237988D01*
X193001Y-237988D02*
X193001Y-250508D01*
X173001D02*
X193001D01*
X173001Y-237988D02*
X193001Y-237988D01*
X187250Y-251250D02*
Y-237250D01*
X197750Y-237250D02*
X197750Y-251250D01*
X187250Y-237250D02*
X197750Y-237250D01*
X187250Y-251250D02*
X197750Y-251250D01*
X168250Y-237250D02*
X168250Y-251250D01*
X178750Y-251250D02*
Y-237250D01*
X168250Y-237250D02*
X178750Y-237250D01*
X168250Y-251250D02*
X178750Y-251250D01*
X142750Y-281250D02*
Y-270750D01*
X156750Y-281250D02*
Y-270750D01*
X142750Y-281250D02*
X156750D01*
X142750Y-270750D02*
X156750D01*
X142750Y-300250D02*
Y-289750D01*
X156750Y-300250D02*
Y-289750D01*
X142750Y-300250D02*
X156750D01*
X142750Y-289750D02*
X156750D01*
X156101Y-295602D02*
Y-275402D01*
X143402Y-295602D02*
Y-275402D01*
Y-295602D02*
X156101D01*
X143402Y-275402D02*
X156101D01*
X132450Y-292850D02*
Y-285650D01*
X122550Y-271750D02*
X132450Y-271750D01*
X122550Y-278950D02*
X132450D01*
X123502Y-274251D02*
X131501D01*
X132450Y-271750D02*
X132450Y-278950D01*
X123502Y-290252D02*
X131501Y-290252D01*
X122550Y-278950D02*
X122550Y-271750D01*
X122550Y-285650D02*
X122550Y-292850D01*
X122550Y-285650D02*
X132450Y-285650D01*
X123502Y-290252D02*
X123502Y-274251D01*
X131501Y-290252D02*
X131501Y-274251D01*
X122550Y-292850D02*
X132450Y-292850D01*
X-14550Y-253200D02*
Y-243300D01*
X-19249Y-252259D02*
X-3249D01*
Y-244239D01*
X-7950Y-253200D02*
X-750D01*
X-21750D02*
X-14550D01*
X-7950Y-243300D02*
X-750D01*
Y-253200D02*
Y-243300D01*
X-21750Y-253200D02*
Y-243300D01*
X-19249Y-244239D02*
X-3249D01*
X-21750Y-243300D02*
X-14550D01*
X-19249Y-252259D02*
Y-244239D01*
X-7950Y-253200D02*
Y-243300D01*
X156450Y-138700D02*
Y-128800D01*
X151751Y-137759D02*
X167751D01*
Y-129739D01*
X163050Y-138700D02*
X170250D01*
X149250D02*
X156450D01*
X163050Y-128800D02*
X170250D01*
Y-138700D02*
Y-128800D01*
X149250Y-138700D02*
Y-128800D01*
X151751Y-129739D02*
X167751D01*
X149250Y-128800D02*
X156450D01*
X151751Y-137759D02*
Y-129739D01*
X163050Y-138700D02*
Y-128800D01*
X-32076Y-230408D02*
X-21576D01*
X-32076Y-216409D02*
X-21576D01*
Y-230408D02*
Y-216409D01*
X-32076Y-230408D02*
Y-216409D01*
X-13076Y-230408D02*
X-2576D01*
X-13076Y-216409D02*
X-2576D01*
Y-230408D02*
Y-216409D01*
X-13076Y-230408D02*
Y-216409D01*
X-27424Y-217057D02*
X-7225D01*
X-27424Y-229757D02*
X-7225D01*
Y-217057D01*
X-27424Y-229757D02*
Y-217057D01*
X36800Y-194550D02*
X46700D01*
X45759Y-199249D02*
Y-183249D01*
X37739D02*
X45759D01*
X46700Y-187950D02*
Y-180750D01*
Y-201750D02*
Y-194550D01*
X36800Y-187950D02*
Y-180750D01*
X46700D01*
X36800Y-201750D02*
X46700D01*
X37739Y-199249D02*
Y-183249D01*
X36800Y-201750D02*
Y-194550D01*
X37739Y-199249D02*
X45759D01*
X36800Y-187950D02*
X46700D01*
X50300Y-194550D02*
X60200D01*
X59259Y-199249D02*
Y-183249D01*
X51239D02*
X59259D01*
X60200Y-187950D02*
Y-180750D01*
Y-201750D02*
Y-194550D01*
X50300Y-187950D02*
Y-180750D01*
X60200D01*
X50300Y-201750D02*
X60200D01*
X51239Y-199249D02*
Y-183249D01*
X50300Y-201750D02*
Y-194550D01*
X51239Y-199249D02*
X59259D01*
X50300Y-187950D02*
X60200D01*
X195700Y-167200D02*
Y-157300D01*
X191001Y-166259D02*
X207001D01*
Y-158239D01*
X202300Y-167200D02*
X209500D01*
X188500D02*
X195700D01*
X202300Y-157300D02*
X209500D01*
Y-167200D02*
Y-157300D01*
X188500Y-167200D02*
Y-157300D01*
X191001Y-158239D02*
X207001D01*
X188500Y-157300D02*
X195700D01*
X191001Y-166259D02*
Y-158239D01*
X202300Y-167200D02*
Y-157300D01*
X101800Y-285550D02*
X111700D01*
X110759Y-290249D02*
Y-274249D01*
X102739D02*
X110759D01*
X111700Y-278950D02*
Y-271750D01*
Y-292750D02*
Y-285550D01*
X101800Y-278950D02*
Y-271750D01*
X111700D01*
X101800Y-292750D02*
X111700D01*
X102739Y-290249D02*
Y-274249D01*
X101800Y-292750D02*
Y-285550D01*
X102739Y-290249D02*
X110759D01*
X101800Y-278950D02*
X111700D01*
X-15950Y-285550D02*
X-6050D01*
X-6991Y-290249D02*
Y-274249D01*
X-15011D02*
X-6991D01*
X-6050Y-278950D02*
Y-271750D01*
Y-292750D02*
Y-285550D01*
X-15950Y-278950D02*
Y-271750D01*
X-6050D01*
X-15950Y-292750D02*
X-6050D01*
X-15011Y-290249D02*
Y-274249D01*
X-15950Y-292750D02*
Y-285550D01*
X-15011Y-290249D02*
X-6991D01*
X-15950Y-278950D02*
X-6050D01*
X163062Y-109700D02*
Y-99800D01*
X151761Y-100741D02*
X167761D01*
X151761Y-108761D02*
Y-100741D01*
X149262Y-99800D02*
X156462D01*
X163062D02*
X170262D01*
X149262Y-109700D02*
X156462D01*
X149262D02*
Y-99800D01*
X170262Y-109700D02*
Y-99800D01*
X151761Y-108761D02*
X167761D01*
X163062Y-109700D02*
X170262D01*
X167761Y-108761D02*
Y-100741D01*
X156462Y-109700D02*
Y-99800D01*
X163050Y-152700D02*
Y-142800D01*
X151749Y-143741D02*
X167749D01*
X151749Y-151761D02*
Y-143741D01*
X149250Y-142800D02*
X156450D01*
X163050D02*
X170250D01*
X149250Y-152700D02*
X156450D01*
X149250D02*
Y-142800D01*
X170250Y-152700D02*
Y-142800D01*
X151749Y-151761D02*
X167749D01*
X163050Y-152700D02*
X170250D01*
X167749Y-151761D02*
Y-143741D01*
X156450Y-152700D02*
Y-142800D01*
X-29700Y-176550D02*
X-19800D01*
X-20741Y-181249D02*
Y-165249D01*
X-28761D02*
X-20741D01*
X-19800Y-169950D02*
Y-162750D01*
Y-183750D02*
Y-176550D01*
X-29700Y-169950D02*
Y-162750D01*
X-19800D01*
X-29700Y-183750D02*
X-19800D01*
X-28761Y-181249D02*
Y-165249D01*
X-29700Y-183750D02*
Y-176550D01*
X-28761Y-181249D02*
X-20741D01*
X-29700Y-169950D02*
X-19800D01*
X-15200Y-176550D02*
X-5300D01*
X-6241Y-181249D02*
Y-165249D01*
X-14261D02*
X-6241D01*
X-5300Y-169950D02*
Y-162750D01*
Y-183750D02*
Y-176550D01*
X-15200Y-169950D02*
Y-162750D01*
X-5300D01*
X-15200Y-183750D02*
X-5300D01*
X-14261Y-181249D02*
Y-165249D01*
X-15200Y-183750D02*
Y-176550D01*
X-14261Y-181249D02*
X-6241D01*
X-15200Y-169950D02*
X-5300D01*
X202300Y-196450D02*
Y-186550D01*
X190999Y-187491D02*
X206999D01*
X190999Y-195511D02*
Y-187491D01*
X188500Y-186550D02*
X195700D01*
X202300D02*
X209500D01*
X188500Y-196450D02*
X195700D01*
X188500D02*
Y-186550D01*
X209500Y-196450D02*
Y-186550D01*
X190999Y-195511D02*
X206999D01*
X202300Y-196450D02*
X209500D01*
X206999Y-195511D02*
Y-187491D01*
X195700Y-196450D02*
Y-186550D01*
X107099Y-151851D02*
Y-143652D01*
X90898Y-151851D02*
Y-143652D01*
X107099D01*
X90898Y-151851D02*
X107099D01*
X95700Y-152700D02*
Y-142800D01*
X88500Y-152700D02*
Y-142800D01*
Y-152700D02*
X95700D01*
X88500Y-142800D02*
X95700D01*
X109500Y-152700D02*
Y-142800D01*
X102300Y-152700D02*
Y-142800D01*
Y-152700D02*
X109500D01*
X102300Y-142800D02*
X109500D01*
X160899Y-206849D02*
X169098D01*
X160899Y-190648D02*
X169098D01*
Y-206849D02*
Y-190648D01*
X160899Y-206849D02*
Y-190648D01*
X160050Y-195450D02*
X169950D01*
X160050Y-188250D02*
X169950D01*
X160050Y-195450D02*
Y-188250D01*
X169950Y-195450D02*
Y-188250D01*
X160050Y-209250D02*
X169950D01*
X160050Y-202050D02*
X169950D01*
X160050Y-209250D02*
Y-202050D01*
X169950Y-209250D02*
Y-202050D01*
X167849Y-123351D02*
Y-115152D01*
X151648Y-123351D02*
Y-115152D01*
X167849D01*
X151648Y-123351D02*
X167849D01*
X156450Y-124200D02*
Y-114300D01*
X149250Y-124200D02*
Y-114300D01*
Y-124200D02*
X156450D01*
X149250Y-114300D02*
X156450D01*
X170250Y-124200D02*
Y-114300D01*
X163050Y-124200D02*
Y-114300D01*
Y-124200D02*
X170250D01*
X163050Y-114300D02*
X170250D01*
X275049Y-101941D02*
Y-93742D01*
X258848Y-101941D02*
Y-93742D01*
X275049D01*
X258848Y-101941D02*
X275049D01*
X263650Y-102790D02*
Y-92890D01*
X256450Y-102790D02*
Y-92890D01*
Y-102790D02*
X263650D01*
X256450Y-92890D02*
X263650D01*
X277450Y-102790D02*
Y-92890D01*
X270250Y-102790D02*
Y-92890D01*
Y-102790D02*
X277450D01*
X270250Y-92890D02*
X277450D01*
X65152Y-183151D02*
X73351D01*
X65152Y-199352D02*
X73351D01*
X65152D02*
Y-183151D01*
X73351Y-199352D02*
Y-183151D01*
X64300Y-194550D02*
X74200D01*
X64300Y-201750D02*
X74200D01*
Y-194550D01*
X64300Y-201750D02*
Y-194550D01*
Y-180750D02*
X74200D01*
X64300Y-187950D02*
X74200D01*
Y-180750D01*
X64300Y-187950D02*
Y-180750D01*
X76151Y-263848D02*
Y-255649D01*
X92352Y-263848D02*
Y-255649D01*
X76151Y-263848D02*
X92352D01*
X76151Y-255649D02*
X92352D01*
X87550Y-264700D02*
Y-254800D01*
X94750Y-264700D02*
Y-254800D01*
X87550D02*
X94750D01*
X87550Y-264700D02*
X94750D01*
X73750D02*
Y-254800D01*
X80950Y-264700D02*
Y-254800D01*
X73750D02*
X80950D01*
X73750Y-264700D02*
X80950D01*
X190901Y-181098D02*
Y-172899D01*
X207102Y-181098D02*
Y-172899D01*
X190901Y-181098D02*
X207102D01*
X190901Y-172899D02*
X207102D01*
X202300Y-181950D02*
Y-172050D01*
X209500Y-181950D02*
Y-172050D01*
X202300D02*
X209500D01*
X202300Y-181950D02*
X209500D01*
X188500D02*
Y-172050D01*
X195700Y-181950D02*
Y-172050D01*
X188500D02*
X195700D01*
X188500Y-181950D02*
X195700D01*
X410172Y-97361D02*
X418371D01*
X410172Y-113562D02*
X418371D01*
X410172D02*
Y-97361D01*
X418371Y-113562D02*
Y-97361D01*
X409320Y-108760D02*
X419220D01*
X409320Y-115960D02*
X419220D01*
Y-108760D01*
X409320Y-115960D02*
Y-108760D01*
Y-94960D02*
X419220D01*
X409320Y-102160D02*
X419220D01*
Y-94960D01*
X409320Y-102160D02*
Y-94960D01*
X390151Y-173649D02*
X390151Y-181848D01*
X406352D02*
Y-173649D01*
X390151Y-181848D02*
X406352D01*
X390151Y-173649D02*
X406352Y-173649D01*
X401550Y-182700D02*
Y-172800D01*
X408750Y-182700D02*
Y-172800D01*
X401550Y-172800D02*
X408750Y-172800D01*
X401550Y-182700D02*
X408750D01*
X387750Y-182700D02*
Y-172800D01*
X394950Y-182700D02*
Y-172800D01*
X387750D02*
X394950D01*
X387750Y-182700D02*
X394950Y-182700D01*
X229201Y-266388D02*
Y-258189D01*
X245402Y-266388D02*
Y-258189D01*
X229201Y-266388D02*
X245402D01*
X229201Y-258189D02*
X245402D01*
X240600Y-267240D02*
Y-257340D01*
X247800Y-267240D02*
Y-257340D01*
X240600D02*
X247800D01*
X240600Y-267240D02*
X247800D01*
X226800D02*
Y-257340D01*
X234000Y-267240D02*
Y-257340D01*
X226800D02*
X234000D01*
X226800Y-267240D02*
X234000D01*
X209839Y-266391D02*
Y-258192D01*
X193638Y-266391D02*
Y-258192D01*
X209839D01*
X193638Y-266391D02*
X209839D01*
X198440Y-267240D02*
Y-257340D01*
X191240Y-267240D02*
Y-257340D01*
Y-267240D02*
X198440D01*
X191240Y-257340D02*
X198440D01*
X212240Y-267240D02*
Y-257340D01*
X205040Y-267240D02*
Y-257340D01*
Y-267240D02*
X212240D01*
X205040Y-257340D02*
X212240D01*
X232902Y-176151D02*
X241101D01*
X232902Y-192352D02*
X241101D01*
X232902D02*
Y-176151D01*
X241101Y-192352D02*
Y-176151D01*
X232050Y-187550D02*
X241950D01*
X232050Y-194750D02*
X241950D01*
Y-187550D01*
X232050Y-194750D02*
Y-187550D01*
Y-173750D02*
X241950D01*
X232050Y-180950D02*
X241950D01*
Y-173750D01*
X232050Y-180950D02*
Y-173750D01*
X79594Y-218698D02*
X96594Y-218698D01*
X79594Y-222198D02*
X96594Y-222198D01*
X79594Y-222198D02*
X79594Y-218698D01*
X96594Y-222198D02*
X96594Y-218698D01*
X79594Y-212198D02*
X96594Y-212198D01*
X79594Y-215698D02*
X96594Y-215698D01*
X79594Y-215698D02*
X79594Y-212198D01*
X96594Y-215698D02*
Y-212198D01*
X79594Y-205698D02*
X96594D01*
X79594Y-209198D02*
X96594D01*
X79594D02*
Y-205698D01*
X96594Y-209198D02*
X96594Y-205698D01*
X79594Y-199198D02*
X96594Y-199198D01*
X79594Y-202698D02*
X96594D01*
X79594D02*
Y-199198D01*
X96594Y-202698D02*
Y-199198D01*
X79594Y-192698D02*
X96594Y-192698D01*
X79594Y-196198D02*
X96594Y-196198D01*
X79594Y-196198D02*
Y-192698D01*
X96594Y-196198D02*
X96594Y-192698D01*
X79594Y-186198D02*
X96594D01*
X79594Y-189698D02*
X96594D01*
X79594D02*
X79594Y-186198D01*
X96594Y-189698D02*
Y-186198D01*
X79594Y-179698D02*
X96594D01*
X79594Y-183198D02*
X96594Y-183198D01*
X79594Y-183198D02*
Y-179698D01*
X96594Y-183198D02*
Y-179698D01*
X79594Y-173198D02*
X96594D01*
X79594Y-176698D02*
X96594Y-176698D01*
X79594Y-173198D02*
X79594Y-176698D01*
X96594Y-176698D02*
X96594Y-173198D01*
X79594Y-166698D02*
X96594Y-166698D01*
X79594Y-170198D02*
X96594D01*
X79594Y-166698D02*
X79594Y-170198D01*
X96594D02*
Y-166698D01*
X79594Y-160198D02*
X96594D01*
X79594Y-163698D02*
X96594Y-163698D01*
X79594Y-163698D02*
X79594Y-160198D01*
X96594Y-163698D02*
X96594Y-160198D01*
X136594Y-160198D02*
X153594D01*
X136594Y-163698D02*
X153594Y-163698D01*
X136594Y-160198D02*
X136594Y-163698D01*
X153594Y-163698D02*
Y-160198D01*
X136594Y-166698D02*
X153594D01*
X136594Y-170198D02*
X153594D01*
X136594D02*
Y-166698D01*
X153594Y-170198D02*
X153594Y-166698D01*
X136594Y-173198D02*
X153594D01*
X136594Y-176698D02*
X153594Y-176698D01*
X136594Y-176698D02*
X136594Y-173198D01*
X153594Y-176698D02*
X153594Y-173198D01*
X136594Y-179698D02*
X153594D01*
X136594Y-183198D02*
X153594Y-183198D01*
X136594Y-179698D02*
X136594Y-183198D01*
X153594Y-183198D02*
X153594Y-179698D01*
X136594Y-186198D02*
X153594D01*
X136594Y-189698D02*
X153594Y-189698D01*
X136594Y-189698D02*
X136594Y-186198D01*
X153594Y-189698D02*
X153594Y-186198D01*
X136594Y-192698D02*
X153594D01*
X136594Y-196198D02*
X153594D01*
X136594D02*
Y-192698D01*
X153594Y-196198D02*
X153594Y-192698D01*
X136594Y-199198D02*
X153594D01*
X136594Y-202698D02*
X153594D01*
X136594D02*
X136594Y-199198D01*
X153594Y-202698D02*
Y-199198D01*
X136594Y-205698D02*
X153594Y-205698D01*
X136594Y-209198D02*
X153594Y-209198D01*
X136594Y-209198D02*
Y-205698D01*
X153594Y-205698D02*
X153594Y-209198D01*
X136594Y-212198D02*
X153594Y-212198D01*
X136594Y-215698D02*
X153594D01*
X136594D02*
Y-212198D01*
X153594Y-215698D02*
Y-212198D01*
X136594Y-218698D02*
X153594Y-218698D01*
X136594Y-222198D02*
X153594D01*
X136594D02*
Y-218698D01*
X153594Y-218698D02*
X153594Y-222198D01*
X83750Y-224249D02*
X149749Y-224249D01*
X83750Y-158250D02*
X149749D01*
X83750Y-224249D02*
X83750Y-158250D01*
X149749D02*
X149749Y-224249D01*
X212999Y-202001D02*
X213000Y-231001D01*
X185000Y-202001D02*
X185000Y-231001D01*
X185000Y-202001D02*
X212999D01*
X185000Y-231001D02*
X213000Y-231001D01*
X191750Y-229250D02*
X191750Y-222750D01*
X181250Y-229250D02*
Y-222750D01*
Y-229250D02*
X191750Y-229250D01*
X181250Y-222750D02*
X191750D01*
Y-219750D02*
X191750Y-213250D01*
X181250Y-219750D02*
X181250Y-213250D01*
X181250Y-219750D02*
X191750D01*
X181250Y-213250D02*
X191750Y-213250D01*
X191750Y-210250D02*
Y-203750D01*
X181250D02*
X181250Y-210250D01*
X191750D01*
X181250Y-203750D02*
X191750D01*
X216750D02*
X216750Y-210250D01*
X206250Y-203750D02*
X206250Y-210250D01*
X216750Y-210250D01*
X206250Y-203750D02*
X216750Y-203750D01*
X216750Y-219750D02*
X216750Y-213250D01*
X206250Y-219750D02*
X206250Y-213250D01*
X206250Y-219750D02*
X216750Y-219750D01*
X206250Y-213250D02*
X216750D01*
Y-229250D02*
Y-222750D01*
X206250D02*
X206250Y-229250D01*
X216750Y-229250D01*
X206250Y-222750D02*
X216750D01*
X34492Y-250558D02*
Y-221558D01*
X62491Y-250558D02*
Y-221558D01*
X34492Y-250558D02*
X62491D01*
X34492Y-221558D02*
X62491D01*
X30750Y-229750D02*
Y-223250D01*
X41250Y-229750D02*
Y-223250D01*
X30750D02*
X41250D01*
X30750Y-229750D02*
X41250D01*
X30750Y-239250D02*
Y-232750D01*
X41250Y-239250D02*
Y-232750D01*
X30750D02*
X41250D01*
X30750Y-239250D02*
X41250D01*
X30750Y-248750D02*
Y-242250D01*
X41250Y-248750D02*
Y-242250D01*
X30750D02*
X41250D01*
X30750Y-248750D02*
X41250D01*
X55750D02*
Y-242250D01*
X66250Y-248750D02*
Y-242250D01*
X55750D02*
X66250D01*
X55750Y-248750D02*
X66250D01*
X55750Y-229750D02*
Y-223250D01*
X66250Y-229750D02*
Y-223250D01*
X55750D02*
X66250D01*
X55750Y-229750D02*
X66250D01*
X451750Y13550D02*
X451750Y22050D01*
X434750Y13550D02*
X451750Y13550D01*
X434750Y13550D02*
X434750Y30550D01*
X451750D01*
Y22050D02*
Y30550D01*
X430550Y-117650D02*
X455950D01*
X430550D02*
Y34750D01*
X455950D01*
Y-117650D02*
Y34750D01*
X192250Y-145250D02*
X192250Y-139500D01*
X181750Y-145250D02*
X192250D01*
X181750Y-133750D02*
X181750Y-145250D01*
X181750Y-133750D02*
X192250Y-133750D01*
X192250Y-139500D01*
X207750Y-139500D02*
X207750Y-145250D01*
X197250Y-145250D02*
X207750Y-145250D01*
X197250Y-145250D02*
X197250Y-133750D01*
X207750D01*
X207750Y-139500D02*
X207750Y-133750D01*
X207750Y-106000D02*
X207750Y-111750D01*
X197250Y-111750D02*
X207750Y-111750D01*
X197250Y-100250D02*
X197250Y-111750D01*
X197250Y-100250D02*
X207750D01*
Y-106000D02*
Y-100250D01*
X192250Y-111750D02*
Y-106000D01*
X181750Y-111750D02*
X192250D01*
X181750D02*
Y-100250D01*
X192250Y-100250D01*
X192250Y-106000D02*
X192250Y-100250D01*
X210296Y-144250D02*
X210296Y-101250D01*
X179204Y-144250D02*
X210296D01*
X179204D02*
X179204Y-101250D01*
X210296D01*
X-16000Y-14000D02*
Y14000D01*
Y-14000D02*
X16000D01*
Y14000D01*
X-16000D02*
X16000D01*
X-16000Y6000D02*
X-8000Y14000D01*
X-22250Y12000D02*
X-14250D01*
X-22250Y-12000D02*
Y12000D01*
Y-12000D02*
X-6250D01*
Y12000D01*
X-14250D02*
X-6250D01*
X6250D02*
X14250D01*
X6250Y0D02*
Y12000D01*
Y-12000D02*
Y0D01*
Y-12000D02*
X22250D01*
Y12000D01*
X14250D02*
X22250D01*
X-16000Y-54000D02*
Y-26000D01*
Y-54000D02*
X16000D01*
Y-26000D01*
X-16000D02*
X16000D01*
X-16000Y-34000D02*
X-8000Y-26000D01*
X-22250Y-28000D02*
X-14250D01*
X-22250Y-52000D02*
Y-28000D01*
Y-52000D02*
X-6250D01*
Y-28000D01*
X-14250D02*
X-6250D01*
X6250D02*
X14250D01*
X6250Y-40000D02*
Y-28000D01*
Y-52000D02*
Y-40000D01*
Y-52000D02*
X22250D01*
Y-28000D01*
X14250D02*
X22250D01*
X-16000Y-134000D02*
Y-106000D01*
Y-134000D02*
X16000D01*
Y-106000D01*
X-16000D02*
X16000D01*
X-16000Y-114000D02*
X-8000Y-106000D01*
X-22250Y-108000D02*
X-14250D01*
X-22250Y-132000D02*
Y-108000D01*
Y-132000D02*
X-6250D01*
Y-108000D01*
X-14250D02*
X-6250D01*
X6250D02*
X14250D01*
X6250Y-120000D02*
Y-108000D01*
Y-132000D02*
Y-120000D01*
Y-132000D02*
X22250D01*
Y-108000D01*
X14250D02*
X22250D01*
X-16000Y-94000D02*
Y-66000D01*
Y-94000D02*
X16000D01*
Y-66000D01*
X-16000D02*
X16000D01*
X-16000Y-74000D02*
X-8000Y-66000D01*
X-22250Y-68000D02*
X-14250D01*
X-22250Y-92000D02*
Y-68000D01*
Y-92000D02*
X-6250D01*
Y-68000D01*
X-14250D02*
X-6250D01*
X6250D02*
X14250D01*
X6250Y-80000D02*
Y-68000D01*
Y-92000D02*
Y-80000D01*
Y-92000D02*
X22250D01*
Y-68000D01*
X14250D02*
X22250D01*
X357914Y-251528D02*
Y-231528D01*
X352514Y-251528D02*
Y-231528D01*
Y-251528D02*
X357914D01*
X352514Y-231528D02*
X357914D01*
X349914Y-251528D02*
Y-231528D01*
X344514Y-251528D02*
Y-231528D01*
Y-251528D02*
X349914D01*
X344514Y-231528D02*
X349914D01*
X341914Y-251528D02*
Y-231528D01*
X336514Y-251528D02*
Y-231528D01*
Y-251528D02*
X341914D01*
X336514Y-231528D02*
X341914D01*
X333914Y-251528D02*
Y-231528D01*
X328514Y-251528D02*
Y-231528D01*
Y-251528D02*
X333914D01*
X328514Y-231528D02*
X333914D01*
X325914Y-251528D02*
Y-231528D01*
X320514Y-251528D02*
Y-231528D01*
Y-251528D02*
X325914D01*
X320514Y-231528D02*
X325914D01*
X317914Y-251528D02*
Y-231528D01*
X312514Y-251528D02*
Y-231528D01*
Y-251528D02*
X317914D01*
X312514Y-231528D02*
X317914D01*
X309914Y-251528D02*
Y-231528D01*
X304514Y-251528D02*
Y-231528D01*
Y-251528D02*
X309914D01*
X304514Y-231528D02*
X309914D01*
X301914Y-251528D02*
Y-231528D01*
X296514Y-251528D02*
Y-231528D01*
Y-251528D02*
X301914D01*
X296514Y-231528D02*
X301914D01*
X293914Y-251528D02*
Y-231528D01*
X288514Y-251528D02*
Y-231528D01*
Y-251528D02*
X293914D01*
X288514Y-231528D02*
X293914D01*
X285914Y-251528D02*
Y-231528D01*
X280514Y-251528D02*
Y-231528D01*
Y-251528D02*
X285914D01*
X280514Y-231528D02*
X285914D01*
X277914Y-251528D02*
Y-231528D01*
X272514Y-251528D02*
Y-231528D01*
Y-251528D02*
X277914D01*
X272514Y-231528D02*
X277914D01*
X268214Y-227228D02*
Y-221828D01*
X248214Y-227228D02*
Y-221828D01*
Y-227228D02*
X268214D01*
X248214Y-221828D02*
X268214D01*
Y-219228D02*
Y-213828D01*
X248214Y-219228D02*
Y-213828D01*
Y-219228D02*
X268214D01*
X248214Y-213828D02*
X268214D01*
Y-211228D02*
Y-205828D01*
X248214Y-211228D02*
Y-205828D01*
Y-211228D02*
X268214D01*
X248214Y-205828D02*
X268214D01*
Y-203228D02*
Y-197828D01*
X248214Y-203228D02*
Y-197828D01*
Y-203228D02*
X268214D01*
X248214Y-197828D02*
X268214D01*
Y-195228D02*
Y-189828D01*
X248214Y-195228D02*
Y-189828D01*
Y-195228D02*
X268214D01*
X248214Y-189828D02*
X268214D01*
Y-187228D02*
Y-181828D01*
X248214Y-187228D02*
Y-181828D01*
Y-187228D02*
X268214D01*
X248214Y-181828D02*
X268214D01*
Y-179228D02*
Y-173828D01*
X248214Y-179228D02*
Y-173828D01*
Y-179228D02*
X268214D01*
X248214Y-173828D02*
X268214D01*
Y-171228D02*
Y-165828D01*
X248214Y-171228D02*
Y-165828D01*
Y-171228D02*
X268214D01*
X248214Y-165828D02*
X268214D01*
Y-163228D02*
Y-157828D01*
X248214Y-163228D02*
Y-157828D01*
Y-163228D02*
X268214D01*
X248214Y-157828D02*
X268214D01*
Y-155228D02*
Y-149828D01*
X248214Y-155228D02*
Y-149828D01*
Y-155228D02*
X268214D01*
X248214Y-149828D02*
X268214D01*
Y-147228D02*
Y-141828D01*
X248214Y-147228D02*
Y-141828D01*
Y-147228D02*
X268214D01*
X248214Y-141828D02*
X268214D01*
X277914Y-137528D02*
Y-117528D01*
X272514Y-137528D02*
Y-117528D01*
Y-137528D02*
X277914D01*
X272514Y-117528D02*
X277914D01*
X285914Y-137528D02*
Y-117528D01*
X280514Y-137528D02*
Y-117528D01*
Y-137528D02*
X285914D01*
X280514Y-117528D02*
X285914D01*
X293914Y-137528D02*
Y-117528D01*
X288514Y-137528D02*
Y-117528D01*
Y-137528D02*
X293914D01*
X288514Y-117528D02*
X293914D01*
X301914Y-137528D02*
Y-117528D01*
X296514Y-137528D02*
Y-117528D01*
Y-137528D02*
X301914D01*
X296514Y-117528D02*
X301914D01*
X309914Y-137528D02*
Y-117528D01*
X304514Y-137528D02*
Y-117528D01*
Y-137528D02*
X309914D01*
X304514Y-117528D02*
X309914D01*
X317914Y-137528D02*
Y-117528D01*
X312514Y-137528D02*
Y-117528D01*
Y-137528D02*
X317914D01*
X312514Y-117528D02*
X317914D01*
X325914Y-137528D02*
Y-117528D01*
X320514Y-137528D02*
Y-117528D01*
Y-137528D02*
X325914D01*
X320514Y-117528D02*
X325914D01*
X333914Y-137528D02*
Y-117528D01*
X328514Y-137528D02*
Y-117528D01*
Y-137528D02*
X333914D01*
X328514Y-117528D02*
X333914D01*
X341914Y-137528D02*
Y-117528D01*
X336514Y-137528D02*
Y-117528D01*
Y-137528D02*
X341914D01*
X336514Y-117528D02*
X341914D01*
X349914Y-137528D02*
Y-117528D01*
X344514Y-137528D02*
Y-117528D01*
Y-137528D02*
X349914D01*
X344514Y-117528D02*
X349914D01*
X357914Y-137528D02*
Y-117528D01*
X352514Y-137528D02*
Y-117528D01*
Y-137528D02*
X357914D01*
X352514Y-117528D02*
X357914D01*
X382214Y-147228D02*
Y-141828D01*
X362214Y-147228D02*
Y-141828D01*
Y-147228D02*
X382214D01*
X362214Y-141828D02*
X382214D01*
Y-155228D02*
Y-149828D01*
X362214Y-155228D02*
Y-149828D01*
Y-155228D02*
X382214D01*
X362214Y-149828D02*
X382214D01*
Y-163228D02*
Y-157828D01*
X362214Y-163228D02*
Y-157828D01*
Y-163228D02*
X382214D01*
X362214Y-157828D02*
X382214D01*
Y-171228D02*
Y-165828D01*
X362214Y-171228D02*
Y-165828D01*
Y-171228D02*
X382214D01*
X362214Y-165828D02*
X382214D01*
Y-179228D02*
Y-173828D01*
X362214Y-179228D02*
Y-173828D01*
Y-179228D02*
X382214D01*
X362214Y-173828D02*
X382214D01*
Y-187228D02*
Y-181828D01*
X362214Y-187228D02*
Y-181828D01*
Y-187228D02*
X382214D01*
X362214Y-181828D02*
X382214D01*
Y-195228D02*
Y-189828D01*
X362214Y-195228D02*
Y-189828D01*
Y-195228D02*
X382214D01*
X362214Y-189828D02*
X382214D01*
Y-203228D02*
Y-197828D01*
X362214Y-203228D02*
Y-197828D01*
Y-203228D02*
X382214D01*
X362214Y-197828D02*
X382214D01*
Y-211228D02*
Y-205828D01*
X362214Y-211228D02*
Y-205828D01*
Y-211228D02*
X382214D01*
X362214Y-205828D02*
X382214D01*
Y-219228D02*
Y-213828D01*
X362214Y-219228D02*
Y-213828D01*
Y-219228D02*
X382214D01*
X362214Y-213828D02*
X382214D01*
Y-227228D02*
Y-221828D01*
X362214Y-227228D02*
Y-221828D01*
Y-227228D02*
X382214D01*
X362214Y-221828D02*
X382214D01*
X296970Y-85260D02*
Y-66760D01*
X302970Y-85260D02*
Y-66760D01*
X296970Y-85260D02*
X302970D01*
X296970Y-66760D02*
X302970D01*
X309670Y-85260D02*
Y-66760D01*
X315670Y-85260D02*
Y-66760D01*
X309670Y-85260D02*
X315670D01*
X309670Y-66760D02*
X315670D01*
X322370Y-85260D02*
Y-66760D01*
X328370Y-85260D02*
Y-66760D01*
X322370Y-85260D02*
X328370D01*
X322370Y-66760D02*
X328370D01*
X335070Y-85260D02*
Y-66760D01*
X341070Y-85260D02*
Y-66760D01*
X335070Y-85260D02*
X341070D01*
X335070Y-66760D02*
X341070D01*
X347770Y-85260D02*
Y-66760D01*
X353770Y-85260D02*
Y-66760D01*
X347770Y-85260D02*
X353770D01*
X347770Y-66760D02*
X353770D01*
X360470Y-85260D02*
Y-66760D01*
X366470Y-85260D02*
Y-66760D01*
X360470Y-85260D02*
X366470D01*
X360470Y-66760D02*
X366470D01*
X373170Y-85260D02*
Y-66760D01*
X379170Y-85260D02*
Y-66760D01*
X373170Y-85260D02*
X379170D01*
X373170Y-66760D02*
X379170D01*
X385870Y-85260D02*
Y-66760D01*
X391870Y-85260D02*
Y-66760D01*
X385870Y-85260D02*
X391870D01*
X385870Y-66760D02*
X391870D01*
X398570Y-85260D02*
Y-66760D01*
X404570Y-85260D02*
Y-66760D01*
X398570Y-85260D02*
X404570D01*
X398570Y-66760D02*
X404570D01*
X411270Y-85260D02*
Y-66760D01*
X417270Y-85260D02*
Y-66760D01*
X411270Y-85260D02*
X417270D01*
X411270Y-66760D02*
X417270D01*
X296970Y8240D02*
Y26740D01*
X302970Y8240D02*
Y26740D01*
X296970Y8240D02*
X302970D01*
X296970Y26740D02*
X302970D01*
X309670Y8240D02*
Y26740D01*
X315670Y8240D02*
Y26740D01*
X309670Y8240D02*
X315670D01*
X309670Y26740D02*
X315670D01*
X322370Y8240D02*
Y26740D01*
X328370Y8240D02*
Y26740D01*
X322370Y8240D02*
X328370D01*
X322370Y26740D02*
X328370D01*
X335070Y8240D02*
Y26740D01*
X341070Y8240D02*
Y26740D01*
X335070Y8240D02*
X341070D01*
X335070Y26740D02*
X341070D01*
X347770Y8240D02*
Y26740D01*
X353770Y8240D02*
Y26740D01*
X347770Y8240D02*
X353770D01*
X347770Y26740D02*
X353770D01*
X360470Y8240D02*
Y26740D01*
X366470Y8240D02*
Y26740D01*
X360470Y8240D02*
X366470D01*
X360470Y26740D02*
X366470D01*
X373170Y8240D02*
Y26740D01*
X379170Y8240D02*
Y26740D01*
X373170Y8240D02*
X379170D01*
X373170Y26740D02*
X379170D01*
X385870Y8240D02*
Y26740D01*
X391870Y8240D02*
Y26740D01*
X385870Y8240D02*
X391870D01*
X385870Y26740D02*
X391870D01*
X398570Y8240D02*
Y26740D01*
X404570Y8240D02*
Y26740D01*
X398570Y8240D02*
X404570D01*
X398570Y26740D02*
X404570D01*
X411270Y8240D02*
Y26740D01*
X417270Y8240D02*
Y26740D01*
X411270Y8240D02*
X417270D01*
X411270Y26740D02*
X417270D01*
X271820Y8740D02*
Y27740D01*
X277320Y8740D02*
Y27740D01*
X271820Y8740D02*
X277320D01*
X271820Y27740D02*
X277320D01*
X259120Y8740D02*
Y27740D01*
X264620Y8740D02*
Y27740D01*
X259120Y8740D02*
X264620D01*
X259120Y27740D02*
X264620D01*
X246420Y8740D02*
Y27740D01*
X251920Y8740D02*
Y27740D01*
X246420Y8740D02*
X251920D01*
X246420Y27740D02*
X251920D01*
X233720Y8740D02*
Y27740D01*
X239220Y8740D02*
Y27740D01*
X233720Y8740D02*
X239220D01*
X233720Y27740D02*
X239220D01*
X221020Y8740D02*
Y27740D01*
X226520Y8740D02*
Y27740D01*
X221020Y8740D02*
X226520D01*
X221020Y27740D02*
X226520D01*
X208320Y8740D02*
Y27740D01*
X213820Y8740D02*
Y27740D01*
X208320Y8740D02*
X213820D01*
X208320Y27740D02*
X213820D01*
X195620Y8740D02*
Y27740D01*
X201120Y8740D02*
Y27740D01*
X195620Y8740D02*
X201120D01*
X195620Y27740D02*
X201120D01*
X182920Y8740D02*
Y27740D01*
X188420Y8740D02*
Y27740D01*
X182920Y8740D02*
X188420D01*
X182920Y27740D02*
X188420D01*
X170220Y8740D02*
Y27740D01*
X175720Y8740D02*
Y27740D01*
X170220Y8740D02*
X175720D01*
X170220Y27740D02*
X175720D01*
X157520Y8740D02*
Y27740D01*
X163020Y8740D02*
Y27740D01*
X157520Y8740D02*
X163020D01*
X157520Y27740D02*
X163020D01*
X144820Y8740D02*
Y27740D01*
X150320Y8740D02*
Y27740D01*
X144820Y8740D02*
X150320D01*
X144820Y27740D02*
X150320D01*
X132120Y8740D02*
Y27740D01*
X137620Y8740D02*
Y27740D01*
X132120Y8740D02*
X137620D01*
X132120Y27740D02*
X137620D01*
X271820Y-86260D02*
Y-67260D01*
X277320Y-86260D02*
Y-67260D01*
X271820Y-86260D02*
X277320D01*
X271820Y-67260D02*
X277320D01*
X259120Y-86260D02*
Y-67260D01*
X264620Y-86260D02*
Y-67260D01*
X259120Y-86260D02*
X264620D01*
X259120Y-67260D02*
X264620D01*
X246420Y-86260D02*
Y-67260D01*
X251920Y-86260D02*
Y-67260D01*
X246420Y-86260D02*
X251920D01*
X246420Y-67260D02*
X251920D01*
X233720Y-86260D02*
Y-67260D01*
X239220Y-86260D02*
Y-67260D01*
X233720Y-86260D02*
X239220D01*
X233720Y-67260D02*
X239220D01*
X221020Y-86260D02*
Y-67260D01*
X226520Y-86260D02*
Y-67260D01*
X221020Y-86260D02*
X226520D01*
X221020Y-67260D02*
X226520D01*
X208320Y-86260D02*
Y-67260D01*
X213820Y-86260D02*
Y-67260D01*
X208320Y-86260D02*
X213820D01*
X208320Y-67260D02*
X213820D01*
X195620Y-86260D02*
Y-67260D01*
X201120Y-86260D02*
Y-67260D01*
X195620Y-86260D02*
X201120D01*
X195620Y-67260D02*
X201120D01*
X182920Y-86260D02*
Y-67260D01*
X188420Y-86260D02*
Y-67260D01*
X182920Y-86260D02*
X188420D01*
X182920Y-67260D02*
X188420D01*
X170220Y-86260D02*
Y-67260D01*
X175720Y-86260D02*
Y-67260D01*
X170220Y-86260D02*
X175720D01*
X170220Y-67260D02*
X175720D01*
X157520Y-86260D02*
Y-67260D01*
X163020Y-86260D02*
Y-67260D01*
X157520Y-86260D02*
X163020D01*
X157520Y-67260D02*
X163020D01*
X144820Y-86260D02*
Y-67260D01*
X150320Y-86260D02*
Y-67260D01*
X144820Y-86260D02*
X150320D01*
X144820Y-67260D02*
X150320D01*
X132120Y-86260D02*
Y-67260D01*
X137620Y-86260D02*
Y-67260D01*
X132120Y-86260D02*
X137620D01*
X132120Y-67260D02*
X137620D01*
D63*
X375213Y-244527D02*
Y-124527D01*
X255213Y-244527D02*
Y-124527D01*
X375213D01*
X255213Y-244527D02*
X375213D01*
X422120Y-80760D02*
Y22240D01*
X292120Y-80760D02*
Y22240D01*
Y-80760D02*
X422120D01*
X292120Y22240D02*
X422120D01*
X282720Y-80885D02*
Y22365D01*
X126720Y-80885D02*
Y22365D01*
Y-80885D02*
X282720D01*
X126720Y22365D02*
X282720D01*
M02*
