G04*
G04 #@! TF.GenerationSoftware,Altium Limited,Altium Designer,25.5.2 (35)*
G04*
G04 Layer_Physical_Order=3*
G04 Layer_Color=128*
%FSLAX44Y44*%
%MOMM*%
G71*
G04*
G04 #@! TF.SameCoordinates,24B21415-5C40-4A56-A289-731DE7267D3C*
G04*
G04*
G04 #@! TF.FilePolarity,Positive*
G04*
G01*
G75*
%ADD53C,6.0000*%
%ADD54O,1.5000X2.0000*%
G04:AMPARAMS|DCode=55|XSize=0.9mm|YSize=1.7mm|CornerRadius=0.45mm|HoleSize=0mm|Usage=FLASHONLY|Rotation=0.000|XOffset=0mm|YOffset=0mm|HoleType=Round|Shape=RoundedRectangle|*
%AMROUNDEDRECTD55*
21,1,0.9000,0.8000,0,0,0.0*
21,1,0.0000,1.7000,0,0,0.0*
1,1,0.9000,0.0000,-0.4000*
1,1,0.9000,0.0000,-0.4000*
1,1,0.9000,0.0000,0.4000*
1,1,0.9000,0.0000,0.4000*
%
%ADD55ROUNDEDRECTD55*%
G04:AMPARAMS|DCode=56|XSize=0.9mm|YSize=2.4mm|CornerRadius=0.45mm|HoleSize=0mm|Usage=FLASHONLY|Rotation=0.000|XOffset=0mm|YOffset=0mm|HoleType=Round|Shape=RoundedRectangle|*
%AMROUNDEDRECTD56*
21,1,0.9000,1.5000,0,0,0.0*
21,1,0.0000,2.4000,0,0,0.0*
1,1,0.9000,0.0000,-0.7500*
1,1,0.9000,0.0000,-0.7500*
1,1,0.9000,0.0000,0.7500*
1,1,0.9000,0.0000,0.7500*
%
%ADD56ROUNDEDRECTD56*%
%ADD57C,0.6500*%
%ADD58C,1.7000*%
G04:AMPARAMS|DCode=59|XSize=1.7mm|YSize=1.7mm|CornerRadius=0.05mm|HoleSize=0mm|Usage=FLASHONLY|Rotation=270.000|XOffset=0mm|YOffset=0mm|HoleType=Round|Shape=RoundedRectangle|*
%AMROUNDEDRECTD59*
21,1,1.7000,1.6000,0,0,270.0*
21,1,1.6000,1.7000,0,0,270.0*
1,1,0.1000,-0.8000,-0.8000*
1,1,0.1000,-0.8000,0.8000*
1,1,0.1000,0.8000,0.8000*
1,1,0.1000,0.8000,-0.8000*
%
%ADD59ROUNDEDRECTD59*%
%ADD60C,0.8000*%
G36*
X475397Y114901D02*
X473397Y114421D01*
X471256Y118624D01*
X468018Y123081D01*
X464122Y126976D01*
X459665Y130215D01*
X454756Y132716D01*
X449517Y134418D01*
X444076Y135280D01*
X438567D01*
X433125Y134418D01*
X427886Y132716D01*
X422977Y130215D01*
X418520Y126976D01*
X414624Y123081D01*
X411386Y118624D01*
X408885Y113715D01*
X407183Y108476D01*
X406321Y103035D01*
Y97526D01*
X407183Y92084D01*
X408885Y86845D01*
X411386Y81936D01*
X414624Y77479D01*
X418520Y73583D01*
X422977Y70345D01*
X427886Y67844D01*
X433125Y66142D01*
X438567Y65280D01*
X444076D01*
X449517Y66142D01*
X454756Y67844D01*
X459665Y70345D01*
X464122Y73583D01*
X468018Y77479D01*
X471256Y81936D01*
X473397Y86139D01*
X475397Y85659D01*
Y37159D01*
X473397Y36331D01*
X472526Y37202D01*
X470474Y38387D01*
X468185Y39000D01*
X465815D01*
X463526Y38387D01*
X461474Y37202D01*
X459798Y35526D01*
X458613Y33474D01*
X458000Y31185D01*
Y28815D01*
X458613Y26526D01*
X459798Y24474D01*
X461474Y22798D01*
X463526Y21613D01*
X465815Y21000D01*
X468185D01*
X470474Y21613D01*
X472526Y22798D01*
X473397Y23669D01*
X475397Y22841D01*
Y12159D01*
X473397Y11331D01*
X472526Y12202D01*
X470474Y13387D01*
X468185Y14000D01*
X465815D01*
X463526Y13387D01*
X461474Y12202D01*
X459798Y10526D01*
X458613Y8474D01*
X458000Y6185D01*
Y3815D01*
X458613Y1526D01*
X459798Y-526D01*
X461474Y-2202D01*
X463526Y-3387D01*
X465815Y-4000D01*
X468185D01*
X470474Y-3387D01*
X472526Y-2202D01*
X473397Y-1331D01*
X475397Y-2159D01*
Y-12841D01*
X473397Y-13669D01*
X472526Y-12798D01*
X470474Y-11613D01*
X468185Y-11000D01*
X465815D01*
X463526Y-11613D01*
X461474Y-12798D01*
X459798Y-14474D01*
X458613Y-16526D01*
X458000Y-18815D01*
Y-21185D01*
X458613Y-23474D01*
X459798Y-25526D01*
X461474Y-27202D01*
X463526Y-28387D01*
X465815Y-29000D01*
X468185D01*
X470474Y-28387D01*
X472526Y-27202D01*
X473397Y-26331D01*
X475397Y-27159D01*
Y-37841D01*
X473397Y-38669D01*
X472526Y-37798D01*
X470474Y-36613D01*
X468185Y-36000D01*
X465815D01*
X463526Y-36613D01*
X461474Y-37798D01*
X459798Y-39474D01*
X458613Y-41526D01*
X458000Y-43815D01*
Y-46185D01*
X458613Y-48474D01*
X459798Y-50526D01*
X461474Y-52202D01*
X463526Y-53387D01*
X465815Y-54000D01*
X468185D01*
X470474Y-53387D01*
X472526Y-52202D01*
X473397Y-51331D01*
X475397Y-52159D01*
Y-62841D01*
X473397Y-63669D01*
X472526Y-62798D01*
X470474Y-61613D01*
X468185Y-61000D01*
X465815D01*
X463526Y-61613D01*
X461474Y-62798D01*
X459798Y-64474D01*
X458613Y-66526D01*
X458000Y-68815D01*
Y-71185D01*
X458613Y-73474D01*
X459798Y-75526D01*
X461474Y-77202D01*
X463526Y-78387D01*
X465815Y-79000D01*
X468185D01*
X470474Y-78387D01*
X472526Y-77202D01*
X473397Y-76331D01*
X475397Y-77159D01*
Y-87841D01*
X473397Y-88669D01*
X472526Y-87798D01*
X470474Y-86613D01*
X468185Y-86000D01*
X465815D01*
X463526Y-86613D01*
X461474Y-87798D01*
X459798Y-89474D01*
X458613Y-91526D01*
X458000Y-93815D01*
Y-96185D01*
X458613Y-98474D01*
X459798Y-100526D01*
X461474Y-102202D01*
X463526Y-103387D01*
X465815Y-104000D01*
X468185D01*
X470474Y-103387D01*
X472526Y-102202D01*
X473397Y-101331D01*
X475397Y-102159D01*
Y-112841D01*
X473397Y-113669D01*
X472526Y-112798D01*
X470474Y-111613D01*
X468185Y-111000D01*
X465815D01*
X463526Y-111613D01*
X461474Y-112798D01*
X459798Y-114474D01*
X458613Y-116526D01*
X458000Y-118815D01*
Y-121185D01*
X458613Y-123474D01*
X459798Y-125526D01*
X461474Y-127202D01*
X463526Y-128387D01*
X465815Y-129000D01*
X468185D01*
X470474Y-128387D01*
X472526Y-127202D01*
X473397Y-126331D01*
X475397Y-127159D01*
Y-137841D01*
X473397Y-138669D01*
X472526Y-137798D01*
X470474Y-136613D01*
X468185Y-136000D01*
X465815D01*
X463526Y-136613D01*
X461474Y-137798D01*
X459798Y-139474D01*
X458613Y-141526D01*
X458000Y-143815D01*
Y-146185D01*
X458613Y-148474D01*
X459798Y-150526D01*
X461474Y-152202D01*
X463526Y-153387D01*
X465815Y-154000D01*
X468185D01*
X470474Y-153387D01*
X472526Y-152202D01*
X473397Y-151331D01*
X475397Y-152159D01*
Y-162841D01*
X473397Y-163669D01*
X472526Y-162798D01*
X470474Y-161613D01*
X468185Y-161000D01*
X465815D01*
X463526Y-161613D01*
X461474Y-162798D01*
X459798Y-164474D01*
X458613Y-166526D01*
X458000Y-168815D01*
Y-171185D01*
X458613Y-173474D01*
X459798Y-175526D01*
X461474Y-177202D01*
X463526Y-178387D01*
X465815Y-179000D01*
X468185D01*
X470474Y-178387D01*
X472526Y-177202D01*
X473397Y-176331D01*
X475397Y-177159D01*
Y-187841D01*
X473397Y-188669D01*
X472526Y-187798D01*
X470474Y-186613D01*
X468185Y-186000D01*
X465815D01*
X463526Y-186613D01*
X461474Y-187798D01*
X459798Y-189474D01*
X458613Y-191526D01*
X458000Y-193815D01*
Y-196185D01*
X458613Y-198474D01*
X459798Y-200526D01*
X461474Y-202202D01*
X463526Y-203387D01*
X465815Y-204000D01*
X468185D01*
X470474Y-203387D01*
X472526Y-202202D01*
X473397Y-201331D01*
X475397Y-202159D01*
Y-212841D01*
X473397Y-213669D01*
X472526Y-212798D01*
X470474Y-211613D01*
X468185Y-211000D01*
X465815D01*
X463526Y-211613D01*
X461474Y-212798D01*
X459798Y-214474D01*
X458613Y-216526D01*
X458000Y-218815D01*
Y-221185D01*
X458613Y-223474D01*
X459798Y-225526D01*
X461474Y-227202D01*
X463526Y-228387D01*
X465815Y-229000D01*
X468185D01*
X470474Y-228387D01*
X472526Y-227202D01*
X473397Y-226331D01*
X475397Y-227159D01*
Y-237841D01*
X473397Y-238669D01*
X472526Y-237798D01*
X470474Y-236613D01*
X468185Y-236000D01*
X465815D01*
X463526Y-236613D01*
X461474Y-237798D01*
X459798Y-239474D01*
X458613Y-241526D01*
X458000Y-243815D01*
Y-246185D01*
X458613Y-248474D01*
X459798Y-250526D01*
X461474Y-252202D01*
X463526Y-253387D01*
X465815Y-254000D01*
X468185D01*
X470474Y-253387D01*
X472526Y-252202D01*
X473397Y-251331D01*
X475397Y-252159D01*
Y-262841D01*
X473397Y-263669D01*
X472526Y-262798D01*
X470474Y-261613D01*
X468185Y-261000D01*
X465815D01*
X463526Y-261613D01*
X461474Y-262798D01*
X459798Y-264474D01*
X458613Y-266526D01*
X458000Y-268815D01*
Y-271185D01*
X458613Y-273474D01*
X459798Y-275526D01*
X461474Y-277202D01*
X463526Y-278387D01*
X465815Y-279000D01*
X468185D01*
X470474Y-278387D01*
X472526Y-277202D01*
X473397Y-276331D01*
X475397Y-277159D01*
Y-287841D01*
X473397Y-288669D01*
X472526Y-287798D01*
X470474Y-286613D01*
X468185Y-286000D01*
X465815D01*
X463526Y-286613D01*
X461474Y-287798D01*
X459798Y-289474D01*
X458613Y-291526D01*
X458000Y-293815D01*
Y-296185D01*
X458613Y-298474D01*
X459798Y-300526D01*
X461474Y-302202D01*
X463526Y-303387D01*
X465815Y-304000D01*
X468185D01*
X470474Y-303387D01*
X472526Y-302202D01*
X473397Y-301331D01*
X475397Y-302159D01*
Y-321800D01*
X475421Y-321918D01*
X475185Y-323712D01*
X474447Y-325493D01*
X473273Y-327023D01*
X471743Y-328197D01*
X469962Y-328935D01*
X468168Y-329171D01*
X468050Y-329147D01*
X463657D01*
X463090Y-327400D01*
X463081Y-327147D01*
X464702Y-325526D01*
X465887Y-323474D01*
X466500Y-321185D01*
Y-318815D01*
X465887Y-316526D01*
X464702Y-314474D01*
X463026Y-312798D01*
X460974Y-311613D01*
X458685Y-311000D01*
X456315D01*
X454026Y-311613D01*
X451974Y-312798D01*
X450298Y-314474D01*
X449113Y-316526D01*
X448500Y-318815D01*
Y-321185D01*
X449113Y-323474D01*
X450298Y-325526D01*
X451919Y-327147D01*
X451910Y-327400D01*
X451343Y-329147D01*
X438657D01*
X438090Y-327400D01*
X438081Y-327147D01*
X439702Y-325526D01*
X440887Y-323474D01*
X441500Y-321185D01*
Y-318815D01*
X440887Y-316526D01*
X439702Y-314474D01*
X438026Y-312798D01*
X435974Y-311613D01*
X433685Y-311000D01*
X431315D01*
X429026Y-311613D01*
X426974Y-312798D01*
X425298Y-314474D01*
X424113Y-316526D01*
X423500Y-318815D01*
Y-321185D01*
X424113Y-323474D01*
X425298Y-325526D01*
X426919Y-327147D01*
X426910Y-327400D01*
X426343Y-329147D01*
X413657D01*
X413090Y-327400D01*
X413081Y-327147D01*
X414702Y-325526D01*
X415887Y-323474D01*
X416500Y-321185D01*
Y-318815D01*
X415887Y-316526D01*
X414702Y-314474D01*
X413026Y-312798D01*
X410974Y-311613D01*
X408685Y-311000D01*
X406315D01*
X404026Y-311613D01*
X401974Y-312798D01*
X400298Y-314474D01*
X399113Y-316526D01*
X398500Y-318815D01*
Y-321185D01*
X399113Y-323474D01*
X400298Y-325526D01*
X401919Y-327147D01*
X401910Y-327400D01*
X401343Y-329147D01*
X388657D01*
X388090Y-327400D01*
X388081Y-327147D01*
X389702Y-325526D01*
X390887Y-323474D01*
X391500Y-321185D01*
Y-318815D01*
X390887Y-316526D01*
X389702Y-314474D01*
X388026Y-312798D01*
X385974Y-311613D01*
X383685Y-311000D01*
X381315D01*
X379026Y-311613D01*
X376974Y-312798D01*
X375298Y-314474D01*
X374113Y-316526D01*
X373500Y-318815D01*
Y-321185D01*
X374113Y-323474D01*
X375298Y-325526D01*
X376919Y-327147D01*
X376910Y-327400D01*
X376343Y-329147D01*
X363657D01*
X363090Y-327400D01*
X363081Y-327147D01*
X364702Y-325526D01*
X365887Y-323474D01*
X366500Y-321185D01*
Y-318815D01*
X365887Y-316526D01*
X364702Y-314474D01*
X363026Y-312798D01*
X360974Y-311613D01*
X358685Y-311000D01*
X356315D01*
X354026Y-311613D01*
X351974Y-312798D01*
X350298Y-314474D01*
X349113Y-316526D01*
X348500Y-318815D01*
Y-321185D01*
X349113Y-323474D01*
X350298Y-325526D01*
X351919Y-327147D01*
X351910Y-327400D01*
X351343Y-329147D01*
X338657D01*
X338090Y-327400D01*
X338081Y-327147D01*
X339702Y-325526D01*
X340887Y-323474D01*
X341500Y-321185D01*
Y-318815D01*
X340887Y-316526D01*
X339702Y-314474D01*
X338026Y-312798D01*
X335974Y-311613D01*
X333685Y-311000D01*
X331315D01*
X329026Y-311613D01*
X326974Y-312798D01*
X325298Y-314474D01*
X324113Y-316526D01*
X323500Y-318815D01*
Y-321185D01*
X324113Y-323474D01*
X325298Y-325526D01*
X326919Y-327147D01*
X326910Y-327400D01*
X326343Y-329147D01*
X313657D01*
X313090Y-327400D01*
X313081Y-327147D01*
X314702Y-325526D01*
X315887Y-323474D01*
X316500Y-321185D01*
Y-318815D01*
X315887Y-316526D01*
X314702Y-314474D01*
X313026Y-312798D01*
X310974Y-311613D01*
X308685Y-311000D01*
X306315D01*
X304026Y-311613D01*
X301974Y-312798D01*
X300298Y-314474D01*
X299113Y-316526D01*
X298500Y-318815D01*
Y-321185D01*
X299113Y-323474D01*
X300298Y-325526D01*
X301919Y-327147D01*
X301910Y-327400D01*
X301343Y-329147D01*
X288657D01*
X288090Y-327400D01*
X288081Y-327147D01*
X289702Y-325526D01*
X290887Y-323474D01*
X291500Y-321185D01*
Y-318815D01*
X290887Y-316526D01*
X289702Y-314474D01*
X288026Y-312798D01*
X285974Y-311613D01*
X283685Y-311000D01*
X281315D01*
X279026Y-311613D01*
X276974Y-312798D01*
X275298Y-314474D01*
X274113Y-316526D01*
X273500Y-318815D01*
Y-321185D01*
X274113Y-323474D01*
X275298Y-325526D01*
X276919Y-327147D01*
X276910Y-327400D01*
X276343Y-329147D01*
X263657D01*
X263090Y-327400D01*
X263081Y-327147D01*
X264702Y-325526D01*
X265887Y-323474D01*
X266500Y-321185D01*
Y-318815D01*
X265887Y-316526D01*
X264702Y-314474D01*
X263026Y-312798D01*
X260974Y-311613D01*
X258685Y-311000D01*
X256315D01*
X254026Y-311613D01*
X251974Y-312798D01*
X250298Y-314474D01*
X249113Y-316526D01*
X248500Y-318815D01*
Y-321185D01*
X249113Y-323474D01*
X250298Y-325526D01*
X251919Y-327147D01*
X251910Y-327400D01*
X251343Y-329147D01*
X238657D01*
X238090Y-327400D01*
X238081Y-327147D01*
X239702Y-325526D01*
X240887Y-323474D01*
X241500Y-321185D01*
Y-318815D01*
X240887Y-316526D01*
X239702Y-314474D01*
X238026Y-312798D01*
X235974Y-311613D01*
X233685Y-311000D01*
X231315D01*
X229026Y-311613D01*
X226974Y-312798D01*
X225298Y-314474D01*
X224113Y-316526D01*
X223500Y-318815D01*
Y-321185D01*
X224113Y-323474D01*
X225298Y-325526D01*
X226919Y-327147D01*
X226910Y-327400D01*
X226343Y-329147D01*
X213657D01*
X213090Y-327400D01*
X213081Y-327147D01*
X214702Y-325526D01*
X215887Y-323474D01*
X216500Y-321185D01*
Y-318815D01*
X215887Y-316526D01*
X214702Y-314474D01*
X213026Y-312798D01*
X210974Y-311613D01*
X208685Y-311000D01*
X206315D01*
X204026Y-311613D01*
X201974Y-312798D01*
X200298Y-314474D01*
X199113Y-316526D01*
X198500Y-318815D01*
Y-321185D01*
X199113Y-323474D01*
X200298Y-325526D01*
X201919Y-327147D01*
X201910Y-327400D01*
X201343Y-329147D01*
X188657D01*
X188090Y-327400D01*
X188081Y-327147D01*
X189702Y-325526D01*
X190887Y-323474D01*
X191500Y-321185D01*
Y-318815D01*
X190887Y-316526D01*
X189702Y-314474D01*
X188026Y-312798D01*
X185974Y-311613D01*
X183685Y-311000D01*
X181315D01*
X179026Y-311613D01*
X176974Y-312798D01*
X175298Y-314474D01*
X174113Y-316526D01*
X173500Y-318815D01*
Y-321185D01*
X174113Y-323474D01*
X175298Y-325526D01*
X176919Y-327147D01*
X176910Y-327400D01*
X176343Y-329147D01*
X163657D01*
X163090Y-327400D01*
X163081Y-327147D01*
X164702Y-325526D01*
X165887Y-323474D01*
X166500Y-321185D01*
Y-318815D01*
X165887Y-316526D01*
X164702Y-314474D01*
X163026Y-312798D01*
X160974Y-311613D01*
X158685Y-311000D01*
X156315D01*
X154026Y-311613D01*
X151974Y-312798D01*
X150298Y-314474D01*
X149113Y-316526D01*
X148500Y-318815D01*
Y-321185D01*
X149113Y-323474D01*
X150298Y-325526D01*
X151919Y-327147D01*
X151910Y-327400D01*
X151343Y-329147D01*
X138657D01*
X138090Y-327400D01*
X138081Y-327147D01*
X139702Y-325526D01*
X140887Y-323474D01*
X141500Y-321185D01*
Y-318815D01*
X140887Y-316526D01*
X139702Y-314474D01*
X138026Y-312798D01*
X135974Y-311613D01*
X133685Y-311000D01*
X131315D01*
X129026Y-311613D01*
X126974Y-312798D01*
X125298Y-314474D01*
X124113Y-316526D01*
X123500Y-318815D01*
Y-321185D01*
X124113Y-323474D01*
X125298Y-325526D01*
X126919Y-327147D01*
X126910Y-327400D01*
X126343Y-329147D01*
X113657D01*
X113090Y-327400D01*
X113081Y-327147D01*
X114702Y-325526D01*
X115887Y-323474D01*
X116500Y-321185D01*
Y-318815D01*
X115887Y-316526D01*
X114702Y-314474D01*
X113026Y-312798D01*
X110974Y-311613D01*
X108685Y-311000D01*
X106315D01*
X104026Y-311613D01*
X102816Y-312312D01*
X100675Y-311831D01*
X100353Y-311591D01*
X100058Y-310879D01*
X98535Y-308895D01*
X96551Y-307372D01*
X94240Y-306415D01*
X91760Y-306088D01*
X89280Y-306415D01*
X86969Y-307372D01*
X84985Y-308895D01*
X83462Y-310879D01*
X83412Y-311000D01*
X81315D01*
X79026Y-311613D01*
X76974Y-312798D01*
X75298Y-314474D01*
X74113Y-316526D01*
X73500Y-318815D01*
Y-321185D01*
X74113Y-323474D01*
X75298Y-325526D01*
X76919Y-327147D01*
X76909Y-327400D01*
X76343Y-329147D01*
X63657D01*
X63090Y-327400D01*
X63081Y-327147D01*
X64702Y-325526D01*
X65887Y-323474D01*
X66500Y-321185D01*
Y-318815D01*
X65887Y-316526D01*
X64702Y-314474D01*
X63026Y-312798D01*
X60974Y-311613D01*
X58685Y-311000D01*
X56315D01*
X54026Y-311613D01*
X51974Y-312798D01*
X50298Y-314474D01*
X49113Y-316526D01*
X48500Y-318815D01*
Y-321185D01*
X49113Y-323474D01*
X50298Y-325526D01*
X51919Y-327147D01*
X51909Y-327400D01*
X51343Y-329147D01*
X38656D01*
X38090Y-327400D01*
X38081Y-327147D01*
X39702Y-325526D01*
X40887Y-323474D01*
X41500Y-321185D01*
Y-318815D01*
X40887Y-316526D01*
X39702Y-314474D01*
X38026Y-312798D01*
X35974Y-311613D01*
X33685Y-311000D01*
X31315D01*
X29026Y-311613D01*
X26974Y-312798D01*
X25298Y-314474D01*
X24113Y-316526D01*
X23500Y-318815D01*
Y-321185D01*
X24113Y-323474D01*
X25298Y-325526D01*
X26919Y-327147D01*
X26909Y-327400D01*
X26344Y-329147D01*
X15439D01*
X14102Y-327147D01*
X14516Y-326150D01*
X14842Y-323670D01*
Y-315670D01*
X14516Y-313190D01*
X13558Y-310879D01*
X12035Y-308895D01*
X10051Y-307372D01*
X7740Y-306415D01*
X5260Y-306088D01*
X2780Y-306415D01*
X469Y-307372D01*
X-1515Y-308895D01*
X-3038Y-310879D01*
X-3995Y-313190D01*
X-4322Y-315670D01*
Y-323670D01*
X-3995Y-326150D01*
X-3582Y-327147D01*
X-4919Y-329147D01*
X-11343D01*
X-11910Y-327400D01*
X-11919Y-327147D01*
X-10298Y-325526D01*
X-9113Y-323474D01*
X-8500Y-321185D01*
Y-318815D01*
X-9113Y-316526D01*
X-10298Y-314474D01*
X-11974Y-312798D01*
X-14026Y-311613D01*
X-16315Y-311000D01*
X-18685D01*
X-20974Y-311613D01*
X-23026Y-312798D01*
X-24702Y-314474D01*
X-25887Y-316526D01*
X-26500Y-318815D01*
Y-321185D01*
X-25887Y-323474D01*
X-24702Y-325526D01*
X-23081Y-327147D01*
X-23091Y-327400D01*
X-23656Y-329147D01*
X-36344D01*
X-36910Y-327400D01*
X-36919Y-327147D01*
X-35298Y-325526D01*
X-34113Y-323474D01*
X-33500Y-321185D01*
Y-318815D01*
X-34113Y-316526D01*
X-35298Y-314474D01*
X-36974Y-312798D01*
X-39026Y-311613D01*
X-41315Y-311000D01*
X-43685D01*
X-45974Y-311613D01*
X-48026Y-312798D01*
X-49702Y-314474D01*
X-50887Y-316526D01*
X-51500Y-318815D01*
Y-321185D01*
X-50887Y-323474D01*
X-49702Y-325526D01*
X-48081Y-327147D01*
X-48091Y-327400D01*
X-48657Y-329147D01*
X-53550D01*
X-53668Y-329171D01*
X-55462Y-328935D01*
X-57243Y-328197D01*
X-58773Y-327023D01*
X-59947Y-325493D01*
X-60684Y-323712D01*
X-60921Y-321918D01*
X-60897Y-321800D01*
Y-302159D01*
X-58897Y-301331D01*
X-58026Y-302202D01*
X-55974Y-303387D01*
X-53685Y-304000D01*
X-51315D01*
X-49026Y-303387D01*
X-46974Y-302202D01*
X-45298Y-300526D01*
X-44113Y-298474D01*
X-43500Y-296185D01*
Y-293815D01*
X-44113Y-291526D01*
X-45298Y-289474D01*
X-46974Y-287798D01*
X-49026Y-286613D01*
X-51315Y-286000D01*
X-53685D01*
X-55974Y-286613D01*
X-58026Y-287798D01*
X-58897Y-288669D01*
X-60897Y-287841D01*
Y-277159D01*
X-58897Y-276331D01*
X-58026Y-277202D01*
X-55974Y-278387D01*
X-53685Y-279000D01*
X-51315D01*
X-49026Y-278387D01*
X-46974Y-277202D01*
X-45298Y-275526D01*
X-44113Y-273474D01*
X-43500Y-271185D01*
Y-268815D01*
X-44113Y-266526D01*
X-45298Y-264474D01*
X-46974Y-262798D01*
X-49026Y-261613D01*
X-51315Y-261000D01*
X-53685D01*
X-55974Y-261613D01*
X-58026Y-262798D01*
X-58897Y-263669D01*
X-60897Y-262841D01*
Y-252159D01*
X-58897Y-251331D01*
X-58026Y-252202D01*
X-55974Y-253387D01*
X-53685Y-254000D01*
X-51315D01*
X-49026Y-253387D01*
X-46974Y-252202D01*
X-45298Y-250526D01*
X-44113Y-248474D01*
X-43500Y-246185D01*
Y-243815D01*
X-44113Y-241526D01*
X-45298Y-239474D01*
X-46974Y-237798D01*
X-49026Y-236613D01*
X-51315Y-236000D01*
X-53685D01*
X-55974Y-236613D01*
X-58026Y-237798D01*
X-58897Y-238669D01*
X-60897Y-237841D01*
Y-227159D01*
X-58897Y-226331D01*
X-58026Y-227202D01*
X-55974Y-228387D01*
X-53685Y-229000D01*
X-51315D01*
X-49026Y-228387D01*
X-46974Y-227202D01*
X-45298Y-225526D01*
X-44113Y-223474D01*
X-43500Y-221185D01*
Y-218815D01*
X-44113Y-216526D01*
X-45298Y-214474D01*
X-46974Y-212798D01*
X-49026Y-211613D01*
X-51315Y-211000D01*
X-53685D01*
X-55974Y-211613D01*
X-58026Y-212798D01*
X-58897Y-213669D01*
X-60897Y-212841D01*
Y-202159D01*
X-58897Y-201331D01*
X-58026Y-202202D01*
X-55974Y-203387D01*
X-53685Y-204000D01*
X-51315D01*
X-49026Y-203387D01*
X-46974Y-202202D01*
X-45298Y-200526D01*
X-44113Y-198474D01*
X-43500Y-196185D01*
Y-193815D01*
X-44113Y-191526D01*
X-45298Y-189474D01*
X-46974Y-187798D01*
X-49026Y-186613D01*
X-51315Y-186000D01*
X-53685D01*
X-55974Y-186613D01*
X-58026Y-187798D01*
X-58897Y-188669D01*
X-60897Y-187841D01*
Y-177159D01*
X-58897Y-176331D01*
X-58026Y-177202D01*
X-55974Y-178387D01*
X-53685Y-179000D01*
X-51315D01*
X-49026Y-178387D01*
X-46974Y-177202D01*
X-45298Y-175526D01*
X-44113Y-173474D01*
X-43500Y-171185D01*
Y-168815D01*
X-44113Y-166526D01*
X-45298Y-164474D01*
X-46974Y-162798D01*
X-49026Y-161613D01*
X-51315Y-161000D01*
X-53685D01*
X-55974Y-161613D01*
X-58026Y-162798D01*
X-58897Y-163669D01*
X-60897Y-162841D01*
Y-152159D01*
X-58897Y-151331D01*
X-58026Y-152202D01*
X-55974Y-153387D01*
X-53685Y-154000D01*
X-51315D01*
X-49026Y-153387D01*
X-46974Y-152202D01*
X-45298Y-150526D01*
X-44113Y-148474D01*
X-43500Y-146185D01*
Y-143815D01*
X-44113Y-141526D01*
X-45298Y-139474D01*
X-46974Y-137798D01*
X-49026Y-136613D01*
X-51315Y-136000D01*
X-53685D01*
X-55974Y-136613D01*
X-58026Y-137798D01*
X-58897Y-138669D01*
X-60897Y-137841D01*
Y-127159D01*
X-58897Y-126331D01*
X-58026Y-127202D01*
X-55974Y-128387D01*
X-53685Y-129000D01*
X-51315D01*
X-49026Y-128387D01*
X-46974Y-127202D01*
X-45298Y-125526D01*
X-44113Y-123474D01*
X-43500Y-121185D01*
Y-118815D01*
X-44113Y-116526D01*
X-45298Y-114474D01*
X-46974Y-112798D01*
X-49026Y-111613D01*
X-51315Y-111000D01*
X-53685D01*
X-55974Y-111613D01*
X-58026Y-112798D01*
X-58897Y-113669D01*
X-60897Y-112841D01*
Y-102159D01*
X-58897Y-101331D01*
X-58026Y-102202D01*
X-55974Y-103387D01*
X-53685Y-104000D01*
X-51315D01*
X-49026Y-103387D01*
X-46974Y-102202D01*
X-45298Y-100526D01*
X-44113Y-98474D01*
X-43500Y-96185D01*
Y-93815D01*
X-44113Y-91526D01*
X-45298Y-89474D01*
X-46974Y-87798D01*
X-49026Y-86613D01*
X-51315Y-86000D01*
X-53685D01*
X-55974Y-86613D01*
X-58026Y-87798D01*
X-58897Y-88669D01*
X-60897Y-87841D01*
Y-77159D01*
X-58897Y-76331D01*
X-58026Y-77202D01*
X-55974Y-78387D01*
X-53685Y-79000D01*
X-51315D01*
X-49026Y-78387D01*
X-46974Y-77202D01*
X-45298Y-75526D01*
X-44113Y-73474D01*
X-43500Y-71185D01*
Y-68815D01*
X-44113Y-66526D01*
X-45298Y-64474D01*
X-46974Y-62798D01*
X-49026Y-61613D01*
X-51315Y-61000D01*
X-53685D01*
X-55974Y-61613D01*
X-58026Y-62798D01*
X-58897Y-63669D01*
X-60897Y-62841D01*
Y-52159D01*
X-58897Y-51331D01*
X-58026Y-52202D01*
X-55974Y-53387D01*
X-53685Y-54000D01*
X-51315D01*
X-49026Y-53387D01*
X-46974Y-52202D01*
X-45298Y-50526D01*
X-44113Y-48474D01*
X-43500Y-46185D01*
Y-43815D01*
X-44113Y-41526D01*
X-45298Y-39474D01*
X-46974Y-37798D01*
X-49026Y-36613D01*
X-51315Y-36000D01*
X-53685D01*
X-55974Y-36613D01*
X-58026Y-37798D01*
X-58897Y-38669D01*
X-60897Y-37841D01*
Y-27159D01*
X-58897Y-26331D01*
X-58026Y-27202D01*
X-55974Y-28387D01*
X-53685Y-29000D01*
X-51315D01*
X-49026Y-28387D01*
X-46974Y-27202D01*
X-45298Y-25526D01*
X-44113Y-23474D01*
X-43500Y-21185D01*
Y-18815D01*
X-44113Y-16526D01*
X-45298Y-14474D01*
X-46974Y-12798D01*
X-49026Y-11613D01*
X-51315Y-11000D01*
X-53685D01*
X-55974Y-11613D01*
X-58026Y-12798D01*
X-58897Y-13669D01*
X-60897Y-12841D01*
Y-2159D01*
X-58897Y-1331D01*
X-58026Y-2202D01*
X-55974Y-3387D01*
X-53685Y-4000D01*
X-51315D01*
X-49026Y-3387D01*
X-46974Y-2202D01*
X-45298Y-526D01*
X-44113Y1526D01*
X-43500Y3815D01*
Y6185D01*
X-44113Y8474D01*
X-45298Y10526D01*
X-46974Y12202D01*
X-49026Y13387D01*
X-51315Y14000D01*
X-53685D01*
X-55974Y13387D01*
X-58026Y12202D01*
X-58897Y11331D01*
X-60897Y12159D01*
Y22841D01*
X-58897Y23669D01*
X-58026Y22798D01*
X-55974Y21613D01*
X-53685Y21000D01*
X-51315D01*
X-49026Y21613D01*
X-46974Y22798D01*
X-45298Y24474D01*
X-44113Y26526D01*
X-43500Y28815D01*
Y31185D01*
X-44113Y33474D01*
X-45298Y35526D01*
X-46974Y37202D01*
X-49026Y38387D01*
X-51315Y39000D01*
X-53685D01*
X-55974Y38387D01*
X-58026Y37202D01*
X-58897Y36331D01*
X-60897Y37159D01*
Y47841D01*
X-58897Y48669D01*
X-58026Y47798D01*
X-55974Y46613D01*
X-53685Y46000D01*
X-51315D01*
X-49026Y46613D01*
X-46974Y47798D01*
X-45298Y49474D01*
X-44113Y51526D01*
X-43500Y53815D01*
Y56185D01*
X-44113Y58474D01*
X-45298Y60526D01*
X-46974Y62202D01*
X-49026Y63387D01*
X-51315Y64000D01*
X-53685D01*
X-55974Y63387D01*
X-58026Y62202D01*
X-58897Y61331D01*
X-60897Y62159D01*
Y85698D01*
X-58897Y86178D01*
X-56736Y81936D01*
X-53498Y77479D01*
X-49602Y73583D01*
X-45145Y70345D01*
X-40236Y67844D01*
X-34997Y66142D01*
X-29555Y65280D01*
X-24046D01*
X-18605Y66142D01*
X-13366Y67844D01*
X-8457Y70345D01*
X-4000Y73583D01*
X-104Y77479D01*
X3134Y81936D01*
X5635Y86845D01*
X7337Y92084D01*
X8199Y97526D01*
Y103035D01*
X7337Y108476D01*
X5635Y113715D01*
X3134Y118624D01*
X-104Y123081D01*
X-4000Y126976D01*
X-8457Y130215D01*
X-13366Y132716D01*
X-18605Y134418D01*
X-24046Y135280D01*
X-29555D01*
X-34997Y134418D01*
X-40236Y132716D01*
X-45145Y130215D01*
X-49602Y126976D01*
X-53498Y123081D01*
X-56736Y118624D01*
X-58897Y114382D01*
X-60897Y114862D01*
Y158647D01*
X475397D01*
Y114901D01*
D02*
G37*
%LPC*%
G36*
X326005Y133825D02*
X323525Y133498D01*
X321214Y132541D01*
X319230Y131018D01*
X317707Y129034D01*
X316750Y126723D01*
X316423Y124243D01*
Y119243D01*
X316750Y116763D01*
X317707Y114452D01*
X319230Y112467D01*
X321214Y110945D01*
X323525Y109987D01*
X326005Y109661D01*
X328485Y109987D01*
X330796Y110945D01*
X332780Y112467D01*
X334303Y114452D01*
X335261Y116763D01*
X335587Y119243D01*
Y124243D01*
X335261Y126723D01*
X334303Y129034D01*
X332780Y131018D01*
X330796Y132541D01*
X328485Y133498D01*
X326005Y133825D01*
D02*
G37*
G36*
X304415D02*
X301935Y133498D01*
X299624Y132541D01*
X297640Y131018D01*
X296117Y129034D01*
X295160Y126723D01*
X294833Y124243D01*
Y119243D01*
X295160Y116763D01*
X296117Y114452D01*
X297640Y112467D01*
X299624Y110945D01*
X301935Y109987D01*
X304415Y109661D01*
X306895Y109987D01*
X309206Y110945D01*
X311190Y112467D01*
X312713Y114452D01*
X313671Y116763D01*
X313997Y119243D01*
Y124243D01*
X313671Y126723D01*
X312713Y129034D01*
X311190Y131018D01*
X309206Y132541D01*
X306895Y133498D01*
X304415Y133825D01*
D02*
G37*
G36*
X282825D02*
X280345Y133498D01*
X278034Y132541D01*
X276050Y131018D01*
X274527Y129034D01*
X273570Y126723D01*
X273243Y124243D01*
Y119243D01*
X273570Y116763D01*
X274527Y114452D01*
X276050Y112467D01*
X278034Y110945D01*
X280345Y109987D01*
X282825Y109661D01*
X285305Y109987D01*
X287616Y110945D01*
X289601Y112467D01*
X291123Y114452D01*
X292080Y116763D01*
X292407Y119243D01*
Y124243D01*
X292080Y126723D01*
X291123Y129034D01*
X289601Y131018D01*
X287616Y132541D01*
X285305Y133498D01*
X282825Y133825D01*
D02*
G37*
G36*
X261235D02*
X258755Y133498D01*
X256444Y132541D01*
X254460Y131018D01*
X252937Y129034D01*
X251980Y126723D01*
X251653Y124243D01*
Y119243D01*
X251980Y116763D01*
X252937Y114452D01*
X254460Y112467D01*
X256444Y110945D01*
X258755Y109987D01*
X261235Y109661D01*
X263715Y109987D01*
X266026Y110945D01*
X268011Y112467D01*
X269533Y114452D01*
X270490Y116763D01*
X270817Y119243D01*
Y124243D01*
X270490Y126723D01*
X269533Y129034D01*
X268011Y131018D01*
X266026Y132541D01*
X263715Y133498D01*
X261235Y133825D01*
D02*
G37*
G36*
X239645D02*
X237165Y133498D01*
X234854Y132541D01*
X232870Y131018D01*
X231347Y129034D01*
X230390Y126723D01*
X230063Y124243D01*
Y119243D01*
X230390Y116763D01*
X231347Y114452D01*
X232870Y112467D01*
X234854Y110945D01*
X237165Y109987D01*
X239645Y109661D01*
X242125Y109987D01*
X244436Y110945D01*
X246420Y112467D01*
X247943Y114452D01*
X248901Y116763D01*
X249227Y119243D01*
Y124243D01*
X248901Y126723D01*
X247943Y129034D01*
X246420Y131018D01*
X244436Y132541D01*
X242125Y133498D01*
X239645Y133825D01*
D02*
G37*
G36*
X218055D02*
X215575Y133498D01*
X213264Y132541D01*
X211280Y131018D01*
X209757Y129034D01*
X208800Y126723D01*
X208473Y124243D01*
Y119243D01*
X208800Y116763D01*
X209757Y114452D01*
X211280Y112467D01*
X213264Y110945D01*
X215575Y109987D01*
X218055Y109661D01*
X220535Y109987D01*
X222846Y110945D01*
X224830Y112467D01*
X226353Y114452D01*
X227311Y116763D01*
X227637Y119243D01*
Y124243D01*
X227311Y126723D01*
X226353Y129034D01*
X224830Y131018D01*
X222846Y132541D01*
X220535Y133498D01*
X218055Y133825D01*
D02*
G37*
G36*
X196465D02*
X193985Y133498D01*
X191674Y132541D01*
X189690Y131018D01*
X188167Y129034D01*
X187210Y126723D01*
X186883Y124243D01*
Y119243D01*
X187210Y116763D01*
X188167Y114452D01*
X189690Y112467D01*
X191674Y110945D01*
X193985Y109987D01*
X196465Y109661D01*
X198945Y109987D01*
X201256Y110945D01*
X203241Y112467D01*
X204763Y114452D01*
X205721Y116763D01*
X206047Y119243D01*
Y124243D01*
X205721Y126723D01*
X204763Y129034D01*
X203241Y131018D01*
X201256Y132541D01*
X198945Y133498D01*
X196465Y133825D01*
D02*
G37*
G36*
X174875D02*
X172395Y133498D01*
X170084Y132541D01*
X168100Y131018D01*
X166577Y129034D01*
X165620Y126723D01*
X165293Y124243D01*
Y119243D01*
X165620Y116763D01*
X166577Y114452D01*
X168100Y112467D01*
X170084Y110945D01*
X172395Y109987D01*
X174875Y109661D01*
X177355Y109987D01*
X179666Y110945D01*
X181651Y112467D01*
X183173Y114452D01*
X184130Y116763D01*
X184457Y119243D01*
Y124243D01*
X184130Y126723D01*
X183173Y129034D01*
X181651Y131018D01*
X179666Y132541D01*
X177355Y133498D01*
X174875Y133825D01*
D02*
G37*
G36*
X153285D02*
X150805Y133498D01*
X148494Y132541D01*
X146510Y131018D01*
X144987Y129034D01*
X144030Y126723D01*
X143703Y124243D01*
Y119243D01*
X144030Y116763D01*
X144987Y114452D01*
X146510Y112467D01*
X148494Y110945D01*
X150805Y109987D01*
X153285Y109661D01*
X155765Y109987D01*
X158076Y110945D01*
X160061Y112467D01*
X161583Y114452D01*
X162540Y116763D01*
X162867Y119243D01*
Y124243D01*
X162540Y126723D01*
X161583Y129034D01*
X160061Y131018D01*
X158076Y132541D01*
X155765Y133498D01*
X153285Y133825D01*
D02*
G37*
G36*
X131695D02*
X129215Y133498D01*
X126904Y132541D01*
X124920Y131018D01*
X123397Y129034D01*
X122440Y126723D01*
X122113Y124243D01*
Y119243D01*
X122440Y116763D01*
X123397Y114452D01*
X124920Y112467D01*
X126904Y110945D01*
X129215Y109987D01*
X131695Y109661D01*
X134175Y109987D01*
X136486Y110945D01*
X138470Y112467D01*
X139993Y114452D01*
X140950Y116763D01*
X141277Y119243D01*
Y124243D01*
X140950Y126723D01*
X139993Y129034D01*
X138470Y131018D01*
X136486Y132541D01*
X134175Y133498D01*
X131695Y133825D01*
D02*
G37*
G36*
X110105D02*
X107625Y133498D01*
X105314Y132541D01*
X103330Y131018D01*
X101807Y129034D01*
X100850Y126723D01*
X100523Y124243D01*
Y119243D01*
X100850Y116763D01*
X101807Y114452D01*
X103330Y112467D01*
X105314Y110945D01*
X107625Y109987D01*
X110105Y109661D01*
X112585Y109987D01*
X114896Y110945D01*
X116881Y112467D01*
X118403Y114452D01*
X119361Y116763D01*
X119687Y119243D01*
Y124243D01*
X119361Y126723D01*
X118403Y129034D01*
X116881Y131018D01*
X114896Y132541D01*
X112585Y133498D01*
X110105Y133825D01*
D02*
G37*
G36*
X88515D02*
X86035Y133498D01*
X83724Y132541D01*
X81740Y131018D01*
X80217Y129034D01*
X79260Y126723D01*
X78933Y124243D01*
Y119243D01*
X79260Y116763D01*
X80217Y114452D01*
X81740Y112467D01*
X83724Y110945D01*
X86035Y109987D01*
X88515Y109661D01*
X90995Y109987D01*
X93306Y110945D01*
X95290Y112467D01*
X96813Y114452D01*
X97771Y116763D01*
X98097Y119243D01*
Y124243D01*
X97771Y126723D01*
X96813Y129034D01*
X95290Y131018D01*
X93306Y132541D01*
X90995Y133498D01*
X88515Y133825D01*
D02*
G37*
G36*
X326005Y90899D02*
X323525Y90573D01*
X321214Y89615D01*
X319230Y88092D01*
X317707Y86108D01*
X316750Y83797D01*
X316423Y81317D01*
Y76317D01*
X316750Y73837D01*
X317707Y71526D01*
X319230Y69542D01*
X321214Y68019D01*
X323525Y67062D01*
X326005Y66735D01*
X328485Y67062D01*
X330796Y68019D01*
X332780Y69542D01*
X334303Y71526D01*
X335261Y73837D01*
X335587Y76317D01*
Y81317D01*
X335261Y83797D01*
X334303Y86108D01*
X332780Y88092D01*
X330796Y89615D01*
X328485Y90573D01*
X326005Y90899D01*
D02*
G37*
G36*
X304415D02*
X301935Y90573D01*
X299624Y89615D01*
X297640Y88092D01*
X296117Y86108D01*
X295160Y83797D01*
X294833Y81317D01*
Y76317D01*
X295160Y73837D01*
X296117Y71526D01*
X297640Y69542D01*
X299624Y68019D01*
X301935Y67062D01*
X304415Y66735D01*
X306895Y67062D01*
X309206Y68019D01*
X311190Y69542D01*
X312713Y71526D01*
X313671Y73837D01*
X313997Y76317D01*
Y81317D01*
X313671Y83797D01*
X312713Y86108D01*
X311190Y88092D01*
X309206Y89615D01*
X306895Y90573D01*
X304415Y90899D01*
D02*
G37*
G36*
X282825D02*
X280345Y90573D01*
X278034Y89615D01*
X276050Y88092D01*
X274527Y86108D01*
X273570Y83797D01*
X273243Y81317D01*
Y76317D01*
X273570Y73837D01*
X274527Y71526D01*
X276050Y69542D01*
X278034Y68019D01*
X280345Y67062D01*
X282825Y66735D01*
X285305Y67062D01*
X287616Y68019D01*
X289601Y69542D01*
X291123Y71526D01*
X292080Y73837D01*
X292407Y76317D01*
Y81317D01*
X292080Y83797D01*
X291123Y86108D01*
X289601Y88092D01*
X287616Y89615D01*
X285305Y90573D01*
X282825Y90899D01*
D02*
G37*
G36*
X261235D02*
X258755Y90573D01*
X256444Y89615D01*
X254460Y88092D01*
X252937Y86108D01*
X251980Y83797D01*
X251653Y81317D01*
Y76317D01*
X251980Y73837D01*
X252937Y71526D01*
X254460Y69542D01*
X256444Y68019D01*
X258755Y67062D01*
X261235Y66735D01*
X263715Y67062D01*
X266026Y68019D01*
X268011Y69542D01*
X269533Y71526D01*
X270490Y73837D01*
X270817Y76317D01*
Y81317D01*
X270490Y83797D01*
X269533Y86108D01*
X268011Y88092D01*
X266026Y89615D01*
X263715Y90573D01*
X261235Y90899D01*
D02*
G37*
G36*
X239645D02*
X237165Y90573D01*
X234854Y89615D01*
X232870Y88092D01*
X231347Y86108D01*
X230390Y83797D01*
X230063Y81317D01*
Y76317D01*
X230390Y73837D01*
X231347Y71526D01*
X232870Y69542D01*
X234854Y68019D01*
X237165Y67062D01*
X239645Y66735D01*
X242125Y67062D01*
X244436Y68019D01*
X246420Y69542D01*
X247943Y71526D01*
X248901Y73837D01*
X249227Y76317D01*
Y81317D01*
X248901Y83797D01*
X247943Y86108D01*
X246420Y88092D01*
X244436Y89615D01*
X242125Y90573D01*
X239645Y90899D01*
D02*
G37*
G36*
X218055D02*
X215575Y90573D01*
X213264Y89615D01*
X211280Y88092D01*
X209757Y86108D01*
X208800Y83797D01*
X208473Y81317D01*
Y76317D01*
X208800Y73837D01*
X209757Y71526D01*
X211280Y69542D01*
X213264Y68019D01*
X215575Y67062D01*
X218055Y66735D01*
X220535Y67062D01*
X222846Y68019D01*
X224830Y69542D01*
X226353Y71526D01*
X227311Y73837D01*
X227637Y76317D01*
Y81317D01*
X227311Y83797D01*
X226353Y86108D01*
X224830Y88092D01*
X222846Y89615D01*
X220535Y90573D01*
X218055Y90899D01*
D02*
G37*
G36*
X196465D02*
X193985Y90573D01*
X191674Y89615D01*
X189690Y88092D01*
X188167Y86108D01*
X187210Y83797D01*
X186883Y81317D01*
Y76317D01*
X187210Y73837D01*
X188167Y71526D01*
X189690Y69542D01*
X191674Y68019D01*
X193985Y67062D01*
X196465Y66735D01*
X198945Y67062D01*
X201256Y68019D01*
X203241Y69542D01*
X204763Y71526D01*
X205721Y73837D01*
X206047Y76317D01*
Y81317D01*
X205721Y83797D01*
X204763Y86108D01*
X203241Y88092D01*
X201256Y89615D01*
X198945Y90573D01*
X196465Y90899D01*
D02*
G37*
G36*
X174875D02*
X172395Y90573D01*
X170084Y89615D01*
X168100Y88092D01*
X166577Y86108D01*
X165620Y83797D01*
X165293Y81317D01*
Y76317D01*
X165620Y73837D01*
X166577Y71526D01*
X168100Y69542D01*
X170084Y68019D01*
X172395Y67062D01*
X174875Y66735D01*
X177355Y67062D01*
X179666Y68019D01*
X181651Y69542D01*
X183173Y71526D01*
X184130Y73837D01*
X184457Y76317D01*
Y81317D01*
X184130Y83797D01*
X183173Y86108D01*
X181651Y88092D01*
X179666Y89615D01*
X177355Y90573D01*
X174875Y90899D01*
D02*
G37*
G36*
X153285D02*
X150805Y90573D01*
X148494Y89615D01*
X146510Y88092D01*
X144987Y86108D01*
X144030Y83797D01*
X143703Y81317D01*
Y76317D01*
X144030Y73837D01*
X144987Y71526D01*
X146510Y69542D01*
X148494Y68019D01*
X150805Y67062D01*
X153285Y66735D01*
X155765Y67062D01*
X158076Y68019D01*
X160061Y69542D01*
X161583Y71526D01*
X162540Y73837D01*
X162867Y76317D01*
Y81317D01*
X162540Y83797D01*
X161583Y86108D01*
X160061Y88092D01*
X158076Y89615D01*
X155765Y90573D01*
X153285Y90899D01*
D02*
G37*
G36*
X131695D02*
X129215Y90573D01*
X126904Y89615D01*
X124920Y88092D01*
X123397Y86108D01*
X122440Y83797D01*
X122113Y81317D01*
Y76317D01*
X122440Y73837D01*
X123397Y71526D01*
X124920Y69542D01*
X126904Y68019D01*
X129215Y67062D01*
X131695Y66735D01*
X134175Y67062D01*
X136486Y68019D01*
X138470Y69542D01*
X139993Y71526D01*
X140950Y73837D01*
X141277Y76317D01*
Y81317D01*
X140950Y83797D01*
X139993Y86108D01*
X138470Y88092D01*
X136486Y89615D01*
X134175Y90573D01*
X131695Y90899D01*
D02*
G37*
G36*
X88515Y93925D02*
X85252Y93495D01*
X82211Y92236D01*
X79600Y90232D01*
X77596Y87621D01*
X76337Y84580D01*
X75907Y81317D01*
Y76317D01*
X76337Y73054D01*
X77596Y70013D01*
X79600Y67402D01*
X82211Y65398D01*
X85252Y64139D01*
X88515Y63709D01*
X91778Y64139D01*
X94819Y65398D01*
X97430Y67402D01*
X99434Y70013D01*
X99851Y71021D01*
X100710Y71243D01*
X102079Y71172D01*
X103330Y69542D01*
X105314Y68019D01*
X107625Y67062D01*
X110105Y66735D01*
X112585Y67062D01*
X114896Y68019D01*
X116881Y69542D01*
X118403Y71526D01*
X119361Y73837D01*
X119687Y76317D01*
Y81317D01*
X119361Y83797D01*
X118403Y86108D01*
X116881Y88092D01*
X114896Y89615D01*
X112585Y90573D01*
X110105Y90899D01*
X107625Y90573D01*
X105314Y89615D01*
X103330Y88092D01*
X102079Y86462D01*
X100710Y86391D01*
X99851Y86613D01*
X99434Y87621D01*
X97430Y90232D01*
X94819Y92236D01*
X91778Y93495D01*
X88515Y93925D01*
D02*
G37*
G36*
X237663Y46590D02*
X235277D01*
X233071Y45676D01*
X231383Y43989D01*
X231202Y43552D01*
X229038D01*
X228857Y43989D01*
X227169Y45676D01*
X224963Y46590D01*
X222577D01*
X220371Y45676D01*
X218683Y43989D01*
X218502Y43552D01*
X216338D01*
X216157Y43989D01*
X214469Y45676D01*
X212264Y46590D01*
X209876D01*
X207671Y45676D01*
X205984Y43989D01*
X205802Y43552D01*
X203638D01*
X203457Y43989D01*
X201769Y45676D01*
X199564Y46590D01*
X197176D01*
X194971Y45676D01*
X193284Y43989D01*
X192370Y41783D01*
Y39397D01*
X193284Y37191D01*
X194971Y35503D01*
X197176Y34590D01*
X199564D01*
X201769Y35503D01*
X203457Y37191D01*
X203638Y37628D01*
X205802D01*
X205984Y37191D01*
X207671Y35503D01*
X209876Y34590D01*
X212264D01*
X214469Y35503D01*
X216157Y37191D01*
X216338Y37628D01*
X218502D01*
X218683Y37191D01*
X220371Y35503D01*
X222577Y34590D01*
X224963D01*
X227169Y35503D01*
X228857Y37191D01*
X229038Y37628D01*
X231202D01*
X231383Y37191D01*
X233071Y35503D01*
X235277Y34590D01*
X237663D01*
X239869Y35503D01*
X241557Y37191D01*
X242470Y39397D01*
Y41783D01*
X241557Y43989D01*
X239869Y45676D01*
X237663Y46590D01*
D02*
G37*
G36*
X451250Y32599D02*
X435250D01*
X434274Y32405D01*
X433448Y31852D01*
X432895Y31025D01*
X432701Y30050D01*
Y14050D01*
X432895Y13075D01*
X433448Y12248D01*
X434274Y11695D01*
X435250Y11501D01*
X451250D01*
X452225Y11695D01*
X453052Y12248D01*
X453605Y13075D01*
X453799Y14050D01*
Y30050D01*
X453605Y31025D01*
X453052Y31852D01*
X452225Y32405D01*
X451250Y32599D01*
D02*
G37*
G36*
X301194Y2142D02*
X298806D01*
X296601Y1229D01*
X294914Y-459D01*
X294000Y-2664D01*
Y-5051D01*
X294914Y-7257D01*
X296601Y-8944D01*
X298806Y-9858D01*
X301194D01*
X303399Y-8944D01*
X305087Y-7257D01*
X305252Y-6857D01*
X307417D01*
X307584Y-7259D01*
X309271Y-8947D01*
X311477Y-9860D01*
X313864D01*
X316069Y-8947D01*
X317757Y-7259D01*
X317938Y-6822D01*
X320102D01*
X320284Y-7259D01*
X321971Y-8946D01*
X324176Y-9860D01*
X326563D01*
X328769Y-8946D01*
X330457Y-7259D01*
X330638Y-6822D01*
X332802D01*
X332984Y-7259D01*
X334671Y-8947D01*
X336876Y-9860D01*
X339263D01*
X341469Y-8947D01*
X343157Y-7259D01*
X343338Y-6822D01*
X345502D01*
X345684Y-7259D01*
X347371Y-8947D01*
X349576Y-9860D01*
X351964D01*
X354169Y-8947D01*
X355857Y-7259D01*
X356770Y-5053D01*
Y-2666D01*
X355857Y-461D01*
X354169Y1226D01*
X351964Y2140D01*
X349576D01*
X347371Y1226D01*
X345684Y-461D01*
X345502Y-898D01*
X343338D01*
X343157Y-461D01*
X341469Y1226D01*
X339263Y2140D01*
X336876D01*
X334671Y1226D01*
X332984Y-461D01*
X332802Y-898D01*
X330638D01*
X330457Y-461D01*
X328769Y1227D01*
X326563Y2140D01*
X324176D01*
X321971Y1227D01*
X320284Y-461D01*
X320102Y-898D01*
X317938D01*
X317757Y-461D01*
X316069Y1226D01*
X313864Y2140D01*
X311477D01*
X309271Y1226D01*
X307584Y-461D01*
X307418Y-861D01*
X305253D01*
X305087Y-459D01*
X303399Y1229D01*
X301194Y2142D01*
D02*
G37*
G36*
X136063Y2140D02*
X133677D01*
X131471Y1226D01*
X129783Y-461D01*
X128870Y-2666D01*
Y-5053D01*
X129783Y-7259D01*
X131471Y-8947D01*
X133677Y-9860D01*
X136063D01*
X138269Y-8947D01*
X139957Y-7259D01*
X140870Y-5053D01*
Y-2666D01*
X139957Y-461D01*
X138269Y1226D01*
X136063Y2140D01*
D02*
G37*
G36*
X275763Y870D02*
X273377D01*
X271171Y-44D01*
X269484Y-1731D01*
X268570Y-3936D01*
Y-6324D01*
X269484Y-8529D01*
X271171Y-10217D01*
X273377Y-11130D01*
X275763D01*
X277969Y-10217D01*
X279657Y-8529D01*
X280570Y-6324D01*
Y-3936D01*
X279657Y-1731D01*
X277969Y-44D01*
X275763Y870D01*
D02*
G37*
G36*
X405303Y-13100D02*
X402916D01*
X400711Y-14014D01*
X399024Y-15701D01*
X398110Y-17907D01*
Y-20294D01*
X399024Y-22499D01*
X400711Y-24187D01*
X402916Y-25100D01*
X405303D01*
X407509Y-24187D01*
X409197Y-22499D01*
X410110Y-20294D01*
Y-17907D01*
X409197Y-15701D01*
X407509Y-14014D01*
X405303Y-13100D01*
D02*
G37*
G36*
X253444Y-17000D02*
X251056D01*
X248851Y-17914D01*
X247163Y-19601D01*
X246250Y-21806D01*
Y-24193D01*
X247163Y-26399D01*
X248851Y-28087D01*
X251056Y-29000D01*
X253444D01*
X255649Y-28087D01*
X257337Y-26399D01*
X258250Y-24193D01*
Y-21806D01*
X257337Y-19601D01*
X255649Y-17914D01*
X253444Y-17000D01*
D02*
G37*
G36*
X444632Y-18250D02*
X441868D01*
X439197Y-18966D01*
X436803Y-20348D01*
X434848Y-22303D01*
X433466Y-24697D01*
X432750Y-27368D01*
Y-30132D01*
X433466Y-32803D01*
X434848Y-35197D01*
X436803Y-37152D01*
X439197Y-38534D01*
X441868Y-39250D01*
X444632D01*
X447303Y-38534D01*
X449697Y-37152D01*
X451652Y-35197D01*
X453034Y-32803D01*
X453750Y-30132D01*
Y-27368D01*
X453034Y-24697D01*
X451652Y-22303D01*
X449697Y-20348D01*
X447303Y-18966D01*
X444632Y-18250D01*
D02*
G37*
G36*
X301164Y-38500D02*
X298776D01*
X296571Y-39413D01*
X294883Y-41101D01*
X293970Y-43306D01*
Y-45693D01*
X294883Y-47899D01*
X296571Y-49587D01*
X298776Y-50500D01*
X301164D01*
X303369Y-49587D01*
X305057Y-47899D01*
X305970Y-45693D01*
Y-43306D01*
X305057Y-41101D01*
X303369Y-39413D01*
X301164Y-38500D01*
D02*
G37*
G36*
X250194Y-52500D02*
X247806D01*
X245601Y-53414D01*
X243913Y-55101D01*
X243832Y-55297D01*
X241668D01*
X241587Y-55101D01*
X239899Y-53414D01*
X237694Y-52500D01*
X235306D01*
X233101Y-53414D01*
X231413Y-55101D01*
X231082Y-55901D01*
X228918D01*
X228587Y-55101D01*
X226899Y-53414D01*
X224694Y-52500D01*
X222306D01*
X220101Y-53414D01*
X218414Y-55101D01*
X217500Y-57306D01*
Y-59693D01*
X218414Y-61899D01*
X220101Y-63587D01*
X222306Y-64500D01*
X224694D01*
X226899Y-63587D01*
X228587Y-61899D01*
X228918Y-61100D01*
X231082D01*
X231413Y-61899D01*
X233101Y-63587D01*
X235306Y-64500D01*
X237694D01*
X239899Y-63587D01*
X241587Y-61899D01*
X241668Y-61703D01*
X243832D01*
X243913Y-61899D01*
X245601Y-63587D01*
X247806Y-64500D01*
X250194D01*
X252399Y-63587D01*
X254087Y-61899D01*
X255000Y-59693D01*
Y-57306D01*
X254087Y-55101D01*
X252399Y-53414D01*
X250194Y-52500D01*
D02*
G37*
G36*
X199193D02*
X196807D01*
X194601Y-53414D01*
X192913Y-55101D01*
X192832Y-55297D01*
X190668D01*
X190587Y-55101D01*
X188899Y-53414D01*
X186693Y-52500D01*
X184307D01*
X182101Y-53414D01*
X180413Y-55101D01*
X180332Y-55297D01*
X178168D01*
X178087Y-55101D01*
X176399Y-53414D01*
X174193Y-52500D01*
X171807D01*
X169601Y-53414D01*
X167913Y-55101D01*
X167582Y-55901D01*
X165418D01*
X165087Y-55101D01*
X163399Y-53414D01*
X161194Y-52500D01*
X158806D01*
X156601Y-53414D01*
X154914Y-55101D01*
X154000Y-57306D01*
Y-59693D01*
X154914Y-61899D01*
X156601Y-63587D01*
X158806Y-64500D01*
X161194D01*
X163399Y-63587D01*
X165087Y-61899D01*
X165418Y-61100D01*
X167582D01*
X167913Y-61899D01*
X169601Y-63587D01*
X171807Y-64500D01*
X174193D01*
X176399Y-63587D01*
X178087Y-61899D01*
X178168Y-61703D01*
X180332D01*
X180413Y-61899D01*
X182101Y-63587D01*
X184307Y-64500D01*
X186693D01*
X188899Y-63587D01*
X190587Y-61899D01*
X190668Y-61703D01*
X192832D01*
X192913Y-61899D01*
X194601Y-63587D01*
X196807Y-64500D01*
X199193D01*
X201399Y-63587D01*
X203087Y-61899D01*
X204000Y-59693D01*
Y-57306D01*
X203087Y-55101D01*
X201399Y-53414D01*
X199193Y-52500D01*
D02*
G37*
G36*
X136444Y-52250D02*
X134057D01*
X131851Y-53163D01*
X130163Y-54851D01*
X129250Y-57056D01*
Y-59443D01*
X130163Y-61649D01*
X131851Y-63337D01*
X134057Y-64250D01*
X136444D01*
X138649Y-63337D01*
X140337Y-61649D01*
X141250Y-59443D01*
Y-57056D01*
X140337Y-54851D01*
X138649Y-53163D01*
X136444Y-52250D01*
D02*
G37*
G36*
X444632Y-43650D02*
X441867D01*
X439197Y-44366D01*
X436803Y-45748D01*
X434848Y-47703D01*
X433465Y-50097D01*
X432750Y-52768D01*
Y-55532D01*
X433465Y-58203D01*
X434848Y-60597D01*
X436803Y-62552D01*
X439197Y-63934D01*
X441867Y-64650D01*
X444632D01*
X447303Y-63934D01*
X449697Y-62552D01*
X451652Y-60597D01*
X453034Y-58203D01*
X453750Y-55532D01*
Y-52768D01*
X453034Y-50097D01*
X451652Y-47703D01*
X449697Y-45748D01*
X447303Y-44366D01*
X444632Y-43650D01*
D02*
G37*
G36*
X444632Y-69050D02*
X441868D01*
X439197Y-69766D01*
X436803Y-71148D01*
X434848Y-73103D01*
X433465Y-75497D01*
X432750Y-78168D01*
Y-80932D01*
X433465Y-83603D01*
X434848Y-85997D01*
X436803Y-87952D01*
X439197Y-89334D01*
X441868Y-90050D01*
X444632D01*
X447303Y-89334D01*
X449697Y-87952D01*
X451652Y-85997D01*
X453034Y-83603D01*
X453750Y-80932D01*
Y-78168D01*
X453034Y-75497D01*
X451652Y-73103D01*
X449697Y-71148D01*
X447303Y-69766D01*
X444632Y-69050D01*
D02*
G37*
G36*
X199443Y-87250D02*
X197057D01*
X194851Y-88163D01*
X193163Y-89851D01*
X192250Y-92057D01*
Y-94444D01*
X193163Y-96649D01*
X194851Y-98337D01*
X197057Y-99250D01*
X199443D01*
X201649Y-98337D01*
X203337Y-96649D01*
X204250Y-94444D01*
Y-92057D01*
X203337Y-89851D01*
X201649Y-88163D01*
X199443Y-87250D01*
D02*
G37*
G36*
X230944Y-87500D02*
X228556D01*
X226351Y-88413D01*
X224664Y-90101D01*
X223750Y-92306D01*
Y-94693D01*
X224664Y-96899D01*
X226351Y-98587D01*
X228556Y-99500D01*
X230944D01*
X233149Y-98587D01*
X234837Y-96899D01*
X235750Y-94693D01*
Y-92306D01*
X234837Y-90101D01*
X233149Y-88413D01*
X230944Y-87500D01*
D02*
G37*
G36*
X444632Y-94450D02*
X441868D01*
X439197Y-95166D01*
X436803Y-96548D01*
X434848Y-98503D01*
X433465Y-100897D01*
X432750Y-103568D01*
Y-106332D01*
X433465Y-109003D01*
X434848Y-111397D01*
X436803Y-113352D01*
X439197Y-114734D01*
X441868Y-115450D01*
X444632D01*
X447303Y-114734D01*
X449697Y-113352D01*
X451652Y-111397D01*
X453034Y-109003D01*
X453750Y-106332D01*
Y-103568D01*
X453034Y-100897D01*
X451652Y-98503D01*
X449697Y-96548D01*
X447303Y-95166D01*
X444632Y-94450D01*
D02*
G37*
G36*
X260194Y-104250D02*
X257806D01*
X255601Y-105163D01*
X253913Y-106851D01*
X253000Y-109057D01*
Y-111444D01*
X253913Y-113649D01*
X255601Y-115337D01*
X257806Y-116250D01*
X260194D01*
X262399Y-115337D01*
X264086Y-113649D01*
X265000Y-111444D01*
Y-109057D01*
X264086Y-106851D01*
X262399Y-105163D01*
X260194Y-104250D01*
D02*
G37*
G36*
X236444Y-104750D02*
X234056D01*
X231851Y-105663D01*
X230163Y-107351D01*
X229250Y-109557D01*
Y-111944D01*
X230163Y-114149D01*
X231851Y-115836D01*
X234056Y-116750D01*
X236444D01*
X238649Y-115836D01*
X240337Y-114149D01*
X241250Y-111944D01*
Y-109557D01*
X240337Y-107351D01*
X238649Y-105663D01*
X236444Y-104750D01*
D02*
G37*
G36*
X142193Y-113250D02*
X139806D01*
X137601Y-114163D01*
X135913Y-115851D01*
X135000Y-118056D01*
Y-120443D01*
X135913Y-122649D01*
X137601Y-124337D01*
X139806Y-125250D01*
X142193D01*
X144399Y-124337D01*
X146087Y-122649D01*
X147000Y-120443D01*
Y-118056D01*
X146087Y-115851D01*
X144399Y-114163D01*
X142193Y-113250D01*
D02*
G37*
G36*
X415443Y-116500D02*
X413056D01*
X410851Y-117414D01*
X409163Y-119101D01*
X408250Y-121306D01*
Y-123694D01*
X409163Y-125899D01*
X410851Y-127587D01*
X413056Y-128500D01*
X415443D01*
X417649Y-127587D01*
X419337Y-125899D01*
X420250Y-123694D01*
Y-121306D01*
X419337Y-119101D01*
X417649Y-117414D01*
X415443Y-116500D01*
D02*
G37*
G36*
X188193Y-116750D02*
X185807D01*
X183601Y-117663D01*
X181914Y-119351D01*
X181000Y-121557D01*
Y-123943D01*
X181914Y-126149D01*
X183601Y-127837D01*
X185807Y-128750D01*
X188193D01*
X190399Y-127837D01*
X192087Y-126149D01*
X193000Y-123943D01*
Y-121557D01*
X192087Y-119351D01*
X190399Y-117663D01*
X188193Y-116750D01*
D02*
G37*
G36*
X216444Y-133500D02*
X214056D01*
X211851Y-134413D01*
X210163Y-136101D01*
X209250Y-138307D01*
Y-140694D01*
X210163Y-142899D01*
X211851Y-144587D01*
X214056Y-145500D01*
X216444D01*
X218649Y-144587D01*
X220336Y-142899D01*
X221250Y-140694D01*
Y-138307D01*
X220336Y-136101D01*
X218649Y-134413D01*
X216444Y-133500D01*
D02*
G37*
G36*
X81194Y-141750D02*
X78807D01*
X76601Y-142663D01*
X74913Y-144351D01*
X74000Y-146557D01*
Y-148944D01*
X74913Y-151149D01*
X76601Y-152837D01*
X78807Y-153750D01*
X81194D01*
X83399Y-152837D01*
X85086Y-151149D01*
X86000Y-148944D01*
Y-146557D01*
X85086Y-144351D01*
X83399Y-142663D01*
X81194Y-141750D01*
D02*
G37*
G36*
X191943Y-145500D02*
X189557D01*
X187351Y-146413D01*
X185664Y-148101D01*
X184750Y-150307D01*
Y-152694D01*
X185664Y-154899D01*
X187351Y-156587D01*
X189557Y-157500D01*
X191943D01*
X194149Y-156587D01*
X195837Y-154899D01*
X196750Y-152694D01*
Y-150307D01*
X195837Y-148101D01*
X194149Y-146413D01*
X191943Y-145500D01*
D02*
G37*
G36*
X178944Y-155750D02*
X176556D01*
X174351Y-156663D01*
X172663Y-158351D01*
X171750Y-160557D01*
Y-162943D01*
X172663Y-165149D01*
X174351Y-166836D01*
X176556Y-167750D01*
X178944D01*
X181149Y-166836D01*
X182836Y-165149D01*
X183750Y-162943D01*
Y-160557D01*
X182836Y-158351D01*
X181149Y-156663D01*
X178944Y-155750D01*
D02*
G37*
G36*
X288463Y-157880D02*
X286077D01*
X283871Y-158793D01*
X282183Y-160481D01*
X281270Y-162687D01*
Y-165074D01*
X282183Y-167279D01*
X283871Y-168967D01*
X286077Y-169880D01*
X288463D01*
X290669Y-168967D01*
X292357Y-167279D01*
X293270Y-165074D01*
Y-162687D01*
X292357Y-160481D01*
X290669Y-158793D01*
X288463Y-157880D01*
D02*
G37*
G36*
X130943Y-162500D02*
X128556D01*
X126351Y-163413D01*
X124663Y-165101D01*
X123750Y-167306D01*
Y-169694D01*
X124663Y-171899D01*
X126351Y-173587D01*
X128556Y-174500D01*
X130943D01*
X133149Y-173587D01*
X134837Y-171899D01*
X135750Y-169694D01*
Y-167306D01*
X134837Y-165101D01*
X133149Y-163413D01*
X130943Y-162500D01*
D02*
G37*
G36*
X358943Y-165500D02*
X356557D01*
X354351Y-166413D01*
X352663Y-168101D01*
X351750Y-170306D01*
Y-172694D01*
X352663Y-174899D01*
X354351Y-176587D01*
X356557Y-177500D01*
X358943D01*
X361149Y-176587D01*
X362837Y-174899D01*
X363750Y-172694D01*
Y-170306D01*
X362837Y-168101D01*
X361149Y-166413D01*
X358943Y-165500D01*
D02*
G37*
G36*
X341944Y-166000D02*
X339557D01*
X337351Y-166914D01*
X335663Y-168601D01*
X334750Y-170807D01*
Y-173193D01*
X335663Y-175399D01*
X335989Y-175725D01*
X335930Y-176481D01*
X335195Y-177899D01*
X334517Y-178020D01*
X334318Y-177833D01*
X333899Y-177413D01*
X331693Y-176500D01*
X329306D01*
X327101Y-177413D01*
X325500Y-179015D01*
X323899Y-177413D01*
X321693Y-176500D01*
X319307D01*
X317101Y-177413D01*
X315413Y-179101D01*
X314500Y-181306D01*
Y-183694D01*
X315413Y-185899D01*
X317101Y-187586D01*
X319307Y-188500D01*
X321693D01*
X323899Y-187586D01*
X325500Y-185985D01*
X327101Y-187586D01*
X329306Y-188500D01*
X331693D01*
X333899Y-187586D01*
X334318Y-187167D01*
X335625Y-185935D01*
X336932Y-187167D01*
X337351Y-187586D01*
X339557Y-188500D01*
X341944D01*
X344149Y-187586D01*
X345836Y-185899D01*
X346750Y-183694D01*
Y-181306D01*
X345836Y-179101D01*
X345292Y-178557D01*
X344276Y-177250D01*
X345292Y-175943D01*
X345836Y-175399D01*
X346750Y-173193D01*
Y-170807D01*
X345836Y-168601D01*
X344149Y-166914D01*
X341944Y-166000D01*
D02*
G37*
G36*
X326563Y-147720D02*
X324176D01*
X321971Y-148633D01*
X320284Y-150321D01*
X319370Y-152527D01*
Y-153492D01*
X319023Y-154993D01*
X317522Y-155340D01*
X316556D01*
X314351Y-156253D01*
X312663Y-157941D01*
X311750Y-160147D01*
Y-161112D01*
X311404Y-162614D01*
X309902Y-162960D01*
X308937D01*
X306731Y-163874D01*
X305044Y-165561D01*
X304130Y-167766D01*
Y-168732D01*
X303783Y-170233D01*
X302282Y-170580D01*
X301317D01*
X299111Y-171493D01*
X297423Y-173181D01*
X296510Y-175387D01*
Y-176352D01*
X296164Y-177854D01*
X294662Y-178200D01*
X293696D01*
X291491Y-179114D01*
X289804Y-180801D01*
X288890Y-183006D01*
Y-183972D01*
X288543Y-185473D01*
X287042Y-185820D01*
X286077D01*
X283871Y-186733D01*
X282316Y-188288D01*
X282183Y-188421D01*
X280539Y-187452D01*
X280567Y-187386D01*
X280750Y-186943D01*
Y-184557D01*
X279837Y-182351D01*
X278149Y-180664D01*
X275944Y-179750D01*
X273557D01*
X271351Y-180664D01*
X269664Y-182351D01*
X268750Y-184557D01*
Y-186943D01*
X269664Y-189149D01*
X271351Y-190837D01*
X273557Y-191750D01*
X275944D01*
X278149Y-190837D01*
X279704Y-189282D01*
X279837Y-189149D01*
X281481Y-190118D01*
X281453Y-190184D01*
X281270Y-190627D01*
Y-193013D01*
X282183Y-195219D01*
X283871Y-196907D01*
X286077Y-197820D01*
X288463D01*
X290669Y-196907D01*
X292357Y-195219D01*
X293270Y-193013D01*
Y-192048D01*
X293617Y-190547D01*
X295118Y-190200D01*
X296084D01*
X298289Y-189287D01*
X299977Y-187599D01*
X300890Y-185394D01*
Y-184428D01*
X301237Y-182927D01*
X302738Y-182580D01*
X303703D01*
X305909Y-181667D01*
X307597Y-179979D01*
X308510Y-177773D01*
Y-176808D01*
X308857Y-175307D01*
X310358Y-174960D01*
X311324D01*
X313529Y-174047D01*
X315217Y-172359D01*
X316130Y-170154D01*
Y-169188D01*
X316477Y-167687D01*
X317978Y-167340D01*
X318944D01*
X321149Y-166427D01*
X322837Y-164739D01*
X323750Y-162533D01*
Y-161568D01*
X324097Y-160067D01*
X325598Y-159720D01*
X326563D01*
X328769Y-158807D01*
X330457Y-157119D01*
X331370Y-154914D01*
Y-152527D01*
X330457Y-150321D01*
X328769Y-148633D01*
X326563Y-147720D01*
D02*
G37*
G36*
X178944Y-177000D02*
X176556D01*
X174351Y-177913D01*
X172663Y-179601D01*
X171750Y-181807D01*
Y-184193D01*
X172663Y-186399D01*
X173752Y-187487D01*
X174134Y-188768D01*
X173741Y-189999D01*
X172639Y-191101D01*
X171726Y-193307D01*
Y-195693D01*
X172639Y-197899D01*
X174327Y-199587D01*
X176532Y-200500D01*
X178919D01*
X181124Y-199587D01*
X182812Y-197899D01*
X183725Y-195693D01*
Y-193307D01*
X182812Y-191101D01*
X181724Y-190013D01*
X181341Y-188732D01*
X181734Y-187501D01*
X182836Y-186399D01*
X183750Y-184193D01*
Y-181807D01*
X182836Y-179601D01*
X181149Y-177913D01*
X178944Y-177000D01*
D02*
G37*
G36*
X4193Y-191750D02*
X1806D01*
X-399Y-192663D01*
X-2087Y-194351D01*
X-3000Y-196556D01*
Y-198944D01*
X-2087Y-201149D01*
X-399Y-202837D01*
X1806Y-203750D01*
X4193D01*
X6399Y-202837D01*
X8087Y-201149D01*
X9000Y-198944D01*
Y-196556D01*
X8087Y-194351D01*
X6399Y-192663D01*
X4193Y-191750D01*
D02*
G37*
G36*
X227502Y-196192D02*
X225115D01*
X222910Y-197105D01*
X221222Y-198793D01*
X220308Y-200998D01*
Y-203385D01*
X221222Y-205590D01*
X222910Y-207278D01*
X225115Y-208192D01*
X227502D01*
X229707Y-207278D01*
X231395Y-205590D01*
X232308Y-203385D01*
Y-200998D01*
X231395Y-198793D01*
X229707Y-197105D01*
X227502Y-196192D01*
D02*
G37*
G36*
X310443Y-189750D02*
X308057D01*
X305851Y-190663D01*
X304163Y-192351D01*
X303250Y-194557D01*
Y-196943D01*
X304163Y-199149D01*
X305851Y-200837D01*
X308057Y-201750D01*
X310443D01*
X311750Y-203374D01*
Y-203944D01*
X312663Y-206149D01*
X314351Y-207836D01*
X316556Y-208750D01*
X318944D01*
X321149Y-207836D01*
X322837Y-206149D01*
X323750Y-203944D01*
Y-201556D01*
X322837Y-199351D01*
X321149Y-197663D01*
X318944Y-196750D01*
X316557D01*
X315250Y-195126D01*
Y-194557D01*
X314337Y-192351D01*
X312649Y-190663D01*
X310443Y-189750D01*
D02*
G37*
G36*
X105943Y-200250D02*
X103556D01*
X101351Y-201164D01*
X99663Y-202851D01*
X98750Y-205056D01*
Y-207444D01*
X99663Y-209649D01*
X101351Y-211337D01*
X103556Y-212250D01*
X105943D01*
X108149Y-211337D01*
X109599Y-209886D01*
X109663Y-209899D01*
X111351Y-211586D01*
X113556Y-212500D01*
X115943D01*
X118149Y-211586D01*
X119837Y-209899D01*
X120750Y-207694D01*
Y-205306D01*
X119837Y-203101D01*
X118149Y-201413D01*
X115943Y-200500D01*
X113556D01*
X111351Y-201413D01*
X109901Y-202864D01*
X109837Y-202851D01*
X108149Y-201164D01*
X105943Y-200250D01*
D02*
G37*
G36*
X70444Y-205750D02*
X68057D01*
X65851Y-206663D01*
X64163Y-208351D01*
X63250Y-210557D01*
Y-212943D01*
X64163Y-215149D01*
X65851Y-216836D01*
X68057Y-217750D01*
X70444D01*
X72649Y-216836D01*
X74337Y-215149D01*
X75250Y-212943D01*
Y-210557D01*
X74337Y-208351D01*
X72649Y-206663D01*
X70444Y-205750D01*
D02*
G37*
G36*
X272997Y-210528D02*
X270611D01*
X268405Y-211441D01*
X266717Y-213129D01*
X265804Y-215334D01*
Y-217721D01*
X266717Y-219927D01*
X268405Y-221614D01*
X270611Y-222528D01*
X272997D01*
X275203Y-221614D01*
X276891Y-219927D01*
X277804Y-217721D01*
Y-215334D01*
X276891Y-213129D01*
X275203Y-211441D01*
X272997Y-210528D01*
D02*
G37*
G36*
X292444Y-214250D02*
X290056D01*
X287851Y-215163D01*
X286164Y-216851D01*
X285250Y-219056D01*
Y-220122D01*
X284550Y-221631D01*
X283402Y-221938D01*
X282021D01*
X279815Y-222851D01*
X278127Y-224539D01*
X277214Y-226744D01*
Y-229131D01*
X278127Y-231336D01*
X279815Y-233024D01*
X282021Y-233938D01*
X284408D01*
X286613Y-233024D01*
X288301Y-231336D01*
X289214Y-229131D01*
Y-228066D01*
X289914Y-226557D01*
X291062Y-226250D01*
X291366D01*
X292579Y-226574D01*
X293214Y-228096D01*
Y-229131D01*
X294128Y-231336D01*
X295815Y-233024D01*
X298021Y-233938D01*
X300408D01*
X302613Y-233024D01*
X304301Y-231336D01*
X305214Y-229131D01*
Y-227987D01*
X307167Y-226632D01*
X308057Y-227000D01*
X310443D01*
X312649Y-226087D01*
X314337Y-224399D01*
X314896Y-223048D01*
X317061D01*
X317414Y-223899D01*
X319101Y-225587D01*
X321306Y-226500D01*
X323694D01*
X325899Y-225587D01*
X327587Y-223899D01*
X328500Y-221693D01*
Y-219307D01*
X327587Y-217101D01*
X325899Y-215413D01*
X323694Y-214500D01*
X321306D01*
X319101Y-215413D01*
X317414Y-217101D01*
X316854Y-218452D01*
X314689D01*
X314337Y-217601D01*
X312649Y-215914D01*
X310443Y-215000D01*
X308057D01*
X305851Y-215914D01*
X304163Y-217601D01*
X303250Y-219806D01*
Y-220950D01*
X301297Y-222306D01*
X300408Y-221938D01*
X299098D01*
X297885Y-221613D01*
X297250Y-220092D01*
Y-219056D01*
X296337Y-216851D01*
X294649Y-215163D01*
X292444Y-214250D01*
D02*
G37*
G36*
X395518Y-218325D02*
X393132D01*
X390926Y-219238D01*
X389239Y-220926D01*
X388325Y-223132D01*
Y-225518D01*
X389239Y-227724D01*
X390926Y-229412D01*
X393132Y-230325D01*
X395518D01*
X397724Y-229412D01*
X399412Y-227724D01*
X400325Y-225518D01*
Y-223132D01*
X399412Y-220926D01*
X397724Y-219238D01*
X395518Y-218325D01*
D02*
G37*
G36*
X162694Y-219250D02*
X160306D01*
X158101Y-220163D01*
X156413Y-221851D01*
X155500Y-224056D01*
Y-226444D01*
X156413Y-228649D01*
X158101Y-230336D01*
X160306Y-231250D01*
X162694D01*
X164899Y-230336D01*
X166587Y-228649D01*
X167500Y-226444D01*
Y-224056D01*
X166587Y-221851D01*
X164899Y-220163D01*
X162694Y-219250D01*
D02*
G37*
G36*
X121281Y-220750D02*
X118894D01*
X116688Y-221663D01*
X115001Y-223351D01*
X114087Y-225557D01*
Y-227943D01*
X115001Y-230149D01*
X116688Y-231837D01*
X118894Y-232750D01*
X121281D01*
X123486Y-231837D01*
X125174Y-230149D01*
X126087Y-227943D01*
Y-225557D01*
X125174Y-223351D01*
X123486Y-221663D01*
X121281Y-220750D01*
D02*
G37*
G36*
X104444Y-233000D02*
X102057D01*
X99851Y-233913D01*
X98163Y-235601D01*
X97250Y-237806D01*
Y-240194D01*
X98163Y-242399D01*
X99851Y-244087D01*
X102057Y-245000D01*
X104444D01*
X106649Y-244087D01*
X108337Y-242399D01*
X109250Y-240194D01*
Y-237806D01*
X108337Y-235601D01*
X106649Y-233913D01*
X104444Y-233000D01*
D02*
G37*
G36*
X6194Y-217000D02*
X3807D01*
X1601Y-217913D01*
X-87Y-219601D01*
X-1000Y-221807D01*
Y-224193D01*
X-87Y-226399D01*
X1601Y-228087D01*
X1974Y-228241D01*
Y-230406D01*
X1351Y-230664D01*
X-336Y-232351D01*
X-1250Y-234557D01*
Y-236943D01*
X-336Y-239149D01*
X1351Y-240837D01*
X1370Y-240844D01*
X1512Y-242110D01*
X1466Y-243049D01*
X-87Y-244601D01*
X-1000Y-246807D01*
Y-249193D01*
X-87Y-251399D01*
X1601Y-253087D01*
X3807Y-254000D01*
X6194D01*
X8399Y-253087D01*
X10086Y-251399D01*
X11000Y-249193D01*
Y-246807D01*
X10086Y-244601D01*
X8399Y-242913D01*
X8380Y-242906D01*
X8238Y-241640D01*
X8284Y-240701D01*
X9837Y-239149D01*
X10750Y-236943D01*
Y-234557D01*
X9837Y-232351D01*
X8149Y-230664D01*
X7776Y-230509D01*
Y-228344D01*
X8399Y-228087D01*
X10087Y-226399D01*
X11000Y-224193D01*
Y-221807D01*
X10087Y-219601D01*
X8399Y-217913D01*
X6194Y-217000D01*
D02*
G37*
G36*
X246113Y-242320D02*
X243727D01*
X241521Y-243233D01*
X239833Y-244921D01*
X238920Y-247127D01*
Y-249513D01*
X239833Y-251719D01*
X241521Y-253407D01*
X243727Y-254320D01*
X246113D01*
X248319Y-253407D01*
X250007Y-251719D01*
X250920Y-249513D01*
Y-247127D01*
X250007Y-244921D01*
X248319Y-243233D01*
X246113Y-242320D01*
D02*
G37*
G36*
X104693Y-253750D02*
X102306D01*
X100101Y-254663D01*
X98413Y-256351D01*
X97500Y-258556D01*
Y-260944D01*
X98413Y-263149D01*
X100101Y-264837D01*
X102306Y-265750D01*
X104693D01*
X106899Y-264837D01*
X108587Y-263149D01*
X109500Y-260944D01*
Y-258556D01*
X108587Y-256351D01*
X106899Y-254663D01*
X104693Y-253750D01*
D02*
G37*
G36*
X181943Y-256500D02*
X179557D01*
X177351Y-257414D01*
X175664Y-259101D01*
X174750Y-261306D01*
Y-263694D01*
X175664Y-265899D01*
X177351Y-267587D01*
X179557Y-268500D01*
X181943D01*
X184149Y-267587D01*
X185837Y-265899D01*
X186750Y-263694D01*
Y-261306D01*
X185837Y-259101D01*
X184149Y-257414D01*
X181943Y-256500D01*
D02*
G37*
G36*
X91760Y-268788D02*
X89280Y-269114D01*
X86969Y-270072D01*
X84985Y-271595D01*
X84480Y-272252D01*
X84275Y-272350D01*
X81919Y-272304D01*
X81234Y-271619D01*
X79304Y-270820D01*
X77216D01*
X75286Y-271619D01*
X74010Y-272895D01*
X72734Y-271619D01*
X70804Y-270820D01*
X68716D01*
X66786Y-271619D01*
X65510Y-272895D01*
X64234Y-271619D01*
X62304Y-270820D01*
X60216D01*
X58286Y-271619D01*
X57010Y-272895D01*
X55734Y-271619D01*
X53804Y-270820D01*
X51716D01*
X49786Y-271619D01*
X48510Y-272895D01*
X47234Y-271619D01*
X45304Y-270820D01*
X43216D01*
X41286Y-271619D01*
X40010Y-272895D01*
X38734Y-271619D01*
X36804Y-270820D01*
X34716D01*
X32786Y-271619D01*
X31510Y-272895D01*
X30234Y-271619D01*
X28304Y-270820D01*
X26216D01*
X24286Y-271619D01*
X23010Y-272895D01*
X21734Y-271619D01*
X19804Y-270820D01*
X17716D01*
X15786Y-271619D01*
X15101Y-272304D01*
X12745Y-272350D01*
X12540Y-272252D01*
X12035Y-271595D01*
X10051Y-270072D01*
X7740Y-269114D01*
X5260Y-268788D01*
X2780Y-269114D01*
X469Y-270072D01*
X-1515Y-271595D01*
X-3038Y-273579D01*
X-3995Y-275890D01*
X-4322Y-278370D01*
Y-293370D01*
X-3995Y-295850D01*
X-3038Y-298161D01*
X-1515Y-300145D01*
X469Y-301668D01*
X2780Y-302626D01*
X5260Y-302952D01*
X7740Y-302626D01*
X10051Y-301668D01*
X12035Y-300145D01*
X13558Y-298161D01*
X14516Y-295850D01*
X14560Y-295513D01*
X14677Y-295371D01*
X16723Y-294409D01*
X17716Y-294820D01*
X19804D01*
X21734Y-294021D01*
X23010Y-292745D01*
X24286Y-294021D01*
X26216Y-294820D01*
X28304D01*
X30234Y-294021D01*
X31510Y-292745D01*
X32786Y-294021D01*
X34716Y-294820D01*
X36804D01*
X38734Y-294021D01*
X40010Y-292745D01*
X41286Y-294021D01*
X43216Y-294820D01*
X45304D01*
X47234Y-294021D01*
X48510Y-292745D01*
X49786Y-294021D01*
X51716Y-294820D01*
X53804D01*
X55734Y-294021D01*
X57010Y-292745D01*
X58286Y-294021D01*
X60216Y-294820D01*
X62304D01*
X64234Y-294021D01*
X65510Y-292745D01*
X66786Y-294021D01*
X68716Y-294820D01*
X70804D01*
X72734Y-294021D01*
X74010Y-292745D01*
X75286Y-294021D01*
X77216Y-294820D01*
X79304D01*
X80297Y-294409D01*
X82343Y-295371D01*
X82460Y-295513D01*
X82505Y-295850D01*
X83462Y-298161D01*
X84985Y-300145D01*
X86969Y-301668D01*
X89280Y-302626D01*
X91760Y-302952D01*
X94240Y-302626D01*
X96551Y-301668D01*
X98535Y-300145D01*
X100058Y-298161D01*
X101016Y-295850D01*
X101342Y-293370D01*
Y-278370D01*
X101016Y-275890D01*
X100058Y-273579D01*
X98535Y-271595D01*
X96551Y-270072D01*
X94240Y-269114D01*
X91760Y-268788D01*
D02*
G37*
G36*
X-9807Y-296250D02*
X-12193D01*
X-14399Y-297163D01*
X-16087Y-298851D01*
X-17000Y-301056D01*
Y-303444D01*
X-16087Y-305649D01*
X-14399Y-307337D01*
X-12193Y-308250D01*
X-9807D01*
X-7601Y-307337D01*
X-5914Y-305649D01*
X-5000Y-303444D01*
Y-301056D01*
X-5914Y-298851D01*
X-7601Y-297163D01*
X-9807Y-296250D01*
D02*
G37*
G36*
X167444Y-296750D02*
X165056D01*
X162851Y-297663D01*
X161164Y-299351D01*
X160250Y-301556D01*
Y-303944D01*
X161164Y-306149D01*
X162851Y-307837D01*
X165056Y-308750D01*
X167444D01*
X169649Y-307837D01*
X171337Y-306149D01*
X172250Y-303944D01*
Y-301556D01*
X171337Y-299351D01*
X169649Y-297663D01*
X167444Y-296750D01*
D02*
G37*
%LPD*%
D53*
X441321Y100280D02*
D03*
X-26801D02*
D03*
D54*
X326005Y78817D02*
D03*
X304415D02*
D03*
X282825D02*
D03*
X261235D02*
D03*
X239645D02*
D03*
X218055D02*
D03*
X196465D02*
D03*
X174875D02*
D03*
X153285D02*
D03*
X131695D02*
D03*
X110105D02*
D03*
X88515D02*
D03*
X326005Y121743D02*
D03*
X304415D02*
D03*
X282825D02*
D03*
X261235D02*
D03*
X239645D02*
D03*
X218055D02*
D03*
X196465D02*
D03*
X174875D02*
D03*
X153285D02*
D03*
X131695D02*
D03*
X110105D02*
D03*
X88515D02*
D03*
D55*
X5260Y-319670D02*
D03*
X91760D02*
D03*
D56*
X5260Y-285870D02*
D03*
X91760D02*
D03*
D57*
X18760Y-276070D02*
D03*
X27260D02*
D03*
X35760D02*
D03*
X44260D02*
D03*
X52760D02*
D03*
X61260D02*
D03*
X69760D02*
D03*
X78260D02*
D03*
Y-289570D02*
D03*
X69760D02*
D03*
X61260D02*
D03*
X52760D02*
D03*
X44260D02*
D03*
X35760D02*
D03*
X27260D02*
D03*
X18760D02*
D03*
D58*
X443250Y-28750D02*
D03*
X443250Y-104950D02*
D03*
Y-79550D02*
D03*
X443250Y-54150D02*
D03*
X443250Y-3350D02*
D03*
D59*
Y22050D02*
D03*
D60*
X198250Y-93250D02*
D03*
X229750Y-93500D02*
D03*
X407750Y-193250D02*
D03*
X394325Y-224325D02*
D03*
X357750Y-171500D02*
D03*
X414250Y-122500D02*
D03*
X-11000Y-302250D02*
D03*
X300000Y-3858D02*
D03*
X259000Y-110250D02*
D03*
X215250Y-139500D02*
D03*
X177750Y-183000D02*
D03*
X226308Y-202192D02*
D03*
X291250Y-220250D02*
D03*
X299214Y-227938D02*
D03*
X283214Y-227938D02*
D03*
X271804Y-216528D02*
D03*
X244920Y-248320D02*
D03*
X180750Y-262500D02*
D03*
X141000Y-119250D02*
D03*
X134870Y-3860D02*
D03*
X80000Y-147750D02*
D03*
X103250Y-239000D02*
D03*
X103500Y-259750D02*
D03*
X69250Y-211750D02*
D03*
X166250Y-302750D02*
D03*
X5000Y-223000D02*
D03*
X4750Y-235750D02*
D03*
X5000Y-248000D02*
D03*
X320500Y-182500D02*
D03*
X330500D02*
D03*
X340750D02*
D03*
Y-172000D02*
D03*
X317750Y-202750D02*
D03*
X309250Y-195750D02*
D03*
X235250Y-110750D02*
D03*
X236500Y-58500D02*
D03*
X190750Y-151500D02*
D03*
X177750Y-161750D02*
D03*
X141000Y-133750D02*
D03*
X129750Y-168500D02*
D03*
X223500Y-58500D02*
D03*
X286250Y-97750D02*
D03*
X249000Y-58500D02*
D03*
X252250Y-23000D02*
D03*
X104750Y-206250D02*
D03*
X114750Y-206500D02*
D03*
X161500Y-225250D02*
D03*
X120087Y-226750D02*
D03*
X177750Y-172000D02*
D03*
X424620Y-87760D02*
D03*
X241750Y-162250D02*
D03*
X3000Y-197750D02*
D03*
X199000Y-216500D02*
D03*
Y-226000D02*
D03*
X168000Y-93250D02*
D03*
X187000Y-122750D02*
D03*
X177726Y-194500D02*
D03*
X198000Y-58500D02*
D03*
X185500D02*
D03*
X173000D02*
D03*
X160000D02*
D03*
X135250Y-58250D02*
D03*
X325370Y-153720D02*
D03*
X232500Y-320000D02*
D03*
X257500D02*
D03*
X282500D02*
D03*
X307500D02*
D03*
X332500D02*
D03*
X357500D02*
D03*
X382500D02*
D03*
X407500D02*
D03*
X432500D02*
D03*
X457500D02*
D03*
X-42500D02*
D03*
X-17500D02*
D03*
X32500D02*
D03*
X57500D02*
D03*
X82500D02*
D03*
X107500D02*
D03*
X132500D02*
D03*
X157500D02*
D03*
X182500D02*
D03*
X207500D02*
D03*
X467000Y-270000D02*
D03*
Y-245000D02*
D03*
Y-220000D02*
D03*
Y-195000D02*
D03*
Y-170000D02*
D03*
Y-145000D02*
D03*
Y-120000D02*
D03*
Y-95000D02*
D03*
Y-70000D02*
D03*
Y-45000D02*
D03*
Y-20000D02*
D03*
Y5000D02*
D03*
Y30000D02*
D03*
Y-295000D02*
D03*
X-52500Y55000D02*
D03*
Y30000D02*
D03*
Y5000D02*
D03*
Y-20000D02*
D03*
Y-45000D02*
D03*
Y-70000D02*
D03*
Y-95000D02*
D03*
Y-120000D02*
D03*
Y-145000D02*
D03*
Y-170000D02*
D03*
Y-195000D02*
D03*
Y-220000D02*
D03*
Y-245000D02*
D03*
Y-270000D02*
D03*
Y-295000D02*
D03*
X14010Y-145140D02*
D03*
X274750Y-185750D02*
D03*
X322500Y-220500D02*
D03*
X309250Y-221000D02*
D03*
X350770Y-3860D02*
D03*
X338070D02*
D03*
X325370Y-3860D02*
D03*
X312670Y-3860D02*
D03*
X236470Y40590D02*
D03*
X223770D02*
D03*
X211070D02*
D03*
X198370D02*
D03*
X274570Y-5130D02*
D03*
X404110Y-19100D02*
D03*
X317750Y-161340D02*
D03*
X310130Y-168960D02*
D03*
X302510Y-176580D02*
D03*
X294890Y-184200D02*
D03*
X287270Y-191820D02*
D03*
Y-163880D02*
D03*
X299970Y-44500D02*
D03*
M02*
