G04*
G04 #@! TF.GenerationSoftware,Altium Limited,Altium Designer,25.5.2 (35)*
G04*
G04 Layer_Color=32768*
%FSLAX44Y44*%
%MOMM*%
G71*
G04*
G04 #@! TF.SameCoordinates,24B21415-5C40-4A56-A289-731DE7267D3C*
G04*
G04*
G04 #@! TF.FilePolarity,Positive*
G04*
G01*
G75*
%ADD62C,0.0500*%
%ADD63C,0.1000*%
D62*
X187020Y-307710D02*
X252020D01*
Y-270460D01*
X187020D02*
X252020D01*
X187020Y-307710D02*
Y-270460D01*
X-68740Y53780D02*
Y205690D01*
Y53780D02*
X483260D01*
Y205690D01*
X-68740D02*
X483260D01*
X48509Y-321322D02*
Y-316321D01*
X43508D02*
X48509D01*
Y-311320D01*
Y-316321D02*
X53510D01*
X-240Y-364670D02*
X97260D01*
X-240D02*
Y-267970D01*
X97260D01*
Y-364670D02*
Y-267970D01*
X79000Y-239000D02*
X84000D01*
X89000D01*
X84000Y-244000D02*
Y-239000D01*
Y-234000D01*
X71000Y-246500D02*
Y-231500D01*
X97000Y-246500D02*
Y-231500D01*
X71000Y-246500D02*
X97000D01*
X71000Y-231500D02*
X97000D01*
X404000Y-220500D02*
X404000Y-186000D01*
X385000Y-220500D02*
X385000Y-186000D01*
X385000Y-220500D02*
X404000D01*
X385000Y-186000D02*
X404000D01*
X394500Y-203250D02*
X399500D01*
X389500D02*
X394500D01*
Y-208250D02*
Y-203250D01*
Y-198250D01*
X178000Y-244250D02*
X183000D01*
X188000D01*
X183000Y-249250D02*
Y-244250D01*
Y-239250D01*
X165750Y-253750D02*
X165750Y-234750D01*
X200250Y-253750D02*
X200250Y-234750D01*
X165750Y-253750D02*
X200250Y-253750D01*
X165750Y-234750D02*
X200250Y-234750D01*
X159250Y-302750D02*
Y-268250D01*
X140250Y-302750D02*
Y-268250D01*
Y-302750D02*
X159250D01*
X140250Y-268250D02*
X159250D01*
X149750Y-285500D02*
X154750D01*
X144750D02*
X149750D01*
Y-290500D02*
Y-285500D01*
Y-280500D01*
X120750Y-294750D02*
Y-270000D01*
X134250Y-294750D02*
X134250Y-270000D01*
X120750Y-270000D02*
X134250Y-270000D01*
X120750Y-294750D02*
X134250Y-294750D01*
X127500Y-282250D02*
X127500Y-287250D01*
X122500Y-282250D02*
X127500Y-282250D01*
X132500Y-282250D01*
X127500Y-277250D02*
X127500Y-282250D01*
X-24250Y-255750D02*
Y-240750D01*
X-11250Y-248250D02*
X-6250D01*
X-24250Y-255750D02*
X1750D01*
X-11250Y-248250D02*
Y-243250D01*
X1750Y-255750D02*
Y-240750D01*
X-16250Y-248250D02*
X-11250D01*
Y-253250D02*
Y-248250D01*
X-24250Y-240750D02*
X1750D01*
X146750Y-141250D02*
Y-126250D01*
X159750Y-133750D02*
X164750D01*
X146750Y-141250D02*
X172750D01*
X159750Y-133750D02*
Y-128750D01*
X172750Y-141250D02*
Y-126250D01*
X154750Y-133750D02*
X159750D01*
Y-138750D02*
Y-133750D01*
X146750Y-126250D02*
X172750D01*
X-34576Y-213909D02*
X-76D01*
X-34576Y-232908D02*
X-76D01*
Y-213909D01*
X-34576Y-232908D02*
Y-213909D01*
X-17326Y-223409D02*
Y-218409D01*
Y-228409D02*
Y-223409D01*
X-12326D01*
X-22326D02*
X-17326D01*
X34250Y-204250D02*
X49250D01*
X41750Y-191250D02*
Y-186250D01*
X49250Y-204250D02*
Y-178250D01*
X36750Y-191250D02*
X41750D01*
X34250Y-178250D02*
X49250D01*
X41750Y-196250D02*
Y-191250D01*
X46750D01*
X34250Y-204250D02*
Y-178250D01*
X47750Y-204250D02*
X62750D01*
X55250Y-191250D02*
Y-186250D01*
X62750Y-204250D02*
Y-178250D01*
X50250Y-191250D02*
X55250D01*
X47750Y-178250D02*
X62750D01*
X55250Y-196250D02*
Y-191250D01*
X60250D01*
X47750Y-204250D02*
Y-178250D01*
X186000Y-169750D02*
Y-154750D01*
X199000Y-162250D02*
X204000D01*
X186000Y-169750D02*
X212000D01*
X199000Y-162250D02*
Y-157250D01*
X212000Y-169750D02*
Y-154750D01*
X194000Y-162250D02*
X199000D01*
Y-167250D02*
Y-162250D01*
X186000Y-154750D02*
X212000D01*
X99250Y-295250D02*
X114250D01*
X106750Y-282250D02*
Y-277250D01*
X114250Y-295250D02*
Y-269250D01*
X101750Y-282250D02*
X106750D01*
X99250Y-269250D02*
X114250D01*
X106750Y-287250D02*
Y-282250D01*
X111750D01*
X99250Y-295250D02*
Y-269250D01*
X-18500Y-295250D02*
X-3500D01*
X-11000Y-282250D02*
Y-277250D01*
X-3500Y-295250D02*
Y-269250D01*
X-16000Y-282250D02*
X-11000D01*
X-18500Y-269250D02*
X-3500D01*
X-11000Y-287250D02*
Y-282250D01*
X-6000D01*
X-18500Y-295250D02*
Y-269250D01*
X172762Y-112250D02*
Y-97250D01*
X154762Y-104750D02*
X159762D01*
X146762Y-97250D02*
X172762D01*
X159762Y-109750D02*
Y-104750D01*
X146762Y-112250D02*
Y-97250D01*
X159762Y-104750D02*
X164762D01*
X159762D02*
Y-99750D01*
X146762Y-112250D02*
X172762D01*
X172750Y-155250D02*
Y-140250D01*
X154750Y-147750D02*
X159750D01*
X146750Y-140250D02*
X172750D01*
X159750Y-152750D02*
Y-147750D01*
X146750Y-155250D02*
Y-140250D01*
X159750Y-147750D02*
X164750D01*
X159750D02*
Y-142750D01*
X146750Y-155250D02*
X172750D01*
X-32250Y-186250D02*
X-17250D01*
X-24750Y-173250D02*
Y-168250D01*
X-17250Y-186250D02*
Y-160250D01*
X-29750Y-173250D02*
X-24750D01*
X-32250Y-160250D02*
X-17250D01*
X-24750Y-178250D02*
Y-173250D01*
X-19750D01*
X-32250Y-186250D02*
Y-160250D01*
X-17750Y-186250D02*
X-2750D01*
X-10250Y-173250D02*
Y-168250D01*
X-2750Y-186250D02*
Y-160250D01*
X-15250Y-173250D02*
X-10250D01*
X-17750Y-160250D02*
X-2750D01*
X-10250Y-178250D02*
Y-173250D01*
X-5250D01*
X-17750Y-186250D02*
Y-160250D01*
X212000Y-199000D02*
Y-184000D01*
X194000Y-191500D02*
X199000D01*
X186000Y-184000D02*
X212000D01*
X199000Y-196500D02*
Y-191500D01*
X186000Y-199000D02*
Y-184000D01*
X199000Y-191500D02*
X204000D01*
X199000D02*
Y-186500D01*
X186000Y-199000D02*
X212000D01*
X99000Y-147750D02*
X104000D01*
X94000D02*
X99000D01*
Y-142750D01*
Y-152750D02*
Y-147750D01*
X112000Y-155250D02*
Y-140250D01*
X86000Y-155250D02*
Y-140250D01*
X112000D01*
X86000Y-155250D02*
X112000D01*
X165000Y-203750D02*
Y-198750D01*
Y-193750D01*
Y-198750D02*
X170000D01*
X160000D02*
X165000D01*
X157500Y-211750D02*
X172500D01*
X157500Y-185750D02*
X172500D01*
Y-211750D02*
Y-185750D01*
X157500Y-211750D02*
Y-185750D01*
X159750Y-119250D02*
X164750D01*
X154750D02*
X159750D01*
Y-114250D01*
Y-124250D02*
Y-119250D01*
X172750Y-126750D02*
Y-111750D01*
X146750Y-126750D02*
Y-111750D01*
X172750D01*
X146750Y-126750D02*
X172750D01*
X266950Y-97840D02*
X271950D01*
X261950D02*
X266950D01*
Y-92840D01*
Y-102840D02*
Y-97840D01*
X279950Y-105340D02*
Y-90340D01*
X253950Y-105340D02*
Y-90340D01*
X279950D01*
X253950Y-105340D02*
X279950D01*
X69250Y-191250D02*
Y-186250D01*
Y-196250D02*
Y-191250D01*
X64250D02*
X69250D01*
X74250D01*
X61750Y-178250D02*
X76750D01*
X61750Y-204250D02*
X76750D01*
X61750D02*
Y-178250D01*
X76750Y-204250D02*
Y-178250D01*
X79250Y-259750D02*
X84250D01*
X89250D01*
X84250Y-264750D02*
Y-259750D01*
Y-254750D01*
X71250Y-267250D02*
Y-252250D01*
X97250Y-267250D02*
Y-252250D01*
X71250Y-267250D02*
X97250D01*
X71250Y-252250D02*
X97250D01*
X194000Y-177000D02*
X199000D01*
X204000D01*
X199000Y-182000D02*
Y-177000D01*
Y-172000D01*
X186000Y-184500D02*
Y-169500D01*
X212000Y-184500D02*
Y-169500D01*
X186000Y-184500D02*
X212000D01*
X186000Y-169500D02*
X212000D01*
X414270Y-105460D02*
Y-100460D01*
Y-110460D02*
Y-105460D01*
X409270D02*
X414270D01*
X419270D01*
X406770Y-92460D02*
X421770D01*
X406770Y-118460D02*
X421770D01*
X406770D02*
Y-92460D01*
X421770Y-118460D02*
Y-92460D01*
X393250Y-177750D02*
X398250D01*
X403250D01*
X398250Y-182750D02*
Y-177750D01*
Y-172750D01*
X385250Y-185250D02*
Y-170250D01*
X411250Y-185250D02*
Y-170250D01*
X385250Y-185250D02*
X411250Y-185250D01*
X385250Y-170250D02*
X411250Y-170250D01*
X232300Y-262290D02*
X237300D01*
X242300D01*
X237300Y-267290D02*
Y-262290D01*
Y-257290D01*
X224300Y-269790D02*
Y-254790D01*
X250300Y-269790D02*
Y-254790D01*
X224300Y-269790D02*
X250300D01*
X224300Y-254790D02*
X250300D01*
X201740Y-262290D02*
X206740D01*
X196740D02*
X201740D01*
Y-257290D01*
Y-267290D02*
Y-262290D01*
X214740Y-269790D02*
Y-254790D01*
X188740Y-269790D02*
Y-254790D01*
X214740D01*
X188740Y-269790D02*
X214740D01*
X237000Y-184250D02*
Y-179250D01*
Y-189250D02*
Y-184250D01*
X232000D02*
X237000D01*
X242000D01*
X229500Y-171250D02*
X244500D01*
X229500Y-197250D02*
X244500D01*
X229500D02*
Y-171250D01*
X244500Y-197250D02*
Y-171250D01*
X154344Y-220448D02*
X156250Y-217948D01*
X154344Y-220448D02*
X156250Y-222948D01*
X77000Y-226750D02*
X156250D01*
X77000Y-155500D02*
X156250D01*
X77000Y-226750D02*
Y-155500D01*
X156250Y-226750D02*
X156250Y-155500D01*
X116500Y-196250D02*
Y-191250D01*
Y-186250D01*
X111500Y-191250D02*
X116500D01*
X121500D01*
X199000Y-216500D02*
X204000Y-216500D01*
X194000Y-216500D02*
X199000Y-216500D01*
X199000Y-211500D02*
X199000Y-216500D01*
X199000Y-221500D01*
X219250Y-199500D02*
X219250Y-233750D01*
X178750D02*
Y-199500D01*
X219250D01*
X178750Y-233750D02*
X219250D01*
X217500Y-226000D02*
X219250Y-230000D01*
X217500Y-226000D02*
X219250Y-222000D01*
X43500Y-236000D02*
X48500D01*
X53500D01*
X48500Y-241000D02*
Y-236000D01*
Y-231000D01*
X28250Y-253250D02*
Y-219000D01*
X68750Y-253250D02*
Y-219000D01*
X28250Y-253250D02*
X68750D01*
X28250Y-219000D02*
X68750D01*
X28250Y-222500D02*
X30000Y-226500D01*
X28250Y-230500D02*
X30000Y-226500D01*
X458500Y-120200D02*
Y37300D01*
X428000D02*
X458500D01*
X428000Y-120200D02*
Y37300D01*
Y-120200D02*
X458500D01*
X194750Y-122750D02*
X194750Y-127750D01*
X194750Y-122750D02*
X194750Y-127750D01*
X194750Y-122750D02*
X199750Y-122750D01*
X194750Y-122750D02*
X199750Y-122750D01*
X194750Y-117750D02*
X194750Y-122750D01*
X194750Y-117750D02*
X194750Y-122750D01*
X189750Y-122750D02*
X194750Y-122750D01*
X212750Y-147750D02*
Y-97750D01*
X176750D02*
X212750D01*
X176750Y-147750D02*
Y-97750D01*
Y-147750D02*
X212750D01*
X-5000Y0D02*
X5000D01*
X0Y-5000D02*
Y5000D01*
X-24250Y-17000D02*
Y17000D01*
Y-17000D02*
X24250D01*
Y17000D01*
X-24250D02*
X24250D01*
X-5000Y-40000D02*
X5000D01*
X0Y-45000D02*
Y-35000D01*
X-24250Y-57000D02*
Y-23000D01*
Y-57000D02*
X24250D01*
Y-23000D01*
X-24250D02*
X24250D01*
X-5000Y-120000D02*
X5000D01*
X0Y-125000D02*
Y-115000D01*
X-24250Y-137000D02*
Y-103000D01*
Y-137000D02*
X24250D01*
Y-103000D01*
X-24250D02*
X24250D01*
X-5000Y-80000D02*
X5000D01*
X0Y-85000D02*
Y-75000D01*
X-24250Y-97000D02*
Y-63000D01*
Y-97000D02*
X24250D01*
Y-63000D01*
X-24250D02*
X24250D01*
X315214Y-184528D02*
X320214D01*
X310214D02*
X315214D01*
Y-179528D01*
Y-189528D02*
Y-184528D01*
X384714Y-254028D02*
Y-115028D01*
X245714Y-254028D02*
Y-115028D01*
X384714D01*
X245714Y-254028D02*
X384714D01*
X382964Y-224528D02*
X384714Y-227978D01*
X382964Y-224528D02*
X384714Y-221078D01*
X410520Y29240D02*
X414270Y27490D01*
X418020Y29240D01*
X424620Y-87760D02*
Y29240D01*
X289620Y-87760D02*
Y29240D01*
Y-87760D02*
X424620D01*
X289620Y29240D02*
X424620D01*
X357120Y-29260D02*
X362120D01*
X352120D02*
X357120D01*
Y-34260D02*
Y-29260D01*
Y-24260D01*
X271070Y30240D02*
X274570Y28490D01*
X278070Y30240D01*
X285220Y-88760D02*
Y30240D01*
X124220Y-88760D02*
Y30240D01*
Y-88760D02*
X285220D01*
X124220Y30240D02*
X285220D01*
X204720Y-29260D02*
X209720D01*
X199720D02*
X204720D01*
Y-34260D02*
Y-29260D01*
Y-24260D01*
D63*
X164360Y202877D02*
Y192880D01*
X169358D01*
X171024Y194546D01*
Y196212D01*
X169358Y197878D01*
X164360D01*
X169358D01*
X171024Y199545D01*
Y201211D01*
X169358Y202877D01*
X164360D01*
X179355D02*
X176023D01*
X174357Y201211D01*
Y194546D01*
X176023Y192880D01*
X179355D01*
X181021Y194546D01*
Y201211D01*
X179355Y202877D01*
X184354Y192880D02*
Y199545D01*
X187686Y202877D01*
X191018Y199545D01*
Y192880D01*
Y197878D01*
X184354D01*
X194350Y192880D02*
Y202877D01*
X199349D01*
X201015Y201211D01*
Y197878D01*
X199349Y196212D01*
X194350D01*
X197683D02*
X201015Y192880D01*
X204347Y202877D02*
Y192880D01*
X209345D01*
X211012Y194546D01*
Y201211D01*
X209345Y202877D01*
X204347D01*
X231005D02*
X224341D01*
Y192880D01*
X231005D01*
X224341Y197878D02*
X227673D01*
X234338Y202877D02*
Y192880D01*
X239336D01*
X241002Y194546D01*
Y201211D01*
X239336Y202877D01*
X234338D01*
X250999Y201211D02*
X249333Y202877D01*
X246000D01*
X244334Y201211D01*
Y194546D01*
X246000Y192880D01*
X249333D01*
X250999Y194546D01*
Y197878D01*
X247666D01*
X260996Y202877D02*
X254331D01*
Y192880D01*
X260996D01*
X254331Y197878D02*
X257663D01*
M02*
