M48
;Layer_Color=9474304
;FILE_FORMAT=4:4
METRIC,LZ
;TYPE=PLATED
T01F00S00C0.4000
T03F00S00C1.0000
T04F00S00C1.1000
T05F00S00C3.2000
%
T01
X00467Y-00295
Y-0027
Y-00245
Y-0022
Y-00195
Y-0017
Y-00145
Y-0012
Y-00095
X0042462Y-0008776
X0041425Y-001225
X0040775Y-0019325
X00394325Y-00224325
X003225Y-002205
X0030925Y-00221
X00299214Y-00227938
X0029125Y-0022025
X00283214Y-00227938
X00271804Y-00216528
X0027475Y-0018575
X0028727Y-0019182
X0029489Y-001842
X0030251Y-0017658
X0031013Y-0016896
X0031775Y-0016134
X0032537Y-0015372
X003205Y-001825
X003305
X0034075
Y-00172
X0035775Y-001715
X0031775Y-0020275
X0030925Y-0019575
X0028727Y-0016388
X0024175Y-0016225
X0021525Y-001395
X0019075Y-001515
X0017775Y-0016175
Y-00172
Y-00183
X00177726Y-001945
X00199Y-002165
Y-00226
X001615Y-0022525
X00120087Y-0022675
X0011475Y-002065
X0010475Y-0020625
X0010325Y-00239
X001035Y-0025975
X0007826Y-0027607
X0006976
Y-0028957
X0007826
X000825Y-0032
X001075
X001325
X001575
X001825
X002075
X002325
X002575
X002825
X003075
X003325
X003575
X003825
X004075
X004325
X004575
X0024492Y-0024832
X00226308Y-00202192
X0023525Y-0011075
X0022975Y-000935
X0019825Y-0009325
X00168
X00187Y-0012275
X00141Y-0011925
Y-0013375
X0012975Y-001685
X0008Y-0014775
X0006925Y-0021175
X0018075Y-002625
X0016625Y-0030275
X00259Y-0011025
X0028625Y-0009775
X0001401Y-0014514
X00003Y-0019775
X00005Y-00223
X0000475Y-0023575
X00005Y-00248
X0001876Y-0027607
X0002726
X0003576
X0004426
X0005276
X0006126
Y-0028957
X0005276
X0004426
X0003576
X0002726
X0001876
X-00011Y-0030225
X-000175Y-0032
X-000425
X-000525Y-00295
Y-0027
Y-00245
Y-0022
Y-00195
Y-0017
Y-00145
Y-0012
Y-00095
X000325Y-0032
X000575
X-000525Y-0007
Y-00045
Y-0002
Y00005
Y0003
Y00055
X0013487Y-0000386
X0013525Y-0005825
X0016Y-000585
X00173
X001855
X00198
X002235
X002365
X00249
X0025225Y-00023
X0027457Y-0000513
X003Y-00003858
X0031267Y-0000386
X0032537Y-0000386
X0033807Y-0000386
X0035077
X0040411Y-000191
X0029997Y-000445
X0023647Y0004059
X0022377
X0021107
X0019837
X00467Y0003
Y00005
Y-0002
Y-00045
Y-0007
T03
X00088515Y00078817
X00110105
X00131695
X00153285
X00174875
X00196465
X00218055
X00239645
X00261235
X00282825
X00304415
X00326005
Y00121743
X00304415
X00282825
X00261235
X00239645
X00218055
X00196465
X00174875
X00153285
X00131695
X00110105
X00088515
T04
X0044325Y-0010495
Y-0007955
X0044325Y-0005415
X0044325Y-0002875
X0044325Y-0000335
Y0002205
T05
X-00026801Y0010028
X00441321
M30
